<svg width="400" height="400" viewBox="0 0 400 400" fill="none" xmlns="http://www.w3.org/2000/svg">
<rect opacity="0.01" width="400" height="400" fill="#0F0E10"/>
<path d="M133.192 204.121C140.695 196.138 148.412 188.342 155.596 180.087C158.862 176.33 162.613 177.38 166.333 177.537C168.125 177.61 167.378 179.104 166.647 180.045C163.282 184.267 159.907 188.48 156.521 192.684C154.885 194.722 153.328 196.827 151.604 198.781C150.559 199.936 150.674 200.736 151.604 201.916C156.411 207.883 161.161 213.895 165.853 219.953C166.438 220.705 166.652 221.75 167.039 222.659C166.072 222.905 165.105 223.365 164.139 223.37C156.913 223.396 149.687 223.438 142.466 223.239C139.921 223.166 138.808 223.882 138.286 226.484C136.844 233.558 135.109 240.591 133.411 247.598C133.192 248.523 132.507 249.338 132.037 250.21C131.248 249.609 130.302 249.134 129.696 248.381C124.994 242.566 120.291 236.73 115.704 230.815C114.549 229.326 113.614 228.976 111.843 229.864C105.123 233.161 98.3311 236.328 91.5387 239.473C90.6818 239.87 89.6107 239.818 88.6336 239.995C88.6336 239.081 88.4246 238.13 88.6336 237.268C90.269 229.875 91.9306 222.487 93.6913 215.12C94.1041 213.396 93.7958 212.507 92.0978 211.677C85.18 208.385 78.3354 204.947 71.4907 201.509C70.7697 201.148 70.2159 200.464 69.5889 199.894C70.2524 199.262 70.8115 198.452 71.5796 198.076C78.3719 194.743 85.1643 191.409 92.0664 188.264C93.9839 187.386 94.3131 186.404 93.8638 184.481C92.2284 177.448 90.7288 170.374 89.245 163.31C89.0098 162.197 89.1614 160.995 89.1405 159.835C90.3474 160.117 91.6484 160.201 92.7456 160.718C99.4283 163.879 106.064 167.15 112.72 170.384C113.243 170.645 113.823 170.86 114.565 171.178L125.772 157.405C127.476 155.315 129.132 153.184 130.903 151.136C132.34 149.474 133.233 149.626 133.709 151.658C135.6 159.882 137.445 168.122 139.148 176.388C139.331 177.276 138.688 178.561 138.046 179.355C132.298 186.456 126.446 193.489 120.636 200.542C120.023 201.209 119.558 201.997 119.272 202.857C119.691 202.551 120.089 202.218 120.464 201.859C127.319 194.544 134.231 187.313 140.966 179.914C142.774 177.924 144.624 176.957 147.304 177.182C149.436 177.365 151.589 177.218 153.736 177.218L154.102 177.955L132.815 203.823L133.192 204.121Z" fill="#0F0E10"/>
<path d="M298.339 179.899C302.864 176.241 307.42 174.731 312.483 175.05C321.104 175.572 327.018 180.594 329.281 189.33C330.915 195.513 330.777 202.031 328.884 208.139C325.905 217.831 318.434 223.579 306.939 223.746C300.423 223.835 293.877 222.21 287.346 221.337C285.47 221.087 285.741 219.618 285.741 218.328C285.741 202.308 285.705 186.283 285.783 170.259C285.783 167.892 285.715 166.141 282.648 166.293C282.126 166.319 281.18 165.191 281.081 164.516C280.861 162.73 281.008 160.896 281.008 158.597H298.339V179.899ZM298.443 201.629V208.421C298.443 212.136 298.443 212.136 302.179 212.883C308.971 214.242 313.888 211.932 315.675 206.295C317.272 201.467 317.239 196.248 315.581 191.44C314.933 189.58 313.324 187.511 311.6 186.681C306.338 184.11 298.443 189.544 298.443 195.375V201.629Z" fill="#0F0E10"/>
<path d="M263.233 219.755C257.841 223.909 251.597 225.021 244.872 223.585C238.602 222.247 234.611 217.91 233.9 211.86C233.059 204.707 235.76 199.503 241.847 196.624C246.696 194.33 251.91 194.012 257.151 193.912C258.525 193.881 259.899 193.912 261.205 193.912C262.459 188.546 260.458 185.323 255.354 185.38C250.808 185.432 246.273 186.509 241.769 187.177C240.962 187.368 240.171 187.617 239.402 187.925C238.608 184.643 237.861 181.535 236.957 177.767C240.813 176.931 244.548 175.756 248.363 175.385C252.591 174.922 256.857 174.922 261.085 175.385C269.837 176.472 274.461 181.9 274.618 190.777C274.743 197.653 274.654 204.535 274.66 211.416V214.347L278.792 215.089V222.404C274.31 222.576 269.816 222.874 265.333 222.775C264.623 222.759 263.959 220.899 263.233 219.755ZM261.665 202.628C257.485 203.187 253.713 203.484 250.04 204.258C247.892 204.712 246.905 206.562 246.905 208.84C246.905 210.93 247.605 212.576 249.58 213.511C252.799 215.037 259.314 213.349 261.279 210.434C261.531 209.99 261.658 209.486 261.644 208.976C261.67 207.158 261.644 205.339 261.644 202.628H261.665Z" fill="#0F0E10"/>
<path d="M184.614 222.958V184.91L180.779 184.111V176.796C185.163 176.54 189.484 176.242 193.815 176.101C194.265 176.101 194.923 176.973 195.169 177.574C195.475 178.55 195.692 179.553 195.817 180.568C196.945 179.727 197.907 179.001 198.863 178.311C204.772 174.215 211.214 173.786 217.787 176.08C223.597 178.107 226.67 182.925 226.91 188.667C227.38 199.947 227.046 211.254 227.046 222.744H214.443C214.396 221.834 214.318 220.91 214.318 219.985C214.318 212.414 214.344 204.833 214.287 197.277C214.307 195.19 214.132 193.105 213.764 191.049C212.98 187.131 210.54 185.495 206.58 185.945C202.922 186.352 200.414 188.62 198.183 191.227C197.713 191.749 197.76 192.862 197.755 193.704C197.755 202.586 197.682 211.468 197.781 220.351C197.781 222.394 197.259 223.109 195.169 223.005C191.793 222.838 188.413 222.958 184.614 222.958Z" fill="#0F0E10"/>
</svg>
