<svg width="400" height="400" viewBox="0 0 400 400" fill="none" xmlns="http://www.w3.org/2000/svg">
<rect opacity="0.01" width="400" height="400" fill="#0F0E10"/>
<path d="M139.193 203.441H120.834C120.8 204.135 120.743 204.754 120.743 205.371C120.743 209.94 120.743 214.523 120.743 219.098C120.771 219.671 120.74 220.245 120.649 220.811C120.489 221.548 120.041 222.045 119.187 222.042C116.769 222.031 114.351 222.031 111.934 222.042C111.077 222.042 110.637 221.577 110.506 220.808C110.388 220.187 110.326 219.556 110.32 218.924C110.309 206.342 110.309 193.758 110.32 181.173C110.302 180.729 110.315 180.284 110.357 179.842C110.549 178.414 110.991 177.989 112.473 177.963C114.444 177.931 116.417 177.937 118.387 177.963C120.263 177.983 120.743 178.443 120.754 180.35C120.78 184.225 120.754 188.103 120.754 191.981V194.166H139.11C139.145 193.429 139.196 192.812 139.199 192.195C139.199 188.197 139.199 184.2 139.199 180.185C139.199 178.228 139.459 177.98 141.389 177.963C143.32 177.946 145.207 177.937 147.115 177.963C148.934 177.989 149.342 178.391 149.353 180.247C149.373 184.377 149.353 188.509 149.353 192.641V219.141C149.375 219.712 149.361 220.284 149.313 220.854C149.228 221.565 148.808 222.034 148.057 222.039C145.514 222.056 142.969 222.056 140.424 222.039C139.673 222.039 139.256 221.588 139.213 220.84C139.185 220.334 139.187 219.823 139.187 219.315L139.193 203.441Z" fill="#0F0E10"/>
<path d="M165.048 187.286V194.942C165.651 194.982 166.19 195.048 166.762 195.048C170.828 195.048 174.897 195.048 178.966 195.048C180.82 195.048 181.271 195.422 181.354 197.19C181.434 198.775 181.434 200.364 181.354 201.95C181.268 203.589 180.743 204.04 179.069 204.049C175.128 204.072 171.185 204.049 167.244 204.049H164.991C164.991 206.782 164.991 209.303 164.991 211.825C164.991 212.53 165.468 212.841 166.082 212.924C166.588 212.968 167.096 212.98 167.604 212.958C172.818 212.958 178.032 212.958 183.244 212.958C185.42 212.958 185.617 213.164 185.634 215.371C185.634 216.896 185.66 218.421 185.634 219.94C185.597 221.671 185.297 222.002 183.655 222.005C174.628 222.02 165.6 222.02 156.573 222.005C155.056 222.005 154.699 221.625 154.594 220.1C154.565 219.658 154.594 219.212 154.594 218.767V181.273C154.594 180.956 154.594 180.639 154.594 180.319C154.648 178.397 155.053 177.969 156.964 177.963C162.178 177.963 167.39 177.963 172.604 177.963C176.031 177.963 179.458 177.963 182.901 177.963C184.72 177.963 185.16 178.403 185.203 180.19C185.24 181.778 185.234 183.366 185.203 184.953C185.169 186.838 184.715 187.289 182.801 187.295C177.661 187.312 172.501 187.295 167.353 187.295L165.048 187.286Z" fill="#0F0E10"/>
<path d="M280.104 214.854H262.222C261.514 216.581 260.795 218.332 260.084 220.082C259.293 222.027 259.293 222.033 257.159 222.038C255.252 222.038 253.341 222.038 251.448 222.038C249.118 222.038 248.693 221.427 249.552 219.306C250.694 216.484 251.859 213.671 253.027 210.859C257.206 200.782 261.389 190.706 265.575 180.629C265.721 180.278 265.875 179.93 265.998 179.57C266.394 178.402 267.14 177.856 268.433 177.925C270.145 178.023 271.862 178.023 273.573 177.925C275.087 177.828 275.912 178.447 276.458 179.818C277.911 183.47 279.447 187.091 280.952 190.724C284.884 200.216 288.815 209.708 292.746 219.2C292.869 219.485 293.032 219.771 293.112 220.079C293.494 221.276 293.086 221.993 291.867 222.021C289.322 222.081 286.775 222.021 284.231 222.056C283.177 222.073 282.803 221.402 282.474 220.611C281.698 218.732 280.93 216.855 280.104 214.854ZM277.083 206.424C275.37 202.14 273.705 197.997 272.003 193.859C271.86 193.514 271.432 193.288 271.115 193.003C270.09 194.205 265.932 204.194 265.509 206.424H277.083Z" fill="#0F0E10"/>
<path d="M205.757 222.792C200.195 222.892 195.477 221.679 191.462 218.395C190.109 217.284 188.984 215.859 187.901 214.462C187.073 213.394 187.187 212.786 188.21 212.027C189.737 210.884 191.314 209.813 192.924 208.8C194.009 208.114 194.535 208.209 195.392 209.208C198.704 213.063 202.993 213.977 207.785 213.346C208.409 213.237 209.008 213.012 209.55 212.683C211.629 211.515 212.754 208.905 210.144 206.775C209.355 206.14 208.474 205.629 207.531 205.259C205.115 204.296 202.656 203.443 200.212 202.554C198.114 201.815 196.143 200.756 194.369 199.413C188.43 194.844 187.964 184.204 196.06 179.601C202.653 175.846 211.928 176.488 217.742 181.811C218.33 182.391 218.884 183.004 219.402 183.647C220.018 184.353 219.953 185.101 219.279 185.664C217.765 186.923 216.2 188.119 214.633 189.313C214.002 189.793 213.331 189.73 212.705 189.236C212.308 188.922 211.923 188.588 211.509 188.294C208.782 186.34 205.772 186.058 202.625 186.926C201.346 187.277 200.32 188.025 200.152 189.496C199.972 191.106 200.752 192.249 202.151 192.84C204.435 193.805 206.8 194.536 209.073 195.501C211.46 196.515 213.887 197.5 216.109 198.828C220.547 201.464 222.317 205.599 221.82 210.627C221.289 215.97 218.459 219.7 213.356 221.567C210.76 222.521 208.076 222.964 205.757 222.792Z" fill="#0F0E10"/>
<path d="M319.827 242.848H310.161C309.776 241.309 309.673 159.618 310.047 157.202C310.575 157.118 311.107 157.062 311.64 157.034C313.734 157.011 315.834 157.011 317.94 157.034C319.759 157.051 319.907 157.194 319.939 158.981C319.973 162.408 319.992 165.839 319.996 169.276C319.996 188.597 319.996 207.92 319.996 227.245C319.996 231.759 319.967 236.271 319.939 240.783C319.933 241.389 319.87 242.008 319.827 242.848Z" fill="#0F0E10"/>
<path d="M89.7086 242.853H80.3764C79.9481 241.425 79.8424 159.466 80.2851 157.148C83.4232 156.949 86.5707 156.951 89.7086 157.153C89.7657 157.813 89.8399 158.296 89.8457 158.798C89.9427 171.24 90.0655 183.682 90.1312 196.124C90.1769 207.175 90.1769 218.228 90.1312 229.283C90.0941 233.715 89.8599 238.147 89.7086 242.853Z" fill="#0F0E10"/>
<path d="M233.5 187.287C230.545 187.287 227.82 187.241 225.096 187.287C221.815 187.358 221.569 186.967 221.669 183.883C221.709 182.486 221.641 181.087 221.692 179.691C221.738 178.397 222.146 178.023 223.426 177.94C223.808 177.914 224.191 177.94 224.568 177.94H252.433C252.941 177.94 253.452 177.923 253.958 177.966C254.832 178.043 255.423 178.537 255.446 179.411C255.5 181.504 255.523 183.606 255.446 185.693C255.408 186.79 254.789 187.244 253.475 187.264C250.994 187.301 248.512 187.264 246.033 187.264H243.7V189.414C243.7 199.266 243.7 209.117 243.7 218.967C243.7 219.409 243.718 219.855 243.7 220.3C243.629 221.685 243.378 221.979 241.987 222.014C239.76 222.054 237.532 222.051 235.308 222.014C233.934 221.991 233.617 221.668 233.512 220.352C233.472 219.846 233.497 219.335 233.497 218.827C233.497 209.102 233.497 199.379 233.497 189.657L233.5 187.287Z" fill="#0F0E10"/>
</svg>
