<svg width="400" height="400" viewBox="0 0 400 400" fill="none" xmlns="http://www.w3.org/2000/svg">
<rect opacity="0.01" width="400" height="400" fill="#0F0E10"/>
<path d="M324.464 173.735C322.473 172.934 320.708 172.095 318.88 171.513C314.902 170.261 310.87 169.165 306.886 167.929C306.113 167.688 305.449 167.093 304.551 166.552C305.643 165.131 306.798 164.711 308.147 164.674C315.85 164.495 323.588 164.107 331.078 166.395C333.44 167.1 335.676 168.172 337.704 169.572C340.387 171.472 340.671 173.169 338.803 175.926C337.412 177.964 335.698 179.761 333.729 181.247C327.96 185.582 321.522 188.806 314.836 191.442C311.312 192.825 307.722 194.036 304.153 195.304C303.293 195.612 302.415 195.867 301.524 196.068C300.272 196.337 298.904 196.199 298.563 194.913C298.366 194.171 299.017 192.894 299.684 192.302C300.936 191.185 302.469 190.381 303.897 189.463C309.612 185.795 315.362 182.18 321.03 178.44C322.511 177.472 324.095 176.408 324.464 173.735Z" fill="#0F0E10"/>
<path d="M251.538 200.027H246.348C246.089 199.455 245.823 198.744 245.463 198.084C243.766 194.954 238.89 194.716 236.902 197.655C235.825 199.251 236.182 201.411 237.875 202.413C239.099 203.136 240.489 203.577 241.813 204.122C243.866 204.964 245.938 205.759 247.979 206.626C253.716 209.064 253.197 216.842 250.054 219.934C246.492 223.434 238.029 224.476 233.91 221.647C231.215 219.8 229.343 217.421 229.694 213.646H234.908C235.891 215.324 236.073 217.715 238.749 218.41C240.843 218.955 242.614 218.776 244.361 217.712C247.037 216.081 247.206 213.124 244.646 211.336C243.603 210.607 242.301 210.238 241.093 209.771C239.152 209.004 237.134 208.407 235.252 207.521C232.044 206.009 230.075 203.452 230.132 199.824C230.191 196.068 232.636 193.01 236.739 192.08C239.526 191.448 242.406 191.342 245.231 191.767C249.55 192.459 251.219 194.957 251.538 200.027Z" fill="#0F0E10"/>
<path d="M283.569 231.468H278.429C277.697 228.209 277.622 203.445 278.332 199.429C280.348 199.307 282.621 198.114 283.747 200.994C285.341 200.196 286.877 199.053 288.561 198.659C291.873 197.895 296.318 199.053 298.333 204.067C300.502 209.464 300.108 214.819 296.875 219.771C294.759 223.004 289.05 224.209 285.582 222.25C285.028 221.937 284.567 221.455 283.569 220.657V231.468ZM283.074 210.709C283.585 212.932 283.898 214.979 284.533 216.922C285.494 219.849 291.504 219.777 292.643 216.904C294.145 213.119 294.427 209.251 292.812 205.507C291.197 201.764 286.956 201.401 284.849 204.9C283.832 206.584 283.635 208.769 283.074 210.709Z" fill="#0F0E10"/>
<path d="M323.157 212.097H307.46C306.834 213.975 306.918 215.49 307.848 216.87C309.814 219.793 314.327 220.801 316.866 216.642C318.553 213.878 319.204 213.762 322.456 215.318C321.42 220.373 318.678 222.83 313.739 223.096C312.825 223.146 311.904 223.143 310.991 223.096C306.608 222.942 303.516 220.905 302.036 216.729C300.536 212.5 300.633 208.278 302.64 204.209C304.831 199.786 308.587 198.187 313.313 198.481C317.751 198.757 320.593 201.195 321.88 205.345C322.478 207.295 322.656 209.358 323.157 212.097ZM316.859 208.406C316.991 204.153 315.388 202.306 311.958 202.55C308.674 202.782 307.169 204.785 307.641 208.406H316.859Z" fill="#0F0E10"/>
<path d="M269.29 199.373H274.392C275.153 202.597 275.212 218.936 274.476 222.654C272.329 223.114 270.204 223.537 268.842 220.776C266.598 222.588 264.226 223.368 261.456 223.086C258.391 222.773 256.325 221.308 255.267 218.451C254.904 217.477 254.507 216.444 254.476 215.43C254.363 211.64 254.388 207.846 254.369 204.056C254.369 202.641 254.369 201.239 254.369 199.508H260.034C260.034 203.492 259.972 207.377 260.066 211.258C260.132 212.943 260.351 214.62 260.72 216.266C261.033 217.831 262.103 218.745 263.747 218.864C265.39 218.983 267.046 218.692 267.816 217.111C268.568 215.614 269.041 213.992 269.212 212.325C269.437 209.464 269.284 206.575 269.29 203.699V199.373Z" fill="#0F0E10"/>
<path d="M88.8662 222.754H84.8786L81.157 214.657H67.2221L63.9168 222.629H59.7852C60.4456 221.011 60.9214 219.849 61.394 218.685C64.524 210.964 67.654 203.233 70.7841 195.492C71.0313 194.888 71.36 194.315 71.5791 193.701C72.0736 192.327 72.9438 191.51 74.4838 191.576C75.8923 191.626 76.512 192.515 76.9878 193.686C80.796 202.688 84.6073 211.689 88.4218 220.691C88.6722 221.261 88.7035 221.922 88.8662 222.754ZM79.6483 210.832C77.8047 206.24 76.0331 201.833 74.033 196.856C72.1394 201.833 70.4898 206.171 68.712 210.832H79.6483Z" fill="#0F0E10"/>
<path d="M191.481 205.724L188.723 205.539C188.548 205.051 188.363 204.801 188.391 204.578C189.017 199.84 193.913 198.215 197.938 198.537C202.17 198.879 205.344 201.445 205.563 205.536C205.876 211.117 205.638 216.729 205.638 222.294C203.807 223.318 202.702 223.064 202.091 220.883C199.766 222.97 197.027 223.324 194.122 223.118C190.213 222.842 187.509 220.689 186.848 217.217C186.194 213.799 187.941 210.826 191.837 209.392C193.888 208.644 196.132 208.403 198.301 208.012C199.299 207.83 200.332 207.83 201.287 207.752C201.735 204.043 201.062 202.594 198.736 201.934C195.468 201.007 193.593 201.946 191.481 205.724ZM201.641 211.48C198.426 210.898 195.753 211.192 193.19 212.297C191.424 213.061 190.714 214.504 190.789 216.391C190.861 218.2 191.878 219.174 193.503 219.8C197.697 221.409 201.156 219.355 201.641 214.861C201.731 213.84 201.641 212.807 201.641 211.48V211.48Z" fill="#0F0E10"/>
<path d="M166.758 207.771C166.526 204.954 166.335 202.491 163.124 201.858C160.031 201.251 158.501 202.037 156.498 205.489H153.183C153.086 202.894 154.153 201.26 156.044 200.087C159.443 197.983 163.027 197.996 166.551 199.542C168.702 200.481 169.922 202.409 170.267 204.75C170.399 205.92 170.448 207.098 170.414 208.275C170.429 212.97 170.414 217.643 170.414 222.241C168.536 223.315 167.421 223.061 166.742 220.876C164.341 223.208 161.421 223.318 158.422 223.067C154.817 222.779 152.256 220.469 151.674 217.067C151.164 214.109 152.926 210.785 156.056 209.599C158.216 208.779 160.573 208.441 162.867 208.034C164.116 207.805 165.412 207.852 166.758 207.771ZM166.604 211.283C164.664 211.283 162.927 211.023 161.308 211.355C159.659 211.66 158.1 212.338 156.751 213.336C154.751 214.929 155.148 217.978 157.246 219.386C160.977 221.89 165.866 219.649 166.323 215.217C166.435 214.05 166.492 212.873 166.604 211.283Z" fill="#0F0E10"/>
<path d="M103.805 220.725C101.216 222.428 98.8217 223.304 96.0767 223.017C92.5836 222.647 89.9418 220.425 89.2532 216.988C88.1201 211.307 88.599 205.582 88.6272 199.491L92.0358 199.288C92.2737 199.973 92.4991 200.33 92.5022 200.69C92.5429 204.089 92.5022 207.488 92.5836 210.885C92.6328 212.444 92.8288 213.995 93.1689 215.517C93.7949 218.403 95.1001 219.586 97.504 219.708C100.211 219.861 102.49 218.456 103.191 215.889C103.692 214.002 103.98 212.066 104.052 210.115C104.187 206.728 104.09 203.332 104.09 199.557L107.41 199.216C107.702 199.886 107.98 200.236 107.983 200.59C108.033 207.125 108.062 213.661 108.068 220.196C108.068 221.426 107.874 222.575 106.359 222.866C104.9 223.145 104.205 222.362 103.805 220.725Z" fill="#0F0E10"/>
<path d="M109.837 215.326L112.967 215.151C114.757 219.633 117.599 221.076 121.418 219.63C122.905 219.067 123.762 218.065 123.838 216.415C123.906 214.894 123.23 213.911 121.847 213.395C120.463 212.879 119.111 212.525 117.778 212.024C116.197 211.429 114.507 210.969 113.105 210.077C109.693 207.905 109.464 204.002 112.166 201C115.158 197.679 121.665 197.651 124.789 200.29C126.382 201.635 127.637 203.404 126.849 205.836C125.027 206.931 124.088 206.127 123.174 204.471C121.609 201.626 119.105 200.956 116.288 202.365C113.99 203.513 113.715 205.848 115.825 207.332C116.764 207.986 117.941 208.299 119.039 208.691C120.635 209.26 122.351 209.573 123.844 210.337C125.985 211.429 127.794 212.963 127.838 215.702C127.882 218.441 126.645 220.619 124.323 221.865C120.779 223.768 117.005 223.743 113.383 222.028C111.22 221.004 110.604 219.592 109.837 215.326Z" fill="#0F0E10"/>
<path d="M226.917 222.648H223.621C223.621 219.784 223.621 217.077 223.621 214.372C223.621 212.15 223.69 209.924 223.584 207.708C223.408 204.137 222 202.632 218.717 202.281C215.69 201.968 213.633 203.414 212.857 206.732C212.432 208.634 212.192 210.574 212.14 212.522C212.028 215.771 212.109 219.03 212.109 222.488L209.37 222.83C208.503 219.969 208.306 204.675 209.007 199.761C211.364 199.264 211.364 199.264 212.347 201.236C215.289 199.552 218.175 197.902 221.853 199.06C224.67 199.949 226.664 201.783 226.811 204.503C227.143 210.46 226.917 216.447 226.917 222.648Z" fill="#0F0E10"/>
<path d="M325.183 222.604V199.945C328.823 198.65 329.424 198.784 330.917 201.044C332.451 200.33 333.9 199.463 335.471 198.972C337.562 198.321 338.366 198.956 338.548 201.107C338.614 201.874 338.473 202.672 338.413 203.692C337.54 203.845 336.692 204.036 335.834 204.143C332.319 204.572 330.929 205.899 330.776 209.401C330.641 212.531 330.726 215.677 330.716 218.816C330.716 219.975 330.716 221.133 330.716 222.613L325.183 222.604Z" fill="#0F0E10"/>
<path d="M134.275 219.273L138.686 219.987V222.785C137.177 222.854 135.653 223.098 134.166 222.951C131.737 222.722 130.097 221.023 130.081 218.491C129.997 209.992 130.05 201.494 130.05 193.072C133.317 192.133 133.834 192.421 134.031 195.191C134.078 195.842 134.031 196.502 134.059 197.153C134.091 197.663 134.2 198.167 134.303 198.856L138.128 199.4C138.93 202.258 138.679 202.455 134.275 202.218V219.273Z" fill="#0F0E10"/>
<path d="M176.981 222.871L173.666 222.668C173.569 221.547 173.428 220.661 173.425 219.772C173.41 211.657 173.41 203.542 173.425 195.427C173.409 194.772 173.429 194.117 173.484 193.464C173.619 192.231 174.383 191.424 175.569 191.721C176.27 191.899 176.846 192.757 177.359 193.402C177.557 193.652 177.438 194.162 177.438 194.554C177.438 203.455 177.426 212.357 177.403 221.259C177.394 221.628 177.212 221.998 176.981 222.871Z" fill="#0F0E10"/>
<path d="M152.478 202.302C152.139 202.401 151.796 202.48 151.448 202.54C146.293 202.981 145.188 204.152 145.129 209.392C145.088 212.788 145.129 216.184 145.11 219.58C145.11 220.481 145.003 221.38 144.944 222.278C144.515 222.506 144.187 222.823 143.845 222.838C143.021 222.829 142.197 222.772 141.379 222.669V199.92C143.589 199.169 143.589 199.169 145.495 200.496C146.747 200.042 148.058 199.495 149.407 199.106C152.312 198.271 152.875 198.847 152.478 202.302Z" fill="#0F0E10"/>
<path d="M180.533 199.441H184.261V222.209C181.443 223.148 180.608 222.835 180.57 220.525C180.464 213.63 180.533 206.741 180.533 199.441Z" fill="#0F0E10"/>
<path d="M184.794 194.005C184.819 195.022 183.542 196.214 182.478 196.196C181.414 196.177 180.362 195.003 180.428 193.792C180.493 192.58 181.079 191.817 182.256 191.601C183.433 191.385 184.763 192.687 184.794 194.005Z" fill="#0F0E10"/>
</svg>
