<svg width="400" height="400" viewBox="0 0 400 400" fill="none" xmlns="http://www.w3.org/2000/svg">
<rect opacity="0.01" width="400" height="400" fill="#0F0E10"/>
<path d="M60 202.08C60.2533 200.912 60.432 199.72 60.7691 198.577C62.6965 192.059 68.801 187.321 75.6038 187.01C84.5426 186.602 91.9618 192.474 93.189 201.31C94.6788 212.057 86.6823 220.061 77.7323 220.501C68.436 220.953 61.1956 214.823 60.1602 205.564C60.1221 205.391 60.0685 205.222 60 205.059V202.08ZM68.3205 203.521C68.3205 208.385 72.2089 212.46 76.8105 212.445C81.5127 212.426 85.1534 208.506 85.1534 203.461C85.1534 198.711 81.4419 194.912 76.818 194.932C72.0283 194.953 68.3131 198.707 68.3205 203.519V203.521Z" fill="#0F0E10"/>
<path d="M317.362 219.78C316.617 222.849 315.884 225.818 315.157 228.786C315.07 229.147 314.99 229.509 314.9 229.868C314.513 231.41 314.407 231.499 312.79 231.65C312.637 231.671 312.483 231.684 312.329 231.689C310.329 231.659 310.062 231.317 310.535 229.44C311.362 226.143 312.188 222.847 313.012 219.551C313.077 219.287 313.107 219.017 313.137 218.843C311.219 217.937 309.343 217.132 307.55 216.179C305.648 215.189 303.964 213.826 302.6 212.171C300.76 209.916 300.46 207.538 301.866 204.94C303.729 201.482 306.783 199.69 310.645 198.64C310.044 200.338 309.22 201.992 311.114 202.957C311.312 201.966 311.412 200.865 311.755 199.843C313.975 193.227 316.232 186.622 318.526 180.029C318.765 179.341 318.627 178.999 318.1 178.559C315.249 176.187 313.885 173.224 314.561 169.459C314.71 168.624 315.12 168.099 315.921 168.079C317.802 168.03 319.707 167.905 321.563 168.129C327.005 168.779 332.271 170.138 337.206 172.57C337.975 172.943 338.676 173.479 339.381 173.976C340.018 174.427 340.126 175.023 339.873 175.772C338.681 179.207 336.223 181.207 332.75 182.018C331.94 182.204 331.532 182.47 331.392 183.384C330.461 189.494 329.448 195.591 328.504 201.7C328.454 202.016 328.715 202.5 328.985 202.728C331.592 204.918 333.631 207.504 334.199 210.931C334.998 215.698 333.569 218.076 329.24 219.497C328.384 219.769 327.507 219.967 326.618 220.087C323.558 220.533 320.508 220.33 317.362 219.78Z" fill="#0F0E10"/>
<path d="M116.131 219.771H109.079V200.962H103.762V219.751H96.6447V200.888H94.0674V195.398H96.5218C96.5926 194.344 96.5628 193.376 96.736 192.443C97.3226 189.258 99.4158 187.465 102.948 187.055C103.809 186.955 104.678 186.925 105.544 186.893C105.861 186.906 106.176 186.943 106.487 187.005V191.592C105.665 191.986 104.675 192.163 104.237 192.75C103.762 193.391 103.799 194.411 103.591 195.357H108.893C108.954 194.515 108.98 193.69 109.079 192.873C109.451 189.893 111.118 187.997 114.057 187.383C115.614 187.059 117.223 187.01 118.899 186.824V191.837C116.223 192.5 115.796 193.057 116.236 195.4H118.913V200.869H116.131V219.771Z" fill="#0F0E10"/>
<path d="M208.494 219.874C206.369 219.874 204.322 219.851 202.28 219.887C201.626 219.896 201.622 219.438 201.51 219.047C200.358 215.006 199.211 210.965 198.067 206.924C197.991 206.585 197.827 206.273 197.592 206.019L193.583 219.874C191.534 219.874 189.555 219.848 187.572 219.889C186.938 219.902 186.888 219.494 186.767 219.09C185.329 214.33 183.893 209.569 182.458 204.806C181.576 201.879 180.696 198.951 179.817 196.022C179.765 195.851 179.743 195.67 179.692 195.426C182.009 195.426 184.27 195.406 186.531 195.458C186.748 195.458 187.089 195.877 187.154 196.154C188.272 200.396 189.35 204.648 190.441 208.896C190.484 209.063 190.553 209.225 190.698 209.65C191.344 207.276 191.924 205.155 192.497 203.032C193.119 200.735 193.754 198.443 194.345 196.141C194.484 195.594 194.717 195.396 195.289 195.413C197.116 195.45 198.944 195.426 200.84 195.426C202.153 200.145 203.458 204.83 204.762 209.516L204.92 209.501C206.131 204.824 207.343 200.144 208.557 195.462H215.87C213.395 203.64 210.948 211.747 208.494 219.874Z" fill="#0F0E10"/>
<path d="M181.154 210.17H162.983C163.128 211.939 164.472 213.366 166.471 213.848C168.381 214.31 170.223 214.221 171.86 212.952C172.053 212.803 172.288 212.717 172.532 212.705C175.009 212.688 177.486 212.693 179.97 212.693C179.367 217.247 172.42 221.197 166.506 220.403C159.29 219.433 154.416 212.921 155.506 205.576C156.47 199.067 162.826 193.676 170.357 194.851C178.877 196.181 181.605 203.963 181.154 210.17ZM162.718 204.976H173.875C173.011 202.369 170.782 201.12 167.454 201.315C165.078 201.453 163.117 202.946 162.726 204.976H162.718Z" fill="#0F0E10"/>
<path d="M278.762 195.427L269.096 206.316L278.034 219.802C277.63 219.834 277.371 219.871 277.103 219.871C274.809 219.871 272.515 219.853 270.213 219.888C269.583 219.897 269.222 219.717 268.896 219.143C267.127 216.059 265.306 212.998 263.496 209.942C263.328 209.659 263.144 209.383 262.818 208.875V219.8H255.805V187.554H262.792V204.314L262.978 204.372L267.218 199.025C268.025 198.007 268.82 196.977 269.639 195.971C269.826 195.749 270.103 195.459 270.343 195.455C273.086 195.414 275.801 195.427 278.762 195.427Z" fill="#0F0E10"/>
<path d="M227.108 220.554C219.834 220.607 214.195 214.901 214.195 207.48C214.195 200.572 219.899 194.855 226.924 194.736C234.043 194.617 239.969 200.358 240.062 207.467C240.149 214.729 234.436 220.5 227.108 220.554ZM227.097 213.625C230.296 213.606 232.903 210.873 232.857 207.582C232.812 204.258 230.19 201.587 227.002 201.623C223.814 201.658 221.298 204.314 221.32 207.701C221.343 210.969 223.946 213.638 227.097 213.625Z" fill="#0F0E10"/>
<path d="M154.559 211.084C153.255 216.099 148.492 221.315 140.285 220.453C134.316 219.823 129.387 214.208 129.167 208.057C128.919 201.149 134.465 195.51 140.076 194.817C147.525 193.91 152.82 198.134 154.492 204.27C152.434 204.27 150.404 204.234 148.376 204.285C147.46 204.307 146.812 204.098 146.16 203.353C144.641 201.607 141.601 201.195 139.367 202.26C137.22 203.298 135.979 205.823 136.352 208.432C136.676 210.685 137.734 212.436 139.998 213.13C142.352 213.853 144.521 213.503 146.33 211.661C146.67 211.334 147.114 211.136 147.585 211.102C149.887 211.056 152.181 211.084 154.559 211.084Z" fill="#0F0E10"/>
<path d="M276.393 212.666H283.179C283.229 212.908 283.27 213.143 283.328 213.372C283.605 214.471 284.532 215.104 285.866 215.106C287.199 215.107 287.942 214.629 288.21 213.588C288.488 212.519 288.106 211.705 287.004 211.314C285.957 210.942 284.856 210.731 283.797 210.383C282.883 210.096 281.988 209.754 281.115 209.359C278.424 208.107 276.961 206.035 276.961 203.01C276.961 199.869 278.193 197.401 281.039 195.945C283.884 194.489 286.935 194.334 289.966 195.371C292.924 196.383 294.741 199.014 294.825 202.282C292.756 202.282 290.687 202.308 288.622 202.241C288.419 202.241 288.184 201.683 288.05 201.351C287.592 200.234 286.613 199.764 285.41 200.148C284.32 200.493 283.689 201.481 284.093 202.526C284.347 203.108 284.791 203.585 285.354 203.878C286.227 204.316 287.216 204.519 288.156 204.832C289.153 205.163 290.177 205.437 291.136 205.856C295.406 207.718 296.816 212.001 294.548 216.098C293.813 217.478 292.668 218.594 291.27 219.294C287.789 221.003 284.214 221.156 280.702 219.48C277.938 218.154 276.75 215.702 276.393 212.666Z" fill="#0F0E10"/>
<path d="M254.25 201.661C253.337 201.788 252.473 201.87 251.624 202.034C250.079 202.33 249.149 203.323 248.915 204.837C248.727 206.119 248.631 207.412 248.628 208.708C248.591 212.079 248.615 215.451 248.615 218.822V219.863H241.324V195.468H248.149V198.261C249.669 196.138 251.611 195.06 254.25 195.132V201.661Z" fill="#0F0E10"/>
<path d="M120.828 195.453H127.845V219.823H120.828V195.453Z" fill="#0F0E10"/>
<path d="M76.2733 231.749H62.5225V226.887H76.2733V231.749Z" fill="#0F0E10"/>
<path d="M98.2465 231.762H84.4473V226.848H98.2465V231.762Z" fill="#0F0E10"/>
<path d="M120.253 226.879V231.741H106.434V226.879H120.253Z" fill="#0F0E10"/>
<path d="M128.4 226.848H142.153V231.71H128.4V226.848Z" fill="#0F0E10"/>
<path d="M186.125 231.764H172.32V226.887H186.125V231.764Z" fill="#0F0E10"/>
<path d="M208.028 231.745H194.284V226.89H208.028V231.745Z" fill="#0F0E10"/>
<path d="M229.987 231.745H216.191V226.869H229.987V231.745Z" fill="#0F0E10"/>
<path d="M251.981 231.744H238.191V226.878H251.981V231.744Z" fill="#0F0E10"/>
<path d="M296.133 226.866V231.721H282.287V226.866H296.133Z" fill="#0F0E10"/>
<path d="M150.407 231.726V226.875H164.16V231.726H150.407Z" fill="#0F0E10"/>
<path d="M260.273 226.848H274.054V231.727H260.273V226.848Z" fill="#0F0E10"/>
<path d="M120.803 193.15V187.563H127.879V193.15H120.803Z" fill="#0F0E10"/>
</svg>
