<svg width="400" height="400" viewBox="0 0 400 400" fill="none" xmlns="http://www.w3.org/2000/svg">
<rect opacity="0.01" width="400" height="400" fill="#0F0E10"/>
<g clip-path="url(#clip0)">
<path d="M87.9499 176.114C79.9289 174.841 73.022 176.305 67.0754 181.359C62.4723 185.271 59.6917 190.227 58.6802 196.205C56.8353 207.129 63.359 218.5 73.8085 222.589C80.2698 225.115 86.642 224.83 92.8493 221.883C99.0566 218.935 103.076 213.903 105.612 207.178C108.35 209.837 111.182 210.948 114.695 209.574C115.696 209.182 116.99 209.417 118.126 209.554C119.577 209.727 119.722 210.536 119.256 211.897C114.684 225.285 105.678 234.279 92.094 237.628C61.3137 245.215 40.4392 217.09 44.5121 193.117C48.175 171.597 69.1252 157.31 90.4096 161.842C91.0424 161.977 92.1029 162.618 92.0717 162.927C91.9447 164.124 91.8244 165.783 91.0379 166.366C87.7783 168.778 86.6264 171.745 87.9499 176.114Z" fill="#0F0E10"/>
<path d="M88.4504 178.287C87.8555 181.259 86.9955 184.025 86.8284 186.832C86.6613 189.638 88.5618 191.611 90.567 193.397C91.1953 193.955 91.8147 194.789 91.9618 195.587C93.1159 201.864 96.5137 204.764 102.855 204.733C103.172 204.75 103.487 204.786 103.799 204.843C104.212 210.11 97.4071 218.83 89.5399 221.446C80.3626 224.495 69.5076 220.926 64.0356 212.704C61.2541 208.545 59.9099 203.581 60.2103 198.577C60.5106 193.573 62.4389 188.808 65.6977 185.016C71.4906 178.296 82.3233 175.317 88.4504 178.287Z" fill="#0F0E10"/>
<path d="M269.584 209.699C266.02 220.299 254.211 225.944 243.098 222.622C236.563 220.667 232.314 216.267 230.364 209.766C227.21 199.255 231.033 187.7 239.693 181.047C248.354 174.394 262.029 174.995 268.658 182.562C270.264 184.398 271.173 186.864 272.341 189.063C273.089 190.482 272.394 191.257 271.024 191.674C268.941 192.311 266.891 193.095 264.772 193.564C264.153 193.701 262.969 193.178 262.684 192.627C259.293 185.999 252.714 184.109 246.54 188.117C239.965 192.389 238.468 200.638 240.411 206.946C241.641 210.936 244.867 213.021 248.877 213.566C253.244 214.16 256.945 212.508 259.231 208.764C260.668 206.406 261.962 206.13 264.193 207.356C265.915 208.314 267.802 208.943 269.584 209.699Z" fill="#0F0E10"/>
<path d="M146.387 212.912H149.163C153.187 212.912 157.21 212.912 161.234 212.912C164.819 212.912 164.853 212.957 164.073 216.418C162.696 222.524 162.696 222.522 156.466 222.524C150.005 222.524 143.557 222.473 137.102 222.556C135.055 222.58 134.533 222.071 134.999 219.908C137.896 206.484 140.634 193.027 143.392 179.573C143.713 178.004 144.421 177.305 146.108 177.321C154.071 177.386 162.034 177.372 169.997 177.321C171.733 177.321 172.114 177.888 171.78 179.614C170.365 186.923 170.416 186.937 163.164 186.935C160.062 186.935 156.956 186.832 153.862 186.984C153.064 187.022 151.821 187.692 151.616 188.329C150.947 190.467 150.647 192.727 150.112 195.406H166.668C166.06 198.338 165.675 200.799 164.966 203.164C164.806 203.693 163.522 204.159 162.738 204.177C158.634 204.276 154.526 204.273 150.419 204.195C148.927 204.166 148.107 204.547 147.855 206.172C147.516 208.322 146.935 210.415 146.387 212.912Z" fill="#0F0E10"/>
<path d="M329.995 219.153C328.823 222.527 328.823 222.527 325.005 222.527C319.795 222.527 319.753 222.516 320.82 217.371C323.494 204.509 326.226 191.66 328.859 178.789C329.233 176.958 329.993 176.176 331.891 176.375C333.396 176.492 334.907 176.498 336.412 176.393C338.132 176.315 338.816 176.7 338.339 178.715C337.279 183.198 336.515 187.74 335.608 192.389C337.515 191.698 339.173 190.921 340.904 190.506C346.53 189.161 351.979 191.992 354.272 197.318C357.714 205.291 353.918 217.017 346.494 221.35C341.033 224.533 335.45 223.834 329.995 219.153ZM345.904 205.59C346.006 200.08 341.37 197.177 336.889 199.589C333.89 201.205 331.805 205.536 332.324 209.073C333.072 214.161 338.025 216.246 342.112 213.157C344.727 211.187 345.712 208.394 345.899 205.59H345.904Z" fill="#0F0E10"/>
<path d="M193.535 193.697C193.608 191.178 194.916 190.732 196.877 190.896C198.838 191.059 200.834 190.931 203.305 190.931C202.175 196.28 201.077 201.173 200.116 206.091C199.161 210.955 198.557 215.903 197.383 220.709C196.411 224.66 193.056 221.935 190.852 222.419C188.823 222.867 188.733 222.459 188.595 220.11C186.626 221.018 184.652 222.394 182.493 222.829C177.547 223.827 172.932 221.208 170.461 216.521C166.674 209.308 169.14 198.051 175.586 193.106C180.931 189.019 187.533 189.134 193.535 193.697ZM190.734 205.995C190.752 202.027 189.591 199.987 187.279 199.221C184.589 198.324 181.602 199.496 179.926 202.135C178.313 204.663 177.921 207.45 178.482 210.352C179.151 213.78 182.624 215.602 185.779 214.177C189.569 212.464 190.567 209.099 190.734 205.995V205.995Z" fill="#0F0E10"/>
<path d="M304.752 220.756C299.665 225.609 290.878 223.295 288.971 217.976C288.204 215.835 287.685 213.316 288.019 211.117C288.953 204.964 290.357 198.88 291.671 192.792C291.816 192.119 292.562 191.088 293.068 191.057C295.784 190.882 298.516 190.974 301.637 190.974C300.697 195.457 299.855 199.472 299.015 203.487C298.618 205.381 298.152 207.264 297.825 209.169C297.435 211.435 297.878 213.394 300.227 214.414C302.232 215.286 304.712 214.719 305.857 212.451C307.08 210.027 307.735 207.279 308.381 204.605C309.315 200.761 309.941 196.845 310.877 193C311.064 192.22 311.937 191.086 312.574 191.03C315.132 190.806 317.719 190.936 320.624 190.936C320.506 192.104 320.488 192.996 320.319 193.85C318.537 202.933 316.732 212.007 314.84 221.078C314.722 221.646 313.82 222.399 313.232 222.448C311.231 222.643 309.217 222.643 307.216 222.448C306.441 222.379 305.754 221.482 304.752 220.756Z" fill="#0F0E10"/>
<path d="M227.591 190.932C227.068 193.492 226.615 195.61 226.203 197.735C225.86 199.51 224.474 199.49 223.267 199.257C220.332 198.69 219.459 200.331 219.033 202.774C218.608 205.264 218.026 207.726 217.536 210.205C216.868 213.614 217.676 214.578 221.244 214.668C221.636 214.679 222.026 214.813 222.652 214.937C222.233 217.015 221.983 219.012 221.382 220.902C221.159 221.626 220.236 222.457 219.492 222.63C214.174 223.867 206.523 221.818 207.61 213.09C208.089 209.254 209.036 205.482 209.76 201.678C209.883 201.039 209.956 200.391 210.092 199.472L204.912 199.107C205.409 196.61 205.777 194.319 206.378 192.091C206.514 191.586 207.423 191.073 208.047 190.97C211.888 190.273 213.278 189.165 214.063 185.59C215.143 180.636 215.177 181.766 219.16 181.658C219.913 181.638 220.669 181.694 221.422 181.658C222.968 181.584 223.601 182.145 223.142 183.777C222.734 185.234 222.625 186.785 222.141 188.21C221.362 190.512 222.337 191.095 224.398 190.947C225.363 190.873 226.339 190.932 227.591 190.932Z" fill="#0F0E10"/>
<path d="M275.458 222.526C269.754 222.544 270.728 222.69 271.632 218.281C274.346 205.082 277.249 191.933 279.95 178.708C280.353 176.735 281.224 176.354 282.993 176.365C290.043 176.401 290.036 176.352 288.563 183.355C286.155 194.811 283.795 206.279 281.338 217.727C280.059 223.663 280.805 222.381 275.458 222.526Z" fill="#0F0E10"/>
</g>
<defs>
<clipPath id="clip0">
<rect width="311.562" height="77.8904" fill="white" transform="translate(44 161)"/>
</clipPath>
</defs>
</svg>
