<svg width="400" height="400" viewBox="0 0 400 400" fill="none" xmlns="http://www.w3.org/2000/svg">
<rect opacity="0.01" width="400" height="400" fill="#0F0E10"/>
<g clip-path="url(#clip0)">
<path d="M66 220.237C66.35 219.904 66.6782 219.548 66.9825 219.172C69.6326 215.44 72.2726 211.698 74.8874 207.984C76.8045 209.272 78.5855 210.672 80.5453 211.747C85.5307 214.482 90.8737 215.658 96.5442 214.718C97.3259 214.576 98.0691 214.27 98.7258 213.82C100.305 212.748 100.207 210.991 98.4336 210.327C96.5805 209.674 94.676 209.181 92.7404 208.851C87.8054 207.913 82.8251 207.178 78.1875 205.089C73.119 202.807 69.4839 199.258 68.3629 193.614C66.7457 185.501 70.4437 177.926 77.7844 174.105C81.8074 172.016 86.1126 171.147 90.6168 171.022C97.6199 170.827 104.303 172.08 110.518 175.376C112.311 176.326 113.976 177.523 115.808 178.671L106.663 190.673C104.817 189.68 103.101 188.645 101.288 187.801C97.393 185.983 93.1228 185.128 88.8332 185.309C88.6241 185.309 88.4151 185.326 88.206 185.349C86.566 185.534 85.4349 186.363 85.377 187.563C85.2863 189.099 86.5056 189.611 87.6115 189.887C90.7755 190.686 93.9798 191.315 97.1664 192.017C101.429 192.953 105.651 194.01 109.457 196.274C115.755 200.026 117.74 205.723 116.934 212.342C115.909 220.759 110.84 225.84 103.003 227.876C92.0703 230.718 81.3741 229.727 71.3405 224.182C69.4613 223.138 67.7785 221.73 66 220.491V220.237Z" fill="#0F0E10"/>
<path d="M153.895 196.705C153.131 200.01 152.369 203.315 151.61 206.621C150.043 213.451 148.459 220.278 146.937 227.118C146.733 228.034 146.395 228.348 145.456 228.34C140.249 228.297 135.044 228.307 129.837 228.34C129.059 228.34 128.666 228.155 128.429 227.326C124.598 213.846 120.721 200.366 116.887 186.884C116.838 186.614 116.843 186.338 116.901 186.07C116.959 185.803 117.069 185.549 117.224 185.324C118.987 182.878 120.842 180.487 122.784 177.919L115.136 172.052C115.541 172.014 115.874 171.953 116.209 171.951C120.91 171.951 125.613 171.979 130.316 171.923C131.324 171.923 131.694 172.242 131.89 173.191C134.074 183.67 136.278 194.142 138.503 204.608C138.606 205.097 138.725 205.584 138.924 206.466C139.155 205.82 139.294 205.518 139.372 205.198C142.035 194.53 144.708 183.864 147.322 173.186C147.562 172.202 147.962 171.918 148.93 171.918C152.371 171.966 155.814 171.961 159.258 171.918C160.172 171.918 160.548 172.194 160.769 173.127C163.384 183.759 166.033 194.381 168.715 204.996C168.795 205.43 168.991 205.835 169.284 206.164C169.881 203.343 170.486 200.518 171.075 197.694C172.781 189.519 174.483 181.342 176.181 173.163C176.317 172.501 176.411 171.921 177.385 171.928C183.094 171.974 188.805 171.948 194.515 171.956C194.845 171.983 195.173 172.033 195.495 172.106C194.772 174.641 194.072 177.08 193.367 179.529C188.832 195.298 184.311 211.069 179.801 226.842C179.489 227.94 179.073 228.376 177.852 228.363C172.855 228.28 167.86 228.28 162.865 228.363C161.679 228.384 161.298 227.955 161.059 226.885C158.893 217.221 156.678 207.569 154.477 197.912C154.386 197.512 154.268 197.116 154.164 196.715L153.895 196.705Z" fill="#0F0E10"/>
<path d="M300.278 228.244C299.774 228.275 299.358 228.318 298.955 228.318C293.413 228.318 287.871 228.293 282.329 228.346C281.321 228.346 280.931 227.976 280.699 227.078C280.319 225.618 279.823 224.188 279.42 222.73C279.231 222.038 278.938 221.693 278.132 221.698C271.918 221.73 265.705 221.73 259.491 221.698C258.758 221.698 258.453 221.992 258.269 222.652C257.816 224.267 257.347 225.882 256.805 227.469C256.69 227.808 256.244 228.272 255.946 228.277C251.586 228.328 247.225 228.313 242.671 228.313V226.87C242.671 222.832 242.656 218.793 242.686 214.754C242.686 214.086 242.801 213.423 243.023 212.794C247.865 199.636 252.711 186.482 257.561 173.33C257.932 172.316 258.372 171.906 259.509 171.918C265.806 171.982 272.104 171.964 278.402 171.918C279.289 171.918 279.742 172.172 280.057 173.046C286.667 191.052 293.292 209.052 299.933 227.048C300.054 227.403 300.134 227.765 300.278 228.244ZM269.021 188.887L268.713 188.872C266.874 194.85 265.035 200.83 263.171 206.905H274.583C272.688 200.787 270.855 194.832 269.021 188.887Z" fill="#0F0E10"/>
<path d="M237.701 213.634V228.209H194.811V226.667C194.811 216.737 194.773 206.806 194.846 196.878C194.867 194.998 195.127 193.129 195.619 191.316C197.269 185.244 199.085 179.217 200.796 173.158C201.035 172.314 201.338 171.923 202.307 171.926C213.727 171.961 225.143 171.949 236.567 171.951C236.897 171.951 237.23 171.999 237.658 172.03V186.575C237.192 186.597 236.668 186.643 236.147 186.643C228.549 186.643 220.951 186.673 213.354 186.62C212.117 186.62 211.719 187.001 211.827 188.2C211.91 189.206 211.91 190.218 211.827 191.224C211.749 192.238 212.137 192.515 213.119 192.51C220.551 192.477 227.982 192.492 235.411 192.492H237.048C237.115 192.903 237.16 193.318 237.182 193.734C237.182 197.816 237.164 201.898 237.205 205.98C237.205 206.958 236.925 207.278 235.917 207.273C228.36 207.232 220.803 207.273 213.245 207.227C212.162 207.227 211.734 207.48 211.817 208.624C211.904 209.842 211.904 211.064 211.817 212.282C211.749 213.339 212.134 213.659 213.175 213.651C218.127 213.608 223.08 213.631 228.038 213.634H237.711H237.701Z" fill="#0F0E10"/>
<path d="M287.093 172.032C287.874 171.994 288.365 171.951 288.856 171.951C303.677 171.951 318.497 171.941 333.316 171.923C334.55 171.923 334.991 172.194 334.961 173.518C334.87 177.389 334.931 181.26 334.926 185.132C334.926 185.585 334.888 186.037 334.86 186.653H332.787C328.882 186.653 324.978 186.698 321.073 186.627C319.887 186.607 319.604 187.003 319.609 188.149C319.645 200.982 319.652 213.817 319.632 226.654V228.259C319.073 228.29 318.625 228.335 318.181 228.335C314.612 228.335 311.042 228.302 307.475 228.363C306.487 228.378 305.938 228.13 305.654 227.133C305.332 226.005 304.924 224.903 304.432 223.838C302.895 220.542 302.452 217.086 302.52 213.443C302.671 205.028 302.542 196.609 302.593 188.194C302.593 186.96 302.225 186.617 301.026 186.645C297.922 186.724 294.814 186.645 291.705 186.688C290.912 186.688 290.509 186.46 290.242 185.692C289.37 183.169 288.211 180.756 287.569 178.208C287.088 176.299 287.236 174.23 287.093 172.032Z" fill="#0F0E10"/>
</g>
<defs>
<clipPath id="clip0">
<rect width="268.966" height="58.4177" fill="white" transform="translate(66 171)"/>
</clipPath>
</defs>
</svg>
