<svg width="400" height="400" viewBox="0 0 400 400" fill="none" xmlns="http://www.w3.org/2000/svg">
<rect opacity="0.01" width="400" height="400" fill="#0F0E10"/>
<g clip-path="url(#clip0)">
<path d="M329.001 213.699C323.258 221.975 317.47 230.206 311.833 238.563C311.134 239.598 310.965 241.136 310.942 242.447C310.836 247.913 310.897 253.415 310.897 259.092H298.912C298.912 253.435 299.015 247.945 298.844 242.466C298.789 240.816 298.294 239.212 297.409 237.818C292.048 229.804 286.518 221.904 280.613 213.333C285.586 213.333 289.988 213.23 294.374 213.437C295.07 213.469 295.848 214.796 296.346 215.661C299.139 220.515 301.853 225.396 304.856 230.72C307.839 225.425 310.664 220.622 313.258 215.699C314.23 213.832 315.406 213.162 317.505 213.227C321.328 213.337 325.16 213.133 328.988 213.062L329.001 213.699Z" fill="#0F0E10"/>
<path d="M257.946 159.732C251.539 158.553 245.553 156.896 239.482 156.459C230.169 155.793 225.204 160.101 224.216 169.309C223.797 173.63 223.935 177.988 224.627 182.274C225.725 189.366 230.71 193.651 238.054 193.182C244.652 192.758 251.17 191.101 257.946 189.945C257.946 193.246 258.017 197.334 257.878 201.412C257.855 202.111 257.071 203.157 256.401 203.409C247.172 206.889 237.733 208.721 227.912 206.222C220.342 204.299 214.255 200.396 210.789 193.101C210.465 192.398 209.474 191.483 208.845 191.525C205.687 191.732 202.545 192.224 199.16 192.644C206.798 209.248 213.636 225.839 225.748 240.054V213.281C229.405 213.281 232.69 213.194 235.958 213.359C236.557 213.388 237.6 214.436 237.604 215.019C237.694 229.639 237.675 244.258 237.675 259.273C233.862 259.273 230.361 259.396 226.882 259.182C226.085 259.134 225.191 258.046 224.614 257.24C219.548 250.026 214.55 242.76 209.522 235.516C208.943 234.684 208.311 233.898 207.155 232.335V259.004H195.108V255.638C195.108 245.346 195.16 235.057 195.059 224.768C195.018 222.988 194.643 221.231 193.955 219.589C190.997 212.443 187.881 205.348 184.629 197.804L167.461 212.986C167.334 210.627 167.24 208.892 167.137 206.805H130.575V143.151H146.771V192.444H167.101V141.843L167.875 141.429L206.866 175.691C207.443 171.341 207.708 167.276 208.56 163.302C211.229 150.883 219.94 143.513 232.709 142.426C240.736 141.752 248.439 143.047 255.879 145.96C256.735 146.284 257.823 147.413 257.855 148.226C258.056 152.223 257.946 156.249 257.946 159.732Z" fill="#0F0E10"/>
<path d="M283.245 206.53H266.916V143.222H283.209V164.176L283.98 164.393C288.548 158.583 293.293 152.929 297.576 146.931C299.807 143.801 302.269 142.662 306.056 142.886C311.436 143.209 316.852 142.966 323.065 142.966L298 170.665L324.931 206.685C317.892 206.685 311.53 206.763 305.172 206.588C304.326 206.565 303.309 205.387 302.723 204.51C297.767 197.098 292.888 189.654 287.88 182.048C284.849 184.637 282.792 187.227 283.148 191.486C283.563 196.415 283.245 201.406 283.245 206.53Z" fill="#0F0E10"/>
<path d="M121.954 159.709C115.382 158.531 109.292 156.877 103.118 156.473C93.8829 155.835 88.9754 160.379 88.1624 169.587C87.8135 173.485 87.8601 177.409 88.3017 181.297C89.186 188.871 94.2749 193.625 101.907 193.172C108.502 192.784 115.022 191.114 121.915 189.936C121.915 193.425 121.964 197.704 121.851 201.973C121.851 202.471 121.021 203.177 120.429 203.4C111.524 206.766 102.383 208.575 92.8949 206.517C81.5219 204.054 74.5737 197.066 72.2932 185.693C70.8502 178.496 70.8502 171.084 72.2932 163.888C74.7357 151.404 83.7894 143.542 96.6395 142.429C104.663 141.733 112.36 143.047 119.8 145.938C120.678 146.277 121.815 147.378 121.857 148.177C122.068 152.171 121.954 156.185 121.954 159.709Z" fill="#0F0E10"/>
<path d="M143.376 242.342L154.39 259.263C149.884 259.263 145.893 259.351 141.912 259.173C141.264 259.143 140.49 258.043 140.04 257.279C138.096 253.991 136.055 250.744 134.462 247.291C133.03 244.187 131.012 243.307 127.556 244.508V259.098H115.927V213.32C124.673 213.643 133.535 212.071 142.165 214.534C147.898 216.152 151.746 219.977 152.339 226.256C152.971 232.943 151.044 238.4 144.627 241.611C144.267 241.786 143.94 242.009 143.376 242.342ZM127.828 223.052V234.859C130.536 234.859 132.985 235.008 135.408 234.82C138.446 234.584 140.613 232.021 140.629 228.995C140.668 227.488 140.116 226.026 139.091 224.92C138.066 223.815 136.649 223.154 135.142 223.078C132.807 222.939 130.471 223.052 127.815 223.052H127.828Z" fill="#0F0E10"/>
<path d="M157.518 213.355H189.204V223.01H169.263V231.286H186.561V241.051H169.257V249.563H189.262V259.043H157.518V213.355Z" fill="#0F0E10"/>
<path d="M278.044 213.481C279.1 219.113 278.083 223.615 274.38 227.881C269.372 233.645 265.025 239.979 260.406 246.08C259.794 246.89 259.24 247.747 258.339 249.045H278.131V259.036H242.898C242.25 253.735 242.464 249.155 246.38 244.821C252.337 238.228 257.559 230.972 263.548 223.434H243.141V213.481H278.044Z" fill="#0F0E10"/>
<path d="M91.6407 223.03V232.092H108.197V241.763H91.5759V259.056H79.8271V213.56H110.995C110.995 216.168 111.122 218.881 110.892 221.564C110.843 222.111 109.466 222.936 108.682 222.962C104.206 223.098 99.7194 223.03 95.2395 223.03H91.6407Z" fill="#0F0E10"/>
</g>
<defs>
<clipPath id="clip0">
<rect width="257.809" height="117.893" fill="white" transform="translate(71.1914 141.429)"/>
</clipPath>
</defs>
</svg>
