<svg width="400" height="400" viewBox="0 0 400 400" fill="none" xmlns="http://www.w3.org/2000/svg">
<rect opacity="0.01" width="400" height="400" fill="#0F0E10"/>
<g clip-path="url(#clip0)">
<path d="M198.072 100H202.137C202.43 100.036 202.723 100.088 203.017 100.102C204.181 100.154 205.348 100.157 206.508 100.245C209.857 100.498 213.193 100.846 216.501 101.408C219.38 101.898 222.244 102.482 225.079 103.196C227.915 103.91 230.707 104.79 233.46 105.755C235.707 106.546 237.929 107.397 240.106 108.365C243.749 109.971 247.298 111.784 250.735 113.794C266.507 123.075 279.445 136.483 288.152 152.573C289.738 155.5 291.173 158.505 292.452 161.578C294.118 165.575 295.521 169.675 296.653 173.854C297.561 177.197 298.285 180.588 298.819 184.01C299.349 187.408 299.816 190.812 299.867 194.26C299.891 194.634 299.935 195.007 299.999 195.377V204.636C299.938 204.979 299.895 205.325 299.871 205.672C299.827 207.704 299.65 209.723 299.412 211.741C299.088 214.457 298.66 217.155 298.129 219.836C297.509 222.967 296.729 226.065 295.792 229.117C295.089 231.392 294.332 233.648 293.475 235.869C283.996 260.44 265.22 280.295 241.208 291.139C236.468 293.272 231.571 295.036 226.56 296.417C223.85 297.173 221.101 297.771 218.332 298.279C215.425 298.812 212.504 299.221 209.567 299.504C208.354 299.621 207.136 299.673 205.922 299.78C205.47 299.819 204.996 299.765 204.577 300.009H195.635C195.215 299.765 194.74 299.822 194.288 299.78C192.32 299.594 190.349 299.441 188.382 299.245C185.31 298.929 182.273 298.382 179.248 297.764C174.584 296.789 169.998 295.469 165.53 293.813C160.446 291.945 155.525 289.661 150.818 286.983C131.936 276.263 117.038 259.715 108.359 239.82C104 229.8 101.328 219.128 100.452 208.237C100.336 206.671 100.236 205.104 100.145 203.538C100.082 202.483 100.011 201.43 99.9976 200.379C99.9671 197.561 100.223 194.754 100.433 191.948C100.797 187.335 101.483 182.754 102.486 178.237C103.476 173.737 104.787 169.314 106.406 165.001C110.431 154.256 116.274 144.283 123.682 135.519C129.252 128.94 135.646 123.104 142.705 118.155C148.535 114.055 154.787 110.593 161.356 107.829C166.744 105.551 172.327 103.765 178.037 102.493C181.74 101.67 185.484 101.051 189.255 100.64C191.861 100.361 194.48 100.152 197.11 100.103C197.432 100.098 197.752 100.036 198.072 100ZM200.142 205.43C200.142 205.93 200.121 206.251 200.121 206.573V236.787C200.121 237.057 200.121 237.33 200.121 237.599C200.107 237.721 200.082 237.842 200.047 237.96C199.755 238.117 199.479 238.075 199.215 238.058C198.08 237.982 196.946 237.911 195.813 237.806C193.522 237.571 191.263 237.097 189.072 236.389C186.319 235.527 183.745 234.273 181.257 232.826C178.957 231.488 176.814 229.926 174.699 228.325C172.453 226.632 170.233 224.892 167.979 223.206C166.105 221.774 164.066 220.572 161.907 219.626C159.21 218.475 156.414 217.994 153.493 218.356C150.908 218.678 148.503 219.558 146.194 220.726C146.131 220.768 146.075 220.819 146.025 220.877C146.399 222.496 148.655 227.272 151.006 230.967C154.726 236.835 159.462 241.994 164.993 246.202C176.534 255.008 190.975 259.138 205.431 257.766C219.573 256.412 231.63 250.623 241.623 240.553C250.667 231.438 255.45 219.976 256.834 212.079C254.221 209.965 251.584 207.848 248.896 205.723C244.794 208.966 240.766 212.24 236.691 215.475C236.498 215.346 236.334 215.255 236.183 215.136C234.66 213.919 233.14 212.699 231.622 211.478C229.403 209.7 227.185 207.923 224.966 206.146C224.783 206.001 224.627 205.776 224.304 205.808C220.271 209.024 216.23 212.283 212.128 215.548L210.122 213.838L208.143 212.154C207.505 211.61 206.867 211.065 206.229 210.519C205.571 209.955 204.916 209.388 204.257 208.826C203.598 208.264 202.94 207.7 202.272 207.148C201.605 206.597 201.009 205.996 200.142 205.43ZM220.987 180.154C220.747 180.036 220.579 179.961 220.42 179.87C219.133 179.119 217.78 178.488 216.377 177.986C214.575 177.348 212.726 176.97 210.802 177.052C208.893 177.106 207.043 177.728 205.49 178.839C205.35 178.941 205.151 179.017 205.173 179.239C205.196 179.263 205.221 179.285 205.25 179.303C205.419 179.372 205.6 179.442 205.778 179.504C207.397 180.051 208.928 180.829 210.324 181.813C214.472 184.831 216.408 188.941 216.331 194.037C216.331 194.206 216.381 194.419 216.143 194.578C215.994 194.444 215.835 194.312 215.691 194.165C214.29 192.731 212.793 191.395 211.21 190.165C209.901 189.15 208.532 188.23 207.004 187.57C206.107 187.181 205.184 186.878 204.191 186.841C202.887 186.792 201.82 187.244 200.985 188.271C200.853 188.423 200.76 188.605 200.715 188.802C200.67 188.998 200.674 189.202 200.728 189.397C201.184 191.624 201.393 193.895 201.353 196.168C201.353 197.014 201.331 197.845 201.3 198.683C201.288 198.817 201.311 198.952 201.365 199.075C201.42 199.198 201.504 199.306 201.612 199.387C201.991 199.694 202.36 200.012 202.731 200.328C205.738 202.895 208.744 205.461 211.75 208.027C211.909 208.162 212.089 208.269 212.258 208.389C212.428 208.267 212.573 208.183 212.699 208.081C213.398 207.526 214.094 206.966 214.792 206.407C217.813 203.986 220.836 201.566 223.858 199.147C224.041 199.001 224.197 198.786 224.536 198.796C226.516 200.379 228.509 201.997 230.524 203.595C232.54 205.193 234.549 206.874 236.649 208.476C238.756 206.881 240.742 205.203 242.775 203.595C244.807 201.987 246.802 200.323 248.872 198.742C249.067 198.878 249.23 198.974 249.38 199.091C250.566 200.036 251.751 200.983 252.937 201.933C254.417 203.118 255.898 204.303 257.378 205.488C257.515 205.598 257.644 205.776 257.876 205.669C257.898 205.593 257.916 205.515 257.93 205.437C258.286 201.634 258.27 197.805 257.883 194.004C257.883 193.69 257.802 193.381 257.647 193.107H256.768C254.438 193.107 252.109 193.107 249.778 193.107C249.519 193.107 249.236 193.19 248.964 192.938V192.092C248.964 189.059 248.964 186.027 248.964 182.995C248.964 182.707 249.03 182.402 248.83 182.081C248.491 182.081 248.152 182.059 247.798 182.059C244.954 182.059 242.11 182.059 239.266 182.059C239.028 182.059 238.791 182.027 238.531 182.008C238.493 181.867 238.465 181.724 238.448 181.58C238.437 181.255 238.448 180.93 238.448 180.605C238.448 177.734 238.448 174.863 238.448 171.994C238.448 171.708 238.507 171.405 238.327 171.091C238.031 171.081 237.736 171.064 237.443 171.064C234.544 171.064 231.645 171.064 228.746 171.064C228.457 171.064 228.157 171.102 227.857 170.981C227.827 170.874 227.807 170.764 227.796 170.653C227.796 169.273 227.796 167.892 227.796 166.511C227.813 166.428 227.841 166.347 227.881 166.272C228.219 166.161 228.577 166.205 228.924 166.205C234.614 166.205 240.303 166.205 245.991 166.205C246.262 166.205 246.533 166.205 246.802 166.196C246.904 166.181 247.004 166.157 247.101 166.123C246.911 165.517 246.762 165.292 244.997 163.153C240.244 157.349 234.406 152.526 227.808 148.954C221.209 145.344 213.959 143.077 206.478 142.285C199.936 141.573 193.321 141.971 186.912 143.459C187.067 143.557 187.229 143.643 187.397 143.715C188.819 144.155 190.245 144.585 191.599 145.218C193.602 146.154 195.287 147.473 196.546 149.308C197.134 150.185 197.644 151.112 198.07 152.079C198.135 152.221 198.218 152.356 198.317 152.543C198.572 152.449 198.8 152.383 199.017 152.289C200.804 151.505 202.681 150.946 204.606 150.625C207.798 150.068 211.08 150.36 214.123 151.471C215.146 151.831 216.122 152.311 217.031 152.903C217.134 152.998 217.226 153.106 217.304 153.223C217.114 153.289 216.992 153.34 216.863 153.375C216.238 153.545 215.607 153.704 214.985 153.895C213.32 154.378 211.715 155.049 210.202 155.896C209.446 156.322 208.749 156.844 208.127 157.45C207.365 158.21 206.772 159.073 206.583 160.158C206.583 160.29 206.602 160.421 206.637 160.547C206.85 160.502 207.011 160.481 207.164 160.432C208.353 160.06 209.58 159.817 210.822 159.708C213.22 159.474 215.524 159.801 217.668 160.96C219.444 161.919 220.913 163.361 221.902 165.12C221.988 165.27 222.139 165.426 221.97 165.67C221.724 165.636 221.462 165.607 221.197 165.563C219.492 165.244 217.755 165.119 216.022 165.191C214.634 165.268 213.274 165.49 211.982 166.025C210.81 166.511 209.79 167.21 209.049 168.256C208.976 168.398 208.919 168.547 208.879 168.701C210.414 168.945 211.865 169.26 213.232 169.886C214.571 170.483 215.799 171.302 216.863 172.31C217.937 173.348 218.841 174.547 219.543 175.865C220.381 177.441 220.957 179.105 220.987 180.154ZM165.565 177.204C165.409 176.837 165.513 176.573 165.557 176.312C165.844 174.572 166.392 172.886 167.183 171.31C169.132 167.406 172.167 164.764 176.356 163.469C177.731 163.06 179.146 162.795 180.576 162.679C180.756 162.662 180.934 162.618 181.142 162.582C181.108 162.472 181.052 162.37 180.977 162.282C180.901 162.195 180.809 162.124 180.705 162.074C179.967 161.618 179.179 161.248 178.357 160.971C176.308 160.244 174.188 159.813 172.048 159.462C171.657 159.398 171.264 159.341 170.792 159.239C170.983 158.951 171.216 158.692 171.483 158.472C172.375 157.682 173.358 157 174.411 156.441C176.896 155.107 179.567 154.342 182.339 153.91C184.294 153.602 186.271 153.46 188.25 153.485C188.486 153.485 188.723 153.458 188.943 153.445C189.641 149.971 188.052 145.885 184.915 143.965C184.717 144.018 184.507 144.069 184.299 144.126C182.345 144.679 180.422 145.339 178.54 146.102C165.745 151.234 155.183 160.733 148.732 172.911C144.514 180.861 142.224 189.69 142.047 198.686C141.983 201.123 142.071 203.561 142.309 205.987C142.335 206.117 142.374 206.243 142.424 206.365C142.761 206.314 143.087 206.209 143.39 206.055C145.342 205.25 147.349 204.582 149.395 204.058C152.827 203.181 156.301 202.739 159.852 202.961C163.238 203.169 166.554 204.017 169.625 205.457C172.001 206.584 174.258 207.945 176.364 209.52C178.396 211.016 180.38 212.567 182.388 214.077C183.842 215.209 185.385 216.221 187.004 217.102C188.003 217.646 189.06 218.08 190.154 218.395C190.355 218.451 190.567 218.551 190.816 218.38C190.836 218.227 190.877 218.041 190.884 217.862C190.904 217.354 190.911 216.833 190.921 216.318C190.979 212.852 190.753 209.386 190.244 205.957C189.891 203.492 189.531 201.026 189.251 198.551C188.961 196.236 189.075 193.887 189.59 191.611C189.803 190.719 190.112 189.849 190.389 188.972C190.559 188.454 190.488 188.168 190.071 187.834C189.862 187.659 189.6 187.557 189.327 187.545C188.976 187.523 188.623 187.569 188.289 187.68C187.375 188.004 186.619 188.566 185.918 189.216C184.497 190.538 183.394 192.107 182.402 193.762C181.683 194.972 181.031 196.221 180.447 197.502C180.386 197.634 180.368 197.832 180.087 197.816C180.017 197.552 179.931 197.273 179.868 196.989C179.385 194.788 179.328 192.516 179.699 190.294C180.068 188.043 180.906 185.895 182.158 183.988C183.081 182.583 184.184 181.304 185.439 180.185C185.628 180.016 185.894 179.895 185.976 179.56C185.877 179.516 185.776 179.477 185.672 179.445C184.37 179.164 183.02 179.191 181.73 179.525C180.05 179.955 178.449 180.65 176.987 181.583C175.237 182.668 173.592 183.914 172.076 185.307C171.906 185.463 171.766 185.678 171.456 185.756C171.435 185.62 171.427 185.482 171.432 185.344C171.474 185.05 171.534 184.759 171.601 184.467C172.289 181.172 173.774 178.301 176.206 175.958C178.114 174.118 180.386 172.893 182.929 172.161C183.098 172.112 183.31 172.124 183.374 171.862C183.142 171.789 182.912 171.709 182.68 171.647C180.994 171.19 179.303 171.259 177.607 171.574C175.692 171.949 173.833 172.57 172.077 173.422C169.946 174.429 167.906 175.618 165.98 176.977C165.848 177.036 165.734 177.099 165.565 177.204ZM196.199 225.349C196.029 225.328 195.89 225.31 195.76 225.3C195.005 225.244 194.248 225.203 193.494 225.13C191.526 224.919 189.598 224.426 187.771 223.666C185.541 222.745 183.426 221.566 181.47 220.154C179.59 218.827 177.761 217.427 175.924 216.044C173.781 214.432 171.65 212.807 169.318 211.473C167.433 210.39 165.48 209.467 163.39 208.863C159.888 207.848 156.338 207.792 152.771 208.42C149.606 208.977 146.604 210.062 143.693 211.407C143.541 211.49 143.397 211.586 143.263 211.695C143.332 212.496 143.911 215.013 144.184 215.69C144.209 215.754 144.298 215.795 144.353 215.839C144.413 215.841 144.473 215.834 144.531 215.82C144.758 215.731 144.98 215.632 145.209 215.538C148.017 214.353 150.896 213.442 153.955 213.178C156.605 212.932 159.277 213.213 161.817 214.006C163.775 214.645 165.655 215.503 167.421 216.563C169.271 217.647 170.998 218.91 172.702 220.201C174.643 221.674 176.56 223.179 178.505 224.65C181.055 226.579 183.703 228.36 186.579 229.785C189.485 231.25 192.611 232.233 195.833 232.697C195.957 232.703 196.081 232.699 196.204 232.685C196.3 231.986 196.309 226.158 196.199 225.349ZM133.411 248.708C133.804 248.699 134.196 248.669 134.586 248.617C138.329 247.981 140.184 245.12 140.702 242.748C141.064 241.153 140.943 239.485 140.356 237.958C139.535 235.8 138.253 233.985 136.241 232.792C133.9 231.404 131.441 231.211 128.932 232.314C125.918 233.64 123.902 237.208 124.715 241.037C125.075 242.713 125.847 244.273 126.963 245.575C128.621 247.542 130.692 248.659 133.417 248.71L133.411 248.708ZM219.111 277.925C219.206 278.331 219.289 278.643 219.351 278.958C219.631 280.364 219.902 281.773 220.186 283.178C220.235 283.348 220.298 283.514 220.376 283.674C220.472 283.688 220.569 283.692 220.666 283.685C221.833 283.448 222.999 283.206 224.165 282.959C224.29 282.918 224.41 282.864 224.524 282.798C224.507 282.655 224.5 282.548 224.48 282.445C224.057 280.322 223.634 278.199 223.209 276.077C222.691 273.504 222.171 270.931 221.648 268.358C221.604 268.217 221.548 268.08 221.479 267.95C220.632 267.999 218.11 268.502 217.321 268.781C217.383 269.103 217.427 269.444 217.49 269.785C217.756 271.085 218.025 272.383 218.283 273.678C218.332 273.932 218.474 274.199 218.227 274.504C216.228 274.897 214.184 275.3 212.14 275.689C212.097 275.689 212.043 275.648 211.943 275.603C211.919 275.511 211.882 275.386 211.857 275.264C211.533 273.673 211.215 272.08 210.888 270.491C210.849 270.347 210.799 270.206 210.737 270.071C209.921 270.115 207.275 270.648 206.661 270.885C206.645 270.907 206.634 270.931 206.628 270.958C206.616 271.064 206.616 271.17 206.628 271.276C207.58 276.08 208.535 280.883 209.494 285.686C209.494 285.71 209.525 285.73 209.543 285.749C209.579 285.784 209.617 285.817 209.657 285.847C210.483 285.688 211.35 285.524 212.229 285.353C212.654 285.268 213.076 285.173 213.498 285.075C213.583 285.038 213.663 284.992 213.737 284.936C213.701 284.703 213.674 284.464 213.628 284.231C213.334 282.744 213.032 281.26 212.743 279.772C212.727 279.58 212.73 279.387 212.751 279.196L219.111 277.925ZM139.638 261.213C139.852 261.001 140.046 260.817 140.231 260.624C141.276 259.525 142.316 258.423 143.363 257.33C143.473 257.227 143.591 257.133 143.715 257.047C144.545 257.555 144.806 258.266 144.657 259.153C144.631 259.34 144.595 259.526 144.546 259.71C144.377 260.253 144.216 260.796 144.038 261.335C143.744 262.205 143.435 263.071 143.141 263.941C143.087 264.126 143.043 264.313 143.009 264.502C144.086 265.517 145.146 266.519 146.211 267.516C146.26 267.562 146.359 267.555 146.454 267.579C146.515 267.445 146.582 267.329 146.623 267.203C147.155 265.613 147.684 264.023 148.212 262.433C148.425 261.791 148.551 261.122 148.584 260.446C148.599 260.289 148.623 260.133 148.655 259.979C148.979 259.996 149.246 260.029 149.514 260.018C149.918 260.022 150.322 259.982 150.718 259.901C152.038 259.552 152.92 258.679 153.459 257.45C154.053 256.096 153.899 254.753 153.232 253.462C152.91 252.865 152.489 252.326 151.989 251.869C150.437 250.402 148.887 248.93 147.338 247.454C147.237 247.375 147.128 247.306 147.012 247.249C146.896 247.348 146.808 247.419 146.735 247.486C143.364 251.038 139.996 254.592 136.629 258.151C136.612 258.172 136.601 258.197 136.596 258.223C136.592 258.25 136.589 258.277 136.588 258.305C136.928 258.76 138.878 260.641 139.638 261.213ZM192.102 279.814C192.556 279.845 192.932 279.867 193.306 279.894C193.844 279.933 194.385 279.983 194.925 280.012C195.575 280.053 196.228 279.98 196.852 279.796C199.92 278.871 201.205 275.152 199.274 272.576C198.862 272.018 198.335 271.556 197.728 271.22C197.122 270.883 196.45 270.682 195.758 270.628C193.47 270.398 191.185 270.225 188.885 270.032C188.782 270.035 188.68 270.05 188.581 270.076C188.544 270.157 188.516 270.241 188.498 270.328C188.329 272.268 188.163 274.208 188 276.148C187.857 277.84 187.716 279.538 187.576 281.239C187.481 282.426 187.392 283.61 187.307 284.794C187.312 284.965 187.333 285.135 187.37 285.302C188.765 285.402 190.122 285.578 191.544 285.597C191.795 283.68 191.839 281.8 192.102 279.814ZM122.524 220.692C122.64 221.041 122.734 221.293 122.808 221.549C122.977 222.146 123.118 222.755 123.326 223.339C123.495 223.853 123.722 224.345 124.004 224.805C125.057 226.417 126.568 227.206 128.494 226.972C130.419 226.738 131.712 225.653 132.36 223.827C132.731 222.772 132.672 221.692 132.376 220.628C131.796 218.546 131.204 216.467 130.611 214.388C130.555 214.239 130.487 214.096 130.408 213.958C130.238 214.002 130.104 214.029 129.977 214.065C128.051 214.61 126.125 215.156 124.2 215.702L116.396 217.902C116.198 217.958 116.008 218.05 115.803 218.129C115.799 218.25 115.807 218.371 115.825 218.49C116.164 219.661 116.491 220.831 116.841 221.997C116.867 222.087 116.972 222.153 117.043 222.232L122.524 220.692ZM266.72 224.687C267.957 225.063 269.179 225.379 270.39 225.735C271.601 226.09 272.834 226.437 274.055 226.788C275.277 227.138 276.494 227.504 277.724 227.827C278.954 228.15 280.143 228.55 281.423 228.819C281.873 227.449 282.226 226.099 282.593 224.722C282.343 224.629 282.148 224.541 281.943 224.484C280.567 224.094 279.187 223.709 277.805 223.328C277.546 223.257 277.273 223.221 277.052 222.989C277.062 222.837 277.082 222.685 277.113 222.535C277.282 221.909 277.458 221.285 277.641 220.663C277.842 220.016 277.927 219.339 277.893 218.662C277.776 216.761 276.853 215.384 275.124 214.6C273.449 213.842 271.85 214.072 270.382 215.179C269.519 215.849 268.9 216.784 268.62 217.84C268.011 219.934 267.421 222.046 266.825 224.147C266.778 224.298 266.764 224.457 266.725 224.682L266.72 224.687ZM160.526 276.485C161.133 275.609 161.543 274.726 162.022 273.883C162.516 273.011 162.991 272.129 163.472 271.251C163.953 270.372 164.398 269.536 164.879 268.688C165.36 267.84 165.797 266.922 166.387 266.054C167.184 266.491 167.936 266.9 168.693 267.315C169.45 267.73 170.17 268.195 170.958 268.512C171.466 267.816 172.313 266.252 172.523 265.6C172.326 265.48 172.125 265.346 171.915 265.23C167.932 263.035 163.945 260.843 159.954 258.653C159.817 258.592 159.676 258.543 159.53 258.508C158.965 259.297 158.123 260.891 158.006 261.411C158.137 261.489 158.27 261.58 158.411 261.653C159.572 262.294 160.732 262.936 161.893 263.579C162.103 263.694 162.349 263.77 162.462 264.07L161.067 266.599C160.596 267.453 160.127 268.308 159.661 269.162C159.178 270.04 158.684 270.912 158.218 271.797C157.767 272.656 157.23 273.468 156.807 274.419C158.043 275.124 159.239 275.796 160.53 276.479L160.526 276.485ZM264.18 257.738C265.013 256.695 265.823 255.681 266.634 254.669C267.445 253.656 268.27 252.649 269.069 251.622C269.869 250.594 270.699 249.616 271.457 248.585C270.882 247.977 269.425 246.824 268.836 246.523C268.327 247.141 267.819 247.766 267.311 248.385C266.803 249.005 266.27 249.7 265.738 250.35C265.23 250.973 264.777 251.65 264.178 252.24C263.331 251.688 262.62 251.033 261.856 250.435C261.092 249.838 260.289 249.188 259.505 248.563C258.721 247.938 257.981 247.344 257.217 246.743C256.453 246.142 255.701 245.452 254.866 244.92C254.314 245.428 252.58 247.598 252.222 248.228C252.751 248.781 263.509 257.348 264.183 257.732L264.18 257.738ZM249.351 270.797C252.356 268.427 255.328 266.076 258.299 263.726C258.37 263.656 258.434 263.578 258.489 263.495C258.072 262.763 256.912 261.318 256.436 260.944C256.267 261.06 256.097 261.177 255.928 261.308C254.309 262.584 252.691 263.859 251.074 265.133C250.932 265.243 250.771 265.331 250.591 265.445C250.402 265.233 250.232 265.062 250.083 264.874C248.841 263.306 247.599 261.734 246.357 260.158C245.434 258.99 244.514 257.819 243.586 256.654C243.457 256.485 243.363 256.272 243.109 256.265C242.402 256.686 240.314 258.345 239.857 258.855C239.953 259.002 240.045 259.163 240.156 259.31C242.551 262.481 248.703 270.184 249.351 270.797ZM237.845 127.053C237.286 127.14 236.717 127.185 236.171 127.322C232.765 128.177 230.436 132.003 231.874 135.786C233.19 139.246 237.074 140.695 240.04 139.83C243.234 138.894 245.646 135.288 244.174 131.407C243.132 128.661 240.394 127.084 237.845 127.053ZM277.067 238.527C276.978 238.445 276.883 238.371 276.782 238.305C272.492 236.021 268.195 233.74 263.893 231.463C263.797 231.433 263.697 231.415 263.595 231.41C263.113 232.137 262.728 232.934 262.315 233.719C262.079 234.165 261.766 234.581 261.649 235.126C261.869 235.263 262.066 235.402 262.276 235.514C266.378 237.699 270.481 239.883 274.586 242.063C274.746 242.138 274.91 242.204 275.077 242.261C275.546 241.623 276.789 239.293 277.067 238.527V238.527ZM239.081 276.782C238.898 276.375 238.763 276.055 238.612 275.74C238.171 274.812 237.723 273.888 237.279 272.96C235.764 269.788 234.248 266.616 232.731 263.444C232.637 263.279 232.532 263.122 232.416 262.971C231.739 263.296 231.104 263.596 230.475 263.908C229.847 264.219 229.188 264.427 228.602 264.879C230.757 269.378 232.902 273.853 235.038 278.303C235.104 278.406 235.178 278.504 235.26 278.595C236.518 278.023 237.755 277.431 239.081 276.781V276.782ZM143.115 141.166C142.685 141.369 142.314 141.53 141.957 141.712C140.835 142.259 139.833 143.026 139.012 143.965C136.894 146.486 136.81 150.141 139.142 152.622C141.042 154.641 144.043 155.395 146.782 153.915C148.119 153.178 149.206 152.058 149.902 150.699C150.376 149.86 150.696 148.943 150.847 147.991C150 147.097 149.401 146.596 148.887 146.359C148.828 146.537 148.764 146.709 148.718 146.885C148.593 147.329 148.484 147.776 148.352 148.214C148.13 148.997 147.773 149.734 147.295 150.393C146.618 151.288 145.771 151.943 144.66 152.158C143.036 152.471 141.735 151.838 140.715 150.614C140.134 149.925 139.811 149.055 139.802 148.153C139.794 147.251 140.101 146.375 140.67 145.675C141.148 145.086 141.725 144.585 142.375 144.192C143.07 143.764 143.833 143.491 144.596 143.214C144.765 143.153 144.955 143.128 145.051 142.891L143.115 141.166ZM259.742 149.799C259.234 149.242 258.765 148.752 258.316 148.25C257.867 147.747 257.329 147.259 256.914 146.674C257.141 146.29 257.486 146.059 257.779 145.79C258.072 145.521 258.34 145.132 258.795 144.988C258.965 145.157 259.124 145.301 259.27 145.458C260.064 146.305 260.855 147.163 261.651 148.013C261.778 148.133 261.912 148.246 262.052 148.351C262.599 147.843 263.182 147.425 263.614 146.855C262.767 145.78 259.243 142.019 258.728 141.658C258.592 141.763 258.438 141.868 258.301 141.997C257.82 142.433 257.346 142.879 256.87 143.32C254.663 145.362 252.462 147.404 250.264 149.446C250.036 149.658 249.744 149.831 249.633 150.173C250.127 150.77 250.667 151.327 251.248 151.84C251.906 151.236 252.536 150.655 253.177 150.073C253.819 149.491 254.427 148.813 255.176 148.285C255.325 148.422 255.45 148.522 255.559 148.637C256.277 149.411 256.99 150.19 257.711 150.961C257.85 151.096 257.995 151.223 258.147 151.342C258.718 150.87 259.252 150.353 259.742 149.797V149.799ZM197.52 129.867C198.351 129.867 199.073 129.917 199.791 129.804C199.96 129.494 199.896 129.195 199.893 128.905C199.871 127.255 199.849 125.606 199.813 123.957C199.796 123.784 199.816 123.608 199.872 123.443C199.929 123.277 200.02 123.126 200.14 122.999C200.265 122.857 200.383 122.709 200.494 122.556C201.751 121.001 203.007 119.444 204.262 117.885C204.449 117.706 204.587 117.482 204.664 117.235C204.499 117.209 204.334 117.191 204.167 117.183C203.571 117.183 202.982 117.22 202.382 117.198C202.181 117.184 201.98 117.223 201.799 117.313C201.618 117.402 201.464 117.538 201.353 117.706C200.624 118.645 199.867 119.568 199.117 120.485C198.948 120.69 198.77 120.883 198.563 121.117C198.406 120.991 198.256 120.856 198.114 120.714C197.254 119.744 196.387 118.778 195.55 117.787C195.437 117.637 195.288 117.518 195.116 117.443C194.943 117.367 194.755 117.337 194.568 117.356C193.921 117.393 193.27 117.379 192.622 117.4C192.479 117.426 192.34 117.468 192.207 117.525C192.417 117.791 192.573 118.009 192.747 118.202C194.102 119.751 195.433 121.313 196.812 122.835C196.997 123.028 197.142 123.256 197.238 123.505C197.334 123.754 197.38 124.02 197.372 124.287C197.383 125.855 197.43 127.422 197.466 128.99C197.472 129.254 197.498 129.518 197.52 129.867ZM179.397 132.812C179.101 131.739 178.72 130.674 178.368 129.596C178.015 128.518 177.661 127.492 177.328 126.434C176.994 125.376 176.584 124.296 176.296 123.16C176.557 123.064 176.779 122.974 177.006 122.899C177.905 122.605 178.806 122.317 179.704 122.017C179.859 121.948 180.009 121.865 180.149 121.769C179.877 121.091 179.797 120.386 179.414 119.771C179.3 119.777 179.187 119.792 179.076 119.817C175.914 120.848 172.752 121.881 169.591 122.916C169.505 122.963 169.425 123.02 169.352 123.086C169.455 123.411 169.547 123.746 169.671 124.069C169.794 124.392 169.791 124.822 170.148 125.102C171.403 124.809 172.589 124.265 173.895 123.942C173.995 124.136 174.084 124.335 174.164 124.538C174.389 125.205 174.601 125.875 174.818 126.545C175.528 128.731 176.239 130.917 176.952 133.103C177.017 133.267 177.094 133.426 177.182 133.579C177.958 133.449 178.706 133.19 179.396 132.812H179.397ZM154.263 131.131C154.615 131.881 159.38 139.353 160.745 141.316C160.822 141.416 160.905 141.511 160.994 141.601C161.735 141.293 162.41 140.843 162.979 140.277C160.733 136.837 158.524 133.347 156.228 129.88C155.542 130.247 154.884 130.665 154.261 131.131H154.263ZM127.019 181.251C127.004 180.445 126.673 179.676 126.099 179.11C125.524 178.544 124.75 178.225 123.943 178.221C123.136 178.218 122.36 178.53 121.78 179.091C121.201 179.652 120.864 180.418 120.842 181.224C120.83 181.635 120.902 182.045 121.051 182.428C121.2 182.812 121.425 183.162 121.711 183.457C121.997 183.753 122.34 183.988 122.719 184.149C123.097 184.31 123.505 184.394 123.916 184.396C124.328 184.398 124.736 184.318 125.116 184.16C125.496 184.002 125.841 183.769 126.13 183.476C126.419 183.183 126.646 182.836 126.799 182.454C126.952 182.071 127.026 181.663 127.019 181.251ZM279.387 181.295C279.397 180.685 279.225 180.086 278.894 179.573C278.563 179.06 278.088 178.657 277.528 178.414C276.968 178.171 276.348 178.1 275.747 178.209C275.147 178.318 274.592 178.602 274.152 179.026C273.713 179.45 273.41 179.994 273.28 180.59C273.15 181.186 273.2 181.808 273.423 182.376C273.646 182.944 274.033 183.433 274.534 183.781C275.035 184.13 275.628 184.322 276.239 184.334C277.059 184.347 277.852 184.035 278.442 183.465C279.033 182.895 279.372 182.114 279.387 181.294V181.295Z" fill="#0F0E10"/>
<path d="M222.178 237.151C221.831 237.155 221.486 237.088 221.166 236.955C220.845 236.822 220.555 236.626 220.313 236.377C220.071 236.128 219.882 235.833 219.758 235.509C219.633 235.185 219.576 234.84 219.59 234.493C219.599 233.799 219.883 233.136 220.381 232.651C220.878 232.166 221.548 231.899 222.243 231.907C222.938 231.916 223.601 232.2 224.086 232.698C224.571 233.195 224.839 233.865 224.83 234.559C224.849 236.033 223.667 237.163 222.178 237.151Z" fill="#0F0E10"/>
<path d="M209.873 237.15C209.358 237.137 208.858 236.972 208.436 236.675C208.014 236.378 207.69 235.963 207.504 235.482C207.318 235.001 207.278 234.476 207.391 233.973C207.503 233.47 207.761 233.011 208.134 232.655C208.507 232.299 208.977 232.061 209.484 231.971C209.992 231.881 210.515 231.943 210.988 232.15C211.46 232.357 211.861 232.699 212.139 233.133C212.417 233.567 212.56 234.074 212.551 234.589C212.549 234.935 212.478 235.277 212.342 235.594C212.205 235.912 212.006 236.199 211.756 236.438C211.506 236.677 211.211 236.863 210.887 236.985C210.564 237.108 210.219 237.164 209.873 237.15V237.15Z" fill="#0F0E10"/>
<path d="M237.108 234.572C237.105 235.089 236.948 235.594 236.658 236.022C236.367 236.45 235.957 236.783 235.477 236.978C234.998 237.173 234.472 237.222 233.964 237.119C233.457 237.016 232.992 236.764 232.628 236.397C232.263 236.03 232.016 235.563 231.917 235.055C231.818 234.548 231.871 234.022 232.07 233.545C232.27 233.067 232.606 232.66 233.037 232.373C233.468 232.086 233.974 231.934 234.492 231.935C234.837 231.934 235.179 232.003 235.498 232.135C235.817 232.268 236.107 232.463 236.35 232.708C236.594 232.953 236.786 233.244 236.916 233.564C237.046 233.884 237.111 234.226 237.108 234.572V234.572Z" fill="#0F0E10"/>
<path d="M242.777 192.993C241.92 193.139 239.257 193.124 238.612 192.98C238.477 192.528 238.56 192.042 238.546 191.566C238.533 191.091 238.546 190.595 238.546 190.111C238.546 189.627 238.563 189.149 238.572 188.643C239.305 188.44 240.004 188.56 240.692 188.547C241.369 188.512 242.049 188.523 242.724 188.58C242.858 189.098 242.785 189.583 242.797 190.06C242.809 190.537 242.797 191.03 242.797 191.516C242.797 192.001 242.777 192.477 242.777 192.993Z" fill="#0F0E10"/>
<path d="M227.914 177.528C228.827 177.436 231.301 177.453 231.925 177.553C231.955 177.614 232.023 177.683 232.023 177.753C232.023 179.126 232.023 180.498 232.023 181.898C231.899 181.955 231.769 181.996 231.635 182.019C230.475 182.019 229.315 182.019 228.154 182.019C228.06 182.006 227.967 181.985 227.877 181.954C227.836 181.838 227.809 181.718 227.797 181.595C227.79 180.381 227.79 179.167 227.797 177.954C227.818 177.808 227.857 177.664 227.914 177.528V177.528Z" fill="#0F0E10"/>
<path d="M161.641 198.14C161.063 198.065 160.535 197.769 159.959 197.662C159.383 197.556 158.79 197.432 158.201 197.366C157.583 197.296 156.961 197.261 156.338 197.261C155.742 197.266 155.148 197.304 154.556 197.375C153.967 197.439 153.383 197.561 152.793 197.642C152.204 197.723 151.675 198.001 151.077 198.033C151.054 196.535 152.488 192.322 154.058 189.209C155.544 186.267 158.333 182.438 159.697 181.47C159.866 181.548 159.803 181.697 159.793 181.818C159.624 183.812 159.527 185.81 159.554 187.812C159.565 189.678 159.735 191.54 160.062 193.376C160.345 194.9 160.755 196.379 161.558 197.723C161.607 197.818 161.645 197.918 161.673 198.021C161.688 198.04 161.668 198.065 161.641 198.14Z" fill="#0F0E10"/>
<path d="M132.414 244.485C131.683 244.46 130.982 244.188 130.427 243.713C129.328 242.789 128.623 241.634 128.493 240.18C128.383 238.933 128.842 237.902 129.761 237.069C130.481 236.399 131.398 235.98 132.376 235.872C132.889 235.811 133.409 235.861 133.901 236.018C134.393 236.176 134.845 236.438 135.227 236.786C136.175 237.614 136.793 238.756 136.966 240.002C137.076 240.788 136.916 241.588 136.512 242.271C135.769 243.594 134.188 244.498 132.414 244.485Z" fill="#0F0E10"/>
<path d="M146.111 254.488C146.653 253.849 147.228 253.239 147.834 252.661C148.488 253.155 149.069 253.634 149.47 254.284C149.871 254.934 149.69 255.554 149.075 255.977C148.922 256.091 148.743 256.163 148.554 256.187C148.365 256.212 148.173 256.187 147.996 256.116C147.842 256.066 147.696 255.992 147.563 255.899C147.023 255.49 146.535 255.016 146.111 254.488V254.488Z" fill="#0F0E10"/>
<path d="M192.475 276.396C192.373 275.513 192.44 274.619 192.67 273.761C193.439 273.784 194.218 273.806 194.959 274.084C195.544 274.302 195.769 274.666 195.73 275.269C195.684 275.977 195.459 276.285 194.851 276.473C194.723 276.515 194.591 276.543 194.456 276.559C193.792 276.587 193.126 276.532 192.475 276.396Z" fill="#0F0E10"/>
<path d="M125.846 219.802C126.655 219.506 127.485 219.268 128.329 219.091C128.676 219.748 128.96 220.878 128.93 221.442C128.898 222.05 128.64 222.363 128.034 222.529C127.382 222.698 126.943 222.571 126.626 222.058C126.485 221.829 126.371 221.583 126.288 221.327C126.132 220.845 126.005 220.354 125.846 219.802Z" fill="#0F0E10"/>
<path d="M273.709 222.002C273.059 222.014 271.846 221.681 271.19 221.31C271.298 220.542 271.55 219.801 271.934 219.126C272.239 218.6 272.664 218.461 273.252 218.629C273.929 218.823 274.212 219.137 274.234 219.748C274.24 219.91 274.228 220.073 274.2 220.233C274.1 220.839 273.935 221.432 273.709 222.002V222.002Z" fill="#0F0E10"/>
<path d="M238.115 137.689C236.222 137.738 233.91 136.179 233.913 133.609C233.907 133.073 234.008 132.541 234.21 132.044C234.412 131.547 234.711 131.096 235.09 130.716C235.468 130.335 235.918 130.034 236.414 129.83C236.91 129.625 237.442 129.522 237.978 129.524C240.268 129.557 242.175 131.405 242.131 133.64C242.09 135.952 240.214 137.734 238.115 137.689Z" fill="#0F0E10"/>
</g>
<defs>
<clipPath id="clip0">
<rect width="200" height="200" fill="white" transform="translate(100 100)"/>
</clipPath>
</defs>
</svg>
