<svg width="400" height="400" viewBox="0 0 400 400" fill="none" xmlns="http://www.w3.org/2000/svg">
<rect opacity="0.01" width="400" height="400" fill="#0F0E10"/>
<g clip-path="url(#clip0)">
<path d="M100 254.526C106.95 254.543 113.898 254.502 120.853 254.612C122.626 254.671 124.384 254.957 126.085 255.463C128.955 256.273 130.943 258.091 131.389 261.222C131.829 264.314 131.071 267.025 128.526 268.974C127.441 269.806 126.185 270.408 124.844 271.217C125.381 271.406 125.865 271.581 126.348 271.743C129.135 272.679 131.78 273.993 132.642 277.03C134.384 283.169 132.296 288.095 125.431 289.304C123.489 289.637 121.523 289.813 119.552 289.829C113.033 289.903 106.514 289.882 100 289.882V285.343C103.41 285.56 103.839 285.152 103.839 281.702V262.352C103.839 259.4 103.334 258.917 100.353 259.008C100.235 259.008 100.116 259.032 100 259.044V254.526ZM113.227 279.371C113.227 281.043 113.227 282.715 113.227 284.371C113.227 284.958 113.367 285.424 114.069 285.376C115.905 285.252 117.787 285.312 119.566 284.918C122.173 284.34 123.272 282.608 123.284 279.736C123.299 276.581 122.225 274.748 119.597 274.144C117.818 273.733 115.938 273.766 114.102 273.628C113.334 273.571 113.22 274.106 113.223 274.727C113.232 276.265 113.225 277.823 113.227 279.371ZM115.716 258.867L115.692 259.022C115.178 259.022 114.663 259.022 114.152 259.022C113.507 259.006 113.223 259.309 113.225 259.959C113.225 262.785 113.206 265.611 113.261 268.434C113.261 268.74 113.685 269.29 113.934 269.304C115.988 269.407 118.062 269.423 119.945 268.415C122.145 267.238 122.237 265.14 122.078 263.019C121.936 261.218 120.962 259.959 119.199 259.495C118.054 259.194 116.874 259.065 115.716 258.867Z" fill="#0F0E10"/>
<path d="M141.468 290.838C141.305 290.73 141.13 290.641 140.947 290.575C136.362 289.447 135.139 284.892 136.182 281.361C136.608 279.916 137.525 278.767 138.904 278.227C140.8 277.481 142.786 276.932 144.741 276.316C146.163 275.874 147.648 275.568 149.044 275.037C150.397 274.521 151.155 273.466 151.255 271.932C151.364 270.245 150.781 268.932 149.305 268.15C147.305 267.085 145.212 267.102 143.129 267.959C142.907 268.094 142.701 268.254 142.516 268.437C142.753 268.564 142.869 268.642 143.001 268.7C144.66 269.416 145.4 270.523 145.172 271.961C144.935 273.513 143.62 274.655 141.945 274.787C139.575 274.971 137.994 274.201 137.293 272.522C136.523 270.685 137.182 268.177 138.812 266.774C140.336 265.468 142.153 264.863 144.087 264.519C147.554 263.922 151.004 263.932 154.388 264.997C157.772 266.062 159.158 267.99 159.184 271.512C159.21 275.293 159.184 279.075 159.203 282.856C159.203 283.403 159.219 284.015 159.456 284.478C159.655 284.863 160.189 285.305 160.57 285.302C160.952 285.3 161.383 284.825 161.684 284.457C161.857 284.188 161.924 283.863 161.873 283.547C161.715 282.309 162.243 281.949 163.421 282.027C164.869 282.123 164.98 282.164 164.843 283.616C164.767 284.409 164.698 285.202 164.568 285.986C164.125 288.652 162.421 290.121 159.952 290.838H155.923C154.122 290.152 152.544 289.192 151.715 286.97C149.999 289.194 147.826 290.164 145.497 290.838H141.468ZM151.096 277.46C148.98 278.695 147.091 279.722 145.3 280.902C144.864 281.191 144.601 281.965 144.525 282.551C144.338 284.012 145.127 285.073 146.537 285.503C148.144 285.981 149.902 285.343 150.599 283.893C151.532 281.963 151.219 279.908 151.096 277.46Z" fill="#0F0E10"/>
<path d="M287.205 290.837C286.717 290.708 286.229 290.565 285.738 290.45C281.416 289.433 278.695 286.726 277.527 282.448C276.606 279.139 276.629 275.636 277.593 272.34C278.252 270.005 279.643 267.948 281.557 266.475C283.472 265.003 285.809 264.195 288.217 264.173C290.008 264.132 291.871 264.242 293.589 264.71C296.849 265.594 299.136 267.639 299.769 271.184C299.827 271.374 299.906 271.556 300.006 271.726V273.399C299.878 273.814 299.75 274.228 299.624 274.643C298.729 277.622 294.954 278.998 292.359 277.293C291.037 276.421 290.463 274.65 290.859 272.699C291.138 271.337 292.179 270.408 293.75 270.095C293.959 270.033 294.163 269.953 294.359 269.856C292.101 267.367 287.987 268.114 286.712 271.366C285.136 275.386 285.207 279.562 286.75 283.594C287.098 284.509 288.112 285.412 289.037 285.811C291.494 286.867 293.8 285.369 294.356 282.574C294.475 281.982 294.484 281.332 295.323 281.33C296.548 281.33 297.774 281.291 298.994 281.366C299.231 281.377 299.646 281.843 299.622 282.082C299.214 286.103 297.101 289.165 293.162 290.321C292.525 290.51 291.88 290.675 291.238 290.852L287.205 290.837Z" fill="#0F0E10"/>
<path d="M228.469 285.704C228.52 285.866 228.561 286.03 228.595 286.196C228.784 289.856 228.784 289.856 225.194 289.856C222.035 289.856 218.877 289.827 215.716 289.87C214.78 289.87 214.412 289.553 214.505 288.621C214.544 288.144 214.544 287.665 214.505 287.188C214.448 286.275 214.469 285.546 215.737 285.577C216.519 285.594 216.725 284.921 216.398 284.283C215.424 282.386 214.389 280.52 213.261 278.43C211.799 279.689 210.339 280.676 209.232 281.973C208.047 283.373 209.303 285.48 211.526 285.816C211.526 286.927 211.571 288.069 211.488 289.201C211.472 289.44 210.981 289.813 210.706 289.815C206.877 289.858 203.047 289.844 199.216 289.842C199.097 289.842 198.945 289.863 198.867 289.801C197.839 288.96 198.514 287.813 198.393 286.817C198.353 286.452 198.746 285.723 199.005 285.692C200.367 285.53 200.699 284.622 200.701 283.509C200.724 275.946 200.724 268.381 200.701 260.814C200.701 259.763 200.403 258.865 199.118 258.643C198.818 258.59 198.604 258.007 198.365 257.659C198.327 257.604 198.365 257.503 198.365 257.42C198.408 254.009 197.957 254.594 201.149 254.553C203.083 254.524 205.019 254.553 206.953 254.553C208.972 254.553 208.972 254.553 208.972 256.531C208.972 262.542 208.972 268.553 208.972 274.565V276.149C209.386 275.967 209.652 275.91 209.839 275.757C211.794 274.142 213.749 272.529 215.661 270.867C215.969 270.599 216.071 270.093 216.268 269.699C215.884 269.541 215.509 269.278 215.114 269.242C213.052 269.054 213.052 269.075 213.052 266.899C213.052 265.088 213.052 265.088 214.867 265.086H225.175C226.945 265.086 226.945 265.086 226.945 266.93V267.049C226.945 268.96 226.87 268.76 225.123 269.438C223.661 270.007 222.334 271.027 221.095 272.016C218.784 273.843 219.137 273.421 220.398 275.685C221.659 277.95 223.021 280.224 224.284 282.52C225.227 284.24 226.121 285.967 228.469 285.704Z" fill="#0F0E10"/>
<path d="M244.832 280.587C244.963 280.236 245.11 279.889 245.223 279.533C247.073 273.743 248.92 267.951 250.764 262.157C250.885 261.779 250.965 261.388 251.072 261.005C251.368 259.937 250.887 259.333 249.906 259.034C249.529 258.921 249.141 258.847 248.749 258.812C247.148 258.679 247.138 258.686 247.145 256.987C247.145 254.245 246.908 254.567 249.558 254.558C252.913 254.543 256.268 254.577 259.624 254.541C260.534 254.541 260.965 254.816 260.844 255.771C260.828 256.05 260.828 256.329 260.844 256.607C260.844 258.557 260.844 258.561 259.02 259.104C257.617 259.519 256.92 260.592 256.505 261.896C254.944 266.817 253.401 271.748 251.842 276.672C250.591 280.611 249.29 284.536 248.105 288.492C247.778 289.576 247.264 289.925 246.174 289.88C243.965 289.798 241.752 289.808 239.539 289.88C238.541 289.911 238.079 289.567 237.771 288.594C235.031 279.961 232.226 271.347 229.477 262.713C228.849 260.738 228.022 259.085 225.652 258.917C225.415 258.901 224.979 258.59 224.967 258.394C224.874 257.288 224.878 256.175 224.979 255.069C225.005 254.854 225.792 254.591 226.231 254.591C230.259 254.553 234.287 254.567 238.316 254.57C239.501 254.57 240.685 254.589 241.87 254.57C242.565 254.555 242.915 254.828 242.863 255.549C242.863 255.707 242.863 255.869 242.863 256.027C242.825 256.858 243.06 257.888 242.657 258.454C242.347 258.889 241.235 258.743 240.475 258.851C238.759 259.089 238.197 259.909 238.735 261.717C240.076 266.256 241.496 270.764 242.889 275.281C243.437 277.051 244.003 278.817 244.548 280.585L244.832 280.587Z" fill="#0F0E10"/>
<path d="M177.642 268.592C178.071 268.095 178.471 267.565 178.936 267.104C181.689 264.366 186.687 263.494 190.192 265.128C192.625 266.263 193.422 268.451 193.528 270.886C193.708 275.016 193.737 279.154 193.765 283.289C193.765 284.593 194.002 285.558 195.49 285.807C195.744 285.85 195.931 286.33 196.142 286.612C196.163 286.638 196.142 286.69 196.142 286.729C196.097 290.537 196.635 289.796 193.268 289.846C190.111 289.889 186.952 289.827 183.789 289.87C182.827 289.884 182.367 289.586 182.5 288.582C182.535 288.305 182.535 288.024 182.5 287.746C182.329 286.514 182.578 285.68 184.066 285.635C184.877 285.611 185.336 284.987 185.339 284.17C185.339 280.159 185.391 276.146 185.298 272.135C185.285 271.428 185.039 270.746 184.598 270.196C184.157 269.646 183.547 269.26 182.865 269.099C181.13 268.705 179.393 269.276 178.666 270.771C178.118 271.865 177.796 273.06 177.718 274.283C177.585 277.3 177.659 280.329 177.677 283.36C177.677 285.064 178 285.46 179.644 285.771C180.268 285.888 180.54 286.131 180.533 286.769C180.497 290.525 180.945 289.798 177.718 289.844C174.49 289.889 171.32 289.825 168.128 289.868C167.154 289.882 166.739 289.557 166.839 288.566C166.881 288.089 166.881 287.609 166.839 287.132C166.768 286.296 167.052 285.883 167.914 285.606C168.459 285.429 169.099 284.76 169.225 284.206C169.462 283.098 169.398 281.918 169.405 280.766C169.422 277.942 169.429 275.116 169.405 272.293C169.393 270.833 169.431 269.297 167.35 269.187C167.201 269.187 166.941 268.948 166.933 268.829C166.888 267.723 166.855 266.612 166.919 265.508C166.919 265.348 167.467 265.097 167.763 265.095C170.606 265.064 173.45 265.095 176.294 265.071C176.941 265.071 177.241 265.324 177.223 265.986C177.204 266.772 177.223 267.56 177.223 268.346L177.642 268.592Z" fill="#0F0E10"/>
<path d="M271.974 275.071C271.974 277.892 271.997 280.716 271.974 283.539C271.96 284.717 272.265 285.529 273.559 285.79C273.752 285.868 273.923 285.995 274.055 286.158C274.187 286.321 274.277 286.514 274.315 286.721C274.315 290.543 274.839 289.8 271.495 289.848C268.341 289.896 265.185 289.82 262.033 289.879C260.971 289.901 260.588 289.521 260.713 288.496C260.75 288.179 260.75 287.858 260.713 287.541C260.592 286.456 260.789 285.725 262.118 285.629C263.365 285.548 263.5 284.461 263.521 283.479C263.564 281.329 263.538 279.18 263.538 277.03C263.538 275.2 263.562 273.37 263.538 271.535C263.509 269.927 263.142 269.533 261.576 269.261C261.536 269.263 261.496 269.259 261.457 269.249C259.969 268.451 261.026 267.08 260.761 266.002C260.588 265.286 261.045 265.047 261.732 265.047C264.813 265.066 267.893 265.078 270.96 265.047C271.839 265.047 272.007 265.446 272.002 266.213C271.96 269.182 271.974 272.123 271.974 275.071Z" fill="#0F0E10"/>
<path d="M271.297 258.545C271.297 260.996 269.527 262.845 267.193 262.833C264.859 262.821 263.077 260.922 263.089 258.507C263.101 256.092 264.89 254.271 267.245 254.278C269.67 254.288 271.307 256.006 271.297 258.545Z" fill="#0F0E10"/>
<path d="M141.169 110C142.353 110.463 143.562 110.91 144.749 111.39C163.029 118.789 181.314 126.177 199.605 133.552C200.402 133.816 201.266 133.791 202.048 133.483C220.7 125.99 239.341 118.466 257.972 110.913C258.796 110.58 259.645 110.308 260.481 110.01L260.868 110.375C240.915 152.149 220.967 193.924 200.775 236.212L140.787 110.389L141.169 110ZM211.69 145.021L211.605 145.477C213.121 146.61 214.562 147.866 216.173 148.836C217.692 149.751 217.927 150.747 217.294 152.348C216.583 154.166 216.109 156.086 215.526 157.961C217.37 157.078 218.856 156.007 220.323 154.911C222.372 153.384 222.365 153.384 224.372 154.88C225.87 155.995 227.384 157.09 228.891 158.196C228.68 156.253 228.18 154.548 227.65 152.854C226.751 150.009 226.486 150.334 229.071 148.528C230.493 147.536 231.841 146.445 233.223 145.401C231.3 145.027 229.336 144.909 227.382 145.052C225.586 145.193 224.714 144.505 224.301 142.761C223.86 140.888 223.176 139.075 222.6 137.236L222.126 137.252C221.496 139.259 220.801 141.249 220.251 143.277C219.884 144.629 219.135 145.1 217.782 145.042C215.766 144.959 213.725 145.021 211.69 145.021V145.021Z" fill="#0F0E10"/>
</g>
<defs>
<clipPath id="clip0">
<rect width="200" height="180.838" fill="white" transform="translate(100 110)"/>
</clipPath>
</defs>
</svg>
