<svg width="400" height="400" viewBox="0 0 400 400" fill="none" xmlns="http://www.w3.org/2000/svg">
<rect opacity="0.01" width="400" height="400" fill="#0F0E10"/>
<path d="M91.3054 248.824C91.3675 242.799 90.6532 236.774 91.0569 230.657C92.6407 229.973 94.1935 229.259 94.8767 227.52C95.5599 225.843 95.5289 224.197 94.3488 222.582C105.746 211.154 117.112 199.725 128.354 188.483C132.267 192.396 136.087 196.216 139.969 200.098C139.845 200.595 139.317 200.937 138.882 201.371C123.541 216.744 108.168 232.116 92.8271 247.457C92.3923 247.892 91.9886 248.358 91.5849 248.824C91.5228 248.824 91.3985 248.824 91.3054 248.824Z" fill="#0F0E10"/>
<path d="M40.9951 199.446C41.5852 199.167 41.9578 198.67 42.3926 198.235C57.3923 183.236 72.392 168.205 87.3918 153.205C87.7644 152.832 88.075 152.273 88.7271 152.273C89.193 152.553 89.0998 152.988 89.0998 153.391C89.0998 158.733 89.0998 164.043 89.0998 169.385C89.0998 170.037 88.9756 170.534 88.3545 170.938C85.3421 172.863 84.7831 174.54 85.9322 177.956C74.7212 189.074 63.5413 200.192 52.2993 211.372C51.8334 211.216 51.4608 210.626 50.9949 210.161C48.1068 207.272 45.2186 204.384 42.3305 201.496C41.9268 201.092 41.5852 200.627 41.0572 200.378C40.9951 200.068 40.9951 199.757 40.9951 199.446Z" fill="#0F0E10"/>
<path d="M91.6164 151C93.3555 153.05 95.3741 154.851 97.2374 156.776C98.5417 158.112 99.8771 159.416 101.181 160.72C101.492 161.031 101.896 161.31 102.051 161.807C101.492 162.987 95.6225 168.919 92.9828 171C92.4238 170.938 91.8649 170.844 91.3369 170.254C91.3369 163.95 91.3369 157.491 91.3369 151.031C91.399 151 91.5232 151 91.6164 151Z" fill="#0F0E10"/>
<path d="M291.394 196.464C296.394 196.464 301.176 196.464 306.083 196.464C306.083 202.644 306.083 208.7 306.083 214.911C303.785 214.911 301.611 214.911 299.406 214.911C298.847 214.445 299.251 213.731 298.909 213.079C298.04 213.483 297.263 214.073 296.456 214.539C294.375 215.688 292.201 215.936 289.872 215.967C287.388 216.029 285.059 215.657 282.792 214.663C279.189 213.079 277.14 210.129 275.773 206.619C274.562 203.576 274.5 200.408 274.562 197.179C274.624 194.166 275.276 191.34 276.643 188.701C279.345 183.514 283.785 181.061 289.5 180.688C291.518 180.564 293.506 180.688 295.493 181.123C300.307 182.21 303.847 184.943 306.549 189.197C304.127 190.409 301.766 191.464 299.22 192.334C297.698 189.943 295.555 188.669 292.916 188.11C289.81 187.458 285.4 189.259 284.158 192.893C282.854 196.651 282.854 200.377 284.313 204.073C285.09 206.06 286.456 207.458 288.506 208.141C291.27 209.073 293.909 208.918 296.301 207.116C297.481 206.216 298.226 205.005 298.475 203.328C296.114 202.924 293.785 203.328 291.425 203.048C291.394 200.843 291.394 198.7 291.394 196.464Z" fill="#0F0E10"/>
<path d="M92.7327 221.03C92.1115 220.906 91.5836 220.688 91.0557 220.347C91.0557 215.222 91.0557 210.129 91.0557 204.974C92.8258 204.539 94.2233 203.608 95.0929 202.055C96.0245 200.378 95.6208 198.763 94.8444 197.21C95.745 196.03 115.434 176.683 116.304 176.093C117.484 176.931 125.962 185.471 126.707 186.558C126.335 187.304 125.807 188.018 125.217 188.639C114.533 199.291 103.85 210.005 93.1674 220.688C93.0743 220.781 92.919 220.875 92.7327 221.03Z" fill="#0F0E10"/>
<path d="M64.8447 224.043C61.1802 220.378 57.671 216.9 54.0996 213.297C55.5592 211.558 56.9878 210.068 58.4474 208.639C60.9318 206.217 63.323 203.732 65.7764 201.279C68.3851 198.67 70.9937 196.124 73.5713 193.515C77.7016 189.385 81.832 185.223 85.9313 181.093C86.1487 180.876 86.3661 180.658 86.5835 180.441C87.0182 180.006 87.453 179.727 88.1052 179.975C88.7573 180.255 89.0679 180.689 89.0679 181.404C89.0679 185.689 89.0679 190.006 89.0679 194.292C89.0679 194.944 88.7263 195.285 88.1983 195.627C86.863 196.403 85.8692 197.49 85.5276 199.074C85.2481 200.378 85.6829 201.527 86.2729 202.801C79.3476 209.912 71.8943 216.62 64.8447 224.043Z" fill="#0F0E10"/>
<path d="M246.674 214.943C244.22 214.943 241.798 214.943 239.469 214.943C239.003 214.291 239.158 213.639 239.158 213.049C239.158 208.639 239.158 204.26 239.158 199.85C239.158 199.167 239.158 198.515 238.91 197.863C238.351 196.248 237.481 195.627 235.773 195.689C233.972 195.751 232.761 196.558 232.419 198.111C232.202 199.229 231.984 200.316 232.015 201.465C232.047 205.44 232.047 209.415 232.015 213.421C232.015 213.918 232.14 214.446 231.829 214.974C229.531 214.974 227.233 214.974 225.028 214.974C224.5 214.57 224.593 214.073 224.593 213.608C224.593 206.154 224.593 198.701 224.593 191.279C224.593 190.906 224.593 190.565 224.749 190.223C225.835 189.757 230.37 189.695 231.86 190.099C232.14 190.565 231.953 191.124 232.14 191.714C232.73 191.31 233.227 190.937 233.786 190.596C236.767 188.888 239.935 189.074 243.102 189.943C244.624 190.378 245.618 191.558 246.208 192.987C246.611 194.043 246.953 195.13 246.953 196.279C246.953 201.962 246.953 207.645 246.953 213.359C246.891 213.887 246.953 214.353 246.674 214.943Z" fill="#0F0E10"/>
<path d="M175.961 214.974C172.949 214.974 170.185 214.974 167.452 214.974C166.893 214.384 167.11 213.732 167.079 213.142C167.079 205.534 167.079 197.925 167.079 190.347C167.079 189.726 167.203 189.105 166.831 188.329C164.16 188.329 161.396 188.329 158.508 188.329C158.508 186 158.508 183.857 158.508 181.745C159.843 181.341 182.886 181.341 184.346 181.745C184.594 183.826 184.501 185.969 184.377 188.298C181.52 188.298 178.818 188.298 175.992 188.298C175.961 197.242 175.961 206.03 175.961 214.974Z" fill="#0F0E10"/>
<path d="M248.661 210.626C250.338 209.167 251.829 207.893 253.257 206.682C253.816 206.62 254.034 207.055 254.344 207.303C256.642 209.26 259.251 210.285 262.325 210.005C263.133 209.943 263.847 209.601 264.406 209.074C265.338 208.204 265.183 207.117 264.033 206.589C263.133 206.185 262.201 205.906 261.239 205.72C259.003 205.316 256.767 205.036 254.624 204.167C251.736 202.956 250.649 201.31 250.524 198.142C250.431 195.471 251.363 193.297 253.382 191.589C255.121 190.161 257.201 189.602 259.406 189.447C263.35 189.198 267.139 189.85 270.586 191.931C271.145 192.273 271.797 192.521 272.077 193.422C270.835 194.664 269.499 195.999 268.195 197.304C267.791 197.707 267.356 197.738 266.953 197.366C265.462 195.999 263.568 195.627 261.704 195.192C260.711 194.974 259.748 195.068 258.847 195.533C258.288 195.813 257.822 196.248 257.853 196.993C257.885 197.676 258.319 198.018 258.878 198.235C259.748 198.546 260.586 198.95 261.518 199.012C263.692 199.198 265.773 199.757 267.822 200.471C272.698 202.148 273.04 206.558 271.859 210.067C270.99 212.614 269.158 214.167 266.642 214.943C262.729 216.123 258.785 216.092 254.903 214.943C252.481 214.167 250.431 212.645 248.661 210.626Z" fill="#0F0E10"/>
<path d="M91.0879 180.565C95.1872 178.795 96.2741 176.342 94.6903 172.77C97.7648 169.758 100.808 166.746 103.883 163.702C104.597 164.075 113.323 172.646 114.379 174.137C107.299 181.217 100.218 188.298 93.1375 195.348C92.5785 195.596 91.9264 195.068 91.0879 194.975C91.0879 190.099 91.0879 185.317 91.0879 180.565Z" fill="#0F0E10"/>
<path d="M66.7715 225.471C73.7589 218.546 80.8395 211.465 88.1065 204.229C88.6034 204.261 89.1003 204.633 89.1003 205.534C89.1003 210.534 89.1003 215.565 89.1003 220.378C88.7897 220.937 88.3549 221.061 88.0133 221.248C85.7773 222.49 84.8767 224.54 85.5599 226.962C85.7463 227.552 85.8084 228.049 85.3115 228.515C82.7339 231.061 80.1874 233.608 77.6098 236.154C77.5477 236.216 77.4235 236.216 77.4545 236.216C73.8521 232.614 70.2807 229.012 66.7715 225.471Z" fill="#0F0E10"/>
<path d="M190.743 214.974C188.352 214.974 185.992 214.974 183.476 214.974C183.104 212.21 183.352 209.508 183.321 206.775C183.259 203.98 183.321 201.185 183.321 198.39C183.321 195.658 183.321 192.925 183.321 190.037C185.93 189.633 188.352 189.881 190.681 189.881C191.271 190.471 190.93 191.092 191.24 191.776C193.259 190.906 195.184 189.571 197.793 190.068C197.917 192.21 197.855 194.353 197.824 196.527C196.489 196.807 195.34 197.024 194.191 197.304C191.83 197.894 191.085 198.825 191.085 201.185C191.085 205.161 191.085 209.167 191.085 213.142C191.023 213.701 191.147 214.291 190.743 214.974Z" fill="#0F0E10"/>
<path d="M316.021 189.975C316.58 190.689 316.176 191.248 316.486 191.869C318.567 190.906 320.648 189.788 323.194 190.006C323.194 192.211 323.194 194.323 323.194 196.465C321.983 196.962 320.679 196.993 319.437 197.335C316.952 198.018 316.393 198.67 316.393 201.248C316.393 205.223 316.393 209.198 316.393 213.173C316.393 213.732 316.486 214.322 316.114 214.943C313.754 214.943 311.331 214.943 308.971 214.943C308.598 213.794 308.505 192.304 308.878 190.13C311.238 189.633 313.691 190.41 316.021 189.975Z" fill="#0F0E10"/>
<path d="M325.12 214.911C324.809 213.483 324.809 191.713 325.089 190.129C327.449 189.539 329.902 190.098 332.262 189.881C332.697 191.278 332.759 213.265 332.356 214.88C329.964 214.911 327.573 214.911 325.12 214.911Z" fill="#0F0E10"/>
<path d="M88.8828 247.799C85.5599 244.445 82.3301 241.215 79.0693 237.924C79.4731 237.023 85.1251 231.185 87.1437 229.632C89.0692 230.346 89.0691 230.346 89.1002 232.209C89.1002 236.806 89.1002 241.433 89.1002 246.029C89.1002 246.588 89.1934 247.147 88.8828 247.799Z" fill="#0F0E10"/>
<path d="M332.511 181.497C332.697 183.578 332.604 185.472 332.573 187.304C331.455 187.739 327.232 187.832 324.933 187.491C324.778 185.596 324.84 183.702 324.933 181.621C327.48 181.279 329.871 181.497 332.511 181.497Z" fill="#0F0E10"/>
<path fill-rule="evenodd" clip-rule="evenodd" d="M352.137 214.974H359V214.965C359 203.788 359 192.611 359.031 181.465C358.018 181.516 356.999 181.504 355.971 181.491C354.51 181.474 353.029 181.456 351.516 181.62C351.516 182.177 351.519 182.723 351.523 183.261C351.53 184.313 351.536 185.334 351.516 186.341C351.505 186.869 351.516 187.398 351.526 187.925C351.547 188.978 351.567 190.026 351.423 191.061C351.05 191.185 350.833 191.061 350.615 190.906C348.162 189.291 345.429 189.167 342.696 189.632C338.783 190.285 336.423 192.831 335.087 196.371C333.752 199.912 333.938 203.576 334.653 207.21C335.087 209.508 336.174 211.526 337.789 213.141C340.926 216.278 347.665 216.619 350.708 214.073C350.864 213.949 351.05 213.824 351.361 213.918C351.52 213.997 351.571 214.168 351.627 214.352C351.701 214.598 351.782 214.867 352.137 214.974ZM342.477 198.421C342.042 199.881 341.825 201.34 341.949 202.831C341.794 204.756 342.073 206.588 343.098 208.203C344.434 210.315 347.446 210.657 349.309 209.011C350.427 208.048 350.955 206.806 351.173 205.377C351.545 203.141 351.732 200.936 351.142 198.763C350.427 196.216 349.185 195.222 346.763 195.129C344.372 195.036 343.129 196.34 342.477 198.421Z" fill="#0F0E10"/>
<path fill-rule="evenodd" clip-rule="evenodd" d="M202.018 191.403C200.123 192.955 199.409 194.974 199.378 197.521C201.956 197.521 204.316 197.521 206.645 197.49C206.833 197.164 206.957 196.803 207.08 196.448C207.344 195.687 207.599 194.95 208.446 194.632C209.564 194.198 210.682 193.98 211.893 194.508C213.539 195.222 213.943 196.278 213.322 198.452C213.056 198.718 212.734 198.721 212.414 198.723C212.323 198.724 212.231 198.725 212.142 198.732C209.409 198.949 206.738 199.415 204.16 200.378C201.024 201.558 198.757 203.514 198.198 207.055C197.763 209.881 199.161 213.638 202.173 214.912C204.533 215.905 206.924 215.781 209.316 215.471C211.086 215.253 212.608 214.322 214.067 213.328C214.128 213.492 214.171 213.659 214.214 213.822C214.325 214.247 214.431 214.651 214.812 214.943H221.52C220.995 212.529 221.021 210.134 221.046 207.757C221.054 207.045 221.062 206.335 221.055 205.626C221.034 203.619 221.041 201.626 221.048 199.628C221.051 198.627 221.055 197.625 221.055 196.62C221.055 192.8 218.725 190.254 214.906 189.726C212.639 189.415 210.372 189.384 208.104 189.446C205.9 189.539 203.788 189.974 202.018 191.403ZM211.861 208.98C213.507 207.458 213.848 205.595 213.507 203.297C212.93 203.467 212.357 203.625 211.791 203.782C210.191 204.223 208.639 204.65 207.171 205.315C207.016 205.378 206.892 205.471 206.768 205.564L206.768 205.564C205.215 206.682 205.401 208.732 207.078 209.601C208.476 210.346 210.712 210.036 211.861 208.98Z" fill="#0F0E10"/>
</svg>
