<svg width="400" height="400" viewBox="0 0 400 400" fill="none" xmlns="http://www.w3.org/2000/svg">
<rect opacity="0.01" width="400" height="400" fill="#0F0E10"/>
<g clip-path="url(#clip0)">
<path d="M76.4792 232.879C68.1047 232.879 59.7303 232.879 51.3558 232.879C46.507 232.879 44.0472 230.363 44.0266 225.463C43.9992 216.757 44.0358 208.056 43.9992 199.356C43.9787 194.615 45.598 190.7 49.2157 187.538C57.0999 180.632 64.8973 173.623 72.7404 166.679C75.2892 164.428 78.1898 164.438 80.7707 166.724C88.68 173.728 96.5299 180.813 104.478 187.762C107.929 190.774 109.409 194.517 109.418 198.967C109.433 207.903 109.433 216.839 109.418 225.774C109.407 230.466 107.022 232.863 102.317 232.863C93.7047 232.897 85.0919 232.876 76.4792 232.879ZM76.888 217.713C83.7718 218.15 89.9978 215.724 95.6415 211.587C99.716 208.601 99.684 208.557 96.1394 204.857C96.0297 204.745 95.9407 204.615 95.8356 204.501C93.3461 201.843 93.3461 201.843 90.5688 203.993C82.8034 210.007 72.8728 210.46 64.5159 205.216C62.9834 204.256 61.2361 202.516 59.8521 202.744C58.3355 202.991 57.1776 205.164 55.7661 206.387C54.2587 207.693 54.3615 208.733 55.8597 209.993C61.8756 215.054 68.627 218.07 76.888 217.713Z" fill="#0F0E10"/>
<path d="M234.664 194.007C235.429 193.2 235.909 192.733 236.345 192.228C239.91 188.091 245.607 186.655 250.889 188.569C255.439 190.22 258.477 194.515 258.579 199.866C258.721 207.151 258.657 214.443 258.742 221.731C258.76 223.263 258.187 223.814 256.686 223.764C254.199 223.682 251.705 223.741 248.854 223.741V219.092C248.854 214.702 248.9 210.311 248.827 205.923C248.788 204.364 248.605 202.811 248.281 201.286C247.694 198.418 246.139 197.259 243.142 197.25C240.109 197.25 237.853 198.745 237.462 201.423C237.101 203.888 237.051 206.41 237.005 208.91C236.934 213.142 236.923 217.37 237.005 221.608C237.035 223.252 236.441 223.853 234.82 223.769C232.943 223.665 231.062 223.665 229.185 223.769C227.559 223.862 227.002 223.284 227.027 221.633C227.109 216.145 227.088 210.657 227.027 205.169C227.004 203.841 226.839 202.52 226.533 201.229C226.015 198.96 224.677 197.474 222.212 197.27C219.213 197.023 217.133 197.911 216.231 200.305C215.617 201.986 215.287 203.758 215.253 205.548C215.13 210.808 215.153 216.051 215.237 221.301C215.267 223.067 214.84 223.924 212.891 223.771C211.016 223.66 209.136 223.654 207.259 223.753C205.919 223.794 205.249 223.389 205.254 221.903C205.29 211.556 205.29 201.209 205.254 190.863C205.254 189.491 205.711 188.873 207.161 188.926C209.488 189.008 211.82 188.947 214.17 188.947C214.399 190.12 214.57 191.005 214.856 192.434C217.754 188.899 221.223 187.513 225.33 187.787C229.436 188.062 232.51 190.154 234.664 194.007Z" fill="#0F0E10"/>
<path d="M124.546 177.258H134.563V191.618C136.664 190.377 138.249 189.011 140.083 188.417C146.785 186.281 155.646 189.316 156.192 198.531C156.681 206.782 156.295 215.087 156.295 223.708C153.486 223.708 150.615 223.801 147.762 223.616C147.305 223.587 146.556 222.343 146.542 221.647C146.437 216.477 146.494 211.302 146.478 206.13C146.493 204.876 146.444 203.622 146.332 202.373C145.999 199.171 144.06 197.342 140.988 197.248C137.4 197.138 135.109 198.604 134.862 201.959C134.472 207.259 134.522 212.597 134.474 217.918C134.422 223.737 134.474 223.76 128.705 223.728C123.957 223.703 124.564 224.273 124.555 219.637C124.529 206.467 124.529 193.298 124.555 180.13L124.546 177.258Z" fill="#0F0E10"/>
<path d="M180.538 224.684C169.461 224.878 161.977 216.374 161.956 206.248C161.936 195.693 170.08 187.726 180.673 187.822C191.407 187.925 199.312 195.826 199.241 206.379C199.173 216.452 191.64 224.967 180.538 224.684ZM180.632 197.243C175.678 197.232 171.905 201.179 171.928 206.344C171.953 211.323 175.767 215.407 180.472 215.491C185.177 215.576 189.288 211.375 189.379 206.381C189.471 201.387 185.517 197.259 180.632 197.243Z" fill="#0F0E10"/>
<path d="M274.534 209.25C274.196 212.031 275.697 213.479 277.275 214.7C280.397 217.105 285.059 216.813 288.133 214.336C288.893 213.716 289.818 213.334 290.794 213.236C293.427 213.092 296.074 213.186 299.244 213.186C298.584 214.496 298.228 215.402 297.709 216.204C291.883 225.239 280.783 227.542 272.141 221.53C263.724 215.676 261.724 203.895 267.721 195.526C272.289 189.143 279.732 186.463 287.379 188.437C294.334 190.236 299.516 196.383 300.466 203.961C301.128 209.248 301.128 209.248 295.841 209.246H274.536L274.534 209.25ZM290.481 202.788C289.766 198.688 286.826 196.283 282.944 196.09C279.303 195.912 275.573 198.183 274.69 201.082C274.278 202.427 274.975 202.77 276.106 202.772C278.985 202.781 281.866 202.787 284.748 202.788H290.481Z" fill="#0F0E10"/>
<path d="M320.261 188.967C323.65 188.967 326.688 188.864 329.709 189.056C330.308 189.095 331.08 190.172 331.356 190.927C333.4 196.589 335.337 202.29 337.313 207.977C337.411 208.256 337.568 208.514 337.886 209.168C338.343 208.42 338.72 207.972 338.893 207.453C340.693 202.038 342.511 196.628 344.208 191.181C344.731 189.5 345.551 188.798 347.369 188.912C349.922 189.072 352.494 188.954 355.561 188.954C354.152 192.763 352.905 196.173 351.635 199.573C347.524 210.561 343.376 221.525 339.354 232.543C338.583 234.658 337.623 235.797 335.177 235.559C332.8 235.33 330.381 235.509 327.576 235.509C329.026 231.985 330.159 228.836 331.61 225.838C332.784 223.407 332.781 221.265 331.749 218.733C328.095 209.836 324.669 200.851 321.156 191.894C320.848 191.105 320.656 190.273 320.261 188.967Z" fill="#0F0E10"/>
<path d="M306.666 177.12H310.19C316.474 177.12 316.474 177.12 316.474 183.294V215.715C316.474 217.673 316.4 219.632 316.487 221.587C316.558 223.209 315.941 223.833 314.306 223.771C311.821 223.675 309.329 223.746 306.657 223.746L306.666 177.12Z" fill="#0F0E10"/>
</g>
<defs>
<clipPath id="clip0">
<rect width="311.562" height="70.5884" fill="white" transform="translate(44 165)"/>
</clipPath>
</defs>
</svg>
