<svg width="400" height="400" viewBox="0 0 400 400" fill="none" xmlns="http://www.w3.org/2000/svg">
<rect opacity="0.01" width="400" height="400" fill="#0F0E10"/>
<g clip-path="url(#clip0)">
<path d="M272.421 153C271.705 154.563 271.007 156.136 270.267 157.688C266.123 166.401 261.972 175.111 257.816 183.818C257.714 184.03 257.624 184.249 257.49 184.548H270.653V189.745H264.931V205.703C263.062 205.703 261.278 205.717 259.495 205.676C259.358 205.676 259.121 205.294 259.115 205.085C259.08 203.747 259.096 202.408 259.096 201.07C259.096 197.589 259.096 194.108 259.096 190.628V189.789C257.755 189.789 256.505 189.768 255.257 189.81C255.076 189.81 254.838 190.091 254.74 190.295C253.311 193.249 251.902 196.211 250.488 199.171C250.373 199.411 250.248 199.646 250.098 199.944L247.377 198.311C246.051 199.989 244.318 200.864 242.159 200.709C240.651 200.601 239.392 199.904 238.411 198.765C236.407 196.438 236.608 193.189 238.819 191.074C240.797 189.175 244.65 188.632 247.413 191.95L252.128 189.089C250.86 187.261 249.074 185.847 246.997 185.026C241.556 182.844 235.341 184.774 232.438 189.59C228.436 196.233 232.428 204.242 239.834 205.879C242.511 206.471 245.08 206.064 247.743 204.949C240.889 219.324 234.1 233.557 227.244 247.932L207.099 205.71C208.3 205.71 209.379 205.736 210.452 205.691C210.698 205.681 211.061 205.481 211.158 205.272C214.301 198.507 217.425 191.733 220.531 184.951C220.558 184.856 220.576 184.758 220.584 184.659C220.333 184.646 220.1 184.624 219.868 184.623C218.272 184.623 216.675 184.65 215.081 184.608C214.482 184.592 214.178 184.777 213.925 185.328C212.332 188.794 210.699 192.241 209.077 195.698C209.025 195.807 208.962 195.91 208.851 196.11C208.428 195.226 208.033 194.416 207.65 193.599C206.344 190.805 205.033 188.011 203.745 185.208C203.546 184.77 203.303 184.602 202.808 184.612C201.09 184.649 199.371 184.612 197.652 184.636C197.191 184.636 196.954 184.481 196.761 184.073C191.836 173.709 186.905 163.351 181.967 153H272.421ZM222.375 205.617H228.045V184.694H222.375V205.617Z" fill="#0F0E10"/>
<path d="M349.174 205.726C347.309 205.719 345.442 205.697 343.576 205.717C343.094 205.717 342.76 205.63 342.655 205.126C342.316 203.502 341.308 203.055 339.709 203.227C338.204 203.386 336.668 203.287 335.142 203.248C334.636 203.234 334.343 203.394 334.237 203.86C333.887 205.421 332.955 205.942 331.347 205.744C329.994 205.576 328.604 205.709 327.103 205.709C327.213 205.436 327.288 205.225 327.382 205.022C330.455 198.439 333.526 191.855 336.593 185.27C336.831 184.754 337.097 184.611 337.664 184.539C338.99 184.376 339.597 184.891 340.139 186.089C342.961 192.33 345.897 198.523 348.797 204.73C348.909 204.973 349.049 205.2 349.175 205.436L349.174 205.726ZM338.272 194.062L338.044 194.08C337.493 195.558 336.94 197.036 336.382 198.531H339.952C339.365 196.989 338.814 195.526 338.272 194.062Z" fill="#0F0E10"/>
<path d="M51 178.56L53.9935 174.434C55.8498 175.602 57.815 176.24 59.9953 176.078C60.3113 176.053 60.6199 175.97 60.9058 175.834C61.9532 175.336 62.099 174.02 61.1061 173.435C60.3415 172.985 59.4502 172.738 58.6017 172.424C57.1874 171.897 55.6744 171.548 54.3633 170.841C50.533 168.753 50.2619 163.665 53.774 161.055C55.3209 159.913 57.0931 159.371 58.9847 159.318C61.5142 159.25 63.9641 159.698 66.2181 160.887C66.4346 161.001 66.6394 161.134 66.8471 161.262C66.9267 161.312 66.9945 161.378 67.1418 161.49L64.4547 165.347C62.9653 164.937 61.5731 164.509 60.1559 164.179C59.6535 164.065 59.0834 164.156 58.5604 164.245C57.8695 164.362 57.4202 164.788 57.3362 165.511C57.2522 166.234 57.6765 166.64 58.2584 166.839C59.4119 167.232 60.592 167.553 61.7661 167.883C63.2584 168.305 64.7257 168.796 65.8748 169.881C67.7428 171.645 68.0154 173.871 67.4703 176.207C66.9311 178.519 65.2266 179.844 63.0213 180.412C58.8079 181.506 54.7714 180.908 51 178.706V178.56Z" fill="#0F0E10"/>
<path d="M271.645 195.136C271.82 190.462 274.13 187.144 278.357 185.196C283.219 182.955 288.84 184.135 292.5 188.016C296.772 192.544 296.027 199.826 290.892 203.711C285.182 208.03 276.75 206.507 273.118 200.498C272.134 198.881 271.624 197.024 271.645 195.136V195.136ZM277.868 195.136C277.868 198.18 280.445 200.73 283.482 200.686C286.52 200.643 289.049 198.155 289.069 195.161C289.089 192.139 286.545 189.596 283.47 189.573C280.396 189.55 277.871 192.09 277.871 195.139L277.868 195.136Z" fill="#0F0E10"/>
<path d="M92.6515 159.504V180.404H87.0121V170.683L81.5701 174.577L76.1811 170.715V180.415H70.4961V159.475C71.9958 160.544 73.4219 161.557 74.845 162.577C76.8706 164.027 78.908 165.464 80.9072 166.948C81.4051 167.316 81.7277 167.312 82.233 166.948C85.4903 164.572 88.7755 162.232 92.0519 159.884C92.2213 159.761 92.4069 159.657 92.6515 159.504Z" fill="#0F0E10"/>
<path d="M303.775 199.951V205.648H297.979V184.616C298.218 184.598 298.432 184.57 298.645 184.57C301.688 184.57 304.73 184.557 307.779 184.57C311.618 184.589 314.753 187.063 315.505 190.776C316.106 193.744 315.041 196.163 312.722 198.079C312.516 198.248 312.302 198.409 312.031 198.621C312.62 199.789 313.209 200.953 313.799 202.112C314.388 203.28 314.977 204.448 315.611 205.706C313.452 205.706 311.4 205.719 309.35 205.683C309.174 205.683 308.942 205.382 308.841 205.171C308.105 203.615 307.378 202.049 306.682 200.471C306.508 200.076 306.29 199.922 305.855 199.946C305.2 199.978 304.538 199.951 303.775 199.951ZM303.805 194.756C305.004 194.756 306.126 194.765 307.249 194.756C308.447 194.746 309.403 193.805 309.543 192.523C309.666 191.395 308.844 189.967 307.819 189.866C306.493 189.738 305.15 189.836 303.805 189.836V194.756Z" fill="#0F0E10"/>
<path d="M51.6104 205.423V184.841C51.7088 184.811 51.8099 184.79 51.9124 184.779C55.2256 184.795 58.5417 184.747 61.852 184.852C65.3508 184.962 67.8258 188.074 67.0627 191.258C66.8063 192.327 66.1213 193.109 65.2801 193.775C65.0886 193.921 64.8927 194.067 64.6319 194.269C64.8308 194.388 64.9766 194.491 65.1343 194.571C67.4914 195.758 68.6095 197.593 68.334 199.8C67.9599 202.806 66.3968 204.666 63.7421 205.264C63.4591 205.344 63.1681 205.393 62.8744 205.41C59.1457 205.426 55.4186 205.423 51.6104 205.423ZM57.235 200.761C58.4725 200.761 59.6437 200.793 60.8119 200.751C61.6472 200.72 62.4118 199.781 62.4855 198.809C62.5547 197.879 61.8785 196.765 61.0476 196.703C59.7925 196.613 58.527 196.68 57.235 196.68V200.761ZM57.235 192.728C58.2662 192.728 59.212 192.754 60.1622 192.72C60.9239 192.693 61.5603 191.948 61.5898 191.131C61.6148 190.449 61.0535 189.564 60.4569 189.525C59.3962 189.471 58.3266 189.514 57.2335 189.514L57.235 192.728Z" fill="#0F0E10"/>
<path d="M131.753 193.977V184.826H137.415V205.79L125.559 196.311V205.393H119.854V184.468L131.753 193.977Z" fill="#0F0E10"/>
<path d="M146.519 200.341H156.333V205.405H140.782V184.84H156.341V189.86H146.488V192.581H153.636V197.591H146.519V200.341Z" fill="#0F0E10"/>
<path d="M70.8167 184.818H76.5533V185.684C76.5533 189.649 76.5533 193.615 76.5533 197.583C76.5533 199.309 77.1765 200.33 78.4684 200.773C80.8005 201.575 82.7923 200.17 82.804 197.677C82.8232 193.686 82.804 189.696 82.804 185.7V184.808H88.5804V185.583C88.5804 189.695 88.5804 193.808 88.5804 197.921C88.5804 202.533 85.5412 205.644 80.883 205.876C78.8279 205.978 76.8155 205.876 74.9239 204.978C72.1249 203.642 70.8638 201.274 70.7887 198.343C70.6752 193.917 70.7519 189.487 70.7519 185.052C70.7645 184.971 70.7862 184.893 70.8167 184.818V184.818Z" fill="#0F0E10"/>
<path d="M193.546 186.482L190.853 190.328C189.262 189.913 187.796 189.484 186.304 189.17C185.807 189.066 185.234 189.203 184.72 189.326C184.114 189.472 183.792 189.91 183.724 190.54C183.656 191.169 184.001 191.597 184.531 191.79C185.515 192.149 186.538 192.4 187.532 192.732C188.665 193.11 189.841 193.418 190.899 193.951C193.382 195.203 194.229 197.374 194.059 200.023C193.911 202.388 192.672 204.012 190.545 204.999C188.359 206.021 186.036 206.054 183.699 205.816C181.841 205.645 180.034 205.119 178.378 204.266C178.057 204.096 177.749 203.899 177.355 203.67L180.376 199.405C181.82 200.405 183.516 200.986 185.274 201.085C185.976 201.133 186.68 201.027 187.336 200.774C188.332 200.363 188.463 199.167 187.607 198.527C187.096 198.143 186.455 197.899 185.84 197.686C184.478 197.213 183.07 196.868 181.731 196.345C179.763 195.577 178.291 194.277 177.862 192.11C177.304 189.289 178.506 186.872 181.089 185.458C183.276 184.259 185.624 184.164 188.021 184.465C189.705 184.653 191.333 185.178 192.806 186.009C193.036 186.143 193.253 186.301 193.546 186.482Z" fill="#0F0E10"/>
<path d="M174.733 186.345L171.801 190.527C170.375 189.764 168.909 189.241 167.327 189.159C166.769 189.141 166.213 189.216 165.68 189.38C165.113 189.546 164.743 190.047 164.84 190.607C164.912 191.023 165.22 191.578 165.577 191.733C166.552 192.159 167.608 192.4 168.628 192.732C169.647 193.063 170.701 193.332 171.668 193.778C174.173 194.929 175.251 196.979 175.183 199.658C175.119 202.191 173.921 204.08 171.559 205.004C167.031 206.777 162.704 205.957 158.402 203.734C159.47 202.228 160.465 200.831 161.462 199.414C162.916 200.404 164.613 200.985 166.374 201.094C166.981 201.119 167.59 201.059 168.18 200.914C168.818 200.768 169.152 200.287 169.22 199.646C169.288 199.005 168.955 198.541 168.411 198.297C167.636 197.949 166.823 197.679 166.017 197.403C164.932 197.03 163.807 196.746 162.753 196.313C160.413 195.357 158.949 193.715 158.837 191.092C158.718 188.249 160.213 186.405 162.65 185.238C165.429 183.909 168.333 184.134 171.194 184.919C172.39 185.242 173.489 185.834 174.733 186.345Z" fill="#0F0E10"/>
<path d="M107.525 186.489L104.835 190.329C103.271 189.919 101.809 189.479 100.32 189.175C99.7793 189.066 99.1532 189.215 98.5992 189.368C98.0453 189.522 97.7433 189.985 97.6977 190.578C97.667 190.836 97.729 191.097 97.8728 191.315C98.0166 191.533 98.233 191.694 98.4843 191.769C99.4684 192.126 100.485 192.393 101.478 192.726C102.609 193.104 103.782 193.413 104.847 193.932C107.257 195.11 108.194 197.2 108.056 199.759C107.888 202.826 106.158 204.827 102.988 205.541C99.2003 206.394 95.5468 205.896 92.0863 204.12C91.8505 203.999 91.631 203.845 91.3408 203.669L94.3476 199.433C96.248 200.609 98.2324 201.273 100.444 201.073C100.736 201.048 101.021 200.97 101.285 200.844C102.353 200.311 102.463 198.945 101.42 198.396C100.482 197.902 99.4257 197.626 98.4195 197.261C97.319 196.864 96.1641 196.578 95.121 196.068C90.7943 193.953 90.4893 188.473 94.5141 185.815C95.8244 184.946 97.3488 184.448 98.9233 184.373C101.87 184.218 104.681 184.7 107.225 186.285C107.304 186.329 107.379 186.387 107.525 186.489Z" fill="#0F0E10"/>
<path d="M116.329 180.458C114.309 180.458 112.422 180.47 110.535 180.439C110.34 180.439 110.015 180.207 109.981 180.039C109.63 178.269 108.493 177.917 106.852 178.074C105.395 178.22 103.905 178.118 102.439 178.095C102.033 178.088 101.768 178.197 101.69 178.594C101.367 180.24 100.342 180.67 98.7432 180.493C97.4409 180.347 96.1062 180.464 94.6904 180.464C94.798 180.189 94.8643 179.991 94.9527 179.802C97.9757 173.326 100.993 166.854 104.005 160.386C104.212 159.947 104.447 159.842 104.923 159.772C106.305 159.566 106.939 160.126 107.506 161.389C110.253 167.5 113.133 173.553 115.966 179.626C116.077 179.862 116.175 180.105 116.329 180.458ZM105.616 169.095L105.392 169.086C104.85 170.536 104.307 171.985 103.751 173.477H107.261L105.616 169.095Z" fill="#0F0E10"/>
<path d="M123.973 175.374H133.453V180.407H118.369V159.864H123.967L123.973 175.374Z" fill="#0F0E10"/>
<path d="M135.865 180.417V159.864H141.463V175.371H150.911V180.417H135.865Z" fill="#0F0E10"/>
<path d="M324.237 205.674H318.531V184.606H324.241L324.237 205.674Z" fill="#0F0E10"/>
<path d="M110.859 184.818H116.49V205.383H110.859V184.818Z" fill="#0F0E10"/>
</g>
<defs>
<clipPath id="clip0">
<rect width="298.174" height="94.929" fill="white" transform="translate(51 153)"/>
</clipPath>
</defs>
</svg>
