<svg width="400" height="400" viewBox="0 0 400 400" fill="none" xmlns="http://www.w3.org/2000/svg">
<rect opacity="0.01" width="400" height="400" fill="#0F0E10"/>
<path d="M111.903 254.683C111.518 254.489 111.131 254.122 110.747 254.126C102.484 254.19 94.822 251.713 87.3373 248.577C79.2022 245.18 72.3209 239.951 66.541 233.391C61.0007 227.104 57.0718 219.91 55.1712 211.639C54.477 208.624 53.9033 205.654 54.0083 202.56C54.0668 201.448 54.0668 200.335 54.0083 199.224C53.6329 193.886 54.9599 188.835 56.6551 183.869C58.8509 177.443 62.1918 171.67 66.9884 166.789C71.9856 161.705 72.8746 160.21 79.8704 155.867C85.2183 152.546 90.9144 149.888 97.1228 148.414C100.483 147.617 103.852 147.039 107.26 146.497C111.302 145.853 115.308 145.954 119.286 146.143C123.287 146.339 127.296 147.039 131.223 148.032C135.402 149.075 139.468 150.528 143.362 152.369C146.643 153.931 149.79 155.872 152.74 157.998C156.535 160.732 160.085 163.734 163.097 167.442C166.06 171.085 168.818 174.814 170.771 179.042C172.571 182.938 174.088 186.952 174.706 191.282C175.151 194.407 175.904 197.517 175.788 200.669C175.626 204.991 174.95 209.279 173.775 213.442C172.975 216.257 171.952 219.004 170.715 221.656C169.321 224.671 167.292 227.414 165.403 230.177C162.88 233.858 159.539 236.827 156.276 239.812C154.169 241.738 151.764 243.401 149.311 244.888C144.85 247.58 140.19 249.924 135.116 251.283C131.902 252.144 128.732 253.116 125.394 253.589C122.896 253.943 120.436 254.061 117.936 254.136C117.746 254.142 117.565 254.499 117.38 254.691L111.903 254.683ZM114.595 252.876C119.199 253.007 123.775 252.892 128.267 251.663C131.1 250.889 134.041 250.47 136.789 249.487C139.648 248.465 142.322 246.935 145.096 245.667C150.689 243.109 155.321 239.223 159.784 235.113C160.728 234.247 161.404 233.106 162.256 232.136C166.404 227.405 169.554 222.101 171.59 216.148C172.733 212.808 173.897 209.419 173.951 205.901C174.021 201.107 174.407 196.305 173.52 191.498C173.108 189.263 172.615 187.025 171.835 184.983C169.655 179.272 166.9 173.876 162.898 169.075C159.908 165.486 156.634 162.243 152.923 159.565C148.959 156.702 144.739 154.142 140.045 152.428C136.451 151.114 132.835 149.987 129.134 149.005C125.361 148.008 121.514 147.725 117.721 147.403C113.663 147.064 109.523 147.686 105.419 147.89C105.317 147.885 105.216 147.888 105.115 147.901C102.542 148.491 99.9703 149.103 97.3955 149.69C92.8022 150.745 88.3796 152.44 84.2573 154.724C80.4332 156.825 76.8075 159.269 73.4247 162.025C70.3315 164.567 67.5568 167.473 65.1609 170.68C61.2521 175.875 58.1957 181.598 56.713 188.016C56.1817 190.3 55.3872 192.602 55.3553 194.904C55.3034 199.192 55.0378 203.471 55.7414 207.799C56.3316 211.428 57.2761 214.914 58.6597 218.22C62.2898 226.905 67.8679 234.168 75.4233 239.933C80.7995 244.039 86.5842 247.314 92.9874 249.506C99.1026 251.601 105.339 252.997 111.852 252.878C112.764 252.86 113.674 252.876 114.59 252.876H114.595Z" fill="#0F0E10"/>
<path d="M323.051 183.683C322.645 183.683 322.239 183.671 321.834 183.683C320.853 183.717 320.335 183.164 320.206 182.281C319.766 179.263 319.388 176.235 318.942 173.217C318.858 172.649 318.577 172.11 318.37 171.564C318.291 171.389 318.199 171.219 318.095 171.057C317.982 171.196 317.882 171.346 317.796 171.503C316.403 174.632 315.014 177.764 313.631 180.899C313.513 181.167 313.433 181.455 313.312 181.725C312.886 182.67 312.801 184.1 311.482 184.06C310.286 184.023 309.914 182.699 309.475 181.745C307.959 178.454 306.504 175.134 305.024 171.829C304.906 171.562 304.788 171.295 304.67 171.028C304.566 171.289 304.421 171.541 304.366 171.812C303.955 173.819 303.532 175.826 303.175 177.851C302.917 179.303 302.751 180.771 302.548 182.233C302.42 183.155 301.917 183.667 300.962 183.683C300.456 183.691 299.946 183.711 299.442 183.683C298.036 183.594 297.464 182.921 297.671 181.535C297.829 180.473 298.05 179.416 298.273 178.363C299.246 173.759 299.995 169.119 300.798 164.487C301.034 163.122 301.11 161.745 301.395 160.405C301.521 159.814 302.029 159.074 302.555 158.855C303.432 158.486 304.013 159.145 304.375 159.969C304.811 160.958 305.309 161.922 305.774 162.899C307.082 165.647 308.388 168.395 309.691 171.144C309.817 171.41 309.892 171.7 310.017 171.97C310.489 172.975 310.972 173.977 311.451 174.976C311.929 174.008 312.421 173.045 312.886 172.07C314.789 168.081 316.663 164.075 318.612 160.11C318.871 159.585 318.858 158.603 319.942 158.767C321.051 158.935 321.269 159.637 321.458 160.636C322.241 164.768 322.65 168.962 323.701 173.058C324.409 175.804 324.721 178.659 325.056 181.483C325.314 183.66 325.207 183.668 323.051 183.683Z" fill="#0F0E10"/>
<path d="M214.709 201.534C214.324 197.183 221.004 189.207 227.975 190.326C233.49 189.705 240.653 195.807 240.371 202.938C240.237 206.347 239.107 209.53 236.612 212.019C235.425 213.217 234.004 214.158 232.438 214.785C230.872 215.412 229.195 215.71 227.509 215.662C224.124 215.552 220.722 214.466 218.225 211.677C215.937 209.118 214.9 206.148 214.709 201.534ZM227.635 195.215C224.184 194.913 219.932 197.741 219.725 203.047C219.644 205.186 220.935 206.69 222.121 208.286C223.51 210.156 225.697 210.719 227.592 210.765C228.579 210.791 229.559 210.608 230.47 210.227C231.38 209.847 232.2 209.279 232.875 208.56C234.445 206.87 235.487 204.964 235.447 202.793C235.382 199.054 232.063 194.901 227.635 195.215Z" fill="#0F0E10"/>
<path d="M268.428 202.833C268.428 199.402 268.408 195.97 268.436 192.54C268.45 190.758 268.798 190.382 270.49 190.36C273.426 190.321 276.368 190.242 279.299 190.373C283.775 190.568 287.504 194.387 287.295 198.519C287.159 201.207 285.559 203.181 283.496 204.639C282.516 205.332 282.378 205.562 282.98 206.608C284.203 208.733 285.193 210.991 286.262 213.204C286.831 214.384 286.479 215.101 285.259 215.233C284.658 215.298 284.04 215.207 283.437 215.255C282.307 215.348 281.644 214.991 281.134 213.851C280.092 211.519 278.817 209.288 277.615 207.027C276.899 205.681 275.502 205.106 274.215 205.659C273.483 205.973 273.305 206.619 273.32 207.404C273.361 209.623 273.309 211.845 273.345 214.064C273.359 214.988 272.966 215.232 272.082 215.268C268.626 215.409 268.433 215.268 268.429 211.919C268.425 208.89 268.425 205.861 268.428 202.833ZM273.334 197.933C273.334 198.642 273.305 199.35 273.341 200.058C273.413 201.466 273.726 201.782 275.157 201.84C276.17 201.88 277.219 202.01 278.19 201.804C279.324 201.568 280.587 201.228 281.422 200.506C282.025 199.985 282.316 198.735 282.22 197.865C282.063 196.44 280.636 195.274 279.387 195.231C277.869 195.179 276.346 195.2 274.825 195.223C273.375 195.243 273.373 195.262 273.335 196.723C273.326 197.125 273.335 197.53 273.334 197.933V197.933Z" fill="#0F0E10"/>
<path d="M256.832 171.535C256.832 167.993 256.81 164.459 256.84 160.922C256.856 159.175 257.212 158.822 258.955 158.797C261.591 158.762 264.241 158.626 266.864 158.829C270.245 159.09 273.102 160.155 274.639 163.735C275.767 166.364 274.892 171.635 271.615 173.014C270.043 173.675 270.097 173.933 270.906 175.362C271.931 177.157 272.948 178.957 273.93 180.775C274.214 181.287 274.416 181.84 274.529 182.414C274.678 183.24 274.375 183.664 273.394 183.712C270.055 183.863 269.94 183.83 268.435 180.838C267.641 179.252 266.863 177.659 266.033 176.092C265.714 175.49 265.385 174.656 264.853 174.453C263.99 174.12 262.955 174.151 262.005 174.211C261.875 174.218 261.741 175.274 261.73 175.849C261.697 177.769 261.747 179.69 261.709 181.611C261.675 183.325 261.319 183.636 259.545 183.685C259.038 183.699 258.527 183.653 258.024 183.695C257.091 183.774 256.802 183.348 256.811 182.457C256.85 178.82 256.832 175.175 256.832 171.535ZM261.738 166.931C261.738 170.292 261.738 170.292 264.997 170.288C265.602 170.288 266.213 170.337 266.813 170.28C268.502 170.12 270.087 168.807 270.237 167.494C270.504 165.207 269.249 163.761 266.894 163.662C266.289 163.637 265.682 163.662 265.076 163.662C261.738 163.654 261.738 163.654 261.738 166.926V166.931Z" fill="#0F0E10"/>
<path d="M248.938 199.395C248.938 201.618 248.909 203.841 248.946 206.063C248.991 208.794 250.481 210.444 253.304 210.697C254.209 210.777 255.326 210.587 256.048 210.09C256.975 209.453 257.884 208.715 258.173 207.323C258.375 206.364 258.645 205.428 258.645 204.436C258.645 200.497 258.654 196.557 258.645 192.617C258.645 191.796 258.543 190.75 259.481 190.582C260.6 190.38 261.813 190.55 262.955 190.736C263.221 190.78 263.546 191.543 263.546 191.976C263.586 196.926 263.871 201.901 263.47 206.819C263.151 210.72 260.349 214.792 255.431 215.281C250.144 215.806 248.013 214.372 245.145 211.111C244.697 210.601 244.267 209.965 244.125 209.321C243.805 207.886 243.521 206.411 243.492 204.946C243.409 200.806 243.445 196.663 243.472 192.521C243.484 190.75 243.84 190.42 245.546 190.351C245.951 190.335 246.357 190.337 246.762 190.351C248.533 190.408 248.905 190.724 248.933 192.427C248.965 194.748 248.936 197.072 248.938 199.395Z" fill="#0F0E10"/>
<path d="M231.883 167.868C231.883 169.887 231.883 171.905 231.883 173.924C231.883 178.042 229.903 180.98 226.452 183.072C225.454 183.677 224.31 183.477 223.304 183.78C222.298 184.084 221.482 184.58 220.563 183.753C217.954 184.044 216.348 182.436 214.626 180.837C212.65 179.004 211.911 176.697 211.83 174.215C211.684 169.778 211.769 165.333 211.8 160.893C211.811 159.172 212.206 158.836 213.935 158.787C216.405 158.716 216.665 158.969 216.695 161.492C216.695 161.896 216.695 162.299 216.695 162.703C216.695 165.833 216.779 168.96 216.659 172.088C216.603 173.533 217.062 174.815 217.43 176.126C218.02 178.208 219.727 178.976 221.693 179.201C223.21 179.375 225.771 177.691 226.242 176.116C226.631 174.818 227.069 173.519 227.018 172.08C226.9 168.45 226.978 164.814 226.981 161.18C226.981 160.388 226.771 159.307 227.707 159.091C228.815 158.837 230.044 158.929 231.182 159.112C231.489 159.161 231.839 160.074 231.855 160.601C231.923 163.022 231.883 165.445 231.883 167.868Z" fill="#0F0E10"/>
<path d="M279.377 171.349C279.377 167.911 279.359 164.473 279.386 161.037C279.4 159.104 279.704 158.809 281.691 158.794C285.445 158.769 289.2 158.794 292.954 158.777C293.787 158.777 294.837 158.7 295.005 159.603C295.211 160.714 295.052 161.935 294.812 163.058C294.749 163.35 293.807 163.61 293.263 163.622C290.627 163.68 287.988 163.662 285.353 163.64C284.619 163.634 284.217 163.834 284.268 164.655C284.357 166.049 284.397 167.446 284.457 168.841C285.749 168.915 287.04 169.012 288.334 169.057C289.347 169.093 290.364 169.07 291.378 169.063C293.713 169.048 293.412 169.051 293.422 171.277C293.432 173.535 293.54 173.38 291.254 173.372C289.935 173.366 288.616 173.372 287.297 173.372C284.276 173.372 284.276 173.372 284.277 176.382C284.278 179.393 284.277 179.382 287.312 179.383C289.437 179.383 291.574 179.377 293.705 179.383C294.102 179.383 294.815 179.374 294.847 179.501C295.06 180.345 295.146 181.224 295.233 182.099C295.318 182.939 294.791 183.414 294.082 183.646C293.716 183.764 293.278 183.677 292.872 183.677C289.118 183.677 285.364 183.696 281.61 183.67C279.689 183.657 279.403 183.353 279.388 181.352C279.36 178.022 279.377 174.688 279.377 171.349Z" fill="#0F0E10"/>
<path d="M329.298 171.629C329.298 168.192 329.284 164.755 329.298 161.318C329.31 159.053 329.523 158.811 331.629 158.795C335.382 158.768 339.136 158.795 342.889 158.78C343.722 158.78 344.681 158.703 344.959 159.617C345.3 160.738 345.509 162.012 344.759 163.05C344.484 163.431 343.726 163.615 343.181 163.627C340.545 163.685 337.907 163.667 335.272 163.644C334.526 163.644 334.143 163.863 334.195 164.671C334.285 166.063 334.332 167.456 334.397 168.849C335.69 168.922 336.981 169.015 338.275 169.062C339.186 169.097 340.105 169.016 341.013 169.086C341.781 169.145 343.079 169.167 343.196 169.518C343.492 170.414 343.406 171.516 343.196 172.469C343.035 173.186 342.284 173.408 341.48 173.39C339.355 173.341 337.22 173.382 335.089 173.373C334.464 173.373 334.185 173.639 334.203 174.267C334.251 175.875 334.279 177.483 334.314 179.091C335.802 179.188 337.287 179.327 338.774 179.373C340.295 179.422 341.819 179.344 343.338 179.396C344.786 179.444 345.156 179.919 345.168 181.509C345.18 183.099 344.796 183.649 343.386 183.663C339.025 183.706 334.661 183.663 330.299 183.688C329.456 183.688 329.297 183.227 329.298 182.543C329.302 178.907 329.302 175.269 329.298 171.629Z" fill="#0F0E10"/>
<path d="M205.511 190.358C208.099 189.799 210.233 191.246 212.358 192.493C214.042 193.482 214.029 194.456 212.664 195.856C211.261 197.295 211.261 197.295 209.214 196.04C204.984 193.443 198.944 195.686 197.891 200.484C197.337 203.004 197.552 205.712 199.319 207.896C200.539 209.403 202.006 210.505 204.182 210.411C206.291 210.318 208.396 210.549 210.076 208.824C210.629 208.256 211.375 208.446 211.95 209.032C212.304 209.393 212.686 209.73 213.023 210.106C213.849 211.027 213.894 211.593 213.099 212.432C211.551 214.067 209.733 215.235 207.381 215.246C206.071 215.252 204.838 215.558 203.436 215.354C196.631 214.363 193.668 210.632 192.42 205.632C191.566 202.22 192.31 198.714 194.512 195.699C197.206 192.003 200.68 189.932 205.511 190.358Z" fill="#0F0E10"/>
<path d="M242.698 158.789C245.106 158.586 247.936 158.823 250.479 160.517C252.377 161.781 253.46 163.511 253.831 165.754C254.39 169.138 252.848 171.556 250.305 173.496C249.45 174.149 248.512 174.695 247.308 174.615C245.998 174.529 244.677 174.589 243.36 174.605C241.685 174.627 241.669 174.636 241.654 176.185C241.637 178.203 241.624 180.223 241.662 182.24C241.68 183.179 241.552 183.757 240.363 183.705C237.665 183.587 236.638 184.382 236.713 180.324C236.831 173.969 236.733 167.61 236.749 161.251C236.749 159.087 237.028 158.832 239.136 158.791C240.149 158.772 241.162 158.789 242.698 158.789ZM241.65 166.74C241.65 166.941 241.65 167.144 241.65 167.346C241.742 170.888 241.003 170.209 244.727 170.298C245.132 170.307 245.554 170.36 245.942 170.28C247.47 169.966 248.817 168.608 248.92 167.339C249.08 165.355 247.584 163.741 245.507 163.658C241.652 163.499 241.652 163.499 241.65 166.74Z" fill="#0F0E10"/>
<path d="M201.033 158.765C203.158 158.304 205.01 159.612 206.936 160.625C207.846 161.105 208.026 162.1 207.526 163.002C206.418 165.019 205.785 165.23 203.735 164.236C203.112 163.935 202.537 163.517 201.893 163.279C200.713 162.843 199.569 162.884 198.47 163.633C197.468 164.316 197.154 165.291 197.804 166.252C198.724 167.611 199.955 168.623 201.553 169.067C203.629 169.642 205.246 170.846 206.83 172.271C210.202 175.305 209.371 181.4 204.462 183.25C202.887 183.84 201.157 184.437 199.107 183.847C197.219 183.305 195.252 183.204 193.644 181.887C192.791 181.19 192.562 179.787 193.219 178.802C194.007 177.615 194.728 177.406 195.985 177.917C197.431 178.508 198.667 179.607 200.419 179.452C201.551 179.352 202.762 179.249 203.151 178.153C203.556 177.015 203.397 175.716 202.126 174.966C200.855 174.216 199.624 173.369 198.276 172.8C195.496 171.626 193.384 170.008 192.65 166.854C192.08 164.401 193.146 161.279 195.35 159.99C197.406 158.793 197.563 158.757 201.033 158.765Z" fill="#0F0E10"/>
<path d="M297.109 190.349C299.338 190.349 301.567 190.312 303.795 190.362C305.135 190.391 305.528 190.834 305.596 192.187C305.626 192.79 305.747 193.457 305.542 193.985C305.353 194.469 304.834 194.893 304.362 195.171C304.058 195.349 303.568 195.189 303.166 195.219C301.985 195.304 300.805 195.406 299.624 195.502C299.586 196.601 299.518 197.7 299.515 198.799C299.504 203.639 299.494 208.489 299.515 213.335C299.526 215.481 299.441 215.235 297.473 215.243C297.17 215.243 296.865 215.255 296.562 215.243C295.055 215.173 294.622 214.791 294.613 213.257C294.584 208.311 294.602 203.364 294.602 198.418C294.602 197.71 294.581 197.001 294.608 196.299C294.635 195.596 294.443 195.162 293.604 195.203C292.594 195.253 291.577 195.245 290.566 195.209C288.887 195.151 288.559 194.776 288.525 193.006C288.519 192.704 288.503 192.4 288.525 192.099C288.624 190.82 289.048 190.386 290.413 190.361C292.652 190.319 294.887 190.349 297.109 190.349Z" fill="#0F0E10"/>
<path d="M286.068 231.171C285.723 225.868 290.728 221.705 295.503 221.894C298.1 221.995 300.284 222.891 302.127 224.781C303.97 226.672 304.88 229.139 304.811 231.461C304.736 234.019 303.718 236.641 301.48 238.488C299.728 239.97 297.499 240.769 295.204 240.738C290.539 240.738 285.624 236.71 286.068 231.171ZM295.053 238.284C299.115 238.666 302.501 235.068 302.572 231.426C302.643 227.784 299.266 224.408 295.408 224.234C291.638 224.064 288.272 227.625 288.074 231.368C287.977 233.195 289.036 235.101 290.63 236.515C291.975 237.708 293.353 238.503 295.053 238.284V238.284Z" fill="#0F0E10"/>
<path d="M210.57 231.504C210.858 234.237 209.802 236.382 207.923 238.226C206.121 239.997 203.949 240.679 201.46 240.757C198.886 240.839 196.766 239.675 194.995 238.152C192.887 236.337 192.362 233.805 192.15 230.939C191.803 226.231 197.372 221.599 201.629 221.848C204.28 222.003 206.422 223.001 208.24 224.768C210.124 226.61 210.935 228.905 210.57 231.504ZM201.433 238.297C205.475 238.596 208.775 235.072 208.7 231.686C208.606 227.399 205.998 224.422 201.56 224.296C199.331 224.232 197.864 225.259 196.299 226.624C194.691 228.026 194.327 229.874 194.227 231.651C194.031 235.132 197.655 238.293 201.433 238.297V238.297Z" fill="#0F0E10"/>
<path d="M308.004 231.045C308.004 228.623 308.027 226.205 307.992 223.78C307.981 222.954 308.122 222.448 309.122 222.467C311.55 222.512 313.991 222.357 316.41 222.523C318.899 222.693 320.504 224.286 320.827 226.9C321.087 229.007 320.639 230.775 318.807 232.202C317.36 233.331 317.529 233.47 318.525 235.138C319.282 236.402 319.942 237.735 320.598 239.047C320.965 239.779 320.71 240.087 319.865 240.159C318.849 240.245 318.171 239.923 317.724 238.938C317.033 237.418 316.138 235.987 315.492 234.452C315.162 233.662 314.756 233.463 313.958 233.436C310.45 233.318 310.451 233.29 310.45 236.882C310.45 237.59 310.402 238.298 310.461 239C310.545 239.99 310.019 240.156 309.182 240.173C308.249 240.193 307.975 239.806 307.989 238.918C308.031 236.291 308.004 233.668 308.004 231.045ZM310.365 227.867C310.474 229.048 310.161 230.674 310.81 231.284C311.46 231.893 313.08 231.527 314.274 231.583C314.476 231.598 314.679 231.598 314.881 231.583C316.77 231.397 318.252 230.094 318.369 228.535C318.524 226.466 317.627 225.082 315.674 224.492C315.209 224.351 314.687 224.374 314.191 224.364C310.463 224.25 310.463 224.252 310.364 227.867H310.365Z" fill="#0F0E10"/>
<path d="M345.767 239.672C345.524 239.79 345.125 240.145 344.779 240.104C344.3 240.03 343.868 239.777 343.569 239.396C343.132 238.755 342.871 237.992 342.547 237.271C342.114 236.31 341.529 235.768 340.317 235.855C338.502 235.988 336.65 236.053 334.85 235.837C333.391 235.662 332.898 236.441 332.422 237.46C332.174 237.994 332.015 238.572 331.735 239.087C331.548 239.428 331.272 239.841 330.944 239.953C330.494 240.102 330.007 240.086 329.567 239.91C329.363 239.816 329.239 239.154 329.35 238.847C329.776 237.654 330.295 236.486 330.811 235.332C332.552 231.39 334.293 227.448 336.073 223.526C336.273 223.087 336.725 222.762 337.049 222.374C337.351 222.012 337.639 221.902 337.993 222.318C338.253 222.628 338.642 222.869 338.8 223.218C341.138 228.394 343.455 233.578 345.753 238.773C345.836 238.939 345.767 239.17 345.767 239.672ZM337.621 234.019C338.432 234.019 339.243 234.019 340.053 234.019C340.672 234.019 341.06 233.756 340.761 233.112C339.817 231.063 338.837 229.035 337.865 226.999C337.755 226.763 337.621 226.546 337.498 226.319C337.38 226.585 337.262 226.852 337.144 227.117C336.579 228.364 336.02 229.614 335.447 230.857C333.984 234.026 333.98 234.025 337.621 234.019Z" fill="#0F0E10"/>
<path d="M256.832 231.059C256.753 226.597 259.155 224.006 263.148 222.441C266.621 221.084 269.494 222.228 272.231 224.229C272.476 224.407 272.688 225.095 272.573 225.215C272.179 225.63 271.688 225.942 271.144 226.122C270.864 226.205 270.429 225.886 270.104 225.683C266.423 223.395 263.336 223.816 260.597 226.994C258.791 229.089 258.851 233.385 260.51 235.582C262.838 238.664 267.357 239.314 270.037 237.006C270.322 236.76 270.766 236.441 271.053 236.51C271.586 236.637 272.162 236.935 272.502 237.343C272.648 237.519 272.378 238.307 272.079 238.542C269.799 240.333 267.111 241.332 264.315 240.639C260.476 239.688 256.431 236.58 256.83 231.667C256.847 231.464 256.832 231.261 256.832 231.059Z" fill="#0F0E10"/>
<path d="M240.373 240.996C239.885 240.388 239.437 239.996 239.202 239.504C238.232 237.472 237.313 235.419 236.404 233.358C235.029 230.227 233.674 227.086 232.34 223.936C232.176 223.549 231.997 222.928 232.182 222.685C232.545 222.213 233.973 222.455 234.288 222.967C234.535 223.394 234.751 223.837 234.934 224.294C236.374 227.613 237.804 230.936 239.248 234.253C239.408 234.617 239.606 234.963 239.838 235.286C239.987 235.493 240.226 235.777 240.419 235.771C240.611 235.765 240.873 235.481 240.977 235.26C242.01 233.039 243.017 230.808 244.031 228.579C244.802 226.887 245.677 225.231 246.299 223.485C246.674 222.435 247.327 222.447 248.142 222.5C248.772 222.541 249.086 222.867 248.821 223.47C248.162 224.995 247.448 226.497 246.771 228.015C245.019 231.946 243.29 235.886 241.511 239.804C241.328 240.209 240.865 240.495 240.373 240.996Z" fill="#0F0E10"/>
<path d="M220.202 222.511C221.821 222.511 223.441 222.493 225.061 222.532C225.29 222.532 225.651 222.783 225.7 222.982C225.761 223.206 225.617 223.64 225.429 223.742C224.936 224.014 224.375 224.302 223.832 224.322C221.91 224.389 219.983 224.385 218.06 224.333C217.091 224.307 216.538 224.458 216.632 225.631C216.767 227.324 216.75 229.029 216.793 230.729C218.485 230.815 220.176 230.905 221.87 230.985C222.275 231.004 222.681 231 223.084 230.991C223.698 230.975 223.993 231.254 224.004 231.874C224.013 232.455 223.843 232.844 223.178 232.844C221.963 232.844 220.748 232.851 219.532 232.854C218.925 232.854 218.316 232.882 217.711 232.847C216.95 232.803 216.626 233.09 216.648 233.881C216.687 235.495 216.617 237.111 216.675 238.721C216.711 239.7 216.51 240.225 215.359 240.175C214.415 240.135 214.178 239.748 214.189 238.887C214.215 233.842 214.235 228.796 214.176 223.751C214.162 222.57 214.71 222.438 215.649 222.465C217.168 222.507 218.687 222.476 220.206 222.476L220.202 222.511Z" fill="#0F0E10"/>
<path d="M278.769 232.138C278.769 229.924 278.734 227.709 278.787 225.495C278.809 224.542 278.41 224.292 277.538 224.335C276.53 224.39 275.52 224.372 274.515 224.279C274.278 224.256 273.953 223.749 273.941 223.453C273.929 223.157 274.213 222.8 274.444 222.536C274.537 222.428 274.829 222.48 275.034 222.48C278.368 222.48 281.7 222.48 285.033 222.474C285.758 222.474 286.168 222.702 286.107 223.516C286.059 224.16 285.713 224.368 285.13 224.342C285.03 224.342 284.928 224.342 284.828 224.342L281.522 224.451C281.424 225.623 281.253 226.793 281.241 227.965C281.203 231.588 281.215 235.211 281.241 238.834C281.241 239.639 281.13 240.181 280.123 240.162C278.962 240.141 278.795 240.059 278.78 238.774C278.751 236.567 278.769 234.352 278.769 232.138Z" fill="#0F0E10"/>
<path d="M326.906 231.305C326.906 233.725 326.906 236.147 326.906 238.57C326.906 239.37 327.069 240.222 325.768 240.169C324.615 240.123 324.459 240.07 324.454 238.744C324.437 233.8 324.437 228.856 324.454 223.911C324.454 222.57 324.785 222.343 326.049 222.48C326.676 222.547 326.91 222.834 326.908 223.434C326.899 226.057 326.905 228.68 326.906 231.305Z" fill="#0F0E10"/>
<path d="M251.338 231.337C251.338 228.725 251.353 226.112 251.328 223.5C251.32 222.709 251.669 222.437 252.417 222.481C253.075 222.516 253.243 222.885 253.243 223.459C253.243 228.684 253.231 233.909 253.251 239.135C253.251 239.931 252.911 240.188 252.164 240.149C251.504 240.115 251.338 239.749 251.338 239.176C251.343 236.564 251.343 233.951 251.338 231.337Z" fill="#0F0E10"/>
<path d="M116.778 166.67C116.981 167.282 117.184 167.895 117.388 168.508C117.071 168.296 116.758 168.079 116.437 167.874C116.214 167.731 115.981 167.606 115.753 167.474C115.698 167.852 115.458 168.377 115.621 168.578C116.169 169.253 116.838 169.464 117.372 168.489C118.434 169.359 117.99 170.24 117.499 171.229C116.734 172.771 116.857 172.889 118.601 172.729C119.564 172.641 120.462 172.417 121.025 171.525C121.642 171.34 122.535 171.997 122.855 170.921H125.3C125.403 171.737 126.051 171.454 126.523 171.525C126.934 172.272 127.35 173.017 127.753 173.768C127.871 173.985 127.975 174.211 128.085 174.433C128.169 174.162 128.321 173.892 128.321 173.618C128.361 172.379 128.006 171.451 126.502 171.543C126.418 170.706 125.767 170.987 125.287 170.933C124.445 170.139 123.686 170.139 122.86 170.933C122.249 171.126 121.341 170.438 121.035 171.542C120.249 171.268 118.862 172.143 118.705 171.005C118.524 169.697 119.912 169.803 120.905 169.656C122.159 169.468 123.259 168.348 124.664 169.052C126.804 168.115 127.629 170.397 129.188 170.887C129.512 172.269 130.679 173.497 129.955 175.082C129.87 175.268 129.955 175.53 129.955 175.757C130.145 175.717 130.378 175.731 130.519 175.625C130.922 175.32 131.252 174.916 131.676 174.647C132.306 174.255 132.991 173.953 133.653 173.612C133.217 172.954 132.863 172.22 132.329 171.653C130.813 170.043 129.674 168.21 128.715 166.233C128.501 165.793 128.479 165.606 128.823 165.271C129.235 164.865 129.479 165.055 129.759 165.389C130.856 166.688 132.12 167.868 133.013 169.285C134.056 170.938 135.6 171.972 136.976 173.238C137.782 173.979 138 173.71 138.332 172.936C138.37 172.846 139.041 172.864 139.078 172.955C139.569 174.335 140.141 173.917 141.001 173.222C142.03 172.396 142.064 172.522 142.981 173.93C143.264 174.365 143.798 174.791 144.293 174.91C146.219 175.375 147.562 176.556 148.641 178.119C149.447 179.289 149.304 180.079 149.798 182.94C150.193 185.239 149.393 186.836 148.203 188.515C148.02 188.773 148.076 189.202 148.022 189.551C148.376 189.504 148.73 189.462 149.085 189.41C149.57 189.338 150.296 189.431 150.501 189.152C151.546 187.701 152.508 189.593 153.487 189.159C153.508 189.15 153.755 189.459 153.723 189.536C152.816 191.461 153.667 193.523 153.236 195.479C153.201 195.575 153.141 195.66 153.063 195.726C152.502 196.304 152.876 196.696 153.201 197.269C154.5 199.562 155.951 201.846 154.639 204.699C154.369 205.289 154.294 206.275 154.615 206.76C155.647 208.321 154.741 209.635 154.238 210.925C153.27 213.411 150.416 214.196 148.092 212.769C147.87 212.632 147.636 212.515 147.408 212.389C147.349 212.675 147.29 212.96 147.233 213.247C146.973 214.752 147.706 215.676 148.936 216.45C150.786 217.618 150.825 217.69 150.234 219.898C149.567 222.385 149.069 224.864 148.975 227.454C148.936 228.552 148.171 229.625 147.735 230.71C146.289 230.622 146.262 232.411 145.146 232.68C144.38 232.864 143.551 232.881 142.758 232.839C141.892 232.795 141.294 233.092 140.594 233.622C137.3 236.117 133.617 237.669 129.404 237.71C127.68 237.727 125.94 237.578 124.234 237.756C122.756 237.912 121.469 237.361 120.17 236.978C118.274 236.42 117.275 235.009 117.346 232.932C117.373 232.15 117.212 231.361 117.138 230.57C117.02 231.384 116.882 232.195 116.798 233.012C116.746 233.512 116.786 234.021 116.777 234.528C116.729 236.889 116.541 237.062 114.151 237.079C111.353 237.096 111.343 237.087 111.273 234.172C111.26 233.667 111.266 233.161 111.242 232.656C111.216 232.562 111.156 232.48 111.074 232.426C110.939 232.482 110.818 232.567 110.719 232.674C110.669 232.737 110.697 232.87 110.706 232.97C110.968 235.595 109.457 236.81 107.147 237.285C105.227 237.682 103.251 238.363 101.355 238.201C95.913 237.737 90.5758 236.721 86.4345 232.653C85.6317 231.865 85.8643 232.896 85.5927 233.09C85.3649 233.253 84.8207 233.272 84.62 233.107C84.3189 232.861 84.2717 231.487 83.9116 233.079C83.8668 233.272 83.9341 233.488 83.8975 233.684C83.8444 233.968 83.7428 234.243 83.6614 234.522C83.4208 234.375 83.1915 234.211 82.9755 234.031C82.5835 233.655 82.2919 233.048 81.8351 232.888C79.3784 232.026 78.4575 230.013 77.8023 227.783C77.6914 227.409 77.9393 226.81 77.7315 226.603C76.1472 225.01 77.0917 223.486 77.9676 222.163C78.9935 220.617 79.0537 219.003 78.9982 217.295C78.9687 216.386 78.9841 215.475 78.9923 214.566C79.0006 213.739 78.8991 213.068 77.826 213.683C76.1874 214.627 75.1379 213.417 74.1923 212.512C73.1841 211.546 72.3164 210.151 73.1416 208.776C74.1439 207.102 73.9786 205.353 74.1946 203.59C74.4012 201.903 74.4036 200.083 75.7388 198.672C76.329 198.045 76.2854 197.274 76.054 196.327C75.7281 194.989 75.9359 193.514 75.9725 192.1C75.9808 191.758 76.1767 191.42 76.2854 191.08C78.0019 191.922 76.6773 189.001 78.238 189.496C78.4398 189.56 78.8117 189.296 79.1989 189.582C79.9073 190.1 80.697 190.493 81.4526 190.94C81.3688 191.319 81.2035 191.701 81.2165 192.078C81.2602 193.31 81.5612 194.567 81.4006 195.767C81.2365 196.994 80.4444 198.139 80.285 199.365C79.971 201.796 79.2332 203.934 77.4033 205.669C76.695 206.34 75.9702 207.16 75.6797 208.05C75.3586 209.037 75.4224 210.197 75.5723 211.245C75.5995 211.441 76.8308 211.584 77.4871 211.526C77.8413 211.495 78.1955 211.022 78.4599 210.684C79.2037 209.756 79.9167 208.804 80.6215 207.851C82.2317 205.662 83.3084 203.295 83.293 200.499C83.293 199.436 83.3332 198.391 83.6602 197.285C83.927 196.383 83.031 195.144 82.6697 194.047C82.6095 193.863 82.7299 193.575 82.6284 193.457C82.0181 192.72 82.4301 191.505 81.4361 190.962C80.9638 188.928 80.2779 186.926 80.808 184.776C80.919 184.324 80.8989 183.678 80.6486 183.328C79.7396 182.053 80.2166 181.414 81.475 180.874C82.0924 180.61 81.9024 180.144 81.4667 179.733C80.7324 179.04 79.9604 178.365 79.3418 177.578C77.9121 175.774 78.4599 174.155 80.6852 173.322C81.3274 173.086 81.9944 172.864 82.5658 172.503C83.1644 172.124 83.3202 171.889 82.4289 171.371C81.7335 170.966 81.7513 169.789 82.4655 168.995C83.1797 168.2 84.0545 168.312 84.5279 169.283C84.7697 169.813 84.9691 170.361 85.1241 170.922C85.3248 171.586 85.7072 171.66 86.2231 171.299C86.4687 171.127 86.6375 170.839 86.8925 170.688C89.2229 169.302 91.388 170.309 91.7776 172.984C91.8779 173.677 91.7847 174.4 91.8047 175.1C91.8425 176.373 91.852 176.375 93.1033 176.005C93.2899 175.949 93.4575 175.802 93.6428 175.783C94.2992 175.717 94.932 175.811 94.8352 176.671C94.6723 178.114 95.2401 179.156 96.3416 180.052C96.7858 180.436 97.1107 180.94 97.2777 181.504C97.6921 182.92 98.1619 184.276 99.0946 185.455C99.3885 185.846 99.5852 186.302 99.6683 186.784C99.9906 188.575 99.967 188.555 101.185 188.517C101.768 188.496 102.079 188.332 102.146 187.676C102.214 187.019 102.804 186.18 102.563 185.78C102.1 185.007 102.203 184.547 102.672 183.921C102.778 183.777 102.624 183.331 102.469 183.12C100.946 181.001 100.816 178.366 99.8112 176.045C98.8514 173.823 100.064 170.829 102.142 169.434C102.51 169.186 105.49 168.783 106.011 168.919C107.046 169.188 108.08 169.461 109.114 169.738C110.71 170.17 110.83 170.101 111.415 168.761C111.729 168.042 112.137 167.363 112.502 166.667L113.111 166.059L113.566 165.836L113.33 165.616L113.128 166.074L112.517 166.681C111.627 165.301 111.627 163.742 112.517 162.417L113.129 163.023C113.198 163.171 113.268 163.317 113.339 163.465L113.555 163.249L113.113 163.039L112.504 162.431C112.324 160.66 113.685 161.198 114.489 161.25C115.344 161.311 116.874 160.424 116.78 162.424L116.173 163.033L115.725 163.232L115.935 163.463L116.158 163.019L116.77 162.412C117.203 163.038 117.435 163.782 117.435 164.543C117.435 165.305 117.203 166.049 116.77 166.675L116.152 166.079C116.078 165.929 116.005 165.778 115.931 165.628L115.712 165.858L116.168 166.062L116.778 166.67ZM124.085 236.467L124.298 236.921L124.543 236.701L124.071 236.483L123.843 236.004L123.613 236.257L124.085 236.467ZM105.815 217.062L105.343 217.275L105.571 217.511L105.794 217.039L106.251 216.824L106.021 216.603L105.815 217.062ZM100.32 199.458L99.7096 198.852C99.1973 198.275 98.6857 197.698 98.1749 197.122L97.2895 199.457L96.8433 199.671L97.057 199.901L97.2789 199.447C98.0061 198.894 98.8301 198.723 99.725 198.839L100.335 199.447L100.553 199.919L100.782 199.672L100.32 199.458ZM128.35 217.062H127.729C128.172 215.763 126.288 215.923 126.352 214.866C126.206 215.006 125.938 215.143 125.933 215.287C125.9 216.496 126.508 217.102 127.737 217.058C127.802 217.211 127.866 217.364 127.929 217.517L128.334 217.056L128.943 216.448C130.309 215.419 130.312 215.246 128.937 214.669C128.765 214.597 128.542 214.644 128.347 214.636L127.721 214.025L127.497 213.561L127.269 213.787L127.734 214.012L128.338 214.625C128.543 215.236 128.749 215.845 128.955 216.454L128.35 217.062ZM113.109 178.222C112.906 178.019 112.702 177.816 112.498 177.614C112.505 177.513 112.522 177.414 112.55 177.317C112.836 176.647 114.018 176.456 113.582 175.399C112.838 175.92 112.234 175.155 111.532 175.179C110.326 175.222 109.119 175.192 107.911 175.179C106.296 175.161 104.828 175.582 103.509 176.532C103.197 176.747 102.84 176.886 102.466 176.941C102.185 176.985 101.876 176.844 101.58 176.785C101.743 177.13 101.835 177.541 102.084 177.805C102.458 178.2 102.942 178.492 103.382 178.827C103.189 178.986 102.949 179.113 102.819 179.311C102.755 179.408 102.894 179.637 102.937 179.806C103.071 179.662 103.249 179.538 103.323 179.369C103.398 179.2 103.354 179 103.362 178.813C103.773 179.196 104.196 179.566 104.586 179.968C104.713 180.099 104.755 180.31 104.836 180.485C104.969 180.274 105.062 179.926 105.244 179.871C106.416 179.509 107.015 178.976 106.493 177.608C106.347 177.221 106.847 176.516 107.186 176.061C107.311 175.895 108.057 175.897 108.156 176.053C109.028 177.421 109.847 178.805 111.196 179.804C111.378 179.938 111.212 180.542 111.207 180.928C110.895 180.847 110.584 180.699 110.274 180.706C110.026 180.712 109.636 180.857 109.577 181.03C109.509 181.232 109.664 181.621 109.848 181.769C110.14 182.014 110.529 182.152 110.892 182.299C111.468 182.535 111.854 182.39 111.864 181.709C111.88 180.808 111.844 179.908 111.885 179.009C111.908 178.478 111.593 177.752 112.514 177.603L113.124 178.21L113.344 178.661L113.563 178.431L113.109 178.222ZM130.177 217.668L129.723 217.857L130.177 218.261C130.031 218.508 129.941 218.81 129.731 218.993C128.028 220.528 126.307 222.022 124.6 223.552C124.441 223.695 124.412 223.983 124.324 224.204C124.6 224.18 124.907 224.225 125.15 224.119C125.69 223.883 126.18 223.529 126.72 223.301C126.956 223.203 127.351 223.183 127.503 223.311C127.655 223.44 127.697 223.866 127.603 224.081C127.288 224.789 126.895 225.472 126.526 226.163L126.069 226.384L126.305 226.601L126.506 226.149C127.84 226.226 128.377 225.263 128.947 224.317C129.891 222.754 131.245 221.631 132.856 220.8C133.374 220.532 133.945 220.359 134.446 220.061C135.171 219.629 135.825 218.231 135.598 217.582C135.262 216.615 134.418 217.168 133.794 217.066C133.405 217.001 132.995 217.058 132.594 217.06C132.862 215.986 133.774 216.672 134.327 216.411C134.603 216.28 134.996 215.746 134.955 215.692C134.258 214.802 134.316 213.43 133.147 212.853C132.713 213.575 132.297 214.31 131.836 215.014C131.413 215.66 130.564 216.077 130.773 217.047L130.177 217.668ZM116.169 178.218L115.714 178.439L115.95 178.66C116.018 178.507 116.084 178.354 116.151 178.202L116.761 177.595C116.973 177.868 117.333 178.124 117.366 178.421C117.453 179.204 117.329 180.01 117.432 180.789C117.481 181.165 117.786 181.728 118.089 181.808C119.009 182.055 119.324 181.502 119.205 180.642L119.662 180.431L119.426 180.194C119.353 180.344 119.278 180.493 119.205 180.643L118.198 181.095C118.128 180.717 117.938 180.309 118.023 179.968C118.108 179.627 118.409 179.163 118.716 179.063C120.173 178.591 120.133 177.085 120.865 176.12C121.251 175.609 120.904 175.205 120.253 175.194C119.651 175.182 119.037 175.128 118.448 175.215C117.788 175.313 117.15 175.551 116.502 175.727C116.384 174.968 116.266 174.209 116.147 173.45C116.148 173.353 116.136 173.256 116.114 173.161C116.062 173.075 115.998 172.998 115.924 172.931C115.806 173.033 115.582 173.136 115.582 173.24C115.582 174.803 115.08 176.512 116.778 177.615L116.169 178.218ZM126.519 218.263L126.282 217.823L126.069 218.04L126.516 218.27C126.556 218.469 126.556 218.675 126.516 218.874L126.059 219.098L126.281 219.313L126.517 218.872L126.962 218.666C126.813 218.533 126.665 218.399 126.519 218.263V218.263ZM102.145 172.131L102.754 171.525C102.944 171.517 103.156 171.56 103.317 171.49C103.479 171.421 103.61 171.233 103.753 171.097C103.582 171.048 103.348 170.904 103.254 170.967C103.053 171.101 102.927 171.343 102.77 171.54L102.162 172.148L101.696 172.36L101.922 172.602L102.145 172.131ZM99.725 194.605L99.2705 194.824L99.4995 195.06L99.712 194.588L100.321 193.98C100.583 194.325 100.799 194.722 101.117 195.005C101.46 195.311 101.898 195.51 102.297 195.755C102.451 195.341 102.714 194.929 102.737 194.512C102.798 193.331 102.761 192.136 102.763 190.947C104.274 191.163 105.46 190.841 105.807 189.125L106.416 188.518C107.446 188.458 107.97 188.965 108.335 189.917C108.499 190.345 109.475 190.926 109.569 190.844C110.307 190.209 109.258 190.116 109.106 189.707C108.875 189.089 108.54 188.511 108.248 187.916H110.083C110.083 188.299 110.057 188.684 110.089 189.064C110.103 189.234 110.231 189.394 110.306 189.558C110.424 189.372 110.689 189.141 110.645 189.007C110.52 188.626 110.273 188.285 110.074 187.927C109.421 187.09 108.937 187.089 108.252 187.927C107.632 188.095 106.748 187.477 106.43 188.538L105.821 189.146C104.392 189.065 103.804 190.381 102.774 190.966C101.654 191.732 100.436 192.42 100.341 194.002L99.725 194.605ZM122.245 212.813C122.174 212.658 122.102 212.505 122.03 212.351L121.803 212.587L122.259 212.799C122.46 213.004 122.659 213.209 122.86 213.414L122.957 214.902C123.39 214.639 123.964 214.471 124.228 214.09C124.842 213.208 125.399 212.292 125.313 211.092C125.216 209.682 125.219 208.267 125.32 206.858C125.399 205.735 124.937 205.401 123.924 205.549C123.632 205.59 123.345 205.656 123.056 205.712C123.174 205.938 123.25 206.215 123.427 206.382C124.069 206.992 124.798 208.021 124.268 208.527C123.121 209.623 123.732 210.499 124.259 211.343C124.636 211.95 124.437 212.214 124.046 212.538C123.656 212.861 123.258 213.122 122.866 213.411L122.245 212.813ZM103.378 221.294L103.981 221.91C104.66 223.389 105.988 223.936 107.434 224.341C107.74 224.426 107.98 224.742 108.251 224.952C107.772 225.009 107.145 224.77 107.031 225.558H103.366L103.164 225.109L102.93 225.334L103.382 225.551C103.995 226.16 104.615 226.762 105.216 227.383C105.357 227.528 105.434 227.737 105.54 227.915C105.238 228.048 104.902 228.34 104.642 228.284C103.697 228.076 102.687 227.378 101.888 227.584C101.214 227.758 100.772 227.289 100.353 227.455C99.2752 227.886 100.943 228.451 100.361 229.003C100.113 229.239 99.928 229.54 99.7144 229.811C99.6412 229.659 99.568 229.506 99.496 229.352C99.4216 229.432 99.3472 229.513 99.2717 229.588L99.7273 229.795C99.4039 230.31 99.3921 231.283 98.3107 230.608C97.9199 230.364 97.3025 230.481 96.9094 230.239C94.5648 228.791 92.2356 227.317 89.9442 225.788C89.0871 225.216 88.5016 224.42 88.7247 223.248C88.7944 222.893 88.6303 222.485 88.5724 222.101C88.1368 222.269 87.6091 222.33 87.2821 222.619C85.66 224.051 85.6529 225.061 87.2148 226.732C87.9042 227.472 88.537 228.378 89.3976 228.826C94.4043 231.432 99.4948 233.75 105.421 232.263C106.173 232.076 106.429 231.865 106.425 231.136C106.412 229.254 106.247 227.349 107.015 225.546C107.494 225.492 108.134 225.754 108.232 224.938L109.931 224.681C109.539 224.445 109.167 224.152 108.75 223.966C107.166 223.258 105.563 222.594 103.975 221.911L103.359 221.311L102.748 220.705L102.142 220.097L101.534 219.49L100.923 218.882C100.769 218.635 100.659 218.34 100.451 218.149C97.0558 215.001 96.4372 210.671 95.475 206.502C95.2779 205.648 95.3157 204.74 95.2448 203.858C94.0855 204.321 94.0253 205.496 93.5696 206.415C93.4811 206.594 93.2296 206.741 93.2308 206.902C93.2367 207.655 93.0065 208.706 93.4067 209.102C94.4432 210.131 94.2178 211.295 94.2485 212.464C94.2803 213.669 93.8553 215.15 94.4137 215.995C94.9096 216.745 96.508 216.723 97.567 217.168C98.2835 217.469 98.8892 218.025 99.5821 218.399C99.9965 218.622 100.482 218.715 100.936 218.871L101.544 219.479L102.152 220.086L102.764 220.692L103.378 221.294ZM99.1087 213.41L98.6613 213.605C98.8124 213.739 98.9631 213.874 99.1135 214.01C98.9883 215.221 99.928 215.724 100.68 216.353C100.844 215.798 100.947 215.218 101.184 214.7C101.624 213.729 100.806 213.941 100.594 214.188C99.9328 214.972 99.5939 213.97 99.0957 214.026C99.0957 213.821 99.0957 213.617 99.0957 213.411L99.5491 213.199L99.313 212.963L99.1087 213.41ZM139.908 220.078C140.103 219.916 140.344 219.785 140.474 219.582C140.536 219.484 140.39 219.253 140.339 219.081C140.205 219.229 140.023 219.358 139.95 219.53C139.876 219.702 139.926 219.902 139.921 220.091L139.449 220.299L139.685 220.535L139.908 220.078ZM106.412 195.806L107.633 195.812C108.005 196.14 108.397 196.445 108.807 196.723C108.845 196.748 109.18 196.301 109.377 196.073C108.898 195.984 108.418 195.892 107.939 195.808C107.838 195.799 107.737 195.799 107.636 195.808C107.149 194.997 106.927 194.997 106.421 195.808L105.949 196.018L106.192 196.254C106.264 196.11 106.338 195.958 106.412 195.806ZM104.596 218.882L103.52 219.077C103.655 219.289 103.757 219.549 103.935 219.702C104.39 220.097 104.415 220.067 104.577 218.863L105.022 218.64L104.786 218.43C104.729 218.583 104.663 218.733 104.596 218.882ZM135.656 232.233C135.272 232.24 134.887 232.226 134.506 232.262C134.333 232.279 134.17 232.397 134.002 232.469C134.191 232.587 134.427 232.854 134.559 232.809C134.944 232.679 135.286 232.426 135.645 232.218C136.03 232.218 136.419 232.234 136.801 232.2C136.972 232.184 137.134 232.064 137.3 231.992C137.115 231.874 136.882 231.605 136.753 231.648C136.365 231.78 136.02 232.03 135.656 232.233ZM102.16 212.797C102.232 213.152 102.245 213.531 102.408 213.834C102.466 213.943 102.881 213.86 103.138 213.865C103.104 213.718 103.12 213.51 103.028 213.435C102.745 213.211 102.45 213.003 102.145 212.812C102.061 212.442 101.979 212.073 101.895 211.703C101.575 212.04 101.275 212.395 100.995 212.766C100.934 212.854 101.101 213.102 101.164 213.276L102.16 212.797ZM107.033 170.918C107.197 171.11 107.331 171.349 107.537 171.475C107.638 171.536 107.867 171.392 108.038 171.343C107.888 171.211 107.759 171.033 107.584 170.961C107.409 170.889 107.207 170.939 107.017 170.934C106.468 169.77 105.566 170.488 104.794 170.528C104.78 170.528 104.772 170.646 104.76 170.703C105.42 170.775 106.079 170.849 106.739 170.918C106.836 170.924 106.935 170.924 107.033 170.918V170.918ZM107.636 200.057C107.705 200.225 107.729 200.452 107.855 200.548C108.16 200.784 108.351 201.48 108.918 200.89C109.05 200.755 109.163 200.602 109.286 200.457C108.924 200.324 108.567 200.169 108.198 200.065C108.021 200.016 107.819 200.065 107.628 200.065C107.336 199.096 106.801 199.45 106.329 199.868C106.165 200.011 106.131 200.301 106.037 200.525C106.391 200.444 106.746 200.376 107.1 200.28C107.283 200.218 107.462 200.143 107.636 200.057V200.057ZM130.791 209.16C131.465 209.987 131.971 209.987 132.605 209.16C132.803 208.878 133.161 208.601 133.17 208.314C133.224 206.307 133.226 204.3 133.203 202.286C133.184 200.679 133.158 200.677 131.531 200.669C129.406 200.658 129.518 200.593 129.574 202.603C129.595 203.406 129.574 204.211 129.591 205.014C129.621 206.6 129.626 206.722 131.153 206.705C132.388 206.69 132.784 207.132 132.636 208.269C132.612 208.57 132.607 208.872 132.618 209.173H130.772C130.761 208.982 130.825 208.728 130.726 208.612C130.508 208.378 130.25 208.183 129.966 208.036C129.926 208.013 129.612 208.336 129.629 208.374C129.782 208.656 129.982 208.911 130.22 209.127C130.339 209.219 130.593 209.151 130.791 209.16ZM91.7917 231.628L91.5745 231.175L91.3384 231.398L91.8106 231.612C92.0196 232.05 92.2203 232.492 92.4446 232.923C92.5353 233.063 92.6406 233.192 92.7586 233.309C92.8424 233.135 92.9652 232.968 93.0006 232.785C93.186 231.799 92.6429 231.549 91.7917 231.628ZM121.637 233.447C121.471 233.257 121.332 233.02 121.127 232.897C121.024 232.836 120.796 232.981 120.626 233.033C120.776 233.162 120.91 233.335 121.084 233.405C121.259 233.475 121.459 233.429 121.65 233.434C121.655 233.534 121.677 233.632 121.714 233.725C122.117 234.382 122.567 234.787 123.289 234.058C123.455 233.887 123.732 233.822 123.959 233.712C123.487 233.624 123.015 233.519 122.542 233.457C122.241 233.435 121.939 233.432 121.637 233.447V233.447ZM137.473 222.51C137.763 222.51 138.071 222.577 138.339 222.501C138.663 222.4 138.965 222.24 139.232 222.029C139.29 221.986 139.17 221.548 139.114 221.544C138.78 221.525 138.371 221.47 138.123 221.631C137.835 221.819 137.688 222.222 137.48 222.525L136.872 223.134C136.474 223.537 135.986 223.889 135.709 224.361C135.53 224.665 135.631 225.151 135.652 225.553C135.77 227.922 132.617 227.693 132.294 229.751C132.254 230.011 131.676 230.374 131.349 230.369C130.072 230.345 128.771 230.757 127.516 230.014C126.583 229.458 126.423 229.306 127.28 228.75C130.015 226.986 131.615 224.175 133.801 221.91L134.246 221.69L134.018 221.481C133.951 221.629 133.884 221.778 133.818 221.925C133.362 222.074 132.798 222.101 132.472 222.398C131.422 223.329 130.428 224.32 129.492 225.367C128.07 226.97 126.55 228.318 124.214 228.2C123.978 228.188 123.75 228.216 123.518 228.227C123.593 227.956 123.629 227.665 123.754 227.415C124.108 226.671 125.659 226.902 125.304 225.556L125.757 225.343L125.521 225.107C125.448 225.256 125.375 225.404 125.3 225.553H121.641C121.476 225.36 121.342 225.119 121.136 224.99C121.035 224.927 120.804 225.071 120.632 225.121C120.779 225.259 120.904 225.446 121.077 225.521C121.251 225.597 121.453 225.545 121.644 225.55C122.192 226.956 122.304 228.41 122.276 229.911C122.233 232.124 122.598 232.479 124.883 232.799C125.281 232.855 125.691 232.809 126.096 232.822C130.79 232.963 135.013 231.348 138.938 229.044C140.327 228.228 141.263 226.63 142.361 225.354C142.567 225.118 142.752 224.623 142.642 224.394C142.346 223.784 141.955 223.171 141.449 222.741C141.279 222.596 140.602 222.924 140.254 223.172C140.155 223.242 140.442 223.786 140.481 224.116C140.63 225.386 140.107 226.07 138.94 226.18C137.697 226.298 137.051 225.841 136.861 224.625C136.784 224.134 136.854 223.619 136.861 223.117L137.473 222.51ZM123.472 182.454C123.833 182.648 124.18 182.888 124.566 183.009C124.702 183.051 124.931 182.8 125.117 182.683C124.95 182.616 124.787 182.506 124.614 182.491C124.233 182.455 123.847 182.468 123.463 182.462C123.463 182.079 123.551 181.658 123.421 181.323C123.319 181.061 122.941 180.904 122.688 180.701C122.552 180.918 122.333 181.122 122.297 181.357C122.129 182.289 122.662 182.533 123.472 182.454ZM99.1005 196.426L98.8774 195.953C98.8018 196.036 98.7274 196.119 98.6519 196.2L99.1158 196.41C99.588 196.813 100.028 197.283 100.563 197.579C100.745 197.679 101.172 197.343 101.488 197.201C101.276 196.949 101.1 196.527 100.848 196.476C100.286 196.361 99.6848 196.43 99.1005 196.426ZM103.993 216.454C103.245 217.008 102.392 217.11 101.493 217.074C101.362 217.074 101.224 217.265 101.09 217.368C101.214 217.522 101.31 217.713 101.466 217.823C102.779 218.749 103.258 218.482 103.978 216.441C104.177 216.278 104.419 216.144 104.553 215.94C104.617 215.844 104.471 215.612 104.42 215.442C104.285 215.588 104.104 215.715 104.029 215.888C103.955 216.062 103.993 216.263 103.993 216.454ZM125.912 190.341L126.124 190.8L126.367 190.575L125.895 190.354C125.297 189.056 124.124 188.701 122.852 188.533C120.088 186.325 116.809 186.751 113.616 186.762C113.458 186.762 113.232 186.934 113.152 187.086C112.452 188.436 113.477 190.264 114.981 190.321C116.186 190.366 117.394 190.339 118.602 190.345L118.814 190.794L119.05 190.576L118.578 190.361C119.245 188.845 119.243 188.863 120.931 189.063C121.175 189.092 121.442 188.816 121.715 188.74C122.087 188.638 122.475 188.592 122.856 188.521C122.67 188.845 122.367 189.158 122.336 189.497C122.312 189.751 122.639 190.035 122.808 190.307C123.863 189.196 124.88 190.519 125.912 190.341ZM104.583 206.132L104.366 205.685L104.138 205.921L104.589 206.125C103.611 208.958 103.664 211.698 105.297 214.298C105.683 214.915 106.207 215.371 107.03 215.228C108.62 217.27 111.135 217.736 113.28 218.822C113.708 219.039 114.296 218.865 114.298 218.142C114.298 214.215 114.315 210.289 114.276 206.362C114.276 206.093 113.882 205.6 113.661 205.595C111.238 205.536 108.813 205.548 106.388 205.562C106.226 205.562 106.066 205.74 105.904 205.836C106.074 205.925 106.272 206.124 106.412 206.09C108.028 205.688 109.487 207.29 111.286 206.225C112.36 205.589 113.704 206.903 113.719 208.279C113.745 210.696 113.734 213.113 113.749 215.529C113.749 216.119 113.505 216.567 112.889 216.428C112.125 216.255 111.129 217.062 110.606 215.672C110.109 214.346 109.113 216.546 108.389 215.583C108.335 215.503 108.297 215.414 108.277 215.319C107.94 214.02 107.423 215.497 107.022 215.236C106.881 214.591 106.952 213.6 106.563 213.363C105.456 212.691 106.6 211.618 106.304 211.456C105.176 210.844 105.469 210.506 106.079 209.641C106.508 209.03 105.488 209.345 105.191 209.135C104.984 208.99 104.692 208.781 104.687 208.588C104.682 208.394 104.938 208.13 105.142 207.984C105.282 207.885 105.532 207.952 105.727 207.915C106.068 207.847 106.603 207.86 105.963 207.352C105.482 206.97 105.043 206.539 104.583 206.132ZM127.738 177C127.16 176.916 126.409 177.027 126.04 176.705C125.332 176.083 124.562 175.773 123.679 175.616C123.117 175.516 122.564 175.372 122.006 175.248C122.181 175.822 122.377 176.391 122.525 176.972C122.665 177.532 122.643 178.167 122.897 178.66C123.226 179.287 123.767 179.802 124.216 180.366C124.516 179.994 124.984 179.657 125.082 179.242C125.28 178.389 125.895 178.729 126.357 178.533C126.931 178.287 128.151 178.251 127.733 176.999L128.177 176.771L127.954 176.555C127.878 176.695 127.809 176.85 127.738 177ZM111.89 220.097C111.807 219.93 111.676 219.613 111.646 219.624C111.329 219.717 111.027 219.852 110.746 220.026C110.7 220.055 110.837 220.365 110.889 220.545C111.125 220.406 111.362 220.26 111.609 220.133C111.705 220.101 111.805 220.084 111.906 220.081C111.907 220.182 111.927 220.281 111.965 220.374C112.287 220.846 112.831 221.288 112.217 221.916C111.792 222.35 111.391 222.824 110.704 222.285C110.586 222.196 110.31 222.315 110.105 222.337C110.156 222.52 110.177 222.849 110.26 222.865C111.983 223.198 113.684 224.138 115.434 223.643C116.321 223.392 116.994 222.393 117.764 221.732C117.147 221.437 116.559 221.023 115.909 220.869C114.587 220.539 113.233 220.346 111.89 220.097ZM97.8963 211.584C98.0663 211.907 97.5811 212.734 98.3508 212.521C99.0403 212.332 99.6081 211.705 100.23 211.272C99.3873 210.416 98.9317 211.932 98.1761 211.612C98.0797 211.591 97.9802 211.586 97.8822 211.598C97.9081 211.126 97.7417 210.604 98.4299 210.38C99.2327 210.119 100.421 209.956 100.68 209.399C100.981 208.751 100.476 207.716 100.274 206.86C100.215 206.605 100.038 206.218 99.8525 206.178C98.9837 206.001 98.1055 205.875 97.2222 205.799C97.0475 205.781 96.691 205.973 96.6898 206.072C96.6638 207.999 96.4738 209.971 97.8963 211.584ZM146.492 202.934L146.128 203.036C146.254 203.524 146.295 204.055 146.517 204.496C147.356 206.16 148.243 207.801 149.134 209.439C149.571 210.242 150.288 210.4 151.179 210.41C152.25 210.425 152.144 209.482 152.447 208.977C152.683 208.582 152.573 207.814 152.346 207.341C151.712 206.018 151.048 204.68 150.199 203.491C147.451 199.654 146.701 195.442 147.54 190.875C147.566 190.732 147.557 190.46 147.509 190.446C147.33 190.397 146.987 190.371 146.957 190.446C146.575 191.341 146.261 191.647 145.401 190.746C144.708 190.021 144.302 190.29 144.199 191.384C144.152 191.885 144.341 192.483 144.13 192.883C143 195.024 143.867 196.796 144.887 198.675C145.602 199.993 145.967 201.506 146.492 202.934ZM127.51 187.214C127.544 188.693 127.536 188.707 128.13 189.08C128.376 189.235 128.675 189.299 128.933 189.435C129.436 189.707 129.927 190.004 130.423 190.289C130.738 189.69 131.18 189.122 131.34 188.483C131.607 187.421 131.022 186.658 130.284 185.878C129.044 184.562 129.115 182.642 130.624 181.801C131.944 181.067 132.594 179.921 133.429 178.86C133.628 178.609 133.599 178.18 133.675 177.833C133.338 177.96 132.942 178.262 132.68 178.172C132.208 178.014 131.843 179.376 131.342 178.172C131.092 177.569 130.471 177.119 130.016 176.598C129.705 177.206 129.373 177.804 129.086 178.424C128.799 179.043 128.575 179.688 128.293 180.312C126.907 183.359 126.905 183.357 127.623 186.972C127.636 187.043 127.55 187.132 127.51 187.214ZM94.5377 217.053C94.3134 217.1 94.0808 217.084 93.9474 217.19C93.3796 217.631 93.5224 219.768 94.2036 220.051C96.5399 221.023 98.561 222.328 99.7616 224.655C99.8926 224.91 100.162 225.102 100.388 225.3C100.9 225.746 101.423 226.175 101.941 226.611C102.531 225.548 101.284 225.339 101.035 224.664C100.901 224.298 100.695 223.956 100.569 223.589C100.53 223.471 100.626 223.292 100.705 223.171C100.738 223.122 100.91 223.119 100.989 223.155C101.343 223.323 101.665 223.567 102.029 223.682C102.755 223.909 103.502 224.069 104.239 224.256C104.209 223.363 103.25 223.442 102.816 222.923C101.853 221.771 100.733 220.746 99.6341 219.715C98.1796 218.352 96.4372 217.503 94.5377 217.053ZM144.202 224.124C144.202 225.031 144.175 225.942 144.216 226.848C144.231 227.186 144.407 227.516 144.51 227.849C144.79 227.564 145.203 227.324 145.323 226.983C145.677 225.975 145.846 224.899 146.218 223.898C147.176 221.329 146.69 219.207 144.39 217.616C144.054 217.38 143.563 217.38 143.141 217.274C143.141 217.746 142.936 218.372 143.165 218.659C144.491 220.322 144.166 222.248 144.202 224.124ZM116.137 231.089C116.137 230.485 116.127 229.882 116.137 229.28C116.151 228.535 116.144 227.895 115.066 227.932C114.629 227.946 114.195 227.484 113.732 227.411C113.149 227.319 112.493 227.302 112.504 228.231C112.523 229.738 112.446 231.249 112.528 232.752C112.585 233.824 113.095 233.125 113.392 232.861C113.752 232.541 114.004 232.051 114.535 232.694C114.915 233.155 115.406 233.521 115.848 233.935C115.943 233.288 116.052 232.636 116.127 231.993C116.148 231.69 116.152 231.387 116.137 231.084V231.089ZM96.3274 225.54C97.332 225.54 97.6366 225.551 97.9388 225.54C99.1123 225.493 99.0285 225.528 98.5291 224.459C97.554 222.37 95.5305 221.707 93.6995 220.778C93.5885 220.722 93.1328 221.014 93.0833 221.213C92.6335 222.97 93.3453 224.577 94.9721 225.3C95.4038 225.468 95.8646 225.547 96.3274 225.534V225.54ZM84.2304 228.912C84.0982 226.54 83.9943 224.598 83.8762 222.655C83.8703 222.556 83.8987 222.377 83.8703 222.368C83.6685 222.307 83.3733 222.17 83.2588 222.256C80.7655 224.122 80.5129 225.857 81.9968 228.507C82.5871 229.559 83.3367 229.042 84.0309 229.13C84.1725 229.149 84.3638 228.742 84.2304 228.912ZM82.5068 177.066C82.4029 176.379 82.3663 176.138 82.3297 175.897C82.6839 175.983 83.0805 175.991 83.3769 176.169C84.5326 176.863 84.4393 175.704 84.7026 175.246C84.9895 174.74 84.3402 173.339 83.9471 173.446C82.5646 173.828 81.1315 174.168 79.8848 174.834C79.278 175.157 79.6039 176.048 80.1469 176.632C81.0465 177.597 81.8776 177.93 82.423 177.399C82.5812 177.244 82.541 176.887 82.5068 177.066ZM105.669 172.011C103.426 171.959 102.63 172.483 102.772 174.42C102.819 175.079 103.186 175.348 103.739 175.033C105.726 173.901 107.885 173.871 110.07 173.942C110.27 173.964 110.472 173.96 110.671 173.929C110.852 173.865 111.025 173.78 111.187 173.675C111.032 173.58 110.865 173.387 110.723 173.404C109.56 173.54 108.646 172.925 107.653 172.496C107.037 172.231 106.334 172.166 105.669 172.011ZM124.212 172.153C123.795 172.153 123.466 172.072 123.198 172.166C121.921 172.609 120.662 173.099 119.396 173.574C120.404 174.354 121.598 173.683 122.65 173.981C123.763 174.298 124.821 174.808 125.932 175.129C126.235 175.217 126.79 175.074 126.959 174.842C127.149 174.581 127.195 174.002 127.023 173.729C126.372 172.667 125.508 171.866 124.212 172.153V172.153ZM89.5393 171.045C87.4851 170.666 87.0696 172.922 85.4593 172.807C85.385 172.807 85.2232 172.955 85.2362 172.984C85.3059 173.163 85.4593 173.318 85.4995 173.498C85.6671 174.256 86.2621 174.536 86.8748 174.854C87.4474 175.152 87.4226 174.841 87.5631 174.425C87.9503 173.274 87.9703 173.306 88.7955 174.038C89.0316 174.252 89.5133 174.523 89.6951 174.425C90.348 174.071 90.8143 173.443 90.5215 172.681C90.2689 172.012 89.7801 171.431 89.5393 171.045ZM115.539 217.204C115.499 218.857 115.503 218.874 117.319 218.274C118.153 217.998 118.998 217.724 119.788 217.342C120.397 217.049 120.926 216.588 121.491 216.202C120.871 216.084 120.25 215.986 119.632 215.866C119.056 215.748 118.491 215.579 117.911 215.511C116.725 215.36 115.562 216.215 115.539 217.198V217.204ZM116.16 200.677C116.16 201.076 116.099 201.487 116.175 201.87C116.293 202.475 115.694 203.483 116.708 203.571C117.208 203.615 117.834 202.901 118.288 202.422C118.47 202.229 118.496 201.613 118.328 201.416C117.648 200.622 118.174 200.15 118.682 199.662C119.171 199.189 119.2 199.009 118.446 198.794C117.722 198.588 117.077 198.107 116.397 197.748C116.319 198.525 116.236 199.301 116.16 200.079C116.145 200.274 116.16 200.475 116.16 200.674V200.677ZM108.125 233.175C108.001 233.125 107.541 232.813 107.423 232.911C106.552 233.636 105.534 233.384 104.559 233.472C104.184 233.506 103.818 233.648 103.447 233.741C103.814 233.842 104.196 233.907 104.543 234.055C104.721 234.132 104.977 234.38 104.956 234.509C104.848 235.07 104.7 235.622 104.511 236.161C104.428 236.414 104.261 236.634 104.131 236.87C104.407 236.893 104.695 236.978 104.957 236.928C105.62 236.798 106.275 236.631 106.919 236.429C107.168 236.352 107.522 236.177 107.574 235.98C107.79 235.159 107.913 234.306 108.125 233.175ZM90.597 231.64C90.5711 231.189 90.6407 230.893 90.5357 230.805C89.7093 230.116 88.8557 229.448 87.9715 228.829C87.8688 228.757 87.4332 228.963 87.3104 229.144C86.484 230.378 87.5465 233.008 88.9703 233.283C89.1096 233.31 89.3315 233.185 89.4425 233.064C89.8781 232.555 90.2913 232.02 90.5959 231.641L90.597 231.64ZM114.307 196.909H114.289C114.289 195.308 114.307 193.707 114.262 192.108C114.262 191.941 113.876 191.653 113.672 191.655C113.42 191.655 113.119 191.862 112.942 192.067C112.824 192.204 112.808 192.666 112.868 192.69C114.547 193.39 113.766 194.697 113.437 195.66C113.213 196.311 113.36 196.651 113.489 197.224C113.691 198.117 113.459 199.113 113.403 200.057C113.383 200.411 113.243 200.782 113.332 201.097C113.402 201.343 113.739 201.514 113.959 201.719C114.077 201.515 114.285 201.313 114.289 201.108C114.321 199.716 114.307 198.309 114.307 196.909ZM107.07 221.32C107.278 221.187 107.563 221.078 107.744 220.876C108.357 220.192 108.697 218.436 108.325 218.064C107.617 217.355 106.829 217.719 105.858 219.289C105.63 219.659 105.324 220.374 105.458 220.498C105.864 220.87 106.472 221.033 107.07 221.32ZM130.091 193.995C129.514 193.492 128.91 192.975 128.32 192.445C127.659 191.855 127.089 192.297 126.887 192.799C126.651 193.389 126.625 194.145 126.736 194.789C126.89 195.681 127.68 195.159 128.135 195.144C128.682 195.119 129.222 194.789 129.751 194.563C129.857 194.506 129.903 194.308 130.09 193.991L130.091 193.995ZM99.0733 237.058C99.8537 237.133 100.433 237.01 100.352 235.978C100.307 235.402 100.263 234.706 100.536 234.254C101.008 233.472 100.599 233.495 100.053 233.466C99.1087 233.417 99.0261 233.49 98.6578 234.883C98.5574 235.257 98.666 235.754 98.4571 236.021C97.7157 236.962 98.1395 237.126 99.0733 237.058ZM130.791 235.633C130.639 234.924 130.368 234.43 130.498 234.091C130.734 233.473 130.427 233.429 130.026 233.48C129.672 233.528 129.109 233.633 129.026 233.856C128.863 234.291 128.942 234.829 128.976 235.32C129.037 236.159 128.903 236.656 127.961 236.017C127.921 236.278 127.882 236.54 127.843 236.801C128.588 236.818 129.387 237.001 130.058 236.786C130.445 236.667 130.63 235.898 130.791 235.633ZM108.243 210.007C108.234 212.217 108.907 213.366 110.464 213.952C110.623 214.012 110.856 213.94 111.024 213.862C111.069 213.841 111.043 213.544 110.97 213.42C110.317 212.318 109.654 211.225 108.979 210.141C108.816 209.877 108.617 209.635 108.434 209.382L108.243 210.007ZM141.718 216.106C141.857 214.865 141.234 214.082 140.262 214.018C139.679 213.979 139.375 214.254 139.318 214.873C139.22 215.896 139.604 216.635 140.617 216.753C140.981 216.798 141.431 216.279 141.707 216.106H141.718ZM124.664 195.507C124.664 195.011 124.679 194.514 124.664 194.02C124.623 192.884 123.889 192.427 122.684 192.806C122.537 192.853 122.33 193.094 122.351 193.216C122.39 193.471 122.587 193.924 122.671 193.918C124.265 193.74 124.16 194.76 124.075 195.807C124.026 196.397 122.859 197.238 123.869 197.48C125.193 197.796 124.449 196.417 124.662 195.806C124.678 195.707 124.679 195.606 124.664 195.507ZM120.345 203.671C120.835 203.671 121.364 203.831 121.598 203.638C122.079 203.24 122.4 202.653 122.787 202.144C121.982 201.866 121.184 201.385 120.371 201.358C119.361 201.326 120.69 202.164 120.076 202.58C119.327 203.086 118.817 203.808 120.345 203.671ZM106.936 191.585C106.537 191.585 106.136 191.585 105.737 191.585C103.947 191.615 103.947 191.616 103.996 193.385C104.002 193.584 103.944 193.815 104.027 193.975C104.145 194.194 104.347 194.5 104.542 194.521C105.225 194.597 104.948 194.277 104.837 193.858C104.411 192.26 104.518 192.123 106.073 192.173C106.635 192.192 107.195 192.528 107.744 192.504C108.259 192.478 108.758 192.158 109.265 191.968C108.887 191.84 108.519 191.663 108.132 191.6C107.744 191.536 107.335 191.585 106.936 191.585ZM123.899 219.148C124.631 218.928 125.154 219.894 125.281 218.865C125.324 218.511 125.229 218.026 125 217.793C124.68 217.469 124.144 217.105 123.755 217.158C123.247 217.228 122.618 217.582 122.361 218.007C122.03 218.554 122.527 218.833 123.101 218.918C123.374 218.967 123.642 219.043 123.899 219.148V219.148ZM102.739 209.693C102.739 208.467 102.921 207.777 102.685 207.288C102.471 206.847 101.75 206.319 101.336 206.381C100.56 206.499 101.15 207.04 101.287 207.427C101.48 207.975 101.598 208.55 101.8 209.095C102.015 209.675 102.289 210.233 102.537 210.801C102.641 210.23 102.745 209.657 102.739 209.693ZM114.509 170.331C114.273 170.331 114.059 170.289 113.87 170.34C113.479 170.447 113.103 170.603 112.72 170.738C113.121 171.003 113.517 171.273 113.926 171.523C114.021 171.561 114.127 171.566 114.226 171.539C115.052 171.383 116.522 171.977 116.587 171.028C116.676 169.591 115.171 170.709 114.509 170.331V170.331ZM116.162 194.708H116.17C116.17 195.005 116.17 195.304 116.17 195.602C116.17 195.701 116.14 195.845 116.192 195.892C116.381 196.062 116.609 196.325 116.805 196.312C117.001 196.299 117.294 195.99 117.302 195.802C117.311 195.549 117.051 195.297 116.969 195.026C116.582 193.727 116.679 193.581 118.032 193.383C118.226 193.355 118.439 193.416 118.622 193.368C118.805 193.32 118.954 193.185 119.118 193.087C118.965 192.982 118.82 192.799 118.661 192.785C118.165 192.744 117.662 192.793 117.166 192.757C116.375 192.699 116.104 193.081 116.151 193.813C116.178 194.109 116.16 194.409 116.16 194.708H116.162ZM120.329 209.54C120.178 209.41 120.049 209.209 119.932 209.216C119.036 209.266 118.191 208.462 117.229 209.147C116.831 209.431 116.215 209.409 115.694 209.526C116.166 209.608 116.644 209.671 117.111 209.776C117.67 209.903 118.23 210.205 118.772 210.17C119.295 210.136 119.794 209.772 120.328 209.54H120.329ZM134.439 205.181C134.422 205.377 134.422 205.574 134.439 205.771C134.49 206.047 134.585 206.316 134.662 206.589C135.094 206.398 135.563 206.258 135.942 205.992C136.112 205.874 136.244 205.393 136.145 205.255C135.782 204.787 135.373 204.357 134.923 203.973C134.889 203.941 134.504 204.149 134.462 204.296C134.383 204.571 134.439 204.884 134.439 205.181ZM117.386 227.266C117.386 227.967 117.359 228.262 117.395 228.549C117.419 228.726 117.541 228.891 117.617 229.059C117.838 228.888 118.198 228.754 118.255 228.54C118.417 227.904 118.508 227.252 118.526 226.596C118.526 226.478 118.115 226.285 117.87 226.23C117.752 226.202 117.474 226.39 117.448 226.518C117.401 226.764 117.38 227.015 117.386 227.266V227.266ZM117.448 205.544L115.746 205.754C116.417 206.559 117.328 205.902 118.088 206.142C118.27 206.198 118.457 206.445 118.59 206.411C119.18 206.258 119.76 206.035 120.342 205.838C119.883 205.74 119.428 205.62 118.965 205.552C118.671 205.51 118.367 205.545 117.451 205.545L117.448 205.544ZM124.652 200.424H124.628C124.628 200.024 124.735 199.582 124.598 199.235C124.461 198.888 124.083 198.645 123.81 198.352C123.703 198.492 123.546 198.614 123.496 198.77C123.369 199.166 123.29 199.577 123.192 199.981C124.011 200.035 124.093 200.601 124.11 201.246C124.116 201.422 124.27 201.594 124.355 201.768C124.454 201.621 124.614 201.485 124.639 201.328C124.666 201.028 124.671 200.725 124.652 200.424V200.424ZM124.64 186.86C124.64 186.749 124.683 186.615 124.633 186.552C124.107 185.854 122.102 185.233 121.406 185.545C121.318 185.598 121.239 185.664 121.169 185.739C121.288 185.857 121.38 186.026 121.524 186.082C122.436 186.436 123.355 186.781 124.281 187.097C124.369 187.125 124.534 186.938 124.64 186.86ZM104.676 196.646C104.802 196.493 104.934 196.39 104.912 196.345C104.794 196.056 104.655 195.778 104.52 195.497C104.344 195.676 104.029 195.845 104.015 196.036C103.969 196.818 103.967 197.603 104.008 198.385C104.008 198.485 104.269 198.677 104.348 198.651C104.522 198.592 104.782 198.421 104.784 198.297C104.792 197.724 104.716 197.152 104.676 196.646ZM111.281 227.677H111.293C111.31 227.374 111.306 227.071 111.281 226.769C111.256 226.585 111.124 226.415 111.039 226.24C110.865 226.34 110.701 226.456 110.549 226.587C109.882 227.28 109.855 227.992 110.536 228.695C110.685 228.83 110.843 228.956 111.009 229.07C111.098 228.908 111.245 228.755 111.268 228.584C111.294 228.283 111.298 227.981 111.281 227.68V227.677ZM105.69 181.944L106.124 182.926C106.409 182.645 106.873 182.398 106.935 182.076C107.015 181.651 106.788 181.165 106.652 180.716C106.644 180.686 106.18 180.695 106.119 180.794C105.935 181.127 105.843 181.51 105.69 181.944ZM138.471 225.672C138.8 225.063 139.062 224.662 139.201 224.221C139.221 224.155 138.611 223.756 138.319 223.779C138.043 223.799 137.539 224.276 137.58 224.38C137.74 224.789 138.075 225.133 138.471 225.672ZM106.225 186.814C106.722 186.63 107.272 186.451 107.796 186.216C107.958 186.143 108.049 185.913 108.172 185.755C107.997 185.671 107.796 185.484 107.652 185.519C107.091 185.671 106.539 185.856 106 186.071C105.764 186.179 105.537 186.305 105.32 186.447L106.225 186.814ZM111.301 186.43C111.146 186.85 110.947 187.103 111.005 187.282C111.177 187.858 111.443 188.406 111.672 188.965C111.892 188.343 112.151 187.73 112.293 187.09C112.318 186.985 111.821 186.766 111.304 186.43H111.301ZM118.523 185.461L119.603 185.277C119.032 185.147 118.465 184.984 117.886 184.897C117.495 184.845 117.098 184.845 116.706 184.897C116.541 184.914 116.392 185.083 116.234 185.183C116.399 185.274 116.558 185.427 116.732 185.444C117.13 185.488 117.525 185.461 118.525 185.461H118.523ZM112.096 184.88V184.901C111.604 184.901 111.11 184.878 110.621 184.915C110.457 184.928 110.306 185.1 110.149 185.199C110.31 185.294 110.469 185.471 110.632 185.475C111.517 185.49 112.403 185.467 113.288 185.441C113.364 185.441 113.51 185.297 113.498 185.262C113.451 185.126 113.365 184.908 113.275 184.898C112.883 184.872 112.491 184.866 112.098 184.88H112.096ZM102.576 236.163C102.981 236.379 101.569 236.871 102.727 236.996C102.908 237.016 103.213 236.571 103.33 236.288C103.433 236.04 103.398 235.706 103.339 235.428C103.291 235.209 103.115 235.018 102.996 234.814C102.784 235.008 102.483 235.169 102.385 235.405C102.31 235.589 102.495 235.877 102.576 236.163ZM113.546 169.309C113.834 168.825 114.11 168.44 114.282 168.01C114.327 167.9 114.046 167.656 113.91 167.479L112.664 168.744L113.546 169.309ZM102.851 199.649L102.497 198.947L101.647 200.974C101.798 200.974 102.042 201.044 102.084 200.974C102.385 200.51 102.641 200.02 102.851 199.643V199.649ZM88.7223 219.813C88.7223 219.246 88.7601 219.038 88.7117 218.851C88.6633 218.665 88.5287 218.54 88.4308 218.379C88.3658 218.455 88.2667 218.519 88.2407 218.606C88.0542 219.234 87.8802 219.864 87.7189 220.493C87.7106 220.529 87.8676 220.655 87.9456 220.653C88.1321 220.647 88.4343 220.646 88.4839 220.544C88.591 220.31 88.671 220.065 88.7223 219.813ZM129.687 199.567L130.691 198.505C130.336 198.422 129.956 198.221 129.642 198.297C129.387 198.357 129.214 198.751 129.004 198.998L129.687 199.567ZM111.759 204.308L112.328 203.922C112.271 203.841 112.23 203.711 112.154 203.686C111.859 203.587 111.55 203.45 111.252 203.463C110.978 203.473 110.708 203.649 110.443 203.767C110.356 203.82 110.277 203.884 110.207 203.958C110.325 204.076 110.422 204.27 110.553 204.293C110.848 204.344 111.155 204.308 111.759 204.308ZM151.291 199.088C151.609 198.276 151.802 197.795 151.964 197.305C151.964 197.286 151.545 197.079 151.525 197.107C151.269 197.424 151.058 197.774 150.895 198.147C150.841 198.299 151.049 198.535 151.291 199.088V199.088ZM140.064 232.131L139.409 231.275C139.203 231.483 138.787 231.775 138.83 231.884C139.03 232.387 139.358 232.839 139.64 233.31L140.064 232.131ZM141.835 231.147L141.297 230.438L140.588 231.028C140.763 231.198 140.921 231.475 141.119 231.509C141.318 231.543 141.534 231.315 141.836 231.147H141.835ZM119.776 213.11C119.468 212.984 119.242 212.874 119.007 212.8C118.694 212.696 118.374 212.616 118.062 212.525C118.049 212.619 117.999 212.777 118.03 212.796C118.387 213.026 118.763 213.224 119.154 213.386C119.277 213.428 119.491 213.241 119.776 213.11ZM133.825 235.529C133.721 235.175 133.666 234.996 133.61 234.813C133.277 235.118 132.961 235.442 132.666 235.784C132.599 235.868 132.754 236.126 132.807 236.303L133.825 235.529ZM106.579 204.32C106.965 204.32 107.169 204.355 107.355 204.312C107.619 204.234 107.878 204.139 108.13 204.028C107.903 203.903 107.666 203.796 107.422 203.71C107.231 203.658 107.03 203.66 106.84 203.716C106.545 203.823 106.256 203.947 105.975 204.089L106.579 204.32ZM122.415 197.976L121.896 197.176C121.67 197.6 121.43 198.018 121.238 198.456C121.21 198.52 121.41 198.682 121.506 198.799L122.415 197.976ZM104.621 201.092C104.739 200.752 104.963 200.418 104.91 200.137C104.866 199.907 104.488 199.741 104.258 199.547C104.195 200.01 104.124 200.47 104.086 200.934C104.084 200.96 104.347 201.014 104.621 201.091V201.092ZM112.522 171.961C112.161 171.573 111.938 171.159 111.753 171.175C111.451 171.203 111.174 171.509 110.886 171.698C111.043 171.849 111.192 172.112 111.358 172.125C111.692 172.151 112.037 172.038 112.522 171.96V171.961ZM97.8751 234.57H97.8822C97.8964 234.475 97.8964 234.378 97.8822 234.283C97.7995 234.027 97.6968 233.777 97.6024 233.524C97.5032 233.774 97.3663 234.016 97.3167 234.276C97.2606 234.56 97.2606 234.852 97.3167 235.136C97.3604 235.327 97.5528 235.483 97.6791 235.655C97.7576 235.492 97.8204 235.321 97.8668 235.146C97.8861 234.955 97.8889 234.762 97.8751 234.57ZM129.514 211.807C129.798 211.94 130.089 212.059 130.386 212.161C130.418 212.172 130.622 211.838 130.595 211.807C130.343 211.551 130.06 211.328 129.786 211.099C129.728 211.267 129.66 211.435 129.516 211.807H129.514ZM132.078 233.236L132.944 233.968C133.017 233.805 133.197 233.557 133.146 233.496C132.94 233.265 132.702 233.066 132.438 232.906C132.416 232.889 132.242 233.086 132.08 233.236H132.078ZM119.812 183.213C120.092 183.435 120.218 183.622 120.343 183.62C120.703 183.599 121.06 183.554 121.414 183.486C121.278 183.352 121.149 183.116 121.004 183.106C120.656 183.08 120.301 183.16 119.812 183.213ZM100.028 200.477C99.3791 200.234 99.1465 200.087 98.9092 200.075C98.653 200.063 98.3898 200.18 98.1301 200.241C98.2717 200.377 98.4051 200.619 98.5551 200.63C98.901 200.66 99.2539 200.568 100.028 200.477ZM116.537 213.463L117.307 213.121C116.953 213.025 116.61 212.885 116.256 212.859C116.091 212.848 115.911 213.078 115.739 213.2L116.537 213.463ZM109.495 183.5C109.213 183.289 109.078 183.102 108.947 183.106C108.587 183.134 108.229 183.186 107.875 183.261C108.018 183.393 108.155 183.627 108.305 183.636C108.655 183.653 109.01 183.564 109.495 183.5ZM115.375 183.07C115.312 182.825 115.277 182.694 115.243 182.564C114.949 182.668 114.663 182.795 114.388 182.945C114.339 182.976 114.452 183.267 114.49 183.437L115.375 183.07ZM130.857 213.829C130.578 213.692 130.29 213.574 129.995 213.475C129.935 213.459 129.72 213.754 129.73 213.764C129.977 214.029 130.247 214.274 130.511 214.525L130.857 213.829ZM111.935 199.737C111.817 199.363 111.762 199.195 111.709 199.029C111.431 199.218 111.163 199.421 110.906 199.638C110.869 199.671 111.024 199.992 111.042 199.992C111.343 199.927 111.637 199.834 111.935 199.737ZM92.5083 234.126C91.8213 234.126 91.3809 234.117 90.9429 234.142C90.8993 234.142 90.8686 234.365 90.8308 234.484C91.1911 234.559 91.5558 234.611 91.9228 234.64C92.0397 234.642 92.1624 234.44 92.5083 234.126ZM114.335 203.991C114.231 203.608 114.185 203.435 114.138 203.262C113.864 203.452 113.6 203.657 113.35 203.877C113.305 203.92 113.424 204.135 113.468 204.269L114.335 203.991ZM95.8138 235.796L95.0359 236.102C95.3121 236.22 95.5825 236.413 95.8623 236.434C96.0818 236.45 96.3179 236.251 96.5458 236.147L95.8138 235.796ZM111.877 195.303C111.823 195.14 111.768 194.977 111.712 194.814C111.579 194.969 111.382 195.106 111.336 195.286C111.305 195.405 111.495 195.575 111.586 195.722C111.683 195.584 111.784 195.445 111.877 195.305V195.303ZM127.075 180.133C127.012 179.955 126.949 179.777 126.886 179.597C126.776 179.7 126.582 179.797 126.574 179.906C126.562 180.083 126.672 180.27 126.73 180.452C126.844 180.355 126.96 180.243 127.075 180.135V180.133ZM119.121 194.697C118.788 194.697 118.546 194.69 118.307 194.714C118.291 194.714 118.255 195.041 118.307 195.068C118.462 195.151 118.64 195.183 118.814 195.158C118.911 195.131 118.969 194.933 119.121 194.697ZM101.26 174.661C101.168 174.805 101.018 174.943 100.999 175.097C100.98 175.25 101.098 175.414 101.156 175.569C101.274 175.409 101.446 175.26 101.483 175.083C101.513 174.966 101.341 174.806 101.26 174.661ZM94.9627 234.937C95.1043 235.035 95.2366 235.192 95.3877 235.213C95.5388 235.235 95.7052 235.114 95.8599 235.056C95.7088 234.938 95.5707 234.751 95.4018 234.715C95.2802 234.688 95.1126 234.856 94.9627 234.937ZM94.1941 234.144L94.0419 233.648C93.9132 233.805 93.7196 233.947 93.6794 234.12C93.6511 234.245 93.8317 234.418 93.9155 234.569L94.1941 234.144ZM124.561 203.593C124.561 203.255 124.575 203.012 124.553 202.772C124.546 202.697 124.441 202.629 124.379 202.559C124.274 202.794 124.187 203.036 124.118 203.285C124.108 203.335 124.33 203.436 124.561 203.593ZM93.7278 232.516C93.873 232.613 94.0112 232.769 94.167 232.789C94.3228 232.809 94.4881 232.688 94.651 232.63C94.4881 232.512 94.3394 232.332 94.1599 232.292C94.0383 232.266 93.873 232.435 93.7278 232.517V232.516ZM141.645 229.297C141.306 229.297 141.055 229.281 140.811 229.305C140.736 229.312 140.668 229.423 140.598 229.486C140.836 229.598 141.083 229.691 141.335 229.764C141.384 229.776 141.49 229.537 141.645 229.298V229.297ZM109.523 172.11L109.987 171.849C109.836 171.755 109.67 171.569 109.538 171.589C109.355 171.618 109.196 171.803 109.028 171.921L109.523 172.11ZM121.746 208.632C121.746 208.987 121.731 209.229 121.754 209.468C121.762 209.541 121.872 209.605 121.936 209.674C122.045 209.446 122.135 209.209 122.204 208.965C122.215 208.909 121.99 208.806 121.746 208.632ZM131.695 211.702C131.598 211.842 131.439 211.977 131.421 212.127C131.404 212.277 131.529 212.444 131.591 212.599C131.709 212.437 131.888 212.289 131.93 212.109C131.957 212.001 131.781 211.84 131.695 211.702ZM128.409 212.775L128.881 212.512C128.728 212.42 128.561 212.234 128.426 212.256C128.244 212.285 128.089 212.473 127.922 212.592L128.409 212.775ZM117.097 219.96L117.291 219.797L117.113 219.615L116.918 219.87L117.097 219.96ZM133.742 186.401L133.53 186.207C133.53 186.338 133.517 186.47 133.51 186.601L133.742 186.401ZM119.092 221.581C119.034 221.519 118.974 221.414 118.917 221.411C118.86 221.407 118.788 221.506 118.725 221.561L119 221.74L119.092 221.581ZM115.992 214.236C115.93 214.206 115.856 214.136 115.812 214.153C115.736 214.196 115.668 214.252 115.612 214.319L115.981 214.429L115.992 214.236ZM120.297 211.875C120.242 211.815 120.188 211.71 120.128 211.707C120.068 211.703 120.01 211.801 119.942 211.854L120.205 212.034L120.297 211.875ZM126.851 211.485L127.047 211.308C126.986 211.244 126.929 211.18 126.864 211.117L126.673 211.396L126.851 211.485ZM116.027 211.27L115.859 211.079L115.671 211.249C115.756 211.315 115.842 211.38 115.928 211.444L116.027 211.27ZM132.346 210.886C132.4 210.825 132.503 210.76 132.503 210.694C132.503 210.628 132.402 210.561 132.347 210.495L132.158 210.775L132.346 210.886ZM123.086 223.294C123.055 223.349 122.988 223.419 123.002 223.456C123.043 223.527 123.096 223.591 123.159 223.644L123.271 223.308L123.086 223.294ZM140.39 217.941L140.235 217.749L140.057 217.924L140.307 218.118L140.39 217.941ZM120.103 208.452L120.34 208.264C120.268 208.194 120.199 208.074 120.121 208.068C120.043 208.062 119.971 208.186 119.895 208.245C119.965 208.313 120.035 208.381 120.103 208.452ZM115.751 207.517C115.724 207.574 115.662 207.644 115.678 207.683C115.721 207.756 115.775 207.821 115.839 207.876L115.939 207.522L115.751 207.517ZM111.521 189.889C111.489 189.95 111.419 190.022 111.434 190.068C111.457 190.144 111.535 190.203 111.591 190.269C111.627 190.151 111.665 190.026 111.702 189.904L111.521 189.889ZM108.688 228.82C108.632 228.788 108.57 228.717 108.525 228.731C108.453 228.771 108.39 228.824 108.337 228.887L108.669 229.005L108.688 228.82ZM108.57 230.286C108.631 230.228 108.736 230.168 108.74 230.112C108.743 230.057 108.644 229.984 108.591 229.92L108.41 230.191L108.57 230.286ZM120.281 230.069L120.126 229.874L119.955 230.056L120.191 230.252L120.281 230.069ZM138.568 230.693L138.403 230.504L138.218 230.673L138.476 230.862L138.568 230.693ZM121.986 205.999L122.188 205.836L121.998 205.661L121.799 205.915L121.986 205.999ZM85.3153 231.189C85.2917 231.239 85.2303 231.307 85.2445 231.35C85.2825 231.421 85.3324 231.485 85.392 231.54C85.4251 231.422 85.4582 231.304 85.4924 231.185L85.3153 231.189ZM102.486 215.724L102.682 215.547C102.622 215.483 102.564 215.419 102.5 215.354L102.308 215.633L102.486 215.724ZM91.3986 232.994C91.3727 233.046 91.3101 233.112 91.3243 233.152C91.3638 233.224 91.4153 233.287 91.4765 233.341C91.5096 233.223 91.5427 233.105 91.5769 232.994H91.3986ZM96.266 233.017C96.24 233.066 96.1692 233.135 96.1857 233.177C96.2322 233.251 96.2904 233.317 96.3581 233.372C96.3959 233.254 96.4336 233.136 96.4702 233.018L96.266 233.017ZM136.597 233.32L136.787 233.152L136.612 232.968L136.426 233.234L136.597 233.32ZM126.241 187.202L126.434 187.029L126.256 186.839C126.195 186.931 126.132 187.021 126.07 187.114L126.241 187.202ZM101.395 173.575C101.338 173.542 101.264 173.469 101.227 173.484C101.153 173.528 101.088 173.585 101.034 173.651L101.381 173.769L101.395 173.575ZM132.342 199.352C132.398 199.291 132.501 199.226 132.503 199.16C132.504 199.094 132.401 199.026 132.343 198.959L132.154 199.245C132.208 199.277 132.269 199.31 132.342 199.352ZM138.582 233.715L138.412 233.523L138.228 233.697L138.497 233.884L138.582 233.715ZM128.076 234.542C128.141 234.482 128.253 234.424 128.256 234.362C128.26 234.301 128.152 234.231 128.093 234.166L127.9 234.444L128.076 234.542ZM135.494 234.257C135.446 234.231 135.376 234.166 135.34 234.182C135.268 234.224 135.205 234.277 135.151 234.34L135.494 234.444V234.257ZM128.207 175.438C128.155 175.372 128.102 175.306 128.048 175.241L127.876 175.426L128.125 175.62L128.207 175.438ZM123.794 235.144C123.854 235.086 123.96 235.026 123.964 234.968C123.967 234.91 123.868 234.839 123.814 234.774L123.632 235.048L123.794 235.144ZM136.599 235.132L136.801 234.974L136.612 234.799L136.413 235.047L136.599 235.132ZM93.5094 235.528L93.3335 235.335L93.1435 235.512L93.4174 235.7L93.5094 235.528ZM135.484 235.48C135.432 235.456 135.365 235.393 135.317 235.408C135.243 235.447 135.177 235.499 135.121 235.561L135.484 235.66V235.48ZM121.485 236.076C121.426 236.049 121.356 235.988 121.311 236.002C121.237 236.041 121.171 236.093 121.114 236.154L121.482 236.251C121.482 236.195 121.482 236.137 121.485 236.076ZM126.4 236.742C126.339 236.679 126.282 236.565 126.217 236.563C126.153 236.56 126.085 236.667 126.019 236.726L126.302 236.918C126.334 236.862 126.367 236.804 126.4 236.745V236.742ZM104.191 182.619C104.159 182.676 104.085 182.75 104.101 182.785C104.149 182.858 104.207 182.923 104.275 182.978L104.393 182.624L104.191 182.619ZM86.5513 217.216C86.5195 217.273 86.4498 217.342 86.464 217.384C86.5036 217.457 86.5565 217.522 86.6198 217.575L86.7379 217.233L86.5513 217.216ZM123.366 194.92L123.176 194.696C123.104 194.762 122.984 194.824 122.975 194.898C122.965 194.972 123.084 195.088 123.155 195.095C123.226 195.102 123.296 194.984 123.366 194.92Z" fill="#0F0E10"/>
<path d="M109.864 151.159C110.604 152.238 109.551 153.974 110.547 155.478C110.74 155.768 110.593 156.665 110.366 156.769C109.863 157.005 109.194 156.99 108.625 156.893C108.45 156.864 108.316 156.246 108.265 155.884C108.157 155.106 108.115 154.318 108.046 153.534C107.718 154.252 107.362 154.961 107.073 155.695C106.968 155.963 107.131 156.424 106.969 156.561C106.733 156.76 106.183 156.916 106.009 156.783C105.643 156.5 105.469 155.986 105.155 155.62C104.867 155.284 104.498 155.017 104.165 154.72C104.11 155.204 104.037 155.688 104.011 156.173C104 156.358 104.093 156.55 104.146 156.736C104.214 156.972 104.287 157.208 104.358 157.444L102.587 157.562C102.619 157.26 102.698 156.953 102.674 156.655C102.534 154.937 103.474 153.06 101.924 151.533C101.828 151.44 101.894 150.971 101.992 150.93C102.527 150.707 103.116 150.389 103.645 150.452C103.999 150.495 104.303 151.099 104.589 151.484C105.281 152.428 105.948 153.392 106.626 154.347C106.967 153.211 107.239 152.046 107.682 150.95C107.881 150.46 108.356 149.995 108.825 149.721C109.468 149.346 109.987 149.87 109.864 151.159Z" fill="#0F0E10"/>
<path d="M119.857 250.446C117.605 250.463 116.137 249.021 116.14 246.796C116.14 244.713 117.687 243.221 119.917 243.142C121.892 243.072 123.427 244.735 123.481 247.004C123.53 248.932 121.95 250.43 119.857 250.446ZM121.822 247.27C121.578 246.515 121.377 245.972 121.231 245.423C120.986 244.478 120.346 244.242 119.461 244.353C118.535 244.471 117.979 244.972 118.014 245.888C118.032 246.659 118.171 247.424 118.426 248.152C118.851 249.286 120.117 249.687 120.955 248.924C121.405 248.519 121.562 247.791 121.822 247.27Z" fill="#0F0E10"/>
<path d="M156.596 166.8C156.758 166.897 156.961 166.958 157.069 167.095C157.688 167.854 158.378 168.578 158.87 169.414C159.709 170.842 159.46 171.318 158.267 172.436C157.783 172.888 157.282 171.699 156.903 172.743C156.593 173.599 156.35 174.395 156.341 175.301C156.341 175.609 156.112 175.916 155.987 176.224C155.765 176.025 155.5 175.855 155.326 175.618C154.573 174.595 154.539 173.525 155.109 172.388C155.189 172.23 154.938 171.906 154.84 171.658C154.676 171.772 154.518 171.895 154.367 172.026C154.223 172.164 154.053 172.311 153.989 172.488C153.839 172.895 153.947 173.681 153.172 172.942C152.88 172.664 152.608 172.367 152.313 172.093C151.512 171.35 151.474 171.307 152.696 170.795C154.175 170.179 156.089 169.463 156.371 167.333C156.398 167.153 156.518 166.982 156.596 166.8ZM157.095 168.874C156.811 169.737 156.649 170.209 156.522 170.691C156.522 170.711 156.954 170.897 156.973 170.868C157.21 170.535 157.404 170.174 157.55 169.792C157.596 169.657 157.384 169.435 157.095 168.874V168.874Z" fill="#0F0E10"/>
<path d="M93.0398 160.977C92.5416 161.343 92.2571 161.674 91.9017 161.79C90.8522 162.134 90.0046 161.415 89.0684 161.151C88.7744 161.088 88.4761 161.046 88.176 161.026C88.281 161.294 88.3176 161.63 88.5053 161.816C88.7745 162.082 89.1794 162.209 89.4734 162.458C89.5843 162.551 89.6209 162.956 89.5666 162.984C88.8714 163.352 88.1578 163.684 87.4287 163.978C87.3271 164.019 86.9671 163.762 86.9565 163.624C86.8219 161.486 85.8468 159.719 84.4195 158.221C84.0134 157.794 83.8906 157.792 84.4667 157.554C85.1018 157.291 85.6886 156.912 86.3225 156.647C88.3554 155.798 89.2986 156.471 89.5997 158.89C89.6375 159.204 89.8759 159.62 90.1416 159.754C90.8322 160.109 91.5913 160.319 92.3173 160.599C92.5227 160.684 92.708 160.804 93.0398 160.977ZM88.5065 158.296C87.8147 157.979 87.3791 157.757 86.9199 157.599C86.8679 157.581 86.5515 158.015 86.5952 158.079C86.8974 158.52 87.261 158.917 87.6058 159.329L88.5065 158.296Z" fill="#0F0E10"/>
<path d="M126.777 249.222C126.666 249.222 126.936 248.923 126.871 248.42C126.664 246.828 126.044 245.291 125.606 243.724C125.517 243.401 125.472 242.764 125.554 242.738C126.568 242.42 127.606 242.03 128.646 241.999C129.206 241.986 129.863 242.568 130.32 243.035C130.616 243.337 130.892 244.082 130.725 244.34C129.794 245.788 130.387 246.49 131.777 246.952C131.97 247.019 132.13 247.156 132.227 247.336C132.318 247.537 132.386 247.857 132.286 248.009C132.148 248.218 131.729 248.502 131.627 248.439C130.794 247.924 130.008 247.332 129.201 246.775C128.982 246.638 128.756 246.512 128.523 246.399C128.48 246.78 128.424 247.162 128.398 247.544C128.392 247.623 128.491 247.708 128.542 247.79C129.181 248.798 129.133 249.069 128.253 249.215C127.958 249.263 127.647 249.222 126.777 249.222ZM128.321 242.598C127.985 243.406 127.754 243.703 127.774 243.983C127.796 244.302 127.987 244.829 128.198 244.88C128.861 245.037 129.007 244.526 128.926 243.998C128.875 243.691 128.677 243.409 128.318 242.598H128.321Z" fill="#0F0E10"/>
<path d="M140.027 162.458C137.855 162.436 136.256 161.016 136.249 159.102C136.249 157.439 138.374 155.271 140.121 155.159C141.868 155.047 143.612 156.906 143.592 158.862C143.566 161.567 142.656 162.484 140.027 162.458ZM141.994 158.118C141.708 157.527 141.576 156.667 141.14 156.465C140.464 156.154 139.52 156.181 139.015 157.007C138.447 157.923 138.052 158.874 138.056 160.026C138.056 160.95 138.633 161.131 139.215 161.466C140.007 161.919 140.684 161.27 140.929 160.913C141.446 160.153 141.625 159.155 141.994 158.118V158.118Z" fill="#0F0E10"/>
<path d="M77.2081 171.118C77.0842 172.485 75.4066 174.532 74.3748 174.482C73.65 174.447 72.9051 173.973 72.2499 173.566C71.1874 172.904 70.7152 171.335 69.0931 171.488C69.0931 171.488 68.9479 171.024 69.0364 170.877C69.2418 170.537 69.6538 170.298 69.7979 169.945C70.3232 168.653 70.5617 168.765 71.1992 169.958C71.7009 170.903 72.663 171.619 73.4941 172.356C74.2025 172.983 75.0359 172.865 75.6097 172.193C76.1527 171.557 76.1409 170.911 75.6097 170.29C74.6865 169.216 73.6146 168.341 72.2404 167.884C72.0834 167.832 71.9594 167.682 71.8201 167.577C72.2357 167.14 72.6465 166.694 73.081 166.278C73.1329 166.229 73.4127 166.321 73.5012 166.423C74.618 167.693 75.7325 168.965 76.8067 170.268C77.0452 170.557 77.1361 170.959 77.2081 171.118Z" fill="#0F0E10"/>
<path d="M99.9575 157.482C99.6482 158.006 99.5042 158.504 99.1736 158.741C98.8018 159.008 98.2634 159.048 97.7936 159.171C96.881 159.407 95.9649 159.631 95.0512 159.86C95.5541 159.019 94.7749 158.316 94.7749 157.506C94.7749 156.859 94.4007 156.208 94.2024 155.566C93.9781 154.836 92.6205 154.503 93.1989 153.639C93.5531 153.11 94.5719 153.032 95.2802 152.728C96.8067 152.07 97.2387 152.098 97.7782 152.977C97.8727 153.128 97.8432 153.354 97.8715 153.547C97.646 153.56 97.4146 153.611 97.1962 153.578C96.9105 153.533 96.606 153.306 96.3628 153.367C96.0198 153.454 95.7181 153.658 95.5104 153.945C95.3829 154.145 95.416 154.668 95.5706 154.778C95.8162 154.952 96.3356 155.059 96.5398 154.915C97.3473 154.343 97.6212 154.518 98.0262 155.419C98.4051 156.261 98.3319 156.433 97.4737 156.378C97.3748 156.357 97.2726 156.357 97.1738 156.378C96.8586 156.509 95.9661 156.028 96.4029 156.981C96.6591 157.532 96.776 158.495 97.7664 158.146C98.2965 157.96 98.7203 157.484 99.2268 157.202C99.3413 157.142 99.6022 157.335 99.9575 157.482Z" fill="#0F0E10"/>
<path d="M116.351 156.363C115.643 156.363 114.934 156.383 114.226 156.337C114.14 156.337 113.999 155.964 114.017 155.776C114.101 154.9 114.462 153.981 114.289 153.169C114.041 152.011 115.573 151.017 114.47 149.882C115.864 149.825 117.255 149.747 118.648 149.741C118.825 149.741 119.142 150.112 119.15 150.321C119.151 150.699 119.054 151.07 118.869 151.4C118.83 151.471 118.33 151.362 118.088 151.243C117.571 150.99 117.235 149.836 116.508 150.904C116.259 151.27 116.3 151.832 116.209 152.304C116.611 152.243 117.016 152.12 117.414 152.139C117.781 152.155 118.292 152.216 118.463 152.455C118.651 152.717 118.638 153.262 118.484 153.571C118.399 153.743 117.776 153.831 117.525 153.7C117.052 153.454 116.538 153.085 116.281 153.7C116.075 154.194 116.139 154.916 116.357 155.418C116.455 155.645 117.228 155.655 117.683 155.621C117.929 155.6 118.135 155.247 118.391 155.084C118.606 154.966 118.83 154.865 119.062 154.783C119.118 154.969 119.256 155.176 119.213 155.333C119.116 155.688 118.965 156.271 118.771 156.298C117.979 156.408 117.162 156.343 116.355 156.343L116.351 156.363Z" fill="#0F0E10"/>
<path d="M148.207 167.236C148.432 167.202 148.703 167.245 148.805 167.134C149.845 165.989 151.567 165.309 151.492 163.387C151.446 162.238 151.932 162.608 152.492 162.983C152.728 163.144 153.091 163.162 153.278 163.357C153.514 163.609 154.313 163.867 153.286 164.317C152.602 164.617 152.083 165.323 151.544 165.897C151.284 166.174 151.196 166.605 150.946 166.898C149.537 168.517 148.349 168.583 146.759 167.167C145.224 165.8 145.163 165.643 146.269 163.711C146.805 162.775 147.519 161.931 148.217 161.098C148.527 160.726 147.459 160.007 148.353 160.108C148.999 160.182 149.56 161.004 150.159 161.493C150.026 161.6 149.899 161.713 149.779 161.833C149.061 162.612 148.321 163.368 147.643 164.185C146.994 164.963 147.053 165.838 147.549 166.664C147.694 166.908 147.994 167.058 148.207 167.236Z" fill="#0F0E10"/>
<path d="M143.818 243.306C143.528 242.999 143.253 242.676 142.946 242.388C142.619 242.083 142.261 241.809 141.916 241.521C141.658 242.021 141.342 242.502 141.176 243.031C141.111 243.237 141.552 243.636 141.47 243.799C141.254 244.225 140.879 244.57 140.561 244.947C140.349 244.688 139.97 244.443 139.953 244.17C139.814 242.308 140.157 240.41 139.362 238.592C139.244 238.321 139.716 237.736 140.019 237.385C140.084 237.31 140.663 237.551 140.895 237.765C142.151 238.92 143.366 240.118 144.606 241.288C145.001 241.66 145.433 241.988 145.848 242.336L143.818 243.306ZM140.984 240.341C140.928 240.308 140.856 240.236 140.818 240.25C140.745 240.293 140.68 240.348 140.625 240.413L140.97 240.531L140.984 240.341Z" fill="#0F0E10"/>
<path d="M111.903 247.36C111.903 247.86 111.874 248.363 111.903 248.861C112.021 250.486 112.021 250.485 110.678 250.434C109.513 250.39 109.591 250.404 109.831 249.099C110.026 248.036 110.049 246.942 110.068 245.859C110.091 244.653 110.056 244.669 108.47 244.915C108.234 244.953 107.815 244.797 107.728 244.613C107.64 244.428 107.76 244.022 107.926 243.826C108.17 243.545 108.509 243.249 108.857 243.17C110.652 242.76 112.399 243.797 114.217 243.406C114.371 243.373 114.827 243.85 114.791 244.014C114.693 244.47 114.407 244.884 114.201 245.313C114.006 245.098 113.846 244.84 113.61 244.676C112.784 244.067 111.992 244.34 111.934 245.256C111.89 245.954 111.926 246.657 111.926 247.358L111.903 247.36Z" fill="#0F0E10"/>
<path d="M80.8442 164.849C81.281 165.667 81.3932 166.815 82.7555 166.706C82.7921 166.706 82.9527 167.178 82.896 167.221C82.3482 167.638 81.7981 168.079 81.1818 168.371C80.7616 168.57 80.0804 168.694 80.5916 167.79C80.6353 167.712 80.7155 167.578 80.6907 167.554C79.4996 166.249 78.2954 164.956 77.1066 163.658C76.9697 163.507 76.7985 163.147 76.8351 163.116C77.7524 162.365 78.6697 161.606 79.6483 160.939C80.0155 160.689 81.876 161.447 82.0354 161.901C82.1711 162.288 82.752 162.538 82.3104 163.174C81.8689 163.81 81.7674 164.683 80.8265 164.874C80.8171 164.275 80.8914 163.658 80.7627 163.087C80.7037 162.824 80.2657 162.614 79.9612 162.456C79.8136 162.378 79.5775 162.466 79.3815 162.479C79.4429 162.782 79.4193 163.146 79.5822 163.378C79.9553 163.898 80.4192 164.36 80.8442 164.849Z" fill="#0F0E10"/>
<path d="M131.816 152.097C132.08 152.179 133.049 152.382 133.92 152.791C134.211 152.927 134.285 153.585 134.384 154.019C134.413 154.137 134.113 154.472 134.085 154.458C133.769 154.322 133.474 154.141 133.211 153.92C131.845 152.653 130.668 152.534 129.719 153.594C128.708 154.721 128.656 157.372 129.83 157.899C130.608 158.254 131.719 157.872 132.673 157.826C132.824 157.819 133.076 157.794 133.109 157.862C133.189 158.025 133.248 158.28 133.173 158.424C132.677 159.386 131.77 159.594 130.852 159.357C129.381 158.978 128.115 158.04 127.322 156.744C126.43 155.327 128.11 152.35 129.871 152.101C130.268 152.05 130.675 152.097 131.816 152.097Z" fill="#0F0E10"/>
<path d="M103.64 248.608C103.74 248.593 103.842 248.587 103.943 248.592C104.543 248.668 104.941 247.384 105.668 248.337C105.066 248.828 104.525 249.614 103.85 249.753C101.999 250.138 99.2989 247.931 99.1159 246.094C99.0097 245.022 100.445 242.678 101.494 242.589C102.959 242.464 104.477 242.252 105.877 243.135C106.477 243.514 106.531 243.86 106.137 244.284C105.944 244.489 105.795 245.382 105.152 244.424C104.09 242.846 103.925 242.89 102.599 243.572C101.404 244.181 100.586 245.923 100.988 246.996C101.321 247.895 102.627 248.689 103.64 248.608Z" fill="#0F0E10"/>
<path d="M158.484 178.884C159.6 178.357 160.727 177.855 161.83 177.293C163.421 176.481 163.419 176.315 161.959 175.207L161.404 174.781C161.752 174.608 162.087 174.392 162.453 174.282C162.62 174.232 162.948 174.326 163.043 174.462C164.003 175.932 164.952 177.413 165.841 178.921C165.984 179.164 165.915 179.83 165.778 179.884C165.26 180.09 164.383 180.33 164.348 179.524C164.266 177.601 163.385 178.309 162.494 178.816C161.731 179.253 160.967 179.688 160.217 180.144C159.763 180.419 159.332 180.734 158.891 181.028L157.612 178.759L158.286 178.437L158.484 178.884Z" fill="#0F0E10"/>
<path d="M87.5488 240.461C87.5488 239.857 87.5382 239.251 87.5488 238.645C87.5854 236.853 87.7459 236.813 89.3904 237.642C89.9878 237.943 89.8296 238.101 89.577 238.468C89.4615 238.627 89.395 238.816 89.3857 239.011C89.4022 239.905 89.453 240.798 89.4908 241.69C90.2109 241.1 91.3147 240.628 91.5697 239.884C92.0809 238.383 92.7502 239.7 93.2957 239.57C93.324 239.909 93.4397 240.524 93.37 240.545C91.4528 241.141 90.251 242.65 88.8604 243.925C88.6113 244.154 88.1757 244.226 87.8179 244.254C87.7412 244.261 87.5488 243.763 87.5405 243.493C87.5063 242.485 87.5264 241.475 87.5264 240.467L87.5488 240.461Z" fill="#0F0E10"/>
<path d="M64.9798 177.264C64.7177 176.144 65.5099 175.477 66.3067 174.848C66.4177 174.759 66.8226 174.9 66.9808 175.05C67.139 175.2 67.113 175.477 67.1697 175.7C66.9773 175.746 66.6975 175.727 66.6066 175.849C66.269 176.293 65.9927 176.784 65.6929 177.256C66.2418 177.294 66.7967 177.404 67.335 177.346C67.7057 177.307 68.0433 177.029 68.4081 176.874C69.8909 176.226 71.2768 176.767 71.6983 178.155C72.0229 179.228 71.0619 180.971 69.8909 181.214C69.4824 181.298 68.9748 180.993 68.538 180.805C68.3774 180.736 68.2912 180.498 68.172 180.333C68.3207 180.236 68.4612 180.073 68.6206 180.053C69.1176 179.99 69.6713 180.094 70.1033 179.905C70.33 179.806 70.4894 179.197 70.4174 178.883C70.3572 178.618 69.8731 178.227 69.6465 178.268C68.9854 178.386 68.3479 178.674 67.7187 178.94C66.0872 179.63 64.9704 178.987 64.9798 177.264Z" fill="#0F0E10"/>
<path d="M95.623 247.632C94.6892 247.266 94.0541 247.041 93.4438 246.752C93.3741 246.72 93.3717 246.346 93.4603 246.208C94.9123 243.95 95.0151 243.598 95.0599 240.549C95.0813 240.404 95.1474 240.271 95.2488 240.166C96.0752 240.402 96.9016 240.651 97.6996 240.968C97.787 241.002 97.807 241.532 97.6843 241.717C96.8366 242.992 95.989 245.099 95.7364 246.735C95.6998 246.972 95.6762 247.21 95.623 247.632Z" fill="#0F0E10"/>
<path d="M135.641 240.545C135.846 242.216 135.837 243.95 136.932 245.354C137.101 245.57 137.206 246.133 137.101 246.209C136.728 246.481 136.259 246.715 135.809 246.754C135.573 246.774 135.174 246.4 135.075 246.121C134.753 245.218 134.766 244.093 134.211 243.406C133.678 242.742 134.396 241.399 133.002 241.295C132.978 241.295 132.905 240.725 132.987 240.684C133.76 240.299 134.56 239.975 135.348 239.621L135.641 240.545Z" fill="#0F0E10"/>
<path d="M130.162 217.652L130.783 217.062L132.614 217.049C132.047 217.953 131.157 218.219 130.162 218.278V217.652Z" fill="#0F0E10"/>
</svg>
