<svg width="400" height="400" viewBox="0 0 400 400" fill="none" xmlns="http://www.w3.org/2000/svg">
<rect opacity="0.01" width="400" height="400" fill="#0F0E10"/>
<path d="M84.3647 156.143C87.0715 156.57 89.6463 157.3 91.752 159.207C96.4532 163.471 97.0752 170.236 93.2009 175.278C92.9577 175.59 92.7284 175.914 92.4261 176.32C95.588 178.165 97.9335 180.65 98.9168 184.135C100.418 189.437 99.2122 194.156 95.0078 197.745C92.2593 200.094 89.1008 201.977 86.1125 204.031C85.718 204.266 85.2654 204.387 84.806 204.378C79.1446 204.397 73.482 204.397 67.8182 204.378C67.5517 204.332 67.29 204.261 67.0364 204.166C67.6584 203.687 68.1136 203.308 68.6 202.968C75.7683 197.915 82.9332 192.853 90.1432 187.849C91.1474 187.154 91.613 186.432 91.5609 185.177C91.4601 182.613 91.5331 180.042 91.5331 177.06L62.5992 197.377V185.476L57.9883 188.332V177.602C58.9716 176.907 59.9098 176.122 60.9522 175.518C62.1857 174.823 62.627 173.898 62.5992 172.449C62.5054 167.692 62.5506 162.925 62.5749 158.158C62.6231 157.481 62.7159 156.807 62.8529 156.143H84.3647ZM87.0159 167.262L86.9187 166.914C82.9436 166.914 78.9685 166.897 74.9935 166.938C74.4906 166.982 74.0095 167.163 73.6036 167.463C68.9081 170.739 64.2323 174.03 59.5762 177.338C59.2288 177.592 58.718 177.985 58.7075 178.325C58.6381 181.16 58.6832 183.985 58.6832 187.203L87.0159 167.262Z" fill="#0F0E10"/>
<path d="M62.5537 244.619V207.724H150.922V188.992C151.742 189.597 152.281 189.972 152.799 190.382C159.689 195.82 166.562 201.282 173.494 206.671C174.251 207.246 175.165 207.577 176.114 207.62C181.305 207.707 186.496 207.662 191.858 207.662V189.089C192.528 189.545 192.949 189.784 193.331 190.094C200.362 195.635 207.394 201.174 214.429 206.713C215.02 207.175 215.819 207.613 216.553 207.62C226.212 207.676 235.868 207.658 245.528 207.651C245.754 207.651 245.976 207.603 246.445 207.551V189.027C247.307 189.618 247.814 189.923 248.273 190.288C255.077 195.653 261.87 201.03 268.652 206.418C269.655 207.27 270.937 207.723 272.252 207.69C294.631 207.646 317.013 207.635 339.397 207.658H341.638V244.619H62.5537ZM159.797 216.602C159.734 215.424 159.672 214.243 159.613 213.065H151.489V239.261H159.734C159.734 238.416 159.734 237.728 159.734 237.047C159.807 233.416 159.734 229.775 160.009 226.165C160.356 221.592 164.526 219.299 168.376 221.415C167.681 225.643 167.448 229.889 169.661 233.826C171.972 237.937 175.669 239.799 180.433 240.171V233.781C177.08 232.238 175.996 230.546 176.559 227.652H193.897C194.627 218.934 189.429 212.085 182.351 212.363V218.176C184.328 218.871 185.805 219.969 186.111 222.269H176.52C176.906 219.927 178.39 218.795 180.308 218.194V212.207C175.551 212.342 172.08 214.451 169.227 218.204V212.69C165.203 212.349 162.16 213.541 159.797 216.602ZM312.586 212.37C307.975 211.908 303.205 215.112 301.304 219.788C300.189 222.544 300.074 225.407 300.279 228.295C300.745 234.973 305.838 239.869 312.576 240.109V233.673C309.494 232.37 308.354 230.591 308.816 227.669H326.152C327.135 219.163 321.266 211.519 314.574 212.45V218.135C316.53 218.854 318.104 219.896 318.396 222.238H308.834C309.209 219.868 310.811 218.847 312.597 218.138L312.586 212.37ZM204.137 203.398L195.909 197.144V239.309H204.078C204.078 234.824 204.026 230.456 204.099 226.105C204.148 223.169 204.662 220.407 208.012 219.438V212.679L204.137 215.987V203.398ZM149.373 239.355V213.072H141.075C141.002 213.788 140.943 214.389 140.86 215.219C139.327 213.909 137.951 212.711 135.936 212.582V220.077C139.313 220.602 141.148 222.582 141.27 225.907C141.423 229.566 139.581 231.748 136.005 232.322V240.355L140.912 237.138C140.974 237.871 141.037 238.59 141.103 239.365L149.373 239.355ZM235.799 212.162C230.649 212.631 226.591 214.594 224.256 219.028C221.501 224.274 221.664 229.632 225.02 234.584C227.529 238.281 231.306 239.9 235.792 240.171V232.179C233.082 231.352 231.549 229.622 231.383 226.804C231.188 223.461 232.588 221.147 235.792 220.146L235.799 212.162ZM237.825 240.063C245.184 240.3 251.23 233.913 251.157 226.123C251.084 218.333 244.937 211.922 237.891 212.401V220.258C240.809 221.112 242.147 223.155 242.244 225.932C242.356 229.083 240.921 231.335 237.825 232.186V240.063ZM112.291 239.368C113.368 238.062 113.469 236.908 112.878 235.435C110.539 229.611 108.361 223.725 106.102 217.863C105.47 216.213 104.81 214.573 104.188 212.999H99.3856C97.9146 216.689 96.4506 220.377 94.9935 224.062C94.8404 224.371 94.7928 224.721 94.858 225.06C95.9004 227.881 96.988 230.682 98.232 233.927C99.4794 230.755 100.529 228.069 101.769 224.941C103.791 230.129 105.591 234.775 107.391 239.375L112.291 239.368ZM133.935 240.185V232.019C129.393 229.782 128.934 223.072 133.935 220.247V212.387C130.307 211.842 126.398 213.777 124.178 217.488C120.793 223.155 120.769 229.01 124.122 234.681C126.235 238.26 129.494 240.23 133.938 240.199L133.935 240.185ZM264.385 240.115V232.836C261.998 231.821 261.286 230.807 261.258 228.024C261.209 223.652 261.258 219.274 261.237 214.9C261.237 214.288 261.182 213.673 261.154 213.061H252.867C252.867 219.076 252.519 225.018 252.96 230.894C253.426 237.03 257.804 240.303 264.385 240.115ZM269.712 213.013V215.032C269.712 219.118 269.712 223.208 269.712 227.294C269.712 229.775 269.316 232.065 266.408 232.836V240.112C274.194 240.161 277.954 235.942 278.017 229.886C278.072 224.646 278.076 219.41 278.086 214.173C278.051 213.781 277.981 213.393 277.878 213.013H269.712ZM209.992 219.573C211.75 221.105 212.018 221.554 212.317 223.861C212.414 224.776 212.453 225.696 212.432 226.616C212.432 230.807 212.432 234.997 212.432 239.285H220.684C220.684 233.031 220.774 226.946 220.621 220.852C220.583 219.309 219.965 217.683 219.256 216.269C218.418 214.637 217.016 213.365 215.312 212.687C213.608 212.009 211.715 211.972 209.985 212.582L209.992 219.573ZM79.2323 213.027C83.19 221.905 87.0886 230.643 90.9525 239.316H96.0116C97.2104 237.555 97.3112 235.939 96.4633 234.042C95.0352 230.841 93.8886 227.52 92.6134 224.253C91.1517 220.515 89.6865 216.772 88.2179 213.027H79.2323ZM289.282 229.215L289.747 229.306C289.956 230.223 290.623 231.446 290.265 231.981C289.771 232.718 288.528 233.003 287.544 233.34C287.165 233.472 286.62 233.291 286.203 233.124C284.552 232.471 282.919 231.769 281.085 231.001L278.229 237.134C283.076 240.741 290.293 241.22 294.789 238.378C298.083 236.293 299.626 232.36 298.757 228.246C298.145 225.355 295.779 223.381 292.044 222.752L289.282 229.215ZM290.254 222.388C289.872 222.158 289.615 222.085 289.5 221.918C289.087 221.303 288.392 220.633 288.434 220.028C288.468 219.531 289.327 218.909 289.945 218.68C290.656 218.463 291.412 218.433 292.138 218.593C293.253 218.805 294.33 219.201 295.536 219.552C296.429 217.665 297.308 215.813 298.271 213.777C293.799 211.932 289.473 211.414 285.067 213.298C283.888 213.782 282.841 214.538 282.01 215.504C281.179 216.471 280.588 217.619 280.286 218.857C278.771 224.396 282.179 229.014 287.582 228.639C288.451 226.62 289.327 224.57 290.254 222.388V222.388ZM114.327 234.323H114.761L124.254 213.041H115.466C113.945 216.884 112.433 220.685 110.949 224.483C110.828 224.8 110.817 225.149 110.918 225.473C112.033 228.434 113.187 231.373 114.327 234.323ZM182.334 240.126C188.685 240.126 193.345 235.352 193.484 231.269C191.125 231.269 188.765 231.252 186.406 231.29C186.024 231.328 185.662 231.477 185.364 231.717C184.373 232.45 183.418 233.232 182.337 234.087L182.334 240.126ZM318.42 231.318L314.598 234.052V240.105C320.158 240.3 325.888 235.73 325.658 231.318H318.42Z" fill="#0F0E10"/>
<path d="M312.933 176.296L306.891 181.626C305.153 177.964 302.585 175.372 298.697 174.329C296.28 173.67 293.711 173.839 291.4 174.809C286.668 176.737 283.561 181.633 284.037 186.428C284.583 191.96 288.336 196.112 293.746 197.168C298.524 198.103 303.569 195.646 306.084 191.004H296.168V184.326H315.147C317.395 190.462 311.001 200.799 303.02 203.92C298.241 205.733 292.944 205.615 288.252 203.59C283.559 201.565 279.838 197.793 277.879 193.072C275.919 188.352 275.874 183.054 277.754 178.301C279.633 173.548 283.289 169.713 287.947 167.609C297.255 163.624 309.024 167.651 312.933 176.296Z" fill="#0F0E10"/>
<path d="M208.011 188.019V166.726H216.145V204.493L189.178 183.127V204.225H180.957V166.584L208.011 188.019Z" fill="#0F0E10"/>
<path d="M167.063 187.998V166.726H175.208V204.475L148.22 183.103V204.225H140.009V166.566C149.053 173.728 157.837 180.688 167.063 187.998Z" fill="#0F0E10"/>
<path d="M262.69 188.016V166.743H270.738V204.441L243.736 183.036V204.232H235.657V166.604L262.69 188.016Z" fill="#0F0E10"/>
<path d="M111.566 166.733V168.888C111.566 175.806 111.566 182.724 111.566 189.642C111.566 192.846 113.324 195.368 116.219 196.466C119.113 197.564 122.126 196.814 124.273 194.493C125.431 193.263 126.056 191.626 126.01 189.937C126.01 182.731 126.045 175.528 126.076 168.321C126.076 167.866 126.129 167.407 126.17 166.772H134.162C134.197 167.467 134.259 168.068 134.259 168.686C134.259 175.66 134.28 182.637 134.259 189.611C134.239 197.53 128.234 204.298 120.659 204.976C112.202 205.733 105.075 200.514 103.564 192.443C103.452 191.819 103.395 191.186 103.394 190.552C103.394 182.998 103.394 175.447 103.394 167.897C103.394 167.55 103.449 167.202 103.491 166.733H111.566Z" fill="#0F0E10"/>
<path d="M321.982 195.098C324.484 196.231 326.603 197.349 328.838 198.152C329.552 198.41 330.324 198.471 331.07 198.326C331.816 198.182 332.51 197.838 333.077 197.332C334.967 195.744 335.078 193.058 333.16 191.467C332.02 190.518 330.669 189.816 329.373 189.069C327.326 187.888 325.158 186.898 323.202 185.595C319.032 182.815 317.642 178.944 318.9 174.371C320.161 169.854 324.234 166.432 328.768 166.161C333.476 165.876 337.646 167.106 341.089 170.768L336.885 176.043C334.765 175.177 332.906 174.093 330.905 173.676C328.153 173.103 325.895 175.066 326.287 177.551C326.546 178.701 327.211 179.72 328.16 180.421C329.685 181.522 331.489 182.235 333.167 183.124C334.338 183.746 335.54 184.319 336.642 185.028C341.051 187.839 342.799 191.894 341.663 196.516C341.069 198.851 339.773 200.947 337.949 202.521C336.125 204.096 333.861 205.071 331.464 205.317C326.45 205.758 320.728 203.621 317.913 200.192L321.982 195.098Z" fill="#0F0E10"/>
<path d="M221.844 166.705H229.79V204.232H221.844V166.705Z" fill="#0F0E10"/>
</svg>
