<svg width="400" height="400" viewBox="0 0 400 400" fill="none" xmlns="http://www.w3.org/2000/svg">
<rect opacity="0.01" width="400" height="400" fill="#0F0E10"/>
<g clip-path="url(#clip0)">
<path d="M283.364 186.654C283.103 185.781 282.916 185.13 282.711 184.498C281.909 182.026 278.982 180.818 276.539 181.171C273.704 181.58 271.746 183.885 271.541 186.896C271.448 188.216 271.485 189.48 271.896 190.743C272.716 193.29 275.028 194.926 277.732 194.74C280.473 194.535 282.357 193.271 283.047 190.279C283.27 189.257 283.345 189.201 284.427 189.201C285.079 189.201 285.732 189.219 286.385 189.238C287.447 189.257 287.764 189.572 287.597 190.595C287.075 193.662 285.639 196.19 282.748 197.546C278.944 199.349 275.122 199.294 271.467 197.063C267.551 194.684 266.078 189.944 266.73 186.208C267.476 181.896 269.863 178.922 274.096 177.602C277.676 176.487 282.674 177.082 285.527 180.52C286.702 181.933 287.354 183.606 287.597 185.409C287.709 186.19 287.522 186.394 286.702 186.468C285.62 186.524 284.501 186.58 283.364 186.654Z" fill="#0F0E10"/>
<path d="M143.769 186.431C142.464 186.487 141.233 186.561 140.002 186.58C139.462 186.58 139.275 186.134 139.238 185.688C138.865 182.305 135.434 180.595 132.413 181.227C129.485 181.84 128.068 184.033 127.695 186.747C127.453 188.531 127.676 190.279 128.59 191.877C129.765 193.922 131.63 194.777 133.886 194.702C136.273 194.609 138.119 193.55 138.995 191.189C139.126 190.818 139.182 190.409 139.256 190.018C139.368 189.442 139.685 189.145 140.282 189.163C141.084 189.182 141.904 189.163 142.706 189.201C143.639 189.238 143.825 189.498 143.732 190.427C143.303 194.702 140.17 197.844 135.788 198.531C132.226 199.089 129.038 198.364 126.315 196.041C124.6 194.572 123.593 192.658 123.089 190.427C122.586 188.234 122.716 186.115 123.462 184.033C124.693 180.576 127.136 178.327 130.697 177.435C133.55 176.728 136.385 176.896 139.033 178.308C141.942 179.851 143.359 182.379 143.788 185.539C143.862 185.762 143.806 185.985 143.769 186.431Z" fill="#0F0E10"/>
<path d="M188.988 185.335C188.988 183.141 188.988 181.097 188.988 179.071C188.988 178.755 188.914 178.42 189.026 178.16C189.137 177.9 189.436 177.547 189.66 177.528C190.685 177.454 191.711 177.491 192.736 177.491C193.24 177.491 193.464 177.788 193.464 178.271C193.464 178.494 193.464 178.699 193.464 178.922C193.464 184.926 193.464 190.948 193.464 196.952C193.464 197.342 193.408 197.732 193.37 198.29C192.009 198.29 190.722 198.309 189.454 198.253C189.287 198.253 189.082 197.825 189.007 197.565C188.914 197.305 188.951 196.989 188.932 196.636C188.746 196.729 188.653 196.747 188.597 196.803C185.706 200.204 179.105 199.126 177.632 193.848C176.998 191.543 177.129 189.331 178.005 187.119C179.721 182.825 185.762 181.859 188.597 185.112C188.653 185.186 188.746 185.204 188.988 185.335ZM188.988 190.985C188.988 190.651 189.007 190.297 188.988 189.963C188.858 188.439 187.683 187.1 186.247 186.803C184.532 186.45 183.021 187.1 182.294 188.532C181.772 189.591 181.604 190.725 181.79 191.877C182.35 195.186 185.128 195.818 187.235 194.703C188.709 193.922 189.063 192.528 188.988 190.985Z" fill="#0F0E10"/>
<path d="M150.464 185.186C150.762 184.926 150.949 184.777 151.135 184.628C153.056 183.03 155.237 182.751 157.494 183.643C159.713 184.535 160.589 186.413 160.627 188.68C160.683 191.487 160.645 194.312 160.645 197.137C160.645 198.197 160.515 198.327 159.489 198.327C158.799 198.327 158.128 198.327 157.438 198.327C156.319 198.308 156.189 198.197 156.189 197.119C156.189 194.981 156.189 192.844 156.189 190.706C156.189 190.186 156.189 189.647 156.133 189.126C155.983 187.788 155.182 186.896 154.025 186.766C152.627 186.617 151.247 187.323 150.855 188.513C150.613 189.275 150.464 190.074 150.445 190.874C150.389 192.937 150.426 195.019 150.426 197.1C150.426 198.216 150.315 198.308 149.196 198.327C148.45 198.327 147.704 198.308 146.958 198.327C146.305 198.346 145.97 198.048 145.97 197.398C145.97 197.175 145.97 196.97 145.97 196.747C145.97 190.836 145.97 184.926 145.97 179.015C145.97 177.584 146.082 177.472 147.499 177.472C148.114 177.472 148.748 177.454 149.364 177.472C150.296 177.491 150.426 177.621 150.426 178.569C150.445 180.428 150.426 182.286 150.426 184.145C150.408 184.442 150.426 184.74 150.464 185.186Z" fill="#0F0E10"/>
<path d="M211.682 192.23C212.074 193.996 212.988 194.888 214.554 195.186C216.176 195.483 217.612 195.204 218.526 193.699C218.936 193.011 219.44 192.844 220.148 192.955C220.67 193.03 221.192 193.067 221.715 193.141C222.46 193.253 222.647 193.531 222.367 194.219C221.416 196.617 219.663 198.03 217.109 198.55C215.393 198.903 213.789 198.736 212.167 198.197C209.407 197.286 207.804 195.39 207.337 192.528C206.797 189.108 208.121 186.022 210.974 184.331C214.461 182.268 219.458 183.011 221.621 186.524C222.554 188.048 222.666 189.721 222.703 191.431C222.721 191.989 222.367 192.175 221.864 192.175C220.838 192.175 219.812 192.175 218.787 192.175C216.773 192.175 214.759 192.175 212.726 192.175C212.409 192.175 212.074 192.212 211.682 192.23ZM211.981 189.108C214.05 189.108 216.064 189.108 218.06 189.108C218.19 187.788 216.81 186.543 215.095 186.505C213.528 186.468 212.148 187.565 211.981 189.108Z" fill="#0F0E10"/>
<path d="M288.938 190.91C289.125 186.171 292.202 183.122 297.143 183.197C301.731 183.252 304.975 186.133 304.957 190.966C304.938 195.873 301.731 198.661 297.125 198.717C292.239 198.81 289.05 195.762 288.938 190.91ZM300.313 190.985C300.313 190.557 300.332 190.111 300.313 189.684C300.202 188.048 299.008 186.858 297.311 186.654C295.708 186.449 294.346 187.397 293.805 188.94C293.321 190.353 293.377 191.728 293.861 193.122C294.309 194.442 295.279 195.13 296.64 195.26C297.927 195.39 299.008 194.962 299.773 193.829C300.351 192.955 300.369 191.97 300.313 190.985Z" fill="#0F0E10"/>
<path d="M239.281 198.308C237.957 198.308 236.763 198.345 235.551 198.29C234.992 198.271 234.898 197.788 234.898 197.342C234.88 196.133 234.898 194.925 234.898 193.717C234.898 192.267 234.917 190.799 234.88 189.349C234.861 188.067 234.19 187.119 233.201 186.84C231.933 186.487 230.498 186.97 229.901 188.122C229.565 188.791 229.323 189.572 229.304 190.316C229.23 192.602 229.286 194.888 229.267 197.193C229.267 198.308 229.174 198.383 228.036 198.345C227.346 198.327 226.675 198.345 225.985 198.327C224.941 198.308 224.791 198.178 224.791 197.137C224.791 193.606 224.791 190.074 224.791 186.542C224.791 185.892 224.773 185.241 224.791 184.591C224.81 183.736 224.959 183.587 225.854 183.568C226.638 183.55 227.402 183.568 228.185 183.55C229.118 183.531 229.192 183.587 229.267 184.498C229.286 184.665 229.304 184.851 229.36 185.167C230.367 184.052 231.542 183.513 232.884 183.271C236.446 182.658 239.355 184.925 239.374 188.345C239.392 191.357 239.392 194.349 239.392 197.36C239.374 197.639 239.318 197.918 239.281 198.308Z" fill="#0F0E10"/>
<path d="M321.217 183.587C321.273 184.014 321.366 184.349 321.366 184.665C321.385 188.847 321.385 193.029 321.366 197.211C321.366 198.327 321.273 198.382 320.117 198.345C319.52 198.327 318.942 198.345 318.346 198.345C317.022 198.345 317.022 198.345 316.779 196.933C316.462 197.174 316.182 197.397 315.903 197.602C313.833 199.052 311.614 199.163 309.395 198.048C307.866 197.286 307.083 195.836 307.027 194.182C306.933 190.929 306.989 187.676 306.989 184.423C306.989 184.182 307.064 183.959 307.138 183.643C308.407 183.643 309.656 183.587 310.868 183.661C311.483 183.698 311.465 184.275 311.483 184.739C311.483 186.784 311.483 188.829 311.483 190.873C311.483 191.524 311.465 192.174 311.502 192.825C311.539 194.033 312.173 194.907 313.162 195.13C314.448 195.446 315.903 194.907 316.332 193.773C316.667 192.899 316.854 191.914 316.891 190.985C316.966 188.977 316.91 186.97 316.91 184.944C316.91 183.661 316.984 183.587 318.308 183.587C319.203 183.587 320.136 183.587 321.217 183.587Z" fill="#0F0E10"/>
<path d="M259.215 188.569C258.021 188.624 256.958 188.699 255.877 188.662C255.69 188.662 255.448 188.253 255.317 187.992C254.571 186.468 252.203 185.743 250.749 186.691C250.413 186.914 250.059 187.453 250.115 187.788C250.171 188.141 250.637 188.569 251.028 188.699C251.793 188.959 252.613 188.996 253.397 189.163C254.404 189.368 255.41 189.517 256.38 189.851C258.469 190.595 259.438 191.951 259.457 193.903C259.476 195.688 258.301 197.36 256.417 198.067C253.881 199.015 251.308 198.996 248.791 197.937C247.206 197.267 246.087 196.096 245.658 194.368C245.415 193.401 245.546 193.16 246.59 193.067C247.056 193.03 247.523 193.067 247.989 193.03C248.903 192.937 249.537 193.16 249.816 194.145C249.928 194.498 250.338 194.833 250.693 195.056C251.793 195.743 253.024 195.613 254.217 195.372C254.776 195.26 255.224 194.87 255.205 194.182C255.187 193.494 254.72 193.215 254.124 193.104C252.912 192.862 251.681 192.639 250.469 192.398C249.984 192.305 249.499 192.212 249.033 192.044C247 191.375 245.975 190.13 245.882 188.253C245.788 186.468 246.926 184.628 248.679 183.903C251.345 182.807 254.031 182.825 256.585 184.163C258.17 185.037 259.14 186.45 259.215 188.569Z" fill="#0F0E10"/>
<path d="M345.964 194.517C345.964 195.539 346.113 196.394 345.926 197.175C345.74 198.03 344.789 198.197 344.08 198.401C342.738 198.81 341.339 198.922 339.959 198.457C338.747 198.048 337.927 197.268 337.61 196.041C337.461 195.446 337.423 194.814 337.405 194.201C337.386 192.156 337.405 190.112 337.405 188.067C337.405 187.695 337.405 187.342 337.405 186.877C336.92 186.822 336.528 186.766 336.137 186.747C335.614 186.729 335.335 186.487 335.335 185.948C335.335 185.613 335.353 185.26 335.335 184.926C335.316 184.238 335.652 183.866 336.323 183.829C337.535 183.755 338.15 183.048 338.374 181.915C338.449 181.561 338.598 181.208 338.691 180.855C338.934 179.74 338.99 179.684 340.183 179.684C341.899 179.665 341.899 179.665 341.899 181.357C341.899 182.026 341.899 182.695 341.899 183.569C342.85 183.569 343.651 183.569 344.435 183.569C345.889 183.569 345.982 183.662 345.982 185.074C345.982 185.26 345.982 185.446 345.982 185.632C345.945 186.543 345.777 186.729 344.882 186.747C343.95 186.766 343.036 186.747 342.01 186.747C341.955 187.193 341.899 187.509 341.899 187.844C341.88 189.703 341.88 191.561 341.899 193.42C341.899 194.851 342.663 195.409 344.08 195.056C344.64 194.926 345.181 194.74 345.964 194.517Z" fill="#0F0E10"/>
<path d="M164.43 223.643C164.766 222.862 165.139 222.081 165.456 221.301C167.433 216.487 169.409 211.672 171.349 206.858C171.628 206.152 172.113 205.948 172.784 205.966C173.866 205.966 174.09 206.264 173.698 207.267C173.12 208.698 172.505 210.13 171.908 211.561C169.931 216.245 167.955 220.91 165.978 225.594C165.512 226.71 164.337 227.211 163.218 226.691C162.883 226.542 162.64 226.078 162.472 225.687C161.652 223.791 160.869 221.858 160.067 219.944C158.333 215.799 156.58 211.672 154.827 207.527C154.622 207.044 154.137 206.505 154.846 206.059C155.498 205.65 156.71 206.041 157.009 206.728C157.288 207.342 157.568 207.974 157.829 208.606C159.843 213.401 161.838 218.215 163.834 223.011C163.927 223.234 164.057 223.438 164.169 223.643C164.262 223.624 164.356 223.624 164.43 223.643Z" fill="#0F0E10"/>
<path d="M241.109 216.449C241.239 214.684 242.731 212.936 244.708 212.342C246.386 211.84 248.083 211.858 249.724 212.509C251.682 213.271 252.502 214.814 252.577 216.784C252.651 218.977 252.596 221.171 252.596 223.382C252.596 225.018 252.838 225.241 254.442 225C254.591 224.981 254.74 225 254.87 225C255.337 225.91 254.945 226.672 253.901 226.914C252.409 227.267 251.309 226.728 250.619 225.316C250.544 225.148 250.451 225 250.339 224.776C250.134 224.925 249.929 225.018 249.798 225.167C247.971 227.007 245.752 227.49 243.29 226.877C241.836 226.505 240.904 225.501 240.549 223.996C240.232 222.639 240.587 221.487 241.575 220.52C242.582 219.498 243.924 219.145 245.248 218.81C246.572 218.475 247.915 218.252 249.258 217.992C250.19 217.806 250.414 217.546 250.321 216.598C250.171 215.13 249.034 214.052 247.561 213.921C245.584 213.754 244.018 214.312 243.179 216.282C242.824 217.081 242.265 217.1 241.109 216.449ZM250.227 219.609C249.407 219.776 248.717 219.888 248.046 220.037C246.889 220.297 245.733 220.52 244.614 220.855C243.421 221.208 242.824 222.137 242.899 223.197C242.955 224.126 243.775 225.018 244.82 225.185C246.516 225.464 247.99 224.944 249.127 223.698C250.097 222.658 250.432 221.319 250.227 219.609Z" fill="#0F0E10"/>
<path d="M328.938 185.185C329.74 184.256 330.616 183.438 331.847 183.327C332.593 183.252 333.395 183.327 334.122 183.494C334.439 183.568 334.905 184.07 334.905 184.368C334.868 185.483 334.682 186.617 334.532 187.825C333.954 187.658 333.525 187.527 333.097 187.416C330.766 186.858 329.013 188.011 328.845 190.371C328.696 192.565 328.752 194.758 328.696 196.951C328.696 197.341 328.64 197.732 328.602 198.289C327.279 198.289 326.011 198.327 324.761 198.252C324.556 198.234 324.276 197.806 324.239 197.527C324.164 196.895 324.202 196.226 324.202 195.576C324.202 192.026 324.202 188.457 324.202 184.907C324.202 183.624 324.276 183.568 325.582 183.55C326.234 183.55 326.887 183.55 327.54 183.55C328.584 183.568 328.621 183.587 328.696 184.628C328.714 184.758 328.733 184.869 328.77 184.981C328.77 185.055 328.808 185.074 328.938 185.185Z" fill="#0F0E10"/>
<path d="M206.592 187.732C206.088 187.62 205.622 187.528 205.193 187.416C202.825 186.784 200.96 188.178 200.923 190.632C200.885 192.732 200.923 194.832 200.904 196.951C200.904 198.29 200.83 198.345 199.468 198.345C198.76 198.345 198.032 198.327 197.324 198.383C196.652 198.438 196.41 198.141 196.429 197.528C196.429 197.1 196.429 196.654 196.429 196.226C196.429 192.453 196.429 188.68 196.429 184.888C196.429 184.498 196.485 184.107 196.522 183.624C197.865 183.624 199.114 183.606 200.363 183.643C200.55 183.643 200.774 183.977 200.867 184.2C200.96 184.442 200.941 184.739 200.979 185.148C201.874 184.219 202.769 183.513 203.962 183.234C204.839 183.029 205.641 183.234 206.405 183.531C206.666 183.624 206.965 184.033 206.965 184.293C206.983 185.241 206.89 186.208 206.815 187.156C206.815 187.323 206.722 187.453 206.592 187.732Z" fill="#0F0E10"/>
<path d="M175.171 187.992C175.171 191.022 175.171 194.052 175.171 197.1C175.171 198.345 175.097 198.383 173.847 198.345C173.195 198.327 172.542 198.345 171.889 198.345C170.976 198.327 170.752 198.067 170.752 197.174C170.789 194.145 170.845 191.115 170.845 188.085C170.845 184.925 170.789 181.766 170.752 178.624C170.752 177.806 171.013 177.528 171.871 177.509C172.579 177.49 173.307 177.49 174.015 177.509C175.004 177.528 175.153 177.658 175.171 178.643C175.19 180.65 175.171 182.676 175.171 184.684C175.171 185.762 175.171 186.877 175.171 187.992Z" fill="#0F0E10"/>
<path d="M137.914 219.628C137.951 223.941 134.8 227.119 130.38 227.119C126.241 227.119 123.108 223.903 123.071 219.665C123.033 215.093 126.539 211.803 130.921 211.989C134.091 212.119 138.1 214.796 137.914 219.628ZM125.588 219.535C125.513 219.554 125.439 219.573 125.383 219.591C125.681 220.651 125.849 221.766 126.315 222.751C127.192 224.591 128.795 225.372 130.809 225.242C132.73 225.112 134.184 224.238 134.912 222.398C135.527 220.855 135.658 219.257 135.247 217.658C134.781 215.818 133.7 214.424 131.779 214.034C129.709 213.625 127.788 213.978 126.52 215.911C125.812 216.989 125.532 218.216 125.588 219.535Z" fill="#0F0E10"/>
<path d="M207.077 219.535C207.021 215.298 210.322 211.859 214.741 212.008C218.489 212.119 221.995 214.851 221.957 219.517C221.92 224.034 218.955 227.082 214.424 227.119C210.191 227.138 207.058 223.885 207.077 219.535ZM214.424 213.903C212.317 213.755 210.564 215.279 209.986 216.933C209.389 218.662 209.333 220.372 209.967 222.1C210.657 223.978 212.018 225.037 213.976 225.223C216.177 225.428 217.911 224.461 218.787 222.621C219.515 221.097 219.645 219.517 219.272 217.844C218.694 215.279 217.072 213.903 214.424 213.903Z" fill="#0F0E10"/>
<path d="M195.684 220.892C195.74 223.569 193.409 226.45 190.835 226.914C189.026 227.249 187.255 227.193 185.539 226.45C183.619 225.613 182.369 224.182 181.773 222.212C181.045 219.833 181.176 217.491 182.5 215.316C183.749 213.271 185.651 212.193 188.038 212.045C189.437 211.952 190.817 212.007 192.122 212.677C194.155 213.699 195.236 215.353 195.646 217.509C195.74 217.955 195.74 218.383 195.143 218.532C194.378 218.717 193.726 218.513 193.521 218.03C193.465 217.881 193.446 217.732 193.409 217.584C192.886 215.372 191.339 214.052 189.157 213.959C186.77 213.866 184.831 215.167 184.159 217.342C183.619 219.089 183.712 220.818 184.476 222.491C185.316 224.331 187.124 225.26 189.493 225.074C191.376 224.926 192.831 223.699 193.334 221.822C193.763 220.316 194.099 220.167 195.684 220.892Z" fill="#0F0E10"/>
<path d="M141.251 214.201C140.58 214.164 140.151 214.126 139.741 214.108C139.237 214.089 139.032 213.81 139.014 213.327C139.014 212.825 139.144 212.472 139.722 212.435C140.151 212.398 140.58 212.379 141.158 212.342C141.195 211.691 141.251 211.097 141.233 210.483C141.214 208.978 141.699 207.695 142.836 206.673C144.701 205.019 148.822 205.149 150.072 207.9C150.314 208.42 150.519 208.866 149.848 209.238C149.214 209.591 148.729 209.517 148.356 208.885C147.666 207.732 146.715 207.268 145.391 207.491C144.496 207.639 143.937 208.178 143.806 208.978C143.62 210.019 143.638 211.115 143.564 212.323C144.179 212.361 144.701 212.398 145.205 212.398C145.801 212.416 146.379 212.416 146.976 212.398C147.573 212.398 147.797 212.714 147.778 213.29C147.778 213.829 147.517 214.089 146.976 214.089C146.268 214.089 145.54 214.089 144.832 214.108C144.496 214.108 144.16 214.164 143.75 214.201C143.713 214.665 143.657 215.056 143.657 215.446C143.657 218.625 143.657 221.822 143.657 225C143.657 226.766 143.209 227.1 141.27 226.543C141.251 222.509 141.251 218.42 141.251 214.201Z" fill="#0F0E10"/>
<path d="M163.404 190.948C163.404 188.996 163.404 187.044 163.404 185.093C163.404 183.568 163.404 183.568 164.971 183.568C165.567 183.568 166.146 183.568 166.742 183.568C167.693 183.587 167.861 183.754 167.88 184.721C167.898 185.427 167.88 186.152 167.88 186.858C167.88 190.204 167.88 193.531 167.88 196.877C167.88 198.215 167.768 198.308 166.463 198.327C165.847 198.327 165.213 198.327 164.598 198.345C163.479 198.382 163.404 198.327 163.386 197.156C163.404 195.092 163.404 193.029 163.404 190.948Z" fill="#0F0E10"/>
<path d="M205.716 224.424C206.163 225.502 206.07 226.078 205.175 226.413C204.205 226.766 203.142 227.063 202.135 227.082C200.215 227.1 199.096 225.911 199.059 223.978C199.021 221.171 199.04 218.346 199.04 215.52C199.04 215.13 199.003 214.74 198.965 214.201C198.462 214.164 197.996 214.182 197.567 214.071C197.287 213.996 196.914 213.736 196.877 213.513C196.858 213.29 197.175 212.844 197.38 212.807C198.928 212.602 199.357 211.506 199.599 210.223C199.655 209.889 199.748 209.554 199.804 209.219C199.898 208.773 200.14 208.494 200.644 208.532C201.184 208.569 201.278 208.941 201.278 209.368C201.278 210.297 201.278 211.208 201.278 212.286C201.93 212.323 202.471 212.379 203.012 212.398C203.571 212.416 204.131 212.398 204.69 212.398C205.193 212.398 205.529 212.584 205.529 213.141C205.529 213.699 205.287 214.033 204.709 214.071C203.963 214.089 203.217 214.089 202.471 214.089C202.135 214.089 201.8 214.126 201.389 214.145C201.352 214.498 201.278 214.796 201.278 215.093C201.278 217.825 201.259 220.539 201.278 223.271C201.278 224.888 202.34 225.576 203.888 225.056C204.522 224.851 205.119 224.647 205.716 224.424Z" fill="#0F0E10"/>
<path d="M226.917 212.546C226.992 213.048 227.067 213.494 227.179 214.163C227.496 213.81 227.701 213.605 227.887 213.382C228.894 212.211 230.852 211.672 232.325 212.155C233.295 212.471 233.425 213.085 232.791 214.423C232.549 214.386 232.269 214.404 232.027 214.312C229.603 213.419 227.775 215.315 227.234 217.211C227.085 217.713 227.048 218.252 227.048 218.772C227.029 221.04 227.048 223.289 227.029 225.557C227.029 225.91 226.861 226.542 226.675 226.579C226.134 226.709 225.519 226.691 224.959 226.542C224.773 226.486 224.661 225.91 224.642 225.557C224.605 224.033 224.624 222.527 224.624 221.003C224.624 218.642 224.624 216.3 224.624 213.94C224.624 212.416 224.773 212.286 226.283 212.378C226.47 212.434 226.638 212.49 226.917 212.546Z" fill="#0F0E10"/>
<path d="M237.323 212.583C237.36 212.936 237.435 213.289 237.453 213.661C237.453 217.583 237.453 221.524 237.453 225.446C237.453 226.635 236.558 227.23 235.477 226.654C235.234 226.524 235.066 226.059 235.066 225.743C235.029 223.884 235.048 222.025 235.048 220.167C235.048 218.085 235.048 216.022 235.048 213.94C235.048 212.434 235.215 212.286 236.707 212.416C236.894 212.434 237.062 212.509 237.323 212.583Z" fill="#0F0E10"/>
<path d="M242.712 181.915C242.525 181.859 242.413 181.822 242.283 181.803C240.81 181.673 240.81 181.673 240.81 180.168C240.81 179.573 240.828 178.997 240.81 178.402C240.81 177.788 241.071 177.472 241.705 177.491C242.768 177.491 243.812 177.491 244.875 177.491C245.415 177.491 245.677 177.751 245.677 178.29C245.677 179.684 245.751 181.078 245.639 182.454C245.49 184.424 243.383 185.985 241.462 185.651C241.313 185.632 241.071 185.558 241.052 185.484C240.959 184.926 240.828 184.331 240.903 183.792C240.94 183.532 241.369 183.216 241.667 183.142C242.301 182.974 242.768 182.751 242.712 181.915Z" fill="#0F0E10"/>
<path d="M176.382 212.509C177.091 212.509 177.725 212.509 178.564 212.509C178.583 217.23 178.564 221.895 178.564 226.542C178.247 226.635 178.079 226.709 177.893 226.728C176.457 226.84 176.289 226.691 176.289 225.241C176.289 221.412 176.289 217.583 176.289 213.754C176.289 213.364 176.345 212.973 176.382 212.509Z" fill="#0F0E10"/>
<path d="M165.586 181.766C163.255 181.766 163.404 181.97 163.404 179.628C163.404 177.286 163.255 177.472 165.567 177.472C165.847 177.472 166.127 177.472 166.407 177.472C167.693 177.472 167.88 177.64 167.898 178.885C167.917 179.442 167.917 180 167.898 180.558C167.88 181.599 167.73 181.747 166.724 181.766C166.332 181.766 165.959 181.766 165.586 181.766Z" fill="#0F0E10"/>
<path d="M237.49 207.528C237.49 207.584 237.49 207.658 237.49 207.714C237.49 208.978 236.819 209.442 235.57 209.015C235.533 208.996 235.514 208.996 235.477 208.978C234.656 208.364 235.122 207.491 235.066 206.747C235.029 206.227 235.421 206.022 235.924 205.966C237.211 205.818 237.49 206.078 237.49 207.528Z" fill="#0F0E10"/>
<path d="M178.733 207.565C178.733 208.959 178.509 209.164 177.204 209.071C176.551 209.034 176.253 208.718 176.29 208.067C176.309 207.751 176.29 207.454 176.29 207.138C176.309 206.134 176.477 205.948 177.484 205.948C178.565 205.93 178.733 206.153 178.733 207.565Z" fill="#0F0E10"/>
<ellipse cx="104.907" cy="185.613" rx="7.64544" ry="7.6208" fill="#0F0E10"/>
<ellipse cx="95.7706" cy="178.736" rx="6.89955" ry="6.8773" fill="#0F0E10"/>
<ellipse cx="84.3948" cy="176.32" rx="6.34012" ry="6.31968" fill="#0F0E10"/>
<ellipse cx="73.1132" cy="178.829" rx="5.87394" ry="5.855" fill="#0F0E10"/>
<ellipse cx="64.1631" cy="185.706" rx="5.50099" ry="5.48326" fill="#0F0E10"/>
<ellipse cx="59.1281" cy="195.93" rx="4.94157" ry="4.92564" fill="#0F0E10"/>
<ellipse cx="58.9416" cy="207.082" rx="4.75509" ry="4.73976" fill="#0F0E10"/>
<ellipse cx="64.1625" cy="217.119" rx="4.19567" ry="4.18214" fill="#0F0E10"/>
<ellipse cx="73.1137" cy="224.182" rx="3.82272" ry="3.8104" fill="#0F0E10"/>
<ellipse cx="84.4888" cy="226.599" rx="3.44977" ry="3.43865" fill="#0F0E10"/>
<ellipse cx="95.6774" cy="224.182" rx="3.07683" ry="3.06691" fill="#0F0E10"/>
<ellipse cx="104.628" cy="217.119" rx="2.89035" ry="2.88103" fill="#0F0E10"/>
</g>
<defs>
<clipPath id="clip0">
<rect width="292" height="60.0928" fill="white" transform="translate(54 170)"/>
</clipPath>
</defs>
</svg>
