<svg width="400" height="400" viewBox="0 0 400 400" fill="none" xmlns="http://www.w3.org/2000/svg">
<rect opacity="0.01" width="400" height="400" fill="#0F0E10"/>
<g clip-path="url(#clip0)">
<path d="M364.82 204.857C362.008 206.672 360.031 206.147 357.846 202.837C350.782 208.055 343.918 208.139 337.724 201.404C333.354 196.655 332.431 188.656 335.625 182.723C339.872 174.822 346.738 173.383 355.094 175.589C355.18 174.658 355.303 173.911 355.308 173.161C355.333 169.91 355.345 166.658 355.308 163.404C355.293 161.514 356.178 160.496 358.067 160.628C360.325 160.799 362.583 161.132 364.82 161.408V204.857ZM355.318 189.658C355.318 188.36 355.461 187.037 355.262 185.773C355.147 185.048 354.633 184.109 354.026 183.786C350.822 182.08 346.307 183.115 344.275 185.871C342.089 188.835 342.32 193.321 344.799 196.085C346.46 197.933 349.365 198.627 351.713 197.733C354.254 196.769 355.305 195.173 355.325 192.253C355.323 191.389 355.318 190.516 355.318 189.658Z" fill="#0F0E10"/>
<path d="M192.082 182.779C193.201 183.47 194.155 183.978 195.023 184.606C201.442 189.264 201.41 198.205 194.96 202.863C192.508 204.689 189.549 205.696 186.498 205.743C181.315 205.808 176.13 205.725 170.945 205.791C168.985 205.816 168.273 204.996 168.28 203.062C168.32 189.831 168.32 176.599 168.28 163.366C168.28 161.556 168.998 160.605 170.789 160.632C176.328 160.711 181.887 160.579 187.401 161.001C193.274 161.45 197.581 165.701 198.399 171.252C198.981 175.201 197.225 178.26 194.483 180.865C193.816 181.504 193.033 182.029 192.082 182.779ZM177.515 192.624C177.515 193.997 177.404 195.385 177.572 196.738C177.638 197.266 178.325 198.127 178.746 198.129C181.398 198.147 184.085 198.19 186.694 197.789C188.974 197.438 190.183 195.613 190.637 193.391C191.081 191.215 190.213 189.352 188.38 188.411C186.73 187.591 184.925 187.139 183.086 187.085C177.495 186.919 177.495 187.02 177.515 192.634V192.624ZM182.106 168.39C176.935 168.435 177.522 167.804 177.502 172.785C177.477 179.505 177.502 179.505 184.178 179.237C187.482 179.106 189.511 177.011 189.536 173.709C189.561 170.536 187.567 168.519 184.268 168.407C183.545 168.365 182.825 168.387 182.106 168.387V168.39Z" fill="#0F0E10"/>
<path d="M192.294 238.683C192.874 239.022 193.491 239.368 194.095 239.736C201.371 244.128 201.895 253.671 194.893 258.517C192.572 260.079 189.898 261.028 187.116 261.277C181.673 261.703 176.171 261.398 170.697 261.446C168.941 261.461 168.271 260.658 168.276 258.936C168.303 245.623 168.303 232.309 168.276 218.996C168.276 217.269 168.951 216.472 170.71 216.499C175.898 216.55 181.091 216.429 186.263 216.567C191.991 216.719 196.983 220.702 198.195 225.887C199.298 230.616 197.339 234.185 193.86 237.151C193.358 237.568 192.856 237.954 192.354 238.365C192.334 238.398 192.342 238.497 192.294 238.683ZM177.493 248.104C177.493 249.48 177.343 250.881 177.561 252.219C177.659 252.835 178.444 253.769 178.976 253.812C181.204 253.981 183.442 253.986 185.671 253.827C188.223 253.645 190.142 251.694 190.631 249.104C190.835 248.022 190.666 246.903 190.153 245.931C189.64 244.959 188.813 244.191 187.809 243.755C186.304 243.076 184.505 242.788 182.827 242.745C177.493 242.616 177.493 242.692 177.506 248.104H177.493ZM177.493 229.424C177.493 230.722 177.531 232.019 177.493 233.317C177.451 234.579 177.935 235.215 179.249 235.154C181.256 235.061 183.298 235.228 185.252 234.872C188.983 234.193 190.792 229.808 188.81 226.592C187.475 224.426 185.383 223.999 183.025 224.014C177.493 224.052 177.493 224.012 177.493 229.429V229.424Z" fill="#0F0E10"/>
<path d="M249.972 193.157C252.38 187.707 254.598 182.925 256.592 178.051C257.435 175.988 258.635 175.044 260.835 175.274C261.838 175.38 262.842 175.274 263.86 175.294C266.941 175.332 267.402 176.026 266.138 178.78C263.485 184.566 260.825 190.346 258.155 196.12C254.769 203.476 251.344 210.815 248.015 218.198C247.298 219.796 246.34 220.614 244.561 220.496C243.269 220.41 241.967 220.516 240.67 220.468C238.229 220.379 237.7 219.534 238.713 217.325C240.497 213.45 242.256 209.56 244.142 205.736C244.88 204.239 244.922 202.981 244.185 201.444C240.585 193.949 237.09 186.404 233.563 178.874C232.281 176.132 232.76 175.352 235.746 175.289C241.872 175.163 241.889 175.155 244.441 180.757C246.229 184.695 247.965 188.651 249.972 193.157Z" fill="#0F0E10"/>
<path d="M239.207 258.553C238.623 258.949 238.096 259.295 237.584 259.656C233.187 262.763 228.443 263.162 223.654 260.981C218.92 258.83 217.154 254.488 216.88 249.664C216.579 244.255 216.782 238.809 216.775 233.39C216.775 233.031 216.72 232.574 216.908 232.327C218.83 229.772 221.536 231.264 223.897 231.082C225.402 230.966 225.964 232.092 225.959 233.544C225.944 238.1 225.816 242.667 226.042 247.213C226.122 248.834 226.795 250.601 227.723 251.959C228.944 253.771 230.946 254.304 233.114 253.607C235.392 252.873 237.088 250.611 237.128 247.973C237.208 243.487 237.158 239.001 237.17 234.516C237.17 231.363 237.522 231.019 240.607 230.981C246.284 230.888 246.284 230.888 246.284 236.659C246.284 243.676 246.307 250.694 246.262 257.712C246.262 259.065 246.763 260.764 244.817 261.355C242.612 262.016 240.963 261.322 239.799 259.335C239.618 259.062 239.421 258.801 239.207 258.553Z" fill="#0F0E10"/>
<path d="M307.637 177.894C310.306 176.786 312.584 175.37 315.037 174.911C323.494 173.358 329.746 178.341 330.19 186.972C330.473 192.455 330.265 197.963 330.31 203.459C330.31 205.13 329.525 205.781 327.922 205.773C320.423 205.738 321.116 206.5 321.103 199.349C321.103 195.875 321.166 192.402 321.058 188.933C320.958 185.672 318.84 183.322 316.041 183.127C312.561 182.875 309.995 185.303 309.915 189.148C309.822 193.692 309.897 198.261 309.874 202.817C309.874 205.511 309.598 205.773 306.864 205.776C300.364 205.776 300.75 206.349 300.76 199.717C300.76 192.849 300.745 185.977 300.778 179.106C300.778 177.66 300.314 175.799 302.446 175.415C304.398 175.062 306.405 174.991 307.273 177.455C307.356 177.63 307.481 177.781 307.637 177.894V177.894Z" fill="#0F0E10"/>
<path d="M221.779 192.253C219.115 192.253 216.451 192.225 213.787 192.253C211.672 192.281 211.381 192.824 212.367 194.732C213.967 197.827 217.565 199.152 221.551 198.112C221.897 198.017 222.239 197.904 222.574 197.774C226.769 196.189 226.969 196.272 229.724 199.814C230.627 200.972 230.547 201.886 229.428 202.777C221.634 208.982 209.158 207.594 204.354 198.014C199.003 187.348 206.015 175.231 217.886 174.522C226.004 174.037 233.103 180.942 232.852 189.075C232.777 191.529 232.17 192.19 229.772 192.228C227.107 192.268 224.443 192.228 221.779 192.228V192.253ZM211.905 186.298H224.042C223.217 183.494 221.365 182.007 218.816 181.85C215.645 181.661 213.325 183.044 211.905 186.298Z" fill="#0F0E10"/>
<path d="M259.256 248.038C258.985 251.731 263.232 254.811 266.962 254.205C268.58 253.896 270.151 253.374 271.633 252.65C272.955 252.039 273.861 252.183 274.894 253.226C278.705 257.103 278.547 258.113 273.565 260.526C266.039 264.176 257.166 262.041 252.743 255.523C250.528 252.266 249.562 248.312 250.026 244.393C250.489 240.474 252.349 236.858 255.262 234.215C259.614 230.239 266.581 229.209 272.055 231.731C277.205 234.104 280.258 239.168 280.06 245.001C279.98 247.379 279.488 247.892 277.049 247.904C271.867 247.93 266.681 247.904 261.496 247.919C260.753 247.922 259.988 247.998 259.256 248.038ZM259.102 242.232C263.151 242.232 266.716 242.333 270.269 242.182C271.681 242.124 271.239 241.005 270.733 240.261C269.353 238.241 267.374 237.287 264.963 237.562C262.416 237.847 260.367 239.008 259.102 242.225V242.232Z" fill="#0F0E10"/>
<path d="M266.477 190.466C266.477 181.828 273.473 174.548 281.779 174.527C290.351 174.507 297.418 181.808 297.381 190.643C297.34 199.355 290.201 206.668 281.827 206.579C273.343 206.488 266.467 199.264 266.477 190.466ZM274.84 190.444C274.818 194.642 277.901 198.11 281.722 198.178C285.645 198.249 288.997 194.753 289.022 190.557C289.047 186.362 285.991 183.115 281.957 183.093C277.816 183.072 274.863 186.122 274.84 190.444V190.444Z" fill="#0F0E10"/>
<path d="M203.316 238.926C203.316 232.42 203.316 225.915 203.316 219.41C203.316 216.835 203.632 216.514 206.181 216.517C212.979 216.517 212.518 215.815 212.515 222.757C212.515 234.394 212.515 246.032 212.515 257.669C212.515 261.188 212.264 261.438 208.898 261.435C202.792 261.435 203.321 261.973 203.313 255.841C203.308 250.202 203.309 244.563 203.316 238.926Z" fill="#0F0E10"/>
<g opacity="0.88">
<path d="M49.6348 137C52.7731 137.926 55.9666 138.709 59.0448 139.805C77.5661 146.401 88.3684 159.424 92.8162 178.652C96.1226 192.945 93.466 205.933 84.4775 216.563C72.589 230.624 57.098 238.379 37.8166 235.96C34.5403 235.549 34.2192 234.665 36.3114 232.285C36.8332 231.686 37.2295 230.629 37.1116 229.871C35.7193 220.895 42.1666 215.626 46.499 209.293C47.4297 207.932 47.5627 205.708 47.367 203.961C46.8653 199.592 47.9038 197.065 52.886 196.517C60.1987 195.712 61.4154 193.533 58.4653 186.806C53.7891 176.075 50.6057 165.465 52.6703 153.287C53.5282 148.233 50.0763 142.45 48.5837 137H49.6348Z" fill="#0F0E10"/>
</g>
<g opacity="0.78">
<path opacity="0.8" d="M154.949 172.52C151.909 171.303 148.916 169.943 145.82 168.897C127.191 162.614 110.699 166.179 95.4416 178.561C84.0874 187.772 78.2297 199.649 78.8042 213.594C79.5568 232.042 87.0225 247.751 103.685 257.79C106.52 259.497 107.313 259 107.124 255.832C107.077 255.036 107.413 253.959 107.97 253.433C114.563 247.226 112.706 239.08 113.17 231.403C113.271 229.757 114.527 227.92 115.752 226.665C118.81 223.525 119.55 220.899 115.957 217.378C110.689 212.211 111.07 209.744 117.505 206.271C127.758 200.732 136.762 194.343 142.592 183.471C145.008 178.96 151.269 176.544 155.782 173.174L154.949 172.52Z" fill="#0F0E10"/>
</g>
</g>
<defs>
<clipPath id="clip0">
<rect width="329.817" height="125.355" fill="white" transform="translate(35 137)"/>
</clipPath>
</defs>
</svg>
