<svg width="400" height="400" viewBox="0 0 400 400" fill="none" xmlns="http://www.w3.org/2000/svg">
<rect opacity="0.01" width="400" height="400" fill="#0F0E10"/>
<g clip-path="url(#clip0)">
<path d="M61 235.008L68.7512 228.228C69.5518 228.964 70.3702 229.736 71.2153 230.484C73.2945 232.287 75.861 233.434 78.5907 233.778C81.3204 234.122 84.0907 233.648 86.5515 232.416C91.3701 229.908 92.0728 222.73 87.0497 220.221C84.04 218.707 80.8434 217.573 77.721 216.303C75.672 215.469 73.5697 214.795 71.5533 213.866C60.5434 208.748 60.7717 194.745 67.9001 187.935C75.9923 180.217 94.0655 180.513 100.972 188.437C98.6616 190.898 96.319 193.394 93.8253 196.045C91.3048 193.771 88.648 192.186 85.4129 191.845C82.0592 191.485 78.8537 191.8 76.1702 194.089C72.7305 197.022 72.9084 201.807 76.8018 204.09C79.3816 205.61 82.3142 206.542 85.1045 207.673C87.6961 208.721 90.4419 209.454 92.9149 210.713C105.698 217.152 102.665 233.642 94.6941 239.087C87.619 243.928 79.9331 244.305 71.8913 242.325C67.5769 241.257 64.075 238.84 61 235.708V235.008Z" fill="#0F0E10"/>
<path d="M275.503 130C276.852 130.235 278.193 130.546 279.551 130.689C284.761 131.244 289.977 131.737 295.186 132.274C295.605 132.35 296.016 132.463 296.414 132.612C298.273 137.516 301.087 159.226 300.322 163.688C299.136 162.411 298.033 161.42 297.144 160.271C289.673 150.603 282.223 140.915 274.794 131.208C274.536 130.822 274.304 130.418 274.101 130H275.503Z" fill="#0F0E10"/>
<path d="M206.501 179.952H215.924C216.066 184.138 215.975 188.288 215.992 192.42C215.992 196.618 215.992 200.815 215.992 205.013V218.167C216.998 217.276 217.7 216.772 218.284 216.148C221.718 212.494 225.223 208.902 228.5 205.114C230.326 203 232.286 201.938 235.142 202.19C237.757 202.421 240.408 202.237 243.044 202.237L243.379 202.956L226.996 220.393C232.802 227.366 238.561 234.307 244.681 241.645C240.233 242.367 236.239 241.77 231.931 242.076L215.998 221.821V241.731H206.705C205.872 239.44 205.635 184.266 206.501 179.952Z" fill="#0F0E10"/>
<path d="M280.994 225.909H251.003C251.256 229.75 253.133 232.066 256.027 233.627C260.771 236.183 265.275 235.132 272.16 229.875L278.981 234.898C276.382 238.594 272.499 241.186 268.092 242.168C260.225 244.008 252.916 242.8 246.95 237.071C240.8 231.169 239.472 223.748 241.776 215.819C244.023 208.1 249.524 203.517 257.402 202.012C259.884 201.537 262.541 201.305 265.029 201.632C272.146 202.567 276.866 206.607 279.333 213.384C280.769 217.276 280.745 221.278 280.994 225.909ZM270.458 217.947C270.458 212.292 267.226 209.223 261.583 209.062C255.377 208.887 251.484 212.147 251.205 217.947H270.458Z" fill="#0F0E10"/>
<path d="M202.193 222.661C201.87 234.924 192.704 243.195 179.794 242.874C167.663 242.577 158.871 233.467 159.171 221.518C159.467 209.665 168.956 201.103 181.469 201.4C193.644 201.691 202.505 210.778 202.193 222.661ZM192.215 222.219C192.236 215.525 187.521 210.606 181.01 210.528C174.118 210.448 169.054 215.474 169.116 222.323C169.172 228.678 174.385 234.179 180.6 233.998C187.809 233.799 192.153 228.854 192.215 222.219V222.219Z" fill="#0F0E10"/>
<path d="M100.765 202.217H108.551V191.233H118.55V202.137H128.905C129.91 205.147 129.528 207.777 129.275 210.915L118.621 211.254C118.621 214.074 118.621 216.597 118.621 219.147C118.621 222.412 118.544 225.678 118.669 228.943C118.817 232.915 120.448 234.438 124.359 234.337C125.842 234.299 127.324 233.993 128.831 233.809C129.72 236.24 129.777 238.107 129 241.824C124.003 243.273 118.9 243.673 113.856 241.474C111.187 240.319 109.705 238.045 109.281 235.24C108.887 232.712 108.666 230.16 108.62 227.602C108.522 222.258 108.59 216.915 108.59 211.274L100.768 210.918L100.765 202.217Z" fill="#0F0E10"/>
<path d="M267.513 164.23L300.13 169.396C299.834 171.815 288.032 196.799 285.304 200.685L267.023 164.955L267.513 164.23Z" fill="#0F0E10"/>
<path d="M134.915 202.454H144.493V208.032C150.705 201.688 154.332 200.314 160.069 202.323V211.339C158.45 211.238 156.977 211.167 155.506 211.042C148.327 210.478 144.534 216.243 144.585 221.491C144.644 227.319 144.606 233.149 144.585 238.976C144.585 239.781 144.475 240.588 144.395 241.681H134.906L134.915 202.454Z" fill="#0F0E10"/>
<path d="M300.615 237.715C295.39 227.218 290.168 216.721 284.7 205.731L311.177 195.537C308.336 210.036 305.359 223.902 301.617 237.593L300.615 237.715Z" fill="#0F0E10"/>
<path d="M298.266 165.813L263.475 160.001L272.35 132.592L298.266 165.813Z" fill="#0F0E10"/>
<path d="M338.484 178.64L305.632 166.682L329.206 149.331C332.319 159.127 335.284 168.508 338.484 178.64Z" fill="#0F0E10"/>
<path d="M302.47 165.756V132.618L325.249 149.162L302.47 165.756Z" fill="#0F0E10"/>
<path d="M258.553 161.171L236.159 165.822L265.438 133.616L265.936 133.869C263.49 142.905 261.046 151.944 258.553 161.171Z" fill="#0F0E10"/>
<path d="M259.342 168.423L264.271 192.341L238.518 187.701L259.342 168.423Z" fill="#0F0E10"/>
<path d="M336.099 182.677L313.981 192.293C311.268 184.919 308.599 177.666 305.616 169.598L336.099 182.677Z" fill="#0F0E10"/>
<path d="M303.901 170.266L310.884 192.213C304.064 195.728 296.817 198.032 289.368 200.718L303.207 170.207L303.901 170.266Z" fill="#0F0E10"/>
<path d="M263.36 133.434L237.029 160.888L236.581 160.71C239.526 152.656 242.467 144.599 245.477 136.406L262.998 132.787C263.12 133.004 263.23 133.218 263.36 133.434Z" fill="#0F0E10"/>
<path d="M281.946 200.62L266.568 192.361C265.571 183.455 264.59 174.713 263.603 165.961L264.133 165.712L282.435 200.091C282.272 200.266 282.109 200.444 281.946 200.62Z" fill="#0F0E10"/>
<path d="M232.417 163.892L220.556 153.469L241.137 139.85L241.662 140.236L232.417 163.892Z" fill="#0F0E10"/>
<path d="M322.084 209.927L316.619 194.787L337.29 184.527L337.708 184.996L322.084 209.927Z" fill="#0F0E10"/>
<path d="M258.371 165.347L236.363 184.83V169.464L258.158 164.807L258.371 165.347Z" fill="#0F0E10"/>
<path d="M213.619 260.161C213.658 254.244 217.688 250.326 223.603 250.456C229.193 250.578 233.157 254.47 233.211 259.893C233.273 265.881 229.122 270.022 223.129 269.957C217.379 269.892 213.581 265.982 213.619 260.161ZM229.89 260.232C229.928 256.393 227.165 253.404 223.497 253.291C219.888 253.19 216.946 256.144 216.834 259.982C216.715 263.96 219.669 267.158 223.411 267.107C227.052 267.063 229.854 264.079 229.89 260.232Z" fill="#0F0E10"/>
<path d="M248.819 263.813V251.306L251.692 251.06V269.227L247.885 269.462L239.01 255.869L238.417 255.976V269.082L235.508 269.361V251.285H239.677L248.137 264.032L248.819 263.813Z" fill="#0F0E10"/>
<path d="M141.78 251.142H145.73C148.535 255.393 151.347 259.648 154.166 263.907L154.786 263.856V251.264L157.751 251.109V269.149L154.018 269.446C150.993 264.83 148.025 260.306 145.06 255.791L144.425 255.957V269.164H141.795L141.78 251.142Z" fill="#0F0E10"/>
<path d="M121.491 260.178C121.491 266.073 117.476 270.022 111.56 269.953C105.926 269.891 101.813 265.782 101.816 260.219C101.816 254.549 106.119 250.396 111.922 250.453C117.725 250.509 121.491 254.339 121.491 260.178ZM111.824 253.282C108.201 253.246 105.33 256.158 105.247 259.958C105.158 264.01 107.916 267.062 111.691 267.106C115.4 267.151 118.392 264.001 118.345 260.098C118.282 256.366 115.371 253.32 111.809 253.282H111.824Z" fill="#0F0E10"/>
<path d="M161.379 269.414V251.252C164.789 250.92 168.143 250.626 171.413 251.412C175.683 252.443 178.251 256.435 177.895 260.948C177.707 263.054 176.803 265.033 175.335 266.554C173.866 268.074 171.921 269.045 169.824 269.304C168.897 269.395 167.965 269.43 167.034 269.408C165.29 269.423 163.552 269.414 161.379 269.414ZM164.486 254.209V266.38C168.258 266.831 171.621 266.775 173.717 263.361C174.392 262.319 174.728 261.093 174.678 259.851C174.629 258.61 174.197 257.415 173.442 256.429C171.179 253.372 167.87 253.654 164.486 254.209Z" fill="#0F0E10"/>
<path d="M213.328 173.532C213.625 172.326 213.72 171.771 213.894 171.243C215.576 166.178 217.269 161.117 219.155 155.465L231.001 165.757C225.251 168.764 219.466 170.703 213.328 173.532Z" fill="#0F0E10"/>
<path d="M123.836 251.199H126.398C126.561 251.638 126.778 251.956 126.781 252.276C126.828 255.542 126.843 258.783 126.861 262.037C126.861 263.735 127.213 265.302 128.776 266.276C129.388 266.68 130.094 266.917 130.825 266.964C131.556 267.011 132.287 266.867 132.945 266.546C133.604 266.224 134.167 265.737 134.58 265.131C134.993 264.525 135.241 263.822 135.3 263.091C135.522 261.013 135.377 258.911 135.386 256.821C135.386 255.091 135.386 253.363 135.386 251.395L138.647 251.012C138.704 255.637 139.214 260.024 138.351 264.338C137.592 268.197 134.582 270.153 130.641 269.945C126.84 269.743 124.225 267.621 123.91 263.735C123.584 259.727 123.836 255.652 123.836 251.199Z" fill="#0F0E10"/>
<path d="M195.029 269.111L191.888 269.408C191.117 268.022 190.406 266.736 189.629 265.335H181.795C181.157 266.57 180.528 267.781 179.805 269.194H176.525L184.354 251.231H187.319C189.842 257.13 192.36 262.993 195.029 269.111ZM186.133 255.631L185.38 255.533C184.597 257.673 183.814 259.817 182.981 262.102H188.523C187.633 259.686 186.886 257.65 186.133 255.631Z" fill="#0F0E10"/>
<path d="M234.221 185.128L217.251 176.471C219.199 174.349 221.812 173.987 223.979 172.864C226.147 171.742 228.427 170.87 231.173 169.646C232.184 174.791 233.136 179.618 234.221 185.128Z" fill="#0F0E10"/>
<path d="M89.0039 251.163H100.488V253.859H92.2093V258.608L99.919 259.03C99.9901 259.754 100.055 260.392 100.159 261.405L92.1352 261.823L91.9365 265.573C91.8772 266.71 91.8209 267.847 91.7527 269.135L89.0069 269.343L89.0039 251.163Z" fill="#0F0E10"/>
<path d="M191.79 253.668V251.264H205.89V253.662L200.6 254.167V269.081L197.635 269.241V254.185L191.79 253.668Z" fill="#0F0E10"/>
<path d="M309.834 215.599C311.299 210.053 312.761 204.511 314.457 198.084L320.123 210.05L310.436 216.044L309.834 215.599Z" fill="#0F0E10"/>
<path d="M208.471 251.198H211.377V269.152H208.471V251.198Z" fill="#0F0E10"/>
</g>
<defs>
<clipPath id="clip0">
<rect width="277.485" height="139.96" fill="white" transform="translate(61 130)"/>
</clipPath>
</defs>
</svg>
