<svg width="140" height="140" viewBox="0 0 140 140" fill="none" xmlns="http://www.w3.org/2000/svg">
<rect opacity="0.01" width="140" height="140" fill="#0B0B0C"/>
<g filter="url(#filter0_d)">
<rect x="30" y="30" width="80" height="80" rx="12" fill="#1769FF"/>
</g>
<path d="M49.0015 57.0016C52.908 57.009 56.816 56.9749 60.7218 57.0483C61.9894 57.0721 63.297 57.2262 64.5075 57.585C66.9812 58.3196 68.695 59.9571 69.073 62.5812C69.4511 65.2054 68.5623 67.3995 66.2688 68.9117C66.2013 68.9562 66.1569 69.0348 66.0664 69.1341C68.5979 70.3698 69.861 72.4454 69.9804 75.177C70.1479 78.9983 67.592 82.0257 63.492 82.873C62.3311 83.1131 61.1236 83.205 59.9338 83.2199C56.2897 83.2666 52.6449 83.2436 49 83.2473L49.0015 57.0016ZM54.3157 62.413V67.5033C55.7753 67.5033 57.1711 67.5152 58.5662 67.4996C59.5254 67.4885 60.4987 67.5352 61.4379 67.3832C62.9946 67.1327 64.0168 66.0408 64.0057 64.8392C63.9953 63.6716 63.002 62.5575 61.4216 62.453C59.0829 62.2958 56.7226 62.413 54.3157 62.413ZM54.2794 77.9887C56.5292 77.9887 58.6818 78.0324 60.83 77.962C61.4698 77.9412 62.1547 77.7018 62.7218 77.3868C64.3674 76.4735 64.4141 74.5225 62.8404 73.4891C62.4379 73.2245 61.9509 72.9791 61.4868 72.9369C60.1592 72.816 58.8227 72.7886 57.4884 72.7567C56.4246 72.7308 55.3594 72.7516 54.2512 72.7516C54.2512 74.3824 54.2512 75.8931 54.2512 77.4031C54.2527 77.5721 54.2646 77.7418 54.2794 77.9887Z" fill="white"/>
<path d="M91 74.5022H77.1106C76.6488 77.0529 79.1062 79.5992 81.8719 79.3019C82.8355 79.1982 83.7495 78.6348 84.6887 78.2805C84.9215 78.1922 85.1505 78.018 85.3833 78.0151C87.0438 77.9921 88.705 78.0025 90.5552 78.0025C90.2372 78.5903 90.0222 79.1144 89.6998 79.5592C87.9207 82.0202 85.3766 83.0535 82.4664 83.1973C81.0999 83.2666 79.7306 83.1372 78.4012 82.8134C74.6526 81.8801 72.3287 78.9802 71.9528 74.9188C71.7253 72.4503 71.9061 70.0189 73.047 67.7536C74.7719 64.3289 78.5509 62.4801 82.6762 63.0235C87.4767 63.6551 90.0637 66.1895 90.8628 71.0448C90.8806 71.1516 90.9533 71.2502 91 71.3525V74.5022ZM85.7139 70.9715C85.4715 68.291 83.8207 66.999 80.9334 67.1539C78.7541 67.271 77.167 68.8833 77.207 70.9715H85.7139Z" fill="white"/>
<path d="M75.3242 57.0215H87.4315V60.4454H75.3242V57.0215Z" fill="white"/>
<defs>
<filter id="filter0_d" x="26" y="26" width="88" height="88" filterUnits="userSpaceOnUse" color-interpolation-filters="sRGB">
<feFlood flood-opacity="0" result="BackgroundImageFix"/>
<feColorMatrix in="SourceAlpha" type="matrix" values="0 0 0 0 0 0 0 0 0 0 0 0 0 0 0 0 0 0 127 0"/>
<feOffset/>
<feGaussianBlur stdDeviation="2"/>
<feColorMatrix type="matrix" values="0 0 0 0 0 0 0 0 0 0 0 0 0 0 0 0 0 0 0.4 0"/>
<feBlend mode="normal" in2="BackgroundImageFix" result="effect1_dropShadow"/>
<feBlend mode="normal" in="SourceGraphic" in2="effect1_dropShadow" result="shape"/>
</filter>
</defs>
</svg>
