<svg width="140" height="140" viewBox="0 0 140 140" fill="none" xmlns="http://www.w3.org/2000/svg">
<mask id="mask0" mask-type="alpha" maskUnits="userSpaceOnUse" x="30" y="30" width="80" height="80">
<rect x="30" y="30" width="80" height="80" rx="12" fill="black"/>
</mask>
<g mask="url(#mask0)">
<rect x="30" y="30" width="80" height="80" rx="12" fill="black"/>
<rect x="46" y="46" width="48" height="48" fill="#590000" fill-opacity="0.01"/>
</g>
<path d="M61.2574 81.658C55.1364 81.6911 49.9273 76.6316 50.0008 70.1939C50.0725 64.0316 55.0504 59.0026 61.3034 59C67.5232 58.9974 72.5699 64.0905 72.5583 70.3671C72.5467 76.6909 67.3904 81.7079 61.2574 81.658Z" fill="white"/>
<path d="M84.9214 70.335C84.9334 72.2259 84.688 74.0829 84.1074 75.8866C83.6776 77.2223 83.0884 78.4793 82.1408 79.5395C81.6036 80.1412 80.9805 80.6337 80.1966 80.8632C78.9636 81.2237 77.8931 80.8632 76.9554 80.0466C75.8733 79.1059 75.2119 77.8845 74.7125 76.5682C74.0085 74.712 73.7013 72.782 73.6561 70.8026C73.6089 68.7212 73.85 66.6808 74.4972 64.7C74.9192 63.4069 75.4998 62.1937 76.4079 61.1592C76.8032 60.7093 77.2511 60.3199 77.7874 60.0492C79.1196 59.377 80.3552 59.6078 81.4897 60.5116C82.418 61.2508 83.0369 62.2276 83.5246 63.2895C84.4564 65.3141 84.8393 67.4608 84.9205 69.6719C84.9287 69.8915 84.9214 70.1137 84.9214 70.335Z" fill="white"/>
<path d="M90.0004 69.9586C89.9776 72.4276 89.8835 74.8102 89.3961 77.1588C89.2513 77.858 89.0807 78.5529 88.7515 79.1937C88.6627 79.3653 88.5536 79.5256 88.4266 79.6711C88.1632 79.972 87.837 79.9814 87.583 79.6711C87.3998 79.4436 87.2482 79.1923 87.1322 78.9242C86.7939 78.1464 86.6203 77.3195 86.4819 76.4884C86.0522 73.9064 85.9482 71.3046 86.0453 68.6926C86.1141 66.8347 86.2727 64.9859 86.6899 63.1681C86.8399 62.5135 87.0183 61.8659 87.3672 61.2814C87.7656 60.6144 88.213 60.6028 88.6294 61.2625C88.9891 61.8324 89.1576 62.4787 89.3093 63.1255C89.669 64.6602 89.8358 66.2219 89.9161 67.7931C89.9544 68.5404 89.9737 69.2891 90.0004 69.9586Z" fill="white"/>
</svg>
