<svg width="140" height="140" viewBox="0 0 140 140" fill="none" xmlns="http://www.w3.org/2000/svg">
<rect opacity="0.01" width="140" height="140" fill="#0B0B0C"/>
<g filter="url(#filter0_d)">
<rect x="31" y="30" width="80" height="80" rx="12" fill="#E3514F"/>
</g>
<path d="M50.1217 74.3056C50.0977 74.2115 50.066 74.1195 50.0268 74.0307C49.9775 73.9508 49.922 73.875 49.8607 73.8039C49.8416 73.7796 49.8086 73.7598 49.8007 73.7328C49.7414 73.5297 49.5496 73.4269 49.4494 73.2555C49.4204 73.2061 49.3887 73.1593 49.3604 73.1099C49.2595 72.9352 49.1877 72.7434 49.046 72.5918C49.0084 72.5426 48.9761 72.4896 48.9497 72.4336C48.9207 72.3848 48.8931 72.336 48.8641 72.2872C48.8488 72.2664 48.8351 72.2443 48.8232 72.2213C48.7593 72.0453 48.6773 71.8763 48.5786 71.7171C48.5644 71.6835 48.5543 71.6483 48.5483 71.6123C48.5332 71.5681 48.5154 71.5246 48.4963 71.4805C48.4646 71.4093 48.4303 71.3401 48.3994 71.2689C48.3763 71.2168 48.3559 71.1627 48.3334 71.11C48.311 71.0573 48.2932 71.0026 48.2675 70.9518C48.1998 70.7954 48.1419 70.6349 48.0942 70.4713C48.048 70.3441 48.0045 70.2188 47.967 70.0877C47.9294 69.9565 47.845 69.824 47.7883 69.6922C47.7594 69.6259 47.7403 69.5557 47.7316 69.4839C47.7191 69.3521 47.7369 69.2202 47.6308 69.1135C47.6238 69.1053 47.6194 69.0952 47.6183 69.0845C47.5611 68.8248 47.504 68.5646 47.4469 68.304C47.435 68.248 47.4423 68.1768 47.4106 68.1373C47.3177 68.0239 47.3217 67.894 47.3184 67.7629C47.3184 67.697 47.3184 67.6258 47.3118 67.5572C47.3146 67.5204 47.3068 67.4836 47.2894 67.4511C47.174 67.3193 47.1819 67.1578 47.1674 67.0022C47.1589 66.8663 47.133 66.7321 47.0903 66.6028C47.0448 66.4782 47.0507 66.3332 47.0395 66.1974C47.0283 66.0616 47.0356 65.9337 46.9479 65.8204C46.9204 65.7637 46.9088 65.7006 46.9143 65.6378C46.907 65.3794 46.9097 65.121 46.8978 64.8626C46.8856 64.781 46.865 64.7008 46.8365 64.6234C46.8128 64.5594 46.7961 64.4931 46.7864 64.4256C46.7425 63.298 46.7313 62.17 46.7528 61.0416C46.7581 60.7304 46.7691 60.4198 46.7858 60.1095C46.7983 60.0277 46.8181 59.9472 46.8451 59.8689C46.8704 59.7893 46.8879 59.7074 46.8972 59.6244C46.9077 59.3825 46.9084 59.1399 46.9117 58.8993C46.9072 58.8095 46.9322 58.7206 46.9829 58.6462C47.0111 58.5961 47.0273 58.5402 47.0303 58.4827C47.0428 58.3891 47.0448 58.2936 47.0527 58.1993C47.0521 58.162 47.059 58.125 47.0732 58.0906C47.1621 57.9442 47.1608 57.7801 47.1793 57.6186C47.182 57.5607 47.201 57.5048 47.234 57.4571C47.3118 57.3688 47.317 57.2673 47.3203 57.1618C47.3161 57.0094 47.351 56.8585 47.4218 56.7235C47.5056 56.5778 47.5359 56.4005 47.5886 56.2364C47.5936 56.1999 47.6041 56.1643 47.6196 56.1309C47.6917 56.0268 47.7309 55.9036 47.7323 55.777C47.7329 55.7506 47.7411 55.7249 47.756 55.7031C47.8646 55.549 47.9509 55.3804 48.0124 55.2022C48.0691 55.0638 48.1766 54.9438 48.2188 54.8027C48.2847 54.578 48.5009 54.4507 48.5661 54.2286C48.5806 54.1779 48.6386 54.1409 48.6729 54.0968C48.7665 53.9709 48.8489 53.8331 48.953 53.7191C49.1126 53.5418 49.2826 53.3763 49.4553 53.2076C49.5212 53.1417 49.5924 53.0758 49.6636 53.0164C49.7605 52.9327 49.8257 52.8035 49.9767 52.7963C50.123 52.6592 50.3405 52.6355 50.4776 52.4786C50.5313 52.437 50.5964 52.4126 50.6642 52.4087C50.7426 52.3936 50.8211 52.3883 50.8784 52.3224C50.8889 52.3104 50.9023 52.3013 50.9173 52.296C51.0926 52.2439 51.2686 52.1938 51.4446 52.1418C51.5296 52.1167 51.6127 52.087 51.6984 52.0627C51.7721 52.034 51.8492 52.0148 51.9278 52.0053C52.3707 52 52.8137 52 53.2559 52C53.3143 51.9991 53.3717 52.0141 53.4221 52.0435C53.5135 52.0966 53.6164 52.1269 53.722 52.1319C53.8379 52.1348 53.9512 52.1667 54.0515 52.2248C54.0985 52.2486 54.1499 52.2623 54.2025 52.265C54.2823 52.2671 54.3586 52.2985 54.4167 52.3533C54.4262 52.3661 54.44 52.375 54.4556 52.3784C54.6072 52.3843 54.7067 52.5023 54.8379 52.5517C54.8758 52.5701 54.9118 52.5922 54.9453 52.6177C55.0587 52.6889 55.1556 52.7785 55.2855 52.8352C55.4153 52.8919 55.5175 53.0257 55.6309 53.1265C55.6546 53.147 55.6704 53.1872 55.6968 53.1924C55.9018 53.2373 55.9848 53.4264 56.1226 53.549C56.2138 53.6256 56.2872 53.7212 56.3375 53.8292C56.3994 53.9663 56.5279 54.0737 56.6268 54.195C56.6585 54.2289 56.6859 54.2665 56.7086 54.3071C56.7968 54.5019 56.9086 54.6852 57.0414 54.8528C57.0926 54.9122 57.123 54.9868 57.1278 55.0651C57.1262 55.1021 57.1333 55.1389 57.1487 55.1726C57.164 55.2062 57.1871 55.2358 57.2161 55.2589C57.2333 55.2715 57.2469 55.2883 57.2556 55.3076C57.3084 55.4322 57.3506 55.5621 57.4125 55.682C57.4864 55.8305 57.5377 55.9891 57.5648 56.1527C57.5925 56.2957 57.6894 56.4249 57.7467 56.564C57.7703 56.6277 57.7856 56.6941 57.7922 56.7617C57.7952 56.8622 57.8301 56.9591 57.8917 57.0386C57.9194 57.0775 57.9364 57.1229 57.9412 57.1704C57.9469 57.2264 57.9496 57.2828 57.9491 57.3391C57.9458 57.3971 57.9489 57.4552 57.9583 57.5125C58.0143 57.7102 58.0783 57.908 58.1382 58.1103C58.1634 58.1784 58.1817 58.2489 58.193 58.3206C58.2114 58.5098 58.2173 58.6996 58.2332 58.8888C58.235 58.9464 58.2497 59.0029 58.276 59.0542C58.3285 59.1462 58.3541 59.251 58.3498 59.3568C58.3551 59.6943 58.3597 60.0317 58.3637 60.3692C58.359 60.469 58.3842 60.568 58.4362 60.6533C58.4702 60.724 58.485 60.8025 58.479 60.8807C58.483 61.6875 58.4847 62.4943 58.4843 63.3011C58.4843 63.4165 58.4843 63.5325 58.4843 63.6485C58.4934 63.754 58.4659 63.8594 58.4065 63.9471C58.3774 64.0028 58.3644 64.0656 58.3689 64.1283C58.3617 64.4289 58.363 64.7295 58.3544 65.03C58.3492 65.208 58.3544 65.3886 58.2556 65.5521C58.2386 65.5907 58.2303 65.6325 58.2312 65.6747C58.2187 65.8533 58.2134 66.0333 58.1969 66.2112C58.183 66.2931 58.1643 66.3741 58.1409 66.4538C58.1191 66.556 58.1013 66.6588 58.075 66.7603C58.0552 66.846 58.0295 66.9304 58.0091 67.0147C57.9875 67.0792 57.9711 67.1454 57.9603 67.2125C57.9497 67.312 57.953 67.4102 57.9497 67.5124C57.956 67.6332 57.9252 67.753 57.8614 67.8558C57.8067 67.9349 57.808 68.0536 57.7955 68.1603C57.7823 68.2922 57.7803 68.424 57.7052 68.54C57.6867 68.5891 57.6741 68.6402 57.6676 68.6923C57.6465 68.7582 57.6149 68.8241 57.5944 68.8959C57.5693 68.9748 57.5512 69.0558 57.5404 69.1378C57.5292 69.2631 57.5404 69.3929 57.4389 69.4918C57.432 69.5 57.4273 69.5097 57.425 69.5202C57.3743 69.7008 57.3242 69.882 57.2721 70.0633C57.2647 70.1151 57.2465 70.1647 57.2187 70.209C57.1526 70.2853 57.1186 70.3843 57.1238 70.4851C57.1268 70.5248 57.1214 70.5646 57.1079 70.602C57.0944 70.6394 57.0731 70.6735 57.0454 70.702C57.0262 70.7193 57.0132 70.7425 57.0085 70.7679C57.0025 70.938 56.8931 71.0705 56.8424 71.224C56.8265 71.2626 56.8068 71.2995 56.7837 71.3341C56.7609 71.3625 56.7427 71.3943 56.7296 71.4284C56.7144 71.5211 56.6753 71.6083 56.6163 71.6815C56.5508 71.7634 56.5028 71.8578 56.4752 71.959C56.437 72.1146 56.2867 72.2174 56.288 72.3868C56.1694 72.5325 56.1278 72.7276 55.9848 72.8574C55.9591 72.8763 55.9391 72.9018 55.9268 72.9312C55.8925 73.0769 55.7752 73.1659 55.6961 73.2806C55.673 73.3149 55.6579 73.3544 55.6368 73.3907C55.6108 73.4409 55.5815 73.4893 55.5491 73.5357C55.4212 73.7077 55.2901 73.8765 55.1615 74.0478C55.1401 74.078 55.1243 74.1117 55.1147 74.1474C55.0844 74.2548 55.122 74.3089 55.2255 74.3537C55.3771 74.4196 55.5247 74.496 55.6737 74.5679C55.6829 74.5725 55.6922 74.5824 55.7014 74.5824C55.9762 74.589 56.2036 74.7966 56.4884 74.7676C56.533 74.7624 56.5782 74.7662 56.6214 74.7788C56.6645 74.7913 56.7047 74.8124 56.7395 74.8408C56.7883 74.8711 56.8443 74.8878 56.9017 74.8889C57.0012 74.8988 57.0994 74.8935 57.2016 74.9021C57.2539 74.9009 57.3057 74.9139 57.3512 74.9397C57.4335 74.9981 57.5342 75.0248 57.6347 75.0148C58.336 75.0148 59.0373 75.0108 59.7387 75.0148C59.86 75.0128 59.9763 74.9658 60.0649 74.883C60.1177 74.8408 60.1104 74.8032 60.0794 74.7478C59.9584 74.5528 59.8155 74.3721 59.6536 74.2093C59.5569 74.1131 59.4807 73.9983 59.4295 73.8718C59.3853 73.7473 59.2871 73.6418 59.2357 73.5185C59.1738 73.3702 59.0439 73.2549 59.0288 73.0842C59.026 73.058 59.0179 73.0326 59.005 73.0097C58.9391 72.8923 58.8659 72.7777 58.8073 72.657C58.7869 72.6031 58.7769 72.5459 58.7776 72.4883C58.7798 72.3665 58.7463 72.2467 58.6814 72.1436C58.6501 72.0887 58.6331 72.0268 58.6319 71.9636C58.6207 71.8483 58.6188 71.7322 58.6155 71.6162C58.6203 71.5107 58.5995 71.4055 58.5548 71.3097C58.534 71.2561 58.5226 71.1992 58.5212 71.1417C58.4912 70.8584 58.4912 70.5727 58.5212 70.2894C58.5195 70.2523 58.5253 70.2153 58.5383 70.1806C58.628 70.031 58.6109 69.8655 58.6168 69.7034C58.6227 69.5412 58.6254 69.3705 58.7262 69.2183C58.7684 69.1523 58.7644 69.0568 58.7717 68.9737C58.7849 68.8872 58.8106 68.803 58.8481 68.7239C58.9081 68.569 59.0235 68.4365 59.0386 68.2625C59.0384 68.2361 59.0453 68.2102 59.0584 68.1874C59.1823 68.0259 59.2087 67.809 59.3596 67.664C59.3788 67.6455 59.4045 67.6258 59.4091 67.6034C59.4559 67.3812 59.6628 67.2791 59.7749 67.1064C59.792 67.08 59.8204 67.0609 59.8342 67.0339C59.9608 66.786 60.1638 66.6061 60.3615 66.4215C60.4156 66.3714 60.4683 66.32 60.5263 66.2739C60.5843 66.2277 60.647 66.1948 60.703 66.1499C60.8289 66.0484 60.9515 65.9436 61.0754 65.8401C61.1064 65.8138 61.1347 65.767 61.1683 65.763C61.3114 65.7459 61.3878 65.6233 61.4979 65.5653C61.6634 65.4849 61.8123 65.3609 62.0022 65.3346C62.0726 65.3186 62.1405 65.2929 62.2039 65.2581C62.3733 65.1856 62.5242 65.0604 62.7312 65.0722C62.8136 65.0768 62.8993 65.0261 62.983 64.9997C63.0312 64.9804 63.0805 64.9639 63.1306 64.9503C63.1928 64.9389 63.2559 64.9327 63.3191 64.9318C64.031 64.9114 64.7422 64.8962 65.4535 64.9457C65.5375 64.9502 65.619 64.9755 65.6907 65.0195C65.7552 65.0533 65.8263 65.0724 65.899 65.0755C65.9959 65.0892 66.0901 65.1174 66.1785 65.1592C66.34 65.2252 66.4797 65.3603 66.6729 65.3379C66.6942 65.3361 66.7156 65.341 66.7342 65.3517C66.895 65.4554 67.0554 65.5596 67.2153 65.6641C67.2411 65.6813 67.2622 65.7156 67.2892 65.7202C67.4025 65.7386 67.4869 65.8144 67.5838 65.8599C67.6812 65.9105 67.7701 65.9759 67.8475 66.0537C68.0795 66.2655 68.3069 66.4817 68.5297 66.7023C68.674 66.8447 68.8085 66.9969 68.9463 67.1452C68.9614 67.16 68.9715 67.1791 68.9753 67.2C68.9852 67.3318 69.0959 67.4043 69.1664 67.4992C69.2 67.5447 69.2284 67.5941 69.2574 67.6422C69.2864 67.6904 69.3187 67.7503 69.3497 67.8037C69.3628 67.8261 69.3853 67.8466 69.3892 67.8697C69.4116 68.014 69.5151 68.1083 69.5949 68.217C69.6127 68.2366 69.6274 68.2588 69.6384 68.2829C69.7003 68.4925 69.7597 68.7022 69.8203 68.9118C69.8322 68.952 69.8486 68.9902 69.8625 69.0297C69.8875 69.1036 69.9126 69.1774 69.9363 69.2512C69.9445 69.3078 69.9621 69.3626 69.9884 69.4134C70.0415 69.4862 70.0676 69.5752 70.0622 69.6652C70.0622 70.3718 70.0622 71.0782 70.0622 71.7843C70.067 71.8264 70.0631 71.8691 70.0506 71.9096C70.0381 71.9501 70.0174 71.9876 69.9897 72.0196C69.9784 72.0308 69.9696 72.0443 69.964 72.0592C69.9126 72.2391 69.8631 72.4204 69.8111 72.6003C69.7893 72.6748 69.7623 72.7487 69.7346 72.8212C69.7162 72.8699 69.6937 72.9167 69.6687 72.9635C69.6436 73.0103 69.614 73.0743 69.585 73.1283C69.5751 73.1468 69.558 73.1619 69.5494 73.1804C69.4947 73.3122 69.4611 73.4539 69.382 73.5653C69.2877 73.6972 69.2501 73.858 69.1361 73.9793C69.0221 74.1006 68.9423 74.2489 68.8415 74.3814C68.7802 74.4594 68.7141 74.5336 68.6437 74.6035C68.6163 74.6285 68.5973 74.6613 68.5892 74.6975C68.581 74.7337 68.5842 74.7715 68.5982 74.8058C68.6246 74.8777 68.6925 74.883 68.7564 74.8876C68.8204 74.8922 68.8836 74.8876 68.9463 74.8955C68.9981 74.8971 69.0488 74.9114 69.0939 74.937C69.1686 74.9872 69.2581 75.0105 69.3477 75.0029H72.182C72.2719 75.0105 72.3615 74.9849 72.4338 74.9311C72.4749 74.9076 72.5193 74.8907 72.5656 74.881C72.65 74.8487 72.6612 74.8151 72.6177 74.7386C72.5861 74.6852 72.561 74.6279 72.53 74.5738C72.5109 74.5375 72.4877 74.5034 72.4608 74.4723C72.3241 74.3355 72.2071 74.1802 72.1135 74.0109C72.0162 73.8475 71.9085 73.6906 71.7911 73.5409C71.7826 73.5284 71.7641 73.5212 71.7582 73.508C71.6982 73.365 71.6138 73.2265 71.5868 73.0769C71.5552 72.9042 71.4662 72.7625 71.3891 72.6155C71.339 72.5361 71.3094 72.4455 71.3027 72.3518C71.2994 72.2161 71.3027 72.079 71.2065 71.9623C71.1825 71.9155 71.1718 71.8631 71.1755 71.8107C71.1244 71.09 71.1244 70.3667 71.1755 69.646C71.1728 69.5884 71.1862 69.531 71.2144 69.4806C71.2974 69.3811 71.2988 69.2684 71.3014 69.151C71.304 69.0337 71.3014 68.917 71.4029 68.8313C71.4135 68.8195 71.4209 68.8052 71.4247 68.7898C71.48 68.6329 71.5341 68.4747 71.5908 68.3179C71.6045 68.2842 71.6215 68.252 71.6415 68.2216C71.658 68.1946 71.691 68.1722 71.6942 68.1445C71.7122 68.0356 71.7596 67.9338 71.8314 67.8499C71.8874 67.7754 71.9309 67.691 71.9816 67.6119C72.0706 67.4722 72.1583 67.3324 72.2512 67.1953C72.2987 67.1261 72.3567 67.0635 72.4081 66.9976C72.449 66.9374 72.493 66.8793 72.5399 66.8236C72.6223 66.7379 72.712 66.6588 72.8003 66.579C72.8273 66.5547 72.8787 66.5434 72.8886 66.5131C72.9592 66.3154 73.1602 66.2646 73.2973 66.142C73.4061 66.0445 73.5115 65.9443 73.6269 65.854C73.7398 65.7707 73.8585 65.6955 73.9821 65.6292C74.1417 65.5422 74.3177 65.4882 74.462 65.3721C74.4922 65.3511 74.5275 65.3386 74.5642 65.3359C74.6441 65.3338 74.7205 65.3021 74.7784 65.2469C74.7821 65.2432 74.7866 65.2403 74.7916 65.2383C74.9742 65.1843 75.1561 65.125 75.3413 65.0788C75.4188 65.0682 75.4935 65.043 75.5615 65.0043C75.619 64.9683 75.6854 64.9487 75.7533 64.9477C76.185 64.9325 76.6174 64.9173 77.0492 64.916C77.3787 64.916 77.7129 64.9338 78.0451 64.9444C78.1295 64.9459 78.2114 64.9733 78.2798 65.0228C78.3392 65.055 78.4053 65.0729 78.4729 65.0749C78.5524 65.0733 78.63 65.0999 78.6917 65.15C78.7023 65.1612 78.7181 65.1751 78.7313 65.1744C78.9172 65.1711 79.0609 65.2983 79.2329 65.3359C79.2734 65.3454 79.3121 65.3612 79.3476 65.3827C79.4636 65.4526 79.5704 65.5442 79.6943 65.593C79.972 65.7123 80.2264 65.8799 80.4457 66.088C80.4637 66.107 80.4838 66.1238 80.5057 66.1381C80.7997 66.2837 81.0212 66.5177 81.207 66.7735C81.3666 66.995 81.5445 67.1973 81.7212 67.4023C81.7364 67.4171 81.7496 67.4337 81.7607 67.4518C81.8234 67.5836 81.8827 67.7154 81.9473 67.8472C81.9934 67.9402 82.0475 68.0292 82.0962 68.1208C82.1687 68.2579 82.2399 68.3956 82.3118 68.5334C82.3118 68.538 82.319 68.5426 82.319 68.5473C82.319 68.7364 82.441 68.8887 82.4739 69.068C82.4765 69.1206 82.4895 69.1721 82.5122 69.2196C82.6097 69.3587 82.6084 69.5175 82.6189 69.6744C82.6269 69.7904 82.6295 69.9064 82.6315 70.0224C82.6304 70.1066 82.6532 70.1893 82.6974 70.261C82.7276 70.3157 82.7432 70.3772 82.7429 70.4397C82.7495 70.6084 82.7429 70.7771 82.7468 70.9459C82.7558 71.0516 82.7289 71.1573 82.6704 71.2458C82.6422 71.3019 82.6286 71.3643 82.6308 71.4271C82.6176 71.6057 82.6163 71.785 82.5985 71.9636C82.5834 72.0395 82.5613 72.1139 82.5326 72.1857C82.47 72.3894 82.3256 72.5674 82.3414 72.7961C82.346 72.8276 82.3389 72.8597 82.3217 72.8864C82.2314 72.9826 82.2109 73.1105 82.1556 73.2226C82.0778 73.3808 82.0007 73.5396 81.9176 73.6958C81.8813 73.7529 81.8419 73.8079 81.7996 73.8606C81.7238 73.9733 81.6572 74.0927 81.5742 74.1988C81.4615 74.3425 81.3369 74.4763 81.2189 74.6154C81.1938 74.6421 81.1737 74.6731 81.1596 74.707C81.152 74.724 81.1484 74.7426 81.1491 74.7612C81.1498 74.7799 81.1547 74.7981 81.1636 74.8145C81.1724 74.831 81.1849 74.8451 81.2001 74.856C81.2153 74.8668 81.2328 74.874 81.2512 74.877C81.3028 74.8879 81.3554 74.8927 81.4081 74.8915C81.5188 74.8915 81.6276 74.8948 81.7212 74.9746C81.7571 74.9968 81.7991 75.007 81.8411 75.0036C82.5847 75.0067 83.3282 75.0067 84.0717 75.0036C84.1337 75.0001 84.193 74.977 84.2411 74.9377C84.3551 74.848 84.3419 74.8467 84.2892 74.707C84.2615 74.6168 84.2466 74.5232 84.2451 74.4288C84.2378 74.328 84.2365 74.2311 84.1633 74.1474C84.1521 74.1358 84.1447 74.1211 84.1422 74.1052C84.1422 73.8415 83.9695 73.6214 83.988 73.3564C83.9959 73.2529 83.9919 73.1481 83.9016 73.0644C83.87 73.0354 83.868 72.9668 83.8647 72.9154C83.8509 72.6735 83.8397 72.4316 83.8298 72.1904C83.8307 72.101 83.8079 72.013 83.7639 71.9353C83.7307 71.8747 83.7134 71.8066 83.7138 71.7375C83.7092 71.1443 83.7105 70.5563 83.7098 69.9657C83.7084 69.8707 83.7335 69.7771 83.7823 69.6955C83.8102 69.6393 83.8266 69.5781 83.8305 69.5155C83.8436 69.416 83.8397 69.3145 83.8575 69.2163C83.877 69.1469 83.9014 69.0791 83.9306 69.0133C83.9531 68.9474 83.9702 68.8742 83.9926 68.805C84.015 68.7358 84.0401 68.6692 84.0651 68.6026C84.0796 68.5637 84.0967 68.5255 84.1139 68.4873C84.1396 68.4312 84.1666 68.3752 84.1936 68.3198C84.2002 68.306 84.2187 68.2941 84.2187 68.281C84.2253 68.1181 84.3419 68.0048 84.4164 67.8749C84.516 67.695 84.5878 67.4933 84.746 67.3476C84.7654 67.3301 84.7792 67.3071 84.7856 67.2817C84.8073 67.1716 84.8844 67.0984 84.955 67.018C85.0776 66.8822 85.1995 66.7445 85.332 66.6186C85.5739 66.3879 85.8165 66.1572 86.0722 65.9436C86.181 65.852 86.324 65.8012 86.4486 65.7268C86.5376 65.6734 86.6219 65.6121 86.7122 65.5541C86.7419 65.5343 86.7696 65.502 86.8025 65.4954C86.8904 65.4789 86.9716 65.4375 87.0365 65.3761C87.0741 65.3412 87.144 65.3418 87.198 65.3227C87.2639 65.299 87.3299 65.2713 87.3958 65.2443C87.4294 65.2311 87.4617 65.212 87.4953 65.2008C87.5289 65.1896 87.5658 65.1962 87.5863 65.1777C87.7115 65.0656 87.8671 65.0736 88.018 65.0584C88.0648 65.0563 88.1103 65.042 88.1498 65.0169C88.2429 64.9554 88.3528 64.9247 88.4643 64.9292C89.17 64.8929 89.8773 64.8956 90.5827 64.9371C90.6637 64.953 90.7429 64.9766 90.8194 65.0076C90.9092 65.0345 91.0008 65.055 91.0936 65.0689C91.1885 65.0801 91.2814 65.0808 91.3572 65.1546C91.381 65.1777 91.4232 65.181 91.4588 65.1935C91.6189 65.2522 91.7666 65.3471 91.9432 65.3583C92.0961 65.4934 92.3163 65.5237 92.4534 65.6839C92.463 65.6967 92.4764 65.7061 92.4916 65.7109C92.7092 65.7538 92.8166 65.9476 92.9781 66.0669C92.9992 66.082 93.0157 66.113 93.0374 66.117C93.2562 66.1532 93.3538 66.347 93.4988 66.4756C93.6741 66.6311 93.8284 66.8051 93.9945 66.9758C94.0152 66.9918 94.0323 67.0121 94.0446 67.0352C94.1158 67.2402 94.2871 67.374 94.4038 67.546C94.4695 67.6462 94.5289 67.7503 94.5818 67.8578C94.6424 67.9797 94.6938 68.1056 94.7499 68.2295C94.7604 68.2533 94.7657 68.2843 94.7841 68.2994C94.8718 68.3719 94.8731 68.4715 94.8837 68.5723C94.8866 68.6295 94.9056 68.6848 94.9384 68.7318C94.995 68.8014 95.0286 68.8869 95.0346 68.9764C95.0358 69.029 95.0486 69.0808 95.0722 69.128C95.1362 69.2379 95.1666 69.3641 95.1599 69.4911C95.1518 69.5979 95.1764 69.7046 95.2304 69.797C95.2582 69.8415 95.2735 69.8928 95.2746 69.9453C95.2785 70.4568 95.2785 70.9683 95.2746 71.4798C95.2766 71.5265 95.2639 71.5726 95.2383 71.6116C95.1761 71.6977 95.1463 71.803 95.1539 71.9089C95.1564 72.0564 95.125 72.2025 95.0623 72.336C95.0069 72.4441 94.9905 72.5727 94.9087 72.6742C94.8858 72.71 94.8761 72.7526 94.881 72.7948C94.8955 72.9767 94.8151 73.1165 94.707 73.2509C94.6704 73.3076 94.6389 73.3674 94.6128 73.4295C94.5937 73.4658 94.5732 73.5021 94.5515 73.537C94.5286 73.5654 94.5087 73.5961 94.4921 73.6286C94.4328 73.8046 94.3214 73.9503 94.2179 74.0999C94.0859 74.2934 93.9442 74.4802 93.7934 74.6595C93.6561 74.8173 93.5091 74.9663 93.3531 75.1058C93.2623 75.1755 93.167 75.2391 93.0677 75.2963C93.0288 75.3226 92.9979 75.3589 92.9603 75.3872C92.8621 75.4624 92.7909 75.5744 92.6544 75.5988C92.6182 75.6054 92.5885 75.6436 92.5549 75.6713C92.3451 75.8681 92.1018 76.0257 91.8364 76.1367C91.7521 76.1709 91.6862 76.2474 91.6097 76.3015C91.5682 76.3305 91.5214 76.374 91.4779 76.3746C91.3039 76.3746 91.1878 76.4834 91.0613 76.5776C91.0125 76.6139 90.9506 76.6323 90.8985 76.6653C90.7554 76.7549 90.5946 76.7905 90.4371 76.8387C90.2993 76.8815 90.1734 76.9705 90.0416 77.0298C89.992 77.0476 89.9411 77.0613 89.8893 77.0707C89.8438 77.0832 89.7858 77.0839 89.7575 77.1135C89.6791 77.1913 89.5808 77.192 89.4853 77.2183C89.2823 77.2689 89.0839 77.3361 88.892 77.4194C88.7167 77.4998 88.6818 77.683 88.7965 77.8379C88.8433 77.9066 88.8789 77.9822 88.9019 78.062C88.9385 78.1534 88.9826 78.2416 89.0338 78.3257C89.1056 78.4575 89.1801 78.5893 89.2526 78.7212C89.2678 78.7427 89.279 78.7668 89.2855 78.7924C89.2981 78.9341 89.4035 79.0224 89.4754 79.1298C89.4899 79.1516 89.5189 79.1687 89.5228 79.1918C89.5485 79.3434 89.6309 79.4706 89.6889 79.6084C89.7396 79.716 89.8017 79.8179 89.8742 79.9123C89.9071 79.9637 89.9366 80.0172 89.9625 80.0724C89.9889 80.1219 90.0126 80.1733 90.039 80.2234C90.0541 80.2504 90.0759 80.2748 90.089 80.3025C90.1503 80.429 90.207 80.5576 90.2716 80.6821C90.2954 80.7276 90.3375 80.7619 90.3665 80.8067C90.4687 80.9827 90.5643 81.1613 90.6678 81.334C90.699 81.3823 90.7338 81.4281 90.7719 81.4711C90.9084 81.6419 90.9828 81.8534 91.1371 82.0116C91.1506 82.0278 91.1609 82.0463 91.1674 82.0663C91.2526 82.2798 91.3767 82.4755 91.5332 82.6438C91.5537 82.6675 91.5827 82.6912 91.5886 82.7189C91.6367 82.9384 91.8002 83.0729 91.9492 83.2185C91.9676 83.237 91.9927 83.2561 91.9973 83.2785C92.0322 83.4367 92.1548 83.5336 92.2477 83.6523C92.3235 83.7448 92.3928 83.8423 92.4554 83.9443C92.5299 84.0715 92.6571 84.1677 92.7606 84.2778C92.9036 84.43 93.0499 84.5797 93.1864 84.7392C93.2437 84.8051 93.2694 84.8987 93.3274 84.964C93.452 85.1044 93.5911 85.2349 93.7229 85.3693C93.8251 85.4735 93.9299 85.575 94.0294 85.6818C94.1098 85.7681 94.0953 85.9995 94.0057 86.0911C93.8739 86.2229 93.742 86.3462 93.6102 86.4747C93.4085 86.6733 93.2081 86.8728 93.0091 87.0732C92.9826 87.1058 92.959 87.1407 92.9385 87.1774C92.8666 87.2871 92.7744 87.3822 92.667 87.4575C92.5661 87.5234 92.5022 87.646 92.4099 87.7311C92.3172 87.8222 92.2138 87.9019 92.1021 87.9683C92.0613 87.9886 92.0147 87.9942 91.9703 87.9841C91.9258 87.974 91.8862 87.9489 91.8582 87.913C91.7448 87.7897 91.6268 87.6704 91.5102 87.5498C91.3935 87.4292 91.263 87.296 91.141 87.1675C90.9973 87.0163 90.8552 86.8643 90.7146 86.7114C90.6871 86.6731 90.6622 86.633 90.6401 86.5914C90.617 86.5571 90.5966 86.5077 90.5643 86.4965C90.4516 86.4576 90.4147 86.3646 90.3567 86.275C90.2666 86.1531 90.1682 86.0377 90.062 85.9296C90.0353 85.9051 90.013 85.8761 89.9961 85.8439C89.9269 85.6547 89.7674 85.5348 89.6494 85.3825C89.6303 85.3581 89.5914 85.3416 89.5835 85.3166C89.5275 85.1004 89.3389 84.9824 89.2177 84.815C89.2029 84.7999 89.1911 84.7823 89.1827 84.7629C89.1419 84.6146 89.0192 84.5223 88.9402 84.401C88.8208 84.2171 88.7127 84.0266 88.5974 83.8401C88.5671 83.792 88.5315 83.7491 88.4959 83.7017C88.3973 83.575 88.3091 83.4405 88.2322 83.2996C88.1635 83.1474 88.0732 83.006 87.964 82.8797C87.9511 82.8567 87.9428 82.8314 87.9396 82.8052C87.933 82.7795 87.9396 82.7439 87.9205 82.7294C87.7702 82.5943 87.7458 82.3768 87.5995 82.239C87.5719 82.2149 87.5514 82.1837 87.5401 82.1487C87.5103 82.0719 87.473 81.9981 87.4287 81.9286C87.3627 81.7806 87.272 81.6448 87.1605 81.5272C87.1317 81.4832 87.116 81.432 87.115 81.3795C87.1036 81.291 87.066 81.2078 87.0069 81.1409C86.9423 81.0526 86.8863 80.9583 86.8395 80.8594C86.819 80.8232 86.7999 80.7863 86.7782 80.7513C86.7643 80.7296 86.736 80.7118 86.732 80.6894C86.6813 80.4317 86.498 80.2372 86.4024 79.9986C86.3266 79.8094 86.2324 79.6222 86.1388 79.437C86.0729 79.3052 85.9925 79.1865 85.9186 79.0613C85.9091 79.0487 85.9025 79.034 85.8995 79.0185C85.8876 78.7284 85.6833 78.5142 85.5976 78.2525C85.5779 78.186 85.5365 78.1279 85.48 78.0876C85.4235 78.0472 85.3552 78.0269 85.2858 78.0297C85.0011 78.033 84.7163 78.0297 84.429 78.0363C84.3873 78.0319 84.3455 78.0424 84.311 78.066C84.2371 78.1517 84.1429 78.1438 84.0473 78.1438C83.6149 78.1438 83.1825 78.1438 82.7501 78.1438C82.7084 78.148 82.6663 78.1439 82.6263 78.1317C82.5862 78.1194 82.549 78.0994 82.5168 78.0726C82.4629 78.0415 82.4006 78.0283 82.3388 78.035C81.8168 78.0284 81.2947 78.0258 80.7727 78.0212C80.6369 78.0212 80.4998 78.0311 80.3831 77.9302C80.3363 77.9058 80.2834 77.8955 80.2309 77.9005C80.0944 77.8926 79.9566 77.8939 79.8202 77.8841C79.6838 77.8742 79.5381 77.8702 79.4056 77.7997C79.3361 77.7758 79.2629 77.7642 79.1894 77.7654C79.0834 77.7638 78.9805 77.7295 78.8948 77.6672C78.8462 77.6368 78.7899 77.621 78.7326 77.6217C78.5962 77.6125 78.4584 77.6217 78.322 77.6059C78.2518 77.5909 78.1833 77.5689 78.1176 77.54C78.0517 77.5106 77.9821 77.4902 77.9107 77.4793C77.6819 77.4714 77.4875 77.3706 77.2878 77.2757C77.1851 77.2259 77.0726 77.1997 76.9586 77.1991C76.8445 77.1986 76.7317 77.2236 76.6286 77.2724C76.4276 77.3627 76.2331 77.4648 76.0064 77.4787C75.916 77.478 75.8284 77.5095 75.7592 77.5677C75.7201 77.5936 75.6743 77.6076 75.6274 77.6079C75.5384 77.6158 75.4487 77.6158 75.3591 77.6171C75.2645 77.6088 75.1704 77.6366 75.0954 77.6949C75.0513 77.723 75.0007 77.7394 74.9485 77.7423C74.8028 77.7648 74.6545 77.7687 74.522 77.8465C74.4827 77.8626 74.4405 77.8702 74.3981 77.8689C74.2511 77.8794 74.1034 77.8847 73.9564 77.8972C73.899 77.8962 73.8424 77.9106 73.7923 77.9388C73.7108 77.998 73.6107 78.0261 73.5102 78.0179L71.8808 78.033C71.7918 78.033 71.7048 78.0291 71.6329 78.1069C71.5945 78.1335 71.5477 78.1457 71.5011 78.1411C71.0582 78.1438 70.6152 78.1438 70.1723 78.1411C70.1199 78.1433 70.068 78.1297 70.0233 78.1022C69.9459 78.0512 69.8534 78.0279 69.761 78.0363C69.1809 78.0324 68.6009 78.0264 68.0215 78.0218C67.9158 78.0313 67.8102 78.0023 67.7242 77.9401C67.6736 77.9124 67.6164 77.8989 67.5588 77.9012C67.417 77.8893 67.2747 77.8827 67.133 77.8755C67.0013 77.8762 66.8709 77.8497 66.75 77.7977C66.6689 77.7575 66.5648 77.7654 66.4712 77.7489C66.4187 77.7481 66.3672 77.7348 66.3209 77.71C66.2148 77.6151 66.0902 77.6204 65.9636 77.6184C65.8898 77.6184 65.8153 77.6184 65.7422 77.6099C65.6902 77.6083 65.6397 77.5928 65.5958 77.565C65.5241 77.5104 65.4362 77.4814 65.346 77.4826C65.2242 77.4832 65.1045 77.4511 64.9993 77.3897C64.9513 77.3684 64.9008 77.3531 64.849 77.3442C64.7641 77.3198 64.6805 77.291 64.5985 77.2579C64.5409 77.2319 64.4782 77.2192 64.4151 77.2205C64.3519 77.2219 64.2898 77.2374 64.2334 77.2658C64.1483 77.304 64.0574 77.3317 63.9697 77.36L63.7931 77.422C63.751 77.4425 63.7068 77.4584 63.6612 77.4695C63.5452 77.4846 63.4338 77.4985 63.3402 77.5828C63.2987 77.6054 63.2516 77.6155 63.2044 77.6118C63.1095 77.6178 63.0133 77.6118 62.9197 77.6237C62.8497 77.6393 62.7813 77.6614 62.7154 77.6896C62.6632 77.7125 62.6092 77.7308 62.5539 77.7443C62.4089 77.7687 62.2605 77.7733 62.1274 77.8498C62.0884 77.8661 62.0464 77.8738 62.0041 77.8722C61.8512 77.8834 61.699 77.8887 61.5467 77.9025C61.4839 77.9011 61.4219 77.9161 61.3667 77.946C61.2841 78.0033 61.1843 78.0305 61.084 78.0231L59.5969 78.0363C59.5126 78.0363 59.4321 78.0363 59.3649 78.1088C59.3264 78.1355 59.2798 78.148 59.2331 78.1444C58.7585 78.1471 58.2839 78.1471 57.8093 78.1444C57.757 78.1467 57.7053 78.1329 57.661 78.1049C57.5823 78.0508 57.4872 78.0258 57.3921 78.0343C57.1021 78.0311 56.812 78.0258 56.5227 78.0225C56.438 78.0263 56.3546 78.0007 56.2867 77.95C56.2379 77.9202 56.1824 77.9029 56.1252 77.8999C56.0468 77.888 55.967 77.8893 55.8886 77.8808C55.6919 77.8503 55.5038 77.7791 55.3362 77.6718C55.2811 77.6427 55.2204 77.6258 55.1582 77.6224C55.0185 77.6099 54.8702 77.6336 54.7628 77.5116C54.7549 77.5042 54.7446 77.4999 54.7338 77.4998C54.4958 77.4774 54.2967 77.3633 54.103 77.2361C53.9368 77.2315 53.8294 77.0918 53.6752 77.0529C53.5803 77.0218 53.4912 76.9752 53.4115 76.9151C53.2309 76.7952 53.016 76.7325 52.8552 76.577C52.7431 76.4702 52.492 76.4913 52.3654 76.5855C52.3206 76.6198 52.2653 76.6383 52.2178 76.6699C52.0537 76.7787 51.8592 76.834 51.7096 76.9705C51.6535 77.0082 51.5941 77.0408 51.5323 77.068C51.3904 77.1545 51.2341 77.2147 51.0709 77.246C50.9621 77.2691 50.8646 77.3449 50.7611 77.395C50.6998 77.4246 50.6372 77.451 50.5752 77.478C50.5508 77.4886 50.5172 77.4886 50.502 77.5057C50.3946 77.631 50.2476 77.6145 50.1065 77.6191C50.0697 77.6163 50.0326 77.6212 49.9977 77.6333C49.9628 77.6454 49.9307 77.6646 49.9035 77.6896C49.8864 77.71 49.8634 77.7245 49.8376 77.7311C49.6016 77.7562 49.398 77.9104 49.1528 77.8966C49.067 77.8921 48.9824 77.9183 48.9142 77.9704C48.8561 78.0053 48.7894 78.0234 48.7217 78.0225C48.4112 78.0317 48.1001 78.0343 47.789 78.0376C47.7043 78.0323 47.6203 78.0555 47.5504 78.1036C47.5057 78.1304 47.4548 78.1452 47.4027 78.1464C47.3085 78.1537 47.2136 78.1523 47.1186 78.151C46.8912 78.151 46.7765 78.0376 46.7759 77.8135C46.7759 76.9646 46.7759 76.1156 46.7759 75.2666C46.7753 75.2349 46.7764 75.2032 46.7792 75.1717C46.7904 75.0735 46.8187 75.0398 46.915 75.0286C46.9622 75.0232 47.0098 75.0208 47.0573 75.0214C47.2551 75.0214 47.4581 75.0214 47.6585 75.0128C47.7289 74.9997 47.798 74.9801 47.8648 74.9542C47.944 74.9307 48.0249 74.9133 48.1067 74.9021C48.2471 74.8889 48.3882 74.9021 48.5121 74.8032C48.5576 74.7663 48.6439 74.7742 48.7098 74.7696C48.8627 74.7597 49.017 74.763 49.1449 74.6562C49.157 74.6458 49.1723 74.6398 49.1884 74.6391C49.3756 74.647 49.5179 74.5125 49.6913 74.4776C49.7162 74.4725 49.739 74.4604 49.7572 74.4427C49.8158 74.3869 49.8926 74.3541 49.9734 74.3504C50.0239 74.3393 50.0735 74.3243 50.1217 74.3056V74.3056ZM55.3468 62.2564C55.3468 61.613 55.3468 60.9697 55.3468 60.327C55.3468 60.2328 55.354 60.1253 55.3131 60.0476C55.2294 59.888 55.2393 59.7226 55.2261 59.5558C55.2222 59.4566 55.2024 59.3587 55.1675 59.2658C55.1292 59.1852 55.1068 59.0979 55.1016 59.0087C55.0954 58.8664 55.0864 58.7244 55.0745 58.5829C55.0741 58.5354 55.0623 58.4886 55.0403 58.4465C54.9585 58.3259 54.9519 58.1907 54.9401 58.051C54.9326 57.9834 54.9166 57.9169 54.8926 57.8533C54.8267 57.6733 54.7608 57.4947 54.6902 57.3154C54.6896 57.3101 54.6896 57.3048 54.6902 57.2996C54.6949 57.0761 54.509 56.9107 54.5037 56.6892C54.5037 56.6681 54.4714 56.649 54.4569 56.6272C54.3919 56.5398 54.3338 56.4474 54.2829 56.3511C54.2173 56.1985 54.1332 56.0546 54.0324 55.9226C53.896 55.7441 53.7389 55.5823 53.5644 55.4408C53.4801 55.3749 53.4207 55.2694 53.2962 55.2589C53.1847 55.257 53.0767 55.2198 52.9877 55.1527C52.9564 55.133 52.9199 55.1232 52.8829 55.1244C52.7141 55.1244 52.5454 55.1191 52.3766 55.1244C52.3345 55.1227 52.293 55.1344 52.258 55.158C52.1763 55.2158 52.0803 55.25 51.9805 55.2569C51.8298 55.2966 51.6908 55.3719 51.5751 55.4764C51.3871 55.627 51.2328 55.8154 51.1223 56.0294C51.0939 56.0835 51.0353 56.121 51.0063 56.1744C50.9252 56.3254 50.854 56.4809 50.7756 56.6358C50.7209 56.7426 50.6306 56.8408 50.6101 56.9522C50.5797 57.1257 50.5258 57.2942 50.45 57.4532C50.4315 57.4907 50.4295 57.5395 50.4038 57.5685C50.3379 57.6423 50.3379 57.7287 50.3254 57.819C50.3209 57.9129 50.3006 58.0054 50.2654 58.0925C50.2232 58.1711 50.1976 58.2574 50.1903 58.3463C50.1823 58.4781 50.1751 58.61 50.1646 58.7418C50.1599 58.7939 50.1646 58.8604 50.1349 58.8941C50.0274 59.014 50.0459 59.1577 50.0334 59.2975C50.0219 59.3851 50.0045 59.4719 49.9813 59.5572C49.9548 59.6354 49.9354 59.716 49.9233 59.7977C49.9114 60.0555 49.9174 60.3145 49.9042 60.5722C49.8919 60.7133 49.8714 60.8535 49.8429 60.9921C49.8203 61.0665 49.8036 61.1425 49.7928 61.2195C49.7888 61.9314 49.7888 62.6431 49.7928 63.3545C49.7981 63.4215 49.8105 63.4878 49.8297 63.5522C49.8552 63.6261 49.8744 63.7019 49.8871 63.779C49.9035 64.0947 49.9081 64.4111 49.9226 64.7268C49.9301 64.8044 49.9444 64.8812 49.9655 64.9562C49.9922 65.0402 50.0142 65.1256 50.0314 65.212C50.0452 65.3214 50.0367 65.4334 50.0472 65.5415C50.0504 65.6042 50.0685 65.6652 50.1 65.7195C50.1441 65.791 50.1669 65.8735 50.1659 65.9575C50.1738 66.1368 50.183 66.316 50.1968 66.4947C50.194 66.5523 50.2072 66.6096 50.2351 66.6601C50.3201 66.7643 50.3162 66.8836 50.326 67.0042C50.3244 67.0878 50.3384 67.171 50.3676 67.2494C50.4171 67.3526 50.4457 67.4646 50.4519 67.579C50.4509 67.6467 50.4677 67.7136 50.5007 67.7728C50.5505 67.8469 50.5776 67.9339 50.5785 68.0232C50.5905 68.1214 50.6099 68.2186 50.6365 68.3139C50.6609 68.4042 50.7024 68.4899 50.7275 68.5776C50.7815 68.7516 50.8323 68.9269 50.8857 69.1009C50.8902 69.1162 50.8989 69.1299 50.9107 69.1405C50.9799 69.2064 50.9839 69.2875 50.9911 69.3725C50.9888 69.4302 51.0025 69.4875 51.0307 69.538C51.0973 69.6197 51.1385 69.7191 51.1493 69.824C51.1617 69.8691 51.1801 69.9124 51.204 69.9526C51.2279 69.9929 51.2478 70.0355 51.2633 70.0798C51.297 70.2235 51.4275 70.325 51.4321 70.4805C51.4321 70.497 51.4591 70.5115 51.4703 70.5293C51.496 70.562 51.5169 70.5981 51.5323 70.6367C51.5982 70.8714 51.7854 71.0461 51.8394 71.2853C51.8434 71.3031 51.8665 71.3163 51.881 71.3315C51.9187 71.3672 51.9542 71.4053 51.9871 71.4455C52.1123 71.6176 52.2283 71.7975 52.3615 71.9636C52.4252 72.0235 52.4968 72.0743 52.5744 72.1146C52.6812 72.0618 52.817 72.044 52.8763 71.93C52.9743 71.7627 53.092 71.6078 53.2269 71.4686C53.2528 71.4422 53.2749 71.4125 53.2929 71.3803C53.3588 71.2484 53.4161 71.1166 53.4774 70.9848C53.484 70.9703 53.4965 70.9591 53.5038 70.9459C53.5776 70.8083 53.6512 70.6706 53.7246 70.5326C53.7379 70.4931 53.7566 70.4557 53.78 70.4212C53.8328 70.368 53.8654 70.2981 53.8722 70.2235C53.8807 70.188 53.894 70.1538 53.9118 70.122C53.9384 70.0603 53.9681 70 54.0008 69.9413C54.0835 69.8076 54.1315 69.6554 54.1405 69.4984C54.1404 69.4877 54.1444 69.4773 54.1517 69.4694C54.2605 69.3659 54.2677 69.2275 54.2869 69.0917C54.2998 69.0523 54.3173 69.0144 54.3389 68.979C54.4048 68.8195 54.4635 68.66 54.5241 68.4998C54.5283 68.4846 54.5301 68.4688 54.5294 68.453C54.5334 68.304 54.5452 68.159 54.6408 68.0331C54.6614 67.9962 54.6725 67.9548 54.6731 67.9125C54.6817 67.8466 54.683 67.7866 54.6896 67.7233C54.7133 67.5045 54.8419 67.3114 54.8458 67.0872C54.9565 66.9785 54.9341 66.8361 54.9447 66.701C54.9539 66.5916 54.9447 66.4683 54.9928 66.3767C55.0732 66.2238 55.0811 66.0649 55.093 65.9034C55.1029 65.7769 55.0969 65.6496 55.1075 65.5237C55.1173 65.4566 55.133 65.3904 55.1543 65.326C55.1826 65.2423 55.2046 65.1566 55.2202 65.0696C55.234 64.9496 55.2261 64.827 55.234 64.7064C55.2336 64.6435 55.2466 64.5812 55.2723 64.5238C55.3286 64.4159 55.3544 64.2946 55.3468 64.1732V62.2564ZM92.1654 70.88H92.1818C92.1733 70.7073 92.1634 70.5339 92.1568 70.3606C92.1579 70.2602 92.132 70.1614 92.0816 70.0745C92.05 70.0133 92.033 69.9456 92.0322 69.8768C92.0217 69.7502 92.0256 69.6236 91.9149 69.53C91.8931 69.5122 91.8925 69.472 91.878 69.4444C91.8506 69.3887 91.8191 69.3351 91.7837 69.2842C91.6862 69.1523 91.5734 69.037 91.4871 68.9012C91.4189 68.7773 91.3158 68.6762 91.1905 68.6105C91.1459 68.5838 91.1037 68.5531 91.0646 68.5189C90.9888 68.4642 90.915 68.4062 90.8359 68.3561C90.7739 68.3192 90.7099 68.2859 90.644 68.2566C90.6063 68.2395 90.5676 68.2248 90.528 68.2124C90.4885 68.1986 90.4384 68.1979 90.41 68.1729C90.3297 68.1123 90.233 68.0774 90.1325 68.0727C90.0798 68.0696 90.0281 68.0564 89.9803 68.0338C89.8778 67.9784 89.7615 67.9539 89.6454 67.9632C89.5294 67.9632 89.4128 67.9632 89.2974 67.9632C89.0707 67.9573 88.8703 68.0641 88.6587 68.1201C88.5572 68.1472 88.461 68.2098 88.3489 68.221C88.3226 68.2244 88.2974 68.2336 88.2751 68.248C88.127 68.3362 87.9846 68.4335 87.8486 68.5393C87.6107 68.7424 87.3516 68.9401 87.2211 69.2433C87.2145 69.2572 87.2007 69.2677 87.1934 69.2815C87.1631 69.3356 87.1341 69.3896 87.1058 69.4444C87.0774 69.4991 87.0596 69.5379 87.0365 69.5847C86.9363 69.7864 86.8256 69.9802 86.8335 70.2215C86.8388 70.3711 86.8553 70.5273 86.7841 70.6723C86.7083 70.8279 86.8744 70.961 86.8309 71.1159C86.8289 71.1317 86.8289 71.1476 86.8309 71.1634C86.8348 71.342 86.8467 71.522 86.8401 71.7006C86.8276 72.0163 86.9278 72.311 86.9911 72.6129C87.0018 72.6425 87.0142 72.6715 87.028 72.6999C87.0559 72.7671 87.0779 72.8365 87.0939 72.9075C87.1097 73.0117 87.1064 73.1184 87.1189 73.2226C87.12 73.28 87.1357 73.3363 87.1644 73.386C87.2226 73.4679 87.2524 73.5665 87.2494 73.6668C87.2534 73.74 87.2455 73.8257 87.2804 73.883C87.3354 73.9841 87.3751 74.0927 87.3984 74.2054C87.4643 74.4446 87.7214 74.5659 87.9086 74.4394C87.9931 74.3877 88.0892 74.358 88.1881 74.353C88.2805 74.3385 88.3715 74.3165 88.4603 74.2871C88.5394 74.2634 88.6145 74.2212 88.6943 74.2054C88.7731 74.1989 88.8481 74.1686 88.9092 74.1184C88.933 74.0977 88.9619 74.0836 88.9929 74.0775C89.1306 74.0439 89.2328 73.9259 89.3818 73.9186C89.4029 73.9186 89.4213 73.885 89.4437 73.8718C89.4831 73.8464 89.5246 73.8243 89.5677 73.8059C89.7212 73.7532 89.8654 73.6765 89.9948 73.5785C90.0195 73.5591 90.0488 73.5461 90.0798 73.5409C90.2446 73.5093 90.3633 73.3913 90.5043 73.3155C90.6216 73.2496 90.7021 73.1257 90.8471 73.1033C90.8734 73.0993 90.8952 73.065 90.9183 73.0446C91.0501 72.9312 91.1819 72.8218 91.3045 72.7025C91.4166 72.5938 91.5128 72.4685 91.6249 72.3591C91.7369 72.2497 91.7732 72.0816 91.878 71.9636C91.9854 71.8394 92.0411 71.6788 92.0335 71.5147C92.0431 71.4587 92.0611 71.4045 92.0869 71.3539C92.1148 71.2926 92.1369 71.2288 92.1528 71.1634C92.1634 71.0711 92.1588 70.9749 92.1654 70.88ZM61.6271 70.7027H61.6324C61.6324 70.8714 61.6284 71.0401 61.6324 71.2082C61.6294 71.282 61.6434 71.3555 61.6732 71.4231C61.8005 71.6446 61.8677 71.8918 62.0061 72.1119C62.1207 72.2852 62.2508 72.4476 62.395 72.597C62.5143 72.7289 62.6534 72.8396 62.7819 72.9622C62.8643 73.0407 62.9322 73.1356 63.0634 73.1415C63.093 73.1415 63.124 73.1811 63.1478 73.2074C63.2756 73.3531 63.4635 73.4052 63.619 73.5093C63.7739 73.6046 63.9374 73.6849 64.1075 73.7492C64.2611 73.8152 64.4298 73.8409 64.5827 73.7618C64.8134 73.6418 65.0336 73.5021 65.257 73.3702C65.3159 73.3351 65.3733 73.2982 65.4291 73.2595C65.5312 73.1896 65.6367 73.123 65.7323 73.0446C65.8536 72.9451 65.9544 72.8159 66.0856 72.7342C66.2332 72.6425 66.3611 72.5503 66.4151 72.3769C66.425 72.3446 66.4606 72.3209 66.4811 72.2932C66.5437 72.2174 66.6261 72.1495 66.6636 72.0625C66.7203 71.9307 66.835 71.8186 66.8238 71.6591C66.8254 71.6432 66.8326 71.6285 66.8443 71.6176C66.9247 71.5352 66.9339 71.431 66.9405 71.3242C66.9387 71.1917 66.9495 71.0593 66.9728 70.9287C67.0176 70.7543 67.0176 70.5713 66.9728 70.3968C66.954 70.2721 66.9419 70.1465 66.9365 70.0204C66.9331 69.968 66.9151 69.9175 66.8845 69.8748C66.8347 69.8069 66.8069 69.7255 66.8047 69.6414C66.7994 69.5793 66.7807 69.519 66.75 69.4648C66.6379 69.296 66.5239 69.1266 66.396 68.9698C66.2939 68.8447 66.1803 68.7295 66.0566 68.6257C65.9379 68.5255 65.7982 68.4504 65.6729 68.3574C65.5583 68.2724 65.4449 68.1926 65.2926 68.194C65.2559 68.1909 65.2207 68.1777 65.1911 68.1557C65.0112 68.0338 64.7864 68.0536 64.5979 67.9646C64.5929 67.9635 64.5877 67.9635 64.5827 67.9646C64.4087 67.9646 64.2347 67.9646 64.0613 67.9646C64.0089 67.9687 63.9576 67.9818 63.9097 68.0035C63.7403 68.0694 63.5518 68.0872 63.3949 68.1893C63.3856 68.1941 63.3752 68.1966 63.3646 68.1966C63.1478 68.2045 62.9935 68.3469 62.8221 68.4504C62.747 68.4958 62.6864 68.5716 62.6073 68.6046C62.4702 68.658 62.3592 68.7624 62.2975 68.8959C62.2794 68.9336 62.2573 68.9692 62.2315 69.0021C62.1472 69.1075 62.041 69.1998 62.0153 69.3422C62.0101 69.3699 61.9784 69.3916 61.9606 69.4173C61.9387 69.446 61.9196 69.4767 61.9033 69.5089C61.8526 69.6573 61.7918 69.802 61.7214 69.942C61.6546 70.058 61.6219 70.1905 61.6271 70.3243V70.7027ZM74.1805 70.6697H74.1759C74.1759 70.7013 74.1759 70.7356 74.1759 70.7646C74.1759 70.9531 74.1562 71.1456 74.2728 71.3143C74.289 71.3421 74.2968 71.3739 74.2952 71.406C74.2906 71.5839 74.4165 71.7145 74.4712 71.8674C74.5029 71.9597 74.5694 72.05 74.5965 72.1508C74.6317 72.2494 74.6903 72.3381 74.7672 72.4092C74.8331 72.4824 74.9129 72.5443 74.9768 72.6188C75.1548 72.8291 75.3809 72.978 75.6069 73.127C75.7388 73.2133 75.8746 73.2911 76.0024 73.3828C76.1024 73.4685 76.2247 73.524 76.3551 73.5429C76.3966 73.5462 76.4342 73.5897 76.4744 73.6135C76.5765 73.6734 76.653 73.7749 76.7855 73.7868C76.9351 73.8006 77.0808 73.8178 77.2047 73.7057C77.2231 73.6972 77.2423 73.6906 77.2621 73.686C77.3939 73.62 77.5257 73.5627 77.6503 73.4882C77.8362 73.3735 78.0155 73.2476 78.1961 73.1237C78.2429 73.0921 78.2765 73.0327 78.3279 73.0149C78.4986 72.9543 78.6219 72.831 78.7405 72.7078C78.8763 72.5674 79.051 72.4547 79.105 72.2464C79.1155 72.2215 79.131 72.1991 79.1505 72.1805C79.2395 72.071 79.343 71.9709 79.3548 71.8179C79.3572 71.7967 79.3667 71.777 79.3819 71.7619C79.4854 71.6657 79.4893 71.5385 79.4972 71.4112C79.4931 71.343 79.5028 71.2747 79.5256 71.2102C79.6231 71.0283 79.6225 70.8338 79.6159 70.6394C79.616 70.5292 79.5977 70.4199 79.5618 70.3157C79.5237 70.2237 79.5015 70.1259 79.4959 70.0264C79.4893 69.8998 79.4834 69.7726 79.3792 69.677C79.3635 69.6559 79.3531 69.6312 79.3489 69.6052C79.2986 69.4246 79.2098 69.2571 79.0886 69.1141C79.0483 69.0673 78.991 69.0337 78.9567 68.9823C78.7959 68.7661 78.581 68.6066 78.3852 68.426C78.3581 68.4015 78.3266 68.3825 78.2923 68.3699C78.1269 68.3106 77.9904 68.1794 77.8026 68.1768C77.7834 68.1768 77.7656 68.1564 77.7459 68.1504C77.553 68.088 77.3594 68.0265 77.1652 67.9659C77.1494 67.9636 77.1334 67.9636 77.1177 67.9659C76.9753 67.9659 76.833 67.9613 76.6906 67.9659C76.623 67.9727 76.5566 67.9879 76.4928 68.0114C76.3089 68.0687 76.1132 68.0898 75.9464 68.1972C75.9413 68.1989 75.9357 68.1989 75.9306 68.1972C75.7295 68.1847 75.5826 68.3198 75.4408 68.4194C75.1719 68.6101 74.9306 68.837 74.7237 69.0937C74.6501 69.1747 74.5932 69.2695 74.5563 69.3725C74.5211 69.4826 74.4669 69.5857 74.3961 69.677C74.3429 69.7484 74.3124 69.834 74.3084 69.9229C74.3106 69.9855 74.2948 70.0475 74.2629 70.1015C74.2338 70.1353 74.2119 70.1746 74.1984 70.2171C74.1849 70.2596 74.1802 70.3043 74.1845 70.3487C74.1799 70.4561 74.1805 70.5642 74.1805 70.6697Z" fill="white"/>
<defs>
<filter id="filter0_d" x="27" y="26" width="88" height="88" filterUnits="userSpaceOnUse" color-interpolation-filters="sRGB">
<feFlood flood-opacity="0" result="BackgroundImageFix"/>
<feColorMatrix in="SourceAlpha" type="matrix" values="0 0 0 0 0 0 0 0 0 0 0 0 0 0 0 0 0 0 127 0"/>
<feOffset/>
<feGaussianBlur stdDeviation="2"/>
<feColorMatrix type="matrix" values="0 0 0 0 0 0 0 0 0 0 0 0 0 0 0 0 0 0 0.4 0"/>
<feBlend mode="normal" in2="BackgroundImageFix" result="effect1_dropShadow"/>
<feBlend mode="normal" in="SourceGraphic" in2="effect1_dropShadow" result="shape"/>
</filter>
</defs>
</svg>
