<svg width="140" height="140" viewBox="0 0 140 140" fill="none" xmlns="http://www.w3.org/2000/svg">
<rect opacity="0.01" width="140" height="140" fill="#0B0B0C"/>
<g filter="url(#filter0_d)">
<rect x="31" y="30" width="80" height="80" rx="12" fill="#1877F2"/>
</g>
<path d="M81.0653 49.0026C81.1997 49.3356 81.4442 49.6668 81.4503 50.0024C81.4875 51.9578 81.4459 53.9158 81.4806 55.8711C81.4936 56.6333 81.1589 56.8692 80.4565 56.8588C79.2261 56.8388 77.993 56.8189 76.7652 56.8753C75.161 56.9498 74.6294 57.5378 74.6277 59.1194C74.6277 60.4444 74.6372 61.7693 74.6468 63.0943C74.6468 63.1498 74.6901 63.2062 74.7578 63.3701C76.5336 63.3701 78.3537 63.3701 80.1747 63.3701C81.4347 63.3701 81.576 63.5383 81.4225 64.819C81.1832 66.8221 80.9204 68.8217 80.7123 70.8282C80.643 71.4994 80.3603 71.7699 79.6917 71.7613C78.0537 71.7396 76.4157 71.7543 74.626 71.7543V72.892C74.626 78.7018 74.6338 84.5046 74.6095 90.3118C74.6095 90.7453 74.3728 91.1789 74.247 91.6124H65.724C65.5965 91.1789 65.3598 90.7453 65.3581 90.3118C65.3338 84.4725 65.3416 78.6341 65.3416 72.7958V71.6902C63.8623 71.6902 62.4801 71.6607 61.1013 71.7006C60.2741 71.7214 59.9897 71.3901 60.001 70.5785C60.0382 68.559 60.0443 66.5385 60.001 64.519C59.9819 63.6666 60.2438 63.3198 61.1334 63.3553C62.5755 63.4117 64.0201 63.3701 65.5679 63.3701C65.5679 61.6089 65.7301 59.9267 65.5367 58.2852C64.9887 53.6244 68.5274 49.9781 73.1518 49.1804C73.3938 49.1387 73.6288 49.0607 73.8672 49L81.0653 49.0026Z" fill="white"/>
<defs>
<filter id="filter0_d" x="27" y="26" width="88" height="88" filterUnits="userSpaceOnUse" color-interpolation-filters="sRGB">
<feFlood flood-opacity="0" result="BackgroundImageFix"/>
<feColorMatrix in="SourceAlpha" type="matrix" values="0 0 0 0 0 0 0 0 0 0 0 0 0 0 0 0 0 0 127 0"/>
<feOffset/>
<feGaussianBlur stdDeviation="2"/>
<feColorMatrix type="matrix" values="0 0 0 0 0 0 0 0 0 0 0 0 0 0 0 0 0 0 0.4 0"/>
<feBlend mode="normal" in2="BackgroundImageFix" result="effect1_dropShadow"/>
<feBlend mode="normal" in="SourceGraphic" in2="effect1_dropShadow" result="shape"/>
</filter>
</defs>
</svg>
