<svg width="140" height="140" viewBox="0 0 140 140" fill="none" xmlns="http://www.w3.org/2000/svg">
<rect opacity="0.01" width="140" height="140" fill="#0B0B0C"/>
<g filter="url(#filter0_d)">
<rect x="30" y="30" width="80" height="80" rx="12" fill="#9B907E"/>
</g>
<path d="M91.9996 69.8567C92.0944 82.0588 82.2231 91.7747 70.4467 91.9994C57.9866 92.2384 48.084 82.0768 48.0005 70.1753C47.9171 58.0774 57.7799 48.2582 69.5345 48.005C81.4541 47.748 91.9351 57.3766 91.9996 69.8567ZM70.0228 49.9366C58.9187 49.9518 50.1815 58.891 49.9416 69.557C49.6979 80.5767 58.5347 89.9957 69.9365 90.0725C80.8472 90.1455 90.014 81.1409 90.0728 70.3061C90.1334 59.0333 81.2293 49.9916 70.0228 49.9366Z" fill="white"/>
<path d="M67.8659 57.3091C67.8631 57.0287 67.9162 56.7506 68.022 56.491C68.1278 56.2314 68.2843 55.9954 68.4823 55.7969C68.6803 55.5984 68.9158 55.4413 69.1752 55.3348C69.4345 55.2283 69.7124 55.1744 69.9928 55.1765C70.2782 55.1692 70.5622 55.219 70.8281 55.3229C71.094 55.4269 71.3365 55.5828 71.5414 55.7816C71.7463 55.9804 71.9095 56.2181 72.0214 56.4807C72.1333 56.7434 72.1916 57.0258 72.193 57.3113C72.1944 57.5967 72.1388 57.8796 72.0295 58.1434C71.9202 58.4071 71.7593 58.6464 71.5563 58.8472C71.3534 59.048 71.1124 59.2063 70.8475 59.3127C70.5826 59.4192 70.2991 59.4718 70.0137 59.4673C69.7292 59.4729 69.4465 59.4208 69.1827 59.3142C68.9189 59.2076 68.6795 59.0487 68.4788 58.847C68.2781 58.6453 68.1203 58.4051 68.0149 58.1408C67.9096 57.8764 67.8589 57.5935 67.8659 57.3091Z" fill="white"/>
<path d="M84.8286 69.9905C84.8325 70.4152 84.7105 70.8315 84.4781 71.1869C84.2456 71.5423 83.9131 71.8209 83.5225 71.9875C83.1319 72.1542 82.7007 72.2014 82.2832 72.1232C81.8658 72.045 81.4809 71.8449 81.1771 71.5482C80.8733 71.2515 80.6641 70.8715 80.576 70.4561C80.488 70.0406 80.5249 69.6084 80.6822 69.2139C80.8395 68.8195 81.1101 68.4804 81.4599 68.2396C81.8097 67.9988 82.223 67.867 82.6476 67.8608C82.9312 67.8552 83.2131 67.9062 83.4769 68.0106C83.7406 68.115 83.981 68.2709 84.184 68.4691C84.3869 68.6673 84.5484 68.9038 84.6591 69.1651C84.7698 69.4263 84.8274 69.7069 84.8286 69.9905V69.9905Z" fill="white"/>
<path d="M67.8655 63.6642C67.8655 62.4315 68.7929 61.5174 70.0247 61.5249C70.3051 61.5243 70.5829 61.5793 70.842 61.6867C71.1011 61.794 71.3363 61.9517 71.5341 62.1505C71.7319 62.3494 71.8883 62.5854 71.9943 62.8451C72.1003 63.1047 72.1537 63.3828 72.1516 63.6633C72.152 63.9476 72.0959 64.2291 71.9866 64.4915C71.8772 64.754 71.7169 64.992 71.5147 65.192C71.3126 65.3919 71.0728 65.5496 70.8092 65.6561C70.5456 65.7625 70.2634 65.8155 69.9791 65.812C69.6988 65.8118 69.4212 65.7558 69.1626 65.6474C68.904 65.539 68.6696 65.3802 68.4729 65.1804C68.2763 64.9805 68.1213 64.7435 68.017 64.4833C67.9127 64.223 67.8612 63.9446 67.8655 63.6642V63.6642Z" fill="white"/>
<path d="M67.8656 70.0089C67.8604 69.7286 67.9111 69.4501 68.0148 69.1895C68.1184 68.929 68.2729 68.6917 68.4692 68.4915C68.6655 68.2913 68.8997 68.1322 69.1582 68.0235C69.4166 67.9148 69.6941 67.8586 69.9745 67.8583C70.4013 67.8502 70.8208 67.9693 71.1796 68.2005C71.5384 68.4317 71.8203 68.7645 71.9893 69.1565C72.1583 69.5484 72.2068 69.9819 72.1286 70.4015C72.0504 70.8211 71.849 71.2079 71.5502 71.5127C71.2513 71.8175 70.8685 72.0264 70.4505 72.1128C70.0325 72.1992 69.5982 72.1592 69.203 71.9979C68.8078 71.8366 68.4695 71.5613 68.2314 71.2071C67.9932 70.8529 67.8659 70.4358 67.8656 70.0089V70.0089Z" fill="white"/>
<path d="M69.9877 74.2005C70.2725 74.1926 70.556 74.2415 70.8216 74.3445C71.0873 74.4474 71.3297 74.6023 71.5348 74.8C71.7399 74.9978 71.9035 75.2344 72.016 75.4961C72.1286 75.7579 72.1878 76.0394 72.1903 76.3243C72.1927 76.6091 72.1384 76.8917 72.0304 77.1553C71.9223 77.4189 71.7628 77.6583 71.5612 77.8596C71.3596 78.0608 71.1198 78.2199 70.856 78.3274C70.5922 78.4349 70.3095 78.4887 70.0247 78.4857C69.7444 78.493 69.4655 78.4442 69.2044 78.3421C68.9433 78.2399 68.7053 78.0865 68.5045 77.891C68.3036 77.6954 68.1439 77.4616 68.0348 77.2033C67.9257 76.9451 67.8694 76.6676 67.8693 76.3872C67.856 75.1573 68.7701 74.21 69.9877 74.2005Z" fill="white"/>
<path d="M59.4751 70.0247C59.4722 70.4512 59.3425 70.8671 59.1026 71.2196C58.8626 71.5721 58.5233 71.8453 58.1276 72.0045C57.732 72.1636 57.298 72.2015 56.8807 72.1132C56.4635 72.025 56.082 71.8147 55.7846 71.509C55.4873 71.2034 55.2875 70.8162 55.2108 70.3967C55.1341 69.9772 55.1839 69.5444 55.3539 69.1533C55.5239 68.7622 55.8063 68.4304 56.1653 68.2003C56.5243 67.9702 56.9436 67.852 57.37 67.8608C57.9354 67.8708 58.4739 68.1038 58.8683 68.5092C59.2626 68.9145 59.4807 69.4593 59.4751 70.0247V70.0247Z" fill="white"/>
<path d="M65.8017 70C65.8014 70.4242 65.6751 70.8388 65.4388 71.1912C65.2026 71.5437 64.8671 71.818 64.4748 71.9796C64.0825 72.1412 63.6511 72.1827 63.2352 72.0988C62.8193 72.015 62.4377 71.8096 62.1386 71.5087C61.8396 71.2078 61.6365 70.8249 61.5553 70.4084C61.474 69.992 61.5182 69.5609 61.6822 69.1696C61.8462 68.7783 62.1227 68.4445 62.4766 68.2105C62.8304 67.9765 63.2458 67.8528 63.6701 67.855C64.2371 67.857 64.7802 68.0841 65.1799 68.4863C65.5796 68.8885 65.8033 69.4329 65.8017 70V70Z" fill="white"/>
<path d="M74.1954 70.0001C74.2079 69.4372 74.4405 68.9016 74.8434 68.5081C75.2462 68.1147 75.7871 67.8948 76.3502 67.8955C76.9133 67.8963 77.4537 68.1176 77.8555 68.5121C78.2572 68.9066 78.4885 69.4428 78.4995 70.0058C78.4976 70.2902 78.4397 70.5714 78.3291 70.8333C78.2184 71.0953 78.0572 71.3329 77.8546 71.5325C77.652 71.732 77.4121 71.8897 77.1485 71.9965C76.8849 72.1032 76.6029 72.1569 76.3185 72.1546C76.0376 72.1527 75.7598 72.0955 75.501 71.9862C75.2422 71.8768 75.0075 71.7176 74.8103 71.5175C74.6131 71.3174 74.4573 71.0804 74.3518 70.82C74.2463 70.5597 74.1931 70.281 74.1954 70.0001Z" fill="white"/>
<path d="M67.8661 82.662C67.8636 82.3816 67.9171 82.1036 68.0235 81.8442C68.13 81.5848 68.2872 81.3493 68.486 81.1516C68.6848 80.9539 68.9211 80.7979 69.1811 80.6928C69.441 80.5878 69.7193 80.5357 69.9997 80.5398C70.2814 80.5398 70.5603 80.5953 70.8205 80.703C71.0808 80.8108 71.3172 80.9688 71.5164 81.168C71.7156 81.3672 71.8736 81.6036 71.9814 81.8639C72.0892 82.1241 72.1447 82.403 72.1447 82.6847C72.1447 82.9664 72.0892 83.2453 71.9814 83.5056C71.8736 83.7658 71.7156 84.0023 71.5164 84.2014C71.3172 84.4006 71.0808 84.5586 70.8205 84.6664C70.5603 84.7742 70.2814 84.8297 69.9997 84.8297C69.7156 84.8334 69.4337 84.7796 69.1709 84.6715C68.9081 84.5634 68.6699 84.4033 68.4706 84.2009C68.2713 83.9984 68.115 83.7576 68.0111 83.4932C67.9072 83.2287 67.8579 82.946 67.8661 82.662V82.662Z" fill="white"/>
<defs>
<filter id="filter0_d" x="26" y="26" width="88" height="88" filterUnits="userSpaceOnUse" color-interpolation-filters="sRGB">
<feFlood flood-opacity="0" result="BackgroundImageFix"/>
<feColorMatrix in="SourceAlpha" type="matrix" values="0 0 0 0 0 0 0 0 0 0 0 0 0 0 0 0 0 0 127 0"/>
<feOffset/>
<feGaussianBlur stdDeviation="2"/>
<feColorMatrix type="matrix" values="0 0 0 0 0 0 0 0 0 0 0 0 0 0 0 0 0 0 0.4 0"/>
<feBlend mode="normal" in2="BackgroundImageFix" result="effect1_dropShadow"/>
<feBlend mode="normal" in="SourceGraphic" in2="effect1_dropShadow" result="shape"/>
</filter>
</defs>
</svg>
