<svg width="140" height="140" viewBox="0 0 140 140" fill="none" xmlns="http://www.w3.org/2000/svg">
<rect opacity="0.01" width="140" height="140" fill="#0F0E10"/>
<rect x="30" y="30" width="80" height="80" rx="12" fill="#1769FF"/>
<rect x="46" y="46" width="48" height="48" fill="#590000" fill-opacity="0.01"/>
<path d="M50.0014 57.6266C53.7219 57.6336 57.4437 57.6011 61.1634 57.671C62.3706 57.6936 63.616 57.8405 64.7688 58.1822C67.1246 58.8818 68.7568 60.4412 69.1168 62.9404C69.4769 65.4395 68.6304 67.5291 66.4462 68.9693C66.3819 69.0117 66.3396 69.0865 66.2535 69.1811C68.6643 70.3579 69.8673 72.3347 69.981 74.9361C70.1405 78.5754 67.7063 81.4586 63.8016 82.2655C62.6961 82.4942 61.5461 82.5817 60.413 82.5959C56.9425 82.6403 53.4712 82.6185 50 82.622L50.0014 57.6266ZM55.0625 62.7801V67.628C56.4525 67.628 57.7819 67.6393 59.1105 67.6244C60.024 67.6139 60.9509 67.6583 61.8454 67.5136C63.3279 67.275 64.3015 66.2351 64.2909 65.0907C64.281 63.9788 63.335 62.9178 61.8299 62.8182C59.6025 62.6686 57.3548 62.7801 55.0625 62.7801ZM55.0279 77.6139C57.1705 77.6139 59.2206 77.6555 61.2665 77.5884C61.8758 77.5687 62.5281 77.3407 63.0681 77.0406C64.6354 76.1709 64.6799 74.3128 63.1811 73.3286C62.7977 73.0766 62.3339 72.8429 61.892 72.8027C60.6276 72.6876 59.3548 72.6615 58.084 72.6312C57.071 72.6064 56.0565 72.6262 55.0011 72.6262C55.0011 74.1793 55.0011 75.6181 55.0011 77.0561C55.0025 77.2171 55.0138 77.3788 55.0279 77.6139Z" fill="white"/>
<path d="M89.9987 74.2937H76.771C76.3312 76.7229 78.6715 79.1479 81.3054 78.8648C82.2232 78.766 83.0937 78.2294 83.9881 77.892C84.2098 77.808 84.4279 77.6421 84.6496 77.6392C86.231 77.6174 87.813 77.6272 89.5751 77.6272C89.2723 78.1871 89.0675 78.6862 88.7604 79.1098C87.0661 81.4536 84.6432 82.4377 81.8716 82.5746C80.5702 82.6406 79.2661 82.5174 78.0001 82.209C74.43 81.3201 72.2168 78.5584 71.8589 74.6904C71.6422 72.3396 71.8144 70.024 72.9009 67.8666C74.5437 64.605 78.1427 62.8443 82.0714 63.3618C86.6432 63.9633 89.1071 66.377 89.8681 71.001C89.885 71.1027 89.9542 71.1966 89.9987 71.294V74.2937ZM84.9645 70.9312C84.7336 68.3784 83.1614 67.1479 80.4117 67.2954C78.3361 67.407 76.8247 68.9424 76.8628 70.9312H84.9645Z" fill="white"/>
<path d="M75.0703 57.6455H86.6009V60.9064H75.0703V57.6455Z" fill="white"/>
</svg>
