<svg width="140" height="140" viewBox="0 0 140 140" fill="none" xmlns="http://www.w3.org/2000/svg">
<rect x="31" y="30" width="80" height="80" rx="12" fill="#E3514F"/>
<rect x="47" y="46" width="48" height="48" fill="#590000" fill-opacity="0.01"/>
<path d="M53.7852 73.5936C53.7654 73.5152 53.7393 73.4386 53.707 73.3645C53.6664 73.2979 53.6206 73.2347 53.5701 73.1755C53.5543 73.1552 53.5272 73.1387 53.5206 73.1162C53.4718 72.9469 53.3137 72.8612 53.2311 72.7184C53.2072 72.6771 53.1811 72.6381 53.1578 72.5969C53.0747 72.4513 53.0154 72.2914 52.8987 72.1651C52.8676 72.1241 52.8411 72.0799 52.8193 72.0332C52.7954 71.9925 52.7726 71.9519 52.7487 71.9112C52.7361 71.8938 52.7248 71.8754 52.715 71.8563C52.6624 71.7095 52.5948 71.5686 52.5135 71.4359C52.5018 71.4079 52.4934 71.3786 52.4885 71.3486C52.476 71.3117 52.4614 71.2755 52.4456 71.2387C52.4195 71.1793 52.3913 71.1216 52.3657 71.0623C52.3467 71.0189 52.3299 70.9738 52.3114 70.9299C52.2929 70.8859 52.2783 70.8403 52.2571 70.798C52.2013 70.6676 52.1536 70.5338 52.1142 70.3975C52.0762 70.2914 52.0403 70.187 52.0094 70.0777C51.9784 69.9683 51.9089 69.8579 51.8622 69.748C51.8383 69.6927 51.8226 69.6342 51.8155 69.5744C51.8051 69.4645 51.8198 69.3546 51.7323 69.2656C51.7265 69.2588 51.7229 69.2503 51.722 69.2414C51.6749 69.0249 51.6279 68.8081 51.5808 68.5908C51.571 68.5441 51.577 68.4848 51.5509 68.4518C51.4743 68.3573 51.4776 68.2491 51.4748 68.1397C51.4748 68.0848 51.4748 68.0254 51.4694 67.9683C51.4717 67.9376 51.4653 67.9069 51.4509 67.8798C51.3559 67.7699 51.3624 67.6353 51.3504 67.5057C51.3434 67.3924 51.3221 67.2805 51.2869 67.1727C51.2494 67.0688 51.2543 66.948 51.2451 66.8348C51.2358 66.7216 51.2418 66.615 51.1695 66.5205C51.1469 66.4732 51.1373 66.4206 51.1418 66.3683C51.1359 66.1529 51.138 65.9375 51.1283 65.7221C51.1182 65.6541 51.1012 65.5873 51.0777 65.5227C51.0582 65.4694 51.0444 65.4141 51.0365 65.3578C51.0002 64.4179 50.991 63.4776 51.0088 62.5369C51.0131 62.2776 51.0222 62.0186 51.0359 61.76C51.0462 61.6918 51.0626 61.6247 51.0848 61.5594C51.1057 61.4931 51.1201 61.4248 51.1277 61.3556C51.1364 61.1539 51.137 60.9517 51.1397 60.7512C51.136 60.6763 51.1566 60.6022 51.1983 60.5402C51.2216 60.4984 51.235 60.4518 51.2375 60.4039C51.2478 60.3259 51.2494 60.2462 51.2559 60.1677C51.2554 60.1366 51.2611 60.1058 51.2728 60.077C51.3461 59.955 51.345 59.8182 51.3602 59.6836C51.3625 59.6353 51.3781 59.5887 51.4053 59.549C51.4694 59.4754 51.4738 59.3907 51.4765 59.3028C51.473 59.1758 51.5018 59.05 51.5601 58.9374C51.6291 58.816 51.6541 58.6682 51.6976 58.5314C51.7017 58.501 51.7103 58.4713 51.7231 58.4435C51.7825 58.3567 51.8149 58.254 51.816 58.1484C51.8165 58.1264 51.8233 58.105 51.8355 58.0869C51.925 57.9584 51.9961 57.8178 52.0469 57.6693C52.0936 57.5539 52.1821 57.4539 52.2169 57.3363C52.2712 57.149 52.4494 57.0429 52.5032 56.8577C52.5151 56.8154 52.5629 56.7847 52.5912 56.7479C52.6683 56.6429 52.7362 56.5281 52.8221 56.433C52.9535 56.2852 53.0937 56.1473 53.236 56.0066C53.2903 55.9517 53.349 55.8967 53.4077 55.8473C53.4875 55.7775 53.5413 55.6698 53.6657 55.6638C53.7863 55.5495 53.9656 55.5297 54.0785 55.3989C54.1228 55.3643 54.1764 55.344 54.2323 55.3407C54.2969 55.3281 54.3616 55.3237 54.4088 55.2687C54.4175 55.2587 54.4285 55.2512 54.4409 55.2467C54.5854 55.2033 54.7304 55.1616 54.8755 55.1182C54.9455 55.0973 55.014 55.0726 55.0846 55.0522C55.1454 55.0284 55.2089 55.0123 55.2737 55.0044C55.6387 55 56.0038 55 56.3683 55C56.4163 54.9992 56.4637 55.0118 56.5052 55.0363C56.5805 55.0805 56.6653 55.1058 56.7523 55.1099C56.8478 55.1124 56.9412 55.139 57.0239 55.1874C57.0626 55.2072 57.105 55.2187 57.1483 55.2209C57.2141 55.2226 57.277 55.2488 57.3249 55.2945C57.3327 55.3052 57.3441 55.3126 57.3569 55.3154C57.4819 55.3204 57.5639 55.4187 57.672 55.4599C57.7032 55.4753 57.7329 55.4937 57.7606 55.5149C57.854 55.5742 57.9339 55.6489 58.0409 55.6962C58.1479 55.7434 58.2321 55.855 58.3255 55.9391C58.3451 55.9561 58.3581 55.9896 58.3798 55.994C58.5488 56.0314 58.6172 56.1891 58.7308 56.2913C58.806 56.355 58.8664 56.4348 58.9079 56.5248C58.9589 56.6391 59.0649 56.7286 59.1463 56.8297C59.1725 56.858 59.1951 56.8894 59.2137 56.9231C59.2864 57.0856 59.3786 57.2383 59.488 57.3781C59.5302 57.4276 59.5552 57.4897 59.5592 57.555C59.5579 57.5858 59.5638 57.6165 59.5764 57.6446C59.5891 57.6727 59.6081 57.6973 59.632 57.7165C59.6461 57.727 59.6573 57.741 59.6646 57.7572C59.708 57.8611 59.7428 57.9693 59.7939 58.0693C59.8547 58.193 59.897 58.3253 59.9194 58.4616C59.9422 58.5808 60.022 58.6885 60.0693 58.8045C60.0887 58.8576 60.1013 58.913 60.1068 58.9693C60.1093 59.0531 60.138 59.1339 60.1888 59.2001C60.2116 59.2325 60.2256 59.2704 60.2295 59.31C60.2343 59.3567 60.2365 59.4037 60.2361 59.4506C60.2334 59.4989 60.2359 59.5474 60.2437 59.5951C60.2898 59.76 60.3425 59.9248 60.392 60.0935C60.4127 60.1503 60.4278 60.209 60.4371 60.2688C60.4523 60.4265 60.4572 60.5847 60.4702 60.7424C60.4717 60.7905 60.4838 60.8376 60.5055 60.8803C60.5487 60.957 60.5698 61.0443 60.5663 61.1325C60.5707 61.4138 60.5745 61.6952 60.5778 61.9765C60.5739 62.0597 60.5947 62.1422 60.6375 62.2133C60.6656 62.2722 60.6778 62.3376 60.6728 62.4029C60.6761 63.0754 60.6775 63.7479 60.6772 64.4205C60.6772 64.5166 60.6772 64.6133 60.6772 64.71C60.6847 64.798 60.662 64.8859 60.6131 64.9589C60.5891 65.0054 60.5784 65.0577 60.5821 65.11C60.5761 65.3606 60.5772 65.6111 60.5701 65.8617C60.5658 66.01 60.5701 66.1606 60.4887 66.2969C60.4747 66.329 60.4678 66.3639 60.4686 66.3991C60.4582 66.548 60.4539 66.698 60.4403 66.8463C60.4289 66.9146 60.4134 66.9821 60.3941 67.0485C60.3762 67.1337 60.3615 67.2194 60.3398 67.304C60.3235 67.3754 60.3023 67.4458 60.2855 67.5161C60.2677 67.5699 60.2542 67.625 60.2453 67.6809C60.2366 67.7639 60.2393 67.8458 60.2366 67.9309C60.2418 68.0316 60.2164 68.1315 60.1638 68.2172C60.1187 68.2831 60.1198 68.382 60.1095 68.4711C60.0986 68.5809 60.097 68.6908 60.0351 68.7875C60.0199 68.8285 60.0095 68.8711 60.0041 68.9145C59.9867 68.9694 59.9606 69.0244 59.9438 69.0842C59.9231 69.15 59.9082 69.2175 59.8993 69.2859C59.89 69.3903 59.8993 69.4985 59.8156 69.581C59.81 69.5878 59.806 69.5959 59.8042 69.6046C59.7624 69.7551 59.7211 69.9062 59.6782 70.0573C59.6721 70.1005 59.6571 70.1419 59.6342 70.1788C59.5797 70.2424 59.5516 70.3249 59.5559 70.409C59.5584 70.442 59.554 70.4752 59.5428 70.5064C59.5317 70.5376 59.5141 70.566 59.4913 70.5898C59.4755 70.6042 59.4648 70.6235 59.4609 70.6447C59.456 70.7865 59.3658 70.8969 59.324 71.0249C59.3109 71.0571 59.2947 71.0878 59.2756 71.1167C59.2568 71.1404 59.2418 71.1669 59.2311 71.1953C59.2185 71.2726 59.1863 71.3453 59.1376 71.4063C59.0837 71.4745 59.0442 71.5533 59.0214 71.6376C58.9899 71.7672 58.866 71.853 58.8671 71.9942C58.7693 72.1156 58.7351 72.2782 58.6172 72.3865C58.5961 72.4022 58.5795 72.4235 58.5694 72.448C58.5412 72.5695 58.4445 72.6436 58.3793 72.7392C58.3603 72.7678 58.3478 72.8008 58.3304 72.831C58.309 72.8729 58.2848 72.9132 58.2582 72.9519C58.1528 73.0953 58.0447 73.2359 57.9387 73.3788C57.9211 73.4039 57.908 73.432 57.9002 73.4618C57.8752 73.5513 57.9061 73.5964 57.9914 73.6337C58.1164 73.6887 58.2381 73.7524 58.3608 73.8123C58.3684 73.8162 58.376 73.8244 58.3836 73.8244C58.6102 73.8299 58.7976 74.003 59.0323 73.9788C59.069 73.9745 59.1063 73.9776 59.1419 73.9881C59.1774 73.9986 59.2105 74.0162 59.2392 74.0398C59.2794 74.0651 59.3256 74.079 59.3729 74.0799C59.4549 74.0881 59.5358 74.0838 59.62 74.0909C59.6632 74.0899 59.7058 74.1007 59.7434 74.1222C59.8112 74.1709 59.8942 74.1932 59.9769 74.1849C60.5549 74.1849 61.1329 74.1816 61.7109 74.1849C61.8109 74.1832 61.9068 74.144 61.9798 74.075C62.0233 74.0398 62.0173 74.0085 61.9918 73.9623C61.892 73.7997 61.7743 73.6491 61.6409 73.5134C61.5612 73.4332 61.4983 73.3375 61.4562 73.2321C61.4198 73.1282 61.3388 73.0403 61.2964 72.9376C61.2454 72.814 61.1384 72.7178 61.1259 72.5755C61.1236 72.5537 61.117 72.5325 61.1063 72.5134C61.052 72.4156 60.9917 72.32 60.9433 72.2194C60.9266 72.1745 60.9183 72.1268 60.9189 72.0788C60.9207 71.9772 60.8931 71.8774 60.8396 71.7914C60.8138 71.7457 60.7998 71.6941 60.7988 71.6414C60.7896 71.5453 60.788 71.4486 60.7853 71.3519C60.7893 71.2639 60.7721 71.1762 60.7353 71.0964C60.7181 71.0516 60.7088 71.0042 60.7076 70.9562C60.6829 70.7201 60.6829 70.482 60.7076 70.2458C60.7062 70.2149 60.711 70.1841 60.7217 70.1551C60.7956 70.0304 60.7815 69.8925 60.7864 69.7573C60.7912 69.6222 60.7934 69.4799 60.8765 69.3529C60.9113 69.298 60.908 69.2183 60.914 69.1491C60.9249 69.0769 60.9461 69.0068 60.977 68.9408C61.0265 68.8117 61.1215 68.7013 61.134 68.5562C61.1339 68.5342 61.1395 68.5126 61.1503 68.4936C61.2524 68.359 61.2742 68.1782 61.3986 68.0573C61.4143 68.0419 61.4355 68.0254 61.4393 68.0068C61.4779 67.8216 61.6485 67.7364 61.7408 67.5925C61.7549 67.5705 61.7783 67.5546 61.7897 67.532C61.894 67.3254 62.0613 67.1754 62.2243 67.0216C62.2688 66.9798 62.3123 66.937 62.3601 66.8985C62.4079 66.8601 62.4595 66.8326 62.5057 66.7952C62.6094 66.7106 62.7105 66.6232 62.8126 66.537C62.8381 66.515 62.8615 66.476 62.8892 66.4727C63.0071 66.4584 63.0701 66.3562 63.1608 66.3078C63.2972 66.2408 63.4199 66.1375 63.5764 66.1155C63.6345 66.1022 63.6904 66.0808 63.7426 66.0518C63.8822 65.9914 64.0066 65.887 64.1772 65.8969C64.2451 65.9007 64.3157 65.8584 64.3847 65.8364C64.4244 65.8203 64.4651 65.8065 64.5064 65.7952C64.5577 65.7857 64.6096 65.7805 64.6618 65.7798C65.2484 65.7628 65.8346 65.7501 66.4207 65.7914C66.49 65.7951 66.5572 65.8162 66.6163 65.8529C66.6694 65.8811 66.728 65.897 66.788 65.8996C66.8678 65.911 66.9454 65.9345 67.0183 65.9694C67.1514 66.0243 67.2665 66.137 67.4257 66.1183C67.4433 66.1168 67.4609 66.1209 67.4762 66.1298C67.6088 66.2163 67.741 66.3031 67.8728 66.3903C67.894 66.4046 67.9114 66.4331 67.9336 66.437C68.0271 66.4524 68.0966 66.5155 68.1765 66.5535C68.2567 66.5956 68.33 66.6501 68.3937 66.715C68.585 66.8916 68.7724 67.0718 68.956 67.2557C69.075 67.3743 69.1858 67.5013 69.2993 67.6249C69.3118 67.6372 69.3201 67.6531 69.3232 67.6705C69.3314 67.7804 69.4226 67.8408 69.4808 67.92C69.5085 67.9579 69.5318 67.9991 69.5557 68.0392C69.5796 68.0793 69.6062 68.1293 69.6318 68.1738C69.6426 68.1925 69.6611 68.2095 69.6644 68.2287C69.6828 68.3491 69.7681 68.4276 69.8339 68.5183C69.8485 68.5346 69.8606 68.5532 69.8697 68.5733C69.9208 68.748 69.9697 68.9227 70.0196 69.0974C70.0294 69.131 70.043 69.1628 70.0544 69.1958C70.075 69.2573 70.0957 69.3189 70.1152 69.3804C70.122 69.4276 70.1365 69.4732 70.1582 69.5156C70.202 69.5763 70.2235 69.6505 70.219 69.7255C70.219 70.3145 70.219 70.9033 70.219 71.492C70.223 71.5271 70.2197 71.5626 70.2095 71.5964C70.1992 71.6301 70.1821 71.6614 70.1592 71.6881C70.1499 71.6974 70.1427 71.7087 70.1381 71.7211C70.0957 71.8711 70.0549 72.0222 70.012 72.1722C69.9941 72.2343 69.9718 72.2958 69.949 72.3563C69.9338 72.3969 69.9153 72.4359 69.8947 72.4749C69.8741 72.514 69.8496 72.5673 69.8257 72.6123C69.8176 72.6277 69.8034 72.6403 69.7964 72.6557C69.7513 72.7656 69.7236 72.8837 69.6584 72.9766C69.5807 73.0865 69.5497 73.2206 69.4558 73.3217C69.3618 73.4228 69.2961 73.5464 69.2129 73.6568C69.1624 73.7219 69.108 73.7837 69.05 73.842C69.0274 73.8629 69.0117 73.8902 69.005 73.9204C68.9983 73.9505 69.0009 73.9821 69.0125 74.0107C69.0342 74.0706 69.0902 74.075 69.1429 74.0788C69.1956 74.0827 69.2477 74.0788 69.2993 74.0854C69.3421 74.0867 69.3838 74.0986 69.421 74.12C69.4825 74.1619 69.5563 74.1812 69.6301 74.175H71.966C72.0401 74.1813 72.1139 74.16 72.1735 74.1151C72.2074 74.0955 72.244 74.0814 72.2822 74.0733C72.3517 74.0464 72.361 74.0184 72.3251 73.9546C72.299 73.9101 72.2784 73.8623 72.2529 73.8173C72.2371 73.787 72.2179 73.7586 72.1958 73.7326C72.0831 73.6186 71.9867 73.4891 71.9095 73.348C71.8293 73.2118 71.7406 73.081 71.6439 72.9563C71.6368 72.9458 71.6216 72.9398 71.6167 72.9288C71.5673 72.8096 71.4978 72.6942 71.4755 72.5695C71.4494 72.4255 71.3761 72.3074 71.3125 72.1848C71.2713 72.1186 71.2468 72.0431 71.2414 71.965C71.2386 71.8519 71.2414 71.7376 71.162 71.6403C71.1423 71.6013 71.1335 71.5576 71.1365 71.5139C71.0944 70.9132 71.0944 70.3102 71.1365 69.7095C71.1343 69.6614 71.1454 69.6137 71.1686 69.5716C71.237 69.4886 71.2381 69.3947 71.2403 69.2969C71.2424 69.1991 71.2403 69.1018 71.3239 69.0304C71.3326 69.0205 71.3388 69.0086 71.3419 68.9958C71.3875 68.865 71.432 68.7331 71.4788 68.6024C71.4901 68.5743 71.5041 68.5475 71.5206 68.5222C71.5342 68.4996 71.5613 68.4809 71.564 68.4579C71.5789 68.3671 71.6179 68.2822 71.677 68.2123C71.7232 68.1502 71.7591 68.0798 71.8009 68.0139C71.8742 67.8974 71.9465 67.7809 72.0231 67.6667C72.0622 67.609 72.11 67.5568 72.1524 67.5018C72.1861 67.4516 72.2224 67.4032 72.261 67.3568C72.3289 67.2853 72.4028 67.2194 72.4756 67.1529C72.4979 67.1326 72.5402 67.1232 72.5484 67.098C72.6065 66.9331 72.7722 66.8908 72.8852 66.7886C72.9748 66.7073 73.0617 66.6238 73.1568 66.5485C73.2498 66.479 73.3477 66.4164 73.4496 66.3611C73.5811 66.2886 73.7261 66.2436 73.8451 66.1469C73.87 66.1293 73.899 66.1189 73.9293 66.1166C73.9952 66.1149 74.0581 66.0885 74.1058 66.0425C74.1089 66.0393 74.1126 66.0369 74.1167 66.0353C74.2672 65.9903 74.4171 65.9408 74.5697 65.9023C74.6336 65.8935 74.6951 65.8724 74.7512 65.8403C74.7986 65.8102 74.8533 65.7939 74.9093 65.793C75.2651 65.7804 75.6214 65.7677 75.9772 65.7666C76.2489 65.7666 76.5243 65.7815 76.7981 65.7903C76.8676 65.7915 76.9351 65.8144 76.9915 65.8556C77.0404 65.8825 77.0949 65.8974 77.1506 65.8991C77.2162 65.8977 77.2801 65.9199 77.331 65.9617C77.3397 65.971 77.3527 65.9826 77.3636 65.982C77.5168 65.9793 77.6352 66.0853 77.777 66.1166C77.8103 66.1245 77.8422 66.1377 77.8715 66.1556C77.9671 66.2139 78.0551 66.2903 78.1572 66.3309C78.3861 66.4304 78.5958 66.5701 78.7765 66.7436C78.7913 66.7594 78.8079 66.7734 78.8259 66.7853C79.0682 66.9068 79.2507 67.1018 79.4039 67.315C79.5354 67.4996 79.6821 67.6683 79.8277 67.8392C79.8402 67.8515 79.8511 67.8653 79.8602 67.8804C79.9119 67.9903 79.9607 68.1002 80.014 68.2101C80.052 68.2875 80.0966 68.3617 80.1368 68.4381C80.1965 68.5524 80.2552 68.6672 80.3144 68.782C80.3144 68.7859 80.3204 68.7897 80.3204 68.7936C80.3204 68.9513 80.4209 69.0782 80.448 69.2277C80.4501 69.2715 80.4608 69.3144 80.4795 69.354C80.5599 69.47 80.5588 69.6024 80.5675 69.7332C80.5741 69.8299 80.5762 69.9266 80.5779 70.0233C80.577 70.0934 80.5958 70.1624 80.6322 70.2222C80.6571 70.2677 80.67 70.319 80.6697 70.3711C80.6751 70.5117 80.6697 70.6524 80.6729 70.7931C80.6803 70.8812 80.6581 70.9693 80.6099 71.0431C80.5867 71.0899 80.5755 71.1418 80.5773 71.1942C80.5664 71.3431 80.5654 71.4925 80.5507 71.6414C80.5382 71.7047 80.52 71.7667 80.4964 71.8266C80.4448 71.9964 80.3258 72.1447 80.3388 72.3354C80.3426 72.3616 80.3368 72.3884 80.3225 72.4107C80.2481 72.4909 80.2313 72.5975 80.1856 72.6909C80.1215 72.8228 80.058 72.9552 79.9895 73.0854C79.9596 73.1329 79.9271 73.1788 79.8923 73.2228C79.8298 73.3167 79.775 73.4162 79.7065 73.5046C79.6136 73.6244 79.511 73.7359 79.4137 73.8519C79.393 73.8741 79.3764 73.9 79.3648 73.9283C79.3586 73.9425 79.3556 73.9579 79.3562 73.9735C79.3567 73.989 79.3608 74.0042 79.3681 74.0179C79.3754 74.0316 79.3857 74.0434 79.3982 74.0525C79.4108 74.0615 79.4252 74.0675 79.4403 74.07C79.4828 74.079 79.5262 74.0831 79.5696 74.0821C79.6609 74.0821 79.7505 74.0849 79.8277 74.1513C79.8572 74.1699 79.8919 74.1783 79.9265 74.1755C80.5393 74.1781 81.1521 74.1781 81.7648 74.1755C81.8159 74.1726 81.8648 74.1533 81.9044 74.1206C81.9984 74.0458 81.9875 74.0447 81.9441 73.9283C81.9212 73.8531 81.909 73.775 81.9077 73.6964C81.9017 73.6123 81.9006 73.5315 81.8403 73.4618C81.8311 73.4521 81.825 73.4399 81.8229 73.4266C81.8229 73.2068 81.6806 73.0233 81.6958 72.8024C81.7023 72.7162 81.6991 72.6288 81.6247 72.559C81.5986 72.5348 81.597 72.4777 81.5942 72.4348C81.5828 72.2332 81.5736 72.0315 81.5654 71.8304C81.5662 71.756 81.5474 71.6826 81.5111 71.6178C81.4837 71.5673 81.4695 71.5106 81.4698 71.453C81.466 70.9584 81.4671 70.4683 81.4666 69.976C81.4654 69.8968 81.4861 69.8188 81.5263 69.7507C81.5493 69.7039 81.5628 69.6529 81.566 69.6007C81.5769 69.5178 81.5736 69.4332 81.5883 69.3513C81.6043 69.2935 81.6245 69.2369 81.6486 69.1821C81.667 69.1271 81.6812 69.0661 81.6996 69.0084C81.7181 68.9507 81.7387 68.8952 81.7594 68.8397C81.7713 68.8073 81.7855 68.7755 81.7996 68.7436C81.8208 68.6969 81.843 68.6502 81.8653 68.604C81.8707 68.5925 81.886 68.5826 81.886 68.5716C81.8914 68.4359 81.9875 68.3414 82.0489 68.2331C82.1309 68.0831 82.1902 67.915 82.3205 67.7936C82.3366 67.7789 82.3479 67.7598 82.3531 67.7386C82.3711 67.6469 82.4346 67.5859 82.4927 67.5188C82.5938 67.4057 82.6943 67.2908 82.8035 67.1859C83.0028 66.9936 83.2027 66.8013 83.4135 66.6232C83.5031 66.5469 83.621 66.5046 83.7237 66.4425C83.797 66.398 83.8666 66.3469 83.941 66.2985C83.9654 66.282 83.9883 66.2551 84.0154 66.2496C84.0878 66.2358 84.1547 66.2013 84.2083 66.1502C84.2392 66.121 84.2968 66.1216 84.3414 66.1056C84.3957 66.0859 84.45 66.0628 84.5043 66.0403C84.532 66.0293 84.5586 66.0133 84.5863 66.004C84.6141 65.9947 84.6445 66.0002 84.6613 65.9848C84.7645 65.8914 84.8927 65.898 85.0171 65.8853C85.0557 65.8835 85.0932 65.8716 85.1258 65.8507C85.2024 65.7995 85.2931 65.7739 85.3849 65.7776C85.9666 65.7474 86.5494 65.7496 87.1308 65.7842C87.1976 65.7975 87.2629 65.8171 87.3259 65.843C87.3999 65.8654 87.4754 65.8825 87.5518 65.8941C87.6301 65.9034 87.7067 65.904 87.7691 65.9655C87.7887 65.9848 87.8235 65.9875 87.8528 65.998C87.9848 66.0469 88.1065 66.126 88.2521 66.1353C88.3781 66.248 88.5595 66.2732 88.6725 66.4067C88.6805 66.4174 88.6915 66.4253 88.704 66.4293C88.8833 66.465 88.9718 66.6265 89.1049 66.726C89.1223 66.7386 89.1359 66.7644 89.1538 66.7677C89.3342 66.798 89.4146 66.9595 89.5341 67.0666C89.6786 67.1963 89.8057 67.3414 89.9426 67.4837C89.9597 67.497 89.9738 67.5139 89.9839 67.5331C90.0426 67.704 90.1838 67.8156 90.2799 67.959C90.3341 68.0425 90.3831 68.1293 90.4266 68.2189C90.4766 68.3205 90.519 68.4255 90.5651 68.5287C90.5738 68.5485 90.5782 68.5744 90.5934 68.587C90.6656 68.6474 90.6667 68.7304 90.6754 68.8145C90.6779 68.8622 90.6935 68.9082 90.7205 68.9474C90.7671 69.0055 90.7949 69.0767 90.7998 69.1513C90.8008 69.1952 90.8114 69.2384 90.8308 69.2777C90.8835 69.3693 90.9086 69.4745 90.903 69.5804C90.8964 69.6694 90.9166 69.7583 90.9612 69.8354C90.9841 69.8725 90.9967 69.9152 90.9976 69.959C91.0008 70.3854 91.0008 70.8117 90.9976 71.2381C90.9993 71.277 90.9888 71.3155 90.9677 71.348C90.9164 71.4198 90.8918 71.5075 90.8981 71.5958C90.9002 71.7188 90.8743 71.8406 90.8226 71.9519C90.777 72.042 90.7634 72.1491 90.6961 72.2337C90.6772 72.2636 90.6691 72.2991 90.6732 72.3343C90.6852 72.4859 90.6189 72.6024 90.5298 72.7145C90.4997 72.7617 90.4737 72.8116 90.4521 72.8634C90.4364 72.8936 90.4196 72.9238 90.4016 72.953C90.3828 72.9767 90.3664 73.0022 90.3527 73.0293C90.3038 73.1761 90.212 73.2975 90.1268 73.4222C90.0179 73.5835 89.9012 73.7392 89.7769 73.8887C89.6637 74.0202 89.5425 74.1444 89.414 74.2607C89.3392 74.3188 89.2606 74.3719 89.1788 74.4195C89.1468 74.4414 89.1212 74.4717 89.0903 74.4953C89.0093 74.5579 88.9507 74.6513 88.8382 74.6717C88.8083 74.6772 88.7839 74.709 88.7562 74.7321C88.5833 74.8961 88.3827 75.0275 88.1641 75.12C88.0945 75.1486 88.0402 75.2123 87.9772 75.2574C87.943 75.2816 87.9044 75.3178 87.8685 75.3184C87.7251 75.3184 87.6295 75.409 87.5252 75.4876C87.485 75.5178 87.434 75.5332 87.391 75.5607C87.2732 75.6354 87.1406 75.6651 87.0108 75.7052C86.8973 75.7409 86.7935 75.8151 86.6848 75.8645C86.644 75.8794 86.602 75.8908 86.5594 75.8986C86.5219 75.909 86.4741 75.9096 86.4507 75.9343C86.3861 75.9992 86.3051 75.9997 86.2264 76.0217C86.0591 76.0638 85.8956 76.1199 85.7375 76.1893C85.593 76.2563 85.5642 76.4091 85.6587 76.5382C85.6973 76.5954 85.7266 76.6584 85.7456 76.725C85.7757 76.8012 85.8121 76.8747 85.8543 76.9448C85.9135 77.0547 85.9748 77.1646 86.0346 77.2744C86.0471 77.2924 86.0564 77.3125 86.0618 77.3338C86.0721 77.4519 86.159 77.5255 86.2182 77.6151C86.2302 77.6332 86.2541 77.6475 86.2573 77.6668C86.2785 77.7931 86.3464 77.8992 86.3942 78.014C86.436 78.1038 86.4871 78.1887 86.5469 78.2673C86.574 78.3102 86.5983 78.3548 86.6197 78.4008C86.6414 78.442 86.6609 78.4849 86.6827 78.5267C86.6952 78.5492 86.7131 78.5695 86.724 78.5926C86.7745 78.6981 86.8212 78.8052 86.8744 78.9091C86.894 78.947 86.9288 78.9756 86.9527 79.0129C87.0369 79.1596 87.1156 79.3085 87.2009 79.4525C87.2267 79.4927 87.2554 79.5309 87.2867 79.5668C87.3992 79.7091 87.4606 79.8855 87.5877 80.0173C87.5988 80.0308 87.6073 80.0463 87.6127 80.0629C87.6829 80.2408 87.7851 80.404 87.9142 80.5443C87.931 80.564 87.9549 80.5838 87.9598 80.6069C87.9995 80.7899 88.1342 80.902 88.257 81.0234C88.2722 81.0388 88.2928 81.0547 88.2966 81.0734C88.3254 81.2053 88.4264 81.286 88.503 81.3849C88.5654 81.4621 88.6226 81.5434 88.6742 81.6283C88.7355 81.7344 88.8404 81.8146 88.9257 81.9064C89.0436 82.0333 89.1642 82.158 89.2766 82.291C89.3239 82.3459 89.345 82.424 89.3928 82.4783C89.4955 82.5954 89.6101 82.7042 89.7188 82.8163C89.803 82.9031 89.8894 82.9877 89.9714 83.0767C90.0377 83.1487 90.0257 83.3415 89.9518 83.4179C89.8432 83.5278 89.7345 83.6306 89.6259 83.7377C89.4597 83.9033 89.2945 84.0696 89.1305 84.2366C89.1086 84.2638 89.0892 84.2928 89.0723 84.3234C89.0131 84.4149 88.9371 84.4942 88.8485 84.5569C88.7654 84.6119 88.7127 84.7141 88.6367 84.785C88.5603 84.861 88.4751 84.9274 88.383 84.9828C88.3494 84.9997 88.311 85.0043 88.2744 84.9959C88.2377 84.9875 88.2051 84.9666 88.182 84.9366C88.0886 84.8339 87.9913 84.7344 87.8952 84.6339C87.799 84.5333 87.6915 84.4223 87.591 84.3152C87.4725 84.1892 87.3554 84.0624 87.2395 83.935C87.2168 83.9031 87.1963 83.8696 87.1781 83.835C87.1591 83.8064 87.1423 83.7652 87.1156 83.7558C87.0227 83.7234 86.9923 83.6459 86.9445 83.5712C86.8703 83.4696 86.7892 83.3734 86.7017 83.2833C86.6796 83.2628 86.6613 83.2387 86.6474 83.2119C86.5903 83.0542 86.4589 82.9542 86.3616 82.8273C86.3459 82.8069 86.3138 82.7932 86.3073 82.7723C86.2611 82.5921 86.1058 82.4937 86.0058 82.3542C85.9937 82.3416 85.9839 82.3269 85.977 82.3108C85.9433 82.1871 85.8423 82.1102 85.7771 82.0091C85.6788 81.8558 85.5897 81.697 85.4946 81.5415C85.4696 81.5014 85.4403 81.4657 85.411 81.4261C85.3297 81.3205 85.2571 81.2084 85.1937 81.091C85.1371 80.9641 85.0626 80.8462 84.9726 80.741C84.9619 80.7218 84.9551 80.7007 84.9525 80.6789C84.9471 80.6574 84.9525 80.6278 84.9367 80.6157C84.8129 80.5031 84.7928 80.3217 84.6722 80.2069C84.6494 80.1867 84.6325 80.1607 84.6233 80.1316C84.5987 80.0675 84.568 80.0061 84.5315 79.9481C84.477 79.8247 84.4023 79.7116 84.3104 79.6135C84.2867 79.5768 84.2737 79.5342 84.2729 79.4904C84.2635 79.4166 84.2325 79.3473 84.1838 79.2915C84.1306 79.2179 84.0844 79.1393 84.0458 79.0569C84.029 79.0267 84.0132 78.9959 83.9953 78.9668C83.9839 78.9486 83.9605 78.9338 83.9573 78.9151C83.9155 78.7003 83.7644 78.5382 83.6857 78.3393C83.6232 78.1816 83.5455 78.0256 83.4684 77.8712C83.4141 77.7613 83.3478 77.6624 83.2869 77.558C83.2791 77.5474 83.2737 77.5352 83.2712 77.5222C83.2614 77.2805 83.093 77.1019 83.0224 76.8838C83.0061 76.8283 82.972 76.7799 82.9255 76.7463C82.8789 76.7126 82.8226 76.6957 82.7654 76.6981C82.5308 76.7008 82.2961 76.6981 82.0592 76.7036C82.025 76.6998 81.9905 76.7086 81.962 76.7283C81.9012 76.7997 81.8235 76.7931 81.7447 76.7931C81.3884 76.7931 81.032 76.7931 80.6756 76.7931C80.6413 76.7967 80.6066 76.7932 80.5736 76.783C80.5406 76.7729 80.5099 76.7561 80.4833 76.7338C80.439 76.7078 80.3876 76.6969 80.3367 76.7025C79.9064 76.697 79.4762 76.6948 79.0459 76.6909C78.934 76.6909 78.8211 76.6992 78.7249 76.6151C78.6863 76.5948 78.6427 76.5862 78.5994 76.5904C78.487 76.5838 78.3734 76.5849 78.261 76.5766C78.1485 76.5684 78.0285 76.5651 77.9193 76.5063C77.862 76.4864 77.8017 76.4767 77.7411 76.4777C77.6538 76.4764 77.5689 76.4478 77.4983 76.3959C77.4583 76.3705 77.4119 76.3573 77.3647 76.358C77.2522 76.3503 77.1387 76.358 77.0262 76.3448C76.9684 76.3323 76.912 76.3139 76.8578 76.2898C76.8035 76.2653 76.7461 76.2483 76.6872 76.2393C76.4987 76.2327 76.3385 76.1486 76.1739 76.0695C76.0893 76.028 75.9966 76.0062 75.9026 76.0057C75.8086 76.0052 75.7156 76.0261 75.6307 76.0667C75.465 76.142 75.3047 76.2272 75.1179 76.2387C75.0434 76.2381 74.9712 76.2644 74.9141 76.3129C74.8819 76.3345 74.8442 76.3462 74.8055 76.3464C74.7322 76.353 74.6583 76.353 74.5844 76.3541C74.5065 76.3472 74.4288 76.3703 74.3671 76.4189C74.3307 76.4424 74.289 76.456 74.246 76.4585C74.1259 76.4772 74.0037 76.4805 73.8945 76.5453C73.8621 76.5587 73.8273 76.5651 73.7924 76.564C73.6712 76.5728 73.5495 76.5772 73.4284 76.5876C73.3811 76.5868 73.3344 76.5987 73.2931 76.6222C73.2259 76.6717 73.1434 76.695 73.0606 76.6882L71.7178 76.7008C71.6444 76.7008 71.5727 76.6975 71.5135 76.7624C71.4818 76.7846 71.4433 76.7947 71.4049 76.7909C71.0398 76.7931 70.6748 76.7931 70.3097 76.7909C70.2665 76.7927 70.2238 76.7814 70.187 76.7585C70.1231 76.7159 70.0469 76.6966 69.9707 76.7036C69.4927 76.7003 69.0147 76.6953 68.5372 76.6915C68.45 76.6994 68.363 76.6752 68.2922 76.6233C68.2505 76.6002 68.2033 76.589 68.1558 76.5909C68.039 76.581 67.9217 76.5755 67.8049 76.5695C67.6964 76.5701 67.5889 76.548 67.4893 76.5047C67.4225 76.4711 67.3366 76.4777 67.2595 76.464C67.2162 76.4633 67.1738 76.4522 67.1356 76.4316C67.0482 76.3525 66.9455 76.3569 66.8412 76.3552C66.7804 76.3552 66.719 76.3552 66.6587 76.3481C66.6159 76.3468 66.5742 76.3339 66.5381 76.3107C66.479 76.2652 66.4065 76.241 66.3322 76.242C66.2318 76.2425 66.1331 76.2158 66.0465 76.1645C66.0069 76.1468 65.9653 76.134 65.9226 76.1266C65.8526 76.1063 65.7837 76.0822 65.7162 76.0547C65.6687 76.033 65.617 76.0224 65.565 76.0235C65.5129 76.0247 65.4617 76.0376 65.4152 76.0612C65.3451 76.0931 65.2702 76.1162 65.1979 76.1398L65.0523 76.1915C65.0176 76.2086 64.9812 76.2218 64.9437 76.231C64.8481 76.2437 64.7563 76.2552 64.6791 76.3255C64.6449 76.3443 64.6061 76.3527 64.5672 76.3497C64.489 76.3547 64.4097 76.3497 64.3326 76.3596C64.2749 76.3726 64.2185 76.391 64.1642 76.4145C64.1212 76.4336 64.0766 76.4489 64.0311 76.4602C63.9116 76.4805 63.7893 76.4843 63.6796 76.5481C63.6475 76.5617 63.6128 76.568 63.578 76.5667C63.452 76.5761 63.3265 76.5805 63.201 76.592C63.1493 76.5908 63.0982 76.6033 63.0527 76.6283C62.9846 76.676 62.9023 76.6987 62.8197 76.6926L61.5941 76.7036C61.5246 76.7036 61.4583 76.7036 61.4029 76.764C61.3711 76.7862 61.3328 76.7967 61.2943 76.7937C60.9031 76.7959 60.512 76.7959 60.1209 76.7937C60.0778 76.7955 60.0351 76.784 59.9987 76.7607C59.9338 76.7156 59.8554 76.6948 59.777 76.7019C59.538 76.6992 59.299 76.6948 59.0605 76.692C58.9907 76.6952 58.922 76.6738 58.866 76.6316C58.8258 76.6067 58.78 76.5924 58.7329 76.5898C58.6683 76.5799 58.6026 76.581 58.5379 76.5739C58.3759 76.5485 58.2208 76.4892 58.0827 76.3997C58.0373 76.3755 57.9873 76.3614 57.936 76.3585C57.8209 76.3481 57.6986 76.3678 57.6101 76.2662C57.6036 76.26 57.5951 76.2564 57.5862 76.2563C57.3901 76.2376 57.226 76.1426 57.0663 76.0365C56.9294 76.0327 56.8409 75.9162 56.7138 75.8838C56.6356 75.8579 56.5621 75.8191 56.4965 75.7689C56.3476 75.6689 56.1705 75.6167 56.038 75.4871C55.9456 75.3981 55.7387 75.4156 55.6344 75.4942C55.5974 75.5228 55.5518 75.5382 55.5127 75.5645C55.3774 75.6552 55.2172 75.7014 55.0938 75.8151C55.0476 75.8465 54.9987 75.8737 54.9477 75.8964C54.8307 75.9685 54.702 76.0187 54.5675 76.0448C54.4778 76.064 54.3974 76.1272 54.3121 76.1689C54.2616 76.1937 54.21 76.2156 54.1589 76.2382C54.1388 76.247 54.1111 76.247 54.0986 76.2612C54.0101 76.3656 53.889 76.3519 53.7727 76.3558C53.7423 76.3535 53.7118 76.3575 53.683 76.3676C53.6542 76.3777 53.6278 76.3937 53.6054 76.4145C53.5913 76.4315 53.5723 76.4436 53.5511 76.4492C53.3566 76.47 53.1887 76.5986 52.9867 76.5871C52.916 76.5833 52.8463 76.6051 52.79 76.6486C52.7421 76.6777 52.6872 76.6927 52.6314 76.692C52.3755 76.6997 52.1191 76.7019 51.8627 76.7047C51.7929 76.7002 51.7237 76.7196 51.6661 76.7596C51.6293 76.782 51.5873 76.7943 51.5444 76.7953C51.4667 76.8014 51.3885 76.8003 51.3102 76.7992C51.1228 76.7992 51.0283 76.7047 51.0278 76.5178C51.0278 75.8101 51.0278 75.1024 51.0278 74.3947C51.0273 74.3683 51.0282 74.3419 51.0305 74.3156C51.0397 74.2338 51.0631 74.2057 51.1424 74.1964C51.1813 74.1919 51.2205 74.1899 51.2597 74.1903C51.4227 74.1903 51.59 74.1903 51.7552 74.1832C51.8132 74.1723 51.8701 74.1559 51.9252 74.1343C51.9905 74.1148 52.0571 74.1002 52.1245 74.0909C52.2403 74.0799 52.3565 74.0909 52.4586 74.0085C52.4961 73.9777 52.5673 73.9843 52.6216 73.9805C52.7476 73.9722 52.8747 73.975 52.9801 73.8859C52.9902 73.8773 53.0028 73.8722 53.016 73.8717C53.1703 73.8783 53.2876 73.7662 53.4305 73.737C53.451 73.7328 53.4698 73.7227 53.4848 73.7079C53.5331 73.6614 53.5964 73.6341 53.663 73.631C53.7046 73.6218 53.7455 73.6093 53.7852 73.5936ZM58.0914 63.5496C58.0914 63.0133 58.0914 62.477 58.0914 61.9413C58.0914 61.8627 58.0974 61.7732 58.0637 61.7083C57.9947 61.5754 58.0028 61.4375 57.992 61.2985C57.9888 61.2158 57.9724 61.1341 57.9436 61.0567C57.9121 60.9895 57.8936 60.9167 57.8893 60.8424C57.8842 60.7237 57.8768 60.6054 57.867 60.4875C57.8666 60.4478 57.857 60.4088 57.8388 60.3737C57.7714 60.2732 57.766 60.1605 57.7562 60.044C57.75 59.9877 57.7369 59.9323 57.7171 59.8792C57.6628 59.7292 57.6085 59.5803 57.5503 59.4309C57.5498 59.4265 57.5498 59.422 57.5503 59.4177C57.5541 59.2314 57.4009 59.0935 57.3966 58.9089C57.3966 58.8913 57.37 58.8754 57.358 58.8572C57.3045 58.7843 57.2565 58.7073 57.2146 58.627C57.1606 58.4998 57.0913 58.3799 57.0082 58.2699C56.8958 58.121 56.7663 57.9862 56.6225 57.8682C56.553 57.8133 56.5041 57.7253 56.4014 57.7165C56.3095 57.715 56.2205 57.684 56.1472 57.6281C56.1214 57.6117 56.0913 57.6034 56.0608 57.6045C55.9217 57.6045 55.7827 57.6001 55.6436 57.6045C55.6089 57.603 55.5746 57.6128 55.5458 57.6325C55.4785 57.6806 55.3994 57.7091 55.3171 57.7149C55.1929 57.748 55.0783 57.8108 54.983 57.8979C54.8281 58.0234 54.7009 58.1805 54.6098 58.3589C54.5865 58.4039 54.5381 58.4352 54.5142 58.4797C54.4474 58.6056 54.3887 58.7352 54.3241 58.8644C54.279 58.9534 54.2046 59.0352 54.1877 59.1281C54.1627 59.2727 54.1183 59.4132 54.0557 59.5457C54.0405 59.577 54.0389 59.6177 54.0177 59.6418C53.9634 59.7034 53.9634 59.7754 53.9531 59.8506C53.9493 59.9289 53.9326 60.006 53.9036 60.0787C53.8688 60.1441 53.8477 60.2161 53.8417 60.2902C53.8352 60.4001 53.8292 60.51 53.8205 60.6199C53.8167 60.6633 53.8205 60.7188 53.7961 60.7468C53.7075 60.8468 53.7227 60.9666 53.7124 61.0831C53.703 61.1561 53.6886 61.2285 53.6695 61.2996C53.6476 61.3648 53.6316 61.4319 53.6217 61.5001C53.6119 61.7149 53.6168 61.9309 53.6059 62.1457C53.5958 62.2633 53.5789 62.3801 53.5554 62.4957C53.5368 62.5577 53.523 62.6211 53.5141 62.6853C53.5109 63.2787 53.5109 63.8719 53.5141 64.465C53.5185 64.5208 53.5287 64.5761 53.5446 64.6298C53.5656 64.6913 53.5814 64.7546 53.5918 64.8188C53.6054 65.082 53.6092 65.3457 53.6211 65.6089C53.6273 65.6736 53.6391 65.7376 53.6565 65.8001C53.6785 65.8701 53.6966 65.9413 53.7108 66.0133C53.7222 66.1045 53.7151 66.198 53.7238 66.2881C53.7265 66.3403 53.7414 66.3912 53.7673 66.4364C53.8036 66.496 53.8225 66.5648 53.8216 66.6348C53.8281 66.7842 53.8357 66.9337 53.8471 67.0826C53.8448 67.1306 53.8557 67.1784 53.8786 67.2205C53.9487 67.3073 53.9455 67.4068 53.9536 67.5073C53.9522 67.577 53.9638 67.6464 53.9878 67.7117C54.0286 67.7978 54.0523 67.8911 54.0574 67.9864C54.0565 68.0429 54.0704 68.0986 54.0976 68.148C54.1386 68.2098 54.1609 68.2823 54.1617 68.3568C54.1716 68.4386 54.1875 68.5196 54.2095 68.5991C54.2296 68.6744 54.2638 68.7458 54.2844 68.8189C54.329 68.9639 54.3708 69.1101 54.4148 69.2551C54.4186 69.2678 54.4257 69.2792 54.4354 69.2881C54.4925 69.343 54.4957 69.4106 54.5017 69.4815C54.4998 69.5296 54.5111 69.5774 54.5343 69.6194C54.5892 69.6876 54.6232 69.7705 54.6321 69.8579C54.6423 69.8955 54.6575 69.9315 54.6772 69.965C54.6969 69.9987 54.7133 70.0342 54.7261 70.0711C54.7538 70.1909 54.8613 70.2755 54.8651 70.4051C54.8651 70.4189 54.8874 70.431 54.8967 70.4458C54.9178 70.473 54.935 70.5032 54.9477 70.5354C55.002 70.731 55.1563 70.8766 55.2009 71.076C55.2041 71.0909 55.2231 71.1019 55.2351 71.1145C55.2662 71.1443 55.2954 71.176 55.3225 71.2095C55.4258 71.353 55.5214 71.503 55.6311 71.6414C55.6836 71.6913 55.7426 71.7337 55.8066 71.7672C55.8946 71.7233 56.0065 71.7085 56.0554 71.6134C56.1361 71.4739 56.2331 71.3448 56.3444 71.2288C56.3656 71.2068 56.3839 71.182 56.3987 71.1551C56.453 71.0453 56.5003 70.9354 56.5508 70.8255C56.5562 70.8134 56.5665 70.804 56.5725 70.7931C56.6334 70.6784 56.694 70.5636 56.7545 70.4485C56.7655 70.4157 56.7808 70.3844 56.8001 70.3557C56.8437 70.3114 56.8706 70.2531 56.8762 70.1909C56.8832 70.1613 56.8941 70.1328 56.9088 70.1062C56.9307 70.0548 56.9552 70.0046 56.9821 69.9557C57.0503 69.8442 57.0899 69.7173 57.0973 69.5865C57.0972 69.5775 57.1005 69.5689 57.1065 69.5623C57.1961 69.476 57.2021 69.3606 57.2179 69.2474C57.2286 69.2146 57.243 69.183 57.2608 69.1535C57.3151 69.0205 57.3635 68.8875 57.4134 68.754C57.4168 68.7413 57.4183 68.7282 57.4178 68.715C57.421 68.5908 57.4308 68.47 57.5096 68.365C57.5265 68.3342 57.5357 68.2997 57.5362 68.2645C57.5433 68.2095 57.5444 68.1595 57.5498 68.1068C57.5693 67.9243 57.6753 67.7634 57.6785 67.5765C57.7698 67.4859 57.7513 67.3672 57.76 67.2546C57.7676 67.1634 57.76 67.0606 57.7997 66.9842C57.8659 66.8568 57.8725 66.7243 57.8822 66.5897C57.8904 66.4842 57.8855 66.3782 57.8942 66.2732C57.9023 66.2173 57.9152 66.1621 57.9328 66.1084C57.9561 66.0386 57.9742 65.9672 57.9871 65.8947C57.9985 65.7947 57.992 65.6925 57.9985 65.5919C57.9981 65.5395 58.0089 65.4876 58.03 65.4397C58.0764 65.3497 58.0977 65.2487 58.0914 65.1474V63.5496ZM88.4351 70.7381H88.4487C88.4417 70.5942 88.4335 70.4496 88.4281 70.3051C88.429 70.2215 88.4076 70.1391 88.3661 70.0667C88.34 70.0157 88.3261 69.9592 88.3254 69.9018C88.3167 69.7963 88.32 69.6908 88.2287 69.6128C88.2108 69.598 88.2102 69.5645 88.1983 69.5414C88.1757 69.495 88.1498 69.4504 88.1206 69.4079C88.0402 69.298 87.9473 69.2018 87.8762 69.0886C87.82 68.9853 87.735 68.9011 87.6317 68.8463C87.5949 68.824 87.5602 68.7985 87.5279 68.77C87.4655 68.7244 87.4046 68.676 87.3394 68.6342C87.2884 68.6034 87.2356 68.5757 87.1814 68.5513C87.1503 68.5371 87.1183 68.5248 87.0858 68.5145C87.0532 68.5029 87.0119 68.5024 86.9885 68.4815C86.9223 68.431 86.8426 68.4019 86.7598 68.398C86.7163 68.3954 86.6737 68.3844 86.6343 68.3656C86.5499 68.3194 86.454 68.299 86.3584 68.3068C86.2628 68.3068 86.1666 68.3068 86.0715 68.3068C85.8847 68.3018 85.7195 68.3908 85.5452 68.4375C85.4615 68.4601 85.3822 68.5123 85.2898 68.5216C85.2682 68.5245 85.2474 68.5321 85.229 68.5441C85.107 68.6176 84.9896 68.6987 84.8775 68.787C84.6814 68.9562 84.4679 69.1211 84.3604 69.3738C84.3549 69.3854 84.3435 69.3941 84.3376 69.4057C84.3126 69.4507 84.2887 69.4958 84.2653 69.5414C84.2419 69.587 84.2273 69.6194 84.2083 69.6584C84.1257 69.8266 84.0344 69.9881 84.0409 70.1892C84.0453 70.3139 84.0589 70.4442 84.0002 70.565C83.9377 70.6947 84.0746 70.8057 84.0388 70.9348C84.0371 70.948 84.0371 70.9612 84.0388 70.9744C84.042 71.1233 84.0518 71.2733 84.0464 71.4222C84.0361 71.6854 84.1186 71.931 84.1708 72.1826C84.1797 72.2073 84.1898 72.2315 84.2012 72.2552C84.2242 72.3112 84.2424 72.3691 84.2555 72.4282C84.2686 72.5151 84.2658 72.6041 84.2762 72.6909C84.2771 72.7388 84.29 72.7857 84.3136 72.8271C84.3616 72.8954 84.3862 72.9776 84.3837 73.0612C84.387 73.1222 84.3805 73.1936 84.4093 73.2414C84.4545 73.3257 84.4873 73.4162 84.5065 73.5101C84.5608 73.7096 84.7727 73.8107 84.927 73.7052C84.9966 73.6621 85.0758 73.6374 85.1573 73.6332C85.2334 73.6211 85.3085 73.6028 85.3816 73.5783C85.4468 73.5585 85.5088 73.5233 85.5745 73.5101C85.6394 73.5048 85.7012 73.4794 85.7516 73.4376C85.7713 73.4204 85.795 73.4086 85.8206 73.4035C85.9341 73.3755 86.0183 73.2772 86.1411 73.2711C86.1585 73.2711 86.1737 73.2431 86.1921 73.2321C86.2246 73.2109 86.2587 73.1925 86.2943 73.1772C86.4208 73.1332 86.5396 73.0692 86.6463 72.9876C86.6667 72.9714 86.6908 72.9606 86.7164 72.9563C86.8522 72.9299 86.9499 72.8315 87.0662 72.7684C87.1629 72.7134 87.2292 72.6101 87.3487 72.5914C87.3704 72.5881 87.3883 72.5596 87.4073 72.5425C87.516 72.448 87.6246 72.3568 87.7257 72.2574C87.818 72.1667 87.8973 72.0623 87.9897 71.9711C88.082 71.8799 88.1119 71.7398 88.1983 71.6414C88.2868 71.5379 88.3327 71.404 88.3265 71.2672C88.3344 71.2206 88.3492 71.1754 88.3705 71.1332C88.3935 71.0821 88.4117 71.0289 88.4248 70.9744C88.4335 70.8975 88.4297 70.8172 88.4351 70.7381ZM63.2673 70.5903H63.2716C63.2716 70.731 63.2684 70.8716 63.2716 71.0117C63.2692 71.0733 63.2807 71.1345 63.3053 71.1909C63.4102 71.3755 63.4656 71.5815 63.5796 71.765C63.674 71.9095 63.7813 72.0448 63.9001 72.1694C63.9985 72.2793 64.1131 72.3716 64.219 72.4738C64.2869 72.5392 64.3429 72.6184 64.451 72.6233C64.4754 72.6233 64.501 72.6563 64.5205 72.6782C64.6259 72.7997 64.7807 72.8431 64.9089 72.9299C65.0365 73.0093 65.1713 73.0763 65.3115 73.1299C65.438 73.1848 65.5771 73.2063 65.7031 73.1403C65.8933 73.0403 66.0747 72.9238 66.2589 72.814C66.3074 72.7847 66.3546 72.7539 66.4006 72.7216C66.4848 72.6634 66.5718 72.6079 66.6505 72.5425C66.7505 72.4596 66.8336 72.3519 66.9417 72.2837C67.0634 72.2074 67.1688 72.1304 67.2133 71.9859C67.2215 71.959 67.2508 71.9392 67.2676 71.9161C67.3192 71.853 67.3871 71.7964 67.4181 71.7238C67.4648 71.6139 67.5593 71.5205 67.5501 71.3876C67.5514 71.3744 67.5574 71.3621 67.567 71.353C67.6332 71.2843 67.6408 71.1975 67.6463 71.1084C67.6448 70.998 67.6537 70.8876 67.6729 70.7788C67.7098 70.6333 67.7098 70.4808 67.6729 70.3354C67.6574 70.2314 67.6474 70.1267 67.643 70.0216C67.6402 69.9779 67.6253 69.9358 67.6001 69.9002C67.5591 69.8436 67.5362 69.7758 67.5344 69.7057C67.53 69.6539 67.5146 69.6037 67.4893 69.5584C67.3969 69.4178 67.3029 69.2766 67.1976 69.1458C67.1134 69.0415 67.0197 68.9455 66.9178 68.859C66.82 68.7755 66.7048 68.7128 66.6016 68.6353C66.5071 68.5645 66.4137 68.498 66.2882 68.4991C66.2579 68.4965 66.2289 68.4855 66.2045 68.4672C66.0562 68.3656 65.871 68.382 65.7156 68.3079C65.7115 68.307 65.7073 68.307 65.7031 68.3079C65.5597 68.3079 65.4163 68.3079 65.2734 68.3079C65.2303 68.3113 65.188 68.3223 65.1485 68.3403C65.0089 68.3952 64.8535 68.4101 64.7242 68.4952C64.7165 68.4992 64.7079 68.5013 64.6992 68.5013C64.5205 68.5079 64.3934 68.6266 64.2522 68.7128C64.1902 68.7507 64.1403 68.8139 64.0751 68.8414C63.9621 68.8859 63.8706 68.973 63.8197 69.0842C63.8049 69.1156 63.7866 69.1453 63.7654 69.1727C63.6959 69.2606 63.6084 69.3375 63.5872 69.4562C63.5829 69.4793 63.5568 69.4974 63.5422 69.5189C63.5241 69.5428 63.5083 69.5684 63.4949 69.5952C63.4531 69.7189 63.403 69.8395 63.345 69.9562C63.2899 70.053 63.263 70.1634 63.2673 70.2749V70.5903ZM73.6131 70.5628H73.6093C73.6093 70.5892 73.6093 70.6178 73.6093 70.642C73.6093 70.7991 73.593 70.9595 73.6892 71.1002C73.7025 71.1233 73.7089 71.1499 73.7076 71.1766C73.7038 71.3249 73.8076 71.4337 73.8527 71.5612C73.8787 71.6381 73.9336 71.7134 73.9559 71.7975C73.9849 71.8797 74.0332 71.9536 74.0966 72.0129C74.1509 72.0738 74.2166 72.1255 74.2693 72.1876C74.416 72.3629 74.6023 72.487 74.7887 72.6112C74.8973 72.6832 75.0092 72.748 75.1146 72.8244C75.197 72.8959 75.2978 72.9422 75.4052 72.9579C75.4394 72.9607 75.4704 72.9969 75.5035 73.0167C75.5877 73.0667 75.6508 73.1513 75.7599 73.1612C75.8833 73.1728 76.0033 73.187 76.1054 73.0936C76.1206 73.0866 76.1364 73.081 76.1527 73.0771C76.2614 73.0222 76.37 72.9744 76.4727 72.9123C76.6259 72.8167 76.7736 72.7118 76.9225 72.6085C76.961 72.5821 76.9887 72.5326 77.0311 72.5178C77.1718 72.4673 77.2734 72.3645 77.3712 72.2618C77.4831 72.1447 77.627 72.0508 77.6716 71.8771C77.6802 71.8564 77.693 71.8377 77.7091 71.8222C77.7824 71.731 77.8677 71.6475 77.8775 71.52C77.8794 71.5023 77.8873 71.4858 77.8997 71.4733C77.985 71.3931 77.9883 71.287 77.9948 71.181C77.9914 71.1241 77.9994 71.0671 78.0182 71.0134C78.0986 70.8617 78.098 70.6997 78.0926 70.5376C78.0927 70.4458 78.0776 70.3546 78.048 70.2678C78.0167 70.191 77.9983 70.1095 77.9937 70.0266C77.9883 69.9211 77.9834 69.815 77.8976 69.7354C77.8846 69.7177 77.876 69.6972 77.8726 69.6755C77.8311 69.525 77.7579 69.3853 77.658 69.2661C77.6249 69.2271 77.5776 69.1991 77.5493 69.1562C77.4168 68.976 77.2397 68.843 77.0784 68.6925C77.056 68.6721 77.03 68.6562 77.0018 68.6458C76.8654 68.5963 76.753 68.487 76.5982 68.4848C76.5824 68.4848 76.5677 68.4678 76.5514 68.4628C76.3925 68.4108 76.2329 68.3595 76.0728 68.309C76.0599 68.307 76.0467 68.307 76.0337 68.309C75.9164 68.309 75.7991 68.3051 75.6817 68.309C75.626 68.3146 75.5713 68.3273 75.5188 68.3469C75.3672 68.3947 75.2059 68.4123 75.0684 68.5018C75.0642 68.5032 75.0596 68.5032 75.0554 68.5018C74.8897 68.4914 74.7686 68.604 74.6518 68.687C74.4301 68.846 74.2312 69.0351 74.0607 69.2491C74.0001 69.3166 73.9532 69.3956 73.9227 69.4815C73.8938 69.5733 73.8491 69.6592 73.7907 69.7354C73.7469 69.7948 73.7217 69.8662 73.7185 69.9403C73.7203 69.9925 73.7072 70.0442 73.681 70.0892C73.657 70.1173 73.6389 70.1501 73.6278 70.1855C73.6167 70.2209 73.6128 70.2583 73.6164 70.2953C73.6126 70.3848 73.6131 70.4749 73.6131 70.5628Z" fill="white"/>
</svg>
