<svg width="140" height="140" viewBox="0 0 140 140" fill="none" xmlns="http://www.w3.org/2000/svg">
<rect opacity="0.01" width="140" height="140" fill="#0B0B0C"/>
<g filter="url(#filter0_d)">
<rect x="30" y="30" width="80" height="80" rx="12" fill="#E42571"/>
</g>
<path d="M70.7053 91.0206H69.294C69.2337 91.0114 69.1738 90.9984 69.1131 90.9938C68.6104 90.9544 68.1077 90.9293 67.605 90.8765C66.4694 90.7573 65.3462 90.5402 64.248 90.2276C61.3011 89.3898 58.6712 87.9576 56.3367 85.9804C54.414 84.3522 52.8637 82.4152 51.6317 80.2223C50.1538 77.5908 49.3102 74.7649 49.0722 71.7576C48.9705 70.5181 48.9762 69.2721 49.0894 68.0336C49.1742 67.0688 49.3264 66.1111 49.5447 65.1675C50.4454 61.3795 52.2718 58.0966 54.9741 55.3009C56.2974 53.9319 57.8012 52.7896 59.4437 51.8278C62.1697 50.2212 65.2331 49.2734 68.3901 49.0597C69.8601 48.9513 71.3372 48.9906 72.7994 49.177C74.1212 49.3434 75.4234 49.6404 76.6867 50.0634C79.5568 51.0286 82.1855 52.6001 84.3944 54.6712C86.0725 56.235 87.4398 58.0429 88.5285 60.0595C90.0625 62.9001 90.8898 65.9333 90.9736 69.1655C90.9757 69.2493 90.9908 69.331 91 69.4139V70.7577C90.9869 70.8173 90.9781 70.8778 90.9736 70.9387C90.9657 71.8816 90.8479 72.8145 90.6888 73.7415C90.3132 75.8958 89.5918 77.9753 88.5524 79.8993C87.2404 82.3448 85.528 84.4657 83.3778 86.2259C81.2674 87.9534 78.9186 89.2466 76.3122 90.0655C75.2872 90.3872 74.238 90.626 73.1747 90.7797C72.4098 90.8907 71.6403 90.9582 70.8682 90.995C70.8135 91.0005 70.7591 91.0091 70.7053 91.0206V91.0206ZM72.9074 72.4467C72.8772 72.45 72.8471 72.4551 72.8174 72.4618C72.3444 72.5954 71.864 72.7089 71.3994 72.8677C69.8038 73.4123 68.3473 74.2274 66.9801 75.2068C65.3853 76.3491 63.9435 77.6641 62.6172 79.1059C61.4414 80.384 60.4118 81.7697 59.5752 83.2949C59.4818 83.4658 59.3938 83.6392 59.2979 83.8223C61.7937 85.7664 64.5831 86.9812 67.7177 87.3783C70.6221 87.7461 73.4426 87.4005 76.1794 86.3415C75.6298 81.599 74.5318 76.9362 72.9074 72.4467V72.4467ZM70.5972 66.8997C70.5323 66.9185 70.4791 66.9328 70.4267 66.9495C69.263 67.3156 68.0868 67.635 66.898 67.9075C65.2575 68.2896 63.5971 68.5805 61.9244 68.7788C60.9572 68.8911 59.9878 68.9992 59.0168 69.0633C57.9164 69.1362 56.8134 69.1768 55.7109 69.1961C54.7089 69.2132 53.7065 69.1822 52.7041 69.1726H52.526C52.389 71.7317 52.7807 74.1809 53.7408 76.5343C54.4948 78.3858 55.5622 80.0426 56.901 81.5502C56.9667 81.4245 57.0199 81.3223 57.0752 81.2201C57.8607 79.7632 58.8346 78.4399 59.9355 77.2091C60.9768 76.0463 62.12 74.9919 63.3285 74.0042C64.4914 73.0516 65.7162 72.1866 67.0245 71.4451C68.344 70.6974 69.723 70.0908 71.1908 69.6958C71.394 69.6414 71.5988 69.5907 71.812 69.5358C71.4275 68.6394 71.0312 67.7643 70.5972 66.8997ZM69.0796 63.869C67.8229 61.6379 66.4405 59.5229 64.8604 57.5386C63.9935 56.4446 63.0616 55.4037 62.0697 54.4216C59.5174 55.7143 57.4464 57.5461 55.7922 59.8584C54.5251 61.6176 53.5911 63.594 53.0367 65.6899C58.4949 65.9622 63.8341 65.4407 69.0796 63.869V63.869ZM87.3883 71.9398C83.7858 71.6701 80.1833 71.6466 76.5623 71.9424C77.273 74.0051 77.8714 76.1049 78.3548 78.2325C78.8359 80.3618 79.2034 82.5152 79.4556 84.6835C83.2873 82.3448 86.8458 77.5598 87.3883 71.9398ZM65.7246 53.0786C67.0847 54.4993 68.3354 56.0208 69.4662 57.6299C70.5972 59.2259 71.6139 60.891 72.566 62.6047C72.6264 62.5821 72.6741 62.5675 72.7189 62.5469C73.318 62.2696 73.9228 62.0053 74.5139 61.7112C75.9411 61.0016 77.2916 60.1676 78.5353 59.1673C79.4787 58.4174 80.3366 57.5658 81.0935 56.6279C81.1199 56.5944 81.1421 56.558 81.171 56.5161C78.8252 54.5783 76.1861 53.2906 73.1894 52.7623C70.6919 52.3242 68.2129 52.3937 65.7246 53.0786ZM74.1026 65.5852C74.5797 66.7275 75.0497 67.8518 75.5268 68.9891C75.6311 68.9824 75.7425 68.9757 75.8535 68.9682C76.7584 68.9054 77.6623 68.8287 78.568 68.7826C80.0838 68.7055 81.6011 68.6808 83.1197 68.7085C84.4971 68.7315 85.874 68.7793 87.2509 68.8157C87.3095 68.8157 87.3686 68.8157 87.436 68.8157C87.2006 64.9619 85.8128 61.6002 83.3246 58.6663C83.2454 58.7781 83.1813 58.8694 83.1151 58.9595C83.0489 59.0496 82.984 59.1413 82.9166 59.2305C81.8907 60.5957 80.6398 61.7255 79.2567 62.7153C77.8265 63.7387 76.2917 64.5777 74.6974 65.3125C74.5005 65.4046 74.3015 65.4943 74.1034 65.5852H74.1026Z" fill="white"/>
<defs>
<filter id="filter0_d" x="26" y="26" width="88" height="88" filterUnits="userSpaceOnUse" color-interpolation-filters="sRGB">
<feFlood flood-opacity="0" result="BackgroundImageFix"/>
<feColorMatrix in="SourceAlpha" type="matrix" values="0 0 0 0 0 0 0 0 0 0 0 0 0 0 0 0 0 0 127 0"/>
<feOffset/>
<feGaussianBlur stdDeviation="2"/>
<feColorMatrix type="matrix" values="0 0 0 0 0 0 0 0 0 0 0 0 0 0 0 0 0 0 0.4 0"/>
<feBlend mode="normal" in2="BackgroundImageFix" result="effect1_dropShadow"/>
<feBlend mode="normal" in="SourceGraphic" in2="effect1_dropShadow" result="shape"/>
</filter>
</defs>
</svg>
