<svg width="74" height="19" viewBox="0 0 74 19" fill="none" xmlns="http://www.w3.org/2000/svg">
<path d="M12.056 13.8C12.056 15.24 11.536 16.344 10.496 17.112C9.472 17.864 8.128 18.24 6.464 18.24C4.544 18.24 3.056 17.744 2 16.752C0.944 15.76 0.392 14.48 0.344 12.912H2.6C2.648 13.92 2.984 14.736 3.608 15.36C4.232 15.984 5.184 16.296 6.464 16.296C7.44 16.296 8.232 16.088 8.84 15.672C9.464 15.24 9.776 14.608 9.776 13.776C9.776 13.008 9.488 12.368 8.912 11.856C8.336 11.328 7.312 10.824 5.84 10.344C4.256 9.816 3.024 9.2 2.144 8.496C1.28 7.792 0.848 6.816 0.848 5.568C0.848 4.176 1.344 3.064 2.336 2.232C3.328 1.384 4.592 0.959999 6.128 0.959999C7.84 0.959999 9.192 1.448 10.184 2.424C11.192 3.384 11.712 4.544 11.744 5.904H9.632C9.568 5.088 9.24 4.392 8.648 3.816C8.072 3.224 7.224 2.928 6.104 2.928C5.208 2.928 4.488 3.168 3.944 3.648C3.4 4.112 3.128 4.704 3.128 5.424C3.128 6.16 3.416 6.752 3.992 7.2C4.568 7.632 5.528 8.072 6.872 8.52C8.616 9.112 9.912 9.816 10.76 10.632C11.624 11.448 12.056 12.504 12.056 13.8ZM20.1196 18.24C18.3596 18.24 16.9036 17.648 15.7516 16.464C14.5996 15.28 14.0236 13.784 14.0236 11.976C14.0236 10.2 14.5916 8.72 15.7276 7.536C16.8796 6.352 18.3356 5.76 20.0956 5.76C21.8556 5.76 23.3116 6.352 24.4636 7.536C25.6156 8.72 26.1916 10.208 26.1916 12C26.1916 13.808 25.6236 15.304 24.4876 16.488C23.3516 17.656 21.8956 18.24 20.1196 18.24ZM20.0956 16.344C21.2636 16.344 22.2156 15.928 22.9516 15.096C23.6876 14.248 24.0556 13.216 24.0556 12C24.0556 10.8 23.6796 9.776 22.9276 8.928C22.1916 8.08 21.2476 7.656 20.0956 7.656C18.9436 7.656 17.9996 8.08 17.2636 8.928C16.5436 9.776 16.1836 10.8 16.1836 12C16.1836 13.216 16.5436 14.248 17.2636 15.096C17.9996 15.928 18.9436 16.344 20.0956 16.344ZM39.5347 13.872C39.3587 15.152 38.7587 16.2 37.7347 17.016C36.7267 17.832 35.5027 18.24 34.0627 18.24C32.1747 18.24 30.7027 17.656 29.6467 16.488C28.5907 15.304 28.0627 13.808 28.0627 12C28.0627 10.256 28.6307 8.784 29.7667 7.584C30.9027 6.368 32.3187 5.76 34.0147 5.76C35.4867 5.76 36.7267 6.192 37.7347 7.056C38.7587 7.92 39.3347 9.016 39.4627 10.344H37.3507C37.2227 9.576 36.8627 8.936 36.2707 8.424C35.6947 7.912 34.9267 7.656 33.9667 7.656C32.8467 7.656 31.9347 8.072 31.2307 8.904C30.5427 9.72 30.1987 10.76 30.1987 12.024C30.1987 13.32 30.5267 14.376 31.1827 15.192C31.8387 15.992 32.7907 16.392 34.0387 16.392C34.9027 16.392 35.6227 16.16 36.1987 15.696C36.7907 15.232 37.1827 14.624 37.3747 13.872H39.5347ZM44.2993 3.72C44.0273 3.992 43.6913 4.128 43.2913 4.128C42.8913 4.128 42.5473 3.992 42.2593 3.72C41.9713 3.432 41.8273 3.088 41.8273 2.688C41.8273 2.288 41.9713 1.952 42.2593 1.68C42.5473 1.392 42.8913 1.248 43.2913 1.248C43.6913 1.248 44.0273 1.392 44.2993 1.68C44.5873 1.952 44.7313 2.288 44.7313 2.688C44.7313 3.088 44.5873 3.432 44.2993 3.72ZM44.3233 6V18H42.1873V6H44.3233ZM56.6041 15.048C56.6041 15.496 56.6921 15.808 56.8681 15.984C57.0441 16.16 57.3241 16.248 57.7081 16.248V18H57.3241C56.0601 18 55.2841 17.456 54.9961 16.368C54.5321 16.944 53.9321 17.4 53.1961 17.736C52.4761 18.072 51.7001 18.24 50.8681 18.24C49.7001 18.24 48.7321 17.952 47.9641 17.376C47.2121 16.8 46.8361 15.968 46.8361 14.88C46.8361 13.68 47.3161 12.752 48.2761 12.096C49.2361 11.44 50.5721 11.048 52.2841 10.92L54.5641 10.728V10.44C54.5641 9.528 54.3481 8.8 53.9161 8.256C53.4841 7.712 52.8601 7.44 52.0441 7.44C51.2441 7.44 50.6281 7.672 50.1961 8.136C49.7641 8.6 49.5001 9.152 49.4041 9.792H47.3881C47.4841 8.624 47.9481 7.664 48.7801 6.912C49.6121 6.144 50.6921 5.76 52.0201 5.76C53.3961 5.76 54.5001 6.184 55.3321 7.032C56.1801 7.864 56.6041 9.024 56.6041 10.512V15.048ZM51.1081 16.488C52.0361 16.488 52.8441 16.2 53.5321 15.624C54.2201 15.048 54.5641 14.224 54.5641 13.152V12.312L52.5721 12.456C51.4201 12.552 50.5321 12.8 49.9081 13.2C49.2841 13.6 48.9721 14.12 48.9721 14.76C48.9721 15.336 49.1721 15.768 49.5721 16.056C49.9881 16.344 50.5001 16.488 51.1081 16.488ZM59.7179 0.959999H61.8779V18H59.7179V0.959999ZM73.5337 14.904C73.5337 15.944 73.1177 16.76 72.2857 17.352C71.4697 17.944 70.4297 18.24 69.1657 18.24C67.7417 18.24 66.5977 17.864 65.7337 17.112C64.8857 16.344 64.4537 15.352 64.4377 14.136H66.5017C66.5177 14.936 66.7977 15.544 67.3417 15.96C67.8857 16.36 68.5097 16.56 69.2137 16.56C69.8377 16.56 70.3577 16.416 70.7737 16.128C71.2057 15.824 71.4217 15.408 71.4217 14.88C71.4217 14.32 71.1817 13.88 70.7017 13.56C70.2217 13.224 69.5257 12.92 68.6137 12.648C68.1017 12.488 67.6537 12.328 67.2697 12.168C66.8857 11.992 66.4937 11.768 66.0937 11.496C65.6937 11.224 65.3817 10.888 65.1577 10.488C64.9497 10.088 64.8457 9.64 64.8457 9.144C64.8457 8.12 65.2377 7.304 66.0217 6.696C66.8057 6.072 67.8057 5.76 69.0217 5.76C70.2857 5.76 71.2937 6.112 72.0457 6.816C72.7977 7.504 73.1897 8.344 73.2217 9.336H71.2297C71.1977 8.776 70.9657 8.32 70.5337 7.968C70.1017 7.616 69.5577 7.44 68.9017 7.44C68.3577 7.44 67.8937 7.584 67.5097 7.872C67.1417 8.144 66.9577 8.52 66.9577 9C66.9577 9.496 67.1657 9.896 67.5817 10.2C67.9977 10.504 68.6457 10.8 69.5257 11.088C70.8217 11.504 71.8137 11.992 72.5017 12.552C73.1897 13.096 73.5337 13.88 73.5337 14.904Z" fill="white"/>
</svg>
