<svg width="140" height="140" viewBox="0 0 140 140" fill="none" xmlns="http://www.w3.org/2000/svg">
<rect opacity="0.01" width="140" height="140" fill="#0B0B0C"/>
<g filter="url(#filter0_d)">
<rect x="30" y="30" width="80" height="80" rx="12" fill="#8C9EFF"/>
</g>
<path d="M79.1834 84.8484C81.7425 83.3944 84.6798 82.621 86.1134 79.7936C85.8869 79.4063 85.6378 79.6101 85.3954 79.7313C83.7241 80.5613 82.0867 81.4706 80.3746 82.2043C75.7082 84.2063 70.8289 84.5823 65.833 83.9391C61.7872 83.4171 58.1727 81.7457 54.659 79.7913C54.4178 79.6758 54.1517 79.6221 53.8845 79.6351C54.2665 80.7326 55.0241 81.6599 56.0235 82.253C57.3823 83.0604 58.7989 83.7715 60.1917 84.5234C60.3559 84.6128 60.5246 84.6944 60.7748 84.8235C60.4351 85.256 60.1102 85.6603 59.7863 86.06C59.347 86.6024 58.9121 87.1482 58.4535 87.6736C58.3471 87.7959 58.1297 87.9329 58.0006 87.9001C56.1277 87.4788 54.2321 87.1233 52.4011 86.5616C50.2497 85.9026 48.6882 84.332 47.0463 82.8702C46.0113 81.953 45.9332 80.9633 46.0317 79.7177C46.3001 76.3478 46.693 73.0029 47.4154 69.6976C48.2749 65.7649 49.7028 62.0429 51.4251 58.4296C51.7919 57.6596 52.4272 57.184 53.1236 56.7458C55.9012 54.9748 58.962 53.9568 62.1597 53.2933C62.6126 53.1982 63.0746 53.0996 63.5434 53C63.7495 53.4654 63.6216 53.65 63.1777 53.8096C60.9639 54.6023 58.7366 55.3768 56.5704 56.2895C55.1063 56.9009 53.8845 57.9438 52.6808 59.006C53.1338 59.4125 53.5312 59.1905 53.9377 58.9833C56.4096 57.7151 58.9393 56.5918 61.6524 55.9384C65.9746 54.8944 70.3375 54.7359 74.7457 55.2715C78.7372 55.755 82.4276 57.1138 85.9718 58.9516C86.6512 59.3026 86.6512 59.2913 87.3895 58.9188C87.2412 58.8486 87.0679 58.8055 86.9479 58.7025C85.0329 57.0413 82.8065 55.7776 80.3984 54.985C79.1777 54.5796 77.9673 54.1629 76.7421 53.787C76.331 53.6613 76.2404 53.4575 76.3865 53.0238C76.5756 53.0498 76.7738 53.0623 76.9663 53.1042C79.5299 53.6556 82.0913 54.2365 84.4477 55.4357C85.4668 55.9577 86.4576 56.5522 87.4439 57.1399C88.2003 57.5928 88.5173 58.3854 88.874 59.1294C91.7388 65.1467 93.306 71.4969 93.785 78.1324C93.8597 79.1674 93.9401 80.2012 93.9979 81.2373C94.0081 81.4287 93.9843 81.6903 93.8665 81.8126C92.168 83.6243 90.4434 85.3851 88.1029 86.3782C86.1394 87.2116 84.0525 87.5456 81.9724 87.908C81.9021 87.9145 81.8312 87.9056 81.7648 87.8819C81.6983 87.8583 81.6377 87.8204 81.5874 87.771C80.7857 86.8164 80.0043 85.8528 79.1834 84.8484ZM66.9314 73.166C66.9342 72.5572 66.8166 71.954 66.5853 71.3909C66.354 70.8278 66.0135 70.3161 65.5835 69.8852C65.1536 69.4543 64.6426 69.1127 64.0801 68.8802C63.5175 68.6476 62.9145 68.5286 62.3058 68.5301C59.7818 68.5222 57.6903 70.6352 57.6835 73.1999C57.6835 75.6854 59.8112 77.8154 62.3126 77.8222C64.8468 77.829 66.9371 75.7239 66.9314 73.166ZM73.028 73.115C73.0176 73.7244 73.1279 74.3299 73.3524 74.8965C73.577 75.4632 73.9113 75.9799 74.3363 76.4168C74.7612 76.8538 75.2684 77.2024 75.8286 77.4426C76.3887 77.6828 76.9909 77.8099 77.6004 77.8165C80.0915 77.8516 82.2181 75.7783 82.2804 73.2486C82.3426 70.719 80.224 68.5426 77.6502 68.5301C77.0455 68.5273 76.4463 68.6437 75.8866 68.8726C75.327 69.1016 74.818 69.4386 74.3887 69.8644C73.9594 70.2902 73.6183 70.7965 73.3848 71.3543C73.1513 71.912 73.03 72.5103 73.028 73.115V73.115Z" fill="white"/>
<defs>
<filter id="filter0_d" x="26" y="26" width="88" height="88" filterUnits="userSpaceOnUse" color-interpolation-filters="sRGB">
<feFlood flood-opacity="0" result="BackgroundImageFix"/>
<feColorMatrix in="SourceAlpha" type="matrix" values="0 0 0 0 0 0 0 0 0 0 0 0 0 0 0 0 0 0 127 0"/>
<feOffset/>
<feGaussianBlur stdDeviation="2"/>
<feColorMatrix type="matrix" values="0 0 0 0 0 0 0 0 0 0 0 0 0 0 0 0 0 0 0.4 0"/>
<feBlend mode="normal" in2="BackgroundImageFix" result="effect1_dropShadow"/>
<feBlend mode="normal" in="SourceGraphic" in2="effect1_dropShadow" result="shape"/>
</filter>
</defs>
</svg>
