<svg width="140" height="140" viewBox="0 0 140 140" fill="none" xmlns="http://www.w3.org/2000/svg">
<rect x="30" y="30" width="80" height="80" rx="12" fill="#E42571"/>
<rect x="46" y="46" width="48" height="48" fill="#590000" fill-opacity="0.01"/>
<path d="M70.6717 90H69.3277C69.2702 89.9912 69.2132 89.9789 69.1553 89.9745C68.6766 89.937 68.1978 89.9131 67.7191 89.8628C66.6376 89.7494 65.5679 89.5427 64.5219 89.2452C61.7153 88.4477 59.2107 87.0843 56.9874 85.2022C55.1562 83.6522 53.6797 81.8084 52.5064 79.7209C51.0989 77.216 50.2954 74.526 50.0688 71.6633C49.9719 70.4834 49.9774 69.2973 50.0851 68.1184C50.1659 67.2 50.3109 66.2883 50.5188 65.3901C51.3765 61.7842 53.116 58.6592 55.6896 55.9979C56.9499 54.6947 58.3821 53.6073 59.9464 52.6918C62.5425 51.1625 65.4601 50.2602 68.4667 50.0568C69.8667 49.9536 71.2735 49.991 72.6661 50.1685C73.925 50.3269 75.1651 50.6096 76.3683 51.0123C79.1017 51.931 81.6053 53.427 83.709 55.3985C85.3072 56.8871 86.6093 58.6081 87.6462 60.5277C89.1072 63.2317 89.8951 66.119 89.9749 69.1958C89.9769 69.2756 89.9912 69.3533 90 69.4323V70.7115C89.9875 70.7682 89.9791 70.8258 89.9749 70.8837C89.9673 71.7813 89.8552 72.6694 89.7036 73.5518C89.3459 75.6025 88.6588 77.582 87.6689 79.4135C86.4194 81.7414 84.7885 83.7603 82.7407 85.4359C80.7308 87.0803 78.4939 88.3113 76.0116 89.0908C75.0354 89.397 74.0362 89.6244 73.0235 89.7707C72.295 89.8764 71.5622 89.9406 70.8269 89.9757C70.7748 89.9809 70.723 89.989 70.6717 90ZM72.769 72.3193C72.7401 72.3224 72.7115 72.3272 72.6832 72.3336C72.2328 72.4608 71.7752 72.5689 71.3328 72.72C69.8132 73.2384 68.426 74.0144 67.1239 74.9466C65.6051 76.034 64.2319 77.2857 62.9688 78.6582C61.849 79.8748 60.8683 81.1939 60.0716 82.6458C59.9827 82.8085 59.8989 82.9736 59.8075 83.1478C62.1845 84.9984 64.8411 86.1548 67.8264 86.5328C70.5925 86.8829 73.2787 86.554 75.8852 85.5459C75.3617 81.0314 74.316 76.5929 72.769 72.3193ZM70.5688 67.039C70.5069 67.0569 70.4563 67.0705 70.4064 67.0864C69.2981 67.4349 68.1779 67.7389 67.0457 67.9984C65.4833 68.3621 63.902 68.639 62.3089 68.8278C61.3878 68.9346 60.4646 69.0375 59.5398 69.0985C58.4918 69.1679 57.4414 69.2066 56.3913 69.2249C55.437 69.2413 54.4824 69.2118 53.5277 69.2026H53.3581C53.2277 71.6386 53.6007 73.9701 54.5151 76.2103C55.2332 77.9728 56.2497 79.5499 57.5247 80.985C57.5874 80.8654 57.638 80.7681 57.6907 80.6708C58.4387 79.2839 59.3663 78.0242 60.4147 76.8527C61.4065 75.7458 62.4953 74.7421 63.6462 73.8018C64.7537 72.8951 65.9202 72.0716 67.1661 71.3658C68.4228 70.6541 69.7362 70.0767 71.1341 69.7006C71.3276 69.6488 71.5227 69.6006 71.7257 69.5483C71.3595 68.695 70.9821 67.862 70.5688 67.039ZM69.1234 64.154C67.9265 62.0302 66.61 60.0169 65.1052 58.128C64.2795 57.0866 63.392 56.0958 62.4474 55.1609C60.0166 56.3914 58.0442 58.1352 56.4687 60.3363C55.262 62.0108 54.3725 63.8923 53.8444 65.8874C59.0427 66.1466 64.1278 65.6501 69.1234 64.154ZM86.5603 71.8368C83.1293 71.58 79.6983 71.5576 76.2498 71.8392C76.9267 73.8028 77.4965 75.8016 77.9569 77.8268C78.4151 79.8537 78.7651 81.9036 79.0054 83.9677C82.6545 81.7414 86.0436 77.1864 86.5603 71.8368ZM65.9282 53.8825C67.2235 55.2349 68.4147 56.6832 69.4916 58.2149C70.5688 59.7342 71.537 61.3192 72.4438 62.9505C72.5013 62.929 72.5468 62.9151 72.5895 62.8955C73.16 62.6315 73.736 62.3799 74.299 62.1C75.6582 61.4245 76.9444 60.6306 78.1289 59.6784C79.0274 58.9645 79.8444 58.1539 80.5653 57.2611C80.5904 57.2292 80.6115 57.1945 80.6391 57.1547C78.4049 55.31 75.8916 54.0843 73.0375 53.5814C70.6589 53.1643 68.298 53.2305 65.9282 53.8825ZM73.9072 65.7877C74.3616 66.8751 74.8092 67.9453 75.2636 69.0279C75.363 69.0216 75.4691 69.0152 75.5748 69.008C76.4365 68.9482 77.2975 68.8752 78.16 68.8314C79.6037 68.758 81.0486 68.7345 82.495 68.7608C83.8067 68.7827 85.1181 68.8282 86.4294 68.8629C86.4853 68.8629 86.5415 68.8629 86.6057 68.8629C86.3815 65.1943 85.0598 61.9943 82.6901 59.2015C82.6147 59.3079 82.5536 59.3949 82.4906 59.4806C82.4275 59.5663 82.3657 59.6536 82.3015 59.7386C81.3245 61.0381 80.1332 62.1136 78.8159 63.0558C77.4538 64.03 75.9921 64.8287 74.4737 65.5281C74.2862 65.6158 74.0967 65.7011 73.908 65.7877H73.9072Z" fill="white"/>
</svg>
