<svg width="140" height="140" viewBox="0 0 140 140" fill="none" xmlns="http://www.w3.org/2000/svg">
<rect opacity="0.01" width="140" height="140" fill="#0B0B0C"/>
<g filter="url(#filter0_d)">
<mask id="mask0" mask-type="alpha" maskUnits="userSpaceOnUse" x="30" y="30" width="80" height="80">
<rect x="30" y="30" width="80" height="80" rx="12" fill="black"/>
</mask>
<g mask="url(#mask0)">
<rect x="30" y="30" width="80" height="80" rx="12" fill="black"/>
</g>
</g>
<path d="M59.7157 82.5972C52.8007 82.6345 46.9159 76.9187 46.9989 69.6459C47.08 62.6843 52.7036 57.0029 59.7676 57C66.7943 56.9971 72.4956 62.7508 72.4825 69.8415C72.4694 76.9857 66.6443 82.6535 59.7157 82.5972Z" fill="white"/>
<path d="M86.4498 69.806C86.4634 71.9422 86.1862 74.04 85.5302 76.0777C85.0447 77.5866 84.3791 79.0067 83.3086 80.2045C82.7017 80.8842 81.9977 81.4406 81.1122 81.6998C79.7193 82.1072 78.5099 81.6998 77.4505 80.7774C76.228 79.7146 75.4808 78.3348 74.9167 76.8477C74.1214 74.7508 73.7743 72.5704 73.7233 70.3342C73.6699 67.9829 73.9423 65.6777 74.6734 63.4401C75.1502 61.9792 75.8061 60.6086 76.832 59.44C77.2786 58.9317 77.7845 58.4918 78.3904 58.1859C79.8955 57.4266 81.2913 57.6873 82.573 58.7083C83.6217 59.5434 84.3209 60.647 84.8719 61.8466C85.9245 64.1338 86.3571 66.5589 86.4488 69.0568C86.458 69.3049 86.4498 69.5559 86.4498 69.806Z" fill="white"/>
<path d="M92.1877 69.3805C92.1619 72.1697 92.0556 74.8613 91.5051 77.5146C91.3414 78.3045 91.1487 79.0895 90.7768 79.8134C90.6765 80.0073 90.5533 80.1884 90.4098 80.3528C90.1122 80.6927 89.7437 80.7033 89.4567 80.3528C89.2498 80.0957 89.0785 79.8119 88.9474 79.509C88.5653 78.6302 88.3692 77.6961 88.2129 76.7572C87.7274 73.8403 87.6099 70.901 87.7196 67.9502C87.7973 65.8513 87.9764 63.7627 88.4478 61.709C88.6173 60.9696 88.8188 60.238 89.213 59.5777C89.6631 58.8242 90.1685 58.8111 90.6389 59.5563C91.0453 60.2001 91.2356 60.9303 91.407 61.661C91.8134 63.3947 92.0017 65.159 92.0925 66.934C92.1357 67.7783 92.1576 68.624 92.1877 69.3805Z" fill="white"/>
<defs>
<filter id="filter0_d" x="26" y="26" width="88" height="88" filterUnits="userSpaceOnUse" color-interpolation-filters="sRGB">
<feFlood flood-opacity="0" result="BackgroundImageFix"/>
<feColorMatrix in="SourceAlpha" type="matrix" values="0 0 0 0 0 0 0 0 0 0 0 0 0 0 0 0 0 0 127 0"/>
<feOffset/>
<feGaussianBlur stdDeviation="2"/>
<feColorMatrix type="matrix" values="0 0 0 0 0 0 0 0 0 0 0 0 0 0 0 0 0 0 0.4 0"/>
<feBlend mode="normal" in2="BackgroundImageFix" result="effect1_dropShadow"/>
<feBlend mode="normal" in="SourceGraphic" in2="effect1_dropShadow" result="shape"/>
</filter>
</defs>
</svg>
