<svg width="140" height="140" viewBox="0 0 140 140" fill="none" xmlns="http://www.w3.org/2000/svg">
<rect opacity="0.01" width="140" height="140" fill="#0D0D0E"/>
<g filter="url(#filter0_d)">
<rect x="30" y="30" width="80" height="80" rx="12" fill="#0077B7"/>
<rect x="46" y="46" width="48" height="48" fill="#590000" fill-opacity="0.01"/>
</g>
<path d="M64.0444 89.9992C63.923 89.6229 63.6956 89.2466 63.6946 88.8703C63.6752 80.5738 63.6885 72.2773 63.666 63.9859C63.666 63.1353 63.972 62.8171 64.8062 62.8283C66.9397 62.8569 69.0733 62.8375 71.2058 62.8385C72.6285 62.8385 72.6825 62.8936 72.7284 64.3377C72.7284 64.4499 72.7519 64.5611 72.7753 64.7742C75.17 62.9273 77.8746 62.4459 80.7516 62.5876C85.8325 62.8385 88.9594 65.6941 89.6488 70.7638C89.7712 71.6654 89.8823 72.5679 89.9996 73.4705V89.9992H81.1106C80.9464 89.5852 80.6517 89.1752 80.6394 88.7571C80.5864 86.954 80.6221 85.1488 80.6149 83.3437C80.6047 80.4453 80.6221 77.5448 80.5548 74.6474C80.5232 73.3114 80.3508 71.9428 79.1005 71.1024C77.0261 69.7103 73.9094 70.8882 73.3434 73.3114C73.1047 74.3313 73.0374 75.4184 73.0242 76.4729C72.9905 80.585 73.0242 84.697 72.9946 88.8132C72.9946 89.2099 72.7233 89.6046 72.5775 90.0003L64.0444 89.9992Z" fill="white"/>
<path d="M51.065 90.0003C50.9344 89.628 50.6917 89.2568 50.6907 88.8846C50.6682 80.5605 50.6815 72.2334 50.6621 63.9125C50.6621 63.0854 50.9966 62.8192 51.7737 62.8273C54.1439 62.8498 56.5137 62.8498 58.8831 62.8273C59.6603 62.8192 60.005 63.0843 60.005 63.9114C59.9815 72.2334 59.9927 80.5595 59.9723 88.8835C59.9723 89.2558 59.7286 89.628 59.5981 90.0003H51.065Z" fill="white"/>
<path d="M55.8662 50C56.7759 50.3906 57.7886 50.6384 58.5739 51.2014C60.4912 52.5751 61.1235 55.0126 60.3076 57.2185C59.4918 59.4245 57.3909 60.7798 54.9667 60.6707C52.8005 60.5728 50.8159 58.9543 50.1979 56.7861C50.1428 56.5954 50.0663 56.4098 50 56.2211V54.622C50.4192 53.7306 50.7312 52.7648 51.283 51.9642C52.105 50.772 53.4216 50.2886 54.8004 50H55.8662Z" fill="white"/>
<defs>
<filter id="filter0_d" x="26" y="26" width="88" height="88" filterUnits="userSpaceOnUse" color-interpolation-filters="sRGB">
<feFlood flood-opacity="0" result="BackgroundImageFix"/>
<feColorMatrix in="SourceAlpha" type="matrix" values="0 0 0 0 0 0 0 0 0 0 0 0 0 0 0 0 0 0 127 0"/>
<feOffset/>
<feGaussianBlur stdDeviation="2"/>
<feColorMatrix type="matrix" values="0 0 0 0 0 0 0 0 0 0 0 0 0 0 0 0 0 0 0.4 0"/>
<feBlend mode="normal" in2="BackgroundImageFix" result="effect1_dropShadow"/>
<feBlend mode="normal" in="SourceGraphic" in2="effect1_dropShadow" result="shape"/>
</filter>
</defs>
</svg>
