<svg width="140" height="140" viewBox="0 0 140 140" fill="none" xmlns="http://www.w3.org/2000/svg">
<rect opacity="0.01" width="140" height="140" fill="#0D0D0E"/>
<g filter="url(#filter0_d)">
<rect x="30" y="30" width="80" height="80" rx="12" fill="#9B907E"/>
<rect x="46" y="46" width="48" height="48" fill="#590000" fill-opacity="0.01"/>
</g>
<path d="M90 69.8698C90.0862 80.9628 81.1122 89.7955 70.4063 89.9998C59.0788 90.217 50.0763 80.9792 50.0005 70.1595C49.9246 59.1614 58.8909 50.2347 69.577 50.0046C80.413 49.771 89.9414 58.5243 90 69.8698ZM70.0209 51.7606C59.9262 51.7744 51.9832 59.901 51.7651 69.5974C51.5436 79.6154 59.5771 88.1782 69.9425 88.2481C79.8613 88.3144 88.1948 80.1283 88.2483 70.2785C88.3034 60.0303 80.2087 51.8106 70.0209 51.7606Z" fill="white"/>
<path d="M68.0592 58.4628C68.0566 58.208 68.1049 57.9551 68.2011 57.7191C68.2973 57.4831 68.4396 57.2686 68.6196 57.0881C68.7995 56.9077 69.0137 56.7648 69.2494 56.668C69.4852 56.5711 69.7379 56.5222 69.9928 56.5241C70.2522 56.5175 70.5104 56.5628 70.7521 56.6572C70.9939 56.7517 71.2144 56.8934 71.4006 57.0742C71.5869 57.2549 71.7352 57.471 71.8369 57.7098C71.9387 57.9486 71.9917 58.2052 71.993 58.4648C71.9942 58.7243 71.9437 58.9815 71.8443 59.2213C71.7449 59.461 71.5987 59.6786 71.4142 59.8611C71.2297 60.0436 71.0106 60.1875 70.7698 60.2843C70.529 60.3811 70.2712 60.4289 70.0117 60.4249C69.7531 60.43 69.4962 60.3826 69.2563 60.2857C69.0165 60.1888 68.7988 60.0443 68.6164 59.8609C68.4339 59.6776 68.2905 59.4592 68.1947 59.2189C68.0989 58.9786 68.0528 58.7214 68.0592 58.4628Z" fill="white"/>
<path d="M83.4808 69.9917C83.4843 70.3778 83.3734 70.7562 83.1621 71.0793C82.9508 71.4024 82.6485 71.6557 82.2934 71.8072C81.9383 71.9587 81.5462 72.0016 81.1668 71.9305C80.7873 71.8594 80.4374 71.6776 80.1612 71.4078C79.885 71.1381 79.6948 70.7926 79.6148 70.4149C79.5347 70.0372 79.5683 69.6443 79.7113 69.2857C79.8543 68.9271 80.1003 68.6189 80.4183 68.4C80.7363 68.181 81.112 68.0612 81.498 68.0555C81.7559 68.0505 82.0121 68.0968 82.2519 68.1918C82.4917 68.2867 82.7102 68.4284 82.8947 68.6086C83.0792 68.7887 83.2261 69.0038 83.3267 69.2413C83.4273 69.4787 83.4797 69.7338 83.4808 69.9917V69.9917Z" fill="white"/>
<path d="M68.0588 64.2403C68.0588 63.1196 68.9019 62.2886 70.0217 62.2955C70.2767 62.2949 70.5292 62.3448 70.7648 62.4425C71.0003 62.5401 71.2141 62.6834 71.3939 62.8642C71.5737 63.0449 71.7159 63.2595 71.8123 63.4956C71.9086 63.7316 71.9573 63.9844 71.9553 64.2394C71.9557 64.4978 71.9047 64.7538 71.8053 64.9924C71.7059 65.2309 71.5601 65.4474 71.3763 65.6291C71.1926 65.8109 70.9746 65.9543 70.7349 66.0511C70.4953 66.1478 70.2388 66.196 69.9803 66.1928C69.7254 66.1926 69.4731 66.1417 69.238 66.0432C69.003 65.9446 68.7898 65.8003 68.6111 65.6186C68.4323 65.4369 68.2914 65.2215 68.1966 64.9849C68.1018 64.7482 68.0549 64.4951 68.0588 64.2403V64.2403Z" fill="white"/>
<path d="M68.0589 70.0082C68.0542 69.7534 68.1003 69.5001 68.1945 69.2633C68.2888 69.0265 68.4292 68.8107 68.6077 68.6287C68.7861 68.4467 68.999 68.3021 69.234 68.2033C69.469 68.1044 69.7212 68.0534 69.9761 68.0531C70.3641 68.0457 70.7455 68.154 71.0717 68.3642C71.3979 68.5744 71.6541 68.8769 71.8078 69.2333C71.9614 69.5896 72.0055 69.9836 71.9344 70.3651C71.8633 70.7466 71.6803 71.0982 71.4086 71.3753C71.1369 71.6524 70.7888 71.8423 70.4088 71.9208C70.0288 71.9994 69.634 71.9631 69.2747 71.8164C68.9155 71.6698 68.608 71.4195 68.3914 71.0975C68.1749 70.7755 68.0592 70.3963 68.0589 70.0082V70.0082Z" fill="white"/>
<path d="M69.9885 73.8186C70.2474 73.8114 70.5051 73.8559 70.7466 73.9495C70.9881 74.0431 71.2085 74.1839 71.3949 74.3636C71.5814 74.5434 71.7301 74.7585 71.8324 74.9965C71.9347 75.2344 71.9886 75.4903 71.9908 75.7493C71.9931 76.0083 71.9436 76.2651 71.8454 76.5048C71.7473 76.7444 71.6023 76.9621 71.4189 77.1451C71.2356 77.328 71.0177 77.4726 70.7778 77.5703C70.538 77.6681 70.2811 77.717 70.0221 77.7143C69.7673 77.7209 69.5138 77.6765 69.2764 77.5837C69.0391 77.4908 68.8227 77.3514 68.6401 77.1736C68.4575 76.9958 68.3123 76.7832 68.2131 76.5484C68.1139 76.3137 68.0628 76.0614 68.0626 75.8065C68.0506 74.6884 68.8816 73.8272 69.9885 73.8186Z" fill="white"/>
<path d="M60.432 70.0228C60.4293 70.4105 60.3114 70.7886 60.0933 71.1091C59.8752 71.4296 59.5666 71.6779 59.207 71.8226C58.8473 71.9672 58.4527 72.0017 58.0734 71.9215C57.6941 71.8413 57.3473 71.6501 57.0769 71.3722C56.8066 71.0943 56.625 70.7423 56.5553 70.361C56.4856 69.9796 56.5309 69.5861 56.6854 69.2306C56.8399 68.875 57.0966 68.5734 57.423 68.3642C57.7494 68.155 58.1306 68.0476 58.5182 68.0556C59.0322 68.0647 59.5218 68.2765 59.8803 68.645C60.2387 69.0135 60.437 69.5087 60.432 70.0228V70.0228Z" fill="white"/>
<path d="M66.1836 70.0003C66.1833 70.386 66.0684 70.7629 65.8537 71.0833C65.639 71.4037 65.334 71.6531 64.9773 71.8C64.6207 71.9469 64.2285 71.9846 63.8504 71.9084C63.4723 71.8322 63.1253 71.6455 62.8535 71.3719C62.5816 71.0983 62.397 70.7502 62.3232 70.3716C62.2493 69.9931 62.2895 69.6011 62.4386 69.2454C62.5877 68.8897 62.839 68.5863 63.1607 68.3735C63.4824 68.1607 63.86 68.0483 64.2457 68.0503C64.7612 68.0521 65.2549 68.2586 65.6183 68.6242C65.9816 68.9898 66.185 69.4848 66.1836 70.0003V70.0003Z" fill="white"/>
<path d="M73.8145 70.0002C73.8259 69.4884 74.0374 69.0015 74.4036 68.6438C74.7698 68.2862 75.2616 68.0862 75.7735 68.0869C76.2854 68.0876 76.7766 68.2888 77.1419 68.6475C77.5072 69.0061 77.7173 69.4936 77.7274 70.0054C77.7257 70.2639 77.673 70.5196 77.5724 70.7577C77.4718 70.9958 77.3253 71.2118 77.1411 71.3933C76.9569 71.5747 76.7388 71.718 76.4992 71.8151C76.2596 71.9121 76.0032 71.961 75.7447 71.9588C75.4893 71.9571 75.2367 71.9051 75.0015 71.8057C74.7662 71.7063 74.5528 71.5616 74.3736 71.3796C74.1943 71.1977 74.0526 70.9823 73.9567 70.7456C73.8608 70.5089 73.8125 70.2556 73.8145 70.0002Z" fill="white"/>
<path d="M68.0594 81.511C68.0571 81.2561 68.1057 81.0034 68.2025 80.7676C68.2993 80.5318 68.4422 80.3177 68.623 80.138C68.8037 79.9582 69.0185 79.8164 69.2548 79.7209C69.4911 79.6254 69.7442 79.5781 69.999 79.5817C70.2551 79.5817 70.5087 79.6322 70.7453 79.7302C70.9818 79.8282 71.1968 79.9718 71.3779 80.1529C71.5589 80.3339 71.7026 80.5489 71.8006 80.7855C71.8986 81.0221 71.949 81.2756 71.949 81.5317C71.949 81.7878 71.8986 82.0414 71.8006 82.2779C71.7026 82.5145 71.5589 82.7295 71.3779 82.9106C71.1968 83.0916 70.9818 83.2353 70.7453 83.3333C70.5087 83.4313 70.2551 83.4817 69.999 83.4817C69.7407 83.4851 69.4845 83.4361 69.2456 83.3379C69.0067 83.2397 68.7901 83.0941 68.6089 82.91C68.4277 82.7259 68.2856 82.5071 68.1912 82.2667C68.0968 82.0263 68.0519 81.7692 68.0594 81.511V81.511Z" fill="white"/>
<defs>
<filter id="filter0_d" x="26" y="26" width="88" height="88" filterUnits="userSpaceOnUse" color-interpolation-filters="sRGB">
<feFlood flood-opacity="0" result="BackgroundImageFix"/>
<feColorMatrix in="SourceAlpha" type="matrix" values="0 0 0 0 0 0 0 0 0 0 0 0 0 0 0 0 0 0 127 0"/>
<feOffset/>
<feGaussianBlur stdDeviation="2"/>
<feColorMatrix type="matrix" values="0 0 0 0 0 0 0 0 0 0 0 0 0 0 0 0 0 0 0.4 0"/>
<feBlend mode="normal" in2="BackgroundImageFix" result="effect1_dropShadow"/>
<feBlend mode="normal" in="SourceGraphic" in2="effect1_dropShadow" result="shape"/>
</filter>
</defs>
</svg>
