<svg width="140" height="140" viewBox="0 0 140 140" fill="none" xmlns="http://www.w3.org/2000/svg">
<rect x="31" y="30" width="80" height="80" rx="12" fill="#1877F2"/>
<rect x="47" y="46" width="48" height="48" fill="#590000" fill-opacity="0.01"/>
<path d="M80.6129 50.0024C80.7381 50.315 80.9657 50.6259 80.9714 50.9409C81.0061 52.7764 80.9674 54.6144 80.9997 56.4499C81.0118 57.1654 80.7001 57.3868 80.0462 57.377C78.9006 57.3583 77.7525 57.3395 76.6093 57.3925C75.1157 57.4625 74.6208 58.0143 74.6192 59.499C74.6192 60.7427 74.6281 61.9865 74.637 63.2302C74.637 63.2823 74.6773 63.3352 74.7403 63.4891C76.3937 63.4891 78.0884 63.4891 79.7838 63.4891C80.9569 63.4891 81.0885 63.647 80.9456 64.8492C80.7227 66.7295 80.4781 68.6065 80.2844 70.49C80.2198 71.12 79.9566 71.374 79.3341 71.3658C77.809 71.3455 76.284 71.3593 74.6176 71.3593V72.4272C74.6176 77.8808 74.6249 83.3279 74.6022 88.779C74.6022 89.186 74.3818 89.593 74.2648 90H66.3294C66.2107 89.593 65.9903 89.186 65.9887 88.779C65.9661 83.2978 65.9733 77.8173 65.9733 72.3369V71.2991C64.596 71.2991 63.3091 71.2714 62.0254 71.3089C61.2552 71.3284 60.9904 71.0175 61.0009 70.2556C61.0356 68.3599 61.0413 66.4633 61.0009 64.5676C60.9831 63.7674 61.2269 63.4419 62.0553 63.4752C63.3979 63.5281 64.7429 63.4891 66.1841 63.4891C66.1841 61.8359 66.335 60.2568 66.155 58.716C65.6447 54.3409 68.9395 50.9182 73.2451 50.1693C73.4704 50.1302 73.6891 50.057 73.9112 50L80.6129 50.0024Z" fill="white"/>
</svg>
