<svg width="140" height="140" viewBox="0 0 140 140" fill="none" xmlns="http://www.w3.org/2000/svg">
<rect opacity="0.01" width="140" height="140" fill="#0F0E10"/>
<rect x="30" y="30" width="80" height="80" rx="12" fill="#6A5EF4"/>
<rect x="46" y="46" width="48" height="48" fill="#590000" fill-opacity="0.01"/>
<path d="M77.6528 82.4567C79.7854 81.2489 82.2332 80.6064 83.4278 78.2576C83.2391 77.9359 83.0315 78.1052 82.8295 78.2059C81.4368 78.8954 80.0723 79.6507 78.6455 80.2602C74.7569 81.9233 70.6908 82.2356 66.5275 81.7013C63.156 81.2677 60.1439 79.8793 57.2159 78.2557C57.0149 78.1597 56.793 78.1151 56.5704 78.1259C56.8888 79.0377 57.5201 79.808 58.3529 80.3007C59.4853 80.9714 60.6657 81.5621 61.8264 82.1867C61.9632 82.261 62.1038 82.3287 62.3124 82.436C62.0293 82.7953 61.7585 83.1311 61.4886 83.4632C61.1225 83.9137 60.7601 84.3671 60.3779 84.8036C60.2892 84.9052 60.1081 85.019 60.0005 84.9917C58.4397 84.6418 56.8601 84.3464 55.3343 83.8799C53.5414 83.3324 52.2401 82.0277 50.8719 80.8133C50.0094 80.0514 49.9443 79.2293 50.0264 78.1946C50.2501 75.3952 50.5775 72.6165 51.1795 69.8708C51.8957 66.6039 53.0856 63.512 54.5209 60.5104C54.8266 59.8708 55.356 59.4757 55.9363 59.1117C58.251 57.6405 60.8016 56.7948 63.4664 56.2436C63.8439 56.1646 64.2289 56.0828 64.6195 56C64.7913 56.3866 64.6846 56.5399 64.3147 56.6726C62.47 57.331 60.6138 57.9744 58.8087 58.7326C57.5886 59.2405 56.5704 60.1069 55.5674 60.9892C55.9448 61.3269 56.276 61.1425 56.6148 60.9704C58.6747 59.9169 60.7828 58.9837 63.0437 58.441C66.6455 57.5737 70.2813 57.442 73.9548 57.8869C77.281 58.2886 80.3563 59.4174 83.3098 60.944C83.876 61.2356 83.876 61.2262 84.4913 60.9168C84.3676 60.8584 84.2233 60.8227 84.1232 60.7371C82.5274 59.3571 80.6721 58.3073 78.6653 57.649C77.6481 57.3122 76.6394 56.966 75.6184 56.6538C75.2758 56.5493 75.2004 56.38 75.3221 56.0198C75.4797 56.0414 75.6448 56.0517 75.8052 56.0865C77.9416 56.5446 80.076 57.0272 82.0397 58.0233C82.889 58.457 83.7147 58.9508 84.5365 59.439C85.1669 59.8153 85.4311 60.4737 85.7283 61.0917C88.1157 66.0903 89.4217 71.3655 89.8208 76.8777C89.8831 77.7374 89.9501 78.5962 89.9982 79.4569C90.0067 79.6159 89.9869 79.8332 89.8888 79.9348C88.4733 81.4398 87.0362 82.9025 85.0857 83.7275C83.4495 84.4198 81.7104 84.6973 79.977 84.9983C79.9184 85.0037 79.8594 84.9963 79.804 84.9766C79.7486 84.957 79.6981 84.9255 79.6561 84.8845C78.9881 84.0915 78.337 83.291 77.6528 82.4567ZM67.4428 72.752C67.4452 72.2463 67.3472 71.7452 67.1544 71.2774C66.9616 70.8097 66.6779 70.3846 66.3196 70.0267C65.9613 69.6687 65.5355 69.3849 65.0667 69.1918C64.5979 68.9986 64.0954 68.8997 63.5881 68.901C61.4848 68.8944 59.7419 70.6496 59.7363 72.7802C59.7363 74.8449 61.5093 76.6143 63.5938 76.6199C65.7056 76.6256 67.4476 74.8769 67.4428 72.752ZM72.5233 72.7097C72.5147 73.2159 72.6066 73.7189 72.7937 74.1896C72.9808 74.6603 73.2594 75.0895 73.6136 75.4525C73.9677 75.8155 74.3903 76.1051 74.8571 76.3046C75.3239 76.5042 75.8257 76.6097 76.3336 76.6152C78.4096 76.6444 80.1817 74.9221 80.2336 72.8207C80.2855 70.7193 78.52 68.9113 76.3752 68.901C75.8713 68.8986 75.3719 68.9953 74.9055 69.1855C74.4392 69.3757 74.015 69.6557 73.6572 70.0094C73.2995 70.3631 73.0152 70.7837 72.8206 71.247C72.6261 71.7103 72.525 72.2074 72.5233 72.7097Z" fill="white"/>
</svg>
