<svg width="140" height="140" viewBox="0 0 140 140" fill="none" xmlns="http://www.w3.org/2000/svg">
<rect opacity="0.01" width="140" height="140" fill="#0B0B0C"/>
<g filter="url(#filter0_d)">
<rect x="30" y="30" width="80" height="80" rx="12" fill="#0077B7"/>
</g>
<path d="M64.6931 88.9994C64.5748 88.6325 64.3531 88.2656 64.3521 87.8986C64.3332 79.8096 64.3461 71.7205 64.3242 63.6364C64.3242 62.8071 64.6225 62.4968 65.4359 62.5078C67.5161 62.5356 69.5963 62.5167 71.6755 62.5177C73.0626 62.5177 73.1153 62.5714 73.1601 63.9794C73.1601 64.0888 73.1829 64.1972 73.2058 64.405C75.5405 62.6042 78.1776 62.1349 80.9827 62.2731C85.9365 62.5177 88.9852 65.3019 89.6574 70.2449C89.7767 71.1239 89.8851 72.0039 89.9995 72.8839V88.9994H81.3327C81.1726 88.5957 80.8852 88.196 80.8733 87.7883C80.8216 86.0302 80.8564 84.2702 80.8494 82.5102C80.8395 79.6843 80.8564 76.8563 80.7907 74.0314C80.7599 72.7288 80.5919 71.3943 79.3728 70.575C77.3503 69.2177 74.3115 70.3662 73.7597 72.7288C73.527 73.7231 73.4613 74.7831 73.4484 75.8113C73.4156 79.8205 73.4484 83.8297 73.4196 87.843C73.4196 88.2298 73.1551 88.6146 73.0129 89.0004L64.6931 88.9994Z" fill="white"/>
<path d="M52.0393 89.0001C51.912 88.6372 51.6753 88.2752 51.6743 87.9123C51.6525 79.7964 51.6654 71.6775 51.6465 63.5645C51.6465 62.7581 51.9726 62.4986 52.7303 62.5065C55.0412 62.5284 57.3518 62.5284 59.662 62.5065C60.4197 62.4986 60.7558 62.7571 60.7558 63.5635C60.7329 71.6775 60.7438 79.7954 60.724 87.9113C60.724 88.2742 60.4863 88.6372 60.359 89.0001H52.0393Z" fill="white"/>
<path d="M56.7195 50C57.6065 50.3808 58.5939 50.6225 59.3595 51.1714C61.2289 52.5107 61.8454 54.8873 61.0499 57.038C60.2545 59.1888 58.2061 60.5103 55.8425 60.4039C53.7305 60.3085 51.7955 58.7304 51.1929 56.6164C51.1392 56.4305 51.0646 56.2495 51 56.0656V54.5064C51.4087 53.6374 51.713 52.6957 52.2509 51.9151C53.0523 50.7527 54.3361 50.2814 55.6804 50H56.7195Z" fill="white"/>
<defs>
<filter id="filter0_d" x="26" y="26" width="88" height="88" filterUnits="userSpaceOnUse" color-interpolation-filters="sRGB">
<feFlood flood-opacity="0" result="BackgroundImageFix"/>
<feColorMatrix in="SourceAlpha" type="matrix" values="0 0 0 0 0 0 0 0 0 0 0 0 0 0 0 0 0 0 127 0"/>
<feOffset/>
<feGaussianBlur stdDeviation="2"/>
<feColorMatrix type="matrix" values="0 0 0 0 0 0 0 0 0 0 0 0 0 0 0 0 0 0 0.4 0"/>
<feBlend mode="normal" in2="BackgroundImageFix" result="effect1_dropShadow"/>
<feBlend mode="normal" in="SourceGraphic" in2="effect1_dropShadow" result="shape"/>
</filter>
</defs>
</svg>
