<svg width="140" height="140" viewBox="0 0 140 140" fill="none" xmlns="http://www.w3.org/2000/svg">
<rect opacity="0.01" width="140" height="140" fill="#0D0D0E"/>
<g filter="url(#filter0_d)">
<rect x="30" y="30" width="80" height="80" rx="12" fill="#EE1B22"/>
<rect x="46" y="46" width="48" height="48" fill="#590000" fill-opacity="0.01"/>
</g>
<path d="M86 64.1905C85.8775 65.1571 85.8029 66.1317 85.6252 67.0894C84.9722 70.6027 83.5676 73.7594 80.7439 76.1705C78.3299 78.2331 75.4886 79.1319 72.2762 78.8671C70.4167 78.7137 68.9054 77.863 67.3728 76.1474C67.0551 77.3574 66.6885 78.5309 66.4444 79.7285C65.6911 83.4246 64.0452 86.706 61.6378 89.6433C61.5107 89.7985 61.2905 89.8814 61.1137 90C61.0216 89.8163 60.8706 89.6433 60.8374 89.4471C60.5012 87.209 60.329 84.9556 60.6689 82.713C60.9102 81.1204 61.3136 79.5492 61.6903 77.978C62.4068 74.9632 63.1583 71.9564 63.8758 68.9415C63.9305 68.6739 63.9115 68.3971 63.8205 68.139C63.1012 66.0952 62.9631 64.0451 63.792 62.0076C64.3713 60.5809 65.3199 59.4555 66.9234 59.0534C69.1964 58.4764 71.0476 59.8978 70.985 62.2778C70.9537 63.4584 70.6258 64.6444 70.3255 65.8018C69.9046 67.422 69.3124 69.003 68.9229 70.6286C68.3785 72.8739 70.0419 74.874 72.4226 74.9543C74.4102 75.022 75.9178 74.1268 77.1336 72.6974C78.4985 71.0923 79.239 69.2063 79.6866 67.2C80.125 65.2382 80.3736 63.2426 80.055 61.2416C79.4554 57.467 77.1474 55.1343 73.3529 54.2863C69.6873 53.4722 66.1976 53.96 63.092 56.1527C59.6613 58.5781 57.8782 63.256 58.9024 67.0315C59.1343 67.9262 59.5826 68.7548 60.2102 69.4489C60.5943 69.8689 60.6983 70.304 60.5215 70.8399C60.3539 71.3464 60.2452 71.8708 60.108 72.387C59.8851 73.2244 59.4697 73.4205 58.6528 73.0567C56.6174 72.1507 55.3538 70.5715 54.698 68.5572C53.2548 64.1245 54.0791 60.0245 56.8965 56.3167C59.4845 52.9113 63.0671 51.0343 67.3185 50.3227C70.3578 49.8126 73.3971 49.8501 76.3378 50.8506C81.1777 52.4985 84.4058 55.6435 85.6675 60.5381C85.825 61.1516 85.8913 61.7865 86 62.4107V64.1905Z" fill="white"/>
<defs>
<filter id="filter0_d" x="26" y="26" width="88" height="88" filterUnits="userSpaceOnUse" color-interpolation-filters="sRGB">
<feFlood flood-opacity="0" result="BackgroundImageFix"/>
<feColorMatrix in="SourceAlpha" type="matrix" values="0 0 0 0 0 0 0 0 0 0 0 0 0 0 0 0 0 0 127 0"/>
<feOffset/>
<feGaussianBlur stdDeviation="2"/>
<feColorMatrix type="matrix" values="0 0 0 0 0 0 0 0 0 0 0 0 0 0 0 0 0 0 0.4 0"/>
<feBlend mode="normal" in2="BackgroundImageFix" result="effect1_dropShadow"/>
<feBlend mode="normal" in="SourceGraphic" in2="effect1_dropShadow" result="shape"/>
</filter>
</defs>
</svg>
