<svg width="400" height="400" viewBox="0 0 400 400" fill="none" xmlns="http://www.w3.org/2000/svg">
<rect opacity="0.01" width="400" height="400" fill="#0B0B0C"/>
<g clip-path="url(#clip0)">
<path d="M87.9489 176.115C79.928 174.841 73.021 176.305 67.0744 181.36C62.4713 185.272 59.6907 190.228 58.6792 196.206C56.8344 207.129 63.3581 218.501 73.8075 222.589C80.2688 225.116 86.641 224.831 92.8483 221.883C99.0556 218.936 103.075 213.903 105.611 207.178C108.349 209.837 111.181 210.949 114.694 209.575C115.695 209.182 116.989 209.418 118.125 209.555C119.576 209.727 119.721 210.536 119.255 211.897C114.683 225.286 105.677 234.279 92.093 237.628C61.3127 245.216 40.4382 217.091 44.5111 193.117C48.174 171.598 69.1242 157.31 90.4086 161.843C91.0414 161.977 92.1019 162.618 92.0708 162.927C91.9438 164.124 91.8234 165.783 91.0369 166.366C87.7773 168.778 86.6254 171.746 87.9489 176.115Z" fill="white"/>
<path d="M88.4494 178.288C87.8545 181.26 86.9945 184.026 86.8274 186.833C86.6603 189.639 88.5608 191.612 90.5661 193.398C91.1944 193.956 91.8138 194.79 91.9608 195.588C93.1149 201.865 96.5127 204.765 102.854 204.734C103.171 204.751 103.486 204.787 103.798 204.844C104.211 210.111 97.4061 218.831 89.5389 221.447C80.3617 224.496 69.5067 220.927 64.0346 212.705C61.2531 208.546 59.9089 203.582 60.2093 198.578C60.5096 193.574 62.4379 188.809 65.6967 185.017C71.4896 178.297 82.3223 175.318 88.4494 178.288Z" fill="white"/>
<path d="M269.584 209.699C266.019 220.299 254.21 225.944 243.097 222.622C236.562 220.667 232.313 216.267 230.363 209.766C227.209 199.255 231.032 187.7 239.692 181.047C248.353 174.394 262.028 174.995 268.657 182.562C270.263 184.398 271.172 186.864 272.34 189.063C273.088 190.482 272.393 191.257 271.023 191.674C268.94 192.311 266.89 193.095 264.771 193.564C264.152 193.701 262.968 193.178 262.683 192.627C259.292 185.999 252.713 184.109 246.539 188.117C239.964 192.389 238.467 200.638 240.41 206.946C241.64 210.936 244.866 213.021 248.876 213.566C253.243 214.16 256.944 212.508 259.23 208.764C260.667 206.406 261.961 206.13 264.192 207.356C265.914 208.314 267.801 208.943 269.584 209.699Z" fill="white"/>
<path d="M146.386 212.913H149.162C153.186 212.913 157.209 212.913 161.233 212.913C164.818 212.913 164.852 212.958 164.072 216.419C162.695 222.525 162.695 222.523 156.465 222.525C150.004 222.525 143.556 222.473 137.101 222.556C135.054 222.581 134.532 222.072 134.998 219.909C137.895 206.484 140.633 193.028 143.391 179.574C143.712 178.005 144.421 177.305 146.107 177.321C154.07 177.386 162.033 177.373 169.996 177.321C171.732 177.321 172.113 177.888 171.779 179.614C170.364 186.924 170.415 186.937 163.163 186.935C160.061 186.935 156.955 186.832 153.861 186.985C153.063 187.023 151.82 187.693 151.615 188.329C150.946 190.468 150.646 192.727 150.111 195.406H166.667C166.059 198.338 165.674 200.799 164.965 203.164C164.805 203.693 163.521 204.159 162.737 204.177C158.633 204.276 154.525 204.274 150.418 204.195C148.926 204.166 148.106 204.547 147.854 206.172C147.515 208.322 146.934 210.416 146.386 212.913Z" fill="white"/>
<path d="M329.994 219.154C328.823 222.527 328.822 222.527 325.004 222.527C319.794 222.527 319.752 222.516 320.819 217.372C323.493 204.51 326.225 191.661 328.858 178.79C329.232 176.958 329.992 176.176 331.891 176.376C333.395 176.492 334.906 176.498 336.411 176.393C338.131 176.315 338.815 176.701 338.338 178.716C337.278 183.199 336.514 187.74 335.607 192.389C337.514 191.699 339.172 190.921 340.903 190.506C346.529 189.162 351.978 191.993 354.271 197.319C357.713 205.292 353.917 217.018 346.493 221.351C341.032 224.534 335.449 223.834 329.994 219.154ZM345.903 205.59C346.005 200.08 341.369 197.177 336.888 199.589C333.889 201.206 331.804 205.536 332.323 209.073C333.071 214.162 338.024 216.247 342.111 213.158C344.726 211.187 345.711 208.394 345.898 205.59H345.903Z" fill="white"/>
<path d="M193.533 193.698C193.606 191.178 194.914 190.732 196.875 190.896C198.836 191.06 200.832 190.932 203.303 190.932C202.173 196.28 201.075 201.174 200.115 206.092C199.159 210.956 198.555 215.903 197.381 220.709C196.409 224.661 193.054 221.935 190.85 222.419C188.821 222.868 188.731 222.46 188.593 220.111C186.624 221.018 184.65 222.395 182.491 222.83C177.545 223.827 172.93 221.209 170.459 216.522C166.672 209.308 169.138 198.051 175.584 193.106C180.929 189.02 187.531 189.134 193.533 193.698ZM190.732 205.995C190.75 202.028 189.589 199.988 187.277 199.221C184.587 198.325 181.6 199.497 179.924 202.135C178.311 204.664 177.919 207.45 178.48 210.353C179.149 213.78 182.622 215.603 185.777 214.177C189.567 212.464 190.565 209.1 190.732 205.995V205.995Z" fill="white"/>
<path d="M304.752 220.756C299.665 225.609 290.878 223.296 288.971 217.977C288.204 215.836 287.685 213.316 288.019 211.117C288.953 204.964 290.357 198.881 291.671 192.792C291.816 192.12 292.562 191.089 293.068 191.057C295.784 190.883 298.516 190.975 301.637 190.975C300.697 195.458 299.855 199.472 299.015 203.487C298.618 205.381 298.152 207.264 297.825 209.169C297.435 211.436 297.878 213.395 300.227 214.415C302.232 215.287 304.712 214.72 305.857 212.451C307.08 210.028 307.735 207.28 308.381 204.606C309.315 200.761 309.941 196.845 310.877 193.001C311.064 192.221 311.937 191.087 312.574 191.031C315.132 190.806 317.719 190.936 320.624 190.936C320.506 192.104 320.488 192.996 320.319 193.85C318.537 202.933 316.732 212.007 314.84 221.079C314.722 221.646 313.82 222.399 313.232 222.449C311.231 222.643 309.217 222.643 307.216 222.449C306.441 222.379 305.754 221.482 304.752 220.756Z" fill="white"/>
<path d="M227.591 190.932C227.068 193.492 226.615 195.61 226.203 197.735C225.86 199.511 224.474 199.49 223.267 199.257C220.332 198.69 219.459 200.331 219.033 202.774C218.608 205.265 218.026 207.726 217.536 210.205C216.868 213.615 217.676 214.579 221.244 214.668C221.636 214.679 222.026 214.814 222.652 214.937C222.233 217.015 221.983 219.012 221.382 220.902C221.159 221.626 220.236 222.458 219.492 222.63C214.174 223.868 206.523 221.819 207.61 213.09C208.089 209.255 209.036 205.482 209.76 201.678C209.883 201.039 209.956 200.392 210.092 199.473L204.912 199.107C205.409 196.61 205.777 194.319 206.378 192.091C206.514 191.587 207.423 191.073 208.047 190.97C211.888 190.273 213.278 189.166 214.063 185.59C215.143 180.637 215.177 181.766 219.16 181.659C219.913 181.639 220.669 181.695 221.422 181.659C222.968 181.585 223.601 182.145 223.142 183.777C222.734 185.234 222.625 186.785 222.141 188.211C221.362 190.513 222.337 191.096 224.398 190.948C225.363 190.874 226.339 190.932 227.591 190.932Z" fill="white"/>
<path d="M275.456 222.527C269.752 222.545 270.726 222.691 271.63 218.282C274.344 205.083 277.247 191.934 279.948 178.709C280.351 176.736 281.222 176.355 282.991 176.366C290.041 176.402 290.034 176.353 288.561 183.356C286.153 194.812 283.793 206.28 281.336 217.728C280.057 223.664 280.803 222.382 275.456 222.527Z" fill="white"/>
</g>
<defs>
<clipPath id="clip0">
<rect width="311.562" height="77.8904" fill="white" transform="translate(44 161)"/>
</clipPath>
</defs>
</svg>
