<svg width="400" height="400" viewBox="0 0 400 400" fill="none" xmlns="http://www.w3.org/2000/svg">
<rect opacity="0.01" width="400" height="400" fill="#0B0B0C"/>
<g clip-path="url(#clip0)">
<path d="M200 300C180.223 299.997 160.891 294.13 144.449 283.141C128.006 272.151 115.192 256.533 107.625 238.261C100.058 219.989 98.0789 199.884 101.938 180.487C105.797 161.091 115.321 143.274 129.305 129.289C148.059 110.536 173.494 100 200.016 100C226.537 100 251.973 110.536 270.727 129.289C289.48 148.043 300.016 173.478 300.016 200C300.016 226.522 289.48 251.957 270.727 270.711C261.46 280.028 250.438 287.414 238.298 292.441C226.157 297.469 213.14 300.038 200 300V300ZM200 103.804C180.974 103.803 162.375 109.445 146.555 120.014C130.735 130.584 118.405 145.608 111.125 163.186C103.844 180.764 101.939 200.106 105.651 218.766C109.364 237.426 118.526 254.567 131.981 268.019C140.913 276.952 151.517 284.037 163.188 288.872C174.859 293.706 187.368 296.194 200 296.194C212.632 296.194 225.141 293.706 236.812 288.872C248.483 284.037 259.087 276.952 268.019 268.019C276.952 259.087 284.037 248.483 288.871 236.812C293.706 225.141 296.194 212.632 296.194 200C296.194 187.368 293.706 174.859 288.871 163.188C284.037 151.518 276.952 140.913 268.019 131.981C259.108 123.02 248.508 115.915 236.832 111.078C225.157 106.242 212.638 103.769 200 103.804V103.804Z" fill="white"/>
<path d="M193.958 299.217C193.822 299.113 193.689 298.923 193.549 298.916C192.865 298.858 192.177 298.858 191.492 298.916C190.795 299.005 190.202 298.698 189.561 298.577C188.972 298.469 188.309 298.85 187.77 298.289C187.669 298.181 187.368 298.266 187.155 298.263C186.546 298.303 185.937 298.205 185.37 297.978C184.851 297.731 184.125 298.193 183.614 297.629C182.696 297.675 181.777 297.568 180.894 297.312C179.249 296.938 177.569 296.678 175.955 296.215C175.004 295.939 173.98 295.962 173.124 295.404C171.45 295.369 170.065 294.281 168.426 294.136C167.953 293.556 167.158 293.987 166.6 293.543C166.121 293.166 165.449 293.036 164.863 292.788C164.276 292.541 163.595 292.471 163.056 292.189C161.987 291.594 160.87 291.089 159.717 290.68C158.212 290.198 157.013 289.063 155.441 288.756C154.052 287.523 152.271 286.977 150.686 286.023C149.395 285.234 148.115 284.381 146.761 283.677C146.276 283.424 145.87 283.043 145.401 282.726C143.096 281.319 140.963 279.67 138.775 278.082C137.694 277.293 136.788 276.269 135.751 275.419C133.42 273.524 131.197 271.499 129.093 269.354C127.753 267.972 126.412 266.584 125.182 265.106C124.104 263.807 122.981 262.545 121.932 261.223C120.937 259.974 120.116 258.585 119.136 257.32C118.238 256.183 117.41 254.992 116.657 253.754C115.871 252.445 115.053 251.148 114.248 249.851C113.208 248.171 112.441 246.364 111.417 244.668C110.538 243.223 110.003 241.565 109.315 240.002C109.258 239.865 109.197 239.732 109.134 239.599C107.622 236.423 106.369 233.129 105.39 229.749C104.959 228.294 104.338 226.896 104.204 225.311C104.094 224.021 103.542 222.753 103.079 221.507C102.863 220.933 103.057 220.356 102.743 219.738C102.353 218.974 102.531 217.944 102.34 217.056C102.131 216.083 102.21 215.052 101.763 214.127C101.732 214.031 101.718 213.93 101.722 213.829C101.618 212.561 101.633 211.248 101.373 210.002C101.056 208.512 101.329 206.981 101.028 205.545C100.711 203.982 100.844 202.451 100.784 200.91C100.724 199.37 100.587 197.816 100.822 196.323C101.069 194.77 100.923 193.216 101.139 191.698C101.263 190.842 101.234 189.954 101.456 189.139C101.678 188.325 101.538 187.481 101.773 186.74C102.008 185.998 101.843 185.177 102.09 184.495C102.337 183.814 102.134 183.008 102.407 182.412C102.889 181.35 102.54 180.225 102.943 179.147C103.298 178.196 103.415 177.099 103.704 176.123C103.992 175.146 103.948 174.043 104.582 173.168C104.743 171.424 105.533 169.868 106.065 168.235C106.598 166.603 107.178 164.894 107.758 163.233C107.931 162.723 108.154 162.231 108.424 161.765C108.944 160.821 109.358 159.823 109.66 158.788C109.719 158.653 109.789 158.524 109.87 158.401C110.76 156.769 111.372 154.984 112.358 153.415C113.674 151.326 114.777 149.116 116.102 147.027C117.215 145.267 118.454 143.59 119.539 141.812C120.303 140.563 121.466 139.564 122.284 138.325C123.39 136.673 124.934 135.392 125.996 133.715C126.184 133.474 126.397 133.253 126.63 133.056C128.012 131.674 129.376 130.272 130.783 128.916C132.321 127.435 133.817 125.891 135.485 124.566C137.967 122.591 140.363 120.511 143.045 118.771C144.504 117.82 145.918 116.771 147.373 115.801C148.035 115.357 148.666 114.85 149.357 114.466C150.426 113.867 151.529 113.334 152.619 112.776C153.795 112.168 154.838 111.34 156.107 110.855C158.326 109.996 160.386 108.728 162.694 108.002C163.693 107.685 164.631 107.098 165.668 106.775C166.647 106.474 167.57 106.036 168.559 105.726C170.195 105.206 171.859 104.775 173.492 104.242C175.292 103.659 177.16 103.386 178.979 102.93C180.117 102.644 181.338 102.613 182.41 102.045C182.617 101.987 182.836 101.987 183.044 102.045C183.719 102.124 184.337 101.915 184.977 101.728C185.618 101.541 186.328 101.941 186.905 101.411C186.93 101.386 187.006 101.411 187.06 101.411C188.388 101.307 189.739 101.307 191.042 101.069C192.887 100.717 194.789 101.012 196.606 100.695C198.276 100.403 199.912 100.517 201.557 100.47C202.41 100.447 203.263 100.701 204.122 100.752C204.981 100.803 205.977 100.565 206.801 100.812C207.99 101.167 209.156 100.983 210.329 101.091C210.922 101.145 211.505 101.316 212.101 101.392C212.697 101.468 213.331 101.24 213.883 101.709C214.007 101.814 214.292 101.709 214.517 101.728C216.711 101.907 218.884 102.296 221.003 102.892C222.005 103.152 223.029 103.367 224.04 103.573C225.308 103.833 226.522 104.207 227.756 104.578C229.217 105.003 230.698 105.374 232.137 105.846C233.849 106.426 235.535 107.083 237.209 107.748C238.344 108.192 239.45 108.699 240.579 109.175C241.708 109.65 242.659 110.462 243.927 110.633C245.252 111.689 246.885 112.193 248.295 113.096C248.501 113.226 248.73 113.328 248.929 113.445C251.875 115.08 254.726 116.88 257.47 118.834C258.912 119.852 260.323 120.905 261.705 122.036C263.173 123.244 264.558 124.538 266.042 125.73C268.543 127.749 270.664 130.142 272.924 132.387C274.517 134.001 276.015 135.707 277.41 137.494C279.926 140.678 282.28 143.987 284.464 147.407C285.504 149.021 286.366 150.745 287.453 152.35C287.637 152.622 287.647 153.006 287.77 153.301C288.033 153.878 288.322 154.445 288.62 155.009C288.848 155.444 289.13 155.853 289.346 156.277C289.864 157.334 290.366 158.391 290.852 159.448C291.07 159.936 291.169 160.491 291.429 160.95C292.291 162.45 292.757 164.098 293.331 165.705C293.847 167.183 294.516 168.613 294.881 170.144C295.303 171.916 295.997 173.602 296.374 175.4C296.707 176.985 296.945 178.595 297.55 180.133C297.867 180.906 297.791 181.826 297.921 182.669C298 183.208 298.146 183.741 298.238 184.283C298.33 184.825 298.067 185.427 298.555 185.9C298.609 185.95 298.555 186.106 298.555 186.217C298.657 187.545 298.593 188.918 298.917 190.192C299.284 191.644 298.936 193.108 299.234 194.503C299.766 197.103 299.322 199.712 299.551 202.302C299.633 203.307 299.17 204.204 299.205 205.184C299.24 206.163 299.383 207.127 299.164 208.037C299.006 208.887 298.912 209.747 298.882 210.611C298.802 211.464 298.672 212.329 298.527 213.166C298.279 214.609 298.244 216.086 297.893 217.5C297.62 218.647 297.465 219.824 297.113 220.968C296.781 222.002 296.541 223.063 296.393 224.138C296.225 225.546 295.721 226.833 295.375 228.174C295.03 229.515 294.583 230.799 294.107 232.086C293.454 233.877 292.906 235.716 292.155 237.456C291.752 238.407 291.289 239.311 290.921 240.278C290.554 241.244 289.97 242.104 289.558 243.039C288.444 245.492 287.189 247.879 285.798 250.187C284.6 252.175 283.37 254.166 282.058 256.094C281.126 257.463 280.14 258.798 279.122 260.107C277.198 262.589 275.169 264.973 273.01 267.268C271.84 268.514 270.756 269.871 269.469 270.99C268.052 272.22 266.79 273.625 265.348 274.794C263.648 276.177 262.009 277.648 260.256 278.947C257.866 280.732 255.396 282.409 252.87 284.02C250.651 285.427 248.289 286.556 246.098 288.008C245.407 288.464 244.634 289.025 243.683 289.054C243.385 289.067 243.103 289.194 242.896 289.409C242.161 290.36 240.89 290.236 240.018 290.921C239.733 291.146 239.241 291.086 238.902 291.267C236.562 292.535 234.007 293.229 231.519 294.104C230.133 294.589 228.688 294.922 227.334 295.48C226.621 295.775 225.879 295.721 225.159 295.959C224.379 296.218 223.558 296.437 222.747 296.643C221.885 296.865 221.025 297.109 220.154 297.277C219.282 297.445 218.413 297.382 217.602 297.629C216.115 298.083 214.492 297.816 213.071 298.549C212.967 298.575 212.858 298.575 212.754 298.549C210.884 298.434 209.058 299.103 207.181 298.866C206.956 298.84 206.626 298.751 206.62 299.183L193.958 299.217ZM165.427 233.148C165.427 233.959 165.405 234.803 165.427 235.646C165.437 236.304 165.33 236.959 165.11 237.58C164.067 240.804 160.906 242.874 158.164 242.785C157.636 242.758 157.107 242.758 156.579 242.785C155.726 242.807 154.888 242.563 154.179 242.088C153.135 241.419 152.199 240.596 151.402 239.647C150.849 238.957 150.449 238.157 150.229 237.301C149.956 236.35 149.912 235.307 149.785 234.219H145.772C145.772 234.987 145.829 235.624 145.772 236.248C145.575 238.046 146.406 239.599 147.173 241.051C147.861 242.329 148.816 243.445 149.972 244.323C152.353 246.155 154.873 247.363 157.971 247.242C159.712 247.138 161.419 246.716 163.008 245.997C164.764 245.261 166.305 243.926 168.045 241.374C169.314 239.52 169.611 237.529 169.852 235.462C169.939 234.441 169.857 233.413 169.608 232.419C169.374 231.464 169.055 230.531 168.657 229.632C168.061 228.155 166.613 227.388 165.912 226.018C165.776 225.752 165.335 225.654 165.062 225.441C164.918 225.284 164.794 225.111 164.691 224.924C165.177 224.616 165.637 224.269 166.067 223.888C166.701 223.228 167.446 222.575 167.827 221.77C168.305 220.752 169.263 219.966 169.326 218.752C169.909 218.261 169.168 217.383 169.856 216.901C169.932 216.85 169.856 216.599 169.856 216.441C169.947 214.947 169.832 213.447 169.513 211.984C169.345 211.07 169.023 210.191 168.562 209.384C167.869 208.196 167.027 207.101 166.058 206.125C163.953 204.083 161.156 202.91 158.224 202.841C157.202 202.81 156.18 202.902 155.181 203.117C153.6 203.483 152.098 204.127 150.743 205.019C150.005 205.484 149.335 206.048 148.752 206.696C148.216 207.273 147.896 208.046 147.373 208.642C146.85 209.238 146.805 210.107 146.396 210.776C145.607 212.076 145.889 213.607 145.445 214.98C145.414 215.075 145.395 215.233 145.445 215.297C145.952 215.826 145.696 216.476 145.762 217.075C145.801 217.469 145.893 217.856 146.035 218.226C147.021 220.936 147.519 221.884 149.205 223.561C149.722 224.072 150.204 224.693 150.828 224.997C152.011 225.571 153.063 226.449 154.43 226.624C154.661 226.655 154.877 226.922 155.092 226.915C156.332 226.877 157.508 227.464 158.766 227.264C158.979 227.229 159.223 227.441 159.461 227.473C160.615 227.625 161.385 228.453 162.314 229.027C162.935 229.431 163.473 229.951 163.899 230.558C164.527 231.373 164.786 232.355 165.427 233.148ZM250.768 197.442L254.255 194.751C253.304 193.511 252.404 192.31 251.488 191.111C250.463 189.759 249.422 188.398 248.365 187.028C247.284 185.627 246.216 184.213 245.106 182.834C244.702 182.401 244.43 181.862 244.32 181.281L254.296 176.421C253.916 175.035 253.184 173.923 252.578 172.756H251.408C250.98 173.577 250.083 173.577 249.367 173.894C246.777 175.042 244.345 176.516 241.685 177.543C240.525 177.99 239.425 178.706 238.287 179.28C236.892 179.981 235.485 180.656 233.941 181.414V152.825H229.502V197.103H233.259C233.963 196.875 233.893 196.434 233.893 196.006C233.893 193.366 233.893 190.725 233.893 188.081V186.318L240.008 183.43L250.768 197.442ZM196.241 197.097C197.037 196.78 196.808 196.19 196.808 195.689C196.808 188.404 196.808 181.119 196.808 173.834V173.2L196.333 172.724C195.154 172.724 193.943 172.724 192.735 172.724C192.599 172.747 192.467 172.783 192.338 172.832V175.394C191.893 175.188 191.459 174.958 191.039 174.706C189.596 173.713 186.661 172.75 185.047 172.715C183.779 172.683 182.574 172.987 181.341 173.317C178.333 174.129 177.971 174.56 176.155 176.101C174.817 177.235 174.145 178.84 173.235 180.276C172.655 181.195 172.896 182.324 172.398 183.256C172.249 186.236 172.658 189.073 174.341 191.638C175.521 193.432 177.163 194.719 178.935 195.816C179.461 196.133 180.203 196.288 180.869 196.466C181.542 196.688 182.241 196.821 182.948 196.862C183.624 196.862 184.312 197.236 185.031 197.125C185.469 197.055 185.89 196.878 186.328 196.808C188.103 196.62 189.797 195.963 191.235 194.906C191.613 194.624 191.907 194.481 192.383 194.722V196.691L192.811 197.119L196.241 197.097ZM227.442 217.056H246.187C246.301 216.251 246.409 215.509 246.523 214.701C245.889 214.086 246.552 213.163 246.187 212.412C245.845 211.708 245.854 210.896 245.36 210.212C244.913 209.578 244.795 208.734 244.355 208.107C243.832 207.444 243.241 206.838 242.592 206.3C241.997 205.734 241.361 205.212 240.69 204.74C240.045 204.292 239.351 203.918 238.623 203.624C237.864 203.374 237.083 203.198 236.29 203.098C235.493 202.952 234.687 202.867 233.877 202.844C233.056 202.812 232.273 203.095 231.481 203.215C229.932 203.505 228.471 204.145 227.207 205.085C225.854 206.05 224.704 207.273 223.825 208.684C222.924 210.103 222.371 211.715 222.211 213.388C221.723 218.517 223.695 223.717 229.689 226.262C233.884 228.044 239.2 227.451 243.21 223.111C242.576 221.843 241.508 220.943 240.167 220.179C238.981 221.694 237.266 222.347 235.554 222.762C233.75 223.2 231.947 222.639 229.877 221.494C229.401 221.019 228.497 220.198 227.705 219.275C227.334 218.85 227.179 218.235 226.906 217.658L227.442 217.056ZM218.752 217.107C218.53 215.252 218.974 213.537 218.404 211.847C218.032 210.732 217.555 209.655 216.98 208.63C216.235 207.311 215.11 206.258 213.956 205.307C213.138 204.632 212.089 204.239 211.147 203.722C210.126 203.145 208.893 203.405 207.866 202.857C202.261 202.419 197.233 205.361 195.284 210.823C193.201 216.644 195.414 222.483 200.403 225.359C201.205 225.822 202.049 226.218 202.882 226.627C203.716 227.036 204.785 226.681 205.574 227.01C206.595 227.438 207.432 226.947 208.345 226.969C209.299 226.973 210.24 226.746 211.087 226.307C211.895 225.947 212.674 225.523 213.414 225.039C214.15 224.477 214.858 223.88 215.535 223.247L212.571 220.283H212.174C209.134 223.438 206.325 223.276 202.692 221.84C201.034 221.187 199.373 218.606 199.459 217.104L218.752 217.107ZM131.772 192.725C132.023 188.921 131.455 185.262 132.016 182.501C133.497 179.036 135.618 177.575 138.426 177.185C141.315 176.782 143.676 177.92 145.401 179.806L148.606 176.601C148 176.116 147.309 175.52 146.577 174.981C144.548 173.491 142.313 172.61 139.745 172.721C138.902 172.759 137.983 172.515 137.209 172.769C135.307 173.403 133.348 173.97 131.791 175.39C131.157 175.958 130.59 176.547 130.016 177.166C128.327 178.971 127.388 181.351 127.391 183.823C127.302 194.545 127.353 205.269 127.353 215.991V217.487C128.887 217.221 130.355 217.709 131.791 217.135V197.674L132.321 197.078H140.325V192.725H131.772ZM225.66 196.662C225.66 194.545 225.705 192.43 225.66 190.322C225.616 188.214 225.955 186.159 225.343 184.118C225.54 182.758 224.96 181.56 224.541 180.333C224.398 179.763 224.166 179.219 223.853 178.722C223.099 177.746 222.243 176.842 221.409 175.929C219.596 173.945 217.142 173.174 214.65 172.778C212.158 172.382 209.651 173.041 207.4 174.319C206.883 174.611 206.411 174.978 205.942 175.298C204.991 174.664 205.371 173.964 205.723 173.304L205.317 172.807H201.297V197.106H205.026C205.828 196.561 205.688 195.867 205.688 195.204C205.688 190.927 205.688 186.645 205.688 182.343C206.094 181.747 206.554 181.154 206.924 180.51C208.662 177.514 212.117 176.899 214.701 177.159C215.037 177.812 215.725 177.356 216.242 177.667C217.671 178.529 218.936 179.153 219.957 180.979C220.15 181.325 220.493 181.613 220.566 181.991C220.784 182.881 220.905 183.792 220.927 184.708C220.876 188.708 220.905 192.715 220.905 196.656C221.079 196.83 221.19 197.036 221.304 197.04C222.607 197.062 223.913 197.04 225.264 197.04L225.66 196.662ZM273.847 226.779V225.695C273.847 224.11 273.879 222.525 273.847 220.939C273.815 219.354 273.92 217.769 273.59 216.149C273.33 214.881 273.536 213.518 273.536 212.317C273.374 212.029 273.227 211.732 273.096 211.429C272.855 210.795 272.725 210.091 272.398 209.501C271.679 208.263 270.787 207.133 269.748 206.147C268.616 205.019 267.259 204.309 265.88 203.595C265.481 203.389 262.466 202.914 261.914 202.831C260.757 202.654 259.622 202.971 258.576 203.24C257.53 203.51 256.357 203.716 255.469 204.537C255 204.968 254.296 205.142 253.532 205.513V202.892H249.503C249.297 206.905 249.376 225.948 249.598 227.254H253.402C253.742 226.694 253.908 226.045 253.878 225.39C253.856 221.535 253.878 217.677 253.878 213.822C253.854 213.463 253.885 213.101 253.97 212.751C254.794 210.354 256.294 208.541 258.725 207.679C260.36 207.06 262.16 207.033 263.813 207.603C265.322 208.141 266.844 208.706 267.564 210.345C269.003 211.565 269.12 213.198 269.104 214.938C269.066 218.895 269.104 222.864 269.104 226.728L269.513 227.188H273.444L273.847 226.779ZM177.474 227.229V214.891C177.543 213.448 177.979 212.047 178.742 210.82C179.423 209.605 180.458 208.625 181.709 208.011C183.186 207.3 184.845 207.057 186.464 207.314C187.811 207.568 189.216 207.856 190.183 209.039C190.583 209.483 191.006 209.906 191.451 210.307L194.412 206.854C193.647 206.162 192.846 205.511 192.012 204.905C191.154 204.335 190.234 203.866 189.27 203.507C188.324 203.208 187.355 202.99 186.372 202.854C184.917 202.597 183.519 203.259 182.07 203.171C180.574 203.887 179.014 204.474 177.499 205.583V202.923H173.061V226.842L173.495 227.239L177.474 227.229ZM151.161 172.756V195.217C151.136 195.585 151.141 195.955 151.177 196.323C151.249 196.596 151.355 196.858 151.494 197.103H155.108C155.72 196.786 155.587 196.272 155.587 195.816C155.587 191.961 155.587 188.109 155.587 184.257C155.592 183.221 155.832 182.2 156.29 181.271C156.748 180.341 157.412 179.528 158.231 178.893C159.087 178.186 160.085 177.308 161.426 177.483C162.602 176.849 163.886 177.137 165.088 177.229C165.942 177.278 166.746 177.651 167.335 178.272C167.627 178.589 168.074 178.786 168.42 179.074C168.765 179.363 169.168 179.759 169.586 180.152C170.29 178.792 171.52 178.06 172.373 176.963C170.372 174.319 167.51 173.197 164.447 172.784C161.277 172.357 158.338 173.419 155.59 175.473V172.756H151.161ZM262.434 195.391C262.434 194.041 262.659 192.636 261.6 191.476L260.183 190.763C259.603 190.801 258.83 190.826 258.059 190.912C257.715 190.924 257.383 191.042 257.108 191.251C256.638 191.771 256.198 192.317 255.79 192.887V194.985C256.281 196.069 257.147 196.94 258.227 197.439C260.066 197.616 261.537 197.097 262.428 195.391H262.434Z" fill="white"/>
<path d="M150.21 212.814C151.193 210.072 152.93 208.445 155.39 207.605C156.582 207.196 158.995 207.2 159.765 207.469C161.984 208.252 163.772 209.492 164.818 211.73C165.627 213.454 165.402 215.217 165.386 216.995C164.118 220.987 160.313 223.168 156.842 222.784C155.942 222.686 155.076 222.232 154.214 221.896C153.352 221.56 152.496 221.091 152.052 220.311C151.608 219.531 150.673 218.983 150.511 217.95C150.378 217.075 149.969 216.228 149.931 215.36C149.887 214.415 150.131 213.457 150.21 212.814Z" fill="white"/>
<path d="M184.536 177.077C185.495 177.166 186.448 177.312 187.39 177.514C187.887 177.651 188.284 178.148 188.743 178.43C191.013 179.905 191.707 181.188 192.069 183.677C192.123 184.061 192.421 184.463 192.351 184.806C192.018 186.438 191.986 188.128 190.709 189.507C189.105 191.241 188.686 191.679 186.537 192.382C184.999 192.91 183.317 192.823 181.842 192.141C180.96 191.72 180.022 191.355 179.258 190.772C178.215 189.97 177.673 188.752 177.163 187.557C177.077 187.351 176.716 185.138 176.719 185.056C176.727 183.102 177.397 181.209 178.621 179.686C179.315 178.814 180.298 178.278 181.3 177.784C182.306 177.292 183.416 177.05 184.536 177.077V177.077Z" fill="white"/>
<path d="M232.534 207.422C233.655 207.2 234.81 207.21 235.926 207.452C237.043 207.694 238.098 208.163 239.027 208.83C240.241 209.698 241.388 210.817 241.54 212.593H226.91C227.167 211.269 227.895 210.083 228.958 209.254C230.007 208.459 231.114 207.688 232.534 207.422Z" fill="white"/>
<path d="M199.41 212.618C199.505 210.057 203.091 207.485 205.678 207.283C207.799 207.071 209.922 207.676 211.612 208.975C212.757 209.86 213.695 211.008 214.002 212.618H199.41Z" fill="white"/>
<path d="M261.426 192.814C261.562 193.362 261.784 193.844 261.772 194.323C261.772 194.735 261.483 195.141 261.328 195.553H260.694C260.628 195.48 260.576 195.396 260.538 195.306C260.45 194.966 260.394 194.619 260.37 194.269C260.37 193.952 260.538 193.654 260.516 193.353C260.462 193.026 260.37 192.707 260.244 192.402H258.024V195.762L258.529 195.917C258.576 195.48 258.614 195.096 258.662 194.649H259.464L259.987 195.797L260.909 195.946C259.705 196.742 258.573 196.65 257.467 196.114L256.728 194.618C256.506 193.264 256.937 192.081 258.582 191.447C260.069 191.435 260.069 191.435 261.426 192.814Z" fill="white"/>
<path d="M258.797 193.127L259.529 192.994V194.132C259.228 193.72 259.047 193.476 258.797 193.127Z" fill="white"/>
</g>
<defs>
<clipPath id="clip0">
<rect width="200" height="200" fill="white" transform="translate(100 100)"/>
</clipPath>
</defs>
</svg>
