<svg width="400" height="400" viewBox="0 0 400 400" fill="none" xmlns="http://www.w3.org/2000/svg">
<rect opacity="0.01" width="400" height="400" fill="#0B0B0C"/>
<path d="M116.603 251.78C116.238 251.597 115.872 251.249 115.509 251.253C107.686 251.313 100.434 248.969 93.3493 246.001C85.6488 242.784 79.135 237.835 73.6639 231.625C68.4196 225.675 64.7007 218.865 62.9015 211.036C62.2445 208.182 61.7014 205.37 61.8008 202.442C61.8561 201.39 61.8561 200.335 61.8008 199.284C61.4455 194.231 62.7015 189.45 64.3062 184.75C66.3847 178.666 69.5471 173.202 74.0874 168.582C78.8177 163.769 79.6591 162.354 86.2813 158.243C91.3434 155.1 96.7352 152.583 102.612 151.189C105.792 150.434 108.982 149.887 112.208 149.374C116.034 148.764 119.826 148.86 123.591 149.039C127.379 149.224 131.173 149.887 134.89 150.827C138.846 151.814 142.695 153.189 146.381 154.932C149.487 156.411 152.466 158.248 155.258 160.26C158.85 162.848 162.21 165.69 165.062 169.2C167.867 172.649 170.477 176.178 172.325 180.18C174.03 183.868 175.466 187.667 176.05 191.766C176.471 194.724 177.184 197.668 177.075 200.651C176.921 204.743 176.281 208.802 175.169 212.742C174.412 215.407 173.443 218.007 172.273 220.518C170.953 223.372 169.032 225.968 167.244 228.584C164.856 232.068 161.694 234.878 158.605 237.703C156.61 239.527 154.334 241.1 152.012 242.508C147.789 245.056 143.379 247.276 138.576 248.562C135.533 249.376 132.532 250.297 129.373 250.744C127.009 251.079 124.68 251.191 122.313 251.263C122.133 251.268 121.962 251.606 121.787 251.788L116.603 251.78ZM119.151 250.069C123.509 250.193 127.84 250.085 132.092 248.922C134.774 248.189 137.558 247.792 140.159 246.862C142.866 245.894 145.397 244.446 148.023 243.246C153.316 240.824 157.701 237.146 161.925 233.256C162.819 232.436 163.459 231.356 164.265 230.438C168.192 225.96 171.173 220.939 173.101 215.304C174.183 212.142 175.285 208.934 175.336 205.604C175.402 201.066 175.767 196.521 174.928 191.971C174.538 189.855 174.071 187.737 173.332 185.803C171.269 180.398 168.661 175.29 164.873 170.746C162.043 167.348 158.944 164.279 155.432 161.743C151.679 159.033 147.684 156.611 143.241 154.988C139.839 153.744 136.417 152.677 132.913 151.747C129.342 150.804 125.7 150.536 122.11 150.231C118.269 149.91 114.35 150.499 110.464 150.693C110.369 150.687 110.273 150.691 110.177 150.703C107.741 151.261 105.307 151.84 102.87 152.397C98.5222 153.395 94.3359 154.999 90.4338 157.162C86.814 159.15 83.382 161.463 80.1799 164.072C77.252 166.478 74.6255 169.229 72.3576 172.265C68.6576 177.182 65.7645 182.6 64.3609 188.674C63.8581 190.837 63.106 193.016 63.0759 195.195C63.0267 199.253 62.7753 203.304 63.4413 207.401C64 210.836 64.894 214.136 66.2037 217.265C69.6399 225.486 74.9199 232.361 82.0718 237.818C87.1607 241.705 92.6363 244.805 98.6975 246.88C104.486 248.862 110.39 250.184 116.555 250.072C117.417 250.055 118.279 250.069 119.146 250.069H119.151Z" fill="white"/>
<path d="M316.472 184.573C316.087 184.573 315.703 184.562 315.319 184.573C314.391 184.606 313.9 184.083 313.778 183.247C313.362 180.389 313.004 177.523 312.582 174.667C312.502 174.129 312.236 173.619 312.041 173.102C311.966 172.936 311.879 172.775 311.78 172.622C311.674 172.754 311.579 172.895 311.497 173.044C310.178 176.006 308.864 178.971 307.554 181.938C307.442 182.192 307.368 182.465 307.252 182.72C306.849 183.614 306.769 184.969 305.52 184.931C304.388 184.895 304.036 183.642 303.621 182.739C302.186 179.624 300.808 176.482 299.408 173.353C299.296 173.1 299.184 172.848 299.073 172.595C298.974 172.842 298.837 173.08 298.784 173.337C298.395 175.237 297.995 177.136 297.657 179.053C297.413 180.427 297.255 181.818 297.063 183.201C296.943 184.074 296.467 184.559 295.563 184.573C295.083 184.581 294.6 184.6 294.123 184.573C292.792 184.489 292.251 183.852 292.447 182.541C292.597 181.535 292.806 180.535 293.017 179.538C293.938 175.18 294.647 170.788 295.407 166.403C295.631 165.111 295.702 163.807 295.973 162.539C296.091 161.98 296.573 161.28 297.07 161.072C297.9 160.723 298.45 161.347 298.793 162.127C299.206 163.063 299.677 163.975 300.117 164.9C301.356 167.501 302.591 170.102 303.825 172.705C303.945 172.956 304.015 173.231 304.134 173.487C304.581 174.438 305.038 175.386 305.491 176.332C305.944 175.416 306.409 174.504 306.849 173.581C308.65 169.805 310.425 166.013 312.27 162.26C312.515 161.763 312.502 160.834 313.528 160.989C314.579 161.148 314.784 161.813 314.963 162.758C315.705 166.669 316.092 170.639 317.086 174.516C317.757 177.115 318.052 179.818 318.369 182.491C318.614 184.552 318.512 184.56 316.472 184.573Z" fill="white"/>
<path d="M213.917 201.47C213.553 197.351 219.876 189.802 226.474 190.861C231.695 190.273 238.475 196.049 238.208 202.799C238.082 206.026 237.012 209.039 234.65 211.395C233.526 212.529 232.182 213.42 230.699 214.013C229.217 214.606 227.629 214.889 226.033 214.843C222.829 214.739 219.609 213.711 217.245 211.072C215.08 208.649 214.098 205.837 213.917 201.47ZM226.153 195.488C222.886 195.202 218.861 197.88 218.665 202.902C218.588 204.927 219.811 206.35 220.933 207.861C222.248 209.631 224.318 210.164 226.112 210.208C227.046 210.232 227.974 210.059 228.836 209.699C229.698 209.339 230.474 208.801 231.113 208.12C232.599 206.521 233.585 204.717 233.547 202.662C233.485 199.122 230.344 195.191 226.153 195.488Z" fill="white"/>
<path d="M264.766 202.7C264.766 199.452 264.747 196.204 264.774 192.957C264.788 191.27 265.117 190.914 266.719 190.894C269.498 190.857 272.282 190.782 275.057 190.906C279.293 191.09 282.824 194.705 282.626 198.617C282.497 201.161 280.982 203.029 279.03 204.41C278.102 205.065 277.971 205.283 278.541 206.273C279.699 208.285 280.636 210.423 281.648 212.517C282.187 213.634 281.854 214.313 280.698 214.438C280.129 214.499 279.545 214.413 278.974 214.459C277.904 214.546 277.276 214.209 276.794 213.129C275.807 210.922 274.6 208.81 273.462 206.67C272.785 205.396 271.462 204.852 270.244 205.375C269.551 205.672 269.383 206.284 269.397 207.027C269.436 209.127 269.387 211.231 269.421 213.331C269.434 214.205 269.062 214.437 268.225 214.471C264.954 214.604 264.771 214.471 264.767 211.301C264.764 208.434 264.763 205.566 264.766 202.7ZM269.411 198.062C269.411 198.733 269.383 199.403 269.417 200.074C269.485 201.406 269.782 201.705 271.136 201.76C272.095 201.798 273.088 201.921 274.007 201.726C275.081 201.503 276.276 201.181 277.066 200.497C277.637 200.004 277.912 198.821 277.822 197.997C277.673 196.649 276.322 195.545 275.14 195.504C273.703 195.455 272.261 195.475 270.822 195.497C269.45 195.516 269.447 195.533 269.412 196.917C269.403 197.297 269.412 197.68 269.411 198.062V198.062Z" fill="white"/>
<path d="M253.79 173.074C253.79 169.722 253.769 166.376 253.798 163.028C253.812 161.374 254.15 161.04 255.799 161.017C258.294 160.983 260.803 160.854 263.286 161.047C266.487 161.294 269.191 162.302 270.646 165.691C271.713 168.18 270.885 173.169 267.783 174.474C266.295 175.1 266.346 175.344 267.112 176.697C268.082 178.395 269.044 180.1 269.974 181.82C270.243 182.305 270.435 182.828 270.542 183.372C270.683 184.154 270.395 184.555 269.467 184.601C266.307 184.744 266.197 184.713 264.773 181.88C264.021 180.379 263.285 178.87 262.499 177.387C262.198 176.818 261.886 176.029 261.382 175.836C260.565 175.521 259.586 175.55 258.687 175.607C258.564 175.614 258.436 176.613 258.426 177.157C258.395 178.975 258.442 180.794 258.406 182.612C258.374 184.234 258.037 184.528 256.358 184.575C255.878 184.588 255.395 184.545 254.918 184.584C254.035 184.659 253.762 184.255 253.77 183.413C253.807 179.97 253.79 176.519 253.79 173.074ZM258.434 168.716C258.434 171.897 258.434 171.897 261.518 171.894C262.092 171.894 262.669 171.94 263.238 171.886C264.836 171.734 266.337 170.492 266.479 169.249C266.731 167.084 265.543 165.715 263.314 165.622C262.742 165.598 262.167 165.622 261.593 165.622C258.434 165.614 258.434 165.614 258.434 168.711V168.716Z" fill="white"/>
<path d="M246.317 199.446C246.317 201.551 246.29 203.655 246.325 205.758C246.367 208.343 247.777 209.905 250.45 210.144C251.306 210.22 252.363 210.04 253.047 209.57C253.925 208.966 254.785 208.268 255.059 206.95C255.25 206.043 255.506 205.157 255.506 204.218C255.506 200.489 255.514 196.76 255.506 193.03C255.506 192.253 255.409 191.263 256.297 191.103C257.356 190.912 258.504 191.073 259.586 191.25C259.837 191.291 260.144 192.013 260.144 192.423C260.182 197.109 260.453 201.818 260.073 206.473C259.771 210.166 257.118 214.02 252.463 214.483C247.459 214.98 245.442 213.623 242.726 210.536C242.303 210.053 241.896 209.451 241.761 208.842C241.458 207.483 241.19 206.088 241.162 204.701C241.084 200.782 241.117 196.859 241.143 192.939C241.154 191.263 241.492 190.95 243.106 190.885C243.49 190.87 243.874 190.872 244.257 190.885C245.934 190.939 246.286 191.239 246.312 192.85C246.343 195.047 246.316 197.247 246.317 199.446Z" fill="white"/>
<path d="M230.173 169.603C230.173 171.514 230.173 173.425 230.173 175.336C230.173 179.233 228.299 182.015 225.033 183.995C224.088 184.567 223.005 184.378 222.053 184.665C221.101 184.953 220.329 185.422 219.458 184.64C216.988 184.915 215.469 183.393 213.838 181.88C211.968 180.144 211.268 177.961 211.192 175.611C211.053 171.411 211.134 167.204 211.163 163.001C211.174 161.372 211.547 161.053 213.185 161.007C215.522 160.94 215.768 161.179 215.797 163.568C215.797 163.95 215.797 164.332 215.797 164.714C215.797 167.676 215.876 170.637 215.763 173.598C215.71 174.966 216.145 176.179 216.492 177.42C217.051 179.391 218.667 180.117 220.527 180.331C221.963 180.495 224.388 178.901 224.834 177.411C225.202 176.182 225.616 174.952 225.568 173.59C225.457 170.154 225.53 166.712 225.534 163.272C225.534 162.523 225.335 161.499 226.221 161.295C227.269 161.054 228.432 161.141 229.51 161.315C229.8 161.362 230.132 162.225 230.147 162.724C230.211 165.016 230.173 167.31 230.173 169.603Z" fill="white"/>
<path d="M275.131 172.898C275.131 169.644 275.113 166.389 275.139 163.136C275.152 161.307 275.441 161.028 277.321 161.013C280.875 160.99 284.428 161.013 287.982 160.998C288.771 160.998 289.764 160.925 289.924 161.78C290.119 162.831 289.968 163.987 289.741 165.05C289.682 165.327 288.79 165.573 288.275 165.584C285.779 165.638 283.282 165.622 280.788 165.6C280.093 165.595 279.712 165.785 279.761 166.562C279.845 167.881 279.883 169.203 279.94 170.524C281.162 170.594 282.385 170.686 283.609 170.729C284.568 170.762 285.53 170.741 286.49 170.734C288.701 170.72 288.416 170.723 288.426 172.829C288.435 174.967 288.537 174.821 286.373 174.813C285.125 174.807 283.876 174.813 282.627 174.813C279.767 174.813 279.767 174.813 279.769 177.662C279.77 180.512 279.769 180.502 282.642 180.503C284.653 180.503 286.676 180.498 288.693 180.503C289.069 180.503 289.744 180.494 289.774 180.615C289.976 181.414 290.057 182.245 290.14 183.073C290.22 183.869 289.721 184.318 289.05 184.538C288.704 184.65 288.289 184.567 287.905 184.567C284.351 184.567 280.798 184.585 277.244 184.561C275.426 184.548 275.156 184.261 275.141 182.367C275.114 179.215 275.131 176.059 275.131 172.898Z" fill="white"/>
<path d="M322.385 173.163C322.385 169.91 322.371 166.656 322.385 163.403C322.396 161.259 322.597 161.03 324.591 161.015C328.143 160.989 331.697 161.015 335.249 161.001C336.038 161.001 336.946 160.928 337.209 161.793C337.532 162.854 337.73 164.06 337.019 165.042C336.759 165.403 336.042 165.578 335.526 165.589C333.031 165.644 330.533 165.627 328.039 165.605C327.333 165.605 326.971 165.812 327.02 166.577C327.105 167.894 327.15 169.213 327.211 170.531C328.435 170.601 329.657 170.689 330.882 170.734C331.745 170.766 332.614 170.69 333.474 170.756C334.201 170.812 335.429 170.833 335.54 171.165C335.82 172.013 335.739 173.056 335.54 173.959C335.388 174.637 334.677 174.847 333.916 174.83C331.905 174.783 329.883 174.823 327.866 174.814C327.275 174.814 327.01 175.066 327.028 175.661C327.073 177.183 327.099 178.705 327.133 180.227C328.541 180.318 329.947 180.45 331.355 180.494C332.794 180.54 334.237 180.466 335.675 180.515C337.045 180.561 337.396 181.01 337.407 182.515C337.418 184.02 337.055 184.541 335.72 184.555C331.592 184.595 327.462 184.555 323.332 184.578C322.535 184.578 322.384 184.141 322.385 183.494C322.389 180.052 322.389 176.609 322.385 173.163Z" fill="white"/>
<path d="M205.21 190.892C207.66 190.362 209.68 191.732 211.692 192.912C213.285 193.849 213.273 194.771 211.981 196.096C210.653 197.458 210.653 197.458 208.716 196.27C204.712 193.812 198.994 195.935 197.997 200.477C197.473 202.862 197.676 205.426 199.349 207.493C200.503 208.919 201.892 209.963 203.952 209.873C205.949 209.785 207.941 210.004 209.531 208.372C210.054 207.834 210.761 208.014 211.305 208.568C211.64 208.91 212.002 209.229 212.321 209.585C213.103 210.457 213.145 210.992 212.393 211.787C210.927 213.334 209.206 214.439 206.98 214.451C205.74 214.456 204.573 214.746 203.246 214.552C196.805 213.615 194 210.082 192.819 205.35C192.011 202.12 192.715 198.802 194.799 195.948C197.349 192.449 200.638 190.489 205.21 190.892Z" fill="white"/>
<path d="M240.411 161.009C242.691 160.817 245.37 161.041 247.777 162.645C249.573 163.842 250.598 165.479 250.949 167.602C251.479 170.806 250.019 173.094 247.612 174.93C246.802 175.548 245.915 176.066 244.775 175.99C243.535 175.908 242.284 175.965 241.038 175.981C239.453 176.001 239.437 176.01 239.423 177.476C239.407 179.386 239.394 181.298 239.43 183.208C239.448 184.096 239.326 184.644 238.201 184.594C235.648 184.483 234.675 185.235 234.746 181.394C234.857 175.379 234.765 169.359 234.78 163.34C234.78 161.292 235.044 161.05 237.04 161.011C237.999 160.993 238.957 161.009 240.411 161.009ZM239.419 168.535C239.419 168.726 239.419 168.918 239.419 169.11C239.506 172.462 238.807 171.819 242.332 171.903C242.716 171.912 243.114 171.962 243.482 171.886C244.928 171.589 246.203 170.304 246.3 169.103C246.452 167.224 245.037 165.697 243.07 165.619C239.421 165.468 239.421 165.468 239.419 168.535Z" fill="white"/>
<path d="M200.971 160.987C202.983 160.55 204.736 161.788 206.559 162.747C207.42 163.202 207.591 164.144 207.118 164.997C206.069 166.906 205.469 167.106 203.529 166.165C202.939 165.88 202.395 165.485 201.786 165.259C200.669 164.847 199.586 164.886 198.545 165.594C197.597 166.241 197.299 167.164 197.915 168.074C198.786 169.36 199.951 170.318 201.464 170.738C203.429 171.282 204.96 172.422 206.459 173.771C209.651 176.643 208.864 182.412 204.218 184.163C202.727 184.722 201.089 185.287 199.149 184.729C197.361 184.216 195.499 184.12 193.977 182.874C193.17 182.213 192.954 180.886 193.575 179.953C194.321 178.83 195.003 178.632 196.193 179.116C197.562 179.674 198.732 180.715 200.39 180.568C201.462 180.473 202.609 180.376 202.976 179.339C203.359 178.262 203.21 177.032 202.006 176.322C200.803 175.612 199.638 174.81 198.362 174.271C195.73 173.161 193.731 171.629 193.036 168.644C192.497 166.322 193.506 163.366 195.592 162.146C197.539 161.013 197.687 160.979 200.971 160.987Z" fill="white"/>
<path d="M291.916 190.883C294.026 190.883 296.135 190.848 298.244 190.895C299.512 190.923 299.885 191.342 299.949 192.623C299.977 193.194 300.092 193.825 299.898 194.325C299.719 194.783 299.227 195.184 298.781 195.448C298.493 195.615 298.03 195.465 297.648 195.492C296.531 195.573 295.414 195.67 294.296 195.761C294.26 196.801 294.196 197.841 294.193 198.882C294.182 203.463 294.173 208.054 294.193 212.641C294.203 214.673 294.123 214.439 292.26 214.447C291.973 214.447 291.685 214.458 291.397 214.447C289.971 214.381 289.561 214.019 289.552 212.567C289.526 207.885 289.542 203.203 289.542 198.521C289.542 197.85 289.522 197.18 289.548 196.515C289.574 195.85 289.392 195.439 288.598 195.478C287.642 195.525 286.679 195.517 285.722 195.484C284.133 195.429 283.822 195.073 283.79 193.398C283.784 193.112 283.769 192.824 283.79 192.539C283.883 191.329 284.285 190.918 285.578 190.894C287.696 190.855 289.812 190.883 291.916 190.883Z" fill="white"/>
<path d="M281.464 229.524C281.138 224.504 285.875 220.564 290.395 220.743C292.853 220.839 294.921 221.687 296.665 223.476C298.409 225.265 299.271 227.601 299.206 229.799C299.135 232.22 298.171 234.702 296.053 236.45C294.394 237.853 292.284 238.61 290.112 238.58C285.696 238.58 281.044 234.767 281.464 229.524ZM289.969 236.258C293.814 236.619 297.019 233.213 297.086 229.765C297.153 226.318 293.957 223.123 290.305 222.957C286.736 222.797 283.55 226.168 283.363 229.71C283.271 231.44 284.273 233.244 285.782 234.583C287.056 235.712 288.36 236.464 289.969 236.258V236.258Z" fill="white"/>
<path d="M209.999 229.839C210.272 232.426 209.272 234.457 207.494 236.202C205.788 237.878 203.731 238.524 201.376 238.598C198.94 238.675 196.933 237.573 195.257 236.132C193.261 234.414 192.763 232.017 192.563 229.304C192.235 224.848 197.506 220.464 201.536 220.7C204.045 220.846 206.073 221.79 207.793 223.463C209.577 225.206 210.345 227.379 209.999 229.839ZM201.35 236.269C205.176 236.552 208.3 233.216 208.229 230.011C208.14 225.954 205.671 223.136 201.471 223.016C199.361 222.956 197.972 223.928 196.49 225.22C194.968 226.547 194.624 228.296 194.529 229.978C194.344 233.273 197.774 236.266 201.35 236.269V236.269Z" fill="white"/>
<path d="M302.228 229.405C302.228 227.112 302.249 224.824 302.217 222.528C302.206 221.746 302.34 221.268 303.286 221.286C305.585 221.328 307.895 221.182 310.184 221.338C312.541 221.499 314.06 223.008 314.366 225.482C314.612 227.477 314.188 229.149 312.454 230.5C311.084 231.569 311.244 231.701 312.187 233.28C312.903 234.476 313.528 235.738 314.149 236.98C314.497 237.672 314.255 237.964 313.455 238.032C312.493 238.114 311.852 237.809 311.428 236.877C310.774 235.437 309.927 234.083 309.316 232.63C309.003 231.883 308.619 231.694 307.863 231.668C304.543 231.557 304.544 231.531 304.543 234.93C304.543 235.601 304.497 236.271 304.553 236.935C304.633 237.872 304.135 238.03 303.343 238.046C302.459 238.065 302.2 237.698 302.213 236.858C302.254 234.371 302.228 231.888 302.228 229.405ZM304.463 226.397C304.566 227.515 304.27 229.054 304.884 229.631C305.499 230.208 307.033 229.861 308.163 229.915C308.354 229.929 308.546 229.929 308.737 229.915C310.525 229.738 311.929 228.505 312.039 227.03C312.186 225.071 311.336 223.761 309.488 223.202C309.048 223.069 308.554 223.091 308.085 223.082C304.556 222.973 304.556 222.975 304.462 226.397H304.463Z" fill="white"/>
<path d="M337.974 237.571C337.743 237.683 337.366 238.018 337.038 237.98C336.585 237.91 336.176 237.67 335.893 237.31C335.479 236.703 335.232 235.981 334.926 235.298C334.516 234.389 333.962 233.876 332.815 233.957C331.097 234.084 329.343 234.145 327.64 233.941C326.259 233.775 325.792 234.513 325.342 235.477C325.107 235.982 324.956 236.53 324.691 237.017C324.515 237.34 324.253 237.731 323.943 237.837C323.517 237.978 323.055 237.963 322.64 237.796C322.446 237.708 322.329 237.081 322.434 236.79C322.837 235.66 323.328 234.555 323.816 233.462C325.465 229.731 327.113 226 328.798 222.288C328.987 221.872 329.415 221.565 329.721 221.197C330.007 220.854 330.28 220.75 330.615 221.145C330.861 221.437 331.23 221.665 331.379 221.996C333.592 226.895 335.785 231.803 337.96 236.72C338.039 236.877 337.974 237.095 337.974 237.571ZM330.263 232.22C331.031 232.22 331.798 232.22 332.565 232.22C333.151 232.22 333.518 231.971 333.235 231.362C332.341 229.422 331.414 227.502 330.494 225.575C330.389 225.352 330.263 225.146 330.147 224.932C330.035 225.183 329.923 225.436 329.811 225.687C329.276 226.867 328.748 228.05 328.205 229.227C326.82 232.226 326.817 232.225 330.263 232.22Z" fill="white"/>
<path d="M253.79 229.419C253.715 225.195 255.988 222.742 259.768 221.261C263.056 219.976 265.775 221.059 268.366 222.953C268.597 223.122 268.799 223.774 268.689 223.886C268.316 224.28 267.852 224.575 267.337 224.746C267.072 224.824 266.66 224.522 266.352 224.33C262.868 222.164 259.946 222.562 257.353 225.57C255.644 227.554 255.701 231.62 257.271 233.7C259.474 236.618 263.752 237.232 266.289 235.048C266.559 234.815 266.979 234.514 267.251 234.578C267.755 234.699 268.3 234.981 268.622 235.367C268.761 235.534 268.505 236.279 268.222 236.502C266.064 238.197 263.52 239.143 260.872 238.487C257.238 237.587 253.41 234.644 253.788 229.994C253.803 229.802 253.79 229.61 253.79 229.419Z" fill="white"/>
<path d="M238.21 238.824C237.749 238.249 237.324 237.878 237.102 237.412C236.184 235.489 235.314 233.545 234.453 231.594C233.152 228.63 231.87 225.657 230.607 222.676C230.452 222.309 230.282 221.721 230.457 221.491C230.8 221.044 232.152 221.273 232.451 221.758C232.684 222.162 232.888 222.582 233.062 223.014C234.425 226.156 235.779 229.301 237.145 232.441C237.297 232.786 237.484 233.114 237.704 233.419C237.845 233.615 238.072 233.884 238.254 233.878C238.436 233.873 238.684 233.604 238.782 233.395C239.76 231.293 240.713 229.181 241.673 227.071C242.403 225.468 243.231 223.902 243.82 222.249C244.175 221.254 244.793 221.266 245.564 221.316C246.161 221.355 246.458 221.663 246.207 222.234C245.583 223.678 244.907 225.1 244.267 226.537C242.609 230.258 240.971 233.987 239.287 237.696C239.114 238.079 238.676 238.349 238.21 238.824Z" fill="white"/>
<path d="M219.116 221.327C220.649 221.327 222.182 221.31 223.715 221.347C223.932 221.347 224.274 221.584 224.321 221.773C224.378 221.985 224.242 222.396 224.064 222.493C223.597 222.75 223.066 223.022 222.552 223.041C220.733 223.105 218.909 223.101 217.089 223.051C216.171 223.027 215.648 223.17 215.737 224.281C215.865 225.883 215.848 227.497 215.89 229.106C217.491 229.188 219.091 229.272 220.695 229.348C221.078 229.366 221.463 229.363 221.845 229.354C222.426 229.34 222.705 229.603 222.715 230.19C222.724 230.74 222.563 231.108 221.933 231.108C220.783 231.108 219.633 231.115 218.482 231.117C217.908 231.117 217.331 231.144 216.758 231.111C216.038 231.069 215.731 231.341 215.752 232.09C215.789 233.617 215.723 235.147 215.778 236.671C215.812 237.598 215.622 238.095 214.532 238.048C213.638 238.01 213.415 237.643 213.425 236.829C213.449 232.053 213.468 227.277 213.412 222.501C213.399 221.383 213.917 221.258 214.807 221.284C216.244 221.324 217.682 221.294 219.12 221.294L219.116 221.327Z" fill="white"/>
<path d="M274.555 230.44C274.555 228.343 274.522 226.247 274.572 224.152C274.593 223.249 274.215 223.013 273.39 223.053C272.436 223.105 271.479 223.088 270.528 223.001C270.304 222.978 269.996 222.499 269.985 222.218C269.974 221.938 270.243 221.6 270.461 221.35C270.549 221.248 270.825 221.298 271.019 221.298C274.175 221.298 277.33 221.298 280.484 221.292C281.171 221.292 281.558 221.508 281.501 222.278C281.456 222.888 281.128 223.084 280.576 223.06C280.481 223.06 280.385 223.06 280.29 223.06L277.161 223.163C277.068 224.272 276.906 225.38 276.895 226.489C276.859 229.919 276.871 233.348 276.895 236.778C276.895 237.54 276.79 238.053 275.837 238.035C274.737 238.015 274.58 237.937 274.565 236.721C274.538 234.631 274.555 232.535 274.555 230.44Z" fill="white"/>
<path d="M320.12 229.651C320.12 231.943 320.12 234.235 320.12 236.528C320.12 237.286 320.275 238.092 319.043 238.042C317.951 237.999 317.804 237.948 317.799 236.693C317.783 232.013 317.783 227.333 317.799 222.652C317.799 221.383 318.112 221.168 319.309 221.298C319.902 221.362 320.124 221.633 320.122 222.201C320.114 224.684 320.119 227.167 320.12 229.651Z" fill="white"/>
<path d="M248.589 229.682C248.589 227.209 248.604 224.736 248.58 222.263C248.572 221.514 248.903 221.257 249.611 221.299C250.234 221.332 250.393 221.681 250.393 222.224C250.393 227.17 250.382 232.116 250.401 237.063C250.401 237.816 250.079 238.06 249.371 238.023C248.747 237.99 248.589 237.644 248.589 237.102C248.594 234.629 248.594 232.156 248.589 229.682Z" fill="white"/>
<path d="M121.218 168.469C121.41 169.049 121.603 169.629 121.796 170.209C121.495 170.008 121.199 169.802 120.895 169.609C120.684 169.474 120.464 169.355 120.248 169.23C120.196 169.588 119.969 170.085 120.123 170.275C120.642 170.914 121.275 171.114 121.78 170.191C122.786 171.015 122.366 171.848 121.901 172.785C121.177 174.244 121.293 174.356 122.944 174.204C123.855 174.121 124.706 173.909 125.239 173.064C125.822 172.89 126.668 173.511 126.971 172.493H129.285C129.382 173.265 129.996 172.997 130.443 173.064C130.832 173.771 131.225 174.477 131.607 175.187C131.719 175.393 131.817 175.607 131.921 175.818C132.001 175.561 132.145 175.305 132.145 175.045C132.183 173.873 131.846 172.995 130.423 173.082C130.343 172.29 129.727 172.556 129.273 172.504C128.476 171.752 127.758 171.752 126.975 172.504C126.397 172.686 125.537 172.036 125.248 173.081C124.504 172.822 123.191 173.65 123.042 172.572C122.871 171.334 124.185 171.435 125.125 171.295C126.312 171.117 127.353 170.057 128.683 170.724C130.709 169.837 131.49 171.997 132.965 172.461C133.272 173.769 134.376 174.931 133.691 176.431C133.611 176.608 133.691 176.856 133.691 177.07C133.871 177.032 134.091 177.046 134.226 176.945C134.607 176.657 134.919 176.275 135.321 176.02C135.916 175.649 136.566 175.363 137.191 175.04C136.779 174.417 136.444 173.722 135.939 173.186C134.504 171.662 133.425 169.926 132.518 168.056C132.315 167.639 132.295 167.462 132.62 167.145C133.01 166.76 133.241 166.94 133.506 167.257C134.544 168.486 135.741 169.603 136.586 170.944C137.573 172.509 139.035 173.488 140.337 174.686C141.1 175.387 141.307 175.133 141.621 174.401C141.657 174.315 142.291 174.332 142.327 174.418C142.792 175.725 143.333 175.329 144.148 174.671C145.121 173.889 145.153 174.008 146.022 175.342C146.29 175.753 146.795 176.156 147.263 176.269C149.087 176.709 150.357 177.827 151.379 179.306C152.142 180.414 152.007 181.161 152.474 183.87C152.848 186.046 152.091 187.558 150.964 189.147C150.791 189.391 150.845 189.797 150.793 190.128C151.128 190.083 151.464 190.043 151.799 189.994C152.258 189.926 152.945 190.014 153.14 189.75C154.129 188.377 155.04 190.167 155.966 189.757C155.986 189.748 156.22 190.041 156.189 190.113C155.331 191.936 156.137 193.887 155.729 195.739C155.695 195.829 155.639 195.91 155.565 195.972C155.034 196.52 155.388 196.891 155.696 197.433C156.925 199.604 158.298 201.765 157.057 204.466C156.801 205.025 156.73 205.958 157.034 206.417C158.011 207.895 157.153 209.138 156.677 210.36C155.76 212.713 153.059 213.456 150.859 212.105C150.649 211.976 150.428 211.865 150.212 211.745C150.156 212.016 150.1 212.286 150.047 212.558C149.8 213.983 150.494 214.856 151.658 215.589C153.409 216.695 153.446 216.763 152.887 218.854C152.256 221.207 151.784 223.554 151.695 226.005C151.658 227.045 150.934 228.06 150.522 229.087C149.153 229.005 149.127 230.698 148.071 230.953C147.346 231.127 146.561 231.142 145.81 231.103C144.99 231.061 144.425 231.343 143.762 231.844C140.644 234.205 137.158 235.675 133.17 235.714C131.538 235.73 129.891 235.589 128.276 235.758C126.877 235.905 125.659 235.383 124.429 235.021C122.634 234.493 121.689 233.157 121.756 231.191C121.781 230.451 121.629 229.704 121.559 228.956C121.447 229.726 121.317 230.493 121.237 231.267C121.188 231.74 121.226 232.222 121.217 232.701C121.172 234.936 120.994 235.101 118.732 235.116C116.083 235.133 116.073 235.124 116.007 232.365C115.995 231.887 116.001 231.407 115.978 230.93C115.953 230.841 115.896 230.763 115.819 230.712C115.691 230.765 115.576 230.845 115.483 230.947C115.435 231.006 115.462 231.132 115.471 231.227C115.719 233.712 114.289 234.861 112.102 235.312C110.285 235.687 108.414 236.332 106.62 236.179C101.468 235.74 96.4159 234.778 92.4958 230.927C91.7359 230.181 91.9561 231.157 91.699 231.34C91.4834 231.494 90.9682 231.512 90.7782 231.357C90.4933 231.123 90.4486 229.823 90.1078 231.33C90.0653 231.512 90.129 231.717 90.0943 231.902C90.0441 232.172 89.948 232.432 89.8708 232.696C89.6431 232.557 89.4261 232.402 89.2216 232.231C88.8506 231.876 88.5746 231.301 88.1421 231.149C85.8167 230.333 84.945 228.428 84.3248 226.317C84.2198 225.963 84.4545 225.396 84.2578 225.2C82.7581 223.692 83.6521 222.25 84.4813 220.997C85.4524 219.534 85.5094 218.007 85.4568 216.39C85.4289 215.529 85.4434 214.666 85.4512 213.806C85.4591 213.024 85.363 212.388 84.3472 212.97C82.7961 213.864 81.8027 212.719 80.9076 211.862C79.9533 210.948 79.1319 209.627 79.9131 208.326C80.8618 206.741 80.7053 205.085 80.9098 203.417C81.1054 201.82 81.1076 200.097 82.3715 198.761C82.9302 198.168 82.8889 197.438 82.6699 196.541C82.3614 195.275 82.5581 193.879 82.5928 192.541C82.6006 192.216 82.7861 191.897 82.8889 191.575C84.5137 192.372 83.2599 189.607 84.7372 190.075C84.9283 190.136 85.2803 189.887 85.6468 190.157C86.3173 190.648 87.0649 191.02 87.7801 191.442C87.7007 191.801 87.5443 192.163 87.5566 192.519C87.5979 193.686 87.8829 194.876 87.7309 196.011C87.5756 197.172 86.8257 198.256 86.6749 199.417C86.3776 201.718 85.6792 203.742 83.9471 205.385C83.2766 206.019 82.5905 206.796 82.3156 207.639C82.0117 208.573 82.072 209.67 82.2139 210.663C82.2396 210.848 83.4052 210.983 84.0265 210.929C84.3617 210.899 84.697 210.451 84.9473 210.132C85.6513 209.253 86.3262 208.352 86.9934 207.45C88.5176 205.378 89.5367 203.138 89.5222 200.49C89.5222 199.484 89.5602 198.496 89.8697 197.448C90.1223 196.595 89.2741 195.421 88.9322 194.383C88.8752 194.209 88.9892 193.936 88.8931 193.825C88.3153 193.127 88.7053 191.977 87.7644 191.463C87.3174 189.538 86.6682 187.643 87.1699 185.608C87.275 185.18 87.256 184.568 87.0191 184.237C86.1586 183.03 86.6101 182.425 87.8013 181.914C88.3857 181.664 88.2058 181.223 87.7935 180.834C87.0984 180.178 86.3676 179.539 85.782 178.795C84.4288 177.087 84.9473 175.554 87.0537 174.766C87.6616 174.543 88.293 174.332 88.8338 173.99C89.4004 173.632 89.5479 173.409 88.7042 172.919C88.046 172.536 88.0628 171.421 88.7389 170.669C89.4149 169.917 90.243 170.023 90.6911 170.942C90.92 171.444 91.1087 171.963 91.2554 172.494C91.4454 173.122 91.8074 173.193 92.2958 172.851C92.5282 172.688 92.688 172.415 92.9294 172.272C95.1353 170.96 97.1847 171.913 97.5535 174.445C97.6485 175.101 97.5602 175.786 97.5792 176.449C97.6149 177.654 97.6239 177.656 98.8084 177.305C98.985 177.252 99.1436 177.113 99.3191 177.095C99.9404 177.032 100.539 177.122 100.448 177.935C100.294 179.302 100.831 180.287 101.874 181.136C102.294 181.5 102.602 181.977 102.76 182.51C103.152 183.851 103.597 185.134 104.48 186.25C104.758 186.621 104.944 187.052 105.023 187.509C105.328 189.204 105.305 189.185 106.459 189.149C107.011 189.129 107.305 188.974 107.368 188.352C107.432 187.731 107.991 186.936 107.763 186.558C107.325 185.827 107.422 185.391 107.865 184.799C107.966 184.662 107.821 184.24 107.673 184.04C106.232 182.034 106.109 179.54 105.158 177.343C104.249 175.24 105.397 172.406 107.364 171.085C107.712 170.85 110.533 170.469 111.027 170.598C112.006 170.853 112.985 171.111 113.964 171.373C115.474 171.782 115.588 171.716 116.141 170.448C116.439 169.768 116.825 169.125 117.171 168.466L117.747 167.89L118.178 167.679L117.954 167.471L117.763 167.905L117.185 168.479C116.343 167.173 116.343 165.698 117.185 164.443L117.764 165.017C117.83 165.157 117.896 165.295 117.963 165.435L118.167 165.231L117.75 165.032L117.173 164.456C117.002 162.78 118.29 163.29 119.051 163.339C119.86 163.396 121.309 162.557 121.22 164.45L120.646 165.026L120.221 165.215L120.42 165.433L120.631 165.013L121.21 164.438C121.621 165.031 121.841 165.735 121.841 166.456C121.841 167.177 121.621 167.881 121.21 168.474L120.626 167.909C120.556 167.767 120.486 167.624 120.417 167.482L120.209 167.7L120.64 167.894L121.218 168.469ZM128.135 234.537L128.336 234.966L128.569 234.759L128.122 234.552L127.906 234.099L127.688 234.338L128.135 234.537ZM110.841 216.168L110.394 216.371L110.61 216.594L110.821 216.147L111.254 215.944L111.036 215.735L110.841 216.168ZM105.639 199.506L105.062 198.931C104.577 198.385 104.093 197.84 103.609 197.294L102.771 199.505L102.349 199.707L102.551 199.925L102.761 199.495C103.449 198.972 104.229 198.81 105.076 198.919L105.654 199.495L105.86 199.942L106.076 199.708L105.639 199.506ZM132.172 216.168H131.584C132.004 214.939 130.221 215.091 130.281 214.09C130.142 214.223 129.889 214.352 129.884 214.489C129.853 215.633 130.428 216.206 131.592 216.165C131.653 216.31 131.713 216.454 131.774 216.6L132.157 216.163L132.734 215.587C134.027 214.614 134.029 214.45 132.728 213.903C132.565 213.835 132.354 213.88 132.169 213.872L131.577 213.294L131.365 212.855L131.149 213.068L131.589 213.282L132.16 213.862C132.355 214.44 132.55 215.017 132.745 215.593L132.172 216.168ZM117.745 179.404C117.553 179.211 117.36 179.019 117.167 178.828C117.173 178.733 117.19 178.639 117.217 178.548C117.487 177.913 118.606 177.732 118.193 176.732C117.489 177.224 116.917 176.5 116.252 176.524C115.111 176.564 113.968 176.536 112.825 176.524C111.296 176.506 109.907 176.905 108.658 177.804C108.363 178.007 108.025 178.14 107.671 178.191C107.405 178.232 107.112 178.099 106.832 178.044C106.986 178.37 107.073 178.759 107.309 179.009C107.663 179.383 108.121 179.659 108.538 179.977C108.355 180.127 108.128 180.247 108.005 180.435C107.945 180.527 108.076 180.743 108.117 180.903C108.243 180.767 108.412 180.65 108.482 180.49C108.553 180.33 108.511 180.14 108.519 179.963C108.908 180.325 109.308 180.676 109.678 181.056C109.798 181.18 109.838 181.38 109.914 181.546C110.04 181.346 110.128 181.017 110.3 180.965C111.41 180.622 111.977 180.118 111.483 178.822C111.344 178.456 111.818 177.789 112.139 177.359C112.257 177.201 112.963 177.203 113.057 177.351C113.882 178.646 114.657 179.956 115.935 180.901C116.107 181.028 115.949 181.599 115.945 181.965C115.65 181.889 115.355 181.748 115.062 181.755C114.827 181.76 114.457 181.898 114.402 182.062C114.338 182.253 114.484 182.621 114.659 182.762C114.935 182.993 115.303 183.124 115.646 183.263C116.192 183.487 116.557 183.349 116.567 182.705C116.582 181.852 116.548 180.999 116.586 180.149C116.609 179.646 116.31 178.959 117.182 178.818L117.76 179.392L117.967 179.819L118.175 179.601L117.745 179.404ZM133.901 216.743L133.471 216.922L133.901 217.304C133.763 217.537 133.678 217.823 133.479 217.997C131.868 219.449 130.238 220.864 128.623 222.312C128.472 222.447 128.445 222.72 128.361 222.929C128.623 222.907 128.913 222.949 129.143 222.849C129.654 222.625 130.118 222.29 130.63 222.074C130.853 221.981 131.226 221.962 131.37 222.084C131.515 222.206 131.554 222.609 131.465 222.813C131.167 223.483 130.795 224.129 130.445 224.784L130.013 224.993L130.236 225.199L130.426 224.771C131.689 224.843 132.197 223.931 132.737 223.036C133.631 221.557 134.913 220.494 136.437 219.707C136.928 219.454 137.468 219.289 137.942 219.008C138.628 218.599 139.247 217.276 139.033 216.661C138.714 215.746 137.915 216.269 137.325 216.173C136.957 216.111 136.569 216.165 136.189 216.167C136.443 215.15 137.306 215.8 137.829 215.553C138.091 215.429 138.463 214.923 138.424 214.872C137.765 214.03 137.819 212.731 136.713 212.185C136.302 212.868 135.908 213.564 135.472 214.231C135.071 214.842 134.268 215.236 134.466 216.155L133.901 216.743ZM120.642 179.4L120.211 179.609L120.435 179.818C120.499 179.674 120.561 179.529 120.625 179.385L121.203 178.81C121.403 179.068 121.743 179.311 121.775 179.592C121.857 180.333 121.74 181.096 121.837 181.834C121.884 182.189 122.172 182.722 122.46 182.798C123.33 183.032 123.629 182.509 123.516 181.694L123.948 181.494L123.725 181.271C123.655 181.413 123.585 181.554 123.516 181.695L122.562 182.123C122.497 181.766 122.317 181.379 122.397 181.056C122.478 180.733 122.763 180.294 123.053 180.2C124.432 179.753 124.394 178.327 125.087 177.414C125.452 176.931 125.124 176.548 124.508 176.537C123.938 176.526 123.357 176.475 122.799 176.557C122.175 176.65 121.57 176.876 120.957 177.042C120.845 176.324 120.733 175.605 120.621 174.887C120.622 174.795 120.611 174.703 120.59 174.613C120.541 174.532 120.48 174.459 120.41 174.395C120.298 174.492 120.086 174.589 120.086 174.688C120.086 176.167 119.611 177.785 121.218 178.829L120.642 179.4ZM130.438 217.306L130.215 216.889L130.013 217.095L130.436 217.313C130.474 217.501 130.474 217.695 130.436 217.884L130.004 218.096L130.214 218.299L130.437 217.883L130.859 217.687C130.717 217.561 130.577 217.434 130.438 217.306V217.306ZM107.367 173.638L107.944 173.064C108.124 173.057 108.324 173.098 108.477 173.032C108.63 172.966 108.754 172.788 108.889 172.66C108.727 172.613 108.506 172.476 108.416 172.537C108.226 172.663 108.107 172.892 107.958 173.079L107.383 173.654L106.942 173.855L107.156 174.084L107.367 173.638ZM105.076 194.912L104.646 195.119L104.863 195.342L105.064 194.895L105.641 194.32C105.889 194.647 106.093 195.022 106.394 195.291C106.719 195.58 107.134 195.768 107.511 196C107.657 195.608 107.906 195.218 107.927 194.824C107.985 193.706 107.95 192.574 107.952 191.449C109.382 191.653 110.505 191.348 110.834 189.724L111.41 189.15C112.385 189.093 112.881 189.573 113.226 190.474C113.381 190.879 114.305 191.429 114.395 191.352C115.093 190.75 114.1 190.662 113.956 190.275C113.738 189.69 113.42 189.143 113.144 188.58H114.881C114.881 188.942 114.856 189.307 114.887 189.666C114.9 189.827 115.021 189.979 115.092 190.135C115.204 189.958 115.454 189.739 115.413 189.613C115.294 189.252 115.061 188.929 114.872 188.59C114.254 187.798 113.796 187.797 113.148 188.59C112.561 188.749 111.724 188.165 111.424 189.169L110.847 189.745C109.494 189.668 108.937 190.913 107.963 191.467C106.902 192.192 105.749 192.843 105.66 194.341L105.076 194.912ZM126.393 212.147C126.326 212 126.258 211.855 126.19 211.71L125.975 211.933L126.407 212.133C126.597 212.328 126.785 212.522 126.975 212.715L127.067 214.124C127.477 213.875 128.02 213.717 128.271 213.356C128.852 212.521 129.379 211.654 129.297 210.517C129.206 209.183 129.208 207.844 129.304 206.51C129.379 205.447 128.941 205.131 127.982 205.271C127.706 205.31 127.435 205.372 127.161 205.425C127.273 205.64 127.344 205.901 127.512 206.06C128.12 206.636 128.81 207.611 128.309 208.09C127.222 209.127 127.801 209.956 128.3 210.755C128.656 211.33 128.468 211.58 128.098 211.886C127.729 212.192 127.352 212.439 126.981 212.713L126.393 212.147ZM108.534 220.174L109.105 220.758C109.747 222.158 111.004 222.675 112.373 223.059C112.663 223.139 112.891 223.439 113.147 223.638C112.693 223.691 112.1 223.465 111.992 224.211H108.523L108.331 223.786L108.11 223.998L108.538 224.204C109.118 224.781 109.705 225.351 110.274 225.938C110.408 226.076 110.48 226.274 110.581 226.442C110.295 226.568 109.976 226.845 109.731 226.791C108.837 226.594 107.88 225.934 107.123 226.128C106.485 226.294 106.067 225.849 105.671 226.007C104.651 226.414 106.23 226.95 105.679 227.472C105.444 227.695 105.268 227.98 105.066 228.237C104.997 228.093 104.928 227.948 104.86 227.802C104.789 227.878 104.719 227.954 104.647 228.026L105.079 228.221C104.772 228.709 104.761 229.631 103.738 228.991C103.368 228.76 102.783 228.871 102.411 228.642C100.192 227.272 97.987 225.876 95.818 224.429C95.0068 223.887 94.4525 223.134 94.6637 222.024C94.7296 221.689 94.5743 221.302 94.5195 220.939C94.1072 221.098 93.6077 221.156 93.2981 221.429C91.7627 222.785 91.756 223.74 93.2344 225.323C93.887 226.022 94.486 226.88 95.3006 227.304C100.04 229.771 104.858 231.965 110.468 230.558C111.18 230.38 111.422 230.181 111.418 229.491C111.406 227.71 111.25 225.906 111.977 224.2C112.43 224.148 113.036 224.396 113.129 223.624L114.737 223.381C114.366 223.157 114.014 222.88 113.619 222.704C112.12 222.034 110.602 221.405 109.099 220.759L108.516 220.191L107.938 219.617L107.364 219.041L106.788 218.467L106.211 217.891C106.064 217.658 105.96 217.379 105.764 217.198C102.55 214.218 101.964 210.119 101.053 206.173C100.867 205.365 100.903 204.505 100.835 203.671C99.7381 204.109 99.6811 205.22 99.2498 206.091C99.166 206.26 98.928 206.399 98.9291 206.551C98.9347 207.264 98.7168 208.259 99.0956 208.634C100.077 209.608 99.8633 210.709 99.8923 211.817C99.9225 212.957 99.5202 214.359 100.049 215.159C100.518 215.869 102.031 215.848 103.034 216.269C103.712 216.554 104.285 217.08 104.941 217.434C105.333 217.646 105.793 217.734 106.223 217.881L106.798 218.457L107.374 219.031L107.953 219.605L108.534 220.174ZM104.493 212.712L104.069 212.896C104.212 213.024 104.355 213.152 104.497 213.28C104.379 214.426 105.268 214.902 105.98 215.498C106.136 214.973 106.233 214.423 106.457 213.933C106.874 213.014 106.1 213.215 105.899 213.448C105.273 214.19 104.952 213.242 104.481 213.295C104.481 213.101 104.481 212.908 104.481 212.713L104.91 212.512L104.686 212.288L104.493 212.712ZM143.113 219.023C143.297 218.87 143.525 218.746 143.648 218.554C143.707 218.461 143.569 218.242 143.521 218.08C143.393 218.22 143.221 218.342 143.152 218.505C143.083 218.668 143.13 218.857 143.125 219.036L142.678 219.232L142.902 219.456L143.113 219.023ZM111.406 196.048L112.562 196.054C112.914 196.365 113.285 196.653 113.673 196.917C113.709 196.94 114.026 196.516 114.213 196.301C113.759 196.217 113.305 196.13 112.852 196.051C112.756 196.042 112.66 196.042 112.564 196.051C112.104 195.283 111.894 195.283 111.415 196.051L110.968 196.249L111.198 196.473C111.266 196.337 111.336 196.192 111.406 196.048ZM109.687 217.891L108.669 218.076C108.796 218.277 108.892 218.523 109.061 218.668C109.493 219.041 109.516 219.013 109.669 217.874L110.09 217.662L109.867 217.464C109.813 217.609 109.751 217.751 109.687 217.891ZM139.088 230.529C138.724 230.536 138.36 230.522 137.999 230.557C137.835 230.573 137.681 230.684 137.522 230.752C137.701 230.864 137.924 231.117 138.05 231.074C138.414 230.951 138.738 230.712 139.078 230.516C139.442 230.516 139.81 230.53 140.172 230.498C140.334 230.483 140.487 230.369 140.644 230.301C140.469 230.189 140.249 229.934 140.126 229.976C139.759 230.101 139.432 230.337 139.088 230.529ZM107.382 212.132C107.45 212.467 107.462 212.826 107.616 213.113C107.671 213.216 108.063 213.138 108.307 213.142C108.274 213.004 108.29 212.807 108.203 212.735C107.935 212.524 107.656 212.327 107.367 212.145C107.288 211.796 107.21 211.446 107.13 211.096C106.828 211.415 106.543 211.751 106.279 212.102C106.221 212.186 106.379 212.42 106.438 212.585L107.382 212.132ZM111.993 172.49C112.149 172.672 112.276 172.898 112.471 173.017C112.567 173.075 112.783 172.939 112.946 172.892C112.804 172.767 112.681 172.599 112.515 172.531C112.35 172.463 112.159 172.51 111.979 172.505C111.459 171.404 110.606 172.083 109.875 172.121C109.861 172.121 109.853 172.233 109.842 172.286C110.467 172.355 111.091 172.425 111.715 172.49C111.808 172.495 111.901 172.495 111.993 172.49V172.49ZM112.564 200.072C112.63 200.231 112.653 200.447 112.772 200.537C113.061 200.761 113.242 201.419 113.778 200.861C113.903 200.733 114.01 200.589 114.127 200.451C113.784 200.325 113.446 200.178 113.096 200.08C112.929 200.033 112.738 200.08 112.557 200.08C112.281 199.163 111.774 199.498 111.327 199.893C111.172 200.029 111.14 200.304 111.051 200.515C111.387 200.439 111.722 200.374 112.057 200.283C112.231 200.224 112.4 200.154 112.564 200.072V200.072ZM134.483 208.689C135.121 209.471 135.6 209.471 136.2 208.689C136.387 208.422 136.726 208.159 136.734 207.888C136.786 205.988 136.788 204.088 136.766 202.182C136.748 200.661 136.723 200.659 135.183 200.651C133.172 200.641 133.278 200.58 133.33 202.483C133.351 203.243 133.33 204.005 133.347 204.765C133.375 206.265 133.38 206.382 134.826 206.365C135.994 206.351 136.369 206.769 136.229 207.845C136.207 208.13 136.201 208.416 136.212 208.701H134.465C134.455 208.52 134.515 208.28 134.421 208.171C134.214 207.949 133.971 207.764 133.701 207.625C133.663 207.603 133.366 207.909 133.383 207.945C133.528 208.212 133.717 208.453 133.942 208.658C134.055 208.745 134.295 208.68 134.483 208.689ZM97.5669 229.957L97.3613 229.528L97.1378 229.739L97.5848 229.941C97.7826 230.356 97.9725 230.775 98.1848 231.183C98.2707 231.315 98.3704 231.437 98.4821 231.548C98.5614 231.383 98.6776 231.225 98.7112 231.052C98.8866 230.119 98.3726 229.882 97.5669 229.957ZM125.818 231.679C125.66 231.499 125.529 231.274 125.335 231.158C125.238 231.1 125.022 231.237 124.861 231.287C125.003 231.408 125.129 231.573 125.295 231.639C125.46 231.705 125.649 231.661 125.83 231.667C125.835 231.761 125.855 231.854 125.89 231.941C126.272 232.564 126.698 232.947 127.381 232.257C127.539 232.095 127.801 232.033 128.016 231.929C127.569 231.846 127.122 231.747 126.675 231.688C126.39 231.667 126.103 231.664 125.818 231.679V231.679ZM140.807 221.325C141.082 221.325 141.374 221.389 141.628 221.318C141.934 221.221 142.22 221.07 142.472 220.871C142.527 220.829 142.414 220.415 142.361 220.411C142.044 220.394 141.658 220.341 141.423 220.494C141.151 220.672 141.011 221.053 140.814 221.34L140.239 221.917C139.862 222.298 139.401 222.631 139.138 223.078C138.968 223.366 139.064 223.825 139.084 224.206C139.196 226.449 136.211 226.232 135.905 228.18C135.867 228.426 135.321 228.77 135.011 228.764C133.802 228.742 132.571 229.132 131.383 228.429C130.5 227.903 130.348 227.759 131.159 227.232C133.748 225.563 135.263 222.902 137.332 220.758L137.753 220.55L137.538 220.352C137.474 220.492 137.41 220.633 137.348 220.772C136.916 220.913 136.382 220.939 136.074 221.219C135.08 222.101 134.139 223.039 133.253 224.03C131.907 225.547 130.469 226.823 128.257 226.712C128.034 226.701 127.818 226.727 127.598 226.737C127.669 226.48 127.703 226.205 127.821 225.969C128.157 225.265 129.625 225.484 129.289 224.209L129.718 224.007L129.494 223.784C129.425 223.925 129.356 224.066 129.285 224.206H125.821C125.666 224.023 125.538 223.795 125.344 223.673C125.248 223.614 125.029 223.75 124.867 223.797C125.005 223.928 125.124 224.105 125.288 224.176C125.452 224.248 125.643 224.199 125.824 224.203C126.343 225.534 126.449 226.911 126.422 228.331C126.382 230.426 126.727 230.763 128.891 231.065C129.267 231.118 129.655 231.074 130.038 231.087C134.481 231.221 138.479 229.692 142.194 227.511C143.509 226.739 144.396 225.225 145.435 224.017C145.629 223.794 145.805 223.326 145.701 223.109C145.42 222.531 145.05 221.951 144.571 221.545C144.41 221.407 143.77 221.718 143.44 221.952C143.346 222.018 143.618 222.533 143.655 222.846C143.796 224.048 143.301 224.696 142.196 224.8C141.02 224.911 140.409 224.479 140.229 223.328C140.156 222.863 140.222 222.376 140.229 221.9L140.807 221.325ZM127.554 183.41C127.896 183.593 128.225 183.821 128.59 183.935C128.719 183.975 128.935 183.737 129.112 183.626C128.953 183.563 128.799 183.459 128.636 183.444C128.275 183.411 127.91 183.423 127.546 183.417C127.546 183.054 127.629 182.656 127.506 182.339C127.41 182.091 127.052 181.942 126.812 181.75C126.684 181.956 126.477 182.149 126.442 182.372C126.284 183.253 126.788 183.485 127.554 183.41ZM104.485 196.635L104.274 196.188C104.202 196.266 104.132 196.344 104.061 196.422L104.5 196.62C104.947 197.001 105.363 197.446 105.87 197.727C106.042 197.822 106.446 197.503 106.745 197.369C106.545 197.13 106.378 196.731 106.139 196.683C105.607 196.573 105.038 196.639 104.485 196.635ZM109.116 215.593C108.409 216.118 107.601 216.214 106.75 216.181C106.626 216.181 106.495 216.361 106.368 216.459C106.485 216.604 106.577 216.785 106.725 216.889C107.967 217.765 108.421 217.513 109.103 215.581C109.29 215.426 109.519 215.3 109.647 215.107C109.707 215.016 109.569 214.796 109.52 214.635C109.393 214.774 109.221 214.893 109.151 215.058C109.08 215.222 109.116 215.413 109.116 215.593ZM129.864 190.875L130.065 191.31L130.295 191.097L129.848 190.888C129.282 189.659 128.172 189.323 126.968 189.164C124.352 187.074 121.247 187.477 118.226 187.487C118.076 187.487 117.861 187.65 117.786 187.795C117.124 189.072 118.094 190.803 119.517 190.856C120.658 190.899 121.801 190.873 122.945 190.879L123.146 191.305L123.369 191.098L122.922 190.894C123.554 189.46 123.551 189.476 125.149 189.665C125.381 189.693 125.633 189.432 125.891 189.36C126.243 189.263 126.611 189.219 126.972 189.152C126.795 189.46 126.508 189.756 126.479 190.076C126.457 190.317 126.766 190.586 126.926 190.843C127.925 189.792 128.887 191.044 129.864 190.875ZM109.675 205.823L109.469 205.399L109.253 205.623L109.68 205.816C108.755 208.498 108.805 211.092 110.351 213.552C110.716 214.137 111.212 214.568 111.991 214.433C113.496 216.366 115.877 216.806 117.907 217.835C118.313 218.04 118.869 217.876 118.87 217.191C118.87 213.474 118.887 209.757 118.85 206.041C118.85 205.786 118.477 205.319 118.268 205.314C115.974 205.258 113.679 205.27 111.383 205.283C111.23 205.283 111.078 205.452 110.925 205.542C111.086 205.627 111.274 205.815 111.406 205.783C112.935 205.403 114.317 206.919 116.02 205.911C117.037 205.309 118.308 206.553 118.323 207.855C118.347 210.143 118.337 212.43 118.351 214.718C118.351 215.277 118.121 215.7 117.537 215.568C116.814 215.405 115.871 216.168 115.376 214.853C114.906 213.598 113.962 215.68 113.277 214.769C113.226 214.694 113.19 214.609 113.171 214.519C112.853 213.29 112.363 214.688 111.983 214.441C111.85 213.829 111.917 212.892 111.549 212.667C110.502 212.031 111.584 211.016 111.304 210.863C110.236 210.283 110.514 209.963 111.091 209.144C111.497 208.566 110.532 208.865 110.25 208.666C110.055 208.528 109.777 208.33 109.773 208.147C109.769 207.964 110.011 207.714 110.204 207.576C110.336 207.482 110.573 207.546 110.758 207.51C111.08 207.446 111.587 207.459 110.981 206.977C110.526 206.616 110.11 206.208 109.675 205.823ZM131.593 178.247C131.045 178.168 130.335 178.273 129.986 177.968C129.315 177.379 128.587 177.086 127.751 176.937C127.219 176.842 126.695 176.706 126.167 176.589C126.333 177.132 126.518 177.67 126.658 178.22C126.791 178.751 126.77 179.352 127.01 179.818C127.322 180.411 127.834 180.9 128.259 181.433C128.543 181.081 128.986 180.762 129.078 180.369C129.266 179.562 129.848 179.884 130.285 179.699C130.828 179.465 131.984 179.431 131.588 178.246L132.008 178.03L131.797 177.826C131.726 177.959 131.66 178.105 131.593 178.247ZM116.592 219.041C116.512 218.884 116.388 218.583 116.361 218.594C116.061 218.682 115.774 218.81 115.509 218.974C115.465 219.002 115.595 219.295 115.644 219.466C115.868 219.334 116.091 219.196 116.326 219.076C116.416 219.046 116.511 219.029 116.606 219.027C116.608 219.122 116.627 219.216 116.662 219.304C116.967 219.751 117.482 220.169 116.901 220.763C116.499 221.175 116.119 221.623 115.469 221.113C115.357 221.028 115.096 221.141 114.902 221.162C114.95 221.336 114.97 221.646 115.049 221.662C116.679 221.977 118.289 222.866 119.946 222.398C120.786 222.16 121.423 221.215 122.151 220.589C121.568 220.31 121.011 219.919 120.396 219.772C119.144 219.46 117.862 219.277 116.592 219.041ZM103.345 210.983C103.506 211.289 103.047 212.072 103.776 211.871C104.428 211.692 104.966 211.098 105.555 210.688C104.757 209.878 104.325 211.313 103.61 211.01C103.519 210.99 103.425 210.985 103.332 210.997C103.356 210.55 103.199 210.056 103.85 209.843C104.61 209.596 105.736 209.442 105.98 208.915C106.265 208.301 105.787 207.322 105.596 206.512C105.54 206.271 105.372 205.904 105.197 205.866C104.375 205.699 103.543 205.579 102.707 205.508C102.542 205.491 102.204 205.672 102.203 205.766C102.179 207.59 101.999 209.457 103.345 210.983ZM149.345 202.796L149.001 202.892C149.119 203.354 149.158 203.857 149.368 204.274C150.163 205.85 151.002 207.403 151.846 208.953C152.259 209.713 152.938 209.862 153.781 209.873C154.795 209.886 154.695 208.994 154.981 208.516C155.205 208.142 155.101 207.415 154.886 206.967C154.286 205.714 153.657 204.448 152.854 203.323C150.252 199.691 149.543 195.704 150.337 191.381C150.362 191.245 150.353 190.988 150.307 190.975C150.138 190.928 149.813 190.903 149.785 190.975C149.423 191.822 149.126 192.111 148.312 191.259C147.656 190.573 147.272 190.827 147.175 191.862C147.13 192.337 147.309 192.903 147.109 193.281C146.039 195.309 146.86 196.986 147.825 198.764C148.502 200.012 148.848 201.443 149.345 202.796ZM131.377 187.915C131.41 189.316 131.402 189.329 131.964 189.682C132.196 189.828 132.48 189.889 132.724 190.017C133.2 190.275 133.665 190.556 134.134 190.826C134.432 190.259 134.851 189.721 135.002 189.117C135.255 188.111 134.702 187.389 134.003 186.65C132.829 185.405 132.896 183.587 134.325 182.792C135.574 182.097 136.189 181.012 136.98 180.008C137.168 179.77 137.141 179.364 137.213 179.036C136.894 179.155 136.519 179.442 136.271 179.357C135.824 179.207 135.478 180.496 135.004 179.357C134.768 178.786 134.18 178.36 133.749 177.867C133.454 178.442 133.14 179.008 132.869 179.595C132.597 180.181 132.385 180.791 132.118 181.383C130.806 184.267 130.804 184.265 131.484 187.686C131.497 187.753 131.415 187.838 131.377 187.915ZM100.166 216.161C99.9538 216.205 99.7337 216.19 99.6074 216.29C99.0699 216.707 99.2051 218.731 99.8499 218.998C102.061 219.919 103.974 221.153 105.111 223.356C105.235 223.597 105.49 223.779 105.704 223.967C106.188 224.388 106.683 224.795 107.174 225.208C107.733 224.202 106.552 224.004 106.317 223.365C106.189 223.018 105.995 222.694 105.875 222.347C105.838 222.235 105.929 222.066 106.004 221.951C106.035 221.905 106.198 221.902 106.273 221.937C106.608 222.095 106.912 222.327 107.258 222.435C107.945 222.65 108.651 222.802 109.349 222.978C109.32 222.133 108.413 222.208 108.002 221.717C107.091 220.626 106.031 219.656 104.99 218.68C103.614 217.39 101.964 216.586 100.166 216.161ZM147.177 222.853C147.177 223.712 147.151 224.574 147.19 225.432C147.205 225.752 147.371 226.065 147.469 226.38C147.734 226.109 148.125 225.883 148.239 225.56C148.574 224.605 148.734 223.587 149.086 222.64C149.992 220.208 149.533 218.199 147.355 216.694C147.037 216.47 146.572 216.47 146.172 216.369C146.172 216.816 145.979 217.409 146.196 217.68C147.451 219.255 147.144 221.077 147.177 222.853ZM120.611 229.446C120.611 228.875 120.602 228.304 120.611 227.734C120.625 227.029 120.618 226.423 119.598 226.458C119.184 226.471 118.773 226.035 118.335 225.965C117.783 225.878 117.162 225.861 117.173 226.741C117.191 228.168 117.118 229.598 117.195 231.021C117.249 232.035 117.732 231.374 118.013 231.123C118.354 230.821 118.592 230.357 119.095 230.966C119.455 231.402 119.92 231.748 120.338 232.14C120.428 231.528 120.531 230.911 120.602 230.302C120.622 230.016 120.625 229.728 120.611 229.442V229.446ZM101.86 224.194C102.811 224.194 103.099 224.204 103.386 224.194C104.496 224.149 104.417 224.183 103.944 223.17C103.021 221.194 101.106 220.566 99.3727 219.686C99.2677 219.634 98.8363 219.91 98.7894 220.098C98.3636 221.761 99.0375 223.282 100.577 223.967C100.986 224.126 101.422 224.201 101.86 224.188V224.194ZM90.4095 227.386C90.2843 225.141 90.186 223.302 90.0742 221.463C90.0686 221.369 90.0955 221.2 90.0686 221.191C89.8776 221.133 89.5982 221.004 89.4898 221.085C87.1297 222.852 86.8906 224.494 88.2952 227.002C88.8539 227.998 89.5635 227.508 90.2206 227.592C90.3547 227.61 90.5357 227.225 90.4095 227.386ZM88.778 178.31C88.6796 177.659 88.645 177.431 88.6103 177.203C88.9456 177.285 89.3211 177.292 89.6015 177.46C90.6955 178.117 90.6073 177.02 90.8565 176.586C91.128 176.108 90.5134 174.782 90.1413 174.883C88.8327 175.244 87.4761 175.566 86.2961 176.196C85.7217 176.503 86.0301 177.346 86.5441 177.898C87.3956 178.812 88.1823 179.128 88.6986 178.625C88.8484 178.478 88.8104 178.14 88.778 178.31ZM110.703 173.525C108.58 173.475 107.826 173.971 107.96 175.805C108.005 176.429 108.353 176.684 108.876 176.385C110.756 175.314 112.8 175.286 114.869 175.353C115.058 175.373 115.249 175.369 115.437 175.34C115.609 175.28 115.773 175.199 115.926 175.1C115.779 175.01 115.621 174.827 115.487 174.843C114.386 174.972 113.521 174.389 112.581 173.984C111.998 173.732 111.332 173.671 110.703 173.525ZM128.255 173.659C127.86 173.659 127.549 173.583 127.295 173.671C126.087 174.091 124.895 174.555 123.697 175.004C124.651 175.743 125.781 175.107 126.776 175.39C127.83 175.689 128.832 176.172 129.883 176.476C130.17 176.56 130.695 176.424 130.855 176.204C131.035 175.957 131.079 175.41 130.916 175.15C130.3 174.146 129.482 173.387 128.255 173.659V173.659ZM95.4347 172.61C93.4903 172.252 93.097 174.387 91.5728 174.278C91.5024 174.278 91.3493 174.418 91.3616 174.445C91.4275 174.615 91.5728 174.762 91.6108 174.933C91.7694 175.65 92.3326 175.915 92.9126 176.215C93.4546 176.498 93.4311 176.203 93.5641 175.81C93.9306 174.72 93.9496 174.75 94.7307 175.443C94.9542 175.645 95.4102 175.902 95.5823 175.81C96.2002 175.474 96.6416 174.88 96.3645 174.159C96.1253 173.526 95.6627 172.976 95.4347 172.61ZM120.046 216.304C120.008 217.868 120.011 217.884 121.73 217.316C122.52 217.055 123.32 216.795 124.068 216.434C124.644 216.156 125.145 215.72 125.679 215.355C125.092 215.243 124.505 215.15 123.92 215.036C123.375 214.925 122.84 214.765 122.291 214.701C121.168 214.558 120.067 215.367 120.046 216.298V216.304ZM120.634 200.659C120.634 201.037 120.576 201.426 120.647 201.789C120.759 202.361 120.192 203.315 121.152 203.399C121.625 203.44 122.218 202.764 122.647 202.311C122.82 202.128 122.844 201.545 122.685 201.358C122.042 200.608 122.54 200.161 123.021 199.698C123.483 199.251 123.511 199.08 122.797 198.877C122.112 198.682 121.501 198.226 120.857 197.887C120.783 198.622 120.705 199.357 120.634 200.094C120.619 200.278 120.634 200.468 120.634 200.657V200.659ZM113.027 231.421C112.91 231.374 112.475 231.079 112.363 231.172C111.539 231.858 110.575 231.619 109.652 231.702C109.297 231.735 108.951 231.869 108.6 231.957C108.947 232.052 109.308 232.114 109.637 232.254C109.805 232.327 110.048 232.562 110.028 232.683C109.926 233.215 109.785 233.738 109.607 234.248C109.528 234.487 109.37 234.695 109.247 234.918C109.508 234.941 109.781 235.021 110.029 234.973C110.656 234.85 111.276 234.693 111.886 234.502C112.122 234.428 112.457 234.262 112.506 234.076C112.711 233.299 112.827 232.491 113.027 231.421ZM96.436 229.968C96.4114 229.541 96.4773 229.261 96.3779 229.178C95.5957 228.525 94.7877 227.893 93.9507 227.307C93.8535 227.239 93.4412 227.434 93.325 227.606C92.5427 228.773 93.5484 231.263 94.8961 231.524C95.028 231.549 95.2381 231.431 95.3431 231.316C95.7555 230.834 96.1466 230.328 96.4349 229.969L96.436 229.968ZM118.879 197.092H118.863C118.863 195.577 118.879 194.061 118.837 192.548C118.837 192.39 118.471 192.117 118.278 192.119C118.04 192.119 117.755 192.315 117.588 192.509C117.476 192.639 117.46 193.076 117.517 193.099C119.106 193.762 118.367 194.999 118.056 195.91C117.843 196.527 117.983 196.848 118.105 197.39C118.296 198.236 118.077 199.178 118.023 200.072C118.004 200.408 117.872 200.758 117.956 201.057C118.022 201.289 118.342 201.451 118.55 201.646C118.661 201.452 118.858 201.261 118.863 201.067C118.893 199.749 118.879 198.417 118.879 197.092ZM112.029 220.199C112.226 220.074 112.495 219.97 112.667 219.779C113.247 219.132 113.569 217.469 113.217 217.117C112.547 216.447 111.801 216.791 110.882 218.277C110.666 218.627 110.376 219.304 110.503 219.421C110.887 219.773 111.463 219.928 112.029 220.199ZM133.82 194.334C133.273 193.858 132.702 193.369 132.144 192.867C131.518 192.308 130.978 192.727 130.787 193.202C130.564 193.761 130.539 194.476 130.644 195.086C130.79 195.93 131.538 195.436 131.968 195.421C132.487 195.398 132.997 195.086 133.498 194.872C133.599 194.818 133.642 194.63 133.819 194.331L133.82 194.334ZM104.459 235.096C105.198 235.168 105.747 235.051 105.67 234.075C105.627 233.529 105.586 232.87 105.844 232.442C106.291 231.702 105.903 231.724 105.387 231.697C104.493 231.65 104.415 231.719 104.066 233.038C103.971 233.392 104.074 233.862 103.876 234.115C103.174 235.006 103.576 235.161 104.459 235.096ZM134.483 233.747C134.338 233.077 134.083 232.609 134.205 232.288C134.429 231.703 134.138 231.661 133.758 231.71C133.423 231.755 132.89 231.854 132.812 232.066C132.658 232.478 132.733 232.986 132.765 233.451C132.822 234.246 132.696 234.716 131.804 234.112C131.766 234.359 131.729 234.607 131.692 234.854C132.397 234.869 133.154 235.042 133.789 234.839C134.155 234.726 134.331 233.999 134.483 233.747ZM113.139 209.49C113.131 211.582 113.768 212.671 115.242 213.225C115.392 213.282 115.613 213.214 115.772 213.14C115.814 213.12 115.789 212.838 115.72 212.721C115.103 211.678 114.475 210.644 113.836 209.618C113.682 209.367 113.493 209.138 113.32 208.899L113.139 209.49ZM144.826 215.264C144.958 214.089 144.368 213.348 143.448 213.288C142.896 213.251 142.608 213.511 142.554 214.097C142.461 215.065 142.824 215.765 143.783 215.877C144.129 215.919 144.554 215.427 144.816 215.264H144.826ZM128.683 195.766C128.683 195.296 128.697 194.826 128.683 194.358C128.644 193.283 127.95 192.85 126.809 193.209C126.669 193.253 126.474 193.481 126.494 193.597C126.531 193.838 126.717 194.267 126.797 194.261C128.305 194.093 128.206 195.058 128.125 196.049C128.079 196.608 126.974 197.404 127.931 197.633C129.184 197.932 128.48 196.627 128.681 196.048C128.696 195.955 128.697 195.859 128.683 195.766ZM124.595 203.493C125.059 203.493 125.56 203.645 125.781 203.462C126.236 203.085 126.54 202.53 126.906 202.048C126.144 201.784 125.389 201.329 124.62 201.304C123.663 201.274 124.921 202.067 124.34 202.46C123.631 202.94 123.148 203.622 124.595 203.493ZM111.902 192.053C111.524 192.053 111.145 192.053 110.768 192.053C109.072 192.081 109.072 192.082 109.119 193.756C109.125 193.945 109.07 194.164 109.148 194.315C109.26 194.523 109.451 194.812 109.636 194.832C110.283 194.904 110.02 194.601 109.915 194.204C109.512 192.691 109.613 192.562 111.085 192.61C111.617 192.628 112.148 192.945 112.667 192.923C113.154 192.898 113.627 192.595 114.107 192.415C113.749 192.295 113.4 192.127 113.034 192.067C112.667 192.006 112.28 192.053 111.902 192.053ZM127.959 218.143C128.652 217.935 129.147 218.849 129.267 217.876C129.308 217.541 129.218 217.081 129.001 216.861C128.699 216.554 128.191 216.21 127.822 216.26C127.342 216.326 126.746 216.661 126.503 217.063C126.19 217.581 126.66 217.846 127.203 217.926C127.462 217.972 127.715 218.044 127.959 218.143V218.143ZM107.929 209.193C107.929 208.033 108.101 207.379 107.878 206.917C107.676 206.5 106.993 205.999 106.602 206.059C105.866 206.17 106.425 206.682 106.555 207.049C106.738 207.567 106.85 208.111 107.041 208.628C107.244 209.176 107.503 209.705 107.738 210.242C107.836 209.702 107.935 209.16 107.929 209.193ZM119.07 171.934C118.847 171.934 118.645 171.894 118.466 171.943C118.096 172.044 117.739 172.191 117.377 172.32C117.756 172.57 118.132 172.826 118.518 173.063C118.609 173.099 118.709 173.104 118.802 173.078C119.584 172.93 120.976 173.492 121.037 172.594C121.122 171.234 119.697 172.292 119.07 171.934V171.934ZM120.635 195.009H120.643C120.643 195.291 120.643 195.573 120.643 195.855C120.643 195.949 120.615 196.085 120.664 196.13C120.843 196.291 121.058 196.54 121.244 196.528C121.429 196.515 121.707 196.223 121.714 196.045C121.723 195.805 121.476 195.567 121.399 195.31C121.033 194.08 121.124 193.942 122.405 193.755C122.589 193.728 122.79 193.787 122.964 193.741C123.137 193.695 123.278 193.567 123.433 193.475C123.289 193.375 123.151 193.202 123.001 193.189C122.531 193.15 122.055 193.196 121.586 193.162C120.837 193.107 120.58 193.469 120.625 194.162C120.65 194.442 120.634 194.726 120.634 195.009H120.635ZM124.58 209.049C124.436 208.926 124.315 208.735 124.204 208.742C123.356 208.79 122.556 208.029 121.645 208.677C121.268 208.945 120.685 208.925 120.192 209.036C120.639 209.113 121.092 209.173 121.533 209.272C122.063 209.392 122.593 209.678 123.106 209.645C123.601 209.613 124.073 209.268 124.578 209.049H124.58ZM137.936 204.922C137.92 205.108 137.92 205.295 137.936 205.481C137.984 205.742 138.074 205.997 138.147 206.255C138.556 206.074 138.999 205.942 139.358 205.69C139.519 205.578 139.644 205.123 139.55 204.993C139.207 204.55 138.82 204.143 138.394 203.779C138.361 203.749 137.997 203.945 137.958 204.085C137.883 204.345 137.936 204.642 137.936 204.922ZM121.794 225.828C121.794 226.492 121.768 226.771 121.803 227.042C121.825 227.21 121.94 227.365 122.013 227.525C122.222 227.363 122.562 227.236 122.616 227.034C122.769 226.431 122.856 225.814 122.873 225.193C122.873 225.081 122.484 224.899 122.252 224.847C122.14 224.821 121.877 224.999 121.853 225.119C121.808 225.353 121.788 225.59 121.794 225.828V225.828ZM121.853 205.266L120.241 205.465C120.876 206.227 121.739 205.605 122.459 205.832C122.631 205.885 122.807 206.119 122.933 206.087C123.492 205.942 124.041 205.731 124.592 205.545C124.157 205.452 123.727 205.338 123.289 205.274C123.011 205.234 122.722 205.267 121.855 205.267L121.853 205.266ZM128.672 200.42H128.649C128.649 200.041 128.75 199.623 128.62 199.295C128.491 198.966 128.133 198.736 127.875 198.459C127.773 198.591 127.625 198.707 127.578 198.854C127.457 199.229 127.382 199.617 127.289 200.001C128.065 200.051 128.142 200.587 128.159 201.198C128.164 201.364 128.31 201.527 128.39 201.692C128.484 201.553 128.636 201.424 128.659 201.276C128.685 200.991 128.689 200.705 128.672 200.42V200.42ZM128.661 187.58C128.661 187.475 128.701 187.349 128.654 187.288C128.155 186.628 126.258 186.04 125.599 186.335C125.516 186.386 125.441 186.448 125.375 186.52C125.487 186.631 125.574 186.791 125.71 186.844C126.574 187.179 127.444 187.505 128.321 187.805C128.404 187.831 128.56 187.654 128.661 187.58ZM109.763 196.844C109.883 196.699 110.007 196.601 109.986 196.559C109.875 196.285 109.743 196.021 109.615 195.755C109.449 195.925 109.151 196.085 109.137 196.266C109.094 197.007 109.091 197.749 109.13 198.49C109.13 198.584 109.377 198.766 109.452 198.741C109.617 198.686 109.864 198.523 109.865 198.406C109.872 197.864 109.801 197.322 109.763 196.844ZM116.015 226.217H116.026C116.042 225.93 116.039 225.643 116.015 225.357C115.992 225.183 115.867 225.022 115.786 224.857C115.622 224.951 115.466 225.061 115.322 225.185C114.691 225.841 114.665 226.515 115.31 227.18C115.451 227.308 115.6 227.427 115.757 227.535C115.842 227.382 115.981 227.237 116.003 227.075C116.027 226.791 116.031 226.505 116.015 226.22V226.217ZM110.723 182.927L111.133 183.857C111.403 183.591 111.843 183.357 111.901 183.052C111.977 182.65 111.762 182.189 111.634 181.765C111.626 181.736 111.187 181.745 111.129 181.838C110.954 182.154 110.867 182.516 110.723 182.927ZM141.753 224.319C142.063 223.743 142.312 223.363 142.443 222.946C142.462 222.883 141.885 222.506 141.609 222.527C141.347 222.546 140.87 222.997 140.909 223.096C141.06 223.483 141.377 223.809 141.753 224.319ZM111.229 187.536C111.7 187.362 112.22 187.193 112.716 186.971C112.87 186.902 112.956 186.684 113.072 186.534C112.906 186.455 112.716 186.278 112.58 186.311C112.049 186.455 111.527 186.63 111.016 186.834C110.793 186.936 110.577 187.055 110.372 187.189L111.229 187.536ZM116.034 187.173C115.887 187.571 115.699 187.81 115.754 187.98C115.917 188.525 116.168 189.044 116.385 189.573C116.593 188.984 116.839 188.404 116.973 187.798C116.996 187.699 116.526 187.492 116.036 187.173H116.034ZM122.87 186.256L123.892 186.082C123.351 185.959 122.815 185.804 122.267 185.722C121.897 185.673 121.521 185.673 121.15 185.722C120.994 185.738 120.853 185.898 120.703 185.993C120.859 186.079 121.01 186.223 121.175 186.24C121.551 186.282 121.926 186.256 122.872 186.256H122.87ZM116.786 185.706V185.726C116.32 185.726 115.853 185.704 115.391 185.74C115.235 185.752 115.092 185.914 114.944 186.008C115.096 186.098 115.246 186.266 115.401 186.269C116.239 186.284 117.077 186.261 117.915 186.237C117.986 186.237 118.125 186.101 118.114 186.068C118.069 185.939 117.988 185.733 117.903 185.723C117.532 185.698 117.16 185.693 116.789 185.706H116.786ZM107.775 234.249C108.158 234.454 106.822 234.92 107.918 235.038C108.089 235.057 108.378 234.636 108.489 234.367C108.586 234.133 108.553 233.817 108.497 233.554C108.452 233.346 108.286 233.165 108.173 232.973C107.972 233.156 107.687 233.308 107.594 233.532C107.524 233.706 107.698 233.979 107.775 234.249ZM118.159 170.967C118.431 170.508 118.693 170.144 118.856 169.737C118.898 169.633 118.632 169.402 118.504 169.235L117.324 170.432L118.159 170.967ZM108.035 199.686L107.7 199.022L106.896 200.941C107.039 200.941 107.27 201.006 107.309 200.941C107.594 200.501 107.836 200.038 108.035 199.68V199.686ZM94.6615 218.773C94.6615 218.236 94.6972 218.039 94.6514 217.862C94.6056 217.686 94.4782 217.567 94.3854 217.415C94.324 217.487 94.2301 217.548 94.2055 217.63C94.029 218.225 93.8643 218.821 93.7116 219.417C93.7038 219.45 93.8524 219.57 93.9262 219.568C94.1027 219.562 94.3888 219.561 94.4357 219.465C94.5371 219.244 94.6129 219.012 94.6615 218.773ZM133.438 199.609L134.388 198.603C134.052 198.525 133.693 198.335 133.395 198.406C133.154 198.463 132.99 198.836 132.791 199.07L133.438 199.609ZM116.468 204.096L117.006 203.731C116.952 203.654 116.914 203.531 116.841 203.507C116.562 203.414 116.27 203.284 115.987 203.296C115.728 203.306 115.472 203.473 115.222 203.584C115.14 203.634 115.064 203.695 114.998 203.764C115.11 203.876 115.202 204.061 115.326 204.082C115.605 204.13 115.896 204.096 116.468 204.096ZM153.887 199.155C154.188 198.386 154.371 197.931 154.524 197.467C154.524 197.45 154.128 197.253 154.109 197.28C153.867 197.58 153.666 197.911 153.513 198.264C153.462 198.408 153.658 198.632 153.887 199.155V199.155ZM143.26 230.433L142.64 229.623C142.446 229.819 142.051 230.095 142.093 230.199C142.281 230.675 142.592 231.103 142.859 231.549L143.26 230.433ZM144.937 229.501L144.427 228.83L143.756 229.389C143.922 229.55 144.072 229.812 144.259 229.844C144.447 229.876 144.652 229.661 144.938 229.501H144.937ZM124.057 212.428C123.765 212.309 123.55 212.205 123.328 212.134C123.032 212.036 122.729 211.96 122.434 211.874C122.422 211.963 122.374 212.113 122.404 212.131C122.741 212.349 123.097 212.535 123.468 212.69C123.584 212.729 123.786 212.552 124.057 212.428ZM137.354 233.649C137.256 233.314 137.204 233.145 137.151 232.972C136.836 233.26 136.537 233.567 136.257 233.89C136.195 233.97 136.341 234.214 136.391 234.382L137.354 233.649ZM111.564 204.107C111.93 204.107 112.123 204.141 112.299 204.1C112.549 204.026 112.794 203.936 113.033 203.831C112.818 203.713 112.594 203.612 112.362 203.53C112.181 203.481 111.991 203.483 111.811 203.535C111.532 203.637 111.258 203.755 110.992 203.888L111.564 204.107ZM126.554 198.102L126.062 197.346C125.849 197.747 125.622 198.142 125.44 198.557C125.413 198.617 125.603 198.77 125.694 198.881L126.554 198.102ZM109.71 201.052C109.822 200.73 110.035 200.414 109.984 200.148C109.943 199.93 109.585 199.773 109.367 199.59C109.307 200.028 109.24 200.463 109.204 200.903C109.202 200.927 109.451 200.979 109.71 201.051V201.052ZM117.19 173.478C116.848 173.11 116.637 172.718 116.462 172.733C116.176 172.76 115.914 173.05 115.641 173.228C115.789 173.371 115.93 173.621 116.088 173.633C116.404 173.657 116.73 173.55 117.19 173.476V173.478ZM103.325 232.742H103.332C103.345 232.652 103.345 232.56 103.332 232.47C103.254 232.228 103.156 231.991 103.067 231.751C102.973 231.988 102.844 232.217 102.797 232.463C102.744 232.732 102.744 233.008 102.797 233.277C102.838 233.458 103.02 233.605 103.14 233.769C103.214 233.614 103.273 233.453 103.317 233.287C103.336 233.106 103.338 232.923 103.325 232.742ZM133.273 211.194C133.543 211.321 133.818 211.433 134.099 211.53C134.129 211.54 134.323 211.224 134.297 211.194C134.059 210.952 133.791 210.741 133.532 210.524C133.477 210.684 133.412 210.842 133.276 211.194H133.273ZM135.701 231.479L136.521 232.172C136.59 232.017 136.76 231.783 136.712 231.725C136.517 231.506 136.291 231.318 136.041 231.166C136.021 231.15 135.856 231.337 135.703 231.479H135.701ZM124.09 184.128C124.355 184.338 124.474 184.515 124.593 184.514C124.933 184.493 125.272 184.451 125.606 184.386C125.478 184.26 125.356 184.037 125.219 184.027C124.889 184.002 124.553 184.078 124.09 184.128ZM105.363 200.47C104.749 200.24 104.529 200.1 104.304 200.089C104.062 200.078 103.812 200.189 103.567 200.247C103.701 200.375 103.827 200.604 103.969 200.614C104.296 200.643 104.63 200.556 105.363 200.47ZM120.99 212.762L121.719 212.438C121.384 212.348 121.059 212.215 120.724 212.19C120.568 212.18 120.398 212.398 120.235 212.513L120.99 212.762ZM114.324 184.4C114.057 184.2 113.93 184.023 113.806 184.027C113.465 184.054 113.126 184.103 112.791 184.174C112.927 184.298 113.056 184.52 113.198 184.528C113.529 184.545 113.865 184.46 114.324 184.4ZM119.891 183.993C119.83 183.761 119.798 183.637 119.765 183.514C119.487 183.612 119.216 183.733 118.956 183.875C118.909 183.904 119.017 184.18 119.053 184.341L119.891 183.993ZM134.545 213.109C134.281 212.979 134.008 212.867 133.729 212.773C133.672 212.758 133.469 213.037 133.478 213.047C133.713 213.298 133.967 213.53 134.218 213.767L134.545 213.109ZM116.634 199.769C116.523 199.415 116.47 199.257 116.42 199.099C116.157 199.278 115.903 199.471 115.66 199.676C115.625 199.707 115.772 200.011 115.788 200.011C116.073 199.949 116.352 199.861 116.634 199.769ZM98.2452 232.321C97.5948 232.321 97.178 232.312 96.7634 232.336C96.7221 232.336 96.693 232.547 96.6573 232.66C96.9983 232.731 97.3436 232.78 97.6909 232.808C97.8015 232.81 97.9178 232.619 98.2452 232.321ZM118.906 203.796C118.808 203.434 118.764 203.269 118.72 203.106C118.46 203.286 118.21 203.48 117.973 203.688C117.931 203.729 118.043 203.932 118.085 204.059L118.906 203.796ZM101.374 233.902L100.638 234.192C100.899 234.304 101.155 234.486 101.42 234.506C101.628 234.521 101.851 234.333 102.067 234.235L101.374 233.902ZM116.58 195.572C116.528 195.418 116.476 195.264 116.423 195.11C116.297 195.256 116.11 195.386 116.067 195.557C116.038 195.668 116.217 195.829 116.304 195.969C116.395 195.838 116.491 195.706 116.58 195.574V195.572ZM130.965 181.213C130.906 181.044 130.846 180.875 130.786 180.705C130.682 180.803 130.499 180.894 130.491 180.998C130.48 181.166 130.584 181.342 130.638 181.514C130.747 181.423 130.856 181.317 130.965 181.215V181.213ZM123.436 194.999C123.121 194.999 122.892 194.992 122.665 195.015C122.651 195.015 122.616 195.324 122.665 195.35C122.812 195.429 122.981 195.458 123.146 195.435C123.237 195.409 123.292 195.222 123.436 194.999ZM106.529 176.033C106.442 176.17 106.3 176.3 106.282 176.446C106.264 176.591 106.376 176.746 106.431 176.893C106.542 176.741 106.706 176.6 106.74 176.432C106.769 176.322 106.606 176.171 106.529 176.033ZM100.568 233.089C100.703 233.182 100.828 233.33 100.971 233.351C101.114 233.371 101.271 233.257 101.418 233.202C101.275 233.09 101.144 232.913 100.984 232.879C100.869 232.853 100.71 233.012 100.568 233.089ZM99.8409 232.338L99.6968 231.869C99.575 232.017 99.3917 232.152 99.3537 232.316C99.3269 232.434 99.4979 232.597 99.5772 232.74L99.8409 232.338ZM128.586 203.419C128.586 203.1 128.599 202.869 128.578 202.642C128.571 202.571 128.472 202.507 128.414 202.44C128.314 202.663 128.231 202.892 128.167 203.127C128.157 203.176 128.367 203.27 128.586 203.419ZM99.3995 230.797C99.537 230.889 99.6677 231.036 99.8152 231.055C99.9627 231.074 100.119 230.96 100.273 230.906C100.119 230.794 99.9784 230.623 99.8085 230.585C99.6934 230.56 99.537 230.72 99.3995 230.798V230.797ZM144.757 227.75C144.436 227.75 144.198 227.735 143.968 227.758C143.896 227.764 143.832 227.869 143.765 227.929C143.991 228.035 144.224 228.123 144.464 228.192C144.51 228.204 144.61 227.978 144.757 227.751V227.75ZM114.351 173.618L114.79 173.371C114.647 173.282 114.49 173.107 114.365 173.126C114.192 173.152 114.042 173.328 113.882 173.44L114.351 173.618ZM125.92 208.19C125.92 208.525 125.907 208.754 125.928 208.981C125.936 209.05 126.04 209.11 126.1 209.175C126.204 208.959 126.289 208.735 126.354 208.505C126.365 208.451 126.152 208.354 125.92 208.19ZM135.339 211.095C135.247 211.228 135.096 211.355 135.079 211.497C135.063 211.639 135.181 211.798 135.24 211.944C135.352 211.791 135.521 211.65 135.561 211.481C135.587 211.378 135.42 211.226 135.339 211.095ZM132.228 212.111L132.674 211.862C132.53 211.774 132.372 211.599 132.244 211.619C132.072 211.647 131.925 211.825 131.767 211.938L132.228 212.111ZM121.52 218.912L121.704 218.758L121.536 218.585L121.351 218.827L121.52 218.912ZM137.276 187.145L137.075 186.962C137.075 187.086 137.063 187.211 137.056 187.335L137.276 187.145ZM123.408 220.446C123.354 220.388 123.297 220.288 123.243 220.285C123.189 220.282 123.121 220.376 123.061 220.427L123.321 220.597L123.408 220.446ZM120.474 213.494C120.416 213.465 120.345 213.399 120.304 213.415C120.232 213.456 120.168 213.509 120.114 213.572L120.464 213.676L120.474 213.494ZM124.549 211.259C124.497 211.202 124.447 211.103 124.39 211.099C124.333 211.096 124.278 211.189 124.213 211.239L124.462 211.409L124.549 211.259ZM130.754 210.889L130.939 210.722C130.881 210.661 130.827 210.601 130.766 210.542L130.585 210.806L130.754 210.889ZM120.507 210.686L120.349 210.505L120.17 210.666C120.25 210.728 120.332 210.79 120.414 210.851L120.507 210.686ZM135.954 210.323C136.006 210.265 136.103 210.203 136.103 210.141C136.103 210.078 136.008 210.016 135.955 209.953L135.777 210.218L135.954 210.323ZM127.189 222.067C127.16 222.12 127.096 222.186 127.109 222.222C127.149 222.289 127.199 222.349 127.258 222.399L127.364 222.081L127.189 222.067ZM143.569 217.001L143.422 216.819L143.254 216.985L143.49 217.168L143.569 217.001ZM124.366 208.019L124.59 207.841C124.521 207.775 124.457 207.661 124.383 207.655C124.309 207.65 124.241 207.767 124.168 207.823C124.235 207.887 124.301 207.952 124.366 208.019ZM120.246 207.134C120.22 207.187 120.162 207.254 120.177 207.291C120.217 207.36 120.269 207.421 120.33 207.473L120.424 207.138L120.246 207.134ZM116.242 190.448C116.212 190.506 116.146 190.574 116.159 190.617C116.182 190.689 116.255 190.745 116.308 190.807C116.343 190.696 116.378 190.577 116.413 190.462L116.242 190.448ZM113.56 227.298C113.508 227.268 113.448 227.201 113.406 227.215C113.338 227.253 113.278 227.303 113.228 227.362L113.542 227.474L113.56 227.298ZM113.448 228.686C113.506 228.632 113.606 228.575 113.609 228.522C113.613 228.469 113.519 228.4 113.469 228.34L113.298 228.597L113.448 228.686ZM124.534 228.481L124.387 228.296L124.225 228.468L124.449 228.654L124.534 228.481ZM141.844 229.072L141.688 228.893L141.513 229.053L141.757 229.232L141.844 229.072ZM126.148 205.697L126.34 205.542L126.16 205.377L125.971 205.617L126.148 205.697ZM91.4364 229.541C91.4141 229.588 91.356 229.653 91.3694 229.693C91.4053 229.761 91.4526 229.821 91.5091 229.873C91.5404 229.761 91.5716 229.65 91.604 229.538L91.4364 229.541ZM107.69 214.902L107.876 214.735C107.819 214.674 107.764 214.614 107.703 214.552L107.521 214.816L107.69 214.902ZM97.1948 231.25C97.1702 231.299 97.111 231.361 97.1244 231.399C97.1618 231.467 97.2105 231.527 97.2685 231.578C97.2998 231.467 97.3311 231.355 97.3635 231.25H97.1948ZM101.802 231.271C101.778 231.318 101.71 231.383 101.726 231.423C101.77 231.493 101.825 231.555 101.889 231.607C101.925 231.496 101.961 231.384 101.995 231.272L101.802 231.271ZM139.978 231.558L140.158 231.399L139.993 231.225L139.816 231.477L139.978 231.558ZM130.176 187.904L130.358 187.74L130.19 187.56C130.132 187.647 130.073 187.733 130.014 187.82L130.176 187.904ZM106.658 175.005C106.603 174.974 106.533 174.905 106.498 174.919C106.428 174.961 106.367 175.014 106.316 175.077L106.644 175.188L106.658 175.005ZM135.951 199.405C136.003 199.347 136.102 199.286 136.103 199.223C136.104 199.16 136.007 199.097 135.952 199.033L135.773 199.303C135.824 199.334 135.882 199.365 135.951 199.405ZM141.858 231.933L141.697 231.75L141.523 231.915L141.777 232.092L141.858 231.933ZM131.912 232.715C131.974 232.658 132.08 232.603 132.083 232.545C132.087 232.487 131.985 232.421 131.929 232.359L131.746 232.622L131.912 232.715ZM138.935 232.445C138.889 232.421 138.823 232.359 138.788 232.374C138.721 232.414 138.66 232.464 138.609 232.524L138.935 232.622V232.445ZM132.036 176.769C131.987 176.706 131.937 176.643 131.887 176.582L131.724 176.757L131.959 176.941L132.036 176.769ZM127.859 233.285C127.916 233.23 128.017 233.173 128.02 233.118C128.024 233.063 127.93 232.996 127.878 232.935L127.706 233.194L127.859 233.285ZM139.981 233.273L140.172 233.124L139.993 232.958L139.804 233.193L139.981 233.273ZM99.1928 233.648L99.0263 233.466L98.8464 233.633L99.1056 233.811L99.1928 233.648ZM138.925 233.603C138.875 233.58 138.813 233.52 138.767 233.535C138.697 233.572 138.634 233.621 138.581 233.679L138.925 233.773V233.603ZM125.674 234.167C125.618 234.142 125.552 234.084 125.509 234.097C125.439 234.134 125.376 234.183 125.323 234.241L125.671 234.333C125.671 234.279 125.671 234.224 125.674 234.167ZM130.327 234.798C130.269 234.737 130.215 234.63 130.153 234.628C130.092 234.626 130.028 234.726 129.966 234.782L130.234 234.964C130.264 234.911 130.295 234.856 130.327 234.8V234.798ZM109.304 183.566C109.274 183.62 109.203 183.69 109.219 183.723C109.264 183.792 109.319 183.854 109.383 183.906L109.495 183.571L109.304 183.566ZM92.6064 216.315C92.5763 216.368 92.5103 216.434 92.5237 216.473C92.5613 216.542 92.6113 216.604 92.6712 216.654L92.783 216.33L92.6064 216.315ZM127.455 195.21L127.275 194.998C127.207 195.06 127.093 195.119 127.084 195.189C127.075 195.259 127.188 195.369 127.255 195.376C127.322 195.382 127.388 195.271 127.455 195.21Z" fill="white"/>
<path d="M114.673 153.786C115.374 154.808 114.377 156.451 115.32 157.874C115.503 158.149 115.364 158.998 115.148 159.097C114.672 159.32 114.04 159.306 113.501 159.214C113.335 159.186 113.208 158.602 113.16 158.259C113.058 157.522 113.018 156.777 112.953 156.035C112.642 156.714 112.306 157.385 112.032 158.08C111.932 158.333 112.087 158.77 111.933 158.9C111.71 159.088 111.189 159.235 111.025 159.11C110.679 158.842 110.513 158.356 110.216 158.009C109.943 157.691 109.595 157.438 109.279 157.157C109.227 157.615 109.158 158.073 109.133 158.532C109.123 158.708 109.211 158.889 109.262 159.065C109.325 159.289 109.395 159.512 109.462 159.736L107.785 159.848C107.816 159.562 107.89 159.271 107.868 158.988C107.735 157.362 108.625 155.586 107.157 154.141C107.067 154.052 107.129 153.609 107.222 153.57C107.728 153.358 108.286 153.058 108.787 153.117C109.122 153.157 109.41 153.729 109.681 154.094C110.335 154.988 110.967 155.9 111.608 156.804C111.931 155.729 112.189 154.626 112.608 153.589C112.796 153.125 113.246 152.685 113.69 152.425C114.299 152.07 114.79 152.566 114.673 153.786Z" fill="white"/>
<path d="M124.132 247.769C122 247.786 120.611 246.421 120.613 244.314C120.613 242.343 122.078 240.93 124.189 240.856C126.059 240.79 127.511 242.364 127.563 244.512C127.609 246.337 126.113 247.755 124.132 247.769ZM125.992 244.763C125.761 244.048 125.57 243.534 125.433 243.014C125.201 242.12 124.595 241.897 123.757 242.002C122.881 242.114 122.354 242.588 122.388 243.455C122.405 244.185 122.536 244.909 122.778 245.598C123.18 246.672 124.378 247.051 125.171 246.329C125.597 245.946 125.746 245.256 125.992 244.763Z" fill="white"/>
<path d="M158.909 168.592C159.062 168.683 159.254 168.742 159.356 168.871C159.943 169.59 160.595 170.275 161.061 171.066C161.856 172.418 161.62 172.868 160.49 173.927C160.032 174.355 159.558 173.229 159.2 174.217C158.906 175.027 158.676 175.782 158.668 176.639C158.668 176.93 158.451 177.221 158.333 177.513C158.122 177.324 157.871 177.163 157.707 176.939C156.994 175.97 156.961 174.958 157.501 173.882C157.577 173.732 157.339 173.425 157.246 173.19C157.091 173.298 156.942 173.414 156.799 173.539C156.663 173.67 156.502 173.808 156.441 173.976C156.299 174.361 156.402 175.106 155.667 174.406C155.391 174.142 155.134 173.862 154.855 173.603C154.096 172.899 154.06 172.858 155.217 172.373C156.617 171.79 158.429 171.113 158.696 169.097C158.721 168.926 158.835 168.764 158.909 168.592ZM159.381 170.555C159.113 171.372 158.959 171.819 158.839 172.275C158.839 172.294 159.248 172.471 159.266 172.443C159.49 172.128 159.674 171.786 159.812 171.425C159.856 171.296 159.655 171.086 159.381 170.555V170.555Z" fill="white"/>
<path d="M98.7483 163.08C98.2767 163.427 98.0074 163.74 97.6711 163.849C96.6776 164.176 95.8753 163.495 94.9891 163.245C94.7108 163.185 94.4284 163.145 94.1443 163.126C94.2438 163.38 94.2784 163.698 94.4561 163.874C94.7109 164.126 95.0942 164.246 95.3724 164.482C95.4775 164.57 95.5121 164.953 95.4607 164.98C94.8026 165.328 94.1271 165.642 93.437 165.921C93.3409 165.959 93 165.717 92.99 165.586C92.8626 163.562 91.9396 161.889 90.5885 160.471C90.2041 160.067 90.0879 160.066 90.6332 159.84C91.2344 159.591 91.7898 159.232 92.3899 158.982C94.3142 158.178 95.207 158.815 95.492 161.105C95.5278 161.402 95.7535 161.795 96.0049 161.923C96.6586 162.258 97.3772 162.457 98.0644 162.722C98.2589 162.802 98.4343 162.916 98.7483 163.08ZM94.4572 160.543C93.8024 160.242 93.39 160.032 92.9553 159.882C92.9062 159.865 92.6067 160.277 92.648 160.337C92.9341 160.754 93.2783 161.13 93.6046 161.52L94.4572 160.543Z" fill="white"/>
<path d="M130.683 246.61C130.578 246.61 130.833 246.328 130.772 245.852C130.576 244.344 129.989 242.889 129.575 241.406C129.49 241.1 129.447 240.498 129.526 240.473C130.486 240.171 131.468 239.803 132.452 239.774C132.982 239.761 133.604 240.312 134.037 240.754C134.317 241.04 134.578 241.745 134.42 241.99C133.538 243.36 134.101 244.025 135.416 244.461C135.598 244.525 135.75 244.655 135.842 244.826C135.928 245.016 135.992 245.319 135.897 245.463C135.767 245.66 135.37 245.929 135.274 245.869C134.485 245.382 133.742 244.821 132.977 244.294C132.77 244.164 132.556 244.046 132.336 243.938C132.295 244.299 132.242 244.66 132.218 245.022C132.212 245.097 132.306 245.178 132.354 245.255C132.958 246.209 132.913 246.466 132.08 246.604C131.801 246.649 131.507 246.61 130.683 246.61ZM132.145 240.34C131.826 241.106 131.607 241.386 131.626 241.651C131.648 241.954 131.829 242.452 132.028 242.5C132.656 242.649 132.794 242.165 132.717 241.666C132.669 241.375 132.481 241.108 132.142 240.34H132.145Z" fill="white"/>
<path d="M143.224 164.483C141.168 164.462 139.655 163.117 139.648 161.306C139.648 159.731 141.66 157.68 143.314 157.573C144.968 157.467 146.618 159.227 146.599 161.079C146.575 163.639 145.713 164.507 143.224 164.483ZM145.086 160.374C144.816 159.815 144.69 159 144.278 158.809C143.638 158.515 142.745 158.541 142.267 159.322C141.729 160.189 141.355 161.09 141.359 162.181C141.359 163.055 141.905 163.227 142.456 163.543C143.205 163.972 143.847 163.357 144.078 163.02C144.568 162.3 144.737 161.356 145.086 160.374V160.374Z" fill="white"/>
<path d="M83.7622 172.679C83.6449 173.973 82.057 175.91 81.0803 175.863C80.3942 175.83 79.689 175.382 79.0688 174.996C78.0631 174.369 77.6161 172.884 76.0807 173.029C76.0807 173.029 75.9433 172.59 76.0271 172.451C76.2215 172.129 76.6115 171.903 76.7479 171.569C77.2451 170.345 77.4709 170.451 78.0743 171.581C78.5492 172.475 79.46 173.153 80.2467 173.851C80.9171 174.444 81.7061 174.332 82.2492 173.697C82.7632 173.094 82.752 172.483 82.2492 171.895C81.3753 170.878 80.3606 170.05 79.0599 169.618C78.9113 169.569 78.7939 169.427 78.6621 169.327C79.0554 168.914 79.4443 168.491 79.8555 168.098C79.9047 168.051 80.1696 168.138 80.2534 168.234C81.3105 169.437 82.3654 170.641 83.3823 171.874C83.608 172.148 83.6941 172.529 83.7622 172.679Z" fill="white"/>
<path d="M105.296 159.771C105.003 160.267 104.867 160.739 104.554 160.964C104.202 161.216 103.692 161.254 103.248 161.37C102.384 161.594 101.517 161.806 100.652 162.023C101.128 161.226 100.39 160.561 100.39 159.795C100.39 159.182 100.036 158.565 99.8482 157.958C99.6359 157.267 98.3508 156.952 98.8984 156.134C99.2336 155.633 100.198 155.559 100.868 155.271C102.313 154.649 102.722 154.675 103.233 155.507C103.322 155.65 103.294 155.864 103.321 156.047C103.108 156.059 102.889 156.107 102.682 156.076C102.412 156.033 102.123 155.819 101.893 155.877C101.569 155.959 101.283 156.152 101.086 156.423C100.966 156.613 100.997 157.108 101.143 157.212C101.376 157.376 101.867 157.478 102.061 157.342C102.825 156.8 103.084 156.966 103.468 157.819C103.826 158.616 103.757 158.779 102.945 158.726C102.851 158.706 102.754 158.706 102.661 158.726C102.363 158.85 101.518 158.396 101.931 159.297C102.174 159.819 102.284 160.73 103.222 160.4C103.724 160.224 104.125 159.773 104.604 159.506C104.713 159.449 104.96 159.633 105.296 159.771Z" fill="white"/>
<path d="M120.814 158.713C120.144 158.713 119.473 158.732 118.803 158.688C118.721 158.688 118.588 158.335 118.605 158.157C118.684 157.328 119.026 156.458 118.862 155.69C118.627 154.594 120.078 153.653 119.034 152.578C120.353 152.524 121.67 152.45 122.989 152.445C123.156 152.445 123.456 152.796 123.464 152.994C123.465 153.351 123.373 153.703 123.198 154.015C123.161 154.082 122.687 153.979 122.458 153.866C121.969 153.627 121.651 152.534 120.963 153.546C120.727 153.892 120.766 154.424 120.68 154.871C121.06 154.813 121.443 154.697 121.82 154.714C122.167 154.73 122.651 154.787 122.813 155.014C122.991 155.262 122.979 155.777 122.833 156.07C122.753 156.233 122.163 156.316 121.925 156.192C121.478 155.959 120.991 155.61 120.748 156.192C120.553 156.66 120.613 157.343 120.82 157.819C120.913 158.033 121.644 158.042 122.075 158.011C122.308 157.991 122.503 157.657 122.745 157.503C122.949 157.39 123.161 157.295 123.38 157.218C123.434 157.393 123.564 157.59 123.523 157.738C123.431 158.074 123.288 158.626 123.105 158.651C122.355 158.755 121.582 158.694 120.818 158.694L120.814 158.713Z" fill="white"/>
<path d="M150.969 169.005C151.181 168.973 151.438 169.013 151.534 168.908C152.519 167.824 154.149 167.18 154.077 165.361C154.034 164.274 154.494 164.623 155.024 164.979C155.247 165.131 155.592 165.149 155.768 165.333C155.992 165.571 156.748 165.816 155.776 166.242C155.129 166.525 154.637 167.194 154.127 167.737C153.881 167.999 153.798 168.407 153.561 168.684C152.227 170.217 151.103 170.28 149.598 168.939C148.145 167.645 148.087 167.496 149.134 165.668C149.641 164.782 150.317 163.983 150.978 163.194C151.271 162.842 150.26 162.162 151.106 162.258C151.718 162.327 152.249 163.106 152.816 163.569C152.69 163.67 152.57 163.777 152.456 163.89C151.777 164.628 151.076 165.343 150.435 166.116C149.82 166.853 149.876 167.681 150.345 168.463C150.483 168.694 150.766 168.836 150.969 169.005Z" fill="white"/>
<path d="M146.813 241.011C146.539 240.72 146.279 240.415 145.988 240.142C145.679 239.853 145.339 239.594 145.013 239.321C144.769 239.795 144.47 240.25 144.312 240.75C144.251 240.946 144.669 241.323 144.59 241.478C144.386 241.881 144.032 242.207 143.73 242.564C143.53 242.319 143.171 242.087 143.154 241.829C143.024 240.066 143.348 238.269 142.596 236.549C142.484 236.293 142.931 235.738 143.217 235.406C143.278 235.335 143.827 235.563 144.046 235.766C145.235 236.859 146.385 237.993 147.559 239.101C147.933 239.453 148.342 239.764 148.735 240.093L146.813 241.011ZM144.131 238.205C144.077 238.173 144.009 238.105 143.974 238.119C143.904 238.159 143.843 238.211 143.791 238.273L144.118 238.385L144.131 238.205Z" fill="white"/>
<path d="M116.603 244.848C116.603 245.322 116.575 245.798 116.603 246.27C116.715 247.807 116.715 247.806 115.443 247.758C114.341 247.717 114.414 247.73 114.642 246.494C114.827 245.489 114.848 244.453 114.866 243.428C114.888 242.286 114.855 242.302 113.354 242.534C113.13 242.57 112.734 242.422 112.651 242.248C112.568 242.074 112.681 241.689 112.839 241.504C113.07 241.238 113.391 240.957 113.72 240.882C115.419 240.495 117.073 241.476 118.794 241.106C118.939 241.075 119.371 241.526 119.337 241.681C119.244 242.113 118.974 242.505 118.778 242.911C118.594 242.707 118.443 242.464 118.219 242.308C117.437 241.732 116.687 241.99 116.632 242.857C116.591 243.517 116.625 244.183 116.625 244.847L116.603 244.848Z" fill="white"/>
<path d="M87.204 166.745C87.6174 167.519 87.7236 168.606 89.0132 168.503C89.0478 168.503 89.1998 168.95 89.1461 168.99C88.6276 169.384 88.1069 169.802 87.5236 170.078C87.1258 170.267 86.481 170.385 86.9648 169.529C87.0062 169.455 87.0822 169.329 87.0587 169.305C85.9312 168.07 84.7914 166.847 83.6661 165.617C83.5364 165.474 83.3744 165.134 83.409 165.105C84.2773 164.394 85.1456 163.675 86.072 163.044C86.4195 162.807 88.1806 163.524 88.3315 163.955C88.46 164.321 89.0098 164.557 88.5919 165.159C88.1739 165.762 88.0778 166.587 87.1872 166.768C87.1783 166.202 87.2487 165.617 87.1269 165.077C87.071 164.828 86.6564 164.63 86.3681 164.48C86.2284 164.406 86.0049 164.489 85.8194 164.501C85.8775 164.788 85.8552 165.132 86.0094 165.353C86.3625 165.844 86.8017 166.282 87.204 166.745Z" fill="white"/>
<path d="M135.452 154.675C135.702 154.752 136.62 154.944 137.444 155.332C137.719 155.461 137.79 156.083 137.884 156.494C137.91 156.606 137.627 156.924 137.6 156.91C137.301 156.782 137.022 156.61 136.773 156.401C135.48 155.201 134.366 155.089 133.467 156.092C132.511 157.159 132.462 159.668 133.572 160.168C134.309 160.503 135.36 160.142 136.263 160.098C136.406 160.092 136.645 160.068 136.677 160.132C136.752 160.286 136.807 160.527 136.737 160.664C136.268 161.574 135.408 161.771 134.54 161.548C133.147 161.188 131.949 160.301 131.199 159.074C130.354 157.733 131.944 154.914 133.611 154.679C133.987 154.63 134.372 154.675 135.452 154.675Z" fill="white"/>
<path d="M108.782 246.03C108.877 246.015 108.973 246.01 109.069 246.014C109.636 246.086 110.013 244.871 110.701 245.772C110.131 246.237 109.62 246.982 108.98 247.113C107.228 247.478 104.673 245.388 104.499 243.649C104.399 242.635 105.758 240.416 106.75 240.332C108.137 240.213 109.574 240.013 110.899 240.849C111.467 241.208 111.518 241.535 111.145 241.936C110.963 242.131 110.822 242.975 110.213 242.069C109.207 240.575 109.052 240.616 107.796 241.262C106.665 241.839 105.891 243.487 106.272 244.503C106.587 245.355 107.823 246.105 108.782 246.03Z" fill="white"/>
<path d="M160.696 180.031C161.753 179.531 162.819 179.056 163.864 178.524C165.369 177.756 165.368 177.599 163.986 176.55L163.46 176.146C163.79 175.983 164.106 175.779 164.453 175.675C164.611 175.627 164.922 175.716 165.011 175.845C165.92 177.236 166.818 178.638 167.66 180.065C167.795 180.296 167.73 180.926 167.601 180.977C167.11 181.172 166.28 181.4 166.247 180.636C166.169 178.816 165.336 179.486 164.492 179.966C163.77 180.379 163.047 180.792 162.336 181.223C161.907 181.483 161.499 181.782 161.081 182.06L159.871 179.912L160.509 179.607L160.696 180.031Z" fill="white"/>
<path d="M93.5502 238.318C93.5502 237.746 93.5401 237.172 93.5502 236.599C93.5848 234.903 93.7368 234.865 95.2935 235.649C95.8589 235.934 95.7092 236.084 95.47 236.432C95.3607 236.582 95.2978 236.76 95.289 236.946C95.3046 237.792 95.3527 238.636 95.3884 239.481C96.0701 238.922 97.1149 238.475 97.3563 237.771C97.8402 236.351 98.4738 237.597 98.9901 237.474C99.0169 237.795 99.1264 238.377 99.0605 238.397C97.2457 238.962 96.1081 240.39 94.7917 241.597C94.5559 241.813 94.1436 241.882 93.805 241.908C93.7324 241.915 93.5502 241.443 93.5424 241.188C93.51 240.233 93.529 239.278 93.529 238.323L93.5502 238.318Z" fill="white"/>
<path d="M72.187 178.498C71.939 177.437 72.6888 176.806 73.4431 176.21C73.5481 176.126 73.9314 176.259 74.0812 176.401C74.2309 176.543 74.2063 176.806 74.2599 177.017C74.0778 177.061 73.813 177.043 73.7269 177.158C73.4073 177.578 73.1458 178.043 72.862 178.49C73.3816 178.526 73.9068 178.629 74.4164 178.575C74.7673 178.538 75.0869 178.275 75.4322 178.128C76.8357 177.514 78.1476 178.027 78.5466 179.34C78.8539 180.356 77.9443 182.006 76.8357 182.237C76.4491 182.316 75.9686 182.027 75.5551 181.849C75.4031 181.784 75.3215 181.558 75.2087 181.402C75.3495 181.31 75.4825 181.156 75.6333 181.137C76.1038 181.078 76.6279 181.176 77.0369 180.997C77.2514 180.904 77.4023 180.327 77.3341 180.03C77.2771 179.779 76.819 179.408 76.6044 179.447C75.9786 179.559 75.3752 179.832 74.7796 180.083C73.2352 180.737 72.1781 180.128 72.187 178.498Z" fill="white"/>
<path d="M101.193 245.105C100.309 244.759 99.7082 244.547 99.1305 244.273C99.0645 244.243 99.0623 243.889 99.1461 243.758C100.521 241.62 100.618 241.287 100.66 238.401C100.681 238.264 100.743 238.138 100.839 238.039C101.621 238.262 102.404 238.498 103.159 238.797C103.242 238.83 103.261 239.331 103.144 239.507C102.342 240.714 101.54 242.708 101.301 244.256C101.266 244.481 101.244 244.707 101.193 245.105Z" fill="white"/>
<path d="M139.073 238.398C139.267 239.979 139.258 241.621 140.295 242.949C140.455 243.154 140.555 243.687 140.455 243.758C140.102 244.017 139.658 244.238 139.233 244.275C139.009 244.294 138.632 243.939 138.538 243.676C138.233 242.821 138.245 241.756 137.72 241.106C137.216 240.478 137.895 239.206 136.575 239.108C136.553 239.108 136.484 238.568 136.561 238.529C137.293 238.164 138.05 237.858 138.796 237.523L139.073 238.398Z" fill="white"/>
<path d="M133.887 216.728L134.475 216.169L136.208 216.157C135.671 217.013 134.829 217.264 133.887 217.32V216.728Z" fill="white"/>
</svg>
