<svg width="400" height="400" viewBox="0 0 400 400" fill="none" xmlns="http://www.w3.org/2000/svg">
<rect opacity="0.01" width="400" height="400" fill="#0B0B0C"/>
<g clip-path="url(#clip0)">
<path d="M100 254.527C106.95 254.544 113.898 254.503 120.853 254.613C122.626 254.672 124.384 254.958 126.085 255.464C128.955 256.274 130.943 258.092 131.389 261.223C131.829 264.315 131.071 267.026 128.526 268.975C127.441 269.807 126.185 270.409 124.844 271.218C125.382 271.407 125.865 271.582 126.348 271.744C129.135 272.68 131.78 273.994 132.642 277.031C134.384 283.17 132.296 288.096 125.431 289.305C123.489 289.638 121.523 289.814 119.552 289.83C113.033 289.904 106.514 289.883 100 289.883V285.344C103.41 285.561 103.839 285.153 103.839 281.703V262.353C103.839 259.401 103.334 258.918 100.353 259.009C100.235 259.009 100.116 259.033 100 259.045V254.527ZM113.227 279.372C113.227 281.044 113.227 282.716 113.227 284.372C113.227 284.959 113.367 285.425 114.069 285.377C115.905 285.253 117.787 285.313 119.566 284.919C122.173 284.341 123.273 282.609 123.284 279.737C123.299 276.582 122.225 274.749 119.597 274.145C117.818 273.734 115.938 273.767 114.102 273.629C113.334 273.572 113.22 274.107 113.223 274.728C113.232 276.266 113.225 277.824 113.227 279.372ZM115.716 258.868L115.692 259.023C115.178 259.023 114.664 259.023 114.152 259.023C113.507 259.007 113.223 259.31 113.225 259.96C113.225 262.786 113.206 265.612 113.261 268.435C113.261 268.741 113.685 269.291 113.934 269.305C115.988 269.408 118.062 269.424 119.945 268.416C122.145 267.239 122.237 265.141 122.078 263.02C121.936 261.219 120.962 259.96 119.199 259.496C118.055 259.195 116.874 259.066 115.716 258.868Z" fill="white"/>
<path d="M141.468 290.838C141.305 290.73 141.13 290.642 140.947 290.575C136.362 289.448 135.139 284.892 136.182 281.361C136.608 279.916 137.525 278.767 138.904 278.227C140.8 277.482 142.786 276.932 144.741 276.316C146.163 275.874 147.648 275.568 149.044 275.038C150.397 274.522 151.155 273.466 151.255 271.932C151.364 270.246 150.781 268.932 149.305 268.151C147.305 267.085 145.212 267.102 143.129 267.96C142.907 268.094 142.701 268.254 142.516 268.438C142.753 268.564 142.869 268.643 143.001 268.7C144.66 269.417 145.4 270.523 145.172 271.961C144.935 273.514 143.62 274.656 141.945 274.787C139.575 274.971 137.994 274.202 137.293 272.523C136.523 270.685 137.182 268.177 138.812 266.775C140.336 265.468 142.153 264.864 144.087 264.52C147.554 263.923 151.004 263.932 154.388 264.998C157.772 266.063 159.158 267.991 159.184 271.512C159.21 275.294 159.184 279.075 159.203 282.857C159.203 283.404 159.219 284.015 159.456 284.479C159.655 284.863 160.189 285.305 160.57 285.303C160.952 285.301 161.383 284.825 161.684 284.457C161.857 284.188 161.924 283.864 161.873 283.547C161.715 282.31 162.243 281.949 163.421 282.028C164.869 282.123 164.98 282.164 164.843 283.616C164.767 284.41 164.698 285.203 164.568 285.986C164.125 288.652 162.421 290.121 159.952 290.838H155.923C154.122 290.152 152.544 289.192 151.715 286.97C149.999 289.194 147.826 290.164 145.497 290.838H141.468ZM151.096 277.46C148.98 278.695 147.091 279.723 145.3 280.903C144.864 281.192 144.601 281.966 144.525 282.551C144.338 284.013 145.127 285.074 146.537 285.504C148.144 285.981 149.902 285.344 150.599 283.894C151.532 281.963 151.219 279.909 151.096 277.46Z" fill="white"/>
<path d="M287.204 290.838C286.716 290.709 286.228 290.566 285.737 290.451C281.415 289.434 278.694 286.727 277.526 282.449C276.605 279.14 276.628 275.637 277.592 272.341C278.251 270.006 279.642 267.949 281.557 266.476C283.471 265.004 285.808 264.196 288.216 264.174C290.007 264.133 291.87 264.243 293.588 264.711C296.848 265.595 299.135 267.64 299.768 271.185C299.826 271.375 299.905 271.556 300.005 271.727V273.4C299.877 273.815 299.749 274.229 299.623 274.644C298.728 277.623 294.953 278.999 292.358 277.294C291.036 276.422 290.462 274.651 290.858 272.7C291.138 271.338 292.178 270.409 293.749 270.096C293.958 270.034 294.162 269.954 294.358 269.857C292.1 267.368 287.986 268.115 286.711 271.367C285.135 275.387 285.206 279.563 286.749 283.595C287.097 284.51 288.111 285.413 289.036 285.812C291.493 286.868 293.799 285.37 294.356 282.575C294.474 281.983 294.483 281.333 295.322 281.331C296.547 281.331 297.773 281.292 298.993 281.367C299.23 281.378 299.645 281.844 299.621 282.083C299.213 286.104 297.1 289.166 293.161 290.322C292.524 290.511 291.879 290.676 291.237 290.853L287.204 290.838Z" fill="white"/>
<path d="M228.468 285.705C228.519 285.866 228.561 286.031 228.594 286.197C228.783 289.857 228.783 289.857 225.193 289.857C222.035 289.857 218.876 289.828 215.715 289.871C214.779 289.871 214.411 289.553 214.504 288.621C214.543 288.144 214.543 287.665 214.504 287.188C214.447 286.276 214.468 285.547 215.736 285.578C216.518 285.595 216.724 284.921 216.397 284.283C215.423 282.386 214.388 280.521 213.26 278.431C211.798 279.689 210.338 280.676 209.231 281.973C208.046 283.373 209.302 285.48 211.525 285.817C211.525 286.928 211.57 288.07 211.487 289.202C211.471 289.441 210.98 289.814 210.705 289.816C206.876 289.859 203.046 289.845 199.215 289.842C199.096 289.842 198.945 289.864 198.866 289.802C197.838 288.961 198.513 287.814 198.392 286.818C198.352 286.452 198.745 285.724 199.004 285.693C200.366 285.53 200.698 284.622 200.7 283.509C200.723 275.946 200.723 268.381 200.7 260.815C200.7 259.764 200.402 258.866 199.117 258.643C198.817 258.591 198.603 258.008 198.364 257.659C198.326 257.604 198.364 257.504 198.364 257.42C198.407 254.009 197.956 254.594 201.148 254.554C203.082 254.525 205.018 254.554 206.952 254.554C208.971 254.554 208.971 254.554 208.971 256.532C208.971 262.542 208.971 268.553 208.971 274.565V276.149C209.385 275.968 209.651 275.91 209.838 275.757C211.793 274.142 213.748 272.53 215.66 270.867C215.968 270.6 216.07 270.093 216.267 269.699C215.883 269.541 215.508 269.279 215.113 269.243C213.051 269.054 213.051 269.076 213.051 266.899C213.051 265.089 213.051 265.089 214.866 265.086H225.174C226.944 265.086 226.944 265.086 226.944 266.93V267.05C226.944 268.961 226.869 268.76 225.122 269.439C223.66 270.007 222.333 271.027 221.094 272.016C218.783 273.844 219.136 273.421 220.397 275.686C221.658 277.95 223.02 280.225 224.283 282.52C225.226 284.24 226.12 285.967 228.468 285.705Z" fill="white"/>
<path d="M244.832 280.588C244.963 280.236 245.11 279.89 245.223 279.534C247.073 273.743 248.92 267.951 250.764 262.157C250.885 261.78 250.965 261.388 251.072 261.006C251.368 259.938 250.887 259.334 249.906 259.035C249.529 258.922 249.141 258.847 248.749 258.813C247.148 258.679 247.138 258.686 247.145 256.988C247.145 254.245 246.908 254.568 249.558 254.558C252.913 254.544 256.268 254.577 259.624 254.542C260.534 254.542 260.965 254.816 260.844 255.772C260.828 256.05 260.828 256.329 260.844 256.608C260.844 258.557 260.844 258.562 259.02 259.104C257.617 259.52 256.92 260.593 256.505 261.897C254.944 266.818 253.401 271.749 251.842 276.672C250.591 280.611 249.29 284.536 248.105 288.492C247.778 289.577 247.264 289.926 246.174 289.88C243.965 289.799 241.752 289.809 239.539 289.88C238.541 289.911 238.079 289.567 237.771 288.595C235.031 279.962 232.226 271.347 229.477 262.714C228.849 260.738 228.022 259.085 225.652 258.918C225.415 258.901 224.979 258.591 224.967 258.395C224.874 257.288 224.878 256.175 224.979 255.069C225.005 254.854 225.792 254.592 226.231 254.592C230.259 254.553 234.287 254.568 238.316 254.57C239.501 254.57 240.685 254.589 241.87 254.57C242.565 254.556 242.915 254.828 242.863 255.55C242.863 255.707 242.863 255.87 242.863 256.027C242.825 256.859 243.06 257.888 242.657 258.454C242.347 258.889 241.235 258.744 240.475 258.851C238.759 259.09 238.197 259.909 238.735 261.718C240.076 266.257 241.496 270.764 242.889 275.282C243.437 277.052 244.003 278.817 244.548 280.585L244.832 280.588Z" fill="white"/>
<path d="M177.642 268.593C178.071 268.096 178.471 267.566 178.936 267.105C181.689 264.367 186.687 263.495 190.192 265.129C192.625 266.264 193.422 268.452 193.528 270.886C193.708 275.017 193.737 279.154 193.765 283.289C193.765 284.594 194.002 285.559 195.49 285.807C195.744 285.85 195.931 286.33 196.142 286.612C196.163 286.638 196.142 286.691 196.142 286.729C196.097 290.537 196.635 289.797 193.268 289.847C190.111 289.89 186.952 289.828 183.789 289.871C182.827 289.885 182.367 289.586 182.5 288.583C182.535 288.305 182.535 288.024 182.5 287.747C182.329 286.514 182.578 285.68 184.066 285.635C184.877 285.611 185.336 284.988 185.339 284.171C185.339 280.16 185.391 276.146 185.298 272.136C185.285 271.429 185.039 270.746 184.598 270.197C184.157 269.647 183.547 269.261 182.865 269.099C181.13 268.705 179.393 269.276 178.666 270.771C178.118 271.866 177.796 273.06 177.718 274.283C177.585 277.3 177.659 280.329 177.677 283.361C177.677 285.064 178 285.461 179.644 285.771C180.268 285.888 180.54 286.132 180.533 286.77C180.497 290.525 180.945 289.799 177.718 289.844C174.49 289.89 171.32 289.825 168.128 289.868C167.154 289.883 166.739 289.558 166.839 288.566C166.881 288.089 166.881 287.61 166.839 287.133C166.768 286.297 167.052 285.884 167.914 285.606C168.459 285.43 169.099 284.761 169.225 284.207C169.462 283.098 169.398 281.918 169.405 280.767C169.422 277.943 169.429 275.117 169.405 272.293C169.393 270.834 169.431 269.298 167.35 269.188C167.201 269.188 166.941 268.949 166.933 268.829C166.888 267.723 166.855 266.612 166.919 265.509C166.919 265.349 167.467 265.098 167.763 265.095C170.606 265.064 173.45 265.095 176.294 265.072C176.941 265.072 177.241 265.325 177.223 265.987C177.204 266.772 177.223 267.561 177.223 268.347L177.642 268.593Z" fill="white"/>
<path d="M271.975 275.072C271.975 277.893 271.998 280.717 271.975 283.54C271.961 284.718 272.266 285.53 273.56 285.791C273.753 285.869 273.924 285.996 274.056 286.159C274.188 286.322 274.278 286.515 274.316 286.722C274.316 290.544 274.84 289.801 271.496 289.849C268.342 289.897 265.186 289.821 262.034 289.88C260.972 289.902 260.589 289.522 260.714 288.497C260.751 288.18 260.751 287.859 260.714 287.542C260.593 286.457 260.79 285.726 262.119 285.63C263.366 285.549 263.501 284.462 263.522 283.48C263.565 281.33 263.539 279.18 263.539 277.031C263.539 275.201 263.562 273.371 263.539 271.536C263.51 269.928 263.143 269.534 261.577 269.262C261.537 269.264 261.497 269.26 261.458 269.25C259.97 268.452 261.027 267.081 260.762 266.003C260.589 265.287 261.046 265.048 261.733 265.048C264.814 265.067 267.894 265.079 270.961 265.048C271.84 265.048 272.008 265.447 272.003 266.214C271.961 269.183 271.975 272.124 271.975 275.072Z" fill="white"/>
<path d="M271.298 258.545C271.298 260.996 269.528 262.845 267.194 262.833C264.86 262.822 263.078 260.922 263.09 258.507C263.102 256.092 264.891 254.272 267.246 254.279C269.67 254.288 271.308 256.006 271.298 258.545Z" fill="white"/>
<path d="M141.169 110C142.353 110.463 143.562 110.91 144.749 111.39C163.029 118.789 181.314 126.177 199.605 133.552C200.402 133.816 201.266 133.791 202.048 133.483C220.7 125.99 239.342 118.466 257.972 110.913C258.797 110.58 259.645 110.308 260.481 110.01L260.868 110.375C240.915 152.149 220.967 193.924 200.775 236.212L140.787 110.389L141.169 110ZM211.69 145.021L211.605 145.477C213.121 146.61 214.562 147.866 216.173 148.836C217.692 149.751 217.927 150.747 217.294 152.348C216.583 154.166 216.109 156.086 215.526 157.962C217.37 157.078 218.856 156.007 220.323 154.911C222.372 153.384 222.365 153.384 224.372 154.88C225.87 155.996 227.384 157.09 228.891 158.196C228.68 156.254 228.18 154.548 227.65 152.854C226.752 150.009 226.486 150.334 229.071 148.528C230.493 147.536 231.842 146.445 233.223 145.401C231.3 145.027 229.336 144.909 227.382 145.052C225.586 145.193 224.714 144.505 224.301 142.761C223.861 140.888 223.176 139.075 222.6 137.236L222.126 137.252C221.496 139.259 220.801 141.249 220.252 143.277C219.884 144.629 219.135 145.1 217.782 145.042C215.766 144.959 213.725 145.021 211.69 145.021V145.021Z" fill="white"/>
</g>
<defs>
<clipPath id="clip0">
<rect width="200" height="180.838" fill="white" transform="translate(100 110)"/>
</clipPath>
</defs>
</svg>
