<svg width="16" height="16" viewBox="0 0 16 16" fill="none" xmlns="http://www.w3.org/2000/svg">
<g clip-path="url(#clip0)">
<path d="M6.5 7.4C6.5 7.4 8 7.3 8 5.5C8 3.7 6.6 3 5 3H0V13H5C5 13 8.3 12.9 8.3 9.9C8.3 9.9 8.5 7.4 6.5 7.4ZM2.3 4.6H4.8H5.2C5.2 4.6 5.9 4.6 5.9 5.6C5.9 6.6 5.5 6.8 5 6.8H2.3V4.6ZM5 11H2.3V8.4H5.2C5.2 8.4 6.2 8.4 6.2 9.8C6.2 10.9 5.4 11 5 11Z" fill="white"/>
<path d="M12.5002 5.40002C8.7002 5.40002 8.7002 9.20002 8.7002 9.20002C8.7002 9.20002 8.4002 13 12.5002 13C12.5002 13 15.9002 13.2 15.9002 10.4H14.2002C14.2002 10.4 14.3002 11.5 12.6002 11.5C12.6002 11.5 10.9002 11.6 10.9002 9.80002H16.0002C16.0002 9.70002 16.5002 5.40002 12.5002 5.40002ZM14.1002 8.40002H10.8002C10.8002 8.40002 11.0002 6.90002 12.5002 6.90002C14.1002 6.80002 14.1002 8.40002 14.1002 8.40002Z" fill="white"/>
<path d="M15 3H10V4H15V3Z" fill="white"/>
</g>
<defs>
<clipPath id="clip0">
<rect width="16" height="16" fill="white"/>
</clipPath>
</defs>
</svg>
