<svg width="16" height="16" viewBox="0 0 16 16" fill="none" xmlns="http://www.w3.org/2000/svg">
<path d="M8 0C3.6 0 0 3.6 0 8C0 12.4 3.6 16 8 16C12.4 16 16 12.4 16 8C16 3.6 12.4 0 8 0ZM11.7 11.6C11.5 11.8 11.3 11.9 11 11.8C9.1 10.6 6.8 10.4 4 11C3.7 11.1 3.5 10.9 3.4 10.6C3.3 10.3 3.5 10.1 3.8 10C6.8 9.3 9.5 9.6 11.6 10.9C11.8 11 11.8 11.3 11.7 11.6ZM12.6 9.4C12.4 9.7 12 9.8 11.8 9.6C9.6 8.3 6.4 7.9 3.8 8.7C3.5 8.7 3.2 8.6 3.1 8.2C3 7.9 3.2 7.6 3.5 7.5C6.4 6.6 10 7.1 12.5 8.6C12.7 8.7 12.8 9.1 12.6 9.4ZM12.7 7.1C10.1 5.6 5.9 5.4 3.4 6.2C3 6.3 2.6 6.1 2.5 5.7C2.4 5.3 2.6 4.9 3 4.8C5.8 4 10.5 4.1 13.5 5.9C13.9 6.1 14 6.6 13.8 6.9C13.6 7.2 13.1 7.3 12.7 7.1Z" fill="white"/>
</svg>
