<svg width="54" height="19" viewBox="0 0 54 19" fill="none" xmlns="http://www.w3.org/2000/svg">
<path d="M12.696 1.2V3.216H7.824V18H5.616V3.216H0.768V1.2H12.696ZM17.604 18.24C15.844 18.24 14.388 17.648 13.236 16.464C12.084 15.28 11.508 13.784 11.508 11.976C11.508 10.2 12.076 8.72 13.212 7.536C14.364 6.352 15.82 5.76 17.58 5.76C19.34 5.76 20.796 6.352 21.948 7.536C23.1 8.72 23.676 10.208 23.676 12C23.676 13.808 23.108 15.304 21.972 16.488C20.836 17.656 19.38 18.24 17.604 18.24ZM17.58 16.344C18.748 16.344 19.7 15.928 20.436 15.096C21.172 14.248 21.54 13.216 21.54 12C21.54 10.8 21.164 9.776 20.412 8.928C19.676 8.08 18.732 7.656 17.58 7.656C16.428 7.656 15.484 8.08 14.748 8.928C14.028 9.776 13.668 10.8 13.668 12C13.668 13.216 14.028 14.248 14.748 15.096C15.484 15.928 16.428 16.344 17.58 16.344ZM31.6431 18.24C29.8831 18.24 28.4271 17.648 27.2751 16.464C26.1231 15.28 25.5471 13.784 25.5471 11.976C25.5471 10.2 26.1151 8.72 27.2511 7.536C28.4031 6.352 29.8591 5.76 31.6191 5.76C33.3791 5.76 34.8351 6.352 35.9871 7.536C37.1391 8.72 37.7151 10.208 37.7151 12C37.7151 13.808 37.1471 15.304 36.0111 16.488C34.8751 17.656 33.4191 18.24 31.6431 18.24ZM31.6191 16.344C32.7871 16.344 33.7391 15.928 34.4751 15.096C35.2111 14.248 35.5791 13.216 35.5791 12C35.5791 10.8 35.2031 9.776 34.4511 8.928C33.7151 8.08 32.7711 7.656 31.6191 7.656C30.4671 7.656 29.5231 8.08 28.7871 8.928C28.0671 9.776 27.7071 10.8 27.7071 12C27.7071 13.216 28.0671 14.248 28.7871 15.096C29.5231 15.928 30.4671 16.344 31.6191 16.344ZM40.1164 0.959999H42.2764V18H40.1164V0.959999ZM53.9321 14.904C53.9321 15.944 53.5161 16.76 52.6841 17.352C51.8681 17.944 50.8281 18.24 49.5641 18.24C48.1401 18.24 46.9961 17.864 46.1321 17.112C45.2841 16.344 44.8521 15.352 44.8361 14.136H46.9001C46.9161 14.936 47.1961 15.544 47.7401 15.96C48.2841 16.36 48.9081 16.56 49.6121 16.56C50.2361 16.56 50.7561 16.416 51.1721 16.128C51.6041 15.824 51.8201 15.408 51.8201 14.88C51.8201 14.32 51.5801 13.88 51.1001 13.56C50.6201 13.224 49.9241 12.92 49.0121 12.648C48.5001 12.488 48.0521 12.328 47.6681 12.168C47.2841 11.992 46.8921 11.768 46.4921 11.496C46.0921 11.224 45.7801 10.888 45.5561 10.488C45.3481 10.088 45.2441 9.64 45.2441 9.144C45.2441 8.12 45.6361 7.304 46.4201 6.696C47.2041 6.072 48.2041 5.76 49.4201 5.76C50.6841 5.76 51.6921 6.112 52.4441 6.816C53.1961 7.504 53.5881 8.344 53.6201 9.336H51.6281C51.5961 8.776 51.3641 8.32 50.9321 7.968C50.5001 7.616 49.9561 7.44 49.3001 7.44C48.7561 7.44 48.2921 7.584 47.9081 7.872C47.5401 8.144 47.3561 8.52 47.3561 9C47.3561 9.496 47.5641 9.896 47.9801 10.2C48.3961 10.504 49.0441 10.8 49.9241 11.088C51.2201 11.504 52.2121 11.992 52.9001 12.552C53.5881 13.096 53.9321 13.88 53.9321 14.904Z" fill="white"/>
</svg>
