<svg width="140" height="140" viewBox="0 0 140 140" fill="none" xmlns="http://www.w3.org/2000/svg">
<rect opacity="0.01" width="140" height="140" fill="#0D0D0E"/>
<g filter="url(#filter0_d)">
<rect x="30" y="30" width="80" height="80" rx="12" fill="#531755"/>
</g>
<g clip-path="url(#clip0)">
<path d="M58.9457 68.8847C57.0824 68.8847 55.2232 68.8887 53.36 68.8807C52.7296 68.8767 52.1272 68.7411 51.5527 68.4618C51.0899 68.2384 50.663 67.9711 50.3079 67.6C49.6815 66.9537 49.2506 66.2036 49.083 65.3019C48.9992 64.8591 48.9913 64.4162 49.0232 63.9773C49.0591 63.5345 49.1868 63.1036 49.3703 62.6926C49.5738 62.2338 49.8411 61.8308 50.1802 61.4638C50.7068 60.8973 51.3292 60.4903 52.0673 60.2549C52.4264 60.1432 52.7895 60.0833 53.1685 60.0554C53.9106 59.9996 54.6527 60.0275 55.3948 60.0275C58.3671 60.0195 61.3395 60.0195 64.3119 60.0275C64.9263 60.0275 65.5327 60.1113 66.1033 60.3546C66.5142 60.5302 66.9012 60.7536 67.2523 61.0409C67.739 61.4359 68.1141 61.9146 68.3974 62.4652C68.5968 62.8562 68.7445 63.2672 68.8043 63.71C68.8402 63.9773 68.8841 64.2446 68.8801 64.5159C68.8721 65.0386 68.7644 65.5453 68.5849 66.036C68.3216 66.7462 67.8827 67.3367 67.3161 67.8274C66.7815 68.2902 66.1591 68.6014 65.4689 68.761C65.1218 68.8408 64.7707 68.8847 64.4116 68.8847C62.5883 68.8807 60.769 68.8847 58.9457 68.8847Z" fill="#66C1ED"/>
<path d="M81.076 71.1274C82.8833 71.1274 84.6947 71.1274 86.502 71.1274C87.675 71.1274 88.7084 71.5144 89.5741 72.3084C90.2205 72.8989 90.6434 73.629 90.8628 74.4788C90.9905 74.9736 91.0264 75.4763 90.9745 75.979C90.8907 76.8049 90.5955 77.5549 90.0888 78.2172C89.5502 78.9155 88.864 79.4222 88.0301 79.7134C87.667 79.8411 87.296 79.9289 86.909 79.9408C86.4502 79.9528 85.9953 79.9727 85.5365 79.9727C82.245 79.9767 78.9534 79.9767 75.6619 79.9727C74.7004 79.9727 73.8067 79.7294 73.0127 79.1588C72.135 78.5285 71.5525 77.6986 71.2732 76.6533C71.1695 76.2583 71.1056 75.8633 71.1216 75.4563C71.1615 74.4549 71.4807 73.5532 72.119 72.7712C72.6696 72.097 73.3598 71.6262 74.1857 71.3509C74.6206 71.2072 75.0714 71.1354 75.5302 71.1314C77.3815 71.1274 79.2287 71.1274 81.076 71.1274Z" fill="#E2B625"/>
<path d="M60.0547 81.0733C60.0547 79.258 60.0587 77.4427 60.0547 75.6273C60.0507 74.6778 60.2981 73.812 60.8447 73.034C61.4711 72.1443 62.3089 71.5578 63.3622 71.2785C63.7373 71.1788 64.1163 71.1189 64.4993 71.1309C65.5247 71.1588 66.4423 71.482 67.2403 72.1363C67.9105 72.6829 68.3773 73.3692 68.6446 74.187C68.7883 74.6219 68.8641 75.0728 68.8641 75.5316C68.8641 79.2261 68.8721 82.9246 68.8601 86.6191C68.8561 87.7242 68.4651 88.6977 67.723 89.5276C67.0926 90.2338 66.3106 90.6766 65.401 90.8921C64.8424 91.0237 64.2719 91.0317 63.7014 90.928C62.664 90.7405 61.8022 90.2457 61.116 89.4518C60.5535 88.8014 60.2024 88.0474 60.0986 87.1856C60.0707 86.9502 60.0547 86.7108 60.0547 86.4714C60.0547 84.6761 60.0547 82.8767 60.0547 81.0733Z" fill="#D3215B"/>
<path d="M79.9361 64.7396C79.8802 65.0907 79.8602 65.4458 79.7366 65.7849C79.6169 66.112 79.4812 66.4312 79.3057 66.7344C79.0543 67.1693 78.7072 67.5244 78.3362 67.8516C77.8574 68.2745 77.2909 68.5578 76.6685 68.7173C76.4011 68.7852 76.1298 68.837 75.8545 68.8809C75.7388 68.9009 75.6152 68.869 75.4955 68.8769C75.0566 68.8969 74.6377 68.7732 74.2187 68.6615C73.7998 68.5498 73.4288 68.3343 73.0657 68.1149C72.8981 68.0152 72.7465 67.8835 72.6029 67.7478C72.3755 67.5284 72.1481 67.309 71.9645 67.0456C71.777 66.7704 71.6095 66.4871 71.4858 66.1839C71.3701 65.9046 71.2863 65.6133 71.2065 65.3261C71.1666 65.1784 71.1666 65.0189 71.1466 64.8633C71.1427 64.7156 71.1427 64.568 71.1387 64.4164C71.1387 64.3685 71.1427 64.3246 71.1427 64.2768C71.1427 60.7419 71.1427 57.2069 71.1427 53.672C71.1427 53.6242 71.1387 53.5803 71.1387 53.5324C71.1427 53.3688 71.1427 53.2092 71.1466 53.0456C71.1945 52.2996 71.4539 51.6213 71.8488 51.0029C72.2638 50.3566 72.8343 49.8618 73.5245 49.5067C73.9554 49.2833 74.4103 49.1477 74.885 49.0679C75.3399 48.9921 75.7867 49.012 76.2415 49.0878C76.7044 49.1596 77.1313 49.3152 77.5422 49.5147C77.8335 49.6584 78.0928 49.8618 78.3521 50.0613C78.7391 50.3605 79.0304 50.7356 79.2857 51.1425C79.577 51.6093 79.7725 52.116 79.8722 52.6546C79.9041 52.8222 79.9121 52.9938 79.9281 53.1653C79.9281 53.293 79.9241 53.4167 79.9241 53.5444C79.9241 57.1431 79.9241 60.7419 79.9241 64.3406C79.9321 64.4723 79.9361 64.6039 79.9361 64.7396Z" fill="#4CB77C"/>
<path d="M68.8789 57.8335C68.7871 57.8335 68.7153 57.8335 68.6435 57.8335C67.267 57.8335 65.8906 57.8295 64.5141 57.8375C63.7481 57.8415 63.0259 57.6699 62.3597 57.3028C61.8649 57.0315 61.43 56.6804 61.071 56.2376C60.676 55.7548 60.3927 55.2242 60.2172 54.6297C60.1294 54.3305 60.0735 54.0313 60.0616 53.7201C60.0576 53.6163 60.0257 53.5126 60.0296 53.4089C60.0336 53.2373 60.0416 53.0657 60.0695 52.8982C60.1094 52.6668 60.1613 52.4354 60.2211 52.2079C60.3568 51.6733 60.6082 51.1906 60.9433 50.7557C61.2625 50.3407 61.6415 49.9817 62.0804 49.6984C62.5432 49.4032 63.0459 49.2077 63.5885 49.092C64.0473 48.9922 64.5141 48.9802 64.9689 49.0321C65.6871 49.1119 66.3494 49.3673 66.9558 49.7822C67.5703 50.2051 68.0371 50.7477 68.3842 51.394C68.5717 51.7451 68.7153 52.1242 68.7871 52.5191C68.835 52.7825 68.8749 53.0538 68.8749 53.3211C68.8829 54.7574 68.8789 56.1937 68.8789 57.63C68.8789 57.6859 68.8789 57.7417 68.8789 57.8335Z" fill="#66C2ED"/>
<path d="M71.1229 82.1752C71.2067 82.1752 71.2665 82.1752 71.3263 82.1752C72.7507 82.1752 74.171 82.1632 75.5954 82.1792C76.6207 82.1912 77.5344 82.5303 78.3323 83.1846C79.0944 83.811 79.5931 84.605 79.8245 85.5625C79.8883 85.8298 79.9162 86.1091 79.9362 86.3844C79.992 87.1823 79.8205 87.9404 79.4415 88.6386C78.835 89.7517 77.9174 90.4978 76.6885 90.8449C76.1619 90.9926 75.6273 91.0364 75.0927 90.9806C74.179 90.8848 73.3611 90.5337 72.6589 89.9233C72.0365 89.3807 71.5976 88.7184 71.3423 87.9324C71.2465 87.6372 71.1747 87.334 71.1548 87.0228C71.1388 86.7395 71.1269 86.4522 71.1229 86.1689C71.1189 84.9122 71.1229 83.6554 71.1229 82.3986C71.1229 82.3268 71.1229 82.263 71.1229 82.1752Z" fill="#E2B625"/>
<path d="M57.8248 71.1317C57.8248 71.2234 57.8248 71.2873 57.8248 71.3551C57.8248 72.7555 57.8328 74.1599 57.8208 75.5603C57.8129 76.6056 57.4737 77.5432 56.7995 78.3531C56.1731 79.1071 55.3831 79.5979 54.4375 79.8293C53.6835 80.0128 52.9334 79.9929 52.1873 79.7774C51.3495 79.5341 50.6513 79.0752 50.0808 78.4209C49.59 77.8584 49.2748 77.208 49.1033 76.4899C48.9995 76.043 48.9716 75.5802 49.0235 75.1254C49.1073 74.3554 49.3586 73.6492 49.8134 73.0148C50.2842 72.3525 50.8867 71.8538 51.6288 71.5187C52.0676 71.3232 52.5225 71.1955 53.0012 71.1596C53.2127 71.1436 53.4242 71.1317 53.6356 71.1317C54.9562 71.1277 56.2808 71.1317 57.6014 71.1317C57.6692 71.1317 57.7371 71.1317 57.8248 71.1317Z" fill="#D3225B"/>
<path d="M82.1738 68.877C82.1738 68.4102 82.1738 67.9714 82.1738 67.5325C82.1738 66.547 82.1738 65.5655 82.1738 64.5801C82.1738 63.9856 82.2696 63.4071 82.489 62.8565C82.6765 62.3857 82.9399 61.9628 83.271 61.5798C83.662 61.125 84.1248 60.7739 84.6595 60.5145C85.4494 60.1315 86.2753 59.9959 87.1451 60.1036C87.8433 60.1914 88.4737 60.4347 89.0522 60.8297C90.0855 61.5399 90.7039 62.5174 90.9354 63.7462C91.0072 64.1252 91.0191 64.5123 90.9753 64.8953C90.9034 65.5536 90.7039 66.168 90.3568 66.7385C90.1773 67.0338 89.9738 67.3091 89.7304 67.5524C89.2397 68.0432 88.6652 68.4182 88.0029 68.6376C87.4962 68.8052 86.9775 68.881 86.4429 68.881C85.0943 68.877 83.7458 68.881 82.3973 68.881C82.3254 68.877 82.2616 68.877 82.1738 68.877Z" fill="#4CB77C"/>
<path d="M79.9356 64.7398C79.9356 64.6081 79.9316 64.4725 79.9316 64.3408C79.9316 60.742 79.9316 57.1433 79.9316 53.5446C79.9316 53.4169 79.9356 53.2932 79.9356 53.1655C79.9476 53.1935 79.9675 53.2214 79.9675 53.2533C79.9715 53.3331 79.9715 53.4129 79.9715 53.4927C79.9715 57.1273 79.9715 60.762 79.9675 64.3966C79.9715 64.5084 80.0114 64.6281 79.9356 64.7398Z" fill="#BDD5C9"/>
<path d="M71.1512 53.0459C71.1472 53.2095 71.1472 53.3691 71.1433 53.5326C71.1033 53.3691 71.0954 53.2055 71.1512 53.0459Z" fill="#ACD2BE"/>
<path d="M71.1428 64.4126C71.1468 64.5602 71.1468 64.7079 71.1508 64.8595C71.0909 64.7118 71.1029 64.5642 71.1428 64.4126Z" fill="#ACD2BE"/>
</g>
<defs>
<filter id="filter0_d" x="26" y="26" width="88" height="88" filterUnits="userSpaceOnUse" color-interpolation-filters="sRGB">
<feFlood flood-opacity="0" result="BackgroundImageFix"/>
<feColorMatrix in="SourceAlpha" type="matrix" values="0 0 0 0 0 0 0 0 0 0 0 0 0 0 0 0 0 0 127 0"/>
<feOffset/>
<feGaussianBlur stdDeviation="2"/>
<feColorMatrix type="matrix" values="0 0 0 0 0 0 0 0 0 0 0 0 0 0 0 0 0 0 0.4 0"/>
<feBlend mode="normal" in2="BackgroundImageFix" result="effect1_dropShadow"/>
<feBlend mode="normal" in="SourceGraphic" in2="effect1_dropShadow" result="shape"/>
</filter>
<clipPath id="clip0">
<rect width="42" height="42.004" fill="white" transform="translate(49 49)"/>
</clipPath>
</defs>
</svg>
