<svg width="140" height="140" viewBox="0 0 140 140" fill="none" xmlns="http://www.w3.org/2000/svg">
<rect opacity="0.01" width="140" height="140" fill="#0D0D0E"/>
<g filter="url(#filter0_d)">
<rect x="30" y="30" width="80" height="80" rx="12" fill="#25184A"/>
<rect x="46" y="46" width="48" height="48" fill="#590000" fill-opacity="0.01"/>
</g>
<g clip-path="url(#clip0)">
<path d="M69.9664 51H69.9998C70.5117 51.5753 71.0247 52.1508 71.5387 52.7263C72.1842 53.4479 72.8315 54.1683 73.4806 54.8874C74.5617 56.0885 75.6429 57.2894 76.7243 58.4903C77.8094 59.6952 78.8945 60.9004 79.9794 62.1059C80.4425 62.6193 80.9013 63.1393 81.365 63.6535C81.5263 63.8325 81.6959 64.004 81.8615 64.1789L81.8732 64.2217C81.8716 64.2214 81.87 64.2215 81.8684 64.2219C81.8668 64.2223 81.8654 64.2231 81.8641 64.2241C81.8628 64.2251 81.8618 64.2264 81.8611 64.2279C81.8603 64.2294 81.8599 64.231 81.8599 64.2327C81.7824 64.2282 81.7049 64.2204 81.6261 64.2204C73.8719 64.2204 66.1174 64.2204 58.3627 64.2204C58.2796 64.2204 58.1958 64.2145 58.1133 64.2111C58.116 64.2035 58.1176 64.1956 58.118 64.1875C58.5355 63.7286 58.9525 63.2694 59.3687 62.81C60.0142 62.0946 60.6585 61.3781 61.3016 60.6606L64.5133 57.0933C65.1577 56.3769 65.8019 55.6603 66.4458 54.9435C67.4573 53.8207 68.4689 52.6986 69.4806 51.5772C69.6485 51.3906 69.8048 51.1927 69.9664 51Z" fill="#FDEDB6"/>
<path d="M58.6871 52.2694C58.7385 52.2458 58.7873 52.2074 58.8417 52.2009C59.3354 52.1429 59.8287 52.0884 60.3215 52.0373C60.7051 51.9969 61.0894 51.9633 61.4734 51.9223C61.9225 51.8743 62.3709 51.8196 62.8196 51.7706C63.1869 51.7299 63.5542 51.6912 63.9215 51.6505C64.4146 51.596 64.9071 51.5392 65.4003 51.4858C65.7565 51.4475 66.1128 51.4143 66.4687 51.3763C66.9362 51.3266 67.4003 51.2736 67.8664 51.2243C68.2507 51.1828 68.6343 51.1459 69.0196 51.1017C69.2687 51.073 69.5168 51.0333 69.7652 50.999H69.9656C69.8039 51.1917 69.6477 51.3896 69.4797 51.5762C68.4694 52.699 67.4578 53.8205 66.445 54.9408C65.7995 55.6565 65.1553 56.3731 64.5125 57.0906L61.3014 60.661C60.6559 61.3771 60.0116 62.0936 59.3686 62.8104C58.9536 63.2705 58.5372 63.7292 58.1191 64.1865C58.1278 64.0054 58.1362 63.8244 58.1452 63.6433C58.1786 62.9913 58.212 62.3391 58.2454 61.6869C58.2667 61.2789 58.2898 60.8708 58.3121 60.4624C58.3462 59.8047 58.3796 59.1469 58.4123 58.489C58.4337 58.0754 58.4567 57.6616 58.4791 57.2477C58.5125 56.5898 58.5489 55.9322 58.5792 55.2742C58.6053 54.718 58.6223 54.1614 58.6494 53.6051C58.663 53.3278 58.6981 53.0516 58.7095 52.7739C58.7161 52.6066 58.6954 52.4378 58.6871 52.2694Z" fill="#FCD131"/>
<path d="M70.2337 51C70.4885 51.0342 70.7432 51.0712 70.9983 51.1027C71.4785 51.1609 71.9586 51.2184 72.4391 51.2711C72.7953 51.3105 73.1526 51.3396 73.5075 51.3779C74.0995 51.443 74.6908 51.5148 75.2828 51.5799C75.6501 51.6196 76.0174 51.6463 76.3846 51.6863C76.8608 51.7384 77.3356 51.801 77.8114 51.8527C78.1836 51.8935 78.5576 51.9212 78.9299 51.9605C79.2908 51.9999 79.6504 52.0513 80.0114 52.092C80.2628 52.1208 80.5155 52.1382 80.7673 52.1653C80.9296 52.1831 81.0908 52.2087 81.2528 52.231C81.2631 52.3436 81.2778 52.4562 81.2838 52.5692C81.3185 53.2269 81.3519 53.8845 81.384 54.542C81.4053 54.9558 81.4284 55.3697 81.4508 55.7832C81.4848 56.4352 81.5182 57.0872 81.5509 57.7392C81.5726 58.1586 81.5953 58.5779 81.6177 58.9976C81.6518 59.6551 81.6851 60.3127 81.7179 60.9704C81.7392 61.3843 81.7619 61.7978 81.7846 62.2116C81.8189 62.8691 81.853 63.5267 81.8868 64.1844C81.8782 64.1839 81.8697 64.1822 81.8614 64.1796C81.6945 64.0047 81.5275 63.8332 81.3649 63.6542C80.9012 63.1407 80.4424 62.6214 79.9793 62.1065C78.8948 60.9004 77.8098 59.6952 76.7242 58.491C75.6431 57.2901 74.5618 56.0891 73.4805 54.8881C72.8329 54.1674 72.1858 53.4468 71.5389 52.7263C71.0249 52.1521 70.512 51.5767 70 51H70.2337Z" fill="#FCD131"/>
<path d="M81.886 64.1834C81.852 63.5259 81.8179 62.8683 81.7838 62.2106C81.7625 61.7968 81.7398 61.3833 81.7171 60.9694C81.683 60.3117 81.6496 59.6541 81.6169 58.9966C81.5955 58.5769 81.5728 58.1576 81.5501 57.7382C81.5161 57.0862 81.4827 56.4342 81.4499 55.7822C81.4286 55.3687 81.4055 54.9548 81.3832 54.541C81.3491 53.8833 81.3157 53.2257 81.283 52.5682C81.277 52.4552 81.2623 52.3426 81.252 52.23C81.482 52.5353 81.7164 52.8376 81.9414 53.1471C84.6126 56.8213 87.2828 60.4955 89.9521 64.1697C89.9665 64.1857 89.9824 64.2003 89.9995 64.2132V64.2474H89.9631C87.339 64.2474 84.7151 64.2468 82.0914 64.2454C82.0202 64.2418 81.9493 64.2342 81.879 64.2228C81.8817 64.2094 81.884 64.1964 81.886 64.1834Z" fill="#FCAC00"/>
<path d="M58.6875 52.2695C58.6958 52.4376 58.7165 52.6067 58.7098 52.7741C58.6985 53.0517 58.6634 53.328 58.6497 53.6053C58.6227 54.1615 58.6057 54.7181 58.5796 55.2744C58.5489 55.9323 58.5129 56.5899 58.4795 57.2479C58.4581 57.6617 58.4351 58.0756 58.4127 58.4891C58.3786 59.1471 58.3452 59.8049 58.3125 60.4626C58.2912 60.871 58.2681 61.279 58.2457 61.6871C58.2117 62.3391 58.1783 62.9912 58.1456 63.6434C58.1366 63.8245 58.1282 64.0056 58.1195 64.1867C58.1192 64.1948 58.1176 64.2027 58.1149 64.2103L58.1119 64.25C56.0175 64.25 53.9231 64.2489 51.8287 64.2466C51.2277 64.2466 50.6287 64.2493 50.0287 64.2507L50.0314 64.2531L50 64.2137V64.1795C50.1272 64.0172 50.2591 63.8587 50.3803 63.692C53.1255 59.916 55.8702 56.1394 58.6144 52.3623C58.6371 52.3305 58.6628 52.301 58.6875 52.2695Z" fill="#FCAC00"/>
<path d="M50 64.2134L50.0322 64.2537C50.0214 64.2527 50.0106 64.2509 50 64.2485V64.2134Z" fill="#F39100"/>
<path d="M58.1133 64.2497L58.1163 64.21C58.1994 64.2134 58.2832 64.2192 58.3657 64.2192C66.1204 64.2192 73.8749 64.2192 81.6291 64.2192C81.7066 64.2192 81.7841 64.2271 81.8629 64.2312C81.7627 64.4462 81.6705 64.6639 81.5657 64.8758C81.0475 65.9176 80.5286 66.9581 80.0091 67.9974C79.5034 69.012 78.9974 70.0263 78.4912 71.0403C77.945 72.1357 77.3996 73.2317 76.8552 74.3282C76.367 75.3073 75.8788 76.2861 75.3904 77.2646C74.8508 78.3455 74.3116 79.4265 73.7727 80.5078C73.2772 81.5019 72.7815 82.496 72.2856 83.4901C71.5871 84.8963 70.8898 86.3032 70.1937 87.7109C70.1687 87.7622 70.166 87.8249 70.1527 87.882L70.146 87.8765L70.1036 87.9481C70.0525 87.9885 70.0482 88.1682 69.9303 88.0094L69.8969 87.9707V87.9731C69.8952 87.9395 69.8889 87.9063 69.8782 87.8745C69.5861 87.2925 69.2909 86.7106 68.9994 86.1287C68.4875 85.1044 67.9764 84.0797 67.4662 83.0543C66.9418 81.9979 66.4173 80.9418 65.8929 79.8861C65.3847 78.8662 64.8762 77.8466 64.3674 76.8272C63.8485 75.7872 63.3299 74.747 62.8114 73.7066C62.2955 72.6714 61.7794 71.6365 61.2632 70.6017C60.727 69.5262 60.1911 68.4504 59.6555 67.3744C59.2041 66.4652 58.7543 65.5553 58.3063 64.6447C58.2412 64.5133 58.1767 64.3815 58.1133 64.2497Z" fill="#FCAC00"/>
<path d="M70.1543 87.8814C70.1677 87.8239 70.1703 87.7613 70.1954 87.7103C70.8912 86.3026 71.5885 84.8957 72.2872 83.4895C72.7816 82.4944 73.2768 81.5006 73.773 80.5079C74.3114 79.427 74.8498 78.3463 75.388 77.2657C75.8759 76.2867 76.3642 75.3079 76.8528 74.3293C77.3988 73.2339 77.9442 72.1379 78.4889 71.0414C78.9955 70.0267 79.5023 69.0121 80.0094 67.9974C80.5278 66.9575 81.0457 65.9173 81.563 64.8769C81.6678 64.665 81.7613 64.4472 81.8601 64.2323C81.8603 64.2306 81.8607 64.229 81.8615 64.2276C81.8622 64.2261 81.8632 64.2248 81.8645 64.2238C81.8658 64.2228 81.8672 64.222 81.8687 64.2216C81.8703 64.2212 81.8719 64.2211 81.8735 64.2213H81.8795C81.9498 64.2327 82.0207 64.2403 82.0919 64.2439C84.716 64.2455 87.3399 64.2462 89.9637 64.246C89.4167 64.9039 88.8696 65.5616 88.3222 66.2191C87.4074 67.3131 86.4912 68.4061 85.5737 69.4978C84.751 70.4772 83.9243 71.4532 83.1029 72.4336C82.4371 73.2277 81.7783 74.0277 81.1126 74.8223C80.2879 75.8061 79.4575 76.7851 78.6331 77.7696C77.7947 78.7702 76.9636 79.7767 76.1246 80.7776C75.4732 81.556 74.8154 82.3283 74.1636 83.1054C73.4869 83.9132 72.8144 84.7249 72.1386 85.5338C71.5067 86.2908 70.8736 87.0466 70.2394 87.8013C70.2129 87.83 70.1844 87.8568 70.1543 87.8814Z" fill="#E96C00"/>
<path d="M58.1141 64.25C58.1809 64.3818 58.2437 64.5136 58.3088 64.6451C58.7586 65.5549 59.2084 66.4648 59.658 67.3747C60.1922 68.4514 60.7281 69.5272 61.2657 70.6021C61.7817 71.637 62.2977 72.672 62.8139 73.7069C63.3321 74.7469 63.8503 75.7871 64.3685 76.8275C64.8756 77.8474 65.384 78.8671 65.8937 79.8865C66.4197 80.9417 66.9454 81.9972 67.4707 83.0529C67.9816 84.0778 68.4926 85.1026 69.0039 86.1273C69.2954 86.7092 69.5906 87.2912 69.8827 87.8731C69.8934 87.9049 69.8997 87.9381 69.9014 87.9717C69.4033 87.3816 68.9051 86.7912 68.4069 86.2006C66.8043 84.289 65.2024 82.377 63.6012 80.4643C61.8686 78.3972 60.136 76.3296 58.4036 74.2615C56.9505 72.5271 55.497 70.7927 54.043 69.0582C52.7308 67.4925 51.4186 65.9266 50.1064 64.3606C50.0777 64.3264 50.055 64.2873 50.0293 64.2507C50.6303 64.2507 51.2293 64.2463 51.8293 64.2466C53.9235 64.2475 56.0184 64.2487 58.1141 64.25Z" fill="#E96C00"/>
<path d="M70.1055 87.9475L70.1479 87.876L70.1055 87.9475Z" fill="#E96C00"/>
<path d="M69.8984 87.9707L69.9327 88.0104L69.8984 87.9707Z" fill="#E96C00"/>
<path d="M81.879 64.2226H81.873C81.869 64.2086 81.8653 64.1946 81.8613 64.1802C81.8696 64.1828 81.8781 64.1844 81.8867 64.185C81.884 64.1969 81.8817 64.21 81.879 64.2226Z" fill="#FCAC00"/>
</g>
<defs>
<filter id="filter0_d" x="26" y="26" width="88" height="88" filterUnits="userSpaceOnUse" color-interpolation-filters="sRGB">
<feFlood flood-opacity="0" result="BackgroundImageFix"/>
<feColorMatrix in="SourceAlpha" type="matrix" values="0 0 0 0 0 0 0 0 0 0 0 0 0 0 0 0 0 0 127 0"/>
<feOffset/>
<feGaussianBlur stdDeviation="2"/>
<feColorMatrix type="matrix" values="0 0 0 0 0 0 0 0 0 0 0 0 0 0 0 0 0 0 0.4 0"/>
<feBlend mode="normal" in2="BackgroundImageFix" result="effect1_dropShadow"/>
<feBlend mode="normal" in="SourceGraphic" in2="effect1_dropShadow" result="shape"/>
</filter>
<clipPath id="clip0">
<rect width="40" height="37.0732" fill="white" transform="translate(50 51)"/>
</clipPath>
</defs>
</svg>
