<svg width="140" height="140" viewBox="0 0 140 140" fill="none" xmlns="http://www.w3.org/2000/svg">
<rect x="31" y="30" width="80" height="80" rx="12" fill="#FFD02F"/>
<rect x="47" y="46" width="48" height="48" fill="#590000" fill-opacity="0.01"/>
<path d="M54 86.4087C54.2474 85.2994 54.4815 84.241 54.7211 83.1816C56.1847 76.7243 57.6491 70.2663 59.1142 63.8075C59.2562 63.1785 59.3882 62.5462 59.5524 61.9216C59.5935 61.7729 59.6016 61.617 59.5761 61.4648C59.5506 61.3127 59.4922 61.1679 59.4049 61.0408C57.7312 58.2755 56.0653 55.505 54.4071 52.7293C54.2862 52.5263 54.1708 52.32 54.0166 52.0515C54.2374 52.0327 54.3916 52.0094 54.5458 52.0083C55.785 52.0005 57.023 52.016 58.2622 52.0005C58.5929 51.992 58.9172 52.0935 59.1841 52.2889C62.2023 54.3893 65.2254 56.4827 68.2532 58.5691C68.3947 58.6804 68.5624 58.7537 68.7402 58.7821C66.9763 56.5633 65.2113 54.3446 63.3864 52.0515C63.6515 52.0304 63.8046 52.0083 63.961 52.0083C65.1991 52.0083 66.4383 51.9927 67.6763 52.0171C67.9841 52.0238 68.2868 52.0968 68.5638 52.2312C71.5347 53.72 74.4978 55.2265 77.4621 56.7297C77.6387 56.833 77.8362 56.8955 78.0401 56.9128L72.7761 52.0549C73.0202 52.0327 73.1555 52.0083 73.292 52.0083C74.5866 52.0083 75.8801 52.0016 77.1748 52.0083C77.3947 52.0088 77.6129 52.0463 77.8204 52.1192C81.0746 53.3306 84.3235 54.5476 87.5673 55.7701C87.7016 55.8201 87.8292 55.8899 88 55.9698C84.5121 66.1287 81.0287 76.2761 77.5497 86.4121H72.7595L78.3063 59.0639L78.2464 59.0472C77.7686 60.34 77.2905 61.632 76.812 62.9234C74.0016 70.5603 71.1912 78.1975 68.3808 85.8352C68.1389 86.4942 68.2698 86.4442 67.5399 86.4453C66.192 86.4453 64.8441 86.4453 63.3953 86.4453C63.971 83.5909 64.6156 80.7986 65.2157 78.0008C65.8296 75.1697 66.4468 72.3401 67.0673 69.5119C67.6774 66.7019 68.2876 63.8907 68.8101 61.0518L58.7847 86.4087H54Z" fill="#050038"/>
</svg>
