<svg width="140" height="140" viewBox="0 0 140 140" fill="none" xmlns="http://www.w3.org/2000/svg">
<rect opacity="0.01" width="140" height="140" fill="#0B0B0C"/>
<g filter="url(#filter0_d)">
<rect x="31" y="30" width="80" height="80" rx="12" fill="#330000"/>
</g>
<g clip-path="url(#clip0)">
<path d="M66.8054 57.9852C67.8044 57.9852 68.8028 57.9942 69.8018 57.9801C70.0726 57.9761 70.2004 58.0672 70.2914 58.325C72.5272 64.6593 74.7685 70.9913 77.0152 77.3211C77.7377 79.3609 78.4603 81.4005 79.1828 83.4399C79.3524 83.9182 79.2959 83.9957 78.7757 83.9957H74.1121C73.6649 83.9957 73.5999 83.9499 73.4574 83.5349C72.8429 81.7467 72.2244 79.9596 71.6189 78.1685C71.5335 77.9164 71.4165 77.8248 71.1406 77.8259C68.2957 77.8372 65.45 77.8372 62.6036 77.8259C62.2983 77.8259 62.1643 77.9119 62.0711 78.2081C61.5215 79.9715 60.9477 81.7241 60.3801 83.4767C60.2269 83.9505 60.1579 83.9991 59.6502 83.9991H55.4959C54.9956 83.9991 54.9108 83.8826 55.0781 83.4004C56.2088 80.1379 57.3411 76.8759 58.4748 73.6146C59.7103 70.0592 60.9454 66.504 62.1802 62.949C62.4979 62.0337 62.8405 61.1241 63.0989 60.1918C63.2623 59.6016 63.3047 58.9746 63.3731 58.3612C63.4104 58.0253 63.416 57.9863 63.753 57.9858C64.7706 57.9846 65.7881 57.9844 66.8054 57.9852ZM66.7929 62.4894L66.7217 62.4843C66.6527 62.7715 66.5979 63.0621 66.5125 63.3442C65.591 66.4028 64.6659 69.4605 63.7372 72.5172C63.6309 72.8677 63.6365 72.8926 63.9933 72.8926C65.8778 72.8926 67.7605 72.8926 69.6412 72.8926C69.7619 72.8841 69.8819 72.8671 70.0002 72.8417C68.9232 69.3636 67.8581 65.9262 66.7929 62.4894Z" fill="#FF9A00"/>
<path d="M87.4144 74.1599C87.4144 77.269 87.4144 80.3784 87.4144 83.4883C87.4144 83.9875 87.3997 84.0022 86.9107 84.0022C85.4227 84.0022 83.9339 84.0022 82.4444 84.0022C82.052 84.0022 81.9785 83.9304 81.9785 83.5443C81.9785 77.2706 81.9785 70.9969 81.9785 64.7229C81.9785 64.3509 82.0232 64.3045 82.4065 64.3039C83.9326 64.3017 85.4591 64.3017 86.9859 64.3039C87.3737 64.3039 87.4144 64.3503 87.4144 64.7523C87.4148 67.8878 87.4148 71.0236 87.4144 74.1599Z" fill="#FF9A00"/>
<path d="M87.7568 59.0391C87.8512 60.53 86.6854 62.1531 84.7344 62.1237C82.9111 62.0966 81.6944 60.8482 81.6973 58.9537C81.6973 57.2701 83.0293 56.0252 84.7864 56.0009C86.8618 55.972 87.8523 57.6427 87.7568 59.0391Z" fill="#FF9A00"/>
</g>
<defs>
<filter id="filter0_d" x="27" y="26" width="88" height="88" filterUnits="userSpaceOnUse" color-interpolation-filters="sRGB">
<feFlood flood-opacity="0" result="BackgroundImageFix"/>
<feColorMatrix in="SourceAlpha" type="matrix" values="0 0 0 0 0 0 0 0 0 0 0 0 0 0 0 0 0 0 127 0"/>
<feOffset/>
<feGaussianBlur stdDeviation="2"/>
<feColorMatrix type="matrix" values="0 0 0 0 0 0 0 0 0 0 0 0 0 0 0 0 0 0 0.4 0"/>
<feBlend mode="normal" in2="BackgroundImageFix" result="effect1_dropShadow"/>
<feBlend mode="normal" in="SourceGraphic" in2="effect1_dropShadow" result="shape"/>
</filter>
<clipPath id="clip0">
<rect width="32.7637" height="28" fill="white" transform="translate(55 56)"/>
</clipPath>
</defs>
</svg>
