<svg width="140" height="140" viewBox="0 0 140 140" fill="none" xmlns="http://www.w3.org/2000/svg">
<rect opacity="0.01" width="140" height="140" fill="#0B0B0C"/>
<g filter="url(#filter0_d)">
<rect x="31" y="30" width="80" height="80" rx="12" fill="white"/>
</g>
<g clip-path="url(#clip0)">
<path d="M54 49.0049C54.0081 49.0017 54.0167 49.0002 54.0253 49.0005C54.0274 49.0829 54.0309 49.1653 54.0309 49.2476V89.4995C54.0309 89.5924 54.0282 89.6852 54.0271 89.7778L54 89.7743V49.0049Z" fill="#AD91D3"/>
<path d="M56.998 46.0256C57.0001 46.0172 57.0018 46.0086 57.003 46H76.3294C76.3285 46.0097 76.3285 46.0194 76.3294 46.0291L76.3003 46.0335C76.254 46.0335 76.2074 46.0303 76.1611 46.0303H57.2463C57.164 46.0309 57.0816 46.0274 56.998 46.0256Z" fill="#A98BD1"/>
<path d="M56.9981 46.0264C57.0804 46.0281 57.1628 46.0316 57.2452 46.0316H76.1609C76.2071 46.0316 76.2537 46.0336 76.3 46.0348C76.3 46.0814 76.3 46.1277 76.3 46.1742C76.3 49.9422 76.3 53.71 76.3 57.4776C76.3 57.6898 76.3023 57.6813 76.5037 57.6813C80.3264 57.6813 84.1497 57.6813 87.9736 57.6813C87.9829 57.6976 87.9992 57.7133 88.0004 57.7302C88.0039 57.7818 88.0004 57.8336 88.0004 57.8851C88.0004 68.2679 88.0004 78.6506 88.0004 89.0332C88.0004 89.351 87.9951 89.6668 87.9518 89.985C87.9063 90.3194 87.8228 90.6358 87.6738 90.935C87.2477 91.7922 86.5715 92.3534 85.6544 92.6232C85.3784 92.7041 85.0938 92.7312 84.8076 92.744C84.7614 92.7461 84.7148 92.744 84.6685 92.744C75.5586 92.744 66.449 92.744 57.3395 92.744C57.139 92.744 56.9352 92.7475 56.739 92.7149C56.2991 92.6458 55.8782 92.4864 55.5029 92.2466C54.868 91.8353 54.4204 91.2753 54.1776 90.5561C54.0912 90.3031 54.0254 90.0473 54.0271 89.7775C54.0271 89.6849 54.0309 89.592 54.0309 89.4992V49.2485C54.0309 49.1661 54.0274 49.0838 54.0254 49.0014C54.0656 48.1969 54.3884 47.5169 54.9504 46.9511C55.5125 46.3853 56.2 46.0764 56.9981 46.0264ZM66.7614 64.093C66.7599 64.1084 66.757 64.1238 66.757 64.1393C66.757 64.9704 66.757 65.8014 66.757 66.6323C66.7589 66.6629 66.7627 66.6935 66.7684 66.7237H80.4931C80.5085 66.7233 80.5239 66.7217 80.5391 66.719C80.5438 66.7175 80.548 66.7148 80.5513 66.7111C80.5537 66.7091 80.556 66.7069 80.558 66.7045V64.0636H66.9608C66.904 64.0636 66.8475 64.0665 66.7908 64.068L66.7614 64.093ZM66.764 79.4614H80.4789C80.4993 79.4609 80.5197 79.459 80.54 79.4559C80.5448 79.4544 80.549 79.4516 80.5522 79.4477C80.5559 79.4441 80.5593 79.4402 80.5624 79.4361C80.5898 78.7454 80.5767 76.9489 80.5394 76.8133C75.953 76.8514 71.3629 76.7597 66.7652 76.8284L66.764 79.4614ZM80.5455 73.0762C80.586 72.1946 80.5557 71.3249 80.5668 70.4499H66.7646V73.0762H80.5455ZM62.7554 70.4415C62.0143 70.4394 61.4165 71.0748 61.4377 71.7923C61.4604 72.5252 62.0472 73.1088 62.7604 73.0975C63.5241 73.0855 64.1045 72.5535 64.0908 71.7402C64.078 70.9913 63.5471 70.4569 62.7554 70.4415ZM62.7822 76.8255C62.0755 76.7606 61.434 77.4242 61.434 78.137C61.434 78.8499 62.0688 79.4733 62.7668 79.4637C63.4848 79.4541 64.0888 78.9145 64.0952 78.1312C64.1001 77.4094 63.5072 76.7911 62.7822 76.8249V76.8255ZM62.7557 66.735C62.8293 66.7231 62.9094 66.7088 62.9886 66.6978C63.2339 66.6659 63.4631 66.5579 63.6438 66.3889C63.8795 66.1701 64.0326 65.9151 64.0745 65.5806C64.0986 65.3796 64.0833 65.1757 64.0297 64.9805C63.959 64.7069 63.7838 64.495 63.5614 64.3282C63.4285 64.2228 63.2726 64.1501 63.1064 64.116C63.0145 64.0991 62.9219 64.1116 62.8352 64.0895C62.7074 64.0572 62.5843 64.0875 62.4638 64.1058C62.2804 64.1349 62.1171 64.2222 61.9689 64.3386C61.6293 64.6006 61.454 64.9528 61.4348 65.3763C61.4235 65.631 61.5061 65.8688 61.6409 66.0851C61.8962 66.492 62.276 66.6899 62.7557 66.735V66.735Z" fill="#703DB3"/>
<path d="M87.9704 57.6802C84.1478 57.6802 80.3245 57.6802 76.5006 57.6802C76.2995 57.6802 76.2969 57.6892 76.2969 57.4764C76.2969 53.7087 76.2969 49.9409 76.2969 46.1731C76.2969 46.1265 76.2969 46.0802 76.2969 46.0337L76.326 46.0293C76.3638 46.0639 76.4025 46.0977 76.4389 46.1341C80.2507 49.9451 84.0613 53.7556 87.8706 57.5655C87.9061 57.6013 87.9378 57.6429 87.9704 57.6802Z" fill="#532B86"/>
<path d="M66.7901 64.0674C66.8469 64.0659 66.9033 64.063 66.9601 64.063H80.5574V66.7039C80.5553 66.7063 80.5531 66.7085 80.5507 66.7105C80.5473 66.7142 80.5431 66.7169 80.5384 66.7184C80.5232 66.7211 80.5079 66.7227 80.4925 66.7231H66.7692C66.7635 66.6929 66.7597 66.6623 66.7578 66.6317C66.7578 65.8006 66.7578 64.9696 66.7578 64.1387C66.7578 64.1232 66.7607 64.1078 66.7622 64.0924L66.7901 64.0674Z" fill="#FEFEFE"/>
<path d="M66.7656 79.46V76.8267C71.3645 76.758 75.9535 76.8497 80.5399 76.8115C80.5771 76.9472 80.5902 78.7437 80.5629 79.4344C80.5598 79.4385 80.5564 79.4424 80.5527 79.446C80.5495 79.4499 80.5452 79.4527 80.5404 79.4542C80.5202 79.4573 80.4998 79.4591 80.4793 79.4597L66.7656 79.46Z" fill="#FEFEFE"/>
<path d="M80.5466 73.0754H66.7656V70.4497H80.5687C80.5576 71.3229 80.5879 72.1938 80.5466 73.0754Z" fill="#FEFEFE"/>
<path d="M62.7558 70.4409C63.5463 70.4563 64.0784 70.9908 64.0912 71.7397C64.1049 72.5529 63.5245 73.085 62.7607 73.097C62.0476 73.1083 61.4608 72.5247 61.4381 71.7918C61.4157 71.0743 62.0147 70.4389 62.7558 70.4409Z" fill="#FDFDFE"/>
<path d="M62.7818 76.8242C63.5069 76.7898 64.101 77.4081 64.0948 78.1299C64.0884 78.9132 63.4836 79.4528 62.7664 79.4624C62.0678 79.472 61.4336 78.8512 61.4336 78.1357C61.4336 77.4203 62.0751 76.7598 62.7818 76.8242Z" fill="#FDFDFE"/>
<path d="M62.7566 66.7346C62.2769 66.6894 61.8971 66.4915 61.6427 66.084C61.5079 65.8678 61.4252 65.63 61.4366 65.3753C61.4558 64.9518 61.631 64.601 61.9707 64.3376C62.1191 64.2212 62.2824 64.1339 62.4655 64.1048C62.586 64.0864 62.7091 64.0561 62.8369 64.0885C62.9242 64.1106 63.0162 64.0981 63.1082 64.1149C63.2744 64.149 63.4302 64.2217 63.5631 64.3271C63.7855 64.4939 63.9607 64.7055 64.0315 64.9794C64.0851 65.1747 64.1003 65.3785 64.0763 65.5796C64.0344 65.914 63.8813 66.169 63.6455 66.3879C63.4648 66.5569 63.2356 66.6649 62.9903 66.6967C62.9103 66.7084 62.8302 66.7226 62.7566 66.7346Z" fill="#FDFDFE"/>
<path d="M66.7917 64.0674L66.7617 64.0932L66.7917 64.0674Z" fill="#EBE4F4"/>
</g>
<defs>
<filter id="filter0_d" x="27" y="26" width="88" height="88" filterUnits="userSpaceOnUse" color-interpolation-filters="sRGB">
<feFlood flood-opacity="0" result="BackgroundImageFix"/>
<feColorMatrix in="SourceAlpha" type="matrix" values="0 0 0 0 0 0 0 0 0 0 0 0 0 0 0 0 0 0 127 0"/>
<feOffset/>
<feGaussianBlur stdDeviation="2"/>
<feColorMatrix type="matrix" values="0 0 0 0 0 0 0 0 0 0 0 0 0 0 0 0 0 0 0.4 0"/>
<feBlend mode="normal" in2="BackgroundImageFix" result="effect1_dropShadow"/>
<feBlend mode="normal" in="SourceGraphic" in2="effect1_dropShadow" result="shape"/>
</filter>
<clipPath id="clip0">
<rect width="34" height="46.7439" fill="white" transform="translate(54 46)"/>
</clipPath>
</defs>
</svg>
