<svg width="140" height="140" viewBox="0 0 140 140" fill="none" xmlns="http://www.w3.org/2000/svg">
<rect opacity="0.01" width="140" height="140" fill="#0F0E10"/>
<rect x="30" y="30" width="80" height="80" rx="12" fill="#006DE4"/>
<rect x="46" y="46" width="48" height="48" fill="#590000" fill-opacity="0.01"/>
<path d="M56.4577 79C51.7814 78.9994 47.9945 75.1972 48 70.4978C48.0049 65.935 51.5815 62 56.465 62C61.2984 62 64.9111 65.8736 64.9258 70.5046C64.9404 75.1935 61.1328 79.0006 56.4577 79ZM56.4815 66.4392C54.35 66.3525 52.4012 68.1866 52.4012 70.4849C52.3972 71.0213 52.4989 71.5532 52.7005 72.0497C52.9021 72.5463 53.1996 72.9978 53.5757 73.378C53.9518 73.7582 54.3992 74.0597 54.8919 74.2649C55.3846 74.4701 55.9128 74.5751 56.4461 74.5737C58.7139 74.5737 60.5252 72.7783 60.5313 70.5231C60.5362 68.2192 58.6296 66.379 56.4815 66.4392Z" fill="white"/>
<path d="M73.8046 70.5089C73.8046 68.5315 73.7991 66.5542 73.8046 64.5768C73.8049 63.9846 74.0277 63.4144 74.4285 62.9805C74.8292 62.5466 75.3782 62.2812 75.9653 62.2374C76.5525 62.1936 77.1344 62.3747 77.5944 62.7444C78.0544 63.114 78.3584 63.645 78.4455 64.2307C78.4723 64.4139 78.4856 64.5988 78.4852 64.784C78.4877 68.6059 78.4877 72.4276 78.4852 76.2491C78.4852 77.3928 77.9497 78.2499 77.0212 78.6243C76.6686 78.7708 76.2855 78.8278 75.9059 78.7903C75.5262 78.7529 75.1614 78.6221 74.8438 78.4095C74.5262 78.1969 74.2654 77.9091 74.0844 77.5713C73.9034 77.2335 73.8077 76.8561 73.8059 76.4723C73.7949 74.4814 73.8053 72.4967 73.8046 70.5089Z" fill="white"/>
<path d="M67.0113 70.4774C67.0113 68.5203 67.0082 66.5633 67.0113 64.6062C67.0113 63.3968 67.7876 62.4739 68.9674 62.255C70.3122 62.006 71.6399 63.09 71.6613 64.474C71.679 65.6213 71.6668 66.7692 71.6668 67.9172C71.6668 70.7455 71.6668 73.5738 71.6668 76.4021C71.6668 77.6263 70.8825 78.5541 69.6899 78.7693C68.3378 79.0097 67.0229 77.9245 67.0113 76.5331C66.9972 74.5145 67.0076 72.496 67.0076 70.4774H67.0113Z" fill="white"/>
<path d="M87.3147 70.5283C87.3147 69.6374 87.3098 68.7452 87.3147 67.8562C87.3232 66.5926 88.1203 65.655 89.3576 65.441C90.5642 65.2326 91.8638 66.2403 91.9598 67.47C91.9922 67.9004 92.0008 68.3308 91.9989 68.7612C91.9934 70.3371 92.0038 71.9142 91.9592 73.4894C91.928 74.5961 90.9903 75.5301 89.912 75.6205C88.7127 75.7213 87.6503 74.9749 87.3954 73.8436C87.3446 73.6161 87.3391 73.3781 87.3134 73.1445C87.3122 73.124 87.3122 73.1035 87.3134 73.083C87.3139 72.2296 87.3143 71.378 87.3147 70.5283Z" fill="white"/>
<path d="M85.2181 70.5059C85.1692 71.0119 85.1802 71.5339 85.0591 72.0221C84.8042 73.0489 83.7051 73.7928 82.7014 73.6877C81.5192 73.5647 80.5937 72.6947 80.5356 71.556C80.4941 70.742 80.4812 69.9101 80.5968 69.1083C80.7704 67.9573 81.9263 67.1967 83.1489 67.3148C84.2241 67.4187 85.1545 68.4443 85.1728 69.5491C85.1783 69.8664 85.1728 70.1843 85.1728 70.5016L85.2181 70.5059Z" fill="white"/>
</svg>
