<svg width="140" height="140" viewBox="0 0 140 140" fill="none" xmlns="http://www.w3.org/2000/svg">
<rect opacity="0.01" width="140" height="140" fill="#0B0B0C"/>
<g filter="url(#filter0_d)">
<rect x="30" y="30" width="80" height="80" rx="12" fill="#FF5065"/>
</g>
<g clip-path="url(#clip0)">
<path d="M69.7765 92.8205C69.7765 90.5743 69.7141 88.752 69.7991 86.9438C69.8473 85.9049 69.476 85.554 68.461 85.4782C66.1647 85.3097 63.8485 85.1974 61.5919 84.765C56.3415 83.7935 52.9849 80.7358 51.8991 75.4741C50.7109 69.7897 50.7003 63.9256 51.8679 58.2371C52.9849 52.717 56.5258 49.6313 62.0086 48.7131C67.775 47.7473 73.5725 47.6799 79.302 49.0248C83.7331 50.0693 86.7211 52.849 87.8097 57.2993C89.2953 63.3753 89.4484 69.5665 87.9401 75.6088C86.1938 82.603 81.4537 87.4015 75.0835 90.6388C73.4818 91.4559 71.7496 92.0203 69.7765 92.8205ZM72.2614 66.6326C70.6671 66.3584 69.0294 66.3681 67.44 66.6691C66.2611 66.8924 65.0942 67.1342 63.9676 67.5056C62.2666 68.0671 61.7875 69.3952 62.2666 71.1136C63.137 74.1488 66.2356 76.4062 69.6205 76.4708C73.2607 76.5382 76.501 74.4829 77.5301 71.4533C78.1992 69.4879 77.686 68.0559 75.6931 67.4157C74.5935 67.0544 73.4431 66.8359 72.2614 66.6326ZM66.5248 60.006C66.5191 60.4613 66.6047 60.9131 66.7764 61.3354C66.9482 61.7577 67.2028 62.1421 67.5254 62.4664C67.8481 62.7907 68.2325 63.0484 68.6563 63.2246C69.0802 63.4009 69.5351 63.4922 69.9948 63.4933C70.4616 63.4887 70.923 63.393 71.3525 63.2118C71.7821 63.0306 72.1714 62.7674 72.4982 62.4372C72.825 62.107 73.083 61.7163 73.2573 61.2873C73.4317 60.8584 73.519 60.3996 73.5144 59.9372C73.5097 59.4748 73.4132 59.0179 73.2302 58.5925C73.0473 58.1671 72.7815 57.7815 72.4481 57.4578C72.1147 57.1341 71.7201 56.8786 71.287 56.706C70.8539 56.5333 70.3907 56.4468 69.9239 56.4514C69.4649 56.4634 69.0129 56.5649 68.5935 56.7501C68.1742 56.9353 67.7959 57.2006 67.4802 57.5307C67.1645 57.8609 66.9176 58.2494 66.7536 58.6742C66.5897 59.0989 66.5119 59.5515 66.5248 60.006Z" fill="white"/>
</g>
<defs>
<filter id="filter0_d" x="26" y="26" width="88" height="88" filterUnits="userSpaceOnUse" color-interpolation-filters="sRGB">
<feFlood flood-opacity="0" result="BackgroundImageFix"/>
<feColorMatrix in="SourceAlpha" type="matrix" values="0 0 0 0 0 0 0 0 0 0 0 0 0 0 0 0 0 0 127 0"/>
<feOffset/>
<feGaussianBlur stdDeviation="2"/>
<feColorMatrix type="matrix" values="0 0 0 0 0 0 0 0 0 0 0 0 0 0 0 0 0 0 0.4 0"/>
<feBlend mode="normal" in2="BackgroundImageFix" result="effect1_dropShadow"/>
<feBlend mode="normal" in="SourceGraphic" in2="effect1_dropShadow" result="shape"/>
</filter>
<clipPath id="clip0">
<rect width="38" height="44.8205" fill="white" transform="translate(51 48)"/>
</clipPath>
</defs>
</svg>
