<svg width="140" height="140" viewBox="0 0 140 140" fill="none" xmlns="http://www.w3.org/2000/svg">
<rect x="30" y="30" width="80" height="80" rx="12" fill="#006DE4"/>
<rect x="46" y="46" width="48" height="48" fill="#590000" fill-opacity="0.01"/>
<path d="M56.4577 79C51.7814 78.9994 47.9945 75.1972 48 70.4978C48.0049 65.935 51.5815 62 56.465 62C61.2984 62 64.9111 65.8736 64.9258 70.5046C64.9404 75.1935 61.1328 79.0006 56.4577 79ZM56.4815 66.4392C54.35 66.3525 52.4012 68.1866 52.4012 70.4849C52.3972 71.0213 52.4989 71.5532 52.7005 72.0497C52.9021 72.5463 53.1996 72.9978 53.5757 73.378C53.9518 73.7582 54.3992 74.0597 54.8919 74.2649C55.3846 74.4701 55.9128 74.5751 56.4461 74.5737C58.7139 74.5737 60.5252 72.7783 60.5313 70.5231C60.5362 68.2192 58.6296 66.379 56.4815 66.4392Z" fill="white"/>
<path d="M73.8046 70.5084C73.8046 68.531 73.7991 66.5537 73.8046 64.5763C73.8049 63.9841 74.0277 63.4139 74.4285 62.98C74.8292 62.5461 75.3782 62.2807 75.9653 62.2369C76.5525 62.1931 77.1344 62.3742 77.5944 62.7439C78.0544 63.1136 78.3584 63.6445 78.4455 64.2302C78.4723 64.4134 78.4856 64.5983 78.4852 64.7835C78.4877 68.6054 78.4877 72.4271 78.4852 76.2486C78.4852 77.3923 77.9497 78.2494 77.0212 78.6238C76.6686 78.7703 76.2855 78.8273 75.9059 78.7898C75.5262 78.7524 75.1614 78.6216 74.8438 78.409C74.5262 78.1964 74.2654 77.9086 74.0844 77.5708C73.9034 77.233 73.8077 76.8556 73.8059 76.4718C73.7949 74.481 73.8053 72.4962 73.8046 70.5084Z" fill="white"/>
<path d="M67.0113 70.4779C67.0113 68.5208 67.0082 66.5638 67.0113 64.6067C67.0113 63.3973 67.7876 62.4744 68.9674 62.2555C70.3122 62.0065 71.6399 63.0905 71.6613 64.4745C71.679 65.6218 71.6668 66.7697 71.6668 67.9177C71.6668 70.746 71.6668 73.5743 71.6668 76.4026C71.6668 77.6268 70.8825 78.5546 69.6899 78.7698C68.3378 79.0102 67.0229 77.925 67.0113 76.5336C66.9972 74.515 67.0076 72.4965 67.0076 70.4779H67.0113Z" fill="white"/>
<path d="M87.3147 70.5288C87.3147 69.6379 87.3098 68.7457 87.3147 67.8566C87.3232 66.5931 88.1203 65.6555 89.3576 65.4415C90.5642 65.2331 91.8638 66.2408 91.9598 67.4705C91.9922 67.9009 92.0008 68.3313 91.9989 68.7617C91.9934 70.3376 92.0038 71.9147 91.9592 73.4899C91.928 74.5966 90.9903 75.5306 89.912 75.621C88.7127 75.7218 87.6503 74.9754 87.3954 73.8441C87.3446 73.6166 87.3391 73.3786 87.3134 73.145C87.3122 73.1245 87.3122 73.104 87.3134 73.0835C87.3139 72.2301 87.3143 71.3785 87.3147 70.5288Z" fill="white"/>
<path d="M85.2181 70.5059C85.1692 71.0119 85.1802 71.5339 85.0591 72.0221C84.8042 73.0489 83.7051 73.7928 82.7014 73.6877C81.5192 73.5647 80.5937 72.6947 80.5356 71.556C80.4941 70.742 80.4812 69.9101 80.5968 69.1083C80.7704 67.9573 81.9263 67.1967 83.1489 67.3148C84.2241 67.4187 85.1545 68.4443 85.1728 69.5491C85.1783 69.8664 85.1728 70.1843 85.1728 70.5016L85.2181 70.5059Z" fill="white"/>
</svg>
