<svg width="140" height="140" viewBox="0 0 140 140" fill="none" xmlns="http://www.w3.org/2000/svg">
<rect opacity="0.01" width="140" height="140" fill="#0D0D0E"/>
<g filter="url(#filter0_d)">
<rect x="30" y="30" width="80" height="80" rx="12" fill="white"/>
</g>
<g clip-path="url(#clip0)">
<path d="M90.9179 88.2907C90.9271 88.2262 90.9409 88.1617 90.9501 88.0972C90.9639 87.9682 90.9962 87.8391 90.9962 87.7147C91.0008 84.904 90.9962 82.0932 90.9962 79.2779C90.9962 79.0705 90.9916 78.8632 90.987 78.6558C90.987 77.9508 90.987 77.2458 90.987 76.5362C90.9916 76.4579 90.9962 76.3842 90.9962 76.3059C90.9962 68.4311 90.9962 60.5564 90.9962 52.6817C90.9962 52.5435 90.9916 52.4053 90.987 52.267C90.9778 52.1979 90.9685 52.1242 90.9593 52.0551C90.9639 52.0505 90.9685 52.0412 90.9685 52.0366C90.9685 52.0228 90.9639 52.009 90.9593 51.9952C90.9593 51.9813 90.9639 51.9629 90.9639 51.9491C90.7981 50.3778 89.448 49.0185 87.6878 49.0047C85.1166 48.9863 82.5455 49.0001 79.9744 49.0001C79.4998 49.0001 79.0344 49.0922 78.6012 49.2996C77.4631 49.8433 76.8318 50.7603 76.6337 51.9905C76.6291 52.1749 76.6245 52.3592 76.6245 52.5435C76.6245 55.6906 76.6245 58.8377 76.6245 61.9802C76.6245 62.0724 76.6199 62.1645 76.6153 62.2567C72.9429 62.2567 69.2705 62.2567 65.5981 62.2567C63.8194 62.2567 62.4279 63.5238 62.2666 65.2978C62.262 65.3992 62.2574 65.496 62.2574 65.5974C62.2574 69.2698 62.2528 72.9422 62.2528 76.6192C62.1606 76.6192 62.0685 76.6238 61.9763 76.6238C58.7647 76.6238 55.5531 76.6284 52.3414 76.6238C51.595 76.6238 50.9222 76.8265 50.3278 77.2735C49.6228 77.8034 49.1713 78.5038 49.0515 79.3931C49.0469 79.4391 49.0423 79.4852 49.0377 79.5267C49.0284 79.559 49.0238 79.5912 49.0146 79.6235C49.0054 79.7617 48.9962 79.8953 48.9962 80.0336C48.9962 81.9919 48.9916 83.9502 48.9962 85.9131C48.9962 86.5351 49.0008 87.1526 49.0054 87.7746C49.0146 87.8299 49.0238 87.8852 49.0377 87.9405C49.0331 87.959 49.0331 87.9774 49.0284 87.9958C49.0607 88.1847 49.0745 88.3736 49.1252 88.558C49.5445 90.0232 50.8439 90.9955 52.3921 90.9955C60.4005 90.9955 68.4088 90.9955 76.4171 90.9955C76.4863 90.9955 76.5554 90.9909 76.6245 90.9863C76.6706 90.9909 76.7167 90.9955 76.7627 90.9955C80.3983 90.9955 84.0384 90.9955 87.674 90.9863C87.9827 90.9863 88.3006 90.9402 88.5955 90.8434C89.8535 90.4333 90.646 89.5901 90.9225 88.2815C90.9271 88.2861 90.9179 88.2907 90.9179 88.2907Z" fill="white"/>
<path d="M62.2616 76.6284C62.2616 72.956 62.2616 69.2836 62.2662 65.6066C62.2662 65.5052 62.2708 65.4084 62.2754 65.3071C62.3077 65.2656 62.3584 65.2287 62.3676 65.1826C62.5058 64.556 62.7961 64.0169 63.2477 63.5515C63.8743 62.9018 64.63 62.547 65.5285 62.5424C69.2286 62.5332 72.9286 62.5378 76.6287 62.5378C76.6287 62.6161 76.6333 62.6898 76.6333 62.7682C76.6333 66.9613 76.6333 71.1589 76.6333 75.352C76.6333 80.4759 76.6333 85.5952 76.6379 90.719L76.6287 90.7144C71.2882 90.7144 65.9478 90.7144 60.6074 90.7144C60.6074 86.1112 60.6074 81.508 60.6074 76.9049C61.1511 76.9049 61.6995 76.9049 62.2616 76.9049C62.2616 76.7897 62.2616 76.7067 62.2616 76.6284Z" fill="#F5CA15"/>
<path d="M90.9925 52.2763C90.9971 52.4145 91.0017 52.5527 91.0017 52.691C91.0017 60.5657 91.0017 68.4404 91.0017 76.3151C91.0017 76.3934 90.9971 76.4672 90.9925 76.5455C90.9141 76.504 90.822 76.4764 90.7621 76.4165C90.4442 76.0939 90.1446 75.7576 89.8221 75.4396C88.6195 74.2462 87.4076 73.062 86.205 71.8686C85.0669 70.7397 83.938 69.6016 82.8044 68.468C82.7445 68.4081 82.68 68.3575 82.6155 68.3022C82.5602 68.2377 82.5095 68.1731 82.4496 68.1132C81.8552 67.5142 81.2516 66.9244 80.6618 66.3208C80.4452 66.0996 80.2471 65.86 80.0352 65.6296C80.049 65.5329 80.0812 65.4407 80.0812 65.344C80.0812 59.9897 80.0812 54.6355 80.0812 49.2858C82.528 49.2858 84.9701 49.2812 87.4168 49.2904C87.7993 49.2904 88.2002 49.3227 88.5688 49.4333C89.7346 49.7835 90.4994 50.5668 90.8635 51.7326C90.8911 51.8247 90.928 51.9123 90.9648 52.0044C90.9694 52.0182 90.974 52.0321 90.974 52.0459C90.974 52.0505 90.9694 52.0597 90.9648 52.0643C90.974 52.1334 90.9833 52.2026 90.9925 52.2763Z" fill="#E88325"/>
<path d="M60.607 76.9093C60.607 81.5125 60.607 86.1157 60.607 90.7189C57.8562 90.7189 55.1007 90.7327 52.3499 90.7143C51.0044 90.7051 49.9953 90.0876 49.3778 88.8804C49.235 88.5993 49.1474 88.2906 49.0323 87.9957C49.0369 87.9773 49.0369 87.9588 49.0415 87.9404C49.0323 87.8851 49.023 87.8298 49.0092 87.7745C49.0046 87.1571 49 86.5396 49 85.9176C49 83.9593 49 82.001 49 80.038C49 79.8998 49.0138 79.7662 49.0184 79.6279C49.0276 79.5957 49.0323 79.5634 49.0415 79.5312C49.0461 79.4851 49.0507 79.439 49.0553 79.3976C49.0829 79.3653 49.1198 79.3376 49.1336 79.3008C49.2534 79.0381 49.341 78.7571 49.4884 78.5129C50.1059 77.4991 51.032 76.9324 52.2116 76.9186C55.0132 76.8863 57.8101 76.9093 60.607 76.9093Z" fill="#F7CF11"/>
<path d="M90.9908 78.6608C90.9954 78.8682 91 79.0755 91 79.2829C91 82.0936 91 84.9044 91 87.7197C91 87.8488 90.9678 87.9778 90.954 88.1022C90.9447 88.1667 90.9309 88.2312 90.9217 88.2957L90.9263 88.2911C90.9033 88.328 90.8664 88.3602 90.8526 88.3971C90.636 89.0238 90.2766 89.5536 89.7559 89.973C89.1615 90.4476 88.4888 90.7194 87.7285 90.724C84.2588 90.7332 80.7892 90.7286 77.3195 90.7286C77.3195 89.9545 77.301 89.1804 77.3241 88.4017C77.3471 87.5953 77.4209 86.789 77.4531 85.978C77.4715 85.4665 77.4531 84.9505 77.4623 84.4344C77.4623 84.3008 77.5084 84.1671 77.536 84.0335C77.5545 83.9321 77.5959 83.8262 77.5959 83.7248C77.6006 82.8032 77.6006 81.8817 77.5959 80.9647C77.5959 80.7297 77.6743 80.5408 77.8448 80.3703C78.5037 79.7206 79.158 79.0571 79.8169 78.4028C79.8722 78.3475 79.9367 78.2968 80.0427 78.2047C80.0611 78.3475 80.0842 78.4304 80.0842 78.518C80.0888 79.4303 80.0842 80.3427 80.0888 81.255C80.0888 81.3518 80.1441 81.4485 80.1717 81.5499C80.25 81.4992 80.3422 81.4624 80.4067 81.3979C82.3696 79.4396 84.3279 77.4812 86.2863 75.5229C86.3462 75.463 86.4153 75.4077 86.5305 75.3018C86.5305 75.4584 86.5305 75.5368 86.5305 75.6197C86.5305 76.615 86.5305 77.6149 86.5305 78.6101C86.5305 78.8267 86.4936 79.0525 86.6733 79.2368C86.7148 79.2829 86.7148 79.3797 86.7148 79.4534C86.7056 79.8036 86.6779 80.1538 86.6733 80.5086C86.6641 81.1675 86.6687 81.8264 86.6733 82.4899C86.6733 82.5728 86.7148 82.6604 86.7378 82.7433C86.8208 82.7019 86.9175 82.6742 86.9774 82.6097C88.2446 81.3472 89.5071 80.0846 90.7743 78.8221C90.8388 78.753 90.9217 78.7115 90.9908 78.6608Z" fill="#E58125"/>
<path d="M90.9927 78.6603C90.919 78.711 90.8406 78.7571 90.7761 78.817C89.509 80.0795 88.2465 81.3467 86.9793 82.6046C86.9148 82.6691 86.818 82.6922 86.7397 82.7382C86.7167 82.6553 86.6752 82.5677 86.6752 82.4848C86.6706 81.8259 86.666 81.167 86.6752 80.5035C86.6798 80.1533 86.7075 79.8031 86.7167 79.4483C86.7167 79.3745 86.7213 79.2732 86.6752 79.2317C86.4955 79.0474 86.5324 78.8216 86.5324 78.605C86.5324 77.6098 86.5324 76.6099 86.5324 75.6146C86.5324 75.5317 86.5324 75.4533 86.5324 75.2967C86.4172 75.4026 86.348 75.4579 86.2881 75.5178C84.3298 77.4761 82.3715 79.4345 80.4086 81.3928C80.3441 81.4573 80.2519 81.4941 80.1736 81.5448C80.146 81.4481 80.0907 81.3513 80.0907 81.2499C80.0861 80.3376 80.0861 79.4252 80.0861 78.5129C80.0861 78.43 80.063 78.3424 80.0446 78.1996C79.9386 78.2917 79.8741 78.3424 79.8188 78.3977C79.1599 79.052 78.5102 79.7109 77.8467 80.3652C77.6762 80.5311 77.5979 80.7246 77.5979 80.9596C77.6025 81.8812 77.6025 82.8027 77.5979 83.7197C77.5979 83.8211 77.561 83.927 77.538 84.0284C77.5103 84.162 77.4688 84.2957 77.4642 84.4293C77.455 84.9454 77.4781 85.4568 77.455 85.9729C77.4228 86.7793 77.349 87.5856 77.326 88.3966C77.303 89.1707 77.3214 89.9448 77.3214 90.7235C77.2292 90.7235 77.1371 90.7235 77.0449 90.7235C77.0587 89.6361 77.0634 88.5487 77.0956 87.4612C77.1325 86.125 77.0541 84.7887 77.1647 83.4478C77.2799 82.107 77.2384 80.7569 77.2753 79.4114C77.3122 78.2502 77.3721 77.0937 77.4089 75.9325C77.4366 75.0893 77.4458 74.2507 77.455 73.4075C77.4596 73.154 77.4412 72.9052 77.584 72.6748C77.6347 72.5919 77.6393 72.4675 77.6393 72.3615C77.6439 71.8546 77.6301 71.3478 77.6485 70.8455C77.6532 70.7073 77.7038 70.5322 77.8006 70.4354C78.4549 69.7581 79.1276 69.0946 79.8004 68.4311C79.8419 68.3896 79.9202 68.3804 79.9801 68.3573C79.9985 68.4172 80.0354 68.4771 80.0354 68.537C80.04 69.0347 80.04 69.5323 80.04 70.0346C80.04 70.2603 80.04 70.4907 80.04 70.7165C80.0584 70.7349 80.0815 70.7534 80.0999 70.7718C80.192 70.7165 80.3026 70.6797 80.381 70.6059C81.0491 69.947 81.708 69.2881 82.3669 68.6246C82.4637 68.5278 82.5374 68.4126 82.6203 68.3066C82.6849 68.3619 82.7494 68.4126 82.8093 68.4725C83.9428 69.606 85.0763 70.7442 86.2098 71.8731C87.4124 73.0665 88.6243 74.2507 89.8269 75.4441C90.1495 75.762 90.449 76.0984 90.7669 76.421C90.8268 76.4809 90.919 76.5085 90.9973 76.55C90.9927 77.2458 90.9927 77.9507 90.9927 78.6603Z" fill="#E47E26"/>
<path d="M80.0854 49.2812C80.0854 54.6354 80.0854 59.9897 80.0854 65.3393C80.0854 65.4361 80.0578 65.5282 80.0394 65.625C79.9749 65.5697 79.9104 65.519 79.8505 65.4591C79.1178 64.7265 78.3898 63.9985 77.6571 63.2658C77.3208 62.9295 76.9798 62.6023 76.6434 62.2659L76.625 62.2613C76.6296 62.1692 76.6342 62.077 76.6342 61.9849C76.6342 58.8377 76.6342 55.6906 76.6342 52.5481C76.6342 52.3638 76.6388 52.1795 76.6434 51.9952C76.6803 51.9353 76.731 51.88 76.7448 51.8155C77.1226 50.3318 78.5142 49.2443 80.0854 49.2812Z" fill="#E88725"/>
<path d="M49.0293 88.0005C49.1445 88.2954 49.232 88.6041 49.3749 88.8852C49.9923 90.0878 51.0014 90.7099 52.3469 90.7191C55.0978 90.7375 57.8532 90.7237 60.6041 90.7237C65.9445 90.7237 71.2849 90.7237 76.6253 90.7237C76.6253 90.8158 76.63 90.908 76.63 90.9956C76.5608 91.0002 76.4917 91.0048 76.4226 91.0048C68.4143 91.0048 60.4059 91.0048 52.3976 91.0048C50.8448 91.0048 49.55 90.0325 49.1307 88.5672C49.08 88.3783 49.0616 88.1848 49.0293 88.0005Z" fill="#E9B322"/>
<path d="M76.6247 62.5424C72.9247 62.5424 69.2246 62.5378 65.5246 62.547C64.6261 62.5516 63.875 62.9064 63.2437 63.5561C62.7922 64.0215 62.5019 64.5606 62.3636 65.1872C62.3544 65.2333 62.3037 65.2702 62.2715 65.3116C62.4374 63.5377 63.8243 62.2705 65.6029 62.2705C69.2753 62.2705 72.9477 62.2705 76.6201 62.2705L76.6386 62.2751C76.6386 62.3627 76.6294 62.4502 76.6247 62.5424Z" fill="#F7D431"/>
<path d="M80.0833 49.2809C78.5121 49.2394 77.1159 50.3315 76.7381 51.8152C76.7197 51.8797 76.669 51.935 76.6367 51.9949C76.8349 50.7646 77.4661 49.8476 78.6042 49.3039C79.0374 49.0966 79.4982 49.0044 79.9774 49.0044C82.5485 48.9998 85.1197 48.986 87.6908 49.009C89.451 49.0229 90.8011 50.3868 90.9669 51.9534C90.9669 51.9672 90.9669 51.9857 90.9623 51.9995C90.9301 51.9073 90.8932 51.8198 90.861 51.7276C90.4969 50.5619 89.7321 49.7831 88.5663 49.4283C88.2023 49.3178 87.8014 49.2855 87.4143 49.2855C84.9768 49.2763 82.5301 49.2809 80.0833 49.2809Z" fill="#ED9C26"/>
<path d="M76.6296 90.9909C76.6296 90.8987 76.625 90.8066 76.625 90.719L76.6342 90.7237C76.7724 90.7237 76.9107 90.7237 77.0489 90.7237C77.1411 90.7237 77.2332 90.7237 77.3254 90.7237C80.7951 90.7237 84.2647 90.7283 87.7344 90.719C88.4901 90.719 89.1674 90.4472 89.7618 89.968C90.2825 89.5487 90.6419 89.0234 90.8585 88.3921C90.8723 88.3553 90.9045 88.323 90.9322 88.2861C90.6557 89.5947 89.8632 90.4426 88.6053 90.8481C88.315 90.9448 87.9924 90.9863 87.6837 90.9909C84.0481 91.0001 80.408 91.0001 76.7724 91.0001C76.7218 91.0001 76.6757 90.9955 76.6296 90.9909Z" fill="#DC7527"/>
<path d="M60.6077 76.9097C57.8107 76.9097 55.0138 76.8867 52.2169 76.9189C51.0373 76.9327 50.1157 77.4995 49.4937 78.5132C49.3462 78.7574 49.2587 79.0385 49.1389 79.3011C49.1204 79.338 49.0882 79.3657 49.0605 79.3979C49.1803 78.5086 49.6319 77.8128 50.3369 77.2783C50.9313 76.8314 51.6087 76.6286 52.3505 76.6286C55.5621 76.6332 58.7738 76.6286 61.9854 76.6286C62.0776 76.6286 62.1697 76.624 62.2619 76.624C62.2619 76.707 62.2619 76.7899 62.2619 76.9051C61.6951 76.9097 61.1514 76.9097 60.6077 76.9097Z" fill="#F8D846"/>
<path d="M90.918 88.2907C90.9272 88.2262 90.941 88.1617 90.9502 88.0972C90.941 88.1617 90.9318 88.2262 90.918 88.2907Z" fill="#DC7527"/>
<path d="M49.0426 79.5312C49.0334 79.5635 49.0287 79.5958 49.0195 79.628C49.0287 79.5958 49.038 79.5635 49.0426 79.5312Z" fill="#F8D846"/>
<path d="M90.9925 52.2764C90.9833 52.2073 90.9741 52.1336 90.9648 52.0645C90.9741 52.1336 90.9833 52.2027 90.9925 52.2764Z" fill="#ED9C26"/>
<path d="M49.0098 87.7793C49.019 87.8346 49.0282 87.8899 49.042 87.9452C49.0282 87.8853 49.019 87.83 49.0098 87.7793Z" fill="#E9B322"/>
<path d="M77.0489 90.7236C76.9107 90.7236 76.7724 90.7236 76.6342 90.7236C76.6342 85.5997 76.6342 80.4805 76.6296 75.3566C76.6296 71.1635 76.6296 66.9658 76.6296 62.7728C76.6296 62.6944 76.625 62.6207 76.625 62.5424C76.6296 62.4502 76.6342 62.3627 76.6434 62.2705C76.9798 62.6023 77.3208 62.934 77.6571 63.2704C78.3898 63.9984 79.1178 64.7311 79.8505 65.4637C79.9104 65.5236 79.9749 65.5743 80.0394 65.6296C80.2467 65.86 80.4449 66.0996 80.666 66.3208C81.2604 66.9198 81.8594 67.5142 82.4539 68.1132C82.5138 68.1731 82.5644 68.2376 82.6197 68.3021C82.5368 68.4081 82.4631 68.5233 82.3663 68.62C81.7074 69.2836 81.0485 69.9471 80.3803 70.6014C80.3066 70.6751 80.196 70.712 80.0993 70.7673C80.0808 70.7488 80.0578 70.7304 80.0394 70.712C80.0394 70.4862 80.0394 70.2558 80.0394 70.03C80.0394 69.5324 80.0394 69.0347 80.0348 68.5325C80.0348 68.4726 79.9979 68.4127 79.9795 68.3528C79.9196 68.3758 79.8412 68.385 79.7998 68.4265C79.1316 69.09 78.4589 69.7536 77.8 70.4309C77.7078 70.5277 77.6525 70.7028 77.6479 70.841C77.6295 71.3479 77.6433 71.8547 77.6387 72.357C77.6387 72.4629 77.6341 72.5827 77.5834 72.6703C77.4452 72.9053 77.459 73.1541 77.4544 73.4029C77.4406 74.2462 77.436 75.0848 77.4083 75.928C77.3715 77.0892 77.3116 78.2457 77.2747 79.4069C77.2332 80.7524 77.2747 82.1024 77.1641 83.4433C77.0489 84.7842 77.1272 86.1204 77.095 87.4567C77.0673 88.5487 77.0627 89.6362 77.0489 90.7236Z" fill="#DE7926"/>
</g>
<defs>
<filter id="filter0_d" x="26" y="26" width="88" height="88" filterUnits="userSpaceOnUse" color-interpolation-filters="sRGB">
<feFlood flood-opacity="0" result="BackgroundImageFix"/>
<feColorMatrix in="SourceAlpha" type="matrix" values="0 0 0 0 0 0 0 0 0 0 0 0 0 0 0 0 0 0 127 0"/>
<feOffset/>
<feGaussianBlur stdDeviation="2"/>
<feColorMatrix type="matrix" values="0 0 0 0 0 0 0 0 0 0 0 0 0 0 0 0 0 0 0.4 0"/>
<feBlend mode="normal" in2="BackgroundImageFix" result="effect1_dropShadow"/>
<feBlend mode="normal" in="SourceGraphic" in2="effect1_dropShadow" result="shape"/>
</filter>
<clipPath id="clip0">
<rect width="42" height="42" fill="white" transform="translate(49 49)"/>
</clipPath>
</defs>
</svg>
