<svg width="140" height="140" viewBox="0 0 140 140" fill="none" xmlns="http://www.w3.org/2000/svg">
<rect opacity="0.01" width="140" height="140" fill="#0B0B0C"/>
<g filter="url(#filter0_d)">
<rect x="29" y="30" width="80" height="80" rx="12" fill="black"/>
</g>
<g clip-path="url(#clip0)">
<path d="M90.0012 69.7647C89.9907 69.8039 89.9728 69.8426 89.9707 69.8824C89.9301 70.6594 89.7353 71.4005 89.4615 72.1209C89.0716 73.1546 88.4765 74.0945 87.7139 74.8811C86.7988 75.8272 85.8764 76.7651 84.9561 77.7063C82.609 80.1078 80.262 82.5095 77.9153 84.9112C77.5315 85.3052 77.0972 85.62 76.597 85.8371C76.0473 86.0756 75.4721 86.1983 74.8757 86.171C73.8782 86.1256 73.0032 85.7642 72.2614 85.0743C72.2264 85.0423 72.19 85.0129 72.1564 84.9834C72.1821 84.9019 72.2379 84.8652 72.2815 84.8204C73.5013 83.5703 74.7219 82.3209 75.9434 81.0722C78.868 78.0798 81.7928 75.0878 84.7179 72.0962C85.1706 71.6334 85.5229 71.1073 85.7369 70.4886C86.5729 68.0779 85.1293 65.5256 82.7532 65.0339C81.3299 64.7393 80.0757 65.1234 79.0456 66.1694C76.5169 68.7395 73.9956 71.3173 71.4819 73.9028C69.7372 75.6879 67.9921 77.4727 66.2466 79.2574C66.1497 79.3607 66.0452 79.4565 65.9342 79.5439C64.7017 80.4717 62.9626 79.7382 62.7328 78.1967C62.6343 77.5353 62.8203 76.9583 63.2578 76.4646C63.3008 76.416 63.3474 76.3705 63.3927 76.3242C67.6333 71.9855 71.8733 67.6465 76.1128 63.3073C76.8891 62.5124 77.7695 61.8799 78.7838 61.4449C79.5374 61.1215 80.3345 60.9173 81.1481 60.839C85.1544 60.4486 88.7287 63.086 89.7453 66.93C89.8375 67.2815 89.9068 67.6388 89.9529 67.9997C89.9653 68.094 89.9616 68.1906 89.9704 68.2862C89.974 68.3261 89.9905 68.3646 90.0012 68.4039V69.7647Z" fill="white"/>
<path d="M63.33 52C63.3731 52.014 63.4172 52.025 63.4618 52.0328C64.3833 52.1254 65.1738 52.51 65.846 53.1567C65.8641 53.1772 65.881 53.1988 65.8965 53.2213C65.8517 53.2706 65.8105 53.3188 65.7662 53.3646C64.3228 54.8417 62.8791 56.3188 61.4351 57.7958C58.7291 60.5645 56.0228 63.3329 53.3162 66.1012C52.824 66.6042 52.4599 67.1852 52.2581 67.868C51.5532 70.252 52.9952 72.6418 55.2597 73.133C56.6947 73.4445 57.9589 73.0636 59.0037 72.0125C60.4677 70.5394 61.9107 69.0444 63.3627 67.5587C66.18 64.676 68.9971 61.793 71.8142 58.9099C72.0182 58.7011 72.2394 58.5215 72.5053 58.401C73.7255 57.8476 75.139 58.6399 75.324 59.9923C75.4101 60.6218 75.2479 61.1875 74.834 61.6696C74.7801 61.7323 74.7218 61.791 74.6641 61.8501C70.4236 66.1894 66.1833 70.529 61.9433 74.8689C61.1241 75.7081 60.1905 76.3644 59.1113 76.7998C58.2909 77.1304 57.4233 77.3218 56.5426 77.3664C53.2413 77.5419 50.2174 75.6511 48.8181 72.6581C48.4483 71.8716 48.206 71.0289 48.1006 70.1628C48.0791 69.9853 48.0613 69.8073 48.0382 69.63C48.0336 69.5897 48.0133 69.5525 48 69.5143V68.6905C48.013 68.6452 48.032 68.601 48.038 68.5544C48.0611 68.3771 48.0791 68.1991 48.1008 68.0217C48.2242 67.0132 48.5311 66.0374 49.0057 65.1447C49.3939 64.4092 49.887 63.7559 50.4645 63.1656C53.6786 59.8792 56.8915 56.592 60.1033 53.3041C60.1322 53.2745 60.1607 53.2448 60.1908 53.2156C60.8835 52.5249 61.7055 52.1177 62.6736 52.0301C62.7065 52.0272 62.7383 52.0104 62.7707 52H63.33Z" fill="white"/>
<path d="M73.7587 52C73.8032 52.0106 73.8473 52.0274 73.8923 52.0304C75.5023 52.1404 76.9441 52.7072 78.2302 53.6982C78.5343 53.9303 78.8193 54.1874 79.0824 54.467C80.0974 55.5548 79.6774 57.3585 78.2877 57.8465C77.5291 58.1126 76.8403 57.9499 76.2383 57.4078C76.1071 57.2896 75.9837 57.1614 75.847 57.0496C75.0039 56.3666 74.04 56.0711 72.973 56.1615C72.0087 56.2443 71.175 56.6409 70.4836 57.3367C69.9551 57.8677 69.4347 58.4071 68.9109 58.9429C65.1703 62.7694 61.4295 66.596 57.6885 70.4228C57.6103 70.5029 57.5336 70.5858 57.4482 70.6574C56.8499 71.1588 56.1758 71.2998 55.4492 71.0324C54.7154 70.7623 54.2693 70.2086 54.1386 69.4233C54.0299 68.769 54.2069 68.1821 54.6449 67.6848C54.6839 67.6406 54.7257 67.5988 54.7674 67.5566C59.0272 63.1979 63.2868 58.8389 67.5462 54.4796C68.4212 53.5842 69.4343 52.9115 70.6009 52.4842C71.2223 52.2592 71.8679 52.111 72.5238 52.043C72.599 52.0349 72.6755 52.038 72.7513 52.0304C72.796 52.0233 72.8403 52.0131 72.8837 52H73.7587Z" fill="white"/>
<path d="M64.7954 86.1872C62.5128 86.1309 60.5953 85.3505 59.0102 83.7547C58.6219 83.3639 58.4166 82.8834 58.4066 82.3295C58.3874 81.2611 59.1127 80.4518 59.9897 80.2643C60.7017 80.1123 61.3323 80.2946 61.8564 80.8165C62.3508 81.3086 62.9178 81.6802 63.5838 81.8618C65.1025 82.2758 66.4514 81.9395 67.5863 80.8202C68.4345 79.9837 69.2558 79.1189 70.0888 78.2663L80.3586 67.7582C80.4122 67.7034 80.4645 67.6468 80.5205 67.5949C81.1155 67.0435 81.8057 66.8712 82.5643 67.1334C83.323 67.3956 83.7783 67.9572 83.9118 68.7688C84.0149 69.3933 83.8485 69.9507 83.4533 70.4357C83.3975 70.5043 83.3352 70.5677 83.2734 70.6311C79.0213 74.9819 74.7692 79.3329 70.5172 83.6843C69.5897 84.6334 68.5148 85.3347 67.2679 85.7558C66.6704 85.9602 66.0507 86.089 65.4225 86.1394C65.1908 86.1565 64.9583 86.1739 64.7954 86.1872Z" fill="white"/>
</g>
<defs>
<filter id="filter0_d" x="25" y="26" width="88" height="88" filterUnits="userSpaceOnUse" color-interpolation-filters="sRGB">
<feFlood flood-opacity="0" result="BackgroundImageFix"/>
<feColorMatrix in="SourceAlpha" type="matrix" values="0 0 0 0 0 0 0 0 0 0 0 0 0 0 0 0 0 0 127 0"/>
<feOffset/>
<feGaussianBlur stdDeviation="2"/>
<feColorMatrix type="matrix" values="0 0 0 0 0 0 0 0 0 0 0 0 0 0 0 0 0 0 0.4 0"/>
<feBlend mode="normal" in2="BackgroundImageFix" result="effect1_dropShadow"/>
<feBlend mode="normal" in="SourceGraphic" in2="effect1_dropShadow" result="shape"/>
</filter>
<clipPath id="clip0">
<rect width="42" height="34.186" fill="white" transform="translate(48 52)"/>
</clipPath>
</defs>
</svg>
