<svg width="140" height="140" viewBox="0 0 140 140" fill="none" xmlns="http://www.w3.org/2000/svg">
<rect x="30" y="30" width="80" height="80" rx="12" fill="black"/>
<rect x="46" y="46" width="48" height="48" fill="#590000" fill-opacity="0.01"/>
<g clip-path="url(#clip0)">
<path d="M63.1452 50H69.9922V63.0539C69.9922 63.1446 69.9913 63.2352 69.991 63.3259C69.9676 63.3259 69.9442 63.3278 69.9209 63.3278H63.3763C63.34 63.3278 63.3036 63.3291 63.2671 63.3299C63.1589 63.3235 63.0496 63.325 62.9427 63.3094C62.6506 63.267 62.355 63.2368 62.0693 63.1654C61.7352 63.0824 61.4002 62.9858 61.0826 62.8523C59.5278 62.1988 58.3801 61.0959 57.6395 59.5437C57.304 58.8385 57.0979 58.0761 57.0312 57.2944C57.0234 57.2093 57.0104 57.1248 57 57.04V56.912C57.0075 56.8909 57.0128 56.869 57.0156 56.8467C57.0169 56.7302 57.0169 56.6138 57.0156 56.4974C57.0128 56.4751 57.0076 56.4531 57 56.432V56.304C57.0106 56.2109 57.0195 56.1176 57.0323 56.025C57.0682 55.764 57.0869 55.4987 57.1475 55.2438C57.2235 54.9156 57.3205 54.5929 57.4378 54.2778C58.0461 52.6757 59.1082 51.4888 60.596 50.703C61.0476 50.4631 61.5283 50.2859 62.0255 50.176C62.2694 50.1224 62.5169 50.0851 62.7635 50.0451C62.8899 50.0251 63.0179 50.0149 63.1452 50Z" fill="#F14E1E"/>
<path d="M70.0078 50H76.8548C76.871 50.0064 76.8878 50.0112 76.9049 50.0141C77.3059 50.0381 77.7038 50.1012 78.0932 50.2024C79.1636 50.4817 80.104 51.0067 80.9144 51.7776C81.6261 52.4496 82.1806 53.2778 82.5365 54.2005C82.7993 54.8707 82.951 55.5814 82.9852 56.303V57.041C82.9797 57.0909 82.9749 57.1406 82.9696 57.1904C82.937 57.4566 82.9228 57.7272 82.8682 57.9885C82.4437 59.9917 81.361 61.4995 79.6203 62.512C78.7625 63.0098 77.8315 63.264 76.8505 63.3304L76.1419 63.3312L75.9346 63.3323C75.9009 63.3323 75.8672 63.3304 75.8336 63.3304H70.1095C70.0758 63.3304 70.042 63.3293 70.0083 63.3286C70.008 58.8857 70.0078 54.4428 70.0078 50Z" fill="#FE7262"/>
<path d="M69.9947 76.672C69.9968 76.704 70.0008 76.736 70.0008 76.767C70.0008 78.9324 70.0003 81.0973 69.9993 83.2619C70.0003 83.527 69.9868 83.7919 69.959 84.0555C69.7718 85.7356 69.0682 87.1453 67.848 88.2846C66.9496 89.1232 65.894 89.6526 64.7007 89.8846C64.4355 89.936 64.1638 89.9525 63.8953 89.9856C63.8788 89.9891 63.8627 89.9942 63.8471 90.0006H63.192C63.1702 89.9957 63.1486 89.9888 63.1266 89.986C62.8406 89.9526 62.5511 89.9381 62.2688 89.8822C61.8658 89.8049 61.4716 89.6851 61.0925 89.5249C59.3717 88.7889 58.1522 87.5395 57.4517 85.7657C57.1926 85.1119 57.0451 84.4172 57.0156 83.712V82.944C57.0166 82.9094 57.0156 82.8747 57.0189 82.8401C57.0782 82.0693 57.2536 81.3277 57.5648 80.6226C58.1387 79.3212 59.0254 78.3066 60.2252 77.5787C61.1686 77.0067 62.1936 76.7158 63.2867 76.6706C63.3023 76.6706 63.3179 76.6728 63.3335 76.6728H69.8997C69.9256 76.6728 69.9515 76.6709 69.9777 76.6699L69.9947 76.672Z" fill="#0ACE83"/>
<path d="M82.9996 70.3362C82.9903 70.4143 82.9784 70.4922 82.9719 70.5705C82.8627 71.8586 82.4304 73.0213 81.6617 74.0442C80.6582 75.3785 79.3445 76.2119 77.733 76.5445C77.513 76.5922 77.2899 76.6232 77.0655 76.6375C76.7111 76.6562 76.3538 76.677 76.0012 76.6503C75.3953 76.6059 74.7992 76.4703 74.2318 76.2479C72.699 75.6455 71.541 74.6043 70.7579 73.1244C70.4067 72.4609 70.1851 71.7508 70.0729 71.005C70.0505 70.8562 70.0392 70.7057 70.0221 70.5561C70.0189 70.5414 70.0141 70.5271 70.0079 70.5135C70.0072 70.4334 70.0065 70.3534 70.0059 70.2735C70.0059 70.0914 70.0059 69.9094 70.0059 69.7274C70.0066 69.6474 70.0073 69.5674 70.008 69.4874C70.0141 69.4737 70.0189 69.4595 70.0224 69.4449C70.0662 69.1477 70.0896 68.8457 70.1559 68.554C70.5804 66.6876 71.5985 65.2566 73.1931 64.2614C73.9155 63.8105 74.7024 63.5337 75.5387 63.4063C75.6923 63.383 75.8469 63.3666 76.0012 63.3471L76.1365 63.3438H76.8545C76.9003 63.3495 76.9462 63.3562 76.9922 63.3609C77.1469 63.3769 77.3029 63.3834 77.4563 63.4071C78.5859 63.5818 79.6034 64.027 80.5018 64.7521C81.481 65.5424 82.1843 66.5383 82.6119 67.7397C82.7416 68.1017 82.8379 68.4752 82.8997 68.8556C82.9329 69.0623 82.9449 69.2727 82.9684 69.4813C82.9753 69.5429 82.9886 69.6037 82.9996 69.665V70.3362Z" fill="#1ABBFD"/>
<path d="M70.009 50C70.009 54.4429 70.009 58.8855 70.009 63.328C70.0065 63.3305 70.0034 63.3325 70 63.3336L69.9922 63.3254C69.9922 63.2347 69.9936 63.1442 69.9936 63.0534V50H70.009Z" fill="#FA8B77"/>
<path d="M57.0156 83.7123H57V82.9443H57.0156V83.7123Z" fill="#5EDEAD"/>
<path d="M82.9863 56.3027C82.9912 56.305 82.9968 56.3053 83.0019 56.3037V57.0397L82.9944 57.0389L82.9871 57.0407L82.9863 56.3027Z" fill="#FEA49A"/>
<path d="M57 69.6318C57.0052 69.6331 57.0106 69.6328 57.0156 69.6309V70.3688L57.0083 70.3672L57 70.3679V69.6318Z" fill="#C293FE"/>
<path d="M57 56.4316C57.0076 56.4528 57.0128 56.4747 57.0156 56.4971C57.0168 56.6135 57.0168 56.7299 57.0156 56.8464C57.0128 56.8686 57.0075 56.8905 57 56.9116V56.4316Z" fill="#F47B58"/>
<path d="M57.0156 70.369V69.6311C57.0478 68.9045 57.2028 68.2053 57.4647 67.5306C57.8102 66.6325 58.3451 65.8239 59.0309 65.1626C59.9085 64.312 60.9371 63.7427 62.1227 63.488C62.4104 63.4263 62.7055 63.3997 62.9976 63.36C63.087 63.348 63.1779 63.3469 63.2681 63.3408C63.2993 63.3408 63.3305 63.3434 63.3617 63.3434H69.9952C69.9978 63.5005 70.0027 63.6576 70.0028 63.8147C70.0028 65.6003 70.0028 67.3859 70.0028 69.1715C70.0028 69.2754 70 69.3795 69.9985 69.4831C69.9969 69.5648 69.9953 69.6465 69.9936 69.7282V70.2704C69.9954 70.3521 69.997 70.4339 69.9986 70.5157C70 70.7661 70.0027 71.0167 70.0028 71.2677C70.0028 73.0347 70.0028 74.8018 70.0028 76.569C70.0028 76.6032 69.9977 76.6375 69.9949 76.6715L69.9769 76.669C69.9446 76.6627 69.9119 76.6585 69.879 76.6565C67.7682 76.6565 65.6581 76.6565 63.5485 76.6565C63.4601 76.6565 63.3718 76.6575 63.2834 76.6581C62.5893 76.6443 61.9191 76.5047 61.2683 76.2605C60.3412 75.9162 59.5043 75.3566 58.823 74.6255C57.9393 73.6815 57.3669 72.5663 57.1265 71.2789C57.0707 70.9789 57.0512 70.672 57.0156 70.369Z" fill="#A159FE"/>
<path d="M69.9991 70.5168C69.9974 70.4351 69.9957 70.3533 69.9941 70.2715C69.9983 70.2718 70.0025 70.2725 70.0066 70.2734C70.0072 70.3534 70.0079 70.4334 70.0086 70.5134C70.0057 70.5152 70.0025 70.5163 69.9991 70.5168Z" fill="#CFAAFE"/>
<path d="M69.9968 63.3442H63.3631C63.3319 63.3442 63.3007 63.3425 63.2695 63.3417C63.2708 63.3379 63.2708 63.3339 63.2695 63.3302C63.3057 63.3302 63.3421 63.3281 63.3787 63.3281H69.9225C69.9458 63.3281 69.9693 63.3268 69.9926 63.3262C69.9949 63.3289 69.9976 63.3316 70.0002 63.3343C69.9996 63.3378 69.9984 63.3411 69.9968 63.3442Z" fill="#C874C5"/>
<path d="M76.8498 63.3301C76.8515 63.3341 76.8531 63.3382 76.8548 63.3424H76.1367C76.1384 63.3386 76.1401 63.3346 76.142 63.3307L76.8498 63.3301Z" fill="#89CEEE"/>
<path d="M76.1409 63.3311C76.139 63.3349 76.1373 63.3389 76.1356 63.3427L76.0002 63.3461L75.9336 63.3322L76.1409 63.3311Z" fill="#FEDAD6"/>
<path d="M63.2832 76.6579C63.3715 76.6579 63.4598 76.6562 63.5484 76.6562C65.6584 76.6562 67.7686 76.6562 69.8788 76.6562C69.9117 76.6583 69.9444 76.6624 69.9768 76.6687C69.9509 76.6697 69.925 76.6716 69.8988 76.6716H63.3325C63.3169 76.6716 63.3013 76.6702 63.2857 76.6694C63.2855 76.6654 63.2846 76.6615 63.2832 76.6579Z" fill="#A97FF6"/>
<path d="M70.0066 70.2726C70.0025 70.2717 69.9983 70.2711 69.9941 70.2707C69.9941 70.0899 69.9941 69.9092 69.9941 69.7285C69.9983 69.7282 70.0024 69.7275 70.0065 69.7266C70.0066 69.9086 70.0066 70.0907 70.0066 70.2726Z" fill="#89B0FE"/>
<path d="M70.0065 69.7266C70.0024 69.7276 69.9983 69.7282 69.9941 69.7285C69.9959 69.6468 69.9976 69.5651 69.9991 69.4834C70.0025 69.4837 70.0057 69.4847 70.0086 69.4863C70.0079 69.5665 70.0072 69.6466 70.0065 69.7266Z" fill="#CFABFE"/>
</g>
<defs>
<clipPath id="clip0">
<rect width="26" height="40" fill="white" transform="translate(57 50)"/>
</clipPath>
</defs>
</svg>
