<svg width="140" height="140" viewBox="0 0 140 140" fill="none" xmlns="http://www.w3.org/2000/svg">
<rect opacity="0.01" width="140" height="140" fill="#0F0E10"/>
<rect x="30" y="30" width="80" height="80" rx="12" fill="white"/>
<rect x="46" y="46" width="48" height="48" fill="#590000" fill-opacity="0.01"/>
<path fill-rule="evenodd" clip-rule="evenodd" d="M57 49C55.3431 49 54 50.3431 54 52V88C54 89.6569 55.3431 91 57 91H82.92C84.5769 91 85.92 89.6569 85.92 88V61.18L73.74 49H57Z" fill="#25A667"/>
<path d="M85.9202 72.94L74.1602 59.5L85.9202 61.18V72.94Z" fill="url(#paint0_linear)"/>
<mask id="mask0" mask-type="alpha" maskUnits="userSpaceOnUse" x="73" y="49" width="13" height="13">
<path d="M85.9202 61.18L73.7402 49V61.18H85.9202Z" fill="#AE0606"/>
</mask>
<g mask="url(#mask0)">
<rect x="73.7402" y="19.1802" width="31.92" height="42" rx="3" fill="#8ED1B1"/>
</g>
<rect x="61.9805" y="68.3198" width="1.68" height="14.28" fill="white"/>
<rect x="61.9805" y="82.6001" width="1.68" height="15.96" transform="rotate(-90 61.9805 82.6001)" fill="white"/>
<rect x="61.9805" y="70" width="1.68" height="15.96" transform="rotate(-90 61.9805 70)" fill="white"/>
<rect x="61.9805" y="74.2002" width="1.68" height="15.96" transform="rotate(-90 61.9805 74.2002)" fill="white"/>
<rect x="61.9805" y="78.3999" width="1.68" height="15.96" transform="rotate(-90 61.9805 78.3999)" fill="white"/>
<rect x="69.1211" y="68.3198" width="1.68" height="14.28" fill="white"/>
<rect x="76.2598" y="68.3198" width="1.68" height="14.28" fill="white"/>
<defs>
<linearGradient id="paint0_linear" x1="77.5202" y1="59.5" x2="85.9202" y2="72.94" gradientUnits="userSpaceOnUse">
<stop stop-color="#208E5B"/>
<stop offset="1" stop-color="#208E5B" stop-opacity="0"/>
</linearGradient>
</defs>
</svg>
