<svg width="140" height="140" viewBox="0 0 140 140" fill="none" xmlns="http://www.w3.org/2000/svg">
<rect opacity="0.01" width="140" height="140" fill="#0F0E10"/>
<rect x="29" y="30" width="80" height="80" rx="12" fill="#222222"/>
<rect x="45" y="46" width="48" height="48" fill="#590000" fill-opacity="0.01"/>
<path d="M52 67.6529C52 64.5375 52 61.4081 52 58.2926C52.0142 54.1434 55.1955 51 59.4135 51C65.8045 51 72.1955 51 78.5865 51C82.8045 51 86 54.1434 86 58.2787C86 64.5654 86 70.8522 86 77.139C86 81.2882 82.8045 84.4316 78.6007 84.4316C77.2799 84.4316 75.9449 84.3897 74.6241 84.4596C74.1838 84.4875 73.6583 84.6971 73.3317 84.9904C72.0393 86.1779 70.7895 87.4353 69.5539 88.6787C69.142 89.0838 68.858 89.0978 68.4461 88.6787C67.2673 87.4772 66.0175 86.3316 64.853 85.1022C64.3559 84.5713 63.8162 84.3897 63.1061 84.4037C61.5297 84.4176 59.9248 84.4735 58.3626 84.3199C54.7694 83.9566 52.0426 80.8971 52.0142 77.3346C52 74.1213 52 70.8801 52 67.6529ZM61.7569 67.7228C61.7569 69.8882 61.7711 72.0537 61.7427 74.2191C61.7427 74.7081 61.8989 74.8618 62.396 74.8618C66.7987 74.8478 71.2013 74.8478 75.5898 74.8618C76.0869 74.8618 76.2431 74.7081 76.2431 74.2191C76.2289 69.8882 76.2289 65.5574 76.2431 61.2404C76.2431 60.7515 76.0869 60.5978 75.5898 60.5978C71.1871 60.6118 66.7845 60.6118 62.396 60.5978C61.8989 60.5978 61.7427 60.7515 61.7427 61.2404C61.7711 63.3919 61.7569 65.5574 61.7569 67.7228Z" fill="white"/>
</svg>
