<svg width="140" height="140" viewBox="0 0 140 140" fill="none" xmlns="http://www.w3.org/2000/svg">
<rect opacity="0.01" width="140" height="140" fill="#0B0B0C"/>
<g filter="url(#filter0_d)">
<rect x="31" y="30" width="80" height="80" rx="12" fill="#00BE71"/>
</g>
<g clip-path="url(#clip0)">
<path d="M70.0963 57.3683C70.2333 57.1415 70.2987 57.0767 70.3143 57.0025C70.7296 54.9205 72.0885 53.6004 73.8264 52.5897C74.2001 52.3708 74.5895 52.18 74.9913 52.019C75.121 51.9678 75.42 52.019 75.4491 52.1006C75.528 52.3159 75.5124 52.5688 75.5135 52.8061C75.5135 52.851 75.4159 52.8981 75.3608 52.9399C73.8212 54.1021 73.271 55.7316 73.1807 57.5857C73.163 57.9672 73.2845 58.1272 73.6863 58.193C76.4426 58.6414 78.9913 59.6343 81.2504 61.3025C84.4964 63.6966 86.6911 66.842 87.8345 70.7385C87.956 71.1565 88.1325 71.2976 88.5612 71.2266C92.7679 70.5326 96.1929 74.7081 94.5972 78.8565C93.5974 81.4559 90.6386 82.9641 87.9414 82.1541C87.385 81.9868 87.1919 82.1541 86.9728 82.6307C86.597 83.4491 86.135 84.2277 85.7104 85.0242C85.5516 85.321 85.3657 85.3471 85.0875 85.1548C83.8728 84.3187 82.6551 83.493 81.4207 82.6903C81.0303 82.4373 80.994 82.2534 81.2411 81.8342C83.0589 78.7561 83.6507 75.469 82.6011 72.0094C81.7757 69.2867 79.8385 67.791 77.0551 67.4377C76.0377 67.3092 75.0546 67.5862 74.1483 68.0471C73.2025 68.5258 72.3211 69.1038 71.6203 69.9284C71.149 70.4834 70.879 70.4636 70.4015 69.9473C69.1235 68.5645 67.5984 67.5977 65.6975 67.4555C65.009 67.4115 64.3184 67.4998 63.6627 67.7158C61.0673 68.5676 59.6034 70.4113 59.1612 73.1173C58.7397 75.6958 59.0148 78.1792 60.0758 80.5633C60.3074 81.0498 60.5728 81.5192 60.87 81.968C61.032 82.2262 61.0288 82.3997 60.7662 82.5742C59.4553 83.4508 58.1479 84.3326 56.844 85.2196C56.5657 85.4098 56.4287 85.2635 56.3103 85.0482C55.8577 84.2068 55.3864 83.3759 54.9752 82.5126C54.778 82.0945 54.5766 82.014 54.1354 82.1415C50.3502 83.24 46.7238 80.234 47.0166 76.2581C47.2481 73.1121 50.2702 70.7082 53.3858 71.2182C53.8644 71.2966 54.097 71.1942 54.235 70.6852C55.1808 67.2005 57.1139 64.3596 59.8484 62.0414C62.0247 60.1907 64.6326 58.9276 67.4271 58.3707C67.8798 58.2777 67.9981 58.0843 67.8424 57.6516C67.5631 56.8667 67.179 56.1528 66.5229 55.6271C66.2862 55.4368 66.2363 55.2936 66.4035 55.025C66.5706 54.7564 66.7149 54.6069 67.0565 54.7742C68.1694 55.3292 69.2367 55.9312 69.9333 57.0161C69.9951 57.1298 70.0496 57.2475 70.0963 57.3683V57.3683ZM88.3619 77.4361L88.2456 77.4841C88.365 77.7444 88.4169 78.0956 88.6173 78.2492C89.2277 78.7143 90.2576 78.5711 90.8047 78.0172C91.3518 77.4632 91.4193 76.37 90.9532 75.6948C90.5234 75.0677 89.562 74.7917 88.8685 75.1377C88.7703 75.1943 88.6848 75.271 88.6176 75.3628C88.5504 75.4546 88.5029 75.5594 88.4782 75.6707C88.3982 76.2539 88.3951 76.8466 88.3619 77.4361V77.4361ZM53.6443 77.4204C53.6121 76.8487 53.6184 76.2707 53.528 75.7084C53.4997 75.5836 53.4447 75.4665 53.3669 75.3652C53.2891 75.264 53.1903 75.181 53.0775 75.122C52.7736 74.9888 52.4368 74.9518 52.1115 75.0158C51.7863 75.0798 51.4881 75.2419 51.2565 75.4805C51.0054 75.7366 50.8349 76.0617 50.7663 76.4149C50.6978 76.7682 50.7344 77.1339 50.8713 77.4664C51.0108 77.7869 51.2398 78.0597 51.5305 78.2516C51.8212 78.4434 52.161 78.5461 52.5085 78.5471C53.3401 78.5231 53.689 78.1802 53.6443 77.4204Z" fill="white"/>
</g>
<defs>
<filter id="filter0_d" x="27" y="26" width="88" height="88" filterUnits="userSpaceOnUse" color-interpolation-filters="sRGB">
<feFlood flood-opacity="0" result="BackgroundImageFix"/>
<feColorMatrix in="SourceAlpha" type="matrix" values="0 0 0 0 0 0 0 0 0 0 0 0 0 0 0 0 0 0 127 0"/>
<feOffset/>
<feGaussianBlur stdDeviation="2"/>
<feColorMatrix type="matrix" values="0 0 0 0 0 0 0 0 0 0 0 0 0 0 0 0 0 0 0.4 0"/>
<feBlend mode="normal" in2="BackgroundImageFix" result="effect1_dropShadow"/>
<feBlend mode="normal" in="SourceGraphic" in2="effect1_dropShadow" result="shape"/>
</filter>
<clipPath id="clip0">
<rect width="48" height="33.3061" fill="white" transform="translate(47 52)"/>
</clipPath>
</defs>
</svg>
