<svg width="140" height="140" viewBox="0 0 140 140" fill="none" xmlns="http://www.w3.org/2000/svg">
<rect opacity="0.01" width="140" height="140" fill="#0B0B0C"/>
<g filter="url(#filter0_d)">
<rect x="30" y="30" width="80" height="80" rx="12" fill="#00005B"/>
</g>
<g clip-path="url(#clip0)">
<path d="M59.5532 56.0074C60.575 56.0074 61.5945 56.0173 62.6187 56.0021C62.9687 55.9969 63.1658 56.0966 63.2935 56.4571C66.4138 65.2546 69.5411 74.05 72.6754 82.8432C72.8819 83.423 72.8306 83.4901 72.2118 83.4906C70.5787 83.4906 68.9422 83.4784 67.3073 83.5C66.8728 83.5058 66.6716 83.3431 66.5381 82.9401C65.9222 81.0842 65.2683 79.2406 64.656 77.3842C64.5329 77.0103 64.3573 76.889 63.9701 76.8907C61.0411 76.9059 58.112 76.9059 55.183 76.8907C54.8138 76.8907 54.6476 77.0074 54.5368 77.3637C53.9652 79.198 53.354 81.0201 52.7871 82.8549C52.6483 83.304 52.4261 83.4866 51.9525 83.479C50.5562 83.4568 49.1594 83.472 47.7631 83.4714C46.9157 83.4714 46.8807 83.4265 47.1542 82.6397C48.7748 77.9831 50.3966 73.3268 52.0196 68.6706C53.144 65.443 54.2942 62.2235 55.3807 58.9836C55.642 58.2056 55.7523 57.3675 55.852 56.5475C55.9022 56.1304 56.027 55.9916 56.4352 56.0004C57.4751 56.022 58.5145 56.0074 59.5532 56.0074ZM59.5351 60.8605L56.2743 71.6819H62.8876C61.7608 68.0442 60.6485 64.4567 59.5351 60.8605V60.8605Z" fill="#9999FF"/>
<path d="M80.0125 74.531C80.2814 76.2906 81.0215 77.6618 82.6802 78.4048C84.3209 79.1397 86.0408 79.2318 87.7841 78.9612C88.9506 78.7798 90.1089 78.5139 91.3063 78.2794C91.2934 78.2602 91.3442 78.3016 91.3448 78.343C91.3529 79.7048 91.3757 81.0673 91.3378 82.4256C91.3325 82.6187 91.0631 82.8881 90.8537 82.9791C89.2037 83.6924 87.4458 83.9065 85.6722 83.98C84.0339 84.0476 82.4014 83.9403 80.822 83.4551C78.2196 82.6531 76.2728 81.0224 75.2066 78.5308C73.5362 74.6231 73.6657 70.7078 75.7665 66.9891C77.4737 63.9651 80.1321 62.3565 83.6565 62.2649C85.1525 62.227 86.6136 62.3722 88.0092 62.9456C91.0876 64.2106 92.548 66.6993 92.9965 69.8277C93.1872 71.1581 93.0216 72.5398 93.014 73.8981C93.014 74.3356 92.7475 74.4849 92.3474 74.486C91.2264 74.4895 90.1054 74.5053 88.9844 74.5047C86.09 74.5047 83.1954 74.5014 80.3006 74.4948C80.2335 74.496 80.167 74.5111 80.0125 74.531ZM80.0924 70.6565C80.1883 70.6789 80.2858 70.6935 80.384 70.7003C82.4942 70.6933 84.6043 70.7003 86.7145 70.6659C87.7112 70.6507 87.8279 70.4582 87.5911 69.4725C87.5829 69.4393 87.5695 69.4078 87.5601 69.3751C87.0154 67.3921 85.0079 66.3219 82.9164 66.8976C81.2787 67.3467 79.9314 69.1296 80.0912 70.6565H80.0924Z" fill="#9999FF"/>
</g>
<defs>
<filter id="filter0_d" x="26" y="26" width="88" height="88" filterUnits="userSpaceOnUse" color-interpolation-filters="sRGB">
<feFlood flood-opacity="0" result="BackgroundImageFix"/>
<feColorMatrix in="SourceAlpha" type="matrix" values="0 0 0 0 0 0 0 0 0 0 0 0 0 0 0 0 0 0 127 0"/>
<feOffset/>
<feGaussianBlur stdDeviation="2"/>
<feColorMatrix type="matrix" values="0 0 0 0 0 0 0 0 0 0 0 0 0 0 0 0 0 0 0.4 0"/>
<feBlend mode="normal" in2="BackgroundImageFix" result="effect1_dropShadow"/>
<feBlend mode="normal" in="SourceGraphic" in2="effect1_dropShadow" result="shape"/>
</filter>
<clipPath id="clip0">
<rect width="46.0856" height="28" fill="white" transform="translate(47 56)"/>
</clipPath>
</defs>
</svg>
