<svg width="140" height="140" viewBox="0 0 140 140" fill="none" xmlns="http://www.w3.org/2000/svg">
<rect opacity="0.01" width="140" height="140" fill="#0F0E10"/>
<rect x="30" y="30" width="80" height="80" rx="12" fill="#E84C3D"/>
<rect x="46" y="46" width="48" height="48" fill="#590000" fill-opacity="0.01"/>
<path d="M49.1384 67.362C49.8632 67.2069 50.5406 67.0207 51.2302 66.9261C51.9517 66.8291 52.6855 66.9308 53.3555 67.2207C54.3615 67.65 54.8469 68.493 54.878 69.5468C54.9408 71.6693 54.925 73.7979 54.9408 75.9186C54.9404 75.9788 54.9355 76.0388 54.9262 76.0982C54.844 76.6754 54.6022 76.8994 54.0317 76.9089C53.6108 76.9161 53.1906 76.9125 52.7698 76.9089C52.0889 76.9041 51.8148 76.6269 51.8078 75.9228C51.8007 75.2546 51.8078 74.5858 51.8078 73.9176C51.8078 72.7998 51.8078 71.6825 51.8078 70.5647C51.8078 69.839 51.445 69.4444 50.7372 69.5055C50.2805 69.5456 49.8345 69.7216 49.3872 69.8438C49.1853 69.8983 49.1378 70.045 49.1384 70.2527C49.146 72.0885 49.1431 73.9242 49.1431 75.7611C49.1431 75.8809 49.1431 76.0006 49.1343 76.1204C49.0867 76.6167 48.8273 76.8862 48.3378 76.9041C47.8295 76.9221 47.32 76.9215 46.8117 76.9041C46.3451 76.8862 46.1174 76.6646 46.0446 76.2006C46.0158 76.0229 46.0009 75.8431 46 75.663C46 71.6314 46 67.5999 46 63.5684C46 62.5685 46.2277 62.3391 47.2103 62.3403C47.5331 62.3403 47.8559 62.3403 48.1787 62.3403C48.8449 62.3463 49.1313 62.6265 49.1348 63.3049C49.1425 64.5718 49.1378 65.8388 49.1384 67.1063V67.362Z" fill="white"/>
<path d="M60.6182 77.247C59.9596 77.1236 59.2829 77.0638 58.6472 76.8644C57.4088 76.477 56.6963 75.5418 56.394 74.2898C56.0424 72.8424 56.0354 71.3302 56.3734 69.8794C56.7338 68.3054 57.6988 67.345 59.2629 67.0366C60.2813 66.8265 61.3329 66.8521 62.3403 67.1115C63.6497 67.4533 64.4937 68.3089 64.8512 69.6178C65.2822 71.1814 65.2877 72.8352 64.867 74.4018C64.4439 76.0088 63.3504 76.8566 61.7727 77.0907C61.3971 77.1464 61.015 77.1542 60.6358 77.1841L60.6182 77.247ZM59.2254 72.0283L59.3005 72.0343C59.3005 72.3726 59.2888 72.7115 59.3052 73.0486C59.3216 73.237 59.3568 73.4231 59.4103 73.6042C59.5928 74.3167 59.9514 74.6113 60.6258 74.6143C61.3243 74.6173 61.7257 74.3299 61.8807 73.615C62.1097 72.5725 62.1078 71.4911 61.8754 70.4495C61.7193 69.7495 61.3266 69.4669 60.6399 69.4663C59.9626 69.4663 59.5658 69.7621 59.4202 70.4656C59.314 70.9775 59.2876 71.5068 59.2254 72.0283Z" fill="white"/>
<path d="M85.0864 76.2144C84.1807 76.9533 83.1636 77.1993 82.0501 77.1628C79.8691 77.0922 78.8402 75.4684 79.0708 73.5829C79.2581 72.055 80.0099 71.3077 81.5829 71.0269C82.4082 70.8808 83.2469 70.8066 84.0815 70.7227C84.3005 70.7012 84.3861 70.6533 84.3832 70.4102C84.3744 69.7282 84.1702 69.4618 83.4905 69.4983C82.7275 69.5396 81.9644 69.6714 81.2014 69.7642C80.9514 69.7953 80.7002 69.8624 80.4519 69.8528C80.0082 69.8342 79.703 69.569 79.6554 69.1241C79.6244 68.7582 79.6355 68.3899 79.6883 68.0266C79.73 67.6937 79.9583 67.4698 80.2694 67.3758C81.8846 66.8878 83.5216 66.7118 85.1791 67.1213C86.5455 67.459 87.3208 68.4326 87.3461 69.8677C87.3819 71.8508 87.3854 73.835 87.3983 75.8186C87.4069 75.9783 87.3888 76.1382 87.3449 76.2917C87.2862 76.4527 87.204 76.6335 87.0778 76.7353C86.5966 77.1227 85.5395 76.9149 85.2038 76.3916C85.1715 76.3425 85.1386 76.2941 85.0864 76.2144ZM84.3768 72.4124C83.7311 72.5471 83.1207 72.6262 82.5426 72.8094C82.117 72.9435 81.9198 73.4446 81.9732 73.947C82.0319 74.4936 82.2878 74.8511 82.7556 74.9373C83.2698 75.0325 83.7699 74.9487 84.2095 74.6379C84.2864 74.5834 84.3674 74.4697 84.3697 74.3817C84.3856 73.7668 84.3768 73.1477 84.3768 72.4124Z" fill="white"/>
<path d="M70.2621 67.18C70.7856 67.18 71.254 67.1764 71.7224 67.18C72.3199 67.186 72.6028 67.4722 72.6157 68.0781C72.6216 68.3775 72.6245 68.6768 72.6157 68.9762C72.5957 69.4917 72.3715 69.7546 71.8685 69.7977C71.4313 69.8336 70.9881 69.8288 70.5503 69.8216C70.3343 69.818 70.2568 69.8893 70.2615 70.1126C70.2697 71.2598 70.2615 72.407 70.2685 73.5536C70.2738 74.235 70.6101 74.5715 71.2857 74.605C72.4009 74.6649 72.5024 74.7744 72.5054 75.9222C72.5054 76.7006 72.277 77.0341 71.5434 77.1197C70.6477 77.2251 69.7473 77.2029 68.8822 76.8802C67.7864 76.4713 67.2581 75.6067 67.1994 74.4799C67.1255 73.0578 67.1407 71.6298 67.1407 70.2048C67.1407 69.8959 67.055 69.8121 66.7628 69.8216C65.8008 69.8546 65.4873 69.6342 65.5337 68.5787C65.5648 67.8835 65.7027 67.6692 66.3701 67.4841C67.1331 67.2734 67.1331 67.2734 67.1331 66.4615C67.1331 65.3999 67.2305 65.264 68.2319 64.9886C68.5981 64.8868 68.9673 64.7736 69.3418 64.7317C69.9516 64.6635 70.2521 64.9616 70.2633 65.5933C70.2691 66.1094 70.2621 66.6256 70.2621 67.18Z" fill="white"/>
<path d="M77.699 73.3374C77.699 75.0528 77.7178 76.7682 77.6919 78.483C77.6761 79.5416 77.3398 80.49 76.484 81.157C75.5619 81.8755 74.5037 82.1234 73.3627 81.9437C72.8655 81.8653 72.6484 81.5534 72.6425 81.0456C72.639 80.7564 72.636 80.4672 72.6425 80.1781C72.6548 79.705 72.8685 79.4081 73.328 79.35C74.4057 79.2147 74.6093 78.7051 74.6052 77.7274C74.5929 74.5762 74.6011 71.425 74.6023 68.2733C74.6011 68.1439 74.6087 68.0147 74.6252 67.8865C74.6839 67.4434 74.9245 67.2045 75.3641 67.1901C75.8924 67.1734 76.4206 67.1752 76.9489 67.1901C77.355 67.2021 77.601 67.4296 77.669 67.8392C77.7006 68.0357 77.7161 68.2346 77.7154 68.4337C77.7189 70.0703 77.7189 71.7068 77.7154 73.3434L77.699 73.3374Z" fill="white"/>
<path d="M91.1234 67.801C91.8417 67.2809 92.6883 66.9761 93.5674 66.9208C93.8397 66.9027 94.1131 66.9186 94.3815 66.9681C94.7489 67.0346 94.9491 67.2591 94.9773 67.6405C95.0043 68.0176 95.0043 68.3962 94.9773 68.7733C94.9438 69.2266 94.7237 69.4499 94.2729 69.5146C93.8222 69.5792 93.3831 69.6193 92.9382 69.6702C92.9284 69.671 92.9186 69.6724 92.9089 69.6744C91.9833 69.8972 91.9698 69.9139 91.9698 70.8719V75.8115C91.9698 76.6366 91.7039 76.912 90.9033 76.9126C90.5024 76.9126 90.101 76.9192 89.7001 76.9096C89.1431 76.8965 88.8432 76.5989 88.842 76.0337C88.8365 73.3693 88.8365 70.7049 88.842 68.0405C88.842 67.4812 89.1355 67.2022 89.6819 67.1837C89.7206 67.1837 89.76 67.1837 89.7993 67.1837C90.6292 67.2046 90.567 67.0406 91.1234 67.801Z" fill="white"/>
<path d="M77.0815 65.6493C77.5698 64.7374 77.7659 63.8693 77.4096 62.9484C77.3586 62.8058 77.278 62.676 77.1734 62.568C77.0687 62.4601 76.9425 62.3764 76.8033 62.3227C77.0181 63.046 77.0515 63.7268 76.3672 64.1644C75.8871 64.4716 75.4515 64.2417 75.0689 63.8417C74.8112 64.4943 74.9051 65.1093 75.1035 65.7254C74.1298 65.7152 73.2212 65.0829 72.8796 64.2046C72.511 63.2573 72.7287 62.3281 73.51 61.5701C73.703 61.3868 73.907 61.2161 74.121 61.0588C75.198 60.2481 75.3647 59.3284 74.6369 58.1908C74.6111 58.1513 74.5923 58.1076 74.5359 58.001C74.7455 58.0339 74.9033 58.0477 75.056 58.0842C76.2862 58.3806 77.4548 58.8111 78.3827 59.7361C79.7532 61.1007 80.2058 64.1165 77.5833 65.4517C77.4489 65.5194 77.3022 65.5631 77.0815 65.6493Z" fill="white"/>
</svg>
