<svg width="140" height="140" viewBox="0 0 140 140" fill="none" xmlns="http://www.w3.org/2000/svg">
<rect opacity="0.01" width="140" height="140" fill="#0D0D0E"/>
<g filter="url(#filter0_d)">
<rect x="31" y="30" width="80" height="80" rx="12" fill="#00BE71"/>
<rect x="47" y="46" width="48" height="48" fill="#590000" fill-opacity="0.01"/>
</g>
<path d="M70.1731 58.9976C70.2987 58.7865 70.3587 58.7262 70.373 58.6571C70.7537 56.7194 71.9995 55.4908 73.5927 54.5502C73.9353 54.3464 74.2922 54.1689 74.6605 54.0191C74.7795 53.9714 75.0536 54.0191 75.0802 54.095C75.1525 54.2953 75.1383 54.5308 75.1392 54.7516C75.1392 54.7934 75.0498 54.8372 74.9993 54.8761C73.5879 55.9578 73.0835 57.4743 73.0007 59.1999C72.9845 59.5549 73.0959 59.7038 73.4642 59.7651C75.991 60.1824 78.3275 61.1065 80.3985 62.6589C83.3742 64.8872 85.3862 67.8145 86.4343 71.4408C86.5457 71.8299 86.7075 71.9612 87.1006 71.8951C90.957 71.2492 94.0967 75.1353 92.6339 78.9961C91.7174 81.4153 89.005 82.8189 86.5324 82.0651C86.0222 81.9094 85.8452 82.0651 85.6444 82.5086C85.2999 83.2703 84.8764 83.995 84.4871 84.7362C84.3415 85.0124 84.1711 85.0368 83.9161 84.8578C82.8025 84.0796 81.6862 83.3111 80.5546 82.5641C80.1967 82.3287 80.1634 82.1575 80.3899 81.7674C82.0564 78.9027 82.5989 75.8434 81.6367 72.6237C80.8801 70.0897 79.1041 68.6977 76.5525 68.3689C75.6198 68.2493 74.7186 68.507 73.8877 68.936C73.0207 69.3815 72.2127 69.9195 71.5702 70.6869C71.1382 71.2035 70.8907 71.185 70.4529 70.7045C69.2813 69.4175 67.8832 68.5177 66.1406 68.3854C65.5094 68.3445 64.8764 68.4267 64.2752 68.6277C61.8959 69.4204 60.554 71.1363 60.1485 73.6548C59.7621 76.0545 60.0143 78.3657 60.987 80.5845C61.1993 81.0373 61.4426 81.4742 61.7151 81.8919C61.8636 82.1322 61.8607 82.2936 61.6199 82.4561C60.4182 83.2719 59.2197 84.0926 58.0243 84.9181C57.7692 85.0951 57.6436 84.9589 57.5351 84.7586C57.1201 83.9755 56.6881 83.2022 56.3112 82.3987C56.1303 82.0096 55.9457 81.9347 55.5412 82.0534C52.0712 83.0757 48.7468 80.2781 49.0152 76.5778C49.2275 73.6499 51.9979 71.4126 54.8541 71.8873C55.2928 71.9603 55.506 71.8649 55.6326 71.3912C56.4996 68.1481 58.2717 65.5042 60.7786 63.3467C62.7736 61.6243 65.1644 60.4487 67.7262 59.9304C68.1412 59.8438 68.2497 59.6639 68.1069 59.2612C67.8509 58.5306 67.4987 57.8663 66.8973 57.377C66.6803 57.1999 66.6346 57.0667 66.7878 56.8167C66.941 56.5667 67.0733 56.4276 67.3864 56.5832C68.4067 57.0998 69.3851 57.66 70.0237 58.6697C70.0804 58.7756 70.1303 58.8851 70.1731 58.9976ZM86.9178 77.6741L86.8112 77.7189C86.9207 77.9611 86.9683 78.2879 87.1519 78.4309C87.7116 78.8638 88.6557 78.7305 89.1572 78.215C89.6588 77.6994 89.7207 76.6819 89.2933 76.0535C88.8993 75.4699 88.018 75.2131 87.3823 75.5351C87.2922 75.5878 87.2138 75.6592 87.1522 75.7446C87.0906 75.83 87.0471 75.9276 87.0244 76.0312C86.9511 76.5739 86.9483 77.1255 86.9178 77.6741ZM55.0911 77.6595C55.0616 77.1274 55.0673 76.5895 54.9845 76.0662C54.9585 75.95 54.9081 75.8411 54.8367 75.7468C54.7654 75.6526 54.6749 75.5754 54.5714 75.5205C54.2929 75.3965 53.9841 75.3621 53.6859 75.4217C53.3878 75.4812 53.1144 75.6321 52.9021 75.8541C52.6718 76.0925 52.5155 76.395 52.4527 76.7238C52.3899 77.0525 52.4234 77.3929 52.549 77.7023C52.6769 78.0006 52.8868 78.2545 53.1533 78.4331C53.4197 78.6117 53.7312 78.7072 54.0499 78.7081C54.8122 78.6858 55.132 78.3667 55.0911 77.6595Z" fill="white"/>
<defs>
<filter id="filter0_d" x="27" y="26" width="88" height="88" filterUnits="userSpaceOnUse" color-interpolation-filters="sRGB">
<feFlood flood-opacity="0" result="BackgroundImageFix"/>
<feColorMatrix in="SourceAlpha" type="matrix" values="0 0 0 0 0 0 0 0 0 0 0 0 0 0 0 0 0 0 127 0"/>
<feOffset/>
<feGaussianBlur stdDeviation="2"/>
<feColorMatrix type="matrix" values="0 0 0 0 0 0 0 0 0 0 0 0 0 0 0 0 0 0 0.4 0"/>
<feBlend mode="normal" in2="BackgroundImageFix" result="effect1_dropShadow"/>
<feBlend mode="normal" in="SourceGraphic" in2="effect1_dropShadow" result="shape"/>
</filter>
</defs>
</svg>
