<svg width="140" height="140" viewBox="0 0 140 140" fill="none" xmlns="http://www.w3.org/2000/svg">
<rect x="29" y="30" width="80" height="80" rx="12" fill="white"/>
<rect x="45" y="46" width="48" height="48" fill="#590000" fill-opacity="0.01"/>
<g clip-path="url(#clip0)">
<path d="M68.3538 60.0996C71.341 60.0996 74.3283 60.0996 77.3155 60.0996C77.6975 60.0996 78.0406 60.2056 78.3433 60.4412C78.7515 60.759 78.9354 61.1881 78.9669 61.693C78.9708 61.7551 78.9682 61.8177 78.9682 61.8801C78.9682 67.7767 78.9678 73.6733 78.9669 79.57C78.9669 79.9012 78.9686 79.8837 78.6623 79.8762C77.9385 79.8592 77.2324 79.7342 76.5393 79.5268C75.4764 79.2087 74.5238 78.6852 73.6686 77.9829C73.126 77.5347 72.6441 77.0177 72.2351 76.445C71.5152 75.4443 71.0379 74.3386 70.8204 73.1255C70.7576 72.7752 70.709 72.4181 70.7013 72.063C70.6783 70.9242 70.6773 69.7849 70.6686 68.6457C70.6666 68.3764 70.6686 68.3761 70.394 68.3761C69.3621 68.3761 68.3303 68.3761 67.2984 68.3761C65.9279 68.3761 64.6397 68.0472 63.4302 67.4063C62.5497 66.9402 61.7862 66.3201 61.1256 65.577C60.406 64.7707 59.8565 63.8276 59.5098 62.8039C59.2887 62.1523 59.14 61.4838 59.0961 60.7947C59.0861 60.6365 59.0705 60.4785 59.0671 60.3201C59.0625 60.1173 59.0776 60.1056 59.2734 60.1028C59.3244 60.1028 59.3754 60.1028 59.4264 60.1028H68.3543L68.3538 60.0996Z" fill="url(#paint0_linear)"/>
<path d="M77.3863 51C80.3735 51 83.3609 51 86.3485 51C86.7305 51 87.0736 51.1062 87.3763 51.3416C87.7845 51.6594 87.9684 52.0885 87.9999 52.5934C88.0038 52.6555 88.0012 52.7181 88.0012 52.7805C88.0012 58.6773 88.0008 64.5739 87.9999 70.4704C87.9999 70.8016 88.0016 70.7841 87.6952 70.7766C86.9715 70.7596 86.2654 70.6346 85.5723 70.4272C84.5094 70.1091 83.5568 69.5856 82.7016 68.8833C82.1589 68.4352 81.6771 67.9182 81.2681 67.3454C80.5476 66.3454 80.0704 65.2395 79.8528 64.0259C79.7901 63.6756 79.7414 63.3185 79.7338 62.9636C79.7106 61.8237 79.7098 60.6853 79.7011 59.5461C79.6991 59.2768 79.7011 59.2766 79.4264 59.2765C78.3946 59.2765 77.3627 59.2765 76.3309 59.2765C74.9604 59.2765 73.6721 58.9474 72.4627 58.3067C71.5809 57.8404 70.8174 57.2205 70.1568 56.4772C69.4373 55.6709 68.8877 54.7278 68.541 53.7042C68.3199 53.0527 68.1713 52.384 68.1274 51.695C68.1173 51.5367 68.1017 51.3787 68.0983 51.2203C68.0937 51.0175 68.1088 51.0058 68.3046 51.0031C68.3556 51.0031 68.4067 51.0031 68.4577 51.0031H77.3856L77.3863 51Z" fill="url(#paint1_linear)"/>
<path d="M59.2886 69.2207C62.2758 69.2207 65.2631 69.2207 68.2503 69.2207C68.6323 69.2207 68.9754 69.3269 69.2781 69.5623C69.6863 69.8801 69.8702 70.3092 69.9017 70.8141C69.9056 70.8762 69.903 70.9388 69.903 71.0012C69.903 76.898 69.9026 82.7947 69.9017 88.6911C69.9017 89.0223 69.9034 89.0048 69.597 88.9973C68.8733 88.9803 68.1671 88.8553 67.4741 88.6479C66.4112 88.3298 65.4586 87.8063 64.6034 87.104C64.0607 86.6559 63.5789 86.1389 63.1699 85.5661C62.4499 84.5661 61.9727 83.4602 61.7551 82.2466C61.6924 81.8963 61.6437 81.5392 61.6361 81.1843C61.613 80.0445 61.6121 78.906 61.6034 77.7668C61.6014 77.4975 61.6034 77.4973 61.3287 77.4972C60.2969 77.4972 59.2651 77.4972 58.2332 77.4972C56.8627 77.4972 55.5745 77.1681 54.365 76.5274C53.4833 76.0611 52.7198 75.4412 52.0592 74.6979C51.3396 73.8916 50.7901 72.9485 50.4434 71.9249C50.2223 71.2734 50.0736 70.6047 50.0297 69.9157C50.0197 69.7575 50.004 69.5994 50.0006 69.441C49.9961 69.2382 50.0112 69.2265 50.207 69.2238C50.258 69.2238 50.309 69.2238 50.36 69.2238H59.2886V69.2207Z" fill="url(#paint2_linear)"/>
</g>
<defs>
<linearGradient id="paint0_linear" x1="67.2649" y1="71.7401" x2="78.4647" y2="60.5433" gradientUnits="userSpaceOnUse">
<stop stop-color="#2684FF"/>
<stop offset="1" stop-color="#0052CC"/>
</linearGradient>
<linearGradient id="paint1_linear" x1="30841.3" y1="13585.6" x2="43862.3" y2="482.553" gradientUnits="userSpaceOnUse">
<stop stop-color="#2684FF"/>
<stop offset="1" stop-color="#0052CC"/>
</linearGradient>
<linearGradient id="paint2_linear" x1="9644.65" y1="34787.7" x2="22665.7" y2="21685" gradientUnits="userSpaceOnUse">
<stop stop-color="#2684FF"/>
<stop offset="1" stop-color="#0052CC"/>
</linearGradient>
<clipPath id="clip0">
<rect width="38" height="38" fill="white" transform="translate(50 51)"/>
</clipPath>
</defs>
</svg>
