<svg width="140" height="140" viewBox="0 0 140 140" fill="none" xmlns="http://www.w3.org/2000/svg">
<rect opacity="0.01" width="140" height="140" fill="#0D0D0E"/>
<g filter="url(#filter0_d)">
<rect x="30" y="30" width="80" height="80" rx="12" fill="#00005B"/>
<rect x="46" y="46" width="48" height="48" fill="#590000" fill-opacity="0.01"/>
</g>
<g clip-path="url(#clip0)">
<path d="M59.7115 56.0074C60.7462 56.0074 61.7785 56.0173 62.8156 56.0021C63.17 55.9969 63.3696 56.0966 63.4989 56.4571C66.6586 65.2546 69.8253 74.05 72.9992 82.8432C73.2082 83.423 73.1563 83.4901 72.5296 83.4906C70.876 83.4906 69.2188 83.4784 67.5634 83.5C67.1234 83.5058 66.9196 83.3431 66.7844 82.9401C66.1607 81.0842 65.4987 79.2406 64.8786 77.3842C64.7539 77.0103 64.5762 76.889 64.184 76.8907C61.2181 76.9059 58.2521 76.9059 55.2862 76.8907C54.9123 76.8907 54.744 77.0074 54.6318 77.3637C54.053 79.198 53.4341 81.0201 52.86 82.8549C52.7195 83.304 52.4945 83.4866 52.0149 83.479C50.601 83.4568 49.1866 83.472 47.7727 83.4714C46.9146 83.4714 46.8791 83.4265 47.1561 82.6397C48.7972 77.9831 50.4394 73.3268 52.0828 68.6706C53.2215 65.443 54.3861 62.2235 55.4864 58.9836C55.751 58.2056 55.8626 57.3675 55.9636 56.5475C56.0144 56.1304 56.1408 55.9916 56.5542 56.0004C57.6072 56.022 58.6596 56.0074 59.7115 56.0074ZM59.6932 60.8605L56.3912 71.6819H63.0879C61.9469 68.0442 60.8206 64.4567 59.6932 60.8605Z" fill="#9999FF"/>
<path d="M80.4293 74.531C80.7016 76.2906 81.4511 77.6618 83.1307 78.4048C84.792 79.1397 86.5337 79.2318 88.299 78.9612C89.4801 78.7798 90.653 78.5139 91.8655 78.2794C91.8525 78.2602 91.9039 78.3016 91.9045 78.343C91.9128 79.7048 91.9358 81.0673 91.8974 82.4256C91.8921 82.6187 91.6192 82.8881 91.4072 82.9791C89.7364 83.6924 87.9564 83.9065 86.1604 83.98C84.5015 84.0476 82.8484 83.9403 81.2491 83.4551C78.6139 82.6531 76.6425 81.0224 75.5629 78.5308C73.8714 74.6231 74.0025 70.7078 76.1298 66.9891C77.8585 63.9651 80.5504 62.3565 84.1193 62.2649C85.6342 62.227 87.1136 62.3722 88.5269 62.9456C91.6441 64.2106 93.1229 66.6993 93.5771 69.8277C93.7702 71.1581 93.6024 72.5398 93.5948 73.8981C93.5948 74.3356 93.3249 74.4849 92.9197 74.486C91.7846 74.4895 90.6495 74.5053 89.5144 74.5047C86.5835 74.5047 83.6524 74.5014 80.7211 74.4948C80.6532 74.496 80.5858 74.5111 80.4293 74.531ZM80.5102 70.6565C80.6073 70.6789 80.7061 70.6935 80.8055 70.7003C82.9423 70.6933 85.0791 70.7003 87.2158 70.6659C88.2251 70.6507 88.3432 70.4582 88.1035 69.4725C88.0952 69.4393 88.0816 69.4078 88.0722 69.3751C87.5206 67.3921 85.4877 66.3219 83.3699 66.8976C81.7115 67.3467 80.3472 69.1296 80.5091 70.6565H80.5102Z" fill="#9999FF"/>
</g>
<defs>
<filter id="filter0_d" x="26" y="26" width="88" height="88" filterUnits="userSpaceOnUse" color-interpolation-filters="sRGB">
<feFlood flood-opacity="0" result="BackgroundImageFix"/>
<feColorMatrix in="SourceAlpha" type="matrix" values="0 0 0 0 0 0 0 0 0 0 0 0 0 0 0 0 0 0 127 0"/>
<feOffset/>
<feGaussianBlur stdDeviation="2"/>
<feColorMatrix type="matrix" values="0 0 0 0 0 0 0 0 0 0 0 0 0 0 0 0 0 0 0.4 0"/>
<feBlend mode="normal" in2="BackgroundImageFix" result="effect1_dropShadow"/>
<feBlend mode="normal" in="SourceGraphic" in2="effect1_dropShadow" result="shape"/>
</filter>
<clipPath id="clip0">
<rect width="46.6667" height="28" fill="white" transform="translate(47 56)"/>
</clipPath>
</defs>
</svg>
