<svg width="140" height="140" viewBox="0 0 140 140" fill="none" xmlns="http://www.w3.org/2000/svg">
<rect opacity="0.01" width="140" height="140" fill="#0D0D0E"/>
<g filter="url(#filter0_d)">
<rect x="30" y="30" width="80" height="80" rx="12" fill="#FFE01B"/>
</g>
<g clip-path="url(#clip0)">
<path d="M82.1908 59.8246C83.1247 60.7648 83.6674 61.9069 83.9324 63.169C84.1028 63.983 84.1785 64.8285 84.229 65.6615C84.2795 66.4439 84.2416 67.2327 84.2416 67.9773C85.0682 68.2612 85.8191 68.4884 86.5511 68.7723C86.9676 68.9364 87.3714 69.1446 87.75 69.3907C89.3402 70.413 89.7945 72.2555 88.8606 73.9024C88.7407 74.1107 88.7218 74.281 88.8101 74.5145C88.9931 74.9941 89.1256 75.4926 89.2897 75.9785C89.3212 76.0668 89.378 76.193 89.4538 76.2119C90.4066 76.4643 90.7789 77.1774 90.9366 78.0545C91.107 79.0389 90.9429 80.0043 90.7095 80.9508C89.5547 85.5635 86.7152 88.7943 82.4874 90.8577C80.6512 91.7537 78.695 92.2522 76.6632 92.4604C73.0854 92.8327 69.6211 92.4289 66.3273 90.9334C62.6358 89.2549 59.891 86.6047 58.1746 82.9133C58.1304 82.8123 58.0042 82.6861 57.9096 82.6798C55.985 82.5536 54.3949 81.7396 53.1013 80.345C51.3029 78.4015 50.9432 76.1236 51.6689 73.6374C51.7383 73.3913 51.7068 73.2651 51.5111 73.1137C51.1199 72.8108 50.7539 72.4764 50.3753 72.1609C49.4477 71.391 49.0439 70.3751 49.006 69.1951C48.9492 67.4851 49.4919 65.9075 50.186 64.3805C51.448 61.6041 53.2023 59.1431 55.1962 56.8526C57.3669 54.3474 59.7648 52.0884 62.5601 50.2774C64.0114 49.3372 65.5322 48.5359 67.2422 48.1699C68.5042 47.8985 69.7473 47.9048 70.8895 48.6368C71.1103 48.7756 71.3122 48.946 71.5015 49.129C72.1325 49.7348 72.7572 50.3405 73.3693 50.9652C73.5334 51.1293 73.6596 51.1672 73.8804 51.0662C75.2813 50.4415 76.7074 49.8988 78.2281 49.6149C79.6668 49.3499 81.0992 49.2552 82.5379 49.6401C84.8158 50.2522 85.9075 52.0316 85.4279 54.3348C85.0682 56.0386 84.1785 57.4583 83.1058 58.7834C82.8029 59.1368 82.5 59.4649 82.1908 59.8246ZM88.3116 77.5371C88.0782 76.7357 87.8447 75.9532 87.6049 75.1455C87.4976 75.2086 87.4724 75.2276 87.4471 75.2402C84.0018 77.739 80.1022 78.5593 75.9312 78.3889C75.2308 78.3637 74.5304 78.269 73.83 78.2501C73.3883 78.2375 73.1106 78.5277 73.016 78.9947C73.1043 79.0262 73.1989 79.0704 73.2999 79.102C75.3822 79.7708 77.5151 79.9223 79.6794 79.7203C79.7804 79.714 79.8813 79.7645 79.9823 79.7898C79.9066 79.8718 79.8435 79.9728 79.7488 80.0295C79.6668 80.0863 79.5532 80.1053 79.4523 80.1368C77.7801 80.629 76.0953 80.6101 74.4042 80.2819C73.9057 80.1873 73.4135 80.0548 72.8834 79.9349C72.9465 80.3324 73.1358 80.6227 73.3946 80.8751C73.8489 81.3105 74.4105 81.5377 75.0036 81.6891C76.8525 82.1624 78.7077 82.0929 80.5565 81.7143C82.8723 81.2411 85.0114 80.3198 86.9991 79.0452C87.0748 79.001 87.1506 78.9631 87.2263 78.919C87.2452 78.9379 87.2642 78.9568 87.2831 78.9758C87.2263 79.0767 87.1821 79.1966 87.1064 79.2723C86.6079 79.733 86.1473 80.263 85.5857 80.6353C82.601 82.623 79.3008 83.3487 75.7545 82.9574C74.7386 82.8438 73.7669 82.5094 72.9276 81.8973C71.918 81.159 71.552 80.1494 71.7918 78.9379C72.0063 77.8336 72.8645 77.0512 73.8552 77.0638C74.3663 77.0701 74.8774 77.1711 75.3886 77.2089C77.1806 77.3477 78.9538 77.2089 80.708 76.8303C82.6325 76.4202 84.4562 75.745 86.0715 74.5965C86.6899 74.1548 87.2515 73.6437 87.5607 72.9244C87.9078 72.123 87.7311 71.3658 87.0244 70.861C86.6331 70.5833 86.1977 70.3562 85.7497 70.1858C85.0241 69.9145 84.2732 69.7062 83.5349 69.4854C83.0742 69.3465 82.8408 69.031 82.7714 68.583C82.7335 68.3243 82.7146 68.0593 82.6956 67.8006C82.6262 66.6458 82.6073 65.4911 82.4874 64.3426C82.4243 63.7621 82.2413 63.169 81.9952 62.6389C81.686 61.9574 81.0803 61.6545 80.3167 61.7113C79.7993 61.7492 79.3702 61.9764 78.9916 62.3045C78.2407 62.9544 77.4204 63.5097 76.4108 63.5791C75.5652 63.6359 74.7134 63.5476 73.8678 63.5097C73.1043 63.4782 72.3471 63.3267 71.5773 63.516C69.6527 63.9893 68.1887 65.9012 68.1382 67.9899C68.1067 69.5043 68.6431 70.7979 69.5896 71.9463C69.9871 72.4259 70.4036 72.8802 70.7885 73.3661C71.0914 73.7447 71.0661 73.9845 70.7506 74.3441C70.5929 74.5271 70.4288 74.7038 70.2774 74.8931C69.2741 76.193 68.7503 77.6759 68.6241 79.3039C68.4348 81.8405 69.1416 84.0554 71.0661 85.7717C73.3062 87.7783 76.0132 88.3336 78.9285 88.0938C80.7521 87.9424 82.4622 87.3808 84.0523 86.4911C86.3492 85.2038 88.0782 83.3991 88.9742 80.8877C89.2203 80.1936 89.3465 79.449 89.4285 78.7107C89.5042 78.0734 89.2014 77.6822 88.7218 77.5623C88.583 77.5434 88.4378 77.5497 88.3116 77.5371ZM72 52.0064C71.4574 51.4385 70.9273 50.9148 70.4225 50.3658C69.8925 49.7789 69.2362 49.6023 68.4853 49.6717C68.2581 49.6906 68.0247 49.7221 67.7975 49.7663C66.1821 50.0818 64.7434 50.8138 63.3867 51.6972C58.7173 54.7513 55.0637 58.7645 52.3693 63.6485C51.5238 65.1819 50.8233 66.7846 50.6404 68.5704C50.4952 70.0091 51.1767 71.2774 52.4955 71.9211C52.5145 71.9084 52.5334 71.9021 52.546 71.8832C53.4105 70.7411 54.5526 70.028 55.9408 69.6936C56.0418 69.6684 56.1491 69.5295 56.1995 69.4223C56.5277 68.684 56.8116 67.9268 57.1524 67.1948C58.9507 63.3456 61.3675 59.9571 64.6172 57.1996C66.9015 55.2624 69.3372 53.5271 72 52.0064ZM61.4495 77.0386C61.4117 75.7197 61.2981 74.7795 60.9384 73.8772C59.891 71.2459 56.9946 70.413 54.7167 72.0914C53.1959 73.2083 52.5271 75.6314 53.2717 77.5055C54.0163 79.3733 55.4108 80.5154 57.3669 80.9256C59.077 81.2853 60.5661 80.4081 61.0962 78.7486C61.3107 78.086 61.3864 77.3793 61.4495 77.0386ZM74.0319 56.739C74.2275 56.5118 74.3474 56.3541 74.4862 56.2152C74.625 56.0701 74.7765 55.9376 74.9216 55.7988C73.0854 55.8808 71.4637 56.5434 69.9303 57.4773C69.8988 57.4457 69.8672 57.4205 69.8357 57.3889C70.0123 56.9409 70.1827 56.4992 70.3594 56.0575C69.2741 56.3036 65.1473 59.6858 64.8191 60.6197C68.9459 57.9127 73.4072 56.922 78.2786 57.9063C76.9976 57.1365 75.5905 56.8399 74.0319 56.739Z" fill="black"/>
<path d="M81.6482 68.1669C81.6482 68.1984 81.6482 68.23 81.6482 68.2615C81.6419 69.0503 81.4273 69.2206 80.6512 69.0313C80.5755 69.0124 80.4934 68.9304 80.4493 68.861C80.0076 68.0722 79.8183 67.2267 79.8751 66.3306C79.894 65.9899 80.1211 65.7375 80.3862 65.687C80.7017 65.6239 80.973 65.7438 81.1623 66.0908C81.5093 66.7282 81.6292 67.4349 81.6482 68.1669Z" fill="black"/>
<path d="M73.6849 68.457C74.4168 68.5138 75.0542 68.7536 75.5968 69.2206C75.7546 69.3531 75.8934 69.5234 76.0007 69.7001C76.0575 69.7948 76.0385 69.9336 76.0575 70.0535C75.9376 70.0598 75.8177 70.0914 75.7104 70.0724C75.5905 70.0535 75.4706 69.9904 75.3634 69.9336C74.3411 69.4099 73.2936 69.4035 72.2209 69.7695C72.0253 69.8389 71.8234 69.9021 71.6152 69.9399C71.5142 69.9588 71.3501 69.9336 71.3123 69.8705C71.2681 69.8011 71.306 69.6433 71.3628 69.5613C71.6593 69.1448 72.0884 68.8861 72.5554 68.7284C72.9277 68.5895 73.3126 68.5391 73.6849 68.457Z" fill="black"/>
<path d="M75.6533 71.1641C74.814 71.0379 74.0631 71.1073 73.3311 71.3975C73.2428 71.4354 73.1229 71.3786 73.0156 71.366C73.0346 71.2587 73.0156 71.1325 73.0724 71.0442C73.5394 70.2681 75.1232 70.0851 75.7668 70.7413C75.8363 70.8107 75.9057 70.9559 75.8804 71.0316C75.8489 71.1073 75.6974 71.1388 75.6533 71.1641Z" fill="black"/>
<path d="M79.3322 72.4013C78.8211 72.3508 78.5182 72.1868 78.3478 71.8397C78.1712 71.4927 78.3605 71.1456 78.7454 71.1014C79.105 71.0572 79.4079 71.1835 79.6414 71.4548C79.7992 71.6378 79.919 71.8713 79.7676 72.0795C79.654 72.2436 79.4269 72.3382 79.3322 72.4013Z" fill="black"/>
<path d="M81.8377 70.8359C81.8377 70.88 81.844 70.9179 81.8377 70.9621C81.7998 71.3407 81.5348 71.631 81.2509 71.631C80.9606 71.6247 80.6956 71.3281 80.6893 70.9495C80.6829 70.7665 80.6893 70.5456 80.7839 70.4068C80.8912 70.2427 81.1057 70.0534 81.2761 70.0597C81.4402 70.0597 81.6295 70.268 81.762 70.4194C81.844 70.5204 81.8377 70.6907 81.8692 70.8359C81.8566 70.8296 81.844 70.8296 81.8377 70.8359Z" fill="black"/>
<path d="M57.0939 72.8679C58.2802 72.7985 59.6369 74.0984 59.1447 75.6885C59.0563 75.9662 58.9364 76.2375 58.8418 76.5151C58.7661 76.7297 58.6777 76.9505 58.6399 77.1714C58.5705 77.5942 58.8797 77.916 59.3087 77.8907C59.3718 77.8844 59.4349 77.8529 59.4917 77.8592C59.6369 77.8844 59.7757 77.9223 59.9208 77.9538C59.8451 78.1053 59.8136 78.2946 59.6937 78.3955C59.2078 78.8057 58.4443 78.6795 58.0593 78.1368C57.6492 77.5626 57.7186 76.9379 57.87 76.2943C57.9584 75.9346 58.0657 75.556 58.0278 75.1963C57.971 74.6536 57.5672 74.3318 57.0056 74.2372C56.5449 74.1615 56.0338 74.4012 55.7814 74.8366C55.6804 75.007 55.6173 75.1963 55.5416 75.3793C55.5038 75.4677 55.5038 75.5812 55.4407 75.638C55.3208 75.7516 55.1756 75.84 55.0431 75.9346C54.9674 75.7958 54.8223 75.6633 54.8223 75.5244C54.8223 75.2026 54.8538 74.8745 54.9485 74.5653C55.2577 73.5115 56.0906 72.8616 57.0939 72.8679Z" fill="black"/>
</g>
<defs>
<filter id="filter0_d" x="26" y="26" width="88" height="88" filterUnits="userSpaceOnUse" color-interpolation-filters="sRGB">
<feFlood flood-opacity="0" result="BackgroundImageFix"/>
<feColorMatrix in="SourceAlpha" type="matrix" values="0 0 0 0 0 0 0 0 0 0 0 0 0 0 0 0 0 0 127 0"/>
<feOffset/>
<feGaussianBlur stdDeviation="2"/>
<feColorMatrix type="matrix" values="0 0 0 0 0 0 0 0 0 0 0 0 0 0 0 0 0 0 0.4 0"/>
<feBlend mode="normal" in2="BackgroundImageFix" result="effect1_dropShadow"/>
<feBlend mode="normal" in="SourceGraphic" in2="effect1_dropShadow" result="shape"/>
</filter>
<clipPath id="clip0">
<rect width="42" height="44.5871" fill="white" transform="translate(49 48)"/>
</clipPath>
</defs>
</svg>
