<svg width="140" height="140" viewBox="0 0 140 140" fill="none" xmlns="http://www.w3.org/2000/svg">
<rect x="30" y="30" width="80" height="80" rx="12" fill="#FFD600"/>
<rect x="46" y="46" width="48" height="48" fill="#590000" fill-opacity="0.01"/>
<g clip-path="url(#clip0)">
<path d="M70.0349 81.9956C67.0082 81.9956 63.9815 81.9956 60.9547 81.9956C57.8094 82.012 54.7666 80.9104 52.4003 78.8985C50.0339 76.8866 48.5076 74.1035 48.1093 71.0742C47.2686 64.9363 51.3578 59.0157 57.6029 57.4197C58.6598 57.1574 59.7464 57.0242 60.8373 57.023C66.9978 56.9865 73.1504 56.9987 79.3109 57.0063C84.5821 57.0063 89.4291 60.3503 91.2326 65.2144C93.0674 70.1576 91.5661 75.7027 87.5113 79.0057C85.058 81.0015 82.2463 82.0199 79.0385 82.0047C76.0326 81.985 73.0346 81.9956 70.0349 81.9956ZM70.0162 80.1108C72.9391 80.1108 75.8604 80.1108 78.7833 80.1108C79.3823 80.1086 79.9805 80.069 80.5743 79.9922C86.3324 79.2565 90.4013 74.3681 90.0193 68.6543C89.6561 63.2642 84.7903 58.8957 79.1355 58.8926C73.0565 58.8926 66.9774 58.8744 60.8999 58.9109C59.9107 58.9221 58.9271 59.058 57.9739 59.3152C52.8169 60.6893 49.3978 65.5109 50.0647 70.6926C50.7755 76.2332 55.3735 80.1032 61.0158 80.1032L70.0162 80.1108Z" fill="#043241"/>
<path d="M80.21 72.0172C81.0648 69.5365 81.846 67.2626 82.6351 64.9901C83.0061 63.9261 83.4914 63.5521 84.1724 63.7878C84.8926 64.0355 85.0178 64.5691 84.6264 65.63C83.5827 68.4603 82.539 71.2922 81.4953 74.1255C81.2652 74.7594 80.9944 75.3035 80.1787 75.3035C79.363 75.3035 79.0828 74.7624 78.8683 74.1225C78.1591 72.0385 77.4311 69.9591 76.6953 67.8782C76.6499 67.7474 76.5732 67.6274 76.4355 67.3492C75.8906 68.8966 75.3975 70.2965 74.9028 71.698C74.5897 72.61 74.2672 73.5221 73.9415 74.4219C73.7552 74.9433 73.4092 75.2716 72.8018 75.302C72.1615 75.3339 71.7513 75.033 71.5493 74.4797C70.394 71.3656 69.2459 68.2485 68.1051 65.1284C67.8703 64.4824 68.1427 64.0401 68.7627 63.7954C69.3325 63.5704 69.9243 63.8546 70.1717 64.5295C70.7212 66.0298 71.2284 67.5438 71.7513 69.0532C72.0801 70.0032 72.4041 70.9562 72.7799 72.0476C73.4499 70.0716 74.0762 68.2339 74.7008 66.3931C74.8965 65.8185 75.0875 65.2409 75.2895 64.6679C75.4914 64.0948 75.8045 63.6844 76.5122 63.6966C77.2198 63.7087 77.5126 64.1404 77.7036 64.7074C78.4425 66.8901 79.182 69.0719 79.9219 71.2526C79.983 71.4396 80.0597 71.622 80.21 72.0172Z" fill="#043241"/>
<path d="M54.4824 69.5241C54.4824 66.0508 57.2879 63.3695 60.9184 63.374C62.5919 63.4059 64.1853 64.0757 65.3544 65.2388C66.5235 66.4018 67.1745 67.9647 67.1666 69.5898C67.1588 71.2149 66.4929 72.7718 65.3127 73.9242C64.1324 75.0766 62.5327 75.7319 60.8589 75.7486C57.2722 75.7395 54.484 73.0171 54.4824 69.5241ZM60.8699 65.2604C59.6982 65.2567 58.5727 65.7037 57.7395 66.5036C56.9063 67.3034 56.4332 68.3911 56.4237 69.5286C56.4143 71.8589 58.3744 73.8197 60.7431 73.8486C61.9161 73.8649 63.0477 73.4282 63.889 72.6344C64.7303 71.8406 65.2124 70.7549 65.2292 69.616C65.246 68.4772 64.7962 67.3785 63.9787 66.5616C63.1611 65.7448 62.0429 65.2767 60.8699 65.2604Z" fill="#043241"/>
</g>
<defs>
<clipPath id="clip0">
<rect width="44" height="25" fill="white" transform="translate(48 57)"/>
</clipPath>
</defs>
</svg>
