<svg width="140" height="140" viewBox="0 0 140 140" fill="none" xmlns="http://www.w3.org/2000/svg">
<rect opacity="0.01" width="140" height="140" fill="#0B0B0C"/>
<g filter="url(#filter0_d)">
<rect x="30" y="30" width="80" height="80" rx="12" fill="#006DE4"/>
</g>
<path d="M55.4188 79C50.2111 78.9993 45.9939 74.7498 46 69.4976C46.0055 64.398 49.9885 60 55.427 60C60.8096 60 64.8328 64.3293 64.8491 69.5052C64.8655 74.7456 60.6251 79.0007 55.4188 79ZM55.4453 64.9615C53.0716 64.8646 50.9014 66.9145 50.9014 69.4832C50.8969 70.0826 51.0101 70.6771 51.2346 71.2321C51.4591 71.7871 51.7904 72.2916 52.2093 72.7166C52.6282 73.1415 53.1264 73.4784 53.675 73.7078C54.2237 73.9372 54.812 74.0545 55.4059 74.053C57.9314 74.053 59.9485 72.0464 59.9553 69.5258C59.9607 66.9509 57.8375 64.8941 55.4453 64.9615V64.9615Z" fill="white"/>
<path d="M74.7367 69.5096C74.7367 67.2996 74.7306 65.0896 74.7367 62.8797C74.737 62.2178 74.9852 61.5805 75.4314 61.0955C75.8777 60.6106 76.4891 60.3139 77.143 60.265C77.7968 60.2161 78.4449 60.4185 78.9571 60.8316C79.4694 61.2448 79.8079 61.8382 79.9049 62.4928C79.9348 62.6975 79.9496 62.9043 79.9492 63.1112C79.9519 67.3828 79.9519 71.6541 79.9492 75.9252C79.9492 77.2034 79.3529 78.1613 78.3188 78.5798C77.9261 78.7435 77.4995 78.8072 77.0767 78.7653C76.6539 78.7235 76.2477 78.5773 75.894 78.3397C75.5403 78.1021 75.2498 77.7804 75.0483 77.4029C74.8467 77.0253 74.7402 76.6035 74.7381 76.1746C74.7258 73.9495 74.7374 71.7313 74.7367 69.5096Z" fill="white"/>
<path d="M67.1723 69.4748C67.1723 67.2875 67.1689 65.1002 67.1723 62.9129C67.1723 61.5612 68.0368 60.5297 69.3507 60.2851C70.8483 60.0068 72.3269 61.2183 72.3507 62.7652C72.3704 64.0474 72.3568 65.3304 72.3568 66.6134C72.3568 69.7745 72.3568 72.9355 72.3568 76.0966C72.3568 77.4647 71.4834 78.5017 70.1553 78.7422C68.6495 79.0109 67.1852 77.798 67.1723 76.2429C67.1566 73.9869 67.1682 71.7309 67.1682 69.4748H67.1723Z" fill="white"/>
<path d="M89.7817 69.5319C89.7817 68.5362 89.7763 67.539 89.7817 66.5454C89.7912 65.1332 90.6789 64.0853 92.0568 63.8461C93.4006 63.6132 94.8478 64.7395 94.9547 66.1138C94.9908 66.5949 95.0003 67.0759 94.9983 67.5569C94.9922 69.3182 95.0037 71.0808 94.954 72.8414C94.9193 74.0783 93.875 75.1221 92.6742 75.2232C91.3386 75.3359 90.1554 74.5016 89.8716 73.2372C89.8151 72.9829 89.8089 72.717 89.7804 72.4559C89.779 72.433 89.779 72.41 89.7804 72.3871C89.7808 71.4333 89.7813 70.4816 89.7817 69.5319Z" fill="white"/>
<path d="M87.4489 69.5067C87.3944 70.0723 87.4067 70.6557 87.2719 71.2013C86.988 72.3489 85.764 73.1804 84.6462 73.0629C83.3297 72.9255 82.299 71.9531 82.2343 70.6804C82.1881 69.7706 82.1738 68.8408 82.3024 67.9447C82.4958 66.6583 83.783 65.8083 85.1445 65.9402C86.342 66.0564 87.3781 67.2026 87.3985 68.4375C87.4046 68.792 87.3985 69.1473 87.3985 69.5019L87.4489 69.5067Z" fill="white"/>
<defs>
<filter id="filter0_d" x="26" y="26" width="88" height="88" filterUnits="userSpaceOnUse" color-interpolation-filters="sRGB">
<feFlood flood-opacity="0" result="BackgroundImageFix"/>
<feColorMatrix in="SourceAlpha" type="matrix" values="0 0 0 0 0 0 0 0 0 0 0 0 0 0 0 0 0 0 127 0"/>
<feOffset/>
<feGaussianBlur stdDeviation="2"/>
<feColorMatrix type="matrix" values="0 0 0 0 0 0 0 0 0 0 0 0 0 0 0 0 0 0 0.4 0"/>
<feBlend mode="normal" in2="BackgroundImageFix" result="effect1_dropShadow"/>
<feBlend mode="normal" in="SourceGraphic" in2="effect1_dropShadow" result="shape"/>
</filter>
</defs>
</svg>
