<svg width="140" height="140" viewBox="0 0 140 140" fill="none" xmlns="http://www.w3.org/2000/svg">
<rect opacity="0.01" width="140" height="140" fill="#0F0E10"/>
<rect x="30" y="30" width="80" height="80" rx="12" fill="#531755"/>
<rect x="46" y="46" width="48" height="48" fill="#590000" fill-opacity="0.01"/>
<g clip-path="url(#clip0)">
<path d="M59.4723 68.9364C57.6979 68.9364 55.9272 68.9402 54.1527 68.9326C53.5523 68.9288 52.9786 68.7996 52.4314 68.5337C51.9906 68.3209 51.584 68.0663 51.2459 67.713C50.6493 67.0975 50.2389 66.3832 50.0793 65.5246C49.9996 65.1028 49.992 64.6811 50.0223 64.2632C50.0565 63.8414 50.1781 63.4311 50.3529 63.0398C50.5467 62.6028 50.8013 62.2191 51.1243 61.8695C51.6258 61.33 52.2186 60.9425 52.9216 60.7183C53.2635 60.6119 53.6093 60.555 53.9703 60.5284C54.677 60.4752 55.3838 60.5018 56.0906 60.5018C58.9214 60.4942 61.7522 60.4942 64.583 60.5018C65.1682 60.5018 65.7457 60.5816 66.2891 60.8133C66.6805 60.9805 67.049 61.1933 67.3834 61.4668C67.847 61.8429 68.2042 62.2989 68.474 62.8232C68.6639 63.1955 68.8045 63.5869 68.8615 64.0086C68.8957 64.2632 68.9375 64.5177 68.9337 64.7761C68.9261 65.2738 68.8235 65.7563 68.6525 66.2236C68.4018 66.8999 67.9838 67.4622 67.4442 67.9296C66.9351 68.3703 66.3423 68.6666 65.6849 68.8186C65.3544 68.8946 65.02 68.9364 64.678 68.9364C62.9415 68.9326 61.2088 68.9364 59.4723 68.9364Z" fill="#66C1ED"/>
<path d="M80.5491 71.0718C82.2704 71.0718 83.9955 71.0718 85.7168 71.0718C86.8339 71.0718 87.818 71.4403 88.6426 72.1964C89.2581 72.7587 89.6609 73.454 89.8699 74.2633C89.9915 74.7344 90.0257 75.2131 89.9763 75.6919C89.8965 76.4783 89.6153 77.1926 89.1328 77.8233C88.6198 78.4882 87.9662 78.9708 87.1721 79.2481C86.8263 79.3697 86.4729 79.4533 86.1044 79.4647C85.6674 79.4761 85.2342 79.4951 84.7972 79.4951C81.6624 79.4989 78.5276 79.4989 75.3928 79.4951C74.4771 79.4951 73.626 79.2633 72.8698 78.72C72.0339 78.1197 71.4791 77.3294 71.2131 76.334C71.1143 75.9578 71.0535 75.5817 71.0687 75.1941C71.1067 74.2405 71.4107 73.3818 72.0187 72.6371C72.543 71.995 73.2004 71.5467 73.9869 71.2845C74.4011 71.1478 74.8305 71.0794 75.2675 71.0756C77.0305 71.0718 78.7898 71.0718 80.5491 71.0718Z" fill="#E2B625"/>
<path d="M60.5274 80.5432C60.5274 78.8145 60.5312 77.0858 60.5274 75.3571C60.5236 74.4528 60.7592 73.6284 61.2797 72.8875C61.8763 72.0402 62.6742 71.4817 63.6774 71.2158C64.0346 71.1208 64.3955 71.0638 64.7603 71.0752C65.7369 71.1018 66.6108 71.4095 67.3707 72.0326C68.0091 72.5531 68.4537 73.2066 68.7083 73.9855C68.845 74.3996 68.9172 74.829 68.9172 75.2659C68.9172 78.7841 68.9248 82.3062 68.9134 85.8244C68.9096 86.8768 68.5373 87.8039 67.8305 88.5941C67.2302 89.2666 66.4854 89.6884 65.6191 89.8935C65.0871 90.0189 64.5437 90.0265 64.0004 89.9277C63.0124 89.7492 62.1917 89.278 61.5381 88.522C61.0024 87.9027 60.668 87.1846 60.5692 86.3639C60.5426 86.1397 60.5274 85.9118 60.5274 85.6838C60.5274 83.9741 60.5274 82.2606 60.5274 80.5432Z" fill="#D3215B"/>
<path d="M79.4624 64.9886C79.4092 65.323 79.3902 65.6611 79.2725 65.9841C79.1585 66.2956 79.0293 66.5996 78.8621 66.8883C78.6227 67.3025 78.2921 67.6406 77.9387 67.9522C77.4828 68.3549 76.9432 68.6246 76.3504 68.7766C76.0959 68.8412 75.8375 68.8906 75.5753 68.9324C75.4651 68.9514 75.3473 68.921 75.2333 68.9286C74.8153 68.9476 74.4164 68.8298 74.0174 68.7234C73.6184 68.617 73.265 68.4119 72.9193 68.2029C72.7597 68.1079 72.6153 67.9825 72.4785 67.8534C72.2619 67.6444 72.0453 67.4354 71.8705 67.1847C71.6919 66.9225 71.5324 66.6528 71.4146 66.364C71.3044 66.098 71.2246 65.8207 71.1486 65.5471C71.1106 65.4066 71.1106 65.2546 71.0916 65.1064C71.0878 64.9658 71.0878 64.8253 71.084 64.6809C71.084 64.6353 71.0878 64.5935 71.0878 64.5479C71.0878 61.1816 71.0878 57.8154 71.0878 54.4491C71.0878 54.4035 71.084 54.3617 71.084 54.3161C71.0878 54.1604 71.0878 54.0084 71.0916 53.8526C71.1372 53.1421 71.3842 52.4962 71.7603 51.9073C72.1555 51.2918 72.6989 50.8207 73.3562 50.4825C73.7666 50.2698 74.1998 50.1406 74.652 50.0646C75.0851 49.9924 75.5107 50.0114 75.9439 50.0836C76.3846 50.152 76.7912 50.3002 77.1826 50.4901C77.46 50.6269 77.707 50.8207 77.9539 51.0107C78.3225 51.2956 78.5999 51.6528 78.8431 52.0403C79.1205 52.4848 79.3066 52.9673 79.4016 53.4803C79.432 53.6398 79.4396 53.8032 79.4548 53.9666C79.4548 54.0882 79.451 54.206 79.451 54.3275C79.451 57.7546 79.451 61.1816 79.451 64.6087C79.4586 64.7341 79.4624 64.8594 79.4624 64.9886Z" fill="#4CB77C"/>
<path d="M68.9341 58.4121C68.8467 58.4121 68.7783 58.4121 68.7099 58.4121C67.399 58.4121 66.088 58.4083 64.7771 58.4159C64.0476 58.4197 63.3598 58.2564 62.7252 57.9068C62.2541 57.6485 61.8399 57.3141 61.4979 56.8924C61.1217 56.4327 60.852 55.9273 60.6848 55.3612C60.6012 55.0763 60.548 54.7913 60.5366 54.495C60.5328 54.3962 60.5024 54.2974 60.5062 54.1986C60.51 54.0352 60.5176 53.8719 60.5442 53.7123C60.5822 53.4919 60.6316 53.2716 60.6886 53.055C60.8178 52.5459 61.0572 52.0861 61.3763 51.672C61.6803 51.2769 62.0413 50.9349 62.4593 50.6652C62.9 50.384 63.3788 50.1978 63.8956 50.0877C64.3325 49.9927 64.7771 49.9813 65.2103 50.0307C65.8942 50.1067 66.525 50.3498 67.1026 50.745C67.6877 51.1477 68.1323 51.6644 68.4629 52.2799C68.6415 52.6143 68.7783 52.9752 68.8467 53.3513C68.8923 53.6021 68.9303 53.8605 68.9303 54.115C68.9379 55.4828 68.9341 56.8506 68.9341 58.2184C68.9341 58.2716 68.9341 58.3247 68.9341 58.4121Z" fill="#66C2ED"/>
<path d="M71.07 81.5925C71.1498 81.5925 71.2068 81.5925 71.2638 81.5925C72.6203 81.5925 73.9731 81.5811 75.3296 81.5963C76.3061 81.6077 77.1762 81.9306 77.9362 82.5537C78.6619 83.1502 79.1369 83.9063 79.3573 84.8182C79.4181 85.0727 79.4447 85.3387 79.4637 85.6009C79.5169 86.3607 79.3535 87.0826 78.9925 87.7475C78.415 88.8075 77.541 89.518 76.3707 89.8486C75.8691 89.9892 75.36 90.031 74.8508 89.9778C73.9807 89.8866 73.2017 89.5522 72.533 88.9709C71.9402 88.4542 71.5222 87.8235 71.279 87.075C71.1878 86.7939 71.1194 86.5051 71.1004 86.2088C71.0852 85.939 71.0738 85.6654 71.07 85.3957C71.0662 84.1989 71.07 83.0021 71.07 81.8052C71.07 81.7369 71.07 81.6761 71.07 81.5925Z" fill="#E2B625"/>
<path d="M58.4045 71.0754C58.4045 71.1628 58.4045 71.2236 58.4045 71.2882C58.4045 72.6218 58.4121 73.9592 58.4007 75.2927C58.3931 76.2882 58.0701 77.181 57.428 77.9523C56.8314 78.6704 56.0791 79.1377 55.1785 79.3581C54.4604 79.5329 53.746 79.5139 53.0355 79.3087C52.2375 79.0769 51.5726 78.64 51.0292 78.0169C50.5618 77.4812 50.2616 76.8619 50.0983 76.178C49.9995 75.7525 49.9729 75.3117 50.0223 74.8786C50.1021 74.1453 50.3414 73.4728 50.7746 72.8687C51.223 72.238 51.7967 71.7631 52.5035 71.444C52.9215 71.2578 53.3546 71.1362 53.8106 71.102C54.012 71.0868 54.2134 71.0754 54.4148 71.0754C55.6725 71.0716 56.934 71.0754 58.1917 71.0754C58.2563 71.0754 58.3209 71.0754 58.4045 71.0754Z" fill="#D3225B"/>
<path d="M81.5938 68.9284C81.5938 68.4839 81.5938 68.066 81.5938 67.648C81.5938 66.7096 81.5938 65.7749 81.5938 64.8365C81.5938 64.2704 81.6849 63.7195 81.8939 63.1951C82.0725 62.7468 82.3233 62.3441 82.6387 61.9793C83.0111 61.5462 83.4518 61.2119 83.961 60.9649C84.7134 60.6002 85.4999 60.471 86.3283 60.5736C86.9932 60.6572 87.5936 60.8889 88.1446 61.2651C89.1287 61.9413 89.7177 62.8722 89.9381 64.0424C90.0065 64.4034 90.0179 64.7719 89.9761 65.1366C89.9077 65.7635 89.7177 66.3486 89.3871 66.892C89.2161 67.1731 89.0223 67.4353 88.7905 67.667C88.3232 68.1344 87.776 68.4915 87.1452 68.7005C86.6627 68.86 86.1687 68.9322 85.6595 68.9322C84.3752 68.9284 83.0909 68.9322 81.8065 68.9322C81.7381 68.9284 81.6773 68.9284 81.5938 68.9284Z" fill="#4CB77C"/>
<path d="M79.4628 64.9888C79.4628 64.8635 79.459 64.7343 79.459 64.6089C79.459 61.1818 79.459 57.7548 79.459 54.3277C79.459 54.2062 79.4628 54.0884 79.4628 53.9668C79.4742 53.9934 79.4932 54.02 79.4932 54.0504C79.4969 54.1264 79.4969 54.2024 79.4969 54.2783C79.4969 57.7396 79.4969 61.2008 79.4932 64.6621C79.4969 64.7685 79.5349 64.8824 79.4628 64.9888Z" fill="#BDD5C9"/>
<path d="M71.0966 53.8525C71.0928 54.0083 71.0928 54.1603 71.089 54.3161C71.051 54.1603 71.0434 54.0045 71.0966 53.8525Z" fill="#ACD2BE"/>
<path d="M71.0885 64.6772C71.0923 64.8178 71.0923 64.9584 71.0961 65.1028C71.0391 64.9622 71.0505 64.8216 71.0885 64.6772Z" fill="#ACD2BE"/>
</g>
<defs>
<clipPath id="clip0">
<rect width="40" height="40" fill="white" transform="translate(50 50)"/>
</clipPath>
</defs>
</svg>
