<svg width="140" height="140" viewBox="0 0 140 140" fill="none" xmlns="http://www.w3.org/2000/svg">
<rect opacity="0.01" width="140" height="140" fill="#0B0B0C"/>
<g filter="url(#filter0_d)">
<rect x="30" y="30" width="80" height="80" rx="12" fill="#001E36"/>
</g>
<g clip-path="url(#clip0)">
<path d="M51 69.7732V56.6122C51 56.1719 51.0187 56.1589 51.4506 56.1506C54.0631 56.1039 56.6751 56.0432 59.2875 56.0027C60.8238 55.9788 62.347 56.1122 63.8319 56.5327C65.8473 57.1038 67.5922 58.1012 68.8735 59.8035C69.8958 61.1622 70.4113 62.7109 70.5562 64.3915C70.6943 65.9884 70.5453 67.5584 69.9519 69.0573C68.9722 71.528 67.1364 73.1167 64.6667 73.9972C62.8688 74.6384 60.9941 74.8097 59.0991 74.7993C58.3722 74.7957 57.6454 74.7775 56.9186 74.7474C56.6678 74.7375 56.5956 74.819 56.5962 75.0687C56.6045 77.6994 56.6013 80.3295 56.6013 82.9602C56.6013 83.3885 56.5333 83.456 56.1066 83.456H51.4615C51.0675 83.456 51.0005 83.388 51.0005 82.984C51.0002 78.5811 51 74.1775 51 69.7732ZM56.6522 69.9289C57.4585 69.9289 58.2357 69.9243 59.0129 69.9289C60.1051 69.9441 61.1911 69.7632 62.2193 69.3947C63.3989 68.9669 64.3277 68.2437 64.744 67.0034C64.9673 66.3378 65.0166 65.6427 64.9517 64.9511C64.8136 63.3848 64.0572 62.2301 62.5775 61.6128C61.7203 61.2579 60.8009 61.0777 59.8732 61.0828C58.9733 61.0807 58.0734 61.0836 57.1735 61.0916C57.0032 61.0916 56.8329 61.117 56.6543 61.1316L56.6522 69.9289Z" fill="#31A8FF"/>
<path d="M73.4118 80.1181C73.4118 79.4001 73.4118 78.6821 73.4118 77.9636C73.4118 77.5763 73.5079 77.5192 73.837 77.704C75.7164 78.7621 77.748 79.2496 79.8901 79.3015C80.6081 79.3186 81.3256 79.2719 82.0093 79.0081C82.4626 78.8337 82.7647 78.5253 82.8587 78.042C82.947 77.5856 82.7621 77.2009 82.4148 76.945C81.9938 76.63 81.5415 76.3593 81.065 76.1371C80.0193 75.6626 78.9364 75.2727 77.898 74.7831C76.7932 74.2639 75.7632 73.6202 74.9128 72.709C72.6658 70.3027 73.1279 66.3367 75.5524 64.3067C76.7423 63.311 78.1249 62.757 79.6466 62.5639C81.6615 62.3079 83.6691 62.417 85.6586 62.8146C86.0963 62.9024 86.522 63.0592 86.9462 63.2051C87.3231 63.3349 87.3854 63.434 87.3869 63.8374C87.3911 64.9277 87.3869 66.0179 87.3869 67.1082C87.3869 67.359 87.3869 67.6102 87.3869 67.861C87.3869 68.2852 87.1611 68.416 86.7592 68.2421C86.2998 68.0437 85.8471 67.821 85.3715 67.671C83.9282 67.2059 82.4139 67.0002 80.8988 67.0636C80.4932 67.0851 80.092 67.1581 79.7047 67.2806C78.7931 67.564 78.5527 68.6045 79.2209 69.2892C79.7172 69.7985 80.363 70.0638 80.9949 70.34C81.9123 70.7414 82.8577 71.0814 83.7688 71.4962C84.7687 71.951 85.7474 72.4577 86.5869 73.1846C88.0577 74.4581 88.6272 76.0987 88.4341 77.9947C88.1325 80.9597 86.3387 82.6647 83.6058 83.5094C81.9626 84.0166 80.268 84.0628 78.5698 83.9553C77.2646 83.8728 75.974 83.6734 74.7305 83.2524C74.4123 83.1444 74.1029 83.0084 73.7908 82.8822C73.5312 82.7784 73.4056 82.5941 73.4103 82.3007C73.4191 81.5718 73.4118 80.845 73.4118 80.1181Z" fill="#31A8FF"/>
</g>
<defs>
<filter id="filter0_d" x="26" y="26" width="88" height="88" filterUnits="userSpaceOnUse" color-interpolation-filters="sRGB">
<feFlood flood-opacity="0" result="BackgroundImageFix"/>
<feColorMatrix in="SourceAlpha" type="matrix" values="0 0 0 0 0 0 0 0 0 0 0 0 0 0 0 0 0 0 127 0"/>
<feOffset/>
<feGaussianBlur stdDeviation="2"/>
<feColorMatrix type="matrix" values="0 0 0 0 0 0 0 0 0 0 0 0 0 0 0 0 0 0 0.4 0"/>
<feBlend mode="normal" in2="BackgroundImageFix" result="effect1_dropShadow"/>
<feBlend mode="normal" in="SourceGraphic" in2="effect1_dropShadow" result="shape"/>
</filter>
<clipPath id="clip0">
<rect width="37.4713" height="28" fill="white" transform="translate(51 56)"/>
</clipPath>
</defs>
</svg>
