<svg width="140" height="140" viewBox="0 0 140 140" fill="none" xmlns="http://www.w3.org/2000/svg">
<rect opacity="0.01" width="140" height="140" fill="#0D0D0E"/>
<g filter="url(#filter0_d)">
<rect x="30" y="30" width="80" height="80" rx="12" fill="white"/>
<rect x="46" y="46" width="48" height="48" fill="#590000" fill-opacity="0.01"/>
</g>
<g clip-path="url(#clip0)">
<path d="M55.0217 88.2895C55.0144 88.2895 55.0072 88.2889 55 88.2876V51.7121C55.0072 51.7107 55.0144 51.71 55.0217 51.71C55.023 51.784 55.0253 51.8579 55.0256 51.9322L55.0295 53.6607C55.0295 53.7133 55.0264 53.766 55.0264 53.8187C55.0264 62.5039 55.0264 71.1893 55.0264 79.8747C55.0264 79.9229 55.0287 79.9711 55.03 80.0193C55.03 80.0588 55.0266 80.0983 55.0266 80.1375C55.0266 82.7848 55.0266 85.4321 55.0266 88.0793C55.0259 88.1496 55.023 88.2197 55.0217 88.2895Z" fill="#AEDEC7"/>
<path d="M57.7147 91.0006C57.7145 90.9933 57.7139 90.986 57.7129 90.9788C57.7429 90.9769 57.7729 90.9736 57.8029 90.9736H82.1308C82.1911 90.9736 82.2511 90.9766 82.3118 90.9782C82.3108 90.9855 82.3102 90.9927 82.31 91.0001L57.7147 91.0006Z" fill="#B9E0CE"/>
<path d="M85.0008 88.2878C84.9934 88.2892 84.9859 88.2899 84.9784 88.29C84.977 88.1936 84.9746 88.0972 84.9746 88.0003C84.9746 81.2627 84.9746 74.5252 84.9746 67.7876C84.9746 67.7394 84.9767 67.6913 84.9781 67.6431H85.0008V88.2878Z" fill="#ACDCC5"/>
<path d="M57.7129 49.0221C57.7129 49.0146 57.7129 49.0073 57.7147 49H73.7492C73.7492 49.0071 73.7497 49.0142 73.7507 49.0213L73.7474 49.0321L73.6199 49.0307C73.5769 49.0307 73.534 49.027 73.4906 49.027C68.2918 49.027 63.0927 49.027 57.8934 49.027C57.8331 49.027 57.7731 49.0237 57.7129 49.0221Z" fill="#BEE4D2"/>
<path d="M85.0012 67.6433H84.9785C84.9758 67.5554 84.9734 67.4674 84.9707 67.38C84.972 67.3492 84.9742 67.3186 84.9742 67.2881C84.9742 65.0103 84.9742 62.7325 84.9742 60.4546H85.0009L85.0012 67.6433Z" fill="#A6D5BE"/>
<path d="M73.7522 49.0215C73.7954 49.0641 73.8391 49.106 73.8815 49.1495C77.5432 52.8772 81.2047 56.6055 84.8659 60.3344C84.897 60.3694 84.9262 60.4061 84.9533 60.4444C84.9065 60.4481 84.8597 60.4547 84.8129 60.4547C82.0343 60.4547 79.2557 60.4553 76.4773 60.4565C76.3152 60.4576 76.1536 60.4399 75.9955 60.4039C75.7327 60.3423 75.4782 60.2593 75.2426 60.1234C75.1428 60.0658 75.0422 60.0097 74.9419 59.9528L74.8901 59.9265C74.8853 59.9148 74.8788 59.904 74.8707 59.8943C74.7621 59.8006 74.6499 59.7113 74.5449 59.6139C74.474 59.5481 74.4132 59.4712 74.3478 59.399C74.3259 59.353 74.3016 59.3082 74.2751 59.2647C73.9279 58.7645 73.7442 58.1657 73.7501 57.5531C73.7548 54.8399 73.7554 52.1264 73.7519 49.4128C73.7519 49.2856 73.7519 49.1587 73.7501 49.0315L73.7522 49.0215Z" fill="#8DD0B0"/>
<path d="M74.9414 59.9521C75.0418 60.009 75.1424 60.0651 75.2422 60.1228C75.478 60.2587 75.7323 60.3416 75.995 60.4032C76.1532 60.4393 76.3148 60.457 76.4768 60.4559C79.2555 60.4541 82.034 60.4535 84.8124 60.454C84.8592 60.454 84.906 60.4475 84.9529 60.4438C84.9606 60.446 84.9679 60.4497 84.9743 60.4546C84.9743 62.7323 84.9743 65.0101 84.9743 67.2881C84.9743 67.3186 84.9723 67.3492 84.971 67.38C84.1175 67.38 83.2641 67.38 82.4106 67.3818C82.3247 67.3863 82.2402 67.3581 82.1735 67.3028C82.1026 67.2412 82.0315 67.1775 81.995 67.0824C81.9813 67.0466 81.9433 67.0176 81.9107 66.9921C81.7674 66.877 81.6079 66.7788 81.4796 66.6498C79.3311 64.4681 77.1846 62.2842 75.0399 60.0983C75.0113 60.0716 74.9843 60.0432 74.959 60.0132C74.9496 59.9941 74.9437 59.9734 74.9414 59.9521Z" fill="#1D915A"/>
<path fill-rule="evenodd" clip-rule="evenodd" d="M57.7751 49.0244L57.7751 49.0244C57.8153 49.0258 57.8555 49.0272 57.896 49.0272H73.4927C73.5222 49.0272 73.5518 49.0283 73.5815 49.0295L73.6219 49.0309V49.0308L73.7491 49.0321C73.7491 49.0957 73.7496 49.1592 73.75 49.2228C73.7505 49.2863 73.7509 49.3498 73.7509 49.4134C73.7509 52.1269 73.7503 54.8403 73.7491 57.5538C73.7432 58.1663 73.9269 58.7651 74.2741 59.2654C74.3006 59.3088 74.3249 59.3536 74.3468 59.3997C74.3465 59.4005 74.3461 59.4014 74.3458 59.4023C74.365 59.4235 74.3838 59.4452 74.4026 59.4668C74.4468 59.5177 74.491 59.5685 74.5401 59.6141C74.6088 59.6778 74.6806 59.7381 74.7525 59.7984L74.7526 59.7985C74.7905 59.8303 74.8284 59.8621 74.8659 59.8945C74.874 59.9041 74.8805 59.915 74.8853 59.9266L74.937 59.953L74.942 59.9524C74.9447 59.9731 74.951 59.9932 74.9606 60.0117C74.9859 60.0416 75.0129 60.07 75.0415 60.0967C77.187 62.2813 79.3336 64.4651 81.4812 66.6482C81.567 66.7346 81.6657 66.8069 81.7643 66.8791C81.8142 66.9156 81.8641 66.9522 81.9123 66.9905L81.923 66.9992C81.9525 67.0231 81.9844 67.0489 81.9966 67.0808C82.0331 67.1759 82.1042 67.2388 82.1751 67.3012C82.2418 67.3566 82.3263 67.3847 82.4122 67.3802C83.0718 67.3778 83.7313 67.378 84.3909 67.3783L84.9726 67.3784L84.9801 67.6417L84.9789 67.6812C84.9778 67.7162 84.9767 67.7512 84.9767 67.7863V87.999C84.9767 88.0655 84.9778 88.1321 84.9789 88.1988L84.9803 88.2886C84.94 88.742 84.8298 89.1697 84.5955 89.567C84.3704 89.9513 84.0627 90.2787 83.6955 90.5245C83.3648 90.7497 82.9877 90.8944 82.5932 90.9474C82.5312 90.9558 82.4691 90.9619 82.407 90.968C82.3856 90.9701 82.3641 90.9722 82.3427 90.9744C82.3332 90.9754 82.3237 90.9764 82.3142 90.9774L82.2578 90.9757C82.2295 90.9747 82.2011 90.9738 82.1726 90.9733C82.1595 90.9731 82.1464 90.9729 82.1332 90.9729H57.8052C57.784 90.9729 57.7628 90.9745 57.7416 90.9761L57.7152 90.9779C57.5321 90.9842 57.3491 90.9627 57.1721 90.9142C56.9835 90.8608 56.7997 90.7909 56.6228 90.7054C56.3761 90.5929 56.1573 90.4339 55.9535 90.2525C55.5139 89.8612 55.2428 89.3651 55.0869 88.8013C55.0398 88.6348 55.0179 88.462 55.022 88.2889L55.0235 88.2196C55.0247 88.1727 55.0258 88.1256 55.0258 88.0782V80.1364C55.0258 80.1076 55.0269 80.0787 55.028 80.05L55.0292 80.0182C55.0296 80.0183 55.03 80.0184 55.0304 80.0185C55.0304 79.9948 55.0295 79.9711 55.0286 79.9474C55.0277 79.9233 55.0268 79.8992 55.0268 79.8751L55.0271 53.8196C55.0271 53.7831 55.0282 53.7467 55.0293 53.7102C55.0298 53.694 55.0303 53.6778 55.0307 53.6616C55.0672 53.6763 55.1041 53.6901 55.141 53.7039C55.2234 53.7348 55.3058 53.7657 55.3837 53.8059C55.5212 53.8735 55.6708 53.9118 55.8234 53.9186C56.0157 53.934 56.209 53.9292 56.4003 53.9044C56.7174 53.8578 56.9887 53.7169 57.251 53.5439C57.5308 53.3596 57.7566 53.1226 57.9492 52.8461C57.9904 52.7865 58.0301 52.726 58.0683 52.6646C58.0302 52.7257 57.9906 52.786 57.9496 52.8454C57.7564 53.1208 57.5306 53.3589 57.2513 53.5432C56.989 53.7162 56.7177 53.8571 56.4007 53.9037C56.2093 53.9285 56.016 53.9333 55.8237 53.9179C55.6711 53.9111 55.5216 53.8728 55.384 53.8052C55.3062 53.765 55.2237 53.7341 55.1413 53.7032C55.1044 53.6894 55.0675 53.6756 55.031 53.6609L55.0271 51.9332C55.0271 51.8837 55.026 51.8343 55.0248 51.7849L55.0233 51.711C55.0561 51.0311 55.3155 50.4491 55.7593 49.947C56.1465 49.5086 56.6306 49.2342 57.1853 49.0907C57.3034 49.06 57.4264 49.0493 57.5494 49.0387C57.6047 49.0339 57.6601 49.0291 57.715 49.0225C57.735 49.023 57.7551 49.0237 57.7751 49.0244ZM69.4336 49.239C69.5983 49.2395 69.7631 49.2405 69.9279 49.2414C70.018 49.242 70.1081 49.2425 70.1983 49.243C70.122 49.2426 70.0457 49.2421 69.9694 49.2416C69.7908 49.2405 69.6122 49.2394 69.4336 49.239ZM62.5002 78.6771L62.5018 79.0314C62.503 79.2683 62.5041 79.5052 62.5041 79.7419V83.1651C62.5041 83.1758 62.5038 83.1867 62.5034 83.1975C62.5018 83.2466 62.5002 83.2961 62.5315 83.3371C62.9339 83.3634 77.3763 83.351 77.487 83.3221V69.5342H77.3303H72.3777C72.3419 69.5342 72.3061 69.5319 72.2703 69.5297C72.2557 69.5287 72.241 69.5278 72.2264 69.527C72.2264 69.5271 72.2264 69.5272 72.2264 69.5273C72.211 69.5282 72.1957 69.5292 72.1804 69.5303C72.144 69.5327 72.1076 69.5352 72.0712 69.5352H63.7452H62.6204C62.5957 69.5352 62.5708 69.5378 62.5444 69.5405C62.5319 69.5418 62.519 69.5431 62.5056 69.5442V69.713V78.5193C62.5056 78.5569 62.5043 78.5945 62.503 78.6321C62.5024 78.6472 62.5019 78.6622 62.5015 78.6773C62.5011 78.6772 62.5006 78.6771 62.5002 78.6771Z" fill="#1AA160"/>
<path d="M74.9423 59.9547L74.8906 59.9277L74.9423 59.9547Z" fill="#1D915A"/>
<path d="M62.5 78.6763C62.5016 78.6236 62.5041 78.571 62.5041 78.5183C62.5041 75.5828 62.5041 72.6474 62.5041 69.712V69.5432C62.5458 69.5398 62.5817 69.5345 62.619 69.5343C62.994 69.5343 63.3689 69.5343 63.7437 69.5343C66.5196 69.5343 69.2949 69.5343 72.0697 69.5343C72.1215 69.5343 72.1732 69.5293 72.2249 69.5264C72.2766 69.529 72.3284 69.5337 72.3801 69.5337C74.0308 69.5337 75.6816 69.5337 77.3327 69.5337H77.4894V83.3224C77.3797 83.3513 62.9363 83.3645 62.5339 83.3374C62.4956 83.2873 62.5065 83.2247 62.5065 83.1654C62.5065 82.0244 62.5065 80.8833 62.5065 79.7422C62.5044 79.3873 62.5018 79.0318 62.5 78.6763ZM69.0628 71.4405H64.3936C64.3678 71.684 64.3778 73.7153 64.404 73.8059C64.9264 73.8341 68.9572 73.8198 69.0628 73.7888V71.4405ZM75.611 71.4465C75.4416 71.4202 71.0275 71.4281 70.9416 71.4526V73.8025H75.6121L75.611 71.4465ZM64.3921 75.256V77.6188H69.0599V75.256H64.3921ZM75.6113 75.2647C75.4592 75.2384 71.0303 75.2452 70.9414 75.2694V77.6198H75.6121L75.6113 75.2647ZM69.0591 81.4412V79.0755H64.3952C64.3709 79.274 64.3784 81.3493 64.4032 81.4412H69.0591ZM70.9372 81.4383H75.6058C75.6317 81.2184 75.6219 79.1637 75.5968 79.0734C75.1473 79.0471 71.043 79.06 70.9372 79.0892V81.4383Z" fill="#F1F1F1"/>
<path d="M69.0628 71.4409V73.7892C68.9573 73.8203 64.9264 73.8345 64.404 73.8063C64.3781 73.7157 64.3683 71.6845 64.3937 71.4409H69.0628Z" fill="#1DA262"/>
<path d="M75.6118 71.4467V73.8026H70.9414V71.4528C71.0273 71.4283 75.4414 71.4212 75.6118 71.4467Z" fill="#1BA161"/>
<path d="M64.3926 75.2563H69.0604V77.6191H64.3926V75.2563Z" fill="#1CA261"/>
<path d="M75.6121 75.265V77.6202H70.9414V75.2698C71.0304 75.2456 75.4592 75.2395 75.6121 75.265Z" fill="#1AA160"/>
<path d="M69.0592 81.4414H64.4041C64.3782 81.3495 64.3717 79.2742 64.3961 79.0757H69.0592V81.4414Z" fill="#1BA161"/>
<path d="M70.9375 81.4369V79.0878C71.0433 79.0586 75.1476 79.0454 75.5971 79.072C75.6229 79.1623 75.6309 81.2171 75.6061 81.4369H70.9375Z" fill="#19A15F"/>
</g>
<defs>
<filter id="filter0_d" x="26" y="26" width="88" height="88" filterUnits="userSpaceOnUse" color-interpolation-filters="sRGB">
<feFlood flood-opacity="0" result="BackgroundImageFix"/>
<feColorMatrix in="SourceAlpha" type="matrix" values="0 0 0 0 0 0 0 0 0 0 0 0 0 0 0 0 0 0 127 0"/>
<feOffset/>
<feGaussianBlur stdDeviation="2"/>
<feColorMatrix type="matrix" values="0 0 0 0 0 0 0 0 0 0 0 0 0 0 0 0 0 0 0.4 0"/>
<feBlend mode="normal" in2="BackgroundImageFix" result="effect1_dropShadow"/>
<feBlend mode="normal" in="SourceGraphic" in2="effect1_dropShadow" result="shape"/>
</filter>
<clipPath id="clip0">
<rect width="30" height="42" fill="white" transform="translate(55 49)"/>
</clipPath>
</defs>
</svg>
