<svg width="140" height="140" viewBox="0 0 140 140" fill="none" xmlns="http://www.w3.org/2000/svg">
<rect opacity="0.01" width="140" height="140" fill="#0B0B0C"/>
<g filter="url(#filter0_d)">
<rect x="30" y="30" width="80" height="80" rx="12" fill="#EB3463"/>
</g>
<g clip-path="url(#clip0)">
<path d="M78.0259 70.963C77.7033 71.3929 77.3712 71.8159 77.061 72.2546C76.1095 73.6046 75.1579 74.9634 74.2063 76.3135C72.9275 78.1227 71.6372 79.9202 70.3678 81.7391C70.1194 82.0968 69.9596 82.0754 69.735 81.7547C68.9167 80.5849 68.0879 79.4152 67.2743 78.2455C65.911 76.2784 64.5516 74.3081 63.1959 72.3345C62.7335 71.6648 62.2643 71.002 61.7248 70.2309C61.6991 70.461 61.6734 70.5887 61.6734 70.7183C61.6696 74.9092 61.6668 79.1007 61.6649 83.2929C61.6649 84.2179 61.1796 84.6907 60.2775 84.6926C58.3427 84.6926 56.4078 84.6926 54.473 84.6926C53.5215 84.6926 53.0352 84.1984 53.0343 83.2305C53.0203 75.149 53.0089 67.0714 53 58.9977C53 58.3962 53.0171 57.7958 53.0324 57.1953C53.0533 56.4019 53.4101 56.0188 54.1723 56.0149C56.1068 56.0042 58.0432 56.0129 59.9758 56.0071C60.4259 56.0071 60.7371 56.1894 61.0111 56.5695C62.7106 58.9675 64.4367 61.3459 66.1381 63.7419C67.1239 65.128 68.0859 66.5317 69.0632 67.9246C69.2754 68.2268 69.5038 68.5163 69.7245 68.8126C69.8891 69.0349 70.0233 69.0505 70.2003 68.8C70.9463 67.7336 71.7057 66.6769 72.4641 65.6183C74.6051 62.629 76.746 59.6375 78.887 56.6436C79.2011 56.204 79.5712 55.9905 80.1241 55.9993C81.9786 56.0285 83.8351 56.0081 85.6897 56.01C86.6593 56.01 86.9039 56.2693 86.9077 57.2411C86.9356 65.7353 86.9654 74.2298 86.9971 82.7246C87.0029 84.3086 86.7564 84.5581 85.2082 84.5591C83.2889 84.5591 81.3697 84.5308 79.4513 84.5737C78.7262 84.5903 78.1467 84.0707 78.1534 83.2704C78.1877 79.307 78.1677 75.3436 78.1658 71.3782C78.1658 71.2554 78.1458 71.1326 78.1353 71.0098L78.0259 70.963Z" fill="white"/>
</g>
<defs>
<filter id="filter0_d" x="26" y="26" width="88" height="88" filterUnits="userSpaceOnUse" color-interpolation-filters="sRGB">
<feFlood flood-opacity="0" result="BackgroundImageFix"/>
<feColorMatrix in="SourceAlpha" type="matrix" values="0 0 0 0 0 0 0 0 0 0 0 0 0 0 0 0 0 0 127 0"/>
<feOffset/>
<feGaussianBlur stdDeviation="2"/>
<feColorMatrix type="matrix" values="0 0 0 0 0 0 0 0 0 0 0 0 0 0 0 0 0 0 0.4 0"/>
<feBlend mode="normal" in2="BackgroundImageFix" result="effect1_dropShadow"/>
<feBlend mode="normal" in="SourceGraphic" in2="effect1_dropShadow" result="shape"/>
</filter>
<clipPath id="clip0">
<rect width="34" height="28.6875" fill="white" transform="translate(53 56)"/>
</clipPath>
</defs>
</svg>
