<svg width="140" height="140" viewBox="0 0 140 140" fill="none" xmlns="http://www.w3.org/2000/svg">
<rect x="30" y="30" width="80" height="80" rx="12" fill="#F4EAD5"/>
<rect x="46" y="46" width="48" height="48" fill="#590000" fill-opacity="0.01"/>
<path d="M62.0837 84.2151C61.7037 84.178 61.3223 84.1509 60.9441 84.0994C58.1369 83.7176 55.5524 82.7983 53.3735 80.9226C52.0664 79.7986 51.0937 78.417 50.3353 76.8764C49.2814 74.7357 48.556 72.4904 48.1971 70.1298C47.9558 68.5507 47.9006 66.973 48.2342 65.3964C48.642 63.4733 49.6536 61.9204 51.116 60.6367C52.5012 59.4212 54.0949 58.5542 55.7752 57.8298C57.6079 57.0399 59.5051 56.4675 61.4798 56.168C63.0252 55.9337 64.5699 55.92 66.099 56.284C67.8379 56.6977 69.2592 57.6415 70.4639 58.9363C71.8355 60.4091 72.7863 62.1369 73.5318 63.9882C74.1149 65.4372 74.5149 66.9352 74.6913 68.4902C74.6978 68.5277 74.7062 68.5648 74.7165 68.6014C75.3752 68.2901 76.0176 68.2508 76.6004 68.7245C77.1101 69.1386 77.2198 69.7195 77.1864 70.3711H74.8173C74.7717 70.5474 74.7897 70.7342 74.868 70.8986C74.9464 71.063 75.0802 71.1945 75.2459 71.2701C75.6937 71.4721 76.1489 71.2938 76.5273 70.7574L77.1123 70.995C76.884 71.4499 76.5933 71.8105 76.0844 71.9262C75.6047 72.0355 75.1413 71.9918 74.7339 71.746C74.5812 72.4596 74.4526 73.1691 74.2728 73.8657C74.1217 74.4442 73.9392 75.0141 73.726 75.5727C72.7815 78.0564 71.4385 80.2757 69.3681 81.9931C67.9907 83.136 66.3993 83.8117 64.6296 84.0653C64.2452 84.1205 63.8563 84.1439 63.4697 84.1832C63.4152 84.1887 63.3618 84.2036 63.3081 84.214L62.0837 84.2151ZM63.5664 56.2277C62.825 56.3052 62.077 56.3511 61.3423 56.4657C59.2942 56.7845 57.3388 57.4143 55.4505 58.2669C53.8669 58.9823 52.3767 59.8427 51.0867 61.0248C49.5364 62.4472 48.6156 64.1872 48.3569 66.2805C48.1923 67.6117 48.2776 68.9317 48.4874 70.247C48.8525 72.5304 49.5661 74.7016 50.5855 76.776C51.7409 79.1277 53.4054 80.9978 55.7452 82.2189C57.8878 83.3369 60.1757 83.9041 62.5934 83.9356C63.7425 83.9504 64.8735 83.8266 65.9782 83.4989C67.9977 82.8995 69.5984 81.6921 70.8954 80.0659C72.1627 78.4807 73.124 76.6736 73.7305 74.7368C74.0355 73.7689 74.2921 72.794 74.4188 71.7864C74.4459 71.618 74.4094 71.4455 74.3165 71.3023C73.8717 70.578 73.8591 69.8214 74.2932 69.0945C74.4159 68.8997 74.4611 68.666 74.42 68.4394C74.407 68.3479 74.3988 68.2541 74.3851 68.164C73.9938 65.5232 73.0306 62.9997 71.5627 60.7698C70.733 59.502 69.7196 58.4033 68.4384 57.5722C66.9575 56.6114 65.3087 56.2766 63.569 56.2288L63.5664 56.2277ZM76.4358 69.7621C76.3987 69.2628 75.998 68.9466 75.4935 69.0062C75.0946 69.0526 74.7591 69.4229 74.817 69.7621H76.4358Z" fill="#312F2A"/>
<path d="M91.9943 71.9086H91.2603V71.704C91.2603 70.9693 91.2603 70.2346 91.2559 69.4999C91.2559 69.2882 91.1758 69.1106 90.9653 69.0258C90.7547 68.9409 90.5464 68.9761 90.3818 69.1347C90.2862 69.2267 90.189 69.3386 90.1464 69.4606C90.0615 69.7023 89.9763 69.9547 89.9611 70.2075C89.9281 70.6935 89.9425 71.1825 89.9377 71.6699C89.9377 71.7441 89.9377 71.8152 89.9377 71.9005H89.2234V71.6925C89.2234 71.0008 89.2234 70.3095 89.2234 69.6166C89.2234 69.2756 89.1144 69.0884 88.8898 69.0209C88.6188 68.9398 88.3589 69.0506 88.1832 69.3305C88.0075 69.6103 87.9319 69.9236 87.9196 70.2453C87.9019 70.7272 87.9052 71.2091 87.8996 71.6911C87.8996 71.7633 87.8996 71.836 87.8996 71.9187H87.1953V68.4308H87.9108V69.0028C88.204 68.6098 88.5139 68.3418 88.9769 68.3518C89.4399 68.3618 89.7553 68.5906 89.9221 69.0562C89.967 68.9928 90 68.9449 90.0333 68.8997C90.2839 68.5431 90.6124 68.3359 91.0628 68.3529C91.5447 68.3715 91.8979 68.6925 91.9628 69.1737C91.9724 69.2459 91.9876 69.3175 91.9999 69.3894L91.9943 71.9086Z" fill="#312F2A"/>
<path d="M80.1914 70.1786C80.2081 69.3349 80.6162 68.6995 81.2701 68.4656C82.4193 68.0534 83.5421 68.8222 83.5843 70.0455C83.6029 70.5871 83.4772 71.0798 83.0965 71.4749C82.5846 72.0057 81.9496 72.0829 81.2872 71.8612C80.631 71.6421 80.3115 71.1235 80.2122 70.4577C80.1973 70.3543 80.1966 70.2487 80.1914 70.1786ZM80.8909 70.1816C80.9765 70.4362 81.0258 70.7028 81.1504 70.9274C81.4469 71.4619 82.198 71.4946 82.5716 71.0101C82.919 70.5597 82.9338 69.8402 82.605 69.3764C82.2176 68.83 81.4262 68.8682 81.1222 69.4635C81.0114 69.6767 80.9706 69.925 80.8909 70.1816Z" fill="#312F2A"/>
<path d="M78.2526 69.0557H77.8145V68.4255L78.25 68.4051C78.25 68.3006 78.2459 68.2039 78.25 68.1086C78.2871 67.3524 78.7623 66.9331 79.5152 66.9906C79.963 67.0247 79.986 67.0551 79.8829 67.4806C79.8655 67.5522 79.8481 67.6237 79.8277 67.7082C79.5812 67.6341 79.3261 67.5407 79.1108 67.7386C78.9173 67.9166 78.9625 68.1664 78.9566 68.4207H79.7146V69.0483H78.961V71.9215H78.2526V69.0557Z" fill="#312F2A"/>
<path d="M84.9908 71.9032H84.2969V68.4294H84.9845V68.9788C85.0564 68.8928 85.0957 68.8431 85.1376 68.7957C85.4505 68.4369 85.8315 68.2789 86.3097 68.3831C86.4287 68.4091 86.458 68.4617 86.4339 68.5755C86.3969 68.7364 86.3709 68.8995 86.3383 69.0726C86.081 68.9896 85.8334 68.9492 85.5969 69.0915C85.34 69.2472 85.1854 69.4904 85.115 69.7691C85.0467 70.0499 85.0061 70.3367 84.9938 70.6254C84.9764 71.0432 84.9908 71.4628 84.9908 71.9032Z" fill="#312F2A"/>
<path d="M70.8758 71.5906V73.3329H70.1797V68.4242H70.8666V68.7207C71.1064 68.6095 71.3292 68.4505 71.5746 68.3975C72.3957 68.2196 73.0763 68.6611 73.2846 69.4769C73.4067 69.9458 73.4016 70.4387 73.2698 70.9049C72.9732 71.9669 71.7825 72.3187 70.9344 71.6018C70.9255 71.5962 70.9111 71.5977 70.8758 71.5906ZM70.8577 70.1739C70.8506 70.4356 70.8966 70.7069 71.0508 70.9493C71.121 71.0646 71.2191 71.1604 71.3361 71.2277C71.453 71.295 71.5851 71.3317 71.7201 71.3344C71.855 71.3371 71.9885 71.3057 72.108 71.2431C72.2276 71.1806 72.3295 71.0888 72.4042 70.9764C72.6915 70.5534 72.693 69.7746 72.4072 69.3554C72.0735 68.8675 71.4308 68.856 71.0819 69.3302C70.9007 69.5759 70.8547 69.8573 70.8577 70.1739Z" fill="#312F2A"/>
<path d="M67.4826 70.9764C67.5323 70.8782 67.5668 70.8148 67.5972 70.7492C67.9308 70.0208 68.2703 69.2935 68.598 68.5621C68.6499 68.4476 68.7115 68.4061 68.8345 68.4116C69.0417 68.4213 69.2493 68.4146 69.4803 68.4146C69.4462 68.4995 69.4258 68.5566 69.4006 68.6114C68.7052 70.1313 68.0107 71.6517 67.3173 73.1728C67.2554 73.3092 67.1842 73.3556 67.04 73.3463C66.8447 73.3341 66.6482 73.3433 66.4228 73.3433C66.464 73.2477 66.4936 73.1758 66.5259 73.1053C66.6849 72.7573 66.8524 72.4133 66.9989 72.06C67.0359 71.9605 67.0359 71.851 66.9989 71.7516C66.554 70.707 66.1018 69.6668 65.6514 68.6251C65.6251 68.564 65.6025 68.5017 65.5684 68.4153C65.8278 68.4153 66.0599 68.4057 66.292 68.4227C66.3453 68.4268 66.4102 68.5158 66.4384 68.5795C66.7631 69.3209 67.0819 70.0623 67.4022 70.8037C67.4244 70.8482 67.4448 70.8927 67.4826 70.9764Z" fill="#312F2A"/>
<path d="M63.1654 67.7658H61.6504V67.0615H65.4103V67.7621H63.9172V68.0053C63.9172 69.2468 63.9138 70.489 63.9213 71.73C63.9213 71.8972 63.8723 71.9465 63.7114 71.9343C63.535 71.9206 63.3571 71.931 63.1654 71.931V67.7658Z" fill="#312F2A"/>
</svg>
