<svg width="140" height="140" viewBox="0 0 140 140" fill="none" xmlns="http://www.w3.org/2000/svg">
<rect x="31" y="30" width="80" height="80" rx="12" fill="white"/>
<rect x="47" y="46" width="48" height="48" fill="#590000" fill-opacity="0.01"/>
<path fill-rule="evenodd" clip-rule="evenodd" d="M58 49C56.3431 49 55 50.3431 55 52V88C55 89.6569 56.3431 91 58 91H83.92C85.5769 91 86.92 89.6569 86.92 88V61.18L74.74 49H58Z" fill="#764EBE"/>
<path d="M86.9202 72.94L75.1602 59.5L86.9202 61.18V72.94Z" fill="url(#paint0_linear)"/>
<mask id="mask0" mask-type="alpha" maskUnits="userSpaceOnUse" x="74" y="49" width="13" height="13">
<path d="M86.9202 61.18L74.7402 49V61.18H86.9202Z" fill="#AE0606"/>
</mask>
<g mask="url(#mask0)">
<rect x="74.7402" y="19.1797" width="31.92" height="42" rx="3" fill="#BAA6DE"/>
</g>
<rect x="68.0195" y="70.8408" width="1.68" height="10.92" transform="rotate(-90 68.0195 70.8408)" fill="white"/>
<rect x="68.0195" y="76.3008" width="1.68" height="10.92" transform="rotate(-90 68.0195 76.3008)" fill="white"/>
<rect x="68.0195" y="81.7607" width="1.68" height="10.92" transform="rotate(-90 68.0195 81.7607)" fill="white"/>
<circle cx="64.6605" cy="70.0003" r="1.68" fill="white"/>
<circle cx="64.6605" cy="75.4603" r="1.68" fill="white"/>
<circle cx="64.6605" cy="80.9202" r="1.68" fill="white"/>
<defs>
<linearGradient id="paint0_linear" x1="78.5202" y1="59.5" x2="86.9202" y2="72.94" gradientUnits="userSpaceOnUse">
<stop stop-color="#6C48B8"/>
<stop offset="1" stop-color="#6C48B8" stop-opacity="0"/>
</linearGradient>
</defs>
</svg>
