<svg width="140" height="140" viewBox="0 0 140 140" fill="none" xmlns="http://www.w3.org/2000/svg">
<rect x="30" y="30" width="80" height="80" rx="12" fill="#531755"/>
<rect x="46" y="46" width="48" height="48" fill="#590000" fill-opacity="0.01"/>
<g clip-path="url(#clip0)">
<path d="M59.4723 68.9364C57.6979 68.9364 55.9272 68.9402 54.1527 68.9326C53.5523 68.9288 52.9786 68.7996 52.4314 68.5337C51.9906 68.3209 51.584 68.0663 51.2459 67.713C50.6493 67.0975 50.2389 66.3832 50.0793 65.5246C49.9996 65.1028 49.992 64.6811 50.0223 64.2632C50.0565 63.8414 50.1781 63.4311 50.3529 63.0398C50.5467 62.6028 50.8013 62.2191 51.1243 61.8695C51.6258 61.33 52.2186 60.9425 52.9216 60.7183C53.2635 60.6119 53.6093 60.555 53.9703 60.5284C54.677 60.4752 55.3838 60.5018 56.0906 60.5018C58.9214 60.4942 61.7522 60.4942 64.583 60.5018C65.1682 60.5018 65.7457 60.5816 66.2891 60.8133C66.6805 60.9805 67.049 61.1933 67.3834 61.4668C67.847 61.8429 68.2042 62.2989 68.474 62.8232C68.6639 63.1955 68.8045 63.5869 68.8615 64.0086C68.8957 64.2632 68.9375 64.5177 68.9337 64.7761C68.9261 65.2738 68.8235 65.7563 68.6525 66.2236C68.4018 66.8999 67.9838 67.4622 67.4442 67.9296C66.9351 68.3703 66.3423 68.6666 65.6849 68.8186C65.3544 68.8946 65.02 68.9364 64.678 68.9364C62.9415 68.9326 61.2088 68.9364 59.4723 68.9364Z" fill="#66C1ED"/>
<path d="M80.5491 71.0723C82.2704 71.0723 83.9955 71.0723 85.7168 71.0723C86.8339 71.0723 87.818 71.4408 88.6426 72.1969C89.2581 72.7592 89.6609 73.4545 89.8699 74.2638C89.9915 74.7349 90.0257 75.2136 89.9763 75.6924C89.8965 76.4788 89.6153 77.1931 89.1328 77.8238C88.6198 78.4887 87.9662 78.9712 87.1721 79.2486C86.8263 79.3702 86.4729 79.4538 86.1044 79.4652C85.6674 79.4766 85.2342 79.4956 84.7972 79.4956C81.6624 79.4994 78.5276 79.4994 75.3928 79.4956C74.4771 79.4956 73.626 79.2638 72.8698 78.7205C72.0339 78.1202 71.4791 77.3299 71.2131 76.3344C71.1143 75.9583 71.0535 75.5822 71.0687 75.1946C71.1067 74.241 71.4107 73.3823 72.0187 72.6376C72.543 71.9955 73.2004 71.5472 73.9869 71.285C74.4011 71.1483 74.8305 71.0799 75.2675 71.0761C77.0305 71.0723 78.7898 71.0723 80.5491 71.0723Z" fill="#E2B625"/>
<path d="M60.5274 80.5437C60.5274 78.815 60.5312 77.0863 60.5274 75.3576C60.5236 74.4533 60.7592 73.6288 61.2797 72.888C61.8763 72.0407 62.6742 71.4822 63.6774 71.2162C64.0346 71.1213 64.3955 71.0643 64.7603 71.0757C65.7369 71.1023 66.6108 71.41 67.3707 72.0331C68.0091 72.5536 68.4537 73.2071 68.7083 73.986C68.845 74.4001 68.9172 74.8295 68.9172 75.2664C68.9172 78.7846 68.9248 82.3066 68.9134 85.8249C68.9096 86.8773 68.5373 87.8044 67.8305 88.5946C67.2302 89.2671 66.4854 89.6889 65.6191 89.894C65.0871 90.0194 64.5437 90.027 64.0004 89.9282C63.0124 89.7496 62.1917 89.2785 61.5381 88.5224C61.0024 87.9031 60.668 87.1851 60.5692 86.3644C60.5426 86.1402 60.5274 85.9123 60.5274 85.6843C60.5274 83.9746 60.5274 82.2611 60.5274 80.5437Z" fill="#D3215B"/>
<path d="M79.4624 64.9891C79.4092 65.3235 79.3902 65.6616 79.2725 65.9846C79.1585 66.2961 79.0293 66.6001 78.8621 66.8888C78.6227 67.3029 78.2921 67.6411 77.9387 67.9526C77.4828 68.3554 76.9432 68.6251 76.3504 68.7771C76.0959 68.8417 75.8375 68.8911 75.5753 68.9329C75.4651 68.9519 75.3473 68.9215 75.2333 68.9291C74.8153 68.9481 74.4164 68.8303 74.0174 68.7239C73.6184 68.6175 73.265 68.4124 72.9193 68.2034C72.7597 68.1084 72.6153 67.983 72.4785 67.8539C72.2619 67.6449 72.0453 67.4359 71.8705 67.1852C71.6919 66.923 71.5324 66.6532 71.4146 66.3645C71.3044 66.0985 71.2246 65.8212 71.1486 65.5476C71.1106 65.407 71.1106 65.2551 71.0916 65.1069C71.0878 64.9663 71.0878 64.8257 71.084 64.6814C71.084 64.6358 71.0878 64.594 71.0878 64.5484C71.0878 61.1821 71.0878 57.8159 71.0878 54.4496C71.0878 54.404 71.084 54.3622 71.084 54.3166C71.0878 54.1608 71.0878 54.0089 71.0916 53.8531C71.1372 53.1426 71.3842 52.4967 71.7603 51.9078C72.1555 51.2923 72.6989 50.8212 73.3562 50.483C73.7666 50.2703 74.1998 50.1411 74.652 50.0651C75.0851 49.9929 75.5107 50.0119 75.9439 50.0841C76.3846 50.1525 76.7912 50.3007 77.1826 50.4906C77.46 50.6274 77.707 50.8212 77.9539 51.0111C78.3225 51.2961 78.5999 51.6532 78.8431 52.0408C79.1205 52.4853 79.3066 52.9678 79.4016 53.4808C79.432 53.6403 79.4396 53.8037 79.4548 53.9671C79.4548 54.0887 79.451 54.2064 79.451 54.328C79.451 57.7551 79.451 61.1821 79.451 64.6092C79.4586 64.7346 79.4624 64.8599 79.4624 64.9891Z" fill="#4CB77C"/>
<path d="M68.9341 58.4121C68.8467 58.4121 68.7783 58.4121 68.7099 58.4121C67.399 58.4121 66.088 58.4083 64.7771 58.4159C64.0476 58.4197 63.3598 58.2564 62.7252 57.9068C62.2541 57.6485 61.8399 57.3141 61.4979 56.8924C61.1217 56.4327 60.852 55.9273 60.6848 55.3612C60.6012 55.0763 60.548 54.7913 60.5366 54.495C60.5328 54.3962 60.5024 54.2974 60.5062 54.1986C60.51 54.0352 60.5176 53.8719 60.5442 53.7123C60.5822 53.4919 60.6316 53.2716 60.6886 53.055C60.8178 52.5459 61.0572 52.0861 61.3763 51.672C61.6803 51.2769 62.0413 50.9349 62.4593 50.6652C62.9 50.384 63.3788 50.1978 63.8956 50.0877C64.3325 49.9927 64.7771 49.9813 65.2103 50.0307C65.8942 50.1067 66.525 50.3498 67.1026 50.745C67.6877 51.1477 68.1323 51.6644 68.4629 52.2799C68.6415 52.6143 68.7783 52.9752 68.8467 53.3513C68.8923 53.6021 68.9303 53.8605 68.9303 54.115C68.9379 55.4828 68.9341 56.8506 68.9341 58.2184C68.9341 58.2716 68.9341 58.3247 68.9341 58.4121Z" fill="#66C2ED"/>
<path d="M71.07 81.592C71.1498 81.592 71.2068 81.592 71.2638 81.592C72.6203 81.592 73.9731 81.5806 75.3296 81.5958C76.3061 81.6072 77.1762 81.9301 77.9362 82.5532C78.6619 83.1497 79.1369 83.9058 79.3573 84.8177C79.4181 85.0722 79.4447 85.3382 79.4637 85.6004C79.5169 86.3602 79.3535 87.0821 78.9925 87.747C78.415 88.8071 77.541 89.5175 76.3707 89.8481C75.8691 89.9887 75.36 90.0305 74.8508 89.9773C73.9807 89.8861 73.2017 89.5517 72.533 88.9704C71.9402 88.4537 71.5222 87.823 71.279 87.0745C71.1878 86.7934 71.1194 86.5046 71.1004 86.2083C71.0852 85.9385 71.0738 85.665 71.07 85.3952C71.0662 84.1984 71.07 83.0016 71.07 81.8048C71.07 81.7364 71.07 81.6756 71.07 81.592Z" fill="#E2B625"/>
<path d="M58.4045 71.0759C58.4045 71.1633 58.4045 71.2241 58.4045 71.2887C58.4045 72.6223 58.4121 73.9596 58.4007 75.2932C58.3931 76.2887 58.0701 77.1815 57.428 77.9528C56.8314 78.6709 56.0791 79.1382 55.1785 79.3586C54.4604 79.5334 53.746 79.5144 53.0355 79.3092C52.2375 79.0774 51.5726 78.6405 51.0292 78.0174C50.5618 77.4817 50.2616 76.8624 50.0983 76.1785C49.9995 75.753 49.9729 75.3122 50.0223 74.8791C50.1021 74.1458 50.3414 73.4733 50.7746 72.8692C51.223 72.2385 51.7967 71.7636 52.5035 71.4444C52.9215 71.2583 53.3546 71.1367 53.8106 71.1025C54.012 71.0873 54.2134 71.0759 54.4148 71.0759C55.6725 71.0721 56.934 71.0759 58.1917 71.0759C58.2563 71.0759 58.3209 71.0759 58.4045 71.0759Z" fill="#D3225B"/>
<path d="M81.5938 68.9289C81.5938 68.4844 81.5938 68.0665 81.5938 67.6485C81.5938 66.7101 81.5938 65.7754 81.5938 64.837C81.5938 64.2709 81.6849 63.7199 81.8939 63.1956C82.0725 62.7473 82.3233 62.3446 82.6387 61.9798C83.0111 61.5467 83.4518 61.2124 83.961 60.9654C84.7134 60.6006 85.4999 60.4715 86.3283 60.5741C86.9932 60.6576 87.5936 60.8894 88.1446 61.2655C89.1287 61.9418 89.7177 62.8727 89.9381 64.0429C90.0065 64.4038 90.0179 64.7724 89.9761 65.1371C89.9077 65.764 89.7177 66.3491 89.3871 66.8924C89.2161 67.1736 89.0223 67.4358 88.7905 67.6675C88.3232 68.1348 87.776 68.492 87.1452 68.701C86.6627 68.8605 86.1687 68.9327 85.6595 68.9327C84.3752 68.9289 83.0909 68.9327 81.8065 68.9327C81.7381 68.9289 81.6773 68.9289 81.5938 68.9289Z" fill="#4CB77C"/>
<path d="M79.4628 64.9888C79.4628 64.8635 79.459 64.7343 79.459 64.6089C79.459 61.1818 79.459 57.7548 79.459 54.3277C79.459 54.2062 79.4628 54.0884 79.4628 53.9668C79.4742 53.9934 79.4932 54.02 79.4932 54.0504C79.4969 54.1264 79.4969 54.2024 79.4969 54.2783C79.4969 57.7396 79.4969 61.2008 79.4932 64.6621C79.4969 64.7685 79.5349 64.8824 79.4628 64.9888Z" fill="#BDD5C9"/>
<path d="M71.0966 53.8525C71.0928 54.0083 71.0928 54.1603 71.089 54.3161C71.051 54.1603 71.0434 54.0045 71.0966 53.8525Z" fill="#ACD2BE"/>
<path d="M71.0885 64.6777C71.0923 64.8183 71.0923 64.9589 71.0961 65.1033C71.0391 64.9627 71.0505 64.8221 71.0885 64.6777Z" fill="#ACD2BE"/>
</g>
<defs>
<clipPath id="clip0">
<rect width="40" height="40" fill="white" transform="translate(50 50)"/>
</clipPath>
</defs>
</svg>
