<svg width="140" height="140" viewBox="0 0 140 140" fill="none" xmlns="http://www.w3.org/2000/svg">
<rect opacity="0.01" width="140" height="140" fill="#0D0D0E"/>
<g filter="url(#filter0_d)">
<rect x="30" y="30" width="80" height="80" rx="12" fill="#E84C3D"/>
<rect x="46" y="46" width="48" height="48" fill="#590000" fill-opacity="0.01"/>
</g>
<g clip-path="url(#clip0)">
<path d="M50.8181 67.5817C51.469 67.4395 52.0772 67.2689 52.6965 67.1821C53.3444 67.0932 54.0033 67.1865 54.605 67.4522C55.5083 67.8457 55.9442 68.6185 55.9721 69.5844C56.0285 71.5301 56.0143 73.4813 56.0285 75.4253C56.0281 75.4804 56.0237 75.5355 56.0153 75.5899C55.9415 76.119 55.7244 76.3243 55.2121 76.3331C54.8342 76.3397 54.4569 76.3364 54.079 76.3331C53.4676 76.3287 53.2215 76.0746 53.2151 75.4291C53.2088 74.8166 53.2151 74.2035 53.2151 73.591C53.2151 72.5663 53.2151 71.5422 53.2151 70.5175C53.2151 69.8523 52.8894 69.4906 52.2538 69.5466C51.8438 69.5833 51.4432 69.7447 51.0416 69.8567C50.8603 69.9066 50.8176 70.0411 50.8181 70.2315C50.825 71.9143 50.8223 73.5971 50.8223 75.2809C50.8223 75.3907 50.8223 75.5005 50.8144 75.6102C50.7717 76.0652 50.5388 76.3122 50.0992 76.3287C49.6428 76.3451 49.1853 76.3446 48.7289 76.3287C48.3099 76.3122 48.1054 76.1091 48.0401 75.6838C48.0142 75.5209 48.0008 75.3561 48 75.1909C48 71.4953 48 67.7998 48 64.1042C48 63.1876 48.2045 62.9774 49.0868 62.9785C49.3766 62.9785 49.6665 62.9785 49.9564 62.9785C50.5546 62.984 50.8118 63.2409 50.815 63.8627C50.8218 65.0241 50.8176 66.1854 50.8181 67.3473V67.5817Z" fill="white"/>
<path d="M61.1265 76.6432C60.5351 76.5301 59.9275 76.4752 59.3567 76.2925C58.2446 75.9374 57.6048 75.0801 57.3333 73.9324C57.0176 72.6056 57.0113 71.2195 57.3149 69.8896C57.6385 68.4467 58.505 67.5663 59.9095 67.2837C60.824 67.0911 61.7683 67.1146 62.6729 67.3523C63.8487 67.6657 64.6066 68.45 64.9276 69.6498C65.3146 71.0831 65.3195 72.5991 64.9418 74.0351C64.5618 75.5082 63.5799 76.2853 62.1632 76.4999C61.8259 76.551 61.4828 76.5581 61.1423 76.5856L61.1265 76.6432ZM59.8758 71.8594L59.9433 71.8649C59.9433 72.175 59.9327 72.4857 59.9475 72.7947C59.9623 72.9673 59.9939 73.138 60.0418 73.304C60.2057 73.9571 60.5278 74.2272 61.1333 74.2299C61.7605 74.2326 62.121 73.9692 62.2602 73.3139C62.4658 72.3583 62.4641 71.367 62.2554 70.4121C62.1152 69.7705 61.7626 69.5115 61.146 69.5109C60.5378 69.5109 60.1815 69.782 60.0508 70.4269C59.9554 70.8962 59.9317 71.3814 59.8758 71.8594Z" fill="white"/>
<path d="M83.0982 75.6969C82.285 76.3742 81.3716 76.5998 80.3718 76.5663C78.4133 76.5015 77.4894 75.0131 77.6965 73.2847C77.8646 71.8841 78.5398 71.1991 79.9523 70.9417C80.6933 70.8078 81.4464 70.7397 82.1959 70.6629C82.3925 70.6431 82.4694 70.5992 82.4668 70.3764C82.4589 69.7513 82.2755 69.507 81.6652 69.5405C80.98 69.5784 80.2948 69.6991 79.6097 69.7842C79.3851 69.8127 79.1596 69.8742 78.9366 69.8654C78.5382 69.8484 78.2641 69.6053 78.2214 69.1975C78.1936 68.8621 78.2035 68.5244 78.2509 68.1914C78.2884 67.8863 78.4934 67.681 78.7727 67.5948C80.2232 67.1475 81.6931 66.9862 83.1815 67.3616C84.4084 67.6711 85.1047 68.5635 85.1273 69.8791C85.1595 71.6969 85.1626 73.5158 85.1742 75.3341C85.1819 75.4804 85.1657 75.6271 85.1263 75.7677C85.0736 75.9154 84.9998 76.0811 84.8865 76.1744C84.4543 76.5295 83.5051 76.3391 83.2036 75.8594C83.1746 75.8144 83.1451 75.7699 83.0982 75.6969ZM82.461 72.2117C81.8812 72.3352 81.3331 72.4077 80.814 72.5756C80.4319 72.6986 80.2548 73.1579 80.3027 73.6184C80.3554 74.1195 80.5852 74.4472 81.0053 74.5262C81.467 74.6135 81.916 74.5367 82.3108 74.2518C82.3798 74.2019 82.4526 74.0976 82.4547 74.0169C82.4689 73.4532 82.461 72.8857 82.461 72.2117Z" fill="white"/>
<path d="M69.785 67.4151C70.2551 67.4151 70.6757 67.4118 71.0963 67.4151C71.6328 67.4206 71.8869 67.683 71.8985 68.2384C71.9037 68.5128 71.9064 68.7872 71.8985 69.0617C71.8805 69.5342 71.6792 69.7752 71.2275 69.8147C70.8349 69.8476 70.437 69.8432 70.0438 69.8366C69.8498 69.8333 69.7803 69.8986 69.7845 70.1034C69.7919 71.155 69.7845 72.2065 69.7908 73.2576C69.7955 73.8822 70.0975 74.1906 70.7042 74.2214C71.7056 74.2763 71.7967 74.3767 71.7994 75.4288C71.7994 76.1423 71.5944 76.448 70.9355 76.5265C70.1313 76.6231 69.3228 76.6028 68.5459 76.307C67.5619 75.9321 67.0876 75.1396 67.0349 74.1067C66.9685 72.8031 66.9822 71.4941 66.9822 70.1879C66.9822 69.9047 66.9052 69.8278 66.6427 69.8366C65.7789 69.8668 65.4975 69.6648 65.5391 68.6972C65.567 68.06 65.6909 67.8635 66.2902 67.6939C66.9753 67.5007 66.9753 67.5007 66.9753 66.7565C66.9753 65.7834 67.0628 65.6588 67.9619 65.4063C68.2908 65.313 68.6223 65.2093 68.9586 65.1709C69.5062 65.1083 69.776 65.3816 69.7861 65.9607C69.7913 66.4338 69.785 66.9069 69.785 67.4151Z" fill="white"/>
<path d="M76.4639 73.059C76.4639 74.6315 76.4807 76.2039 76.4575 77.7758C76.4433 78.7462 76.1413 79.6155 75.3729 80.227C74.5449 80.8856 73.5946 81.1128 72.57 80.9481C72.1236 80.8763 71.9286 80.5903 71.9234 80.1249C71.9202 79.8598 71.9176 79.5947 71.9234 79.3296C71.9344 78.896 72.1263 78.6238 72.5389 78.5705C73.5066 78.4465 73.6895 77.9794 73.6858 77.0832C73.6747 74.1946 73.6821 71.306 73.6832 68.4169C73.6821 68.2983 73.6889 68.1799 73.7037 68.0623C73.7564 67.6562 73.9725 67.4372 74.3673 67.424C74.8416 67.4086 75.316 67.4103 75.7903 67.424C76.155 67.435 76.3758 67.6435 76.437 68.019C76.4653 68.1991 76.4793 68.3814 76.4786 68.564C76.4818 70.0641 76.4818 71.5643 76.4786 73.0645L76.4639 73.059Z" fill="white"/>
<path d="M88.5191 67.9843C89.1641 67.5076 89.9243 67.2282 90.7137 67.1775C90.9582 67.1609 91.2037 67.1755 91.4447 67.2209C91.7747 67.2818 91.9544 67.4876 91.9797 67.8372C92.0039 68.1829 92.0039 68.53 91.9797 68.8757C91.9497 69.2911 91.752 69.4959 91.3472 69.5551C90.9425 69.6144 90.5482 69.6512 90.1487 69.6978C90.1399 69.6986 90.1311 69.6999 90.1224 69.7017C89.2912 69.9059 89.2791 69.9212 89.2791 70.7994V75.3274C89.2791 76.0837 89.0404 76.3362 88.3215 76.3367C87.9615 76.3367 87.601 76.3427 87.241 76.334C86.7409 76.3219 86.4715 76.0491 86.4705 75.531C86.4656 73.0886 86.4656 70.6462 86.4705 68.2039C86.4705 67.6913 86.734 67.4355 87.2247 67.4185C87.2595 67.4185 87.2948 67.4185 87.3301 67.4185C88.0753 67.4377 88.0195 67.2873 88.5191 67.9843Z" fill="white"/>
<path d="M75.9103 66.012C76.3488 65.1761 76.5248 64.3802 76.2049 63.5361C76.1591 63.4054 76.0868 63.2864 75.9928 63.1874C75.8989 63.0885 75.7855 63.0118 75.6605 62.9626C75.8534 63.6256 75.8834 64.2496 75.2689 64.6508C74.8378 64.9324 74.4467 64.7216 74.1031 64.355C73.8717 64.9532 73.956 65.5169 74.1341 66.0817C73.2598 66.0723 72.4439 65.4927 72.1372 64.6876C71.8062 63.8193 72.0017 62.9675 72.7032 62.2727C72.8765 62.1047 73.0598 61.9481 73.2519 61.8039C74.219 61.0608 74.3687 60.2178 73.7151 59.175C73.692 59.1387 73.6751 59.0987 73.6245 59.001C73.8126 59.0312 73.9544 59.0438 74.0915 59.0773C75.1962 59.3489 76.2455 59.7436 77.0788 60.5915C78.3094 61.8424 78.7158 64.6069 76.3609 65.8308C76.2402 65.8929 76.1085 65.9329 75.9103 66.012Z" fill="white"/>
</g>
<defs>
<filter id="filter0_d" x="26" y="26" width="88" height="88" filterUnits="userSpaceOnUse" color-interpolation-filters="sRGB">
<feFlood flood-opacity="0" result="BackgroundImageFix"/>
<feColorMatrix in="SourceAlpha" type="matrix" values="0 0 0 0 0 0 0 0 0 0 0 0 0 0 0 0 0 0 127 0"/>
<feOffset/>
<feGaussianBlur stdDeviation="2"/>
<feColorMatrix type="matrix" values="0 0 0 0 0 0 0 0 0 0 0 0 0 0 0 0 0 0 0.4 0"/>
<feBlend mode="normal" in2="BackgroundImageFix" result="effect1_dropShadow"/>
<feBlend mode="normal" in="SourceGraphic" in2="effect1_dropShadow" result="shape"/>
</filter>
<clipPath id="clip0">
<rect width="44" height="22" fill="white" transform="translate(48 59)"/>
</clipPath>
</defs>
</svg>
