<svg width="140" height="140" viewBox="0 0 140 140" fill="none" xmlns="http://www.w3.org/2000/svg">
<rect opacity="0.01" width="140" height="140" fill="#0D0D0E"/>
<g filter="url(#filter0_d)">
<rect x="31" y="30" width="80" height="80" rx="12" fill="#01333E"/>
</g>
<g clip-path="url(#clip0)">
<path d="M92.8726 53.1667C90.4151 56.1552 87.9576 59.1436 85.4925 62.1245C83.7177 64.271 81.9352 66.4024 80.1603 68.5489C78.4765 70.5892 76.8002 72.6371 75.124 74.6851C74.3427 75.6408 73.5539 76.5889 72.7727 77.5446C72.7499 77.5446 72.7271 77.5522 72.7044 77.5522C72.6968 77.5294 72.6892 77.5066 72.6816 77.4839C72.6892 77.3322 72.7044 77.1805 72.7044 77.0288C72.7044 69.1936 72.7044 61.366 72.7044 53.5308C72.7044 53.3791 72.712 53.2274 72.7196 53.0757C79.3184 53.0757 85.9249 53.0757 92.5237 53.0757C92.6375 53.0833 92.7589 53.1364 92.8726 53.1667Z" fill="white"/>
<path d="M49.1289 86.3432C50.206 85.0311 51.283 83.7189 52.3601 82.4067C54.2715 80.0857 56.1904 77.7647 58.1094 75.4437C60.3849 72.6828 62.668 69.9295 64.9434 67.1686C66.3466 65.4696 67.7498 63.7706 69.1455 62.0716C69.1834 62.026 69.2365 61.9881 69.282 61.9502C69.282 62.064 69.2896 62.1777 69.2896 62.2915C69.2896 70.2329 69.2896 78.1667 69.2896 86.1081C69.2896 86.2067 69.282 86.3129 69.2744 86.4115C62.6604 86.4115 56.0539 86.4191 49.4399 86.4115C49.3413 86.4191 49.2351 86.366 49.1289 86.3432Z" fill="white"/>
<path d="M69.282 53.0757C69.3427 54.2058 69.1152 55.2981 68.7511 56.3524C67.8409 58.9692 66.1419 60.9033 63.6616 62.1548C62.539 62.7161 61.3558 63.0347 60.1043 63.1712C55.4775 63.6794 51.1314 60.7288 49.5992 56.4965C49.2579 55.5559 49.0834 54.5927 49 53.6066C49.0379 53.4398 49.0683 53.2729 49.1138 53.0757C55.834 53.0757 62.5618 53.0757 69.282 53.0757Z" fill="white"/>
<path d="M72.7095 86.4189C72.6868 84.3483 73.3922 82.5127 74.5602 80.844C76.1682 78.5534 78.383 77.1123 81.1439 76.6723C85.6873 75.9518 90.0486 78.1211 92.0662 82.4445C92.5895 83.567 92.9005 84.7351 92.946 85.979C92.9536 86.1231 92.984 86.2672 93.0067 86.4114C86.2334 86.4189 79.4752 86.4189 72.7095 86.4189Z" fill="white"/>
<path d="M72.7031 77.552C72.7259 77.552 72.7486 77.5444 72.7714 77.5444C72.7638 77.5672 72.7486 77.5824 72.741 77.6051C72.7335 77.5824 72.7183 77.5672 72.7031 77.552Z" fill="white"/>
</g>
<defs>
<filter id="filter0_d" x="27" y="26" width="88" height="88" filterUnits="userSpaceOnUse" color-interpolation-filters="sRGB">
<feFlood flood-opacity="0" result="BackgroundImageFix"/>
<feColorMatrix in="SourceAlpha" type="matrix" values="0 0 0 0 0 0 0 0 0 0 0 0 0 0 0 0 0 0 127 0"/>
<feOffset/>
<feGaussianBlur stdDeviation="2"/>
<feColorMatrix type="matrix" values="0 0 0 0 0 0 0 0 0 0 0 0 0 0 0 0 0 0 0.4 0"/>
<feBlend mode="normal" in2="BackgroundImageFix" result="effect1_dropShadow"/>
<feBlend mode="normal" in="SourceGraphic" in2="effect1_dropShadow" result="shape"/>
</filter>
<clipPath id="clip0">
<rect width="44" height="33.4949" fill="white" transform="translate(49 53)"/>
</clipPath>
</defs>
</svg>
