<svg width="140" height="140" viewBox="0 0 140 140" fill="none" xmlns="http://www.w3.org/2000/svg">
<rect opacity="0.01" width="140" height="140" fill="#0B0B0C"/>
<g filter="url(#filter0_d)">
<rect x="29" y="30" width="80" height="80" rx="12" fill="white"/>
</g>
<g clip-path="url(#clip0)">
<path d="M68.3538 60.1001C71.341 60.1001 74.3283 60.1001 77.3155 60.1001C77.6975 60.1001 78.0406 60.2061 78.3433 60.4417C78.7515 60.7595 78.9354 61.1886 78.9669 61.6935C78.9708 61.7556 78.9682 61.8182 78.9682 61.8806C78.9682 67.7772 78.9678 73.6738 78.9669 79.5705C78.9669 79.9017 78.9686 79.8842 78.6623 79.8767C77.9385 79.8597 77.2324 79.7347 76.5393 79.5273C75.4764 79.2091 74.5238 78.6857 73.6686 77.9834C73.126 77.5352 72.6441 77.0182 72.2351 76.4455C71.5152 75.4448 71.0379 74.3391 70.8204 73.126C70.7576 72.7757 70.709 72.4186 70.7013 72.0635C70.6783 70.9247 70.6773 69.7854 70.6686 68.6462C70.6666 68.3769 70.6686 68.3766 70.394 68.3766C69.3621 68.3766 68.3303 68.3766 67.2984 68.3766C65.9279 68.3766 64.6397 68.0477 63.4302 67.4068C62.5497 66.9407 61.7862 66.3206 61.1256 65.5775C60.406 64.7712 59.8565 63.828 59.5098 62.8044C59.2887 62.1528 59.14 61.4842 59.0961 60.7952C59.0861 60.637 59.0705 60.479 59.0671 60.3206C59.0625 60.1178 59.0776 60.1061 59.2734 60.1033C59.3244 60.1033 59.3754 60.1033 59.4264 60.1033H68.3543L68.3538 60.1001Z" fill="url(#paint0_linear)"/>
<path d="M77.3863 51C80.3735 51 83.3609 51 86.3485 51C86.7305 51 87.0736 51.1062 87.3763 51.3416C87.7845 51.6594 87.9684 52.0885 87.9999 52.5934C88.0038 52.6555 88.0012 52.7181 88.0012 52.7805C88.0012 58.6773 88.0008 64.5739 87.9999 70.4704C87.9999 70.8016 88.0016 70.7841 87.6952 70.7766C86.9715 70.7596 86.2654 70.6346 85.5723 70.4272C84.5094 70.1091 83.5568 69.5856 82.7016 68.8833C82.1589 68.4352 81.6771 67.9182 81.2681 67.3454C80.5476 66.3454 80.0704 65.2395 79.8528 64.0259C79.7901 63.6756 79.7414 63.3185 79.7338 62.9636C79.7106 61.8237 79.7098 60.6853 79.7011 59.5461C79.6991 59.2768 79.7011 59.2766 79.4264 59.2765C78.3946 59.2765 77.3627 59.2765 76.3309 59.2765C74.9604 59.2765 73.6721 58.9474 72.4627 58.3067C71.5809 57.8404 70.8174 57.2205 70.1568 56.4772C69.4373 55.6709 68.8877 54.7278 68.541 53.7042C68.3199 53.0527 68.1713 52.384 68.1274 51.695C68.1173 51.5367 68.1017 51.3787 68.0983 51.2203C68.0937 51.0175 68.1088 51.0058 68.3046 51.0031C68.3556 51.0031 68.4067 51.0031 68.4577 51.0031H77.3856L77.3863 51Z" fill="url(#paint1_linear)"/>
<path d="M59.2886 69.2202C62.2758 69.2202 65.2631 69.2202 68.2503 69.2202C68.6323 69.2202 68.9754 69.3264 69.2781 69.5618C69.6863 69.8796 69.8702 70.3087 69.9017 70.8136C69.9056 70.8757 69.903 70.9383 69.903 71.0008C69.903 76.8975 69.9026 82.7942 69.9017 88.6906C69.9017 89.0219 69.9034 89.0043 69.597 88.9968C68.8733 88.9798 68.1671 88.8548 67.4741 88.6474C66.4112 88.3293 65.4586 87.8058 64.6034 87.1035C64.0607 86.6554 63.5789 86.1384 63.1699 85.5656C62.4499 84.5656 61.9727 83.4598 61.7552 82.2461C61.6924 81.8958 61.6437 81.5387 61.6361 81.1838C61.613 80.044 61.6121 78.9055 61.6034 77.7663C61.6014 77.497 61.6034 77.4968 61.3287 77.4967C60.2969 77.4967 59.2651 77.4967 58.2332 77.4967C56.8627 77.4967 55.5745 77.1676 54.365 76.527C53.4833 76.0606 52.7198 75.4407 52.0592 74.6974C51.3396 73.8911 50.7901 72.948 50.4434 71.9244C50.2223 71.273 50.0736 70.6042 50.0297 69.9152C50.0197 69.757 50.004 69.5989 50.0006 69.4405C49.9961 69.2377 50.0112 69.226 50.207 69.2233C50.258 69.2233 50.309 69.2233 50.36 69.2233H59.2886V69.2202Z" fill="url(#paint2_linear)"/>
</g>
<defs>
<filter id="filter0_d" x="25" y="26" width="88" height="88" filterUnits="userSpaceOnUse" color-interpolation-filters="sRGB">
<feFlood flood-opacity="0" result="BackgroundImageFix"/>
<feColorMatrix in="SourceAlpha" type="matrix" values="0 0 0 0 0 0 0 0 0 0 0 0 0 0 0 0 0 0 127 0"/>
<feOffset/>
<feGaussianBlur stdDeviation="2"/>
<feColorMatrix type="matrix" values="0 0 0 0 0 0 0 0 0 0 0 0 0 0 0 0 0 0 0.4 0"/>
<feBlend mode="normal" in2="BackgroundImageFix" result="effect1_dropShadow"/>
<feBlend mode="normal" in="SourceGraphic" in2="effect1_dropShadow" result="shape"/>
</filter>
<linearGradient id="paint0_linear" x1="67.2649" y1="71.7406" x2="78.4647" y2="60.5438" gradientUnits="userSpaceOnUse">
<stop stop-color="#2684FF"/>
<stop offset="1" stop-color="#0052CC"/>
</linearGradient>
<linearGradient id="paint1_linear" x1="30841.3" y1="13585.6" x2="43862.3" y2="482.553" gradientUnits="userSpaceOnUse">
<stop stop-color="#2684FF"/>
<stop offset="1" stop-color="#0052CC"/>
</linearGradient>
<linearGradient id="paint2_linear" x1="9644.65" y1="34787.7" x2="22665.7" y2="21685" gradientUnits="userSpaceOnUse">
<stop stop-color="#2684FF"/>
<stop offset="1" stop-color="#0052CC"/>
</linearGradient>
<clipPath id="clip0">
<rect width="38" height="38" fill="white" transform="translate(50 51)"/>
</clipPath>
</defs>
</svg>
