<svg width="140" height="140" viewBox="0 0 140 140" fill="none" xmlns="http://www.w3.org/2000/svg">
<rect opacity="0.01" width="140" height="140" fill="#0B0B0C"/>
<g filter="url(#filter0_d)">
<rect x="30" y="30" width="80" height="80" rx="12" fill="#FFD600"/>
</g>
<g clip-path="url(#clip0)">
<path d="M70.0381 83.4244C66.7362 83.4244 63.4343 83.4244 60.1324 83.4244C56.7011 83.4425 53.3817 82.2338 50.8003 80.0265C48.2188 77.8191 46.5538 74.7657 46.1192 71.4421C45.2021 64.7079 49.6631 58.2122 56.4758 56.4612C57.6289 56.1734 58.8142 56.0272 60.0043 56.0259C66.7248 55.9859 73.4368 55.9992 80.1573 56.0075C85.9078 56.0075 91.1954 59.6765 93.1628 65.0131C95.1645 70.4364 93.5266 76.5202 89.1032 80.1441C86.427 82.3338 83.3596 83.4511 79.8601 83.4344C76.581 83.4128 73.3104 83.4244 70.0381 83.4244ZM70.0176 81.3565C73.2062 81.3565 76.3932 81.3565 79.5818 81.3565C80.2352 81.3541 80.8878 81.3106 81.5356 81.2264C87.8172 80.4193 92.2559 75.056 91.8392 68.7871C91.443 62.8734 86.1349 58.0805 79.966 58.0772C73.3343 58.0772 66.7026 58.0571 60.0726 58.0972C58.9934 58.1095 57.9205 58.2586 56.8806 58.5408C51.2548 60.0484 47.5248 65.3383 48.2524 71.0235C49.0278 77.1022 54.0438 81.3482 60.199 81.3482L70.0176 81.3565Z" fill="#043241"/>
<path d="M81.1384 72.4769C82.0709 69.7552 82.9231 67.2604 83.7839 64.7672C84.1886 63.5998 84.7181 63.1895 85.461 63.448C86.2466 63.7198 86.3833 64.3052 85.9563 65.4693C84.8177 68.5745 83.6791 71.6814 82.5405 74.79C82.2895 75.4854 81.994 76.0825 81.1042 76.0825C80.2144 76.0825 79.9087 75.4888 79.6747 74.7867C78.901 72.5003 78.1069 70.2188 77.3042 67.9358C77.2547 67.7924 77.171 67.6606 77.0207 67.3554C76.4263 69.0531 75.8883 70.5891 75.3487 72.1267C75.0071 73.1273 74.6553 74.1279 74.3 75.1152C74.0968 75.6872 73.7193 76.0474 73.0567 76.0808C72.3582 76.1158 71.9107 75.7856 71.6904 75.1786C70.43 71.762 69.1775 68.3421 67.933 64.9189C67.6769 64.2101 67.974 63.7248 68.6503 63.4563C69.272 63.2095 69.9176 63.5214 70.1874 64.2618C70.7869 65.9079 71.3403 67.5689 71.9107 69.2249C72.2693 70.2672 72.6229 71.3129 73.0328 72.5103C73.7637 70.3423 74.4469 68.326 75.1283 66.3064C75.3418 65.676 75.5502 65.0423 75.7705 64.4136C75.9908 63.7849 76.3324 63.3346 77.1044 63.3479C77.8763 63.3613 78.1957 63.8349 78.4041 64.457C79.2102 66.8518 80.0169 69.2455 80.8241 71.6381C80.8907 71.8432 80.9744 72.0433 81.1384 72.4769Z" fill="#043241"/>
<path d="M53.0703 69.7416C53.0703 65.931 56.1308 62.9891 60.0914 62.9941C61.917 63.0291 63.6553 63.764 64.9307 65.04C66.206 66.316 66.9162 68.0307 66.9077 69.8137C66.8991 71.5967 66.1726 73.3049 64.8851 74.5692C63.5976 75.8335 61.8524 76.5525 60.0265 76.5708C56.1138 76.5608 53.072 73.574 53.0703 69.7416ZM60.0385 65.0638C58.7603 65.0597 57.5324 65.5501 56.6235 66.4277C55.7146 67.3052 55.1985 68.4985 55.1881 69.7466C55.1778 72.3032 57.3161 74.4545 59.9001 74.4862C61.1797 74.5041 62.4142 74.025 63.332 73.1541C64.2498 72.2832 64.7757 71.092 64.7941 69.8425C64.8124 68.593 64.3217 67.3876 63.4298 66.4914C62.538 65.5952 61.3181 65.0817 60.0385 65.0638V65.0638Z" fill="#043241"/>
</g>
<defs>
<filter id="filter0_d" x="26" y="26" width="88" height="88" filterUnits="userSpaceOnUse" color-interpolation-filters="sRGB">
<feFlood flood-opacity="0" result="BackgroundImageFix"/>
<feColorMatrix in="SourceAlpha" type="matrix" values="0 0 0 0 0 0 0 0 0 0 0 0 0 0 0 0 0 0 127 0"/>
<feOffset/>
<feGaussianBlur stdDeviation="2"/>
<feColorMatrix type="matrix" values="0 0 0 0 0 0 0 0 0 0 0 0 0 0 0 0 0 0 0.4 0"/>
<feBlend mode="normal" in2="BackgroundImageFix" result="effect1_dropShadow"/>
<feBlend mode="normal" in="SourceGraphic" in2="effect1_dropShadow" result="shape"/>
</filter>
<clipPath id="clip0">
<rect width="48" height="27.4286" fill="white" transform="translate(46 56)"/>
</clipPath>
</defs>
</svg>
