<svg width="140" height="140" viewBox="0 0 140 140" fill="none" xmlns="http://www.w3.org/2000/svg">
<rect opacity="0.01" width="140" height="140" fill="#0F0E10"/>
<rect x="30" y="30" width="80" height="80" rx="12" fill="#FFE01B"/>
<rect x="46" y="46" width="48" height="48" fill="#590000" fill-opacity="0.01"/>
<g clip-path="url(#clip0)">
<path d="M81.6104 60.4039C82.4998 61.3106 83.0167 62.4121 83.2691 63.6292C83.4313 64.4142 83.5034 65.2297 83.5515 66.033C83.5996 66.7876 83.5635 67.5482 83.5635 68.2663C84.3508 68.5402 85.0659 68.7593 85.7631 69.0331C86.1597 69.1913 86.5443 69.3921 86.9049 69.6295C88.4193 70.6153 88.852 72.3923 87.9626 73.9806C87.8484 74.1814 87.8304 74.3457 87.9145 74.5709C88.0888 75.0334 88.215 75.5141 88.3712 75.9827C88.4013 76.0679 88.4554 76.1896 88.5275 76.2079C89.4349 76.4513 89.7895 77.139 89.9397 77.9848C90.102 78.9342 89.9457 79.8653 89.7234 80.7781C88.6236 85.2266 85.9193 88.3423 81.8929 90.3323C80.1441 91.1964 78.2811 91.6772 76.346 91.878C72.9385 92.237 69.6393 91.8476 66.5022 90.4053C62.9866 88.7866 60.3724 86.2307 58.7378 82.6707C58.6957 82.5733 58.5756 82.4516 58.4854 82.4455C56.6525 82.3238 55.1381 81.5388 53.9061 80.1939C52.1933 78.3195 51.8508 76.1227 52.5419 73.725C52.608 73.4877 52.578 73.366 52.3917 73.2199C52.0191 72.9278 51.6705 72.6053 51.3099 72.301C50.4265 71.5586 50.0419 70.5788 50.0058 69.4408C49.9518 67.7917 50.4686 66.2703 51.1296 64.7976C52.3316 62.12 54.0022 59.7467 55.9013 57.5376C57.9686 55.1217 60.2522 52.9431 62.9145 51.1966C64.2967 50.2898 65.745 49.517 67.3736 49.164C68.5756 48.9023 69.7594 48.9084 70.8472 49.6143C71.0575 49.7482 71.2498 49.9125 71.4301 50.089C72.0311 50.6732 72.626 51.2574 73.209 51.8599C73.3652 52.0181 73.4854 52.0546 73.6957 51.9572C75.0299 51.3548 76.3881 50.8314 77.8364 50.5576C79.2066 50.302 80.5707 50.2107 81.9409 50.5819C84.1104 51.1722 85.1501 52.8883 84.6933 55.1095C84.3508 56.7526 83.5034 58.1218 82.4818 59.3998C82.1933 59.7406 81.9049 60.057 81.6104 60.4039ZM87.4397 77.4858C87.2174 76.713 86.995 75.9584 86.7667 75.1794C86.6645 75.2403 86.6405 75.2585 86.6164 75.2707C83.3352 77.6806 79.6212 78.4717 75.6489 78.3074C74.9818 78.283 74.3147 78.1917 73.6477 78.1735C73.227 78.1613 72.9626 78.4413 72.8724 78.8916C72.9566 78.922 73.0467 78.9646 73.1429 78.995C75.126 79.6401 77.1573 79.7861 79.2186 79.5914C79.3147 79.5853 79.4109 79.634 79.507 79.6583C79.4349 79.7375 79.3748 79.8348 79.2847 79.8896C79.2066 79.9444 79.0984 79.9626 79.0022 79.993C77.4097 80.4677 75.8051 80.4495 74.1945 80.133C73.7198 80.0417 73.251 79.9139 72.7462 79.7983C72.8063 80.1817 72.9866 80.4616 73.233 80.7051C73.6657 81.125 74.2006 81.344 74.7655 81.4901C76.5263 81.9465 78.2931 81.8796 80.0539 81.5144C82.2594 81.058 84.2967 80.1695 86.1897 78.9403C86.2619 78.8977 86.334 78.8612 86.4061 78.8186C86.4241 78.8368 86.4421 78.8551 86.4602 78.8733C86.4061 78.9707 86.364 79.0863 86.2919 79.1593C85.8171 79.6036 85.3784 80.1148 84.8436 80.4738C82.001 82.3907 78.858 83.0906 75.4806 82.7133C74.5131 82.6037 73.5876 82.2812 72.7883 81.6909C71.8268 80.9789 71.4782 80.0052 71.7066 78.8368C71.9109 77.7719 72.7282 77.0173 73.6717 77.0294C74.1585 77.0355 74.6453 77.1329 75.132 77.1694C76.8388 77.3033 78.5275 77.1694 80.1982 76.8043C82.0311 76.4087 83.7679 75.7576 85.3063 74.65C85.8953 74.224 86.4301 73.7311 86.7246 73.0373C87.0551 72.2645 86.8869 71.5342 86.2138 71.0474C85.8412 70.7796 85.4265 70.5606 84.9998 70.3962C84.3087 70.1346 83.5936 69.9338 82.8905 69.7208C82.4518 69.5869 82.2294 69.2826 82.1633 68.8505C82.1272 68.601 82.1092 68.3454 82.0912 68.0959C82.0251 66.9823 82.007 65.8687 81.8929 64.7611C81.8328 64.2012 81.6585 63.6292 81.4241 63.118C81.1296 62.4608 80.5527 62.1687 79.8256 62.2234C79.3328 62.26 78.9241 62.479 78.5635 62.7955C77.8484 63.4223 77.0671 63.9578 76.1056 64.0248C75.3003 64.0795 74.489 63.9943 73.6837 63.9578C72.9566 63.9274 72.2354 63.7813 71.5022 63.9639C69.6693 64.4203 68.2751 66.2642 68.227 68.2785C68.1969 69.739 68.7078 70.9865 69.6092 72.0941C69.9878 72.5566 70.3844 72.9947 70.751 73.4633C71.0395 73.8285 71.0155 74.0597 70.715 74.4066C70.5647 74.5831 70.4085 74.7535 70.2643 74.936C69.3087 76.1896 68.8099 77.6197 68.6897 79.1898C68.5094 81.6361 69.1825 83.7721 71.0155 85.4274C73.1489 87.3626 75.727 87.8981 78.5034 87.6668C80.2402 87.5208 81.8688 86.9792 83.3832 86.1211C85.5707 84.8797 87.2174 83.1392 88.0707 80.7172C88.3051 80.0478 88.4253 79.3297 88.5034 78.6177C88.5756 78.0031 88.2871 77.6258 87.8304 77.5102C87.6982 77.4919 87.5599 77.498 87.4397 77.4858ZM71.9049 52.864C71.3881 52.3163 70.8832 51.8112 70.4025 51.2818C69.8977 50.7158 69.2727 50.5454 68.5575 50.6124C68.3412 50.6306 68.1188 50.661 67.9025 50.7036C66.364 51.0079 64.9938 51.7138 63.7018 52.5658C59.2546 55.5112 55.7751 59.3815 53.209 64.0917C52.4037 65.5705 51.7366 67.1162 51.5623 68.8384C51.4241 70.2259 52.0732 71.449 53.3292 72.0698C53.3472 72.0576 53.3652 72.0515 53.3772 72.0332C54.2006 70.9318 55.2883 70.2441 56.6104 69.9216C56.7066 69.8972 56.8087 69.7634 56.8568 69.6599C57.1693 68.9479 57.4397 68.2176 57.7643 67.5117C59.477 63.7996 61.7787 60.5317 64.8736 57.8723C67.0491 56.0041 69.3688 54.3306 71.9049 52.864ZM61.8568 77.0051C61.8207 75.7332 61.7126 74.8265 61.37 73.9563C60.3724 71.4186 57.614 70.6153 55.4445 72.2341C53.9962 73.3112 53.3592 75.648 54.0683 77.4554C54.7775 79.2567 56.1056 80.3582 57.9686 80.7537C59.5972 81.1006 61.0155 80.2547 61.5203 78.6542C61.7246 78.0153 61.7967 77.3337 61.8568 77.0051ZM73.84 57.4281C74.0263 57.209 74.1405 57.0569 74.2727 56.923C74.4049 56.783 74.5491 56.6552 74.6873 56.5214C72.9385 56.6005 71.3941 57.2394 69.9337 58.1401C69.9037 58.1097 69.8736 58.0853 69.8436 58.0549C70.0119 57.6228 70.1741 57.1968 70.3424 56.7709C69.3087 57.0082 65.3784 60.27 65.0659 61.1707C68.9962 58.56 73.245 57.6046 77.8844 58.5539C76.6645 57.8115 75.3244 57.5255 73.84 57.4281Z" fill="black"/>
<path d="M81.0926 68.4491C81.0926 68.4795 81.0926 68.51 81.0926 68.5404C81.0865 69.3011 80.8822 69.4654 80.1431 69.2828C80.0709 69.2646 79.9928 69.1854 79.9507 69.1185C79.5301 68.3578 79.3498 67.5424 79.4039 66.6782C79.4219 66.3496 79.6383 66.1062 79.8907 66.0575C80.1911 65.9967 80.4495 66.1123 80.6298 66.447C80.9603 67.0616 81.0745 67.7432 81.0926 68.4491Z" fill="black"/>
<path d="M73.5104 68.729C74.2075 68.7838 74.8145 69.015 75.3313 69.4653C75.4816 69.5931 75.6138 69.7575 75.7159 69.9278C75.77 70.0191 75.752 70.153 75.77 70.2686C75.6558 70.2747 75.5417 70.3051 75.4395 70.2869C75.3253 70.2686 75.2111 70.2078 75.109 70.153C74.1354 69.6479 73.1378 69.6418 72.1162 69.9948C71.9299 70.0617 71.7376 70.1226 71.5393 70.1591C71.4431 70.1774 71.2869 70.153 71.2508 70.0922C71.2087 70.0252 71.2448 69.8731 71.2989 69.794C71.5813 69.3923 71.99 69.1428 72.4347 68.9907C72.7893 68.8568 73.1559 68.8081 73.5104 68.729Z" fill="black"/>
<path d="M75.3851 71.3398C74.5858 71.2181 73.8706 71.2851 73.1735 71.565C73.0894 71.6015 72.9752 71.5467 72.873 71.5346C72.8911 71.4311 72.873 71.3094 72.9271 71.2242C73.3718 70.4757 74.8803 70.2993 75.4933 70.9321C75.5594 70.9991 75.6255 71.139 75.6014 71.212C75.5714 71.2851 75.4271 71.3155 75.3851 71.3398Z" fill="black"/>
<path d="M78.8876 72.5325C78.4009 72.4838 78.1124 72.3256 77.9501 71.9909C77.7819 71.6562 77.9622 71.3214 78.3287 71.2788C78.6713 71.2362 78.9597 71.358 79.1821 71.6196C79.3323 71.7961 79.4465 72.0213 79.3023 72.2221C79.1941 72.3803 78.9778 72.4716 78.8876 72.5325Z" fill="black"/>
<path d="M81.2732 71.0231C81.2732 71.0657 81.2792 71.1022 81.2732 71.1448C81.2371 71.5099 80.9847 71.7899 80.7143 71.7899C80.4378 71.7838 80.1854 71.4978 80.1794 71.1326C80.1734 70.9561 80.1794 70.7432 80.2695 70.6093C80.3717 70.451 80.576 70.2685 80.7383 70.2746C80.8946 70.2746 81.0748 70.4754 81.201 70.6214C81.2792 70.7188 81.2732 70.8831 81.3032 71.0231C81.2912 71.017 81.2792 71.017 81.2732 71.0231Z" fill="black"/>
<path d="M57.7084 72.9825C58.8382 72.9156 60.1303 74.1692 59.6615 75.7028C59.5774 75.9705 59.4632 76.2322 59.373 76.5C59.3009 76.7069 59.2168 76.9199 59.1807 77.1328C59.1146 77.5406 59.4091 77.8509 59.8178 77.8266C59.8779 77.8205 59.938 77.7901 59.992 77.7962C60.1303 77.8205 60.2625 77.857 60.4007 77.8874C60.3286 78.0335 60.2985 78.2161 60.1843 78.3134C59.7216 78.709 58.9944 78.5873 58.6279 78.0639C58.2372 77.5101 58.3033 76.9077 58.4476 76.287C58.5317 75.9401 58.6339 75.575 58.5978 75.2281C58.5437 74.7047 58.1591 74.3944 57.6242 74.3031C57.1855 74.2301 56.6988 74.4613 56.4584 74.8812C56.3622 75.0455 56.3021 75.2281 56.23 75.4046C56.194 75.4898 56.194 75.5993 56.1339 75.6541C56.0197 75.7636 55.8815 75.8488 55.7553 75.9401C55.6831 75.8062 55.5449 75.6784 55.5449 75.5445C55.5449 75.2342 55.575 74.9177 55.6651 74.6195C55.9596 73.6033 56.7529 72.9765 57.7084 72.9825Z" fill="black"/>
</g>
<defs>
<clipPath id="clip0">
<rect width="40" height="43" fill="white" transform="translate(50 49)"/>
</clipPath>
</defs>
</svg>
