<svg width="140" height="140" viewBox="0 0 140 140" fill="none" xmlns="http://www.w3.org/2000/svg">
<rect x="30" y="30" width="80" height="80" rx="12" fill="#00005B"/>
<rect x="46" y="46" width="48" height="48" fill="#590000" fill-opacity="0.01"/>
<g clip-path="url(#clip0)">
<path d="M59.7115 56.0074C60.7462 56.0074 61.7785 56.0173 62.8156 56.0021C63.17 55.9969 63.3696 56.0966 63.4989 56.4571C66.6586 65.2546 69.8253 74.05 72.9992 82.8432C73.2082 83.423 73.1563 83.4901 72.5296 83.4906C70.876 83.4906 69.2188 83.4784 67.5634 83.5C67.1234 83.5058 66.9196 83.3431 66.7844 82.9401C66.1607 81.0842 65.4987 79.2406 64.8786 77.3842C64.7539 77.0103 64.5762 76.889 64.184 76.8907C61.2181 76.9059 58.2521 76.9059 55.2862 76.8907C54.9123 76.8907 54.744 77.0074 54.6318 77.3637C54.053 79.198 53.4341 81.0201 52.86 82.8549C52.7195 83.304 52.4945 83.4866 52.0149 83.479C50.601 83.4568 49.1866 83.472 47.7727 83.4714C46.9146 83.4714 46.8791 83.4265 47.1561 82.6397C48.7972 77.9831 50.4394 73.3268 52.0828 68.6706C53.2215 65.443 54.3861 62.2235 55.4864 58.9836C55.751 58.2056 55.8626 57.3675 55.9636 56.5475C56.0144 56.1304 56.1408 55.9916 56.5542 56.0004C57.6072 56.022 58.6596 56.0074 59.7115 56.0074ZM59.6932 60.8605L56.3912 71.6819H63.0879C61.9469 68.0442 60.8206 64.4567 59.6932 60.8605Z" fill="#9999FF"/>
<path d="M80.4293 74.5305C80.7016 76.2901 81.4511 77.6613 83.1307 78.4043C84.792 79.1392 86.5337 79.2314 88.299 78.9607C89.4801 78.7793 90.653 78.5134 91.8655 78.2789C91.8525 78.2597 91.9039 78.3011 91.9045 78.3425C91.9128 79.7044 91.9358 81.0668 91.8974 82.4252C91.8921 82.6182 91.6192 82.8877 91.4072 82.9786C89.7364 83.6919 87.9564 83.906 86.1604 83.9795C84.5015 84.0471 82.8484 83.9398 81.2491 83.4546C78.6139 82.6526 76.6425 81.0219 75.5629 78.5303C73.8714 74.6226 74.0025 70.7074 76.1298 66.9886C77.8585 63.9646 80.5504 62.356 84.1193 62.2644C85.6342 62.2265 87.1136 62.3717 88.5269 62.9451C91.6441 64.2101 93.1229 66.6988 93.5771 69.8273C93.7702 71.1576 93.6024 72.5393 93.5948 73.8977C93.5948 74.3351 93.3249 74.4844 92.9197 74.4856C91.7846 74.4891 90.6495 74.5048 89.5144 74.5042C86.5835 74.5042 83.6524 74.5009 80.7211 74.4943C80.6532 74.4955 80.5858 74.5106 80.4293 74.5305ZM80.5102 70.656C80.6073 70.6784 80.7061 70.693 80.8055 70.6998C82.9423 70.6928 85.0791 70.6998 87.2158 70.6654C88.2251 70.6502 88.3432 70.4577 88.1035 69.4721C88.0952 69.4388 88.0816 69.4073 88.0722 69.3747C87.5206 67.3917 85.4877 66.3214 83.3699 66.8971C81.7115 67.3462 80.3472 69.1291 80.5091 70.656H80.5102Z" fill="#9999FF"/>
</g>
<defs>
<clipPath id="clip0">
<rect width="46.6667" height="28" fill="white" transform="translate(47 56)"/>
</clipPath>
</defs>
</svg>
