<svg width="140" height="140" viewBox="0 0 140 140" fill="none" xmlns="http://www.w3.org/2000/svg">
<rect x="30" y="30" width="80" height="80" rx="12" fill="#EB3463"/>
<rect x="46" y="46" width="48" height="48" fill="#590000" fill-opacity="0.01"/>
<g clip-path="url(#clip0)">
<path d="M78.498 71.1692C78.1565 71.6338 77.8048 72.0909 77.4764 72.5649C76.4688 74.0238 75.4613 75.4922 74.4538 76.9511C73.0997 78.9061 71.7335 80.8484 70.3894 82.814C70.1264 83.2006 69.9572 83.1774 69.7194 82.8308C68.8529 81.5668 67.9754 80.3028 67.1139 79.0388C65.6705 76.9131 64.2311 74.784 62.7957 72.6513C62.306 71.9276 61.8093 71.2114 61.238 70.3782C61.2108 70.6268 61.1836 70.7647 61.1836 70.9048C61.1796 75.4335 61.1766 79.9629 61.1746 84.493C61.1746 85.4926 60.6607 86.0035 59.7056 86.0056C57.6569 86.0056 55.6083 86.0056 53.5597 86.0056C52.5521 86.0056 52.0373 85.4716 52.0363 84.4256C52.0215 75.6927 52.0094 66.9639 52 58.2394C52 57.5895 52.0181 56.9406 52.0343 56.2918C52.0564 55.4343 52.4342 55.0204 53.2413 55.0162C55.2896 55.0046 57.3399 55.0141 59.3862 55.0077C59.8628 55.0077 60.1922 55.2047 60.4824 55.6155C62.2818 58.2067 64.1095 60.7769 65.9109 63.366C66.9547 64.8639 67.9734 66.3807 69.0081 67.886C69.2328 68.2125 69.4746 68.5253 69.7083 68.8456C69.8826 69.0857 70.0247 69.1026 70.2121 68.8319C71.002 67.6795 71.806 66.5377 72.609 65.3937C74.8759 62.1635 77.1429 58.9307 79.4098 55.6956C79.7423 55.2205 80.1342 54.9898 80.7196 54.9993C82.6833 55.0309 84.649 55.0088 86.6126 55.0109C87.6393 55.0109 87.8982 55.2911 87.9023 56.3413C87.9318 65.5201 87.9634 74.6994 87.997 83.8789C88.003 85.5906 87.7421 85.8603 86.1028 85.8613C84.0706 85.8613 82.0385 85.8308 80.0073 85.8771C79.2395 85.895 78.626 85.3336 78.633 84.4688C78.6693 80.1859 78.6481 75.903 78.6461 71.618C78.6461 71.4852 78.625 71.3525 78.6139 71.2198L78.498 71.1692Z" fill="white"/>
</g>
<defs>
<clipPath id="clip0">
<rect width="36" height="31" fill="white" transform="translate(52 55)"/>
</clipPath>
</defs>
</svg>
