<svg width="140" height="140" viewBox="0 0 140 140" fill="none" xmlns="http://www.w3.org/2000/svg">
<rect x="31" y="30" width="80" height="80" rx="12" fill="#330000"/>
<rect x="47" y="46" width="48" height="48" fill="#590000" fill-opacity="0.01"/>
<g clip-path="url(#clip0)">
<path d="M64.7171 57.1267C65.7933 57.1267 66.8688 57.1364 67.945 57.1212C68.2367 57.117 68.3743 57.2145 68.4724 57.4907C70.8808 64.2775 73.2952 71.0618 75.7155 77.8437C76.4938 80.0292 77.2721 82.2145 78.0505 84.3996C78.2332 84.9121 78.1723 84.9951 77.612 84.9951H72.5881C72.1064 84.9951 72.0364 84.946 71.8829 84.5014C71.2209 82.5854 70.5546 80.6707 69.9024 78.7517C69.8104 78.4815 69.6843 78.3834 69.3871 78.3846C66.3225 78.3967 63.2571 78.3967 60.1909 78.3846C59.862 78.3846 59.7177 78.4767 59.6172 78.7941C59.0252 80.6834 58.407 82.5612 57.7956 84.439C57.6305 84.9466 57.5562 84.9987 57.0093 84.9987H52.5342C51.9952 84.9987 51.9039 84.8739 52.0842 84.3572C53.3022 80.8617 54.5219 77.3668 55.7432 73.8724C57.0741 70.0631 58.4046 66.254 59.7347 62.4451C60.077 61.4644 60.446 60.4898 60.7244 59.4909C60.9004 58.8585 60.9461 58.1867 61.0197 57.5295C61.0599 57.1697 61.066 57.1279 61.429 57.1273C62.5253 57.1261 63.6213 57.1259 64.7171 57.1267ZM64.7037 61.9526L64.627 61.9472C64.5527 62.2549 64.4936 62.5662 64.4017 62.8685C63.4089 66.1456 62.4124 69.4216 61.412 72.6967C61.2975 73.0722 61.3036 73.0989 61.6878 73.0989C63.7179 73.0989 65.746 73.0989 67.772 73.0989C67.902 73.0898 68.0313 73.0715 68.1587 73.0444C66.9985 69.3178 65.8511 65.6349 64.7037 61.9526Z" fill="#FF9A00"/>
<path d="M86.9183 74.4563C86.9183 77.7874 86.9183 81.119 86.9183 84.451C86.9183 84.9859 86.9024 85.0016 86.3756 85.0016C84.7727 85.0016 83.1689 85.0016 81.5643 85.0016C81.1417 85.0016 81.0625 84.9247 81.0625 84.511C81.0625 77.7892 81.0625 71.0673 81.0625 64.3452C81.0625 63.9466 81.1106 63.897 81.5235 63.8963C83.1675 63.8939 84.8118 63.8939 86.4566 63.8963C86.8744 63.8963 86.9183 63.946 86.9183 64.3767C86.9187 67.7361 86.9187 71.096 86.9183 74.4563Z" fill="#FF9A00"/>
<path d="M87.2873 58.2557C87.389 59.853 86.1332 61.5921 84.0314 61.5606C82.0673 61.5315 80.7567 60.194 80.7598 58.1642C80.7598 56.3603 82.1946 55.0264 84.0875 55.0004C86.3232 54.9695 87.3902 56.7595 87.2873 58.2557Z" fill="#FF9A00"/>
</g>
<defs>
<clipPath id="clip0">
<rect width="35.2941" height="30" fill="white" transform="translate(52 55)"/>
</clipPath>
</defs>
</svg>
