<svg width="140" height="140" viewBox="0 0 140 140" fill="none" xmlns="http://www.w3.org/2000/svg">
<rect opacity="0.01" width="140" height="140" fill="#0B0B0C"/>
<g filter="url(#filter0_d)">
<rect x="30" y="30" width="80" height="80" rx="12" fill="#F4EAD5"/>
</g>
<path d="M60.6362 86.4445C60.1993 86.4018 59.7606 86.3707 59.3259 86.3115C56.0978 85.8724 53.1259 84.8153 50.6204 82.6584C49.1174 81.366 47.9989 79.7773 47.1267 78.0058C45.9149 75.5441 45.0807 72.9623 44.6681 70.2478C44.3906 68.432 44.3271 66.6178 44.7107 64.8049C45.1796 62.5935 46.3429 60.8079 48.0244 59.3318C49.6174 57.934 51.4499 56.937 53.3821 56.1041C55.4895 55.1957 57.6711 54.5376 59.9418 54.1932C61.7189 53.9238 63.4951 53.908 65.2534 54.3266C67.253 54.8023 68.8873 55.8876 70.2726 57.3765C71.8498 59.07 72.9431 61.0568 73.8004 63.1856C74.4709 64.8518 74.9308 66.5743 75.1337 68.3625C75.1412 68.4056 75.1508 68.4483 75.1627 68.4904C75.9201 68.1323 76.6588 68.0871 77.3289 68.6319C77.915 69.108 78.0412 69.776 78.0028 70.5253H75.2786C75.2262 70.7281 75.2468 70.9428 75.3369 71.1318C75.427 71.3209 75.5809 71.4721 75.7714 71.559C76.2863 71.7913 76.8097 71.5863 77.245 70.9695L77.9176 71.2427C77.655 71.7658 77.3208 72.1805 76.7356 72.3135C76.184 72.4393 75.6512 72.389 75.1827 72.1063C75.0071 72.9269 74.8592 73.7428 74.6524 74.5437C74.4787 75.209 74.2688 75.8642 74.0237 76.5066C72.9376 79.3626 71.3933 81.9146 69.0126 83.8895C67.4286 85.2036 65.5987 85.9807 63.5637 86.2722C63.1217 86.3358 62.6746 86.3626 62.23 86.4078C62.1673 86.4142 62.1059 86.4312 62.0441 86.4432L60.6362 86.4445ZM62.3412 54.2618C61.4887 54.3509 60.6285 54.4038 59.7837 54.5355C57.4286 54.9021 55.1801 55.6263 53.0087 56.6067C51.1877 57.4294 49.4742 58.4187 47.9908 59.778C46.2082 61.4136 45.1493 63.4145 44.8518 65.8216C44.6625 67.3523 44.7606 68.8702 45.0018 70.3825C45.4217 73.0083 46.2423 75.5049 47.4145 77.8903C48.7431 80.5945 50.657 82.7449 53.3476 84.149C55.8114 85.4346 58.4422 86.0868 61.2223 86.1231C62.5437 86.1401 63.8442 85.9977 65.1145 85.6209C67.4367 84.9317 69.2773 83.5433 70.7688 81.6733C72.226 79.8505 73.3315 77.7725 74.0288 75.5454C74.3796 74.4324 74.6746 73.3114 74.8204 72.1528C74.8514 71.9591 74.8095 71.7607 74.7027 71.5961C74.1912 70.7632 74.1767 69.8932 74.6759 69.0573C74.817 68.8333 74.869 68.5646 74.8217 68.3041C74.8067 68.1988 74.7974 68.091 74.7816 67.9874C74.3317 64.9507 73.224 62.0489 71.5361 59.4848C70.5821 58.027 69.4167 56.7635 67.9435 55.8079C66.2406 54.703 64.3446 54.3181 62.3442 54.2631L62.3412 54.2618ZM77.1397 69.825C77.097 69.2508 76.6363 68.8872 76.0561 68.9559C75.5975 69.0091 75.2117 69.435 75.2782 69.825H77.1397Z" fill="#312F2A"/>
<path d="M95.032 72.2929H94.188V72.0576C94.188 71.2128 94.188 70.3679 94.1829 69.5231C94.1829 69.2797 94.0908 69.0755 93.8487 68.9779C93.6066 68.8803 93.3671 68.9208 93.1778 69.1032C93.0678 69.2089 92.9561 69.3377 92.9071 69.4779C92.8095 69.7558 92.7115 70.0461 92.694 70.3368C92.6561 70.8956 92.6727 71.4579 92.6671 72.0184C92.6671 72.1037 92.6671 72.1855 92.6671 72.2835H91.8457V72.0444C91.8457 71.249 91.8457 70.454 91.8457 69.6574C91.8457 69.2652 91.7204 69.0499 91.4621 68.9723C91.1505 68.879 90.8517 69.0065 90.6497 69.3283C90.4476 69.6501 90.3607 70.0103 90.3466 70.3803C90.3261 70.9344 90.33 71.4886 90.3236 72.0427C90.3236 72.1258 90.3236 72.2094 90.3236 72.3044H89.5137V68.2937H90.3364V68.9515C90.6735 68.4996 91.0299 68.1914 91.5623 68.2029C92.0947 68.2145 92.4574 68.4775 92.6492 69.0128C92.7008 68.94 92.7388 68.885 92.7771 68.833C93.0653 68.4229 93.4429 68.1846 93.9608 68.2042C94.515 68.2255 94.9212 68.5947 94.9958 69.148C95.0069 69.2311 95.0244 69.3134 95.0384 69.3961L95.032 72.2929Z" fill="#312F2A"/>
<path d="M81.4609 70.3033C81.4801 69.3331 81.9494 68.6025 82.7013 68.3335C84.0227 67.8595 85.3139 68.7436 85.3625 70.1502C85.3838 70.773 85.2393 71.3395 84.8015 71.7939C84.2129 72.4043 83.4827 72.493 82.721 72.238C81.9665 71.9861 81.599 71.3898 81.4848 70.6242C81.4678 70.5053 81.4669 70.3838 81.4609 70.3033ZM82.2653 70.3067C82.3637 70.5995 82.4204 70.906 82.5637 71.1643C82.9047 71.779 83.7683 71.8165 84.1979 71.2594C84.5973 70.7415 84.6144 69.9141 84.2363 69.3808C83.7909 68.7525 82.8808 68.7964 82.5313 69.481C82.4038 69.7261 82.3569 70.0117 82.2653 70.3067V70.3067Z" fill="#312F2A"/>
<path d="M79.2304 69.0125H78.7266V68.2879L79.2274 68.2645C79.2274 68.1442 79.2227 68.033 79.2274 67.9234C79.27 67.0539 79.8165 66.5718 80.6822 66.6378C81.1972 66.6771 81.2236 66.712 81.1051 67.2014C81.0851 67.2836 81.065 67.3659 81.0416 67.4631C80.7581 67.3778 80.4648 67.2704 80.2172 67.498C79.9947 67.7026 80.0467 67.9899 80.0399 68.2824H80.9116V69.004H80.045V72.308H79.2304V69.0125Z" fill="#312F2A"/>
<path d="M86.9776 72.2867H86.1797V68.2922H86.9704V68.9239C87.0531 68.825 87.0983 68.7679 87.1464 68.7133C87.5062 68.3007 87.9444 68.1191 88.4943 68.2389C88.6311 68.2688 88.6648 68.3293 88.6371 68.4601C88.5945 68.6451 88.5646 68.8327 88.5271 69.0318C88.2313 68.9363 87.9465 68.8898 87.6746 69.0535C87.3792 69.2325 87.2014 69.5121 87.1204 69.8327C87.0419 70.1556 86.9952 70.4854 86.9811 70.8174C86.961 71.2977 86.9776 71.7803 86.9776 72.2867Z" fill="#312F2A"/>
<path d="M70.7478 71.9277V73.9311H69.9473V68.2866H70.7371V68.6276C71.0129 68.4997 71.2691 68.3168 71.5513 68.2559C72.4954 68.0513 73.278 68.559 73.5176 69.4972C73.658 70.0363 73.6521 70.603 73.5005 71.1391C73.1595 72.3603 71.7904 72.7649 70.8151 71.9405C70.8049 71.9341 70.7883 71.9358 70.7478 71.9277ZM70.7269 70.2985C70.7188 70.5995 70.7716 70.9115 70.949 71.1903C71.0296 71.3228 71.1425 71.4329 71.277 71.5103C71.4115 71.5877 71.5634 71.6299 71.7186 71.6331C71.8737 71.6362 72.0272 71.6001 72.1647 71.5281C72.3022 71.4561 72.4193 71.3506 72.5052 71.2214C72.8356 70.735 72.8373 69.8394 72.5086 69.3573C72.125 68.7964 71.3859 68.7832 70.9848 69.3284C70.7763 69.611 70.7235 69.9345 70.7269 70.2985Z" fill="#312F2A"/>
<path d="M66.8457 71.2218C66.9028 71.1089 66.9425 71.036 66.9774 70.9605C67.3611 70.1229 67.7515 69.2866 68.1283 68.4456C68.188 68.3139 68.2588 68.2661 68.4003 68.2725C68.6386 68.2836 68.8773 68.2759 69.1428 68.2759C69.1036 68.3736 69.0802 68.4392 69.0512 68.5023C68.2515 70.25 67.453 71.9983 66.6556 73.7474C66.5844 73.9043 66.5026 73.9576 66.3368 73.9469C66.1121 73.9328 65.8862 73.9435 65.6271 73.9435C65.6744 73.8335 65.7085 73.7508 65.7456 73.6698C65.9284 73.2696 66.1211 72.874 66.2895 72.4678C66.3321 72.3534 66.3321 72.2275 66.2895 72.1131C65.778 70.9119 65.2579 69.7158 64.74 68.5181C64.7097 68.4477 64.6837 68.3761 64.6445 68.2768C64.9429 68.2768 65.2098 68.2657 65.4766 68.2853C65.538 68.29 65.6126 68.3923 65.645 68.4656C66.0184 69.3181 66.3849 70.1707 66.7532 71.0232C66.7788 71.0743 66.8022 71.1255 66.8457 71.2218Z" fill="#312F2A"/>
<path d="M61.8827 67.5296H60.1406V66.7197H64.4642V67.5254H62.7472V67.805C62.7472 69.2325 62.7434 70.6609 62.7519 72.088C62.7519 72.2803 62.6956 72.337 62.5106 72.3229C62.3077 72.3071 62.1031 72.3191 61.8827 72.3191V67.5296Z" fill="#312F2A"/>
<defs>
<filter id="filter0_d" x="26" y="26" width="88" height="88" filterUnits="userSpaceOnUse" color-interpolation-filters="sRGB">
<feFlood flood-opacity="0" result="BackgroundImageFix"/>
<feColorMatrix in="SourceAlpha" type="matrix" values="0 0 0 0 0 0 0 0 0 0 0 0 0 0 0 0 0 0 127 0"/>
<feOffset/>
<feGaussianBlur stdDeviation="2"/>
<feColorMatrix type="matrix" values="0 0 0 0 0 0 0 0 0 0 0 0 0 0 0 0 0 0 0.4 0"/>
<feBlend mode="normal" in2="BackgroundImageFix" result="effect1_dropShadow"/>
<feBlend mode="normal" in="SourceGraphic" in2="effect1_dropShadow" result="shape"/>
</filter>
</defs>
</svg>
