<svg width="140" height="140" viewBox="0 0 140 140" fill="none" xmlns="http://www.w3.org/2000/svg">
<rect opacity="0.01" width="140" height="140" fill="#0D0D0E"/>
<g filter="url(#filter0_d)">
<rect x="30" y="30" width="80" height="80" rx="12" fill="#FF5065"/>
<rect x="46" y="46" width="48" height="48" fill="#590000" fill-opacity="0.01"/>
</g>
<g clip-path="url(#clip0)">
<path d="M69.8 90C69.8 87.9452 69.7442 86.2783 69.8203 84.6242C69.8634 83.6739 69.5311 83.3528 68.623 83.2835C66.5684 83.1294 64.4961 83.0267 62.477 82.6311C57.7793 81.7424 54.776 78.9454 53.8045 74.1322C52.7413 68.9324 52.7318 63.5681 53.7766 58.3645C54.776 53.315 57.9441 50.4922 62.8498 49.6524C68.0092 48.7688 73.1965 48.7072 78.3228 49.9375C82.2875 50.8929 84.961 53.4357 85.935 57.5066C87.2642 63.0647 87.4012 68.7282 86.0517 74.2554C84.4892 80.6534 80.2481 85.0429 74.5484 88.0043C73.1153 88.7517 71.5654 89.268 69.8 90ZM72.33 66.0989C70.7031 65.8054 69.0258 65.8163 67.4041 66.1375C66.4533 66.3259 65.5132 66.536 64.6026 66.8429C63.0807 67.3566 62.652 68.5715 63.0807 70.1434C63.8594 72.9199 66.6318 74.9849 69.6605 75.0439C72.9174 75.1056 75.8167 73.2255 76.7375 70.4541C77.3361 68.6562 76.877 67.3463 75.0938 66.7607C74.2053 66.4622 73.2798 66.2703 72.33 66.0989ZM66.8906 59.9826C66.8855 60.3991 66.9621 60.8124 67.1158 61.1987C67.2694 61.585 67.4972 61.9366 67.7859 62.2333C68.0746 62.5299 68.4185 62.7656 68.7978 62.9269C69.177 63.0881 69.584 63.1716 69.9953 63.1726C70.413 63.1684 70.8258 63.0809 71.2102 62.9152C71.5945 62.7494 71.9428 62.5086 72.2352 62.2066C72.5276 61.9045 72.7585 61.5471 72.9145 61.1547C73.0705 60.7623 73.1486 60.3427 73.1445 59.9197C73.1403 59.4967 73.0539 59.0787 72.8902 58.6896C72.7265 58.3004 72.4887 57.9477 72.1904 57.6516C71.8921 57.3555 71.5391 57.1218 71.1516 56.9639C70.7641 56.8059 70.3496 56.7268 69.9319 56.731C69.5212 56.742 69.1168 56.8348 68.7416 57.0042C68.3664 57.1736 68.0279 57.4163 67.7454 57.7183C67.463 58.0203 67.2421 58.3757 67.0954 58.7643C66.9487 59.1528 66.8791 59.5668 66.8906 59.9826Z" fill="white"/>
</g>
<defs>
<filter id="filter0_d" x="26" y="26" width="88" height="88" filterUnits="userSpaceOnUse" color-interpolation-filters="sRGB">
<feFlood flood-opacity="0" result="BackgroundImageFix"/>
<feColorMatrix in="SourceAlpha" type="matrix" values="0 0 0 0 0 0 0 0 0 0 0 0 0 0 0 0 0 0 127 0"/>
<feOffset/>
<feGaussianBlur stdDeviation="2"/>
<feColorMatrix type="matrix" values="0 0 0 0 0 0 0 0 0 0 0 0 0 0 0 0 0 0 0.4 0"/>
<feBlend mode="normal" in2="BackgroundImageFix" result="effect1_dropShadow"/>
<feBlend mode="normal" in="SourceGraphic" in2="effect1_dropShadow" result="shape"/>
</filter>
<clipPath id="clip0">
<rect width="34" height="41" fill="white" transform="translate(53 49)"/>
</clipPath>
</defs>
</svg>
