<svg width="140" height="140" viewBox="0 0 140 140" fill="none" xmlns="http://www.w3.org/2000/svg">
<rect opacity="0.01" width="140" height="140" fill="#0F0E10"/>
<rect x="31" y="30" width="80" height="80" rx="12" fill="#330000"/>
<rect x="47" y="46" width="48" height="48" fill="#590000" fill-opacity="0.01"/>
<g clip-path="url(#clip0)">
<path d="M64.7171 57.1272C65.7933 57.1272 66.8688 57.1369 67.945 57.1217C68.2367 57.1175 68.3743 57.215 68.4724 57.4912C70.8808 64.278 73.2952 71.0623 75.7155 77.8442C76.4938 80.0297 77.2721 82.215 78.0505 84.4001C78.2332 84.9126 78.1723 84.9956 77.612 84.9956H72.5881C72.1064 84.9956 72.0364 84.9465 71.8829 84.5019C71.2209 82.5859 70.5546 80.6712 69.9024 78.7522C69.8104 78.482 69.6843 78.3839 69.3871 78.3851C66.3225 78.3972 63.2571 78.3972 60.1909 78.3851C59.862 78.3851 59.7177 78.4772 59.6172 78.7946C59.0252 80.6839 58.407 82.5617 57.7956 84.4395C57.6305 84.9471 57.5562 84.9992 57.0093 84.9992H52.5342C51.9952 84.9992 51.9039 84.8744 52.0842 84.3577C53.3022 80.8622 54.5219 77.3672 55.7432 73.8729C57.0741 70.0636 58.4046 66.2545 59.7347 62.4456C60.077 61.4649 60.446 60.4902 60.7244 59.4914C60.9004 58.859 60.9461 58.1872 61.0197 57.53C61.0599 57.1702 61.066 57.1284 61.429 57.1278C62.5253 57.1266 63.6213 57.1264 64.7171 57.1272ZM64.7037 61.9531L64.627 61.9477C64.5527 62.2554 64.4936 62.5667 64.4017 62.869C63.4089 66.1461 62.4124 69.4221 61.412 72.6972C61.2975 73.0727 61.3036 73.0994 61.6878 73.0994C63.7179 73.0994 65.746 73.0994 67.772 73.0994C67.902 73.0902 68.0313 73.072 68.1587 73.0449C66.9985 69.3183 65.8511 65.6354 64.7037 61.9531Z" fill="#FF9A00"/>
<path d="M86.9183 74.4572C86.9183 77.7884 86.9183 81.12 86.9183 84.452C86.9183 84.9868 86.9024 85.0026 86.3756 85.0026C84.7727 85.0026 83.1689 85.0026 81.5643 85.0026C81.1417 85.0026 81.0625 84.9257 81.0625 84.5119C81.0625 77.7902 81.0625 71.0683 81.0625 64.3462C81.0625 63.9476 81.1106 63.8979 81.5235 63.8973C83.1675 63.8949 84.8118 63.8949 86.4566 63.8973C86.8744 63.8973 86.9183 63.947 86.9183 64.3777C86.9187 67.7371 86.9187 71.097 86.9183 74.4572Z" fill="#FF9A00"/>
<path d="M87.2873 58.2561C87.389 59.8535 86.1332 61.5926 84.0314 61.5611C82.0673 61.532 80.7567 60.1945 80.7598 58.1647C80.7598 56.3608 82.1946 55.0269 84.0875 55.0009C86.3232 54.97 87.3902 56.76 87.2873 58.2561Z" fill="#FF9A00"/>
</g>
<defs>
<clipPath id="clip0">
<rect width="35.2941" height="30" fill="white" transform="translate(52 55)"/>
</clipPath>
</defs>
</svg>
