<svg width="140" height="140" viewBox="0 0 140 140" fill="none" xmlns="http://www.w3.org/2000/svg">
<rect opacity="0.01" width="140" height="140" fill="#0D0D0E"/>
<g filter="url(#filter0_d)">
<rect x="30" y="30" width="80" height="80" rx="12" fill="#FFD600"/>
</g>
<rect x="46" y="46" width="48" height="48" fill="#590000" fill-opacity="0.01"/>
<g clip-path="url(#clip0)">
<path d="M70.0349 81.9961C67.0082 81.9961 63.9815 81.9961 60.9547 81.9961C57.8094 82.0125 54.7666 80.9109 52.4003 78.899C50.0339 76.8871 48.5076 74.104 48.1093 71.0747C47.2686 64.9368 51.3578 59.0162 57.6029 57.4202C58.6598 57.1579 59.7464 57.0247 60.8373 57.0235C66.9978 56.987 73.1504 56.9992 79.3109 57.0068C84.5821 57.0068 89.4291 60.3508 91.2326 65.2149C93.0674 70.1581 91.5661 75.7032 87.5113 79.0062C85.058 81.002 82.2463 82.0204 79.0385 82.0052C76.0326 81.9855 73.0346 81.9961 70.0349 81.9961ZM70.0162 80.1113C72.9391 80.1113 75.8604 80.1113 78.7833 80.1113C79.3823 80.1091 79.9805 80.0695 80.5743 79.9927C86.3324 79.257 90.4013 74.3686 90.0193 68.6548C89.6561 63.2647 84.7903 58.8962 79.1355 58.8931C73.0565 58.8931 66.9774 58.8749 60.8999 58.9114C59.9107 58.9226 58.9271 59.0585 57.9739 59.3157C52.8169 60.6898 49.3978 65.5113 50.0647 70.6931C50.7755 76.2337 55.3735 80.1037 61.0158 80.1037L70.0162 80.1113Z" fill="#043241"/>
<path d="M80.21 72.0177C81.0648 69.537 81.846 67.263 82.6351 64.9906C83.0061 63.9266 83.4914 63.5526 84.1724 63.7882C84.8926 64.036 85.0178 64.5695 84.6264 65.6305C83.5827 68.4608 82.539 71.2927 81.4953 74.126C81.2652 74.7598 80.9944 75.304 80.1787 75.304C79.363 75.304 79.0828 74.7629 78.8683 74.123C78.1591 72.039 77.4311 69.9596 76.6953 67.8787C76.6499 67.7479 76.5732 67.6278 76.4355 67.3497C75.8906 68.8971 75.3975 70.297 74.9028 71.6985C74.5897 72.6105 74.2672 73.5225 73.9415 74.4224C73.7552 74.9438 73.4092 75.2721 72.8018 75.3025C72.1615 75.3344 71.7513 75.0335 71.5493 74.4802C70.394 71.3661 69.2459 68.249 68.1051 65.1289C67.8703 64.4829 68.1427 64.0406 68.7627 63.7958C69.3325 63.5709 69.9243 63.8551 70.1717 64.53C70.7212 66.0303 71.2284 67.5442 71.7513 69.0536C72.0801 70.0037 72.4041 70.9567 72.7799 72.0481C73.4499 70.0721 74.0762 68.2343 74.7008 66.3936C74.8965 65.819 75.0875 65.2414 75.2895 64.6683C75.4914 64.0953 75.8045 63.6849 76.5122 63.697C77.2198 63.7092 77.5126 64.1409 77.7036 64.7079C78.4425 66.8906 79.182 69.0724 79.9219 71.2531C79.983 71.4401 80.0597 71.6225 80.21 72.0177Z" fill="#043241"/>
<path d="M54.4824 69.5251C54.4824 66.0518 57.2879 63.3704 60.9184 63.375C62.5919 63.4069 64.1853 64.0767 65.3544 65.2397C66.5235 66.4028 67.1745 67.9656 67.1666 69.5908C67.1588 71.2159 66.4929 72.7728 65.3127 73.9252C64.1324 75.0775 62.5327 75.7329 60.8589 75.7496C57.2722 75.7405 54.484 73.0181 54.4824 69.5251ZM60.8699 65.2614C59.6982 65.2577 58.5727 65.7047 57.7395 66.5045C56.9063 67.3044 56.4332 68.392 56.4237 69.5296C56.4143 71.8598 58.3744 73.8207 60.7431 73.8496C61.9161 73.8659 63.0477 73.4291 63.889 72.6354C64.7303 71.8416 65.2124 70.7559 65.2292 69.617C65.246 68.4782 64.7962 67.3795 63.9787 66.5626C63.1611 65.7458 62.0429 65.2777 60.8699 65.2614Z" fill="#043241"/>
</g>
<defs>
<filter id="filter0_d" x="26" y="26" width="88" height="88" filterUnits="userSpaceOnUse" color-interpolation-filters="sRGB">
<feFlood flood-opacity="0" result="BackgroundImageFix"/>
<feColorMatrix in="SourceAlpha" type="matrix" values="0 0 0 0 0 0 0 0 0 0 0 0 0 0 0 0 0 0 127 0"/>
<feOffset/>
<feGaussianBlur stdDeviation="2"/>
<feColorMatrix type="matrix" values="0 0 0 0 0 0 0 0 0 0 0 0 0 0 0 0 0 0 0.4 0"/>
<feBlend mode="normal" in2="BackgroundImageFix" result="effect1_dropShadow"/>
<feBlend mode="normal" in="SourceGraphic" in2="effect1_dropShadow" result="shape"/>
</filter>
<clipPath id="clip0">
<rect width="44" height="25" fill="white" transform="translate(48 57)"/>
</clipPath>
</defs>
</svg>
