<svg width="140" height="140" viewBox="0 0 140 140" fill="none" xmlns="http://www.w3.org/2000/svg">
<rect opacity="0.01" width="140" height="140" fill="#0D0D0E"/>
<g filter="url(#filter0_d)">
<rect x="30" y="30" width="80" height="80" rx="12" fill="white"/>
<rect x="46" y="46" width="48" height="48" fill="#590000" fill-opacity="0.01"/>
</g>
<g clip-path="url(#clip0)">
<path d="M89.9215 87.4195C89.9303 87.3581 89.9434 87.2966 89.9522 87.2352C89.9654 87.1123 89.9961 86.9894 89.9961 86.8709C90.0005 84.194 89.9961 81.5171 89.9961 78.8358C89.9961 78.6384 89.9917 78.4409 89.9873 78.2434C89.9873 77.572 89.9873 76.9006 89.9873 76.2248C89.9917 76.1502 89.9961 76.0799 89.9961 76.0053C89.9961 68.5056 89.9961 61.0059 89.9961 53.5062C89.9961 53.3745 89.9917 53.2429 89.9873 53.1112C89.9785 53.0454 89.9698 52.9752 89.961 52.9093C89.9654 52.905 89.9698 52.8962 89.9698 52.8918C89.9698 52.8786 89.9654 52.8655 89.961 52.8523C89.961 52.8391 89.9654 52.8216 89.9654 52.8084C89.8074 51.312 88.5216 50.0174 86.8452 50.0042C84.3965 49.9867 81.9478 49.9999 79.4991 49.9999C79.0471 49.9999 78.6039 50.0876 78.1914 50.2851C77.1075 50.8029 76.5062 51.6762 76.3175 52.8479C76.3132 53.0234 76.3088 53.199 76.3088 53.3745C76.3088 56.3718 76.3088 59.369 76.3088 62.3619C76.3088 62.4497 76.3044 62.5374 76.3 62.6252C72.8025 62.6252 69.3049 62.6252 65.8074 62.6252C64.1135 62.6252 62.7882 63.832 62.6346 65.5215C62.6302 65.6181 62.6258 65.7102 62.6258 65.8068C62.6258 69.3043 62.6214 72.8018 62.6214 76.3037C62.5337 76.3037 62.4459 76.3081 62.3581 76.3081C59.2994 76.3081 56.2407 76.3125 53.182 76.3081C52.4711 76.3081 51.8304 76.5012 51.2643 76.9269C50.5929 77.4316 50.1628 78.0986 50.0488 78.9455C50.0444 78.9894 50.04 79.0333 50.0356 79.0728C50.0268 79.1035 50.0224 79.1342 50.0136 79.165C50.0049 79.2966 49.9961 79.4239 49.9961 79.5555C49.9961 81.4206 49.9917 83.2856 49.9961 85.1551C49.9961 85.7475 50.0005 86.3356 50.0049 86.928C50.0136 86.9807 50.0224 87.0333 50.0356 87.086C50.0312 87.1035 50.0312 87.1211 50.0268 87.1386C50.0575 87.3186 50.0707 87.4985 50.119 87.674C50.5183 89.0695 51.7558 89.9955 53.2303 89.9955C60.8573 89.9955 68.4843 89.9955 76.1113 89.9955C76.1771 89.9955 76.2429 89.9911 76.3088 89.9867C76.3526 89.9911 76.3965 89.9955 76.4404 89.9955C79.9028 89.9955 83.3697 89.9955 86.8321 89.9867C87.1261 89.9867 87.4289 89.9428 87.7098 89.8506C88.9078 89.4601 89.6626 88.657 89.9259 87.4107C89.9303 87.4151 89.9215 87.4195 89.9215 87.4195Z" fill="white"/>
<path d="M62.6301 76.3128C62.6301 72.8153 62.6301 69.3178 62.6345 65.8158C62.6345 65.7193 62.6389 65.6271 62.6433 65.5306C62.674 65.4911 62.7223 65.456 62.731 65.4121C62.8627 64.8153 63.1392 64.3019 63.5692 63.8586C64.166 63.2399 64.8857 62.902 65.7415 62.8976C69.2653 62.8888 72.7892 62.8932 76.313 62.8932C76.313 62.9678 76.3174 63.038 76.3174 63.1126C76.3174 67.106 76.3174 71.1038 76.3174 75.0972C76.3174 79.9771 76.3174 84.8526 76.3218 89.7325L76.313 89.7281C71.2269 89.7281 66.1408 89.7281 61.0547 89.7281C61.0547 85.3441 61.0547 80.9601 61.0547 76.5761C61.5725 76.5761 62.0947 76.5761 62.6301 76.5761C62.6301 76.4664 62.6301 76.3874 62.6301 76.3128Z" fill="#F5CA15"/>
<path d="M89.9922 53.1201C89.9966 53.2518 90.001 53.3834 90.001 53.5151C90.001 61.0148 90.001 68.5146 90.001 76.0143C90.001 76.0889 89.9966 76.1591 89.9922 76.2337C89.9176 76.1942 89.8298 76.1679 89.7728 76.1108C89.47 75.8036 89.1847 75.4833 88.8775 75.1805C87.7322 74.0439 86.578 72.9161 85.4327 71.7795C84.3487 70.7043 83.2736 69.6204 82.194 68.5409C82.137 68.4838 82.0756 68.4356 82.0141 68.3829C81.9615 68.3215 81.9132 68.26 81.8561 68.203C81.29 67.6325 80.7152 67.0708 80.1535 66.4959C79.9472 66.2853 79.7585 66.0571 79.5566 65.8376C79.5698 65.7455 79.6005 65.6577 79.6005 65.5656C79.6005 60.4663 79.6005 55.367 79.6005 50.2721C81.9307 50.2721 84.2566 50.2677 86.5868 50.2765C86.951 50.2765 87.3328 50.3072 87.6839 50.4125C88.7942 50.746 89.5226 51.4921 89.8693 52.6023C89.8956 52.6901 89.9307 52.7735 89.9659 52.8612C89.9702 52.8744 89.9746 52.8876 89.9746 52.9007C89.9746 52.9051 89.9702 52.9139 89.9659 52.9183C89.9746 52.9841 89.9834 53.0499 89.9922 53.1201Z" fill="#E88325"/>
<path d="M61.0543 76.5803C61.0543 80.9643 61.0543 85.3483 61.0543 89.7323C58.4344 89.7323 55.8102 89.7455 53.1903 89.7279C51.9089 89.7192 50.9479 89.1311 50.3598 87.9814C50.2238 87.7137 50.1404 87.4196 50.0307 87.1388C50.0351 87.1212 50.0351 87.1037 50.0395 87.0861C50.0307 87.0335 50.0219 86.9808 50.0088 86.9281C50.0044 86.3401 50 85.7521 50 85.1596C50 83.2946 50 81.4295 50 79.5601C50 79.4284 50.0132 79.3011 50.0176 79.1695C50.0263 79.1388 50.0307 79.1081 50.0395 79.0773C50.0439 79.0334 50.0483 78.9896 50.0527 78.9501C50.079 78.9194 50.1141 78.893 50.1273 78.8579C50.2414 78.6078 50.3247 78.3401 50.4652 78.1075C51.0532 77.1421 51.9353 76.6023 53.0587 76.5891C55.7268 76.5584 58.3906 76.5803 61.0543 76.5803Z" fill="#F7CF11"/>
<path d="M89.9918 78.2484C89.9962 78.4459 90.0006 78.6434 90.0006 78.8409C90.0006 81.5178 90.0006 84.1947 90.0006 86.876C90.0006 86.9988 89.9699 87.1217 89.9567 87.2402C89.9479 87.3016 89.9348 87.3631 89.926 87.4245L89.9304 87.4201C89.9084 87.4552 89.8733 87.486 89.8602 87.5211C89.6539 88.1179 89.3116 88.6225 88.8157 89.0219C88.2496 89.4739 87.6089 89.7328 86.8848 89.7372C83.5804 89.746 80.2759 89.7416 76.9715 89.7416C76.9715 89.0043 76.9539 88.2671 76.9759 87.5255C76.9978 86.7575 77.068 85.9895 77.0988 85.2172C77.1163 84.7301 77.0988 84.2386 77.1075 83.7471C77.1075 83.6198 77.1514 83.4925 77.1777 83.3653C77.1953 83.2687 77.2348 83.1678 77.2348 83.0713C77.2392 82.1936 77.2392 81.3159 77.2348 80.4426C77.2348 80.2188 77.3094 80.0389 77.4718 79.8765C78.0993 79.2578 78.7225 78.6258 79.35 78.0027C79.4027 77.95 79.4641 77.9018 79.565 77.814C79.5826 77.95 79.6045 78.029 79.6045 78.1124C79.6089 78.9813 79.6045 79.8502 79.6089 80.7191C79.6089 80.8112 79.6616 80.9034 79.6879 80.9999C79.7625 80.9517 79.8503 80.9166 79.9117 80.8551C81.7812 78.9901 83.6462 77.125 85.5113 75.26C85.5683 75.2029 85.6342 75.1502 85.7439 75.0493C85.7439 75.1985 85.7439 75.2731 85.7439 75.3521C85.7439 76.3 85.7439 77.2523 85.7439 78.2002C85.7439 78.4064 85.7088 78.6215 85.8799 78.797C85.9194 78.8409 85.9194 78.933 85.9194 79.0032C85.9106 79.3368 85.8843 79.6703 85.8799 80.0082C85.8711 80.6357 85.8755 81.2632 85.8799 81.8952C85.8799 81.9742 85.9194 82.0575 85.9413 82.1365C86.0203 82.097 86.1125 82.0707 86.1695 82.0093C87.3763 80.8069 88.5788 79.6044 89.7856 78.402C89.847 78.3362 89.926 78.2967 89.9918 78.2484Z" fill="#E58125"/>
<path d="M89.9926 78.2484C89.9224 78.2966 89.8478 78.3405 89.7863 78.3976C88.5795 79.6 87.3771 80.8068 86.1703 82.0048C86.1089 82.0662 86.0167 82.0882 85.9421 82.1321C85.9202 82.0531 85.8807 81.9697 85.8807 81.8907C85.8763 81.2632 85.8719 80.6356 85.8807 80.0037C85.8851 79.6702 85.9114 79.3367 85.9202 78.9988C85.9202 78.9286 85.9246 78.832 85.8807 78.7925C85.7095 78.617 85.7446 78.402 85.7446 78.1957C85.7446 77.2478 85.7446 76.2955 85.7446 75.3477C85.7446 75.2687 85.7446 75.1941 85.7446 75.0449C85.6349 75.1458 85.5691 75.1984 85.5121 75.2555C83.647 77.1206 81.7819 78.9856 79.9125 80.8507C79.8511 80.9121 79.7633 80.9472 79.6887 80.9955C79.6624 80.9033 79.6097 80.8112 79.6097 80.7146C79.6053 79.8457 79.6053 78.9768 79.6053 78.1079C79.6053 78.0289 79.5834 77.9456 79.5658 77.8095C79.4649 77.8973 79.4034 77.9456 79.3508 77.9982C78.7232 78.6214 78.1045 79.2489 77.4726 79.8721C77.3102 80.03 77.2356 80.2144 77.2356 80.4382C77.24 81.3158 77.24 82.1935 77.2356 83.0668C77.2356 83.1633 77.2005 83.2643 77.1785 83.3608C77.1522 83.4881 77.1127 83.6153 77.1083 83.7426C77.0996 84.2341 77.1215 84.7212 77.0996 85.2127C77.0688 85.9807 76.9986 86.7486 76.9767 87.521C76.9547 88.2582 76.9723 88.9955 76.9723 89.7371C76.8845 89.7371 76.7968 89.7371 76.709 89.7371C76.7221 88.7015 76.7265 87.6658 76.7573 86.6302C76.7924 85.3575 76.7178 84.0849 76.8231 82.8079C76.9328 81.5309 76.8933 80.2451 76.9284 78.9637C76.9635 77.8578 77.0206 76.7563 77.0557 75.6504C77.082 74.8474 77.0908 74.0487 77.0996 73.2456C77.1039 73.0043 77.0864 72.7673 77.2224 72.5479C77.2707 72.4689 77.2751 72.3504 77.2751 72.2495C77.2795 71.7667 77.2663 71.284 77.2839 70.8057C77.2883 70.674 77.3365 70.5073 77.4287 70.4151C78.0518 69.77 78.6925 69.1381 79.3332 68.5062C79.3727 68.4667 79.4473 68.4579 79.5044 68.436C79.5219 68.493 79.557 68.5501 79.557 68.6071C79.5614 69.0811 79.5614 69.555 79.5614 70.0333C79.5614 70.2484 79.5614 70.4678 79.5614 70.6828C79.579 70.7004 79.6009 70.7179 79.6185 70.7355C79.7062 70.6828 79.8116 70.6477 79.8862 70.5775C80.5225 69.95 81.15 69.3224 81.7776 68.6905C81.8697 68.5983 81.9399 68.4886 82.0189 68.3877C82.0803 68.4404 82.1418 68.4886 82.1988 68.5457C83.2784 69.6252 84.3579 70.7091 85.4375 71.7843C86.5828 72.9209 87.737 74.0487 88.8823 75.1853C89.1895 75.4881 89.4748 75.8084 89.7776 76.1156C89.8346 76.1727 89.9224 76.199 89.997 76.2385C89.9926 76.9011 89.9926 77.5726 89.9926 78.2484Z" fill="#E47E26"/>
<path d="M79.6043 50.2675C79.6043 55.3668 79.6043 60.466 79.6043 65.5609C79.6043 65.6531 79.5779 65.7409 79.5604 65.833C79.4989 65.7804 79.4375 65.7321 79.3805 65.675C78.6827 64.9773 77.9893 64.2839 77.2916 63.5862C76.9712 63.2658 76.6465 62.9542 76.3261 62.6339L76.3086 62.6295C76.313 62.5417 76.3174 62.454 76.3174 62.3662C76.3174 59.3689 76.3174 56.3717 76.3174 53.3788C76.3174 53.2033 76.3218 53.0278 76.3261 52.8522C76.3613 52.7952 76.4095 52.7425 76.4227 52.6811C76.7825 51.268 78.1078 50.2324 79.6043 50.2675Z" fill="#E88725"/>
<path d="M50.0273 87.1436C50.1371 87.4244 50.2204 87.7184 50.3565 87.9861C50.9445 89.1315 51.9056 89.7239 53.187 89.7327C55.8068 89.7502 58.4311 89.7371 61.0509 89.7371C66.1371 89.7371 71.2232 89.7371 76.3093 89.7371C76.3093 89.8248 76.3137 89.9126 76.3137 89.996C76.2479 90.0004 76.182 90.0048 76.1162 90.0048C68.4892 90.0048 60.8622 90.0048 53.2352 90.0048C51.7564 90.0048 50.5232 89.0788 50.1239 87.6833C50.0756 87.5034 50.0581 87.3191 50.0273 87.1436Z" fill="#E9B322"/>
<path d="M76.3084 62.8976C72.7846 62.8976 69.2607 62.8932 65.7369 62.902C64.8811 62.9064 64.1658 63.2443 63.5646 63.863C63.1346 64.3063 62.8581 64.8197 62.7264 65.4165C62.7177 65.4604 62.6694 65.4955 62.6387 65.535C62.7967 63.8455 64.1176 62.6387 65.8115 62.6387C69.309 62.6387 72.8065 62.6387 76.3041 62.6387L76.3216 62.6431C76.3216 62.7264 76.3128 62.8098 76.3084 62.8976Z" fill="#F7D431"/>
<path d="M79.6048 50.2678C78.1083 50.2283 76.7787 51.2684 76.4188 52.6814C76.4013 52.7429 76.353 52.7955 76.3223 52.8526C76.511 51.6809 77.1122 50.8076 78.1961 50.2898C78.6086 50.0923 79.0474 50.0045 79.5038 50.0045C81.9525 50.0001 84.4013 49.987 86.85 50.0089C88.5263 50.0221 89.8121 51.321 89.9701 52.8131C89.9701 52.8262 89.9701 52.8438 89.9657 52.857C89.935 52.7692 89.8999 52.6858 89.8692 52.598C89.5225 51.4878 88.794 50.7461 87.6838 50.4082C87.3371 50.3029 86.9553 50.2722 86.5867 50.2722C84.2652 50.2634 81.935 50.2678 79.6048 50.2678Z" fill="#ED9C26"/>
<path d="M76.313 89.991C76.313 89.9032 76.3086 89.8155 76.3086 89.7321L76.3174 89.7365C76.449 89.7365 76.5807 89.7365 76.7123 89.7365C76.8001 89.7365 76.8879 89.7365 76.9756 89.7365C80.2801 89.7365 83.5845 89.7409 86.889 89.7321C87.6086 89.7321 88.2537 89.4732 88.8198 89.0168C89.3157 88.6175 89.658 88.1172 89.8643 87.516C89.8774 87.4809 89.9082 87.4501 89.9345 87.415C89.6712 88.6613 88.9164 89.4688 87.7184 89.855C87.4419 89.9471 87.1347 89.9866 86.8407 89.991C83.3783 89.9998 79.9114 89.9998 76.449 89.9998C76.4008 89.9998 76.3569 89.9954 76.313 89.991Z" fill="#DC7527"/>
<path d="M61.0539 76.5807C58.3902 76.5807 55.7264 76.5587 53.0627 76.5895C51.9393 76.6026 51.0616 77.1424 50.4691 78.1078C50.3287 78.3404 50.2453 78.6081 50.1312 78.8582C50.1137 78.8933 50.083 78.9197 50.0566 78.9504C50.1707 78.1034 50.6008 77.4408 51.2722 76.9317C51.8383 76.5061 52.4834 76.313 53.1899 76.313C56.2486 76.3174 59.3073 76.313 62.366 76.313C62.4538 76.313 62.5416 76.3086 62.6293 76.3086C62.6293 76.3876 62.6293 76.4666 62.6293 76.5763C62.0896 76.5807 61.5717 76.5807 61.0539 76.5807Z" fill="#F8D846"/>
<path d="M89.9219 87.4197C89.9307 87.3582 89.9438 87.2968 89.9526 87.2354C89.9438 87.2968 89.935 87.3582 89.9219 87.4197Z" fill="#DC7527"/>
<path d="M50.0395 79.0771C50.0307 79.1079 50.0264 79.1386 50.0176 79.1693C50.0264 79.1386 50.0351 79.1079 50.0395 79.0771Z" fill="#F8D846"/>
<path d="M89.9931 53.1203C89.9843 53.0545 89.9756 52.9843 89.9668 52.9185C89.9756 52.9843 89.9843 53.0501 89.9931 53.1203Z" fill="#ED9C26"/>
<path d="M50.0098 86.9326C50.0185 86.9853 50.0273 87.0379 50.0405 87.0906C50.0273 87.0336 50.0185 86.9809 50.0098 86.9326Z" fill="#E9B322"/>
<path d="M76.7123 89.7369C76.5807 89.7369 76.449 89.7369 76.3174 89.7369C76.3174 84.857 76.3174 79.9815 76.313 75.1016C76.313 71.1082 76.313 67.1104 76.313 63.117C76.313 63.0424 76.3086 62.9722 76.3086 62.8976C76.313 62.8098 76.3174 62.7264 76.3261 62.6387C76.6465 62.9546 76.9712 63.2706 77.2916 63.5909C77.9893 64.2843 78.6827 64.9821 79.3805 65.6798C79.4375 65.7369 79.4989 65.7851 79.5604 65.8378C79.7579 66.0572 79.9466 66.2854 80.1572 66.496C80.7233 67.0665 81.2938 67.6326 81.8599 68.2031C81.9169 68.2602 81.9652 68.3216 82.0179 68.383C81.9389 68.484 81.8687 68.5937 81.7765 68.6858C81.149 69.3178 80.5214 69.9497 79.8851 70.5728C79.8149 70.6431 79.7096 70.6782 79.6174 70.7308C79.5999 70.7133 79.5779 70.6957 79.5604 70.6782C79.5604 70.4631 79.5604 70.2437 79.5604 70.0287C79.5604 69.5547 79.5604 69.0808 79.556 68.6025C79.556 68.5454 79.5209 68.4884 79.5033 68.4313C79.4463 68.4533 79.3717 68.462 79.3322 68.5015C78.6959 69.1335 78.0552 69.7654 77.4276 70.4105C77.3399 70.5026 77.2872 70.6694 77.2828 70.801C77.2653 71.2838 77.2784 71.7665 77.274 72.2448C77.274 72.3457 77.2696 72.4598 77.2214 72.5432C77.0897 72.767 77.1029 73.004 77.0985 73.241C77.0853 74.044 77.0809 74.8427 77.0546 75.6458C77.0195 76.7517 76.9625 77.8532 76.9274 78.959C76.8879 80.2404 76.9274 81.5262 76.822 82.8032C76.7123 84.0803 76.7869 85.3529 76.7562 86.6255C76.7299 87.6655 76.7255 88.7012 76.7123 89.7369Z" fill="#DE7926"/>
</g>
<defs>
<filter id="filter0_d" x="26" y="26" width="88" height="88" filterUnits="userSpaceOnUse" color-interpolation-filters="sRGB">
<feFlood flood-opacity="0" result="BackgroundImageFix"/>
<feColorMatrix in="SourceAlpha" type="matrix" values="0 0 0 0 0 0 0 0 0 0 0 0 0 0 0 0 0 0 127 0"/>
<feOffset/>
<feGaussianBlur stdDeviation="2"/>
<feColorMatrix type="matrix" values="0 0 0 0 0 0 0 0 0 0 0 0 0 0 0 0 0 0 0.4 0"/>
<feBlend mode="normal" in2="BackgroundImageFix" result="effect1_dropShadow"/>
<feBlend mode="normal" in="SourceGraphic" in2="effect1_dropShadow" result="shape"/>
</filter>
<clipPath id="clip0">
<rect width="40" height="40" fill="white" transform="translate(50 50)"/>
</clipPath>
</defs>
</svg>
