<svg width="140" height="140" viewBox="0 0 140 140" fill="none" xmlns="http://www.w3.org/2000/svg">
<rect x="30" y="30" width="80" height="80" rx="12" fill="#E84C3D"/>
<rect x="46" y="46" width="48" height="48" fill="#590000" fill-opacity="0.01"/>
<path d="M49.1384 67.3625C49.8632 67.2074 50.5406 67.0212 51.2302 66.9266C51.9517 66.8296 52.6855 66.9313 53.3555 67.2212C54.3615 67.6505 54.8469 68.4935 54.878 69.5473C54.9408 71.6698 54.925 73.7984 54.9408 75.9191C54.9404 75.9793 54.9355 76.0393 54.9262 76.0987C54.844 76.6759 54.6022 76.8998 54.0317 76.9094C53.6108 76.9166 53.1906 76.913 52.7698 76.9094C52.0889 76.9046 51.8148 76.6274 51.8078 75.9233C51.8007 75.2551 51.8078 74.5863 51.8078 73.9181C51.8078 72.8003 51.8078 71.683 51.8078 70.5652C51.8078 69.8395 51.445 69.4449 50.7372 69.506C50.2805 69.5461 49.8345 69.7221 49.3872 69.8443C49.1853 69.8987 49.1378 70.0454 49.1384 70.2532C49.146 72.0889 49.1431 73.9247 49.1431 75.7616C49.1431 75.8814 49.1431 76.0011 49.1343 76.1209C49.0867 76.6172 48.8273 76.8867 48.3378 76.9046C47.8295 76.9226 47.32 76.922 46.8117 76.9046C46.3451 76.8867 46.1174 76.6651 46.0446 76.2011C46.0158 76.0234 46.0009 75.8436 46 75.6634C46 71.6319 46 67.6004 46 63.5688C46 62.5689 46.2277 62.3396 47.2103 62.3408C47.5331 62.3408 47.8559 62.3408 48.1787 62.3408C48.8449 62.3468 49.1313 62.627 49.1348 63.3054C49.1425 64.5723 49.1378 65.8393 49.1384 67.1068V67.3625Z" fill="white"/>
<path d="M60.6182 77.2475C59.9596 77.1241 59.2829 77.0642 58.6472 76.8649C57.4088 76.4775 56.6963 75.5422 56.394 74.2903C56.0424 72.8429 56.0354 71.3307 56.3734 69.8799C56.7338 68.3058 57.6988 67.3455 59.2629 67.0371C60.2813 66.827 61.3329 66.8526 62.3403 67.1119C63.6497 67.4538 64.4937 68.3094 64.8512 69.6183C65.2822 71.1819 65.2877 72.8357 64.867 74.4022C64.4439 76.0093 63.3504 76.8571 61.7727 77.0912C61.3971 77.1469 61.015 77.1547 60.6358 77.1846L60.6182 77.2475ZM59.2254 72.0288L59.3005 72.0348C59.3005 72.3731 59.2888 72.712 59.3052 73.0491C59.3216 73.2375 59.3568 73.4236 59.4103 73.6047C59.5928 74.3172 59.9514 74.6118 60.6258 74.6148C61.3243 74.6178 61.7257 74.3304 61.8807 73.6155C62.1097 72.573 62.1078 71.4916 61.8754 70.4499C61.7193 69.75 61.3266 69.4674 60.6399 69.4668C59.9626 69.4668 59.5658 69.7626 59.4202 70.4661C59.314 70.978 59.2876 71.5073 59.2254 72.0288Z" fill="white"/>
<path d="M85.0864 76.2149C84.1807 76.9538 83.1636 77.1998 82.0501 77.1633C79.8691 77.0927 78.8402 75.4689 79.0708 73.5834C79.2581 72.0554 80.0099 71.3082 81.5829 71.0274C82.4082 70.8813 83.2469 70.8071 84.0815 70.7232C84.3005 70.7017 84.3861 70.6538 84.3832 70.4107C84.3744 69.7287 84.1702 69.4623 83.4905 69.4988C82.7275 69.5401 81.9644 69.6718 81.2014 69.7647C80.9514 69.7958 80.7002 69.8628 80.4519 69.8533C80.0082 69.8347 79.703 69.5695 79.6554 69.1246C79.6244 68.7587 79.6355 68.3904 79.6883 68.0271C79.73 67.6942 79.9583 67.4703 80.2694 67.3763C81.8846 66.8883 83.5216 66.7123 85.1791 67.1218C86.5455 67.4595 87.3208 68.433 87.3461 69.8682C87.3819 71.8513 87.3854 73.8355 87.3983 75.8191C87.4069 75.9788 87.3888 76.1387 87.3449 76.2921C87.2862 76.4532 87.204 76.634 87.0778 76.7358C86.5966 77.1232 85.5395 76.9154 85.2038 76.3921C85.1715 76.343 85.1386 76.2945 85.0864 76.2149ZM84.3768 72.4129C83.7311 72.5476 83.1207 72.6266 82.5426 72.8099C82.117 72.944 81.9198 73.4451 81.9732 73.9475C82.0319 74.4941 82.2878 74.8516 82.7556 74.9378C83.2698 75.033 83.7699 74.9492 84.2095 74.6384C84.2864 74.5839 84.3674 74.4702 84.3697 74.3822C84.3856 73.7672 84.3768 73.1481 84.3768 72.4129Z" fill="white"/>
<path d="M70.2621 67.1795C70.7856 67.1795 71.254 67.1759 71.7224 67.1795C72.3199 67.1855 72.6028 67.4717 72.6157 68.0776C72.6216 68.377 72.6245 68.6764 72.6157 68.9757C72.5957 69.4912 72.3715 69.7541 71.8685 69.7972C71.4313 69.8331 70.9881 69.8283 70.5503 69.8212C70.3343 69.8176 70.2568 69.8888 70.2615 70.1121C70.2697 71.2593 70.2615 72.4065 70.2685 73.5531C70.2738 74.2345 70.6101 74.571 71.2857 74.6045C72.4009 74.6644 72.5024 74.774 72.5054 75.9217C72.5054 76.7001 72.277 77.0336 71.5434 77.1192C70.6477 77.2246 69.7473 77.2025 68.8822 76.8797C67.7864 76.4708 67.2581 75.6062 67.1994 74.4794C67.1255 73.0574 67.1407 71.6294 67.1407 70.2043C67.1407 69.8954 67.055 69.8116 66.7628 69.8212C65.8008 69.8541 65.4873 69.6337 65.5337 68.5782C65.5648 67.883 65.7027 67.6687 66.3701 67.4837C67.1331 67.2729 67.1331 67.2729 67.1331 66.461C67.1331 65.3994 67.2305 65.2635 68.2319 64.9881C68.5981 64.8863 68.9673 64.7732 69.3418 64.7312C69.9516 64.663 70.2521 64.9612 70.2633 65.5928C70.2691 66.1089 70.2621 66.6251 70.2621 67.1795Z" fill="white"/>
<path d="M77.699 73.3369C77.699 75.0523 77.7178 76.7677 77.6919 78.4825C77.6761 79.5411 77.3398 80.4895 76.484 81.1565C75.5619 81.875 74.5037 82.1229 73.3627 81.9433C72.8655 81.8648 72.6484 81.5529 72.6425 81.0451C72.639 80.756 72.636 80.4668 72.6425 80.1776C72.6548 79.7046 72.8685 79.4076 73.328 79.3495C74.4057 79.2142 74.6093 78.7047 74.6052 77.7269C74.5929 74.5757 74.6011 71.4245 74.6023 68.2728C74.6011 68.1435 74.6087 68.0142 74.6252 67.886C74.6839 67.4429 74.9245 67.204 75.3641 67.1896C75.8924 67.1729 76.4206 67.1747 76.9489 67.1896C77.355 67.2016 77.601 67.4291 77.669 67.8387C77.7006 68.0352 77.7161 68.2341 77.7154 68.4332C77.7189 70.0698 77.7189 71.7064 77.7154 73.3429L77.699 73.3369Z" fill="white"/>
<path d="M91.1234 67.8014C91.8417 67.2814 92.6883 66.9766 93.5674 66.9213C93.8397 66.9032 94.1131 66.9191 94.3815 66.9686C94.7489 67.0351 94.9491 67.2596 94.9773 67.641C95.0043 68.0181 95.0043 68.3967 94.9773 68.7738C94.9438 69.2271 94.7237 69.4504 94.2729 69.5151C93.8222 69.5797 93.3831 69.6198 92.9382 69.6707C92.9284 69.6715 92.9186 69.6729 92.9089 69.6749C91.9833 69.8976 91.9698 69.9144 91.9698 70.8724V75.812C91.9698 76.6371 91.7039 76.9125 90.9033 76.9131C90.5024 76.9131 90.101 76.9197 89.7001 76.9101C89.1431 76.8969 88.8432 76.5994 88.842 76.0342C88.8365 73.3698 88.8365 70.7054 88.842 68.0409C88.842 67.4817 89.1355 67.2027 89.6819 67.1841C89.7206 67.1841 89.76 67.1841 89.7993 67.1841C90.6292 67.2051 90.567 67.041 91.1234 67.8014Z" fill="white"/>
<path d="M77.0815 65.6493C77.5698 64.7374 77.7659 63.8693 77.4096 62.9484C77.3586 62.8058 77.278 62.676 77.1734 62.568C77.0687 62.4601 76.9425 62.3764 76.8033 62.3227C77.0181 63.046 77.0515 63.7268 76.3672 64.1644C75.8871 64.4716 75.4515 64.2417 75.0689 63.8417C74.8112 64.4943 74.9051 65.1093 75.1035 65.7254C74.1298 65.7152 73.2212 65.0829 72.8796 64.2046C72.511 63.2573 72.7287 62.3281 73.51 61.5701C73.703 61.3868 73.907 61.2161 74.121 61.0588C75.198 60.2481 75.3647 59.3284 74.6369 58.1908C74.6111 58.1513 74.5923 58.1076 74.5359 58.001C74.7455 58.0339 74.9033 58.0477 75.056 58.0842C76.2862 58.3806 77.4548 58.8111 78.3827 59.7361C79.7532 61.1007 80.2058 64.1165 77.5833 65.4517C77.4489 65.5194 77.3022 65.5631 77.0815 65.6493Z" fill="white"/>
</svg>
