<svg width="140" height="140" viewBox="0 0 140 140" fill="none" xmlns="http://www.w3.org/2000/svg">
<rect opacity="0.01" width="140" height="140" fill="#0B0B0C"/>
<g filter="url(#filter0_d)">
<rect x="30" y="30" width="80" height="80" rx="12" fill="#E84C3D"/>
</g>
<g clip-path="url(#clip0)">
<path d="M48.2665 67.7524C49.0209 67.5908 49.7259 67.3969 50.4437 67.2983C51.1947 67.1973 51.9584 67.3033 52.6557 67.6052C53.7028 68.0524 54.208 68.9305 54.2404 70.0282C54.3058 72.2392 54.2893 74.4564 54.3058 76.6655C54.3053 76.7282 54.3002 76.7907 54.2905 76.8526C54.205 77.4539 53.9533 77.6871 53.3595 77.6971C52.9215 77.7046 52.4841 77.7009 52.0461 77.6971C51.3374 77.6921 51.0521 77.4034 51.0448 76.6699C51.0375 75.9739 51.0448 75.2772 51.0448 74.5812C51.0448 73.4167 51.0448 72.2529 51.0448 71.0885C51.0448 70.3326 50.6673 69.9216 49.9305 69.9852C49.4553 70.027 48.991 70.2103 48.5255 70.3376C48.3153 70.3943 48.2658 70.5471 48.2665 70.7636C48.2744 72.6758 48.2713 74.588 48.2713 76.5015C48.2713 76.6262 48.2713 76.751 48.2622 76.8757C48.2127 77.3928 47.9427 77.6734 47.4332 77.6921C46.9042 77.7108 46.3739 77.7102 45.8449 77.6921C45.3592 77.6734 45.1222 77.4426 45.0464 76.9593C45.0165 76.7741 45.0009 76.5869 45 76.3992C45 72.1997 45 68.0002 45 63.8007C45 62.7591 45.237 62.5202 46.2597 62.5215C46.5957 62.5215 46.9317 62.5215 47.2676 62.5215C47.961 62.5277 48.2591 62.8196 48.2628 63.5263C48.2707 64.846 48.2658 66.1657 48.2665 67.4861V67.7524Z" fill="white"/>
<path d="M60.2137 78.0494C59.5283 77.9209 58.8239 77.8585 58.1623 77.6508C56.8733 77.2473 56.1317 76.2731 55.8171 74.969C55.4512 73.4612 55.4438 71.886 55.7957 70.3749C56.1708 68.7352 57.1751 67.7348 58.8031 67.4136C59.8631 67.1947 60.9576 67.2214 62.0061 67.4915C63.369 67.8477 64.2474 68.7389 64.6195 70.1023C65.0681 71.7311 65.0738 73.4538 64.636 75.0856C64.1955 76.7596 63.0574 77.6427 61.4153 77.8866C61.0243 77.9446 60.6267 77.9527 60.232 77.9839L60.2137 78.0494ZM58.764 72.6133L58.8422 72.6195C58.8422 72.9719 58.83 73.3249 58.8471 73.676C58.8642 73.8723 58.9009 74.0662 58.9565 74.2548C59.1465 74.997 59.5197 75.3039 60.2216 75.307C60.9486 75.3101 61.3665 75.0107 61.5277 74.2661C61.766 73.1802 61.7642 72.0537 61.5222 70.9686C61.3597 70.2395 60.951 69.9451 60.2363 69.9445C59.5313 69.9445 59.1184 70.2526 58.9669 70.9854C58.8563 71.5187 58.8288 72.07 58.764 72.6133Z" fill="white"/>
<path d="M85.6828 76.9739C84.7402 77.7435 83.6815 77.9999 82.5226 77.9618C80.2526 77.8882 79.1817 76.1968 79.4217 74.2328C79.6166 72.6411 80.3992 71.8628 82.0364 71.5702C82.8953 71.4181 83.7683 71.3407 84.6369 71.2534C84.8648 71.231 84.954 71.1811 84.9509 70.9278C84.9418 70.2175 84.7292 69.9399 84.0218 69.978C83.2276 70.021 82.4334 70.1582 81.6393 70.2549C81.379 70.2873 81.1176 70.3572 80.8592 70.3472C80.3973 70.3279 80.0797 70.0516 80.0302 69.5882C79.9979 69.207 80.0094 68.8233 80.0644 68.4449C80.1078 68.0982 80.3454 67.8649 80.6692 67.767C82.3504 67.2587 84.0542 67.0753 85.7793 67.5019C87.2015 67.8537 88.0085 68.8678 88.0347 70.3628C88.072 72.4284 88.0757 74.4954 88.0891 76.5616C88.098 76.7279 88.0792 76.8945 88.0335 77.0544C87.9724 77.2221 87.8869 77.4105 87.7556 77.5165C87.2546 77.92 86.1544 77.7036 85.805 77.1585C85.7714 77.1074 85.7372 77.0569 85.6828 76.9739ZM84.9442 73.0135C84.2722 73.1538 83.6369 73.2361 83.0352 73.427C82.5923 73.5667 82.387 74.0887 82.4426 74.612C82.5037 75.1814 82.77 75.5538 83.2569 75.6436C83.7921 75.7427 84.3126 75.6554 84.7701 75.3317C84.8501 75.275 84.9345 75.1565 84.9369 75.0648C84.9534 74.4243 84.9442 73.7794 84.9442 73.0135V73.0135Z" fill="white"/>
<path d="M70.2521 67.5627C70.797 67.5627 71.2845 67.5589 71.772 67.5627C72.3939 67.5689 72.6884 67.867 72.7018 68.4982C72.7079 68.8101 72.711 69.1219 72.7018 69.4337C72.681 69.9707 72.4477 70.2445 71.9241 70.2894C71.469 70.3269 71.0078 70.3219 70.5521 70.3144C70.3273 70.3107 70.2466 70.3849 70.2515 70.6175C70.2601 71.8125 70.2515 73.0075 70.2588 74.2019C70.2643 74.9116 70.6144 75.2621 71.3175 75.2971C72.4782 75.3594 72.5839 75.4736 72.587 76.6692C72.587 77.48 72.3493 77.8274 71.5857 77.9166C70.6535 78.0263 69.7164 78.0032 68.8159 77.6671C67.6754 77.2411 67.1256 76.3405 67.0645 75.1667C66.9875 73.6854 67.0034 72.1979 67.0034 70.7136C67.0034 70.3917 66.9142 70.3044 66.61 70.3144C65.6087 70.3487 65.2825 70.1192 65.3308 69.0196C65.3631 68.2955 65.5067 68.0722 66.2013 67.8795C66.9954 67.66 66.9954 67.66 66.9954 66.8142C66.9954 65.7084 67.0969 65.5669 68.139 65.28C68.5202 65.1739 68.9045 65.0561 69.2942 65.0124C69.929 64.9413 70.2417 65.2519 70.2534 65.9099C70.2595 66.4475 70.2521 66.9851 70.2521 67.5627Z" fill="white"/>
<path d="M77.9934 73.9769C77.9934 75.7637 78.013 77.5506 77.9861 79.3369C77.9696 80.4395 77.6195 81.4275 76.7288 82.1223C75.7691 82.8707 74.6677 83.1289 73.4801 82.9418C72.9627 82.8601 72.7366 82.5351 72.7305 82.0063C72.7269 81.705 72.7238 81.4038 72.7305 81.1025C72.7434 80.6098 72.9657 80.3005 73.4441 80.24C74.5657 80.099 74.7776 79.5683 74.7734 78.5498C74.7605 75.2673 74.7691 71.9848 74.7703 68.7017C74.7691 68.567 74.777 68.4324 74.7941 68.2988C74.8552 67.8373 75.1057 67.5884 75.5633 67.5734C76.1131 67.556 76.6629 67.5578 77.2127 67.5734C77.6354 67.5859 77.8914 67.8229 77.9622 68.2495C77.9951 68.4542 78.0113 68.6614 78.0105 68.8688C78.0142 70.5736 78.0142 72.2784 78.0105 73.9831L77.9934 73.9769Z" fill="white"/>
<path d="M91.9667 68.21C92.7143 67.6683 93.5954 67.3507 94.5105 67.2932C94.7938 67.2743 95.0784 67.2909 95.3578 67.3425C95.7402 67.4117 95.9485 67.6456 95.9778 68.0429C96.0059 68.4357 96.0059 68.8301 95.9778 69.2229C95.943 69.695 95.7139 69.9277 95.2448 69.995C94.7756 70.0624 94.3187 70.1042 93.8556 70.1572C93.8453 70.158 93.8351 70.1595 93.8251 70.1615C92.8617 70.3935 92.8476 70.411 92.8476 71.4089V76.5544C92.8476 77.4138 92.5709 77.7007 91.7376 77.7013C91.3204 77.7013 90.9025 77.7082 90.4853 77.6982C89.9056 77.6845 89.5934 77.3745 89.5922 76.7858C89.5865 74.0103 89.5865 71.2349 89.5922 68.4595C89.5922 67.877 89.8976 67.5863 90.4664 67.567C90.5067 67.567 90.5476 67.567 90.5885 67.567C91.4523 67.5888 91.3876 67.4179 91.9667 68.21Z" fill="white"/>
<path d="M77.3519 65.9685C77.8602 65.0186 78.0642 64.1143 77.6934 63.155C77.6403 63.0064 77.5565 62.8713 77.4475 62.7588C77.3386 62.6463 77.2073 62.5592 77.0623 62.5033C77.2859 63.2567 77.3207 63.9658 76.6084 64.4217C76.1087 64.7417 75.6554 64.5022 75.2571 64.0856C74.989 64.7654 75.0867 65.4059 75.2932 66.0477C74.2797 66.0371 73.334 65.3785 72.9785 64.4635C72.5949 63.4768 72.8215 62.5089 73.6346 61.7193C73.8355 61.5284 74.0479 61.3505 74.2705 61.1867C75.3915 60.3422 75.565 59.3842 74.8075 58.1992C74.7806 58.158 74.7611 58.1125 74.7024 58.0015C74.9205 58.0358 75.0849 58.0501 75.2437 58.0882C76.5241 58.3969 77.7404 58.8453 78.7063 59.8089C80.1327 61.2303 80.6037 64.3718 77.8742 65.7627C77.7343 65.8331 77.5816 65.8787 77.3519 65.9685Z" fill="white"/>
</g>
<defs>
<filter id="filter0_d" x="26" y="26" width="88" height="88" filterUnits="userSpaceOnUse" color-interpolation-filters="sRGB">
<feFlood flood-opacity="0" result="BackgroundImageFix"/>
<feColorMatrix in="SourceAlpha" type="matrix" values="0 0 0 0 0 0 0 0 0 0 0 0 0 0 0 0 0 0 127 0"/>
<feOffset/>
<feGaussianBlur stdDeviation="2"/>
<feColorMatrix type="matrix" values="0 0 0 0 0 0 0 0 0 0 0 0 0 0 0 0 0 0 0.4 0"/>
<feBlend mode="normal" in2="BackgroundImageFix" result="effect1_dropShadow"/>
<feBlend mode="normal" in="SourceGraphic" in2="effect1_dropShadow" result="shape"/>
</filter>
<clipPath id="clip0">
<rect width="51" height="25" fill="white" transform="translate(45 58)"/>
</clipPath>
</defs>
</svg>
