<svg width="140" height="140" viewBox="0 0 140 140" fill="none" xmlns="http://www.w3.org/2000/svg">
<rect x="29" y="30" width="80" height="80" rx="12" fill="black"/>
<rect x="45" y="46" width="48" height="48" fill="#590000" fill-opacity="0.01"/>
<g clip-path="url(#clip0)">
<path d="M89.0003 69.629C88.9903 69.6657 88.9733 69.7019 88.9713 69.7391C88.9326 70.4665 88.7471 71.1602 88.4863 71.8345C88.1149 72.8022 87.5482 73.6819 86.8219 74.4182C85.9504 75.3038 85.0719 76.1817 84.1954 77.0628C81.9601 79.3107 79.7249 81.5588 77.4899 83.8069C77.1244 84.1757 76.7108 84.4704 76.2344 84.6736C75.7109 84.8969 75.1631 85.0117 74.5951 84.9862C73.6451 84.9436 72.8117 84.6054 72.1052 83.9596C72.0719 83.9296 72.0372 83.9022 72.0052 83.8745C72.0297 83.7982 72.0829 83.7639 72.1244 83.7219C73.2861 82.5518 74.4486 81.3823 75.6119 80.2134C78.3973 77.4124 81.1828 74.6117 83.9686 71.8114C84.3998 71.3782 84.7353 70.8857 84.9391 70.3066C85.7353 68.0501 84.3604 65.661 82.0974 65.2007C80.7419 64.9249 79.5474 65.2845 78.5664 66.2636C76.1581 68.6694 73.7569 71.0823 71.3629 73.5025C69.7012 75.1734 68.0392 76.8441 66.3769 78.5146C66.2846 78.6114 66.1851 78.7011 66.0794 78.7829C64.9056 79.6514 63.2492 78.9647 63.0304 77.5218C62.9366 76.9027 63.1137 76.3626 63.5304 75.9004C63.5714 75.855 63.6157 75.8124 63.6589 75.769C67.6976 71.7077 71.7357 67.6463 75.7732 63.5846C76.5126 62.8404 77.3511 62.2484 78.3171 61.8412C79.0347 61.5385 79.794 61.3473 80.5688 61.2741C84.3843 60.9087 87.7884 63.3774 88.7566 66.9756C88.8444 67.3046 88.9104 67.6391 88.9543 67.9768C88.9661 68.0652 88.9626 68.1555 88.9709 68.245C88.9744 68.2824 88.9901 68.3185 89.0003 68.3552V69.629Z" fill="white"/>
<path d="M63.6 53C63.6411 53.0131 63.683 53.0234 63.7255 53.0307C64.6032 53.1173 65.356 53.4774 65.9962 54.0827C66.0134 54.1019 66.0295 54.1221 66.0443 54.1432C66.0017 54.1893 65.9623 54.2344 65.9202 54.2774C64.5455 55.66 63.1706 57.0426 61.7953 58.4252C59.2182 61.0168 56.6408 63.6082 54.063 66.1995C53.5943 66.6703 53.2475 67.2141 53.0553 67.8533C52.384 70.0848 53.7573 72.3219 55.914 72.7817C57.2807 73.0732 58.4847 72.7166 59.4797 71.7328C60.874 70.3539 62.2483 68.9545 63.6312 67.5638C66.3143 64.8654 68.9973 62.1668 71.6802 59.4681C71.8745 59.2726 72.0852 59.1045 72.3383 58.9917C73.5005 58.4737 74.8467 59.2153 75.0228 60.4812C75.1048 61.0704 74.9503 61.6 74.5562 62.0513C74.5048 62.1099 74.4493 62.1649 74.3943 62.2202C70.3558 66.2821 66.3174 70.3442 62.2793 74.4065C61.4992 75.1921 60.61 75.8064 59.5822 76.2139C58.8008 76.5234 57.9745 76.7026 57.1358 76.7443C53.9917 76.9086 51.1118 75.1387 49.7792 72.3371C49.427 71.6009 49.1962 70.8121 49.0958 70.0013C49.0753 69.8352 49.0583 69.6686 49.0363 69.5026C49.032 69.4649 49.0127 69.4301 49 69.3944V68.6232C49.0123 68.5808 49.0305 68.5394 49.0362 68.4958C49.0582 68.3299 49.0753 68.1633 49.096 67.9971C49.2135 67.0532 49.5058 66.1398 49.9578 65.3041C50.3275 64.6157 50.7972 64.0042 51.3472 63.4517C54.4082 60.3754 57.4681 57.2984 60.527 54.2207C60.5545 54.193 60.5817 54.1652 60.6103 54.1379C61.27 53.4913 62.0528 53.1101 62.9748 53.0282C63.0062 53.0255 63.0365 53.0097 63.0673 53H63.6Z" fill="white"/>
<path d="M73.5319 53C73.5743 53.0099 73.6163 53.0256 73.6591 53.0285C75.1924 53.1314 76.5656 53.662 77.7904 54.5896C78.0801 54.8069 78.3515 55.0475 78.6021 55.3093C79.5688 56.3275 79.1688 58.0159 77.8453 58.4727C77.1228 58.7218 76.4668 58.5694 75.8934 58.062C75.7684 57.9513 75.6509 57.8313 75.5208 57.7267C74.7178 57.0874 73.7998 56.8108 72.7836 56.8954C71.8653 56.9729 71.0713 57.3442 70.4128 57.9954C69.9094 58.4924 69.4138 58.9973 68.9149 59.4989C65.3525 63.0807 61.7898 66.6627 58.2269 70.2447C58.1524 70.3197 58.0794 70.3973 57.9981 70.4643C57.4283 70.9337 56.7863 71.0656 56.0943 70.8154C55.3954 70.5626 54.9706 70.0443 54.8461 69.3092C54.7426 68.6967 54.9111 68.1473 55.3283 67.6818C55.3654 67.6404 55.4053 67.6014 55.4449 67.5618C59.5019 63.4819 63.5587 59.4016 67.6153 55.321C68.4486 54.4829 69.4134 53.8532 70.5244 53.4533C71.1163 53.2426 71.7311 53.1039 72.3558 53.0402C72.4274 53.0327 72.5003 53.0355 72.5724 53.0285C72.6151 53.0218 72.6572 53.0123 72.6986 53H73.5319Z" fill="white"/>
<path d="M64.997 85.0006C62.8231 84.948 60.997 84.2174 59.4873 82.7237C59.1175 82.3579 58.922 81.9082 58.9125 81.3897C58.8941 80.3896 59.585 79.632 60.4201 79.4565C61.0983 79.3142 61.6988 79.4849 62.198 79.9733C62.6688 80.434 63.2088 80.7818 63.8431 80.9518C65.2895 81.3394 66.5741 81.0246 67.655 79.9769C68.4628 79.1939 69.245 78.3844 70.0383 77.5863L79.8191 67.7501C79.8701 67.6988 79.92 67.6459 79.9733 67.5973C80.54 67.0811 81.1973 66.9199 81.9198 67.1653C82.6423 67.4107 83.076 67.9364 83.2031 68.6961C83.3013 69.2806 83.1428 69.8025 82.7665 70.2564C82.7133 70.3206 82.654 70.3799 82.5951 70.4393C78.5455 74.5118 74.4959 78.5847 70.4463 82.6578C69.563 83.5463 68.5393 84.2027 67.3518 84.5968C66.7827 84.7881 66.1925 84.9087 65.5943 84.9559C65.3736 84.972 65.1521 84.9882 64.997 85.0006Z" fill="white"/>
</g>
<defs>
<clipPath id="clip0">
<rect width="40" height="32" fill="white" transform="translate(49 53)"/>
</clipPath>
</defs>
</svg>
