<svg width="140" height="140" viewBox="0 0 140 140" fill="none" xmlns="http://www.w3.org/2000/svg">
<rect x="30" y="30" width="80" height="80" rx="12" fill="#001E36"/>
<rect x="46" y="46" width="48" height="48" fill="#590000" fill-opacity="0.01"/>
<path d="M51 69.7718V56.6121C51 56.1719 51.0186 56.1589 51.4489 56.1506C54.0515 56.1039 56.6536 56.0432 59.2562 56.0027C60.7866 55.9788 62.3041 56.1122 63.7833 56.5327C65.7911 57.1037 67.5294 58.1009 68.8059 59.8031C69.8243 61.1617 70.3379 62.7102 70.4822 64.3906C70.6198 65.9874 70.4713 67.5572 69.8801 69.0559C68.9042 71.5264 67.0753 73.1149 64.615 73.9953C62.8239 74.6364 60.9562 74.8077 59.0684 74.7973C58.3443 74.7937 57.6203 74.7755 56.8962 74.7454C56.6464 74.7356 56.5745 74.8171 56.575 75.0668C56.5833 77.6971 56.5802 80.327 56.5802 82.9574C56.5802 83.3856 56.5124 83.4531 56.0873 83.4531H51.4598C51.0672 83.4531 51.0005 83.3851 51.0005 82.9813C51.0002 78.5788 51 74.1756 51 69.7718ZM56.6308 69.9275C57.4341 69.9275 58.2083 69.9228 58.9826 69.9275C60.0706 69.9427 61.1525 69.7617 62.1769 69.3933C63.352 68.9656 64.2772 68.2424 64.692 67.0023C64.9144 66.3368 64.9636 65.6417 64.8989 64.9502C64.7613 63.384 64.0078 62.2295 62.5337 61.6123C61.6798 61.2574 60.7638 61.0772 59.8396 61.0822C58.9431 61.0802 58.0466 61.0831 57.1501 61.0911C56.9805 61.0911 56.8108 61.1165 56.6329 61.131L56.6308 69.9275Z" fill="#31A8FF"/>
<path d="M73.3259 80.1153C73.3259 79.3974 73.3259 78.6794 73.3259 77.961C73.3259 77.5737 73.4216 77.5166 73.7495 77.7014C75.6218 78.7594 77.6456 79.2468 79.7796 79.2987C80.4949 79.3159 81.2097 79.2692 81.8909 79.0054C82.3424 78.831 82.6434 78.5227 82.737 78.0394C82.8249 77.5831 82.6408 77.1984 82.2948 76.9425C81.8754 76.6275 81.4248 76.3568 80.9501 76.1347C79.9084 75.6602 78.8295 75.2704 77.7951 74.7809C76.6945 74.2617 75.6683 73.618 74.8211 72.707C72.5827 70.3009 73.043 66.3353 75.4583 64.3056C76.6438 63.3099 78.0211 62.756 79.537 62.5629C81.5443 62.307 83.5444 62.416 85.5263 62.8136C85.9623 62.9014 86.3864 63.0581 86.809 63.204C87.1845 63.3338 87.2465 63.4329 87.2481 63.8363C87.2522 64.9264 87.2481 66.0166 87.2481 67.1067C87.2481 67.3575 87.2481 67.6087 87.2481 67.8595C87.2481 68.2836 87.0231 68.4144 86.6228 68.2405C86.1651 68.0422 85.7141 67.8195 85.2403 67.6695C83.8025 67.2044 82.2939 66.9987 80.7846 67.0621C80.3805 67.0837 79.9808 67.1566 79.595 67.2791C78.6868 67.5625 78.4473 68.6028 79.1129 69.2876C79.6074 69.7968 80.2508 70.0621 80.8802 70.3382C81.7941 70.7395 82.736 71.0795 83.6437 71.4943C84.6398 71.9491 85.6148 72.4557 86.4511 73.1825C87.9163 74.4559 88.4837 76.0963 88.2913 77.9921C87.9908 80.9568 86.2039 82.6616 83.4813 83.5062C81.8443 84.0134 80.1561 84.0596 78.4644 83.9521C77.1641 83.8696 75.8783 83.6702 74.6396 83.2492C74.3226 83.1413 74.0143 83.0053 73.7035 82.8791C73.4449 82.7753 73.3197 82.591 73.3243 82.2977C73.3331 81.5689 73.3259 80.8421 73.3259 80.1153Z" fill="#31A8FF"/>
</svg>
