<svg width="140" height="140" viewBox="0 0 140 140" fill="none" xmlns="http://www.w3.org/2000/svg">
<rect opacity="0.01" width="140" height="140" fill="#0B0B0C"/>
<g filter="url(#filter0_d)">
<rect x="30" y="30" width="80" height="80" rx="12" fill="black"/>
</g>
<g clip-path="url(#clip0)">
<path d="M62.6179 49H69.9916V62.7066C69.9916 62.8019 69.9906 62.897 69.9903 62.9922C69.9651 62.9922 69.9399 62.9942 69.9148 62.9942H62.8668C62.8277 62.9942 62.7885 62.9956 62.7492 62.9964C62.6327 62.9897 62.5149 62.9912 62.3999 62.9749C62.0853 62.9304 61.767 62.8986 61.4592 62.8237C61.0995 62.7365 60.7387 62.635 60.3967 62.4949C58.7223 61.8087 57.4863 60.6507 56.6887 59.0209C56.3274 58.2804 56.1054 57.4799 56.0336 56.6591C56.0252 56.5697 56.0113 56.481 56 56.392V56.2576C56.0081 56.2354 56.0138 56.2125 56.0168 56.1891C56.0183 56.0668 56.0183 55.9445 56.0168 55.8223C56.0138 55.7989 56.0081 55.7758 56 55.7536V55.6192C56.0114 55.5214 56.021 55.4235 56.0348 55.3262C56.0734 55.0522 56.0936 54.7737 56.1589 54.506C56.2407 54.1614 56.3451 53.8225 56.4715 53.4916C57.1266 51.8095 58.2704 50.5632 59.8726 49.7382C60.359 49.4863 60.8766 49.3002 61.412 49.1848C61.6747 49.1285 61.9413 49.0894 62.2069 49.0474C62.3429 49.0264 62.4808 49.0156 62.6179 49Z" fill="#F14E1E"/>
<path d="M70.0078 49H77.3815C77.399 49.0068 77.417 49.0117 77.4355 49.0148C77.8673 49.0401 78.2958 49.1063 78.7152 49.2125C79.8679 49.5057 80.8806 50.0571 81.7534 50.8665C82.5198 51.5721 83.117 52.4417 83.5002 53.4105C83.7833 54.1143 83.9466 54.8605 83.9835 55.6182V56.393C83.9776 56.4454 83.9724 56.4977 83.9667 56.5499C83.9316 56.8295 83.9163 57.1136 83.8575 57.3879C83.4003 59.4913 82.2344 61.0745 80.3598 62.1376C79.4359 62.6602 78.4333 62.9272 77.3768 62.9969L76.6138 62.9978L76.3905 62.9989C76.3543 62.9989 76.318 62.9969 76.2817 62.9969H70.1173C70.081 62.9969 70.0446 62.9957 70.0083 62.9951C70.008 58.3299 70.0078 53.6649 70.0078 49Z" fill="#FE7262"/>
<path d="M69.9931 77.0056C69.9953 77.0392 69.9997 77.0728 69.9997 77.1054C69.9997 79.379 69.9991 81.6522 69.998 83.925C69.9991 84.2034 69.9846 84.4815 69.9547 84.7583C69.7531 86.5224 68.9953 88.0026 67.6812 89.1988C66.7137 90.0793 65.5769 90.6352 64.2918 90.8788C64.0063 90.9328 63.7137 90.9501 63.4245 90.9849C63.4067 90.9886 63.3894 90.9939 63.3726 91.0006H62.6671C62.6436 90.9954 62.6204 90.9882 62.5967 90.9854C62.2887 90.9502 61.9769 90.935 61.6729 90.8763C61.2389 90.7951 60.8144 90.6694 60.4061 90.5012C58.5529 89.7284 57.2396 88.4165 56.4853 86.554C56.2062 85.8675 56.0473 85.138 56.0156 84.3976V83.5912C56.0166 83.5549 56.0156 83.5184 56.0192 83.4822C56.083 82.6727 56.2719 81.8941 56.607 81.1537C57.225 79.7873 58.18 78.7219 59.472 77.9577C60.4881 77.3571 61.5919 77.0516 62.7691 77.0041C62.7858 77.0041 62.8026 77.0064 62.8194 77.0064H69.8908C69.9187 77.0064 69.9466 77.0044 69.9748 77.0034L69.9931 77.0056Z" fill="#0ACE83"/>
<path d="M83.9992 70.3528C83.9891 70.4348 83.9763 70.5166 83.9693 70.5988C83.8517 71.9514 83.3861 73.1722 82.5583 74.2462C81.4776 75.6472 80.0629 76.5223 78.3274 76.8716C78.0905 76.9216 77.8502 76.9542 77.6085 76.9692C77.2269 76.9888 76.8421 77.0107 76.4623 76.9826C75.8099 76.936 75.1679 76.7936 74.5569 76.5601C72.9061 75.9275 71.6591 74.8343 70.8158 73.2804C70.4375 72.5837 70.1989 71.8381 70.0781 71.0551C70.0539 70.8988 70.0418 70.7408 70.0233 70.5837C70.0199 70.5683 70.0148 70.5533 70.008 70.539C70.0073 70.4549 70.0065 70.3709 70.0059 70.287C70.0059 70.0958 70.0059 69.9047 70.0059 69.7136C70.0066 69.6296 70.0074 69.5456 70.0082 69.4616C70.0147 69.4472 70.0199 69.4323 70.0237 69.4169C70.0709 69.1049 70.0961 68.7878 70.1674 68.4815C70.6246 66.5218 71.721 65.0192 73.4383 63.9742C74.2163 63.5008 75.0637 63.2102 75.9643 63.0764C76.1298 63.0519 76.2962 63.0348 76.4623 63.0143L76.6081 63.0107H77.3813C77.4307 63.0168 77.48 63.0238 77.5296 63.0287C77.6962 63.0455 77.8642 63.0524 78.0295 63.0773C79.2459 63.2607 80.3417 63.7281 81.3092 64.4895C82.3637 65.3193 83.1211 66.365 83.5816 67.6265C83.7213 68.0065 83.825 68.3988 83.8915 68.7982C83.9273 69.0152 83.9402 69.2361 83.9656 69.4552C83.973 69.5199 83.9872 69.5837 83.9992 69.6481V70.3528Z" fill="#1ABBFD"/>
<path d="M70.0084 49C70.0084 53.665 70.0084 58.3298 70.0084 62.9944C70.0056 62.9971 70.0023 62.9991 69.9986 63.0003L69.9902 62.9917C69.9902 62.8965 69.9917 62.8014 69.9917 62.7061V49H70.0084Z" fill="#FA8B77"/>
<path d="M56.0168 84.3977H56V83.5913H56.0168V84.3977Z" fill="#5EDEAD"/>
<path d="M83.9844 55.6182C83.9897 55.6205 83.9956 55.6209 84.0011 55.6192V56.392L83.9931 56.3911L83.9852 56.393L83.9844 55.6182Z" fill="#FEA49A"/>
<path d="M56 69.6138C56.0056 69.6152 56.0114 69.6148 56.0168 69.6128V70.3876L56.0089 70.386L56 70.3866V69.6138Z" fill="#C293FE"/>
<path d="M56 55.7534C56.0081 55.7756 56.0138 55.7987 56.0168 55.8221C56.0181 55.9443 56.0181 56.0666 56.0168 56.1889C56.0138 56.2123 56.0081 56.2353 56 56.2574V55.7534Z" fill="#F47B58"/>
<path d="M56.0156 70.3874V69.6126C56.0502 68.8497 56.2172 68.1155 56.4992 67.4071C56.8714 66.4641 57.4473 65.615 58.1859 64.9207C59.1311 64.0276 60.2388 63.4298 61.5155 63.1624C61.8254 63.0975 62.1432 63.0696 62.4578 63.028C62.554 63.0154 62.652 63.0142 62.7491 63.0078C62.7826 63.0078 62.8162 63.0105 62.8498 63.0105H69.9936C69.9965 63.1755 70.0017 63.3405 70.0018 63.5054C70.0018 65.3803 70.0018 67.2552 70.0018 69.1301C70.0018 69.2391 69.9988 69.3485 69.9971 69.4572C69.9955 69.543 69.9937 69.6287 69.9919 69.7145V70.2839C69.9938 70.3697 69.9956 70.4555 69.9973 70.5414C69.9988 70.8044 70.0017 71.0674 70.0018 71.331C70.0018 73.1864 70.0018 75.0419 70.0018 76.8974C70.0018 76.9333 69.9963 76.9693 69.9933 77.0051L69.974 77.0024C69.9391 76.9958 69.9039 76.9914 69.8685 76.9893C67.5953 76.9893 65.3229 76.9893 63.0511 76.9893C62.9558 76.9893 62.8608 76.9903 62.7655 76.991C62.0181 76.9765 61.2963 76.8298 60.5954 76.5735C59.597 76.212 58.6957 75.6244 57.962 74.8567C57.0103 73.8655 56.3939 72.6945 56.135 71.3428C56.0749 71.0278 56.0539 70.7056 56.0156 70.3874Z" fill="#A159FE"/>
<path d="M69.9995 70.5422C69.9976 70.4564 69.9958 70.3706 69.9941 70.2847C69.9987 70.285 70.0032 70.2857 70.0076 70.2867C70.0083 70.3707 70.009 70.4547 70.0098 70.5387C70.0066 70.5405 70.0031 70.5417 69.9995 70.5422V70.5422Z" fill="#CFAAFE"/>
<path d="M69.9947 63.0112H62.8508C62.8172 63.0112 62.7836 63.0093 62.75 63.0085C62.7513 63.0046 62.7513 63.0003 62.75 62.9964C62.789 62.9964 62.8281 62.9942 62.8676 62.9942H69.9148C69.9398 62.9942 69.9652 62.9929 69.9902 62.9922C69.9927 62.995 69.9956 62.9979 69.9984 63.0007C69.9978 63.0044 69.9965 63.0079 69.9947 63.0112V63.0112Z" fill="#C874C5"/>
<path d="M77.3773 62.9971C77.3792 63.0013 77.3808 63.0056 77.3827 63.01H76.6094C76.6112 63.006 76.6131 63.0018 76.6151 62.9977L77.3773 62.9971Z" fill="#89CEEE"/>
<path d="M76.6139 62.9976C76.6118 63.0016 76.61 63.0058 76.6081 63.0098L76.4623 63.0134L76.3906 62.9987L76.6139 62.9976Z" fill="#FEDAD6"/>
<path d="M62.7656 76.9904C62.8607 76.9904 62.9558 76.9888 63.0512 76.9888C65.3235 76.9888 67.596 76.9888 69.8686 76.9888C69.904 76.9909 69.9392 76.9953 69.9741 77.0019C69.9462 77.0029 69.9183 77.0049 69.8901 77.0049H62.8187C62.8019 77.0049 62.7851 77.0034 62.7683 77.0025C62.7681 76.9984 62.7672 76.9943 62.7656 76.9904V76.9904Z" fill="#A97FF6"/>
<path d="M70.0076 70.2868C70.0032 70.2858 69.9987 70.2851 69.9941 70.2848C69.9941 70.0949 69.9941 69.9051 69.9941 69.7154C69.9986 69.7151 70.003 69.7144 70.0074 69.7134C70.0075 69.9046 70.0076 70.0957 70.0076 70.2868Z" fill="#89B0FE"/>
<path d="M70.0074 69.7134C70.003 69.7144 69.9986 69.7151 69.9941 69.7154C69.996 69.6296 69.9978 69.5438 69.9995 69.458C70.0031 69.4583 70.0066 69.4593 70.0098 69.461C70.009 69.5453 70.0082 69.6294 70.0074 69.7134Z" fill="#CFABFE"/>
</g>
<defs>
<filter id="filter0_d" x="26" y="26" width="88" height="88" filterUnits="userSpaceOnUse" color-interpolation-filters="sRGB">
<feFlood flood-opacity="0" result="BackgroundImageFix"/>
<feColorMatrix in="SourceAlpha" type="matrix" values="0 0 0 0 0 0 0 0 0 0 0 0 0 0 0 0 0 0 127 0"/>
<feOffset/>
<feGaussianBlur stdDeviation="2"/>
<feColorMatrix type="matrix" values="0 0 0 0 0 0 0 0 0 0 0 0 0 0 0 0 0 0 0.4 0"/>
<feBlend mode="normal" in2="BackgroundImageFix" result="effect1_dropShadow"/>
<feBlend mode="normal" in="SourceGraphic" in2="effect1_dropShadow" result="shape"/>
</filter>
<clipPath id="clip0">
<rect width="28" height="42" fill="white" transform="translate(56 49)"/>
</clipPath>
</defs>
</svg>
