<svg width="140" height="140" viewBox="0 0 140 140" fill="none" xmlns="http://www.w3.org/2000/svg">
<rect x="30" y="30" width="80" height="80" rx="12" fill="#21759B"/>
<rect x="46" y="46" width="48" height="48" fill="#590000" fill-opacity="0.01"/>
<path d="M68.8281 50H71.1719C71.2984 50.0234 71.4242 50.0523 71.5508 50.0695C72.4 50.1875 73.2609 50.25 74.0969 50.4273C78.2516 51.3117 81.7914 53.3078 84.6766 56.4273C87.4646 59.4414 89.1643 62.9831 89.7758 67.0523C89.8641 67.6414 89.9258 68.2344 90 68.8258V71.1695C89.9758 71.3086 89.9477 71.4477 89.9281 71.5875C89.8117 72.4234 89.7484 73.2711 89.5727 74.0945C88.6852 78.2625 86.682 81.8117 83.5445 84.7008C80.5362 87.4737 77.0034 89.1646 72.9461 89.7734C72.357 89.8617 71.7633 89.9234 71.1719 89.9977H68.8281C68.7016 89.9742 68.5758 89.9453 68.4492 89.9281C67.6 89.8102 66.7391 89.7477 65.9031 89.5703C61.7484 88.6859 58.2086 86.6898 55.3234 83.5703C52.5354 80.5562 50.8357 77.0146 50.2242 72.9453C50.1359 72.3562 50.0781 71.7633 50 71.1719V68.8281C50.0242 68.6891 50.0523 68.55 50.0719 68.4102C50.1883 67.5742 50.2516 66.7266 50.4273 65.9031C51.3148 61.7352 53.318 58.1859 56.4555 55.2969C59.4643 52.5245 62.9971 50.8336 67.0539 50.2242C67.643 50.1359 68.2367 50.0781 68.8281 50ZM70 52.5C60.3484 52.5 52.5164 60.3258 52.5 69.9812C52.4836 79.6367 60.3367 87.5 70 87.5C79.6508 87.5 87.4828 79.6742 87.5 70.0187C87.5172 60.3633 79.6633 52.5 70 52.5Z" fill="white"/>
<path d="M77.4637 78.785C75.6574 73.5506 73.8699 68.3756 72.073 63.16C72.5488 63.1202 72.9723 63.0889 73.3949 63.0483C73.5763 63.0365 73.7563 63.008 73.9324 62.9631C74.0599 62.9289 74.1707 62.8497 74.2444 62.7401C74.3181 62.6305 74.3496 62.498 74.3332 62.367C74.3082 62.0928 74.1629 61.8983 73.8902 61.8412C73.7366 61.8165 73.5806 61.8096 73.4254 61.8209C71.7996 61.8662 70.1746 61.9366 68.5496 61.9522C67.7184 61.96 66.8863 61.867 66.0551 61.8248C65.8871 61.8094 65.7179 61.8144 65.5512 61.8397C65.4163 61.8697 65.2962 61.946 65.2118 62.0553C65.1273 62.1646 65.0837 62.3001 65.0887 62.4381C65.0832 62.5703 65.1281 62.6996 65.2144 62.7999C65.3008 62.9001 65.422 62.9638 65.5535 62.978C66.0031 63.048 66.4561 63.0947 66.9105 63.1178C67.1449 63.1295 67.2512 63.217 67.3301 63.4303C68.0371 65.3436 68.7574 67.2522 69.4637 69.1662C69.5131 69.3094 69.5158 69.4644 69.4715 69.6092C68.4355 72.6597 67.3939 75.7084 66.3465 78.7553C66.334 78.792 66.3168 78.8272 66.2684 78.9483L60.8199 63.167C61.2762 63.128 61.684 63.0959 62.0902 63.0569C62.2717 63.045 62.4519 63.0189 62.6293 62.9787C62.9418 62.9006 63.0887 62.6866 63.0754 62.3819C63.0758 62.2437 63.0239 62.1106 62.9301 62.0091C62.8364 61.9077 62.7077 61.8455 62.5699 61.835C62.3878 61.8221 62.2049 61.8242 62.023 61.8412C60.6579 61.8892 59.2928 61.9371 57.9277 61.985C57.8043 61.9889 57.6793 61.9694 57.5371 61.96C62.3027 54.6655 73.1449 53.0733 80.0371 59.1912C79.7816 59.2219 79.5279 59.266 79.277 59.3233C77.8629 59.7233 77.0754 61.2225 77.5715 62.7139C77.7973 63.3959 78.1676 64.0381 78.5356 64.6623C78.9981 65.4475 79.4645 66.2248 79.7668 67.0912C80.2762 68.5483 80.2004 70.0108 79.7605 71.4662C79.0449 73.8295 78.3113 76.1866 77.584 78.5452C77.5483 78.6272 77.5081 78.7073 77.4637 78.785Z" fill="white"/>
<path d="M74.9516 83.7848C71.9047 84.7879 68.8703 84.8785 65.7656 84.0082C67.2672 79.7707 68.7516 75.5629 70.2656 71.2793L74.9516 83.7848Z" fill="white"/>
<path d="M63.4457 83.125C55.7722 79.4469 53.1699 70.7133 56.3144 64.0977L63.4457 83.125Z" fill="white"/>
<path d="M83.2266 63.2158C86.7 69.1197 85.1797 78.1986 77.5625 82.5908C77.6172 82.4236 77.6508 82.3135 77.6891 82.2049C79.2911 77.6986 80.8932 73.1934 82.4953 68.6893C83.0883 67.0158 83.3758 65.2947 83.2109 63.5135C83.2039 63.4354 83.2008 63.3572 83.2008 63.2791C83.2056 63.2566 83.2143 63.2352 83.2266 63.2158Z" fill="white"/>
</svg>
