<svg width="140" height="140" viewBox="0 0 140 140" fill="none" xmlns="http://www.w3.org/2000/svg">
<rect opacity="0.01" width="140" height="140" fill="#0D0D0E"/>
<g filter="url(#filter0_d)">
<rect x="31" y="30" width="80" height="80" rx="12" fill="white"/>
<rect x="47" y="46" width="48" height="48" fill="#590000" fill-opacity="0.01"/>
</g>
<g clip-path="url(#clip0)">
<path d="M56 51.6998C56.0071 51.6969 56.0147 51.6956 56.0223 51.6958C56.0241 51.7698 56.0272 51.8439 56.0272 51.9179V88.0847C56.0272 88.1682 56.0249 88.2516 56.0239 88.3348L56 88.3316V51.6998Z" fill="#AD91D3"/>
<path d="M58.6445 49.023C58.6464 49.0154 58.6478 49.0077 58.6489 49H75.7016C75.7008 49.0087 75.7008 49.0175 75.7016 49.0262L75.6759 49.0301C75.6351 49.0301 75.594 49.0272 75.5531 49.0272H58.8636C58.7909 49.0277 58.7182 49.0246 58.6445 49.023Z" fill="#A98BD1"/>
<path d="M58.6464 49.0234C58.7191 49.025 58.7918 49.0281 58.8644 49.0281H75.5547C75.5956 49.0281 75.6367 49.03 75.6775 49.031C75.6775 49.0729 75.6775 49.1144 75.6775 49.1563C75.6775 52.5419 75.6775 55.9273 75.6775 59.3125C75.6775 59.5032 75.6796 59.4956 75.8573 59.4956C79.2302 59.4956 82.6037 59.4956 85.9777 59.4956C85.9859 59.5102 86.0003 59.5244 86.0014 59.5395C86.0044 59.5858 86.0014 59.6324 86.0014 59.6787C86.0014 69.0077 86.0014 78.3368 86.0014 87.6657C86.0014 87.9513 85.9967 88.235 85.9585 88.5209C85.9184 88.8214 85.8447 89.1057 85.7132 89.3745C85.3372 90.1447 84.7406 90.6489 83.9313 90.8914C83.6879 90.9641 83.4367 90.9884 83.1842 90.9999C83.1434 91.0017 83.1023 90.9999 83.0615 90.9999C75.0234 90.9999 66.9854 90.9999 58.9476 90.9999C58.7707 90.9999 58.5909 91.003 58.4178 90.9738C58.0296 90.9117 57.6582 90.7684 57.3271 90.553C56.7669 90.1834 56.3719 89.6802 56.1578 89.034C56.0815 88.8067 56.0234 88.5768 56.025 88.3344C56.025 88.2512 56.0283 88.1678 56.0283 88.0844V51.9186C56.0283 51.8446 56.0252 51.7705 56.0234 51.6965C56.0589 50.9737 56.3437 50.3627 56.8396 49.8543C57.3356 49.3459 57.9422 49.0684 58.6464 49.0234ZM67.2611 65.2565C67.2598 65.2704 67.2572 65.2843 67.2572 65.2981C67.2572 66.0449 67.2572 66.7916 67.2572 67.5381C67.2589 67.5657 67.2623 67.5931 67.2672 67.6202H79.3773C79.3909 67.6199 79.4045 67.6185 79.4179 67.6161C79.422 67.6147 79.4257 67.6122 79.4287 67.609C79.4308 67.6072 79.4328 67.6052 79.4346 67.603V65.2301H67.437C67.3869 65.2301 67.3371 65.2327 67.287 65.2341L67.2611 65.2565ZM67.2634 79.0653H79.3647C79.3828 79.0648 79.4008 79.0631 79.4187 79.0603C79.4229 79.059 79.4266 79.0565 79.4295 79.053C79.4327 79.0497 79.4357 79.0462 79.4384 79.0425C79.4626 78.4219 79.451 76.8078 79.4182 76.6859C75.3714 76.7202 71.3212 76.6378 67.2644 76.6995L67.2634 79.0653ZM79.4235 73.3281C79.4592 72.536 79.4325 71.7545 79.4423 70.9683H67.2639V73.3281H79.4235ZM63.7264 70.9608C63.0725 70.9589 62.545 71.5298 62.5637 72.1745C62.5838 72.833 63.1015 73.3574 63.7308 73.3472C64.4047 73.3365 64.9168 72.8584 64.9047 72.1277C64.8934 71.4548 64.425 70.9746 63.7264 70.9608ZM63.75 76.6969C63.1265 76.6386 62.5604 77.2348 62.5604 77.8753C62.5604 78.5158 63.1205 79.076 63.7364 79.0674C64.37 79.0587 64.9029 78.5739 64.9086 77.8701C64.9129 77.2215 64.3898 76.666 63.75 76.6964V76.6969ZM63.7267 67.6304C63.7916 67.6197 63.8623 67.6069 63.9321 67.597C64.1486 67.5684 64.3508 67.4713 64.5102 67.3195C64.7183 67.1228 64.8533 66.8937 64.8903 66.5932C64.9115 66.4126 64.8981 66.2294 64.8508 66.054C64.7884 65.8081 64.6338 65.6177 64.4375 65.4679C64.3203 65.3731 64.1828 65.3078 64.0361 65.2772C63.955 65.262 63.8733 65.2733 63.7968 65.2534C63.684 65.2244 63.5754 65.2516 63.4691 65.2681C63.3073 65.2942 63.1632 65.3727 63.0325 65.4773C62.7327 65.7127 62.5781 66.0291 62.5612 66.4096C62.5512 66.6385 62.6241 66.8521 62.743 67.0465C62.9682 67.4121 63.3034 67.5899 63.7267 67.6304Z" fill="#703DB3"/>
<path d="M85.974 59.4949C82.6011 59.4949 79.2276 59.4949 75.8536 59.4949C75.6761 59.4949 75.6738 59.503 75.6738 59.3118C75.6738 55.9264 75.6738 52.541 75.6738 49.1556C75.6738 49.1137 75.6738 49.0721 75.6738 49.0303L75.6995 49.0264C75.7329 49.0575 75.7671 49.0878 75.7992 49.1205C79.1625 52.5448 82.5248 55.9686 85.8859 59.3918C85.9173 59.424 85.9453 59.4614 85.974 59.4949Z" fill="#532B86"/>
<path d="M67.2863 65.2339C67.3364 65.2326 67.3862 65.23 67.4363 65.23H79.4339V67.6028C79.4321 67.605 79.4301 67.607 79.428 67.6089C79.425 67.6121 79.4213 67.6145 79.4172 67.6159C79.4038 67.6183 79.3902 67.6197 79.3766 67.6201H67.2678C67.2629 67.593 67.2595 67.5655 67.2578 67.538C67.2578 66.7912 67.2578 66.0446 67.2578 65.298C67.2578 65.2841 67.2604 65.2703 67.2617 65.2564L67.2863 65.2339Z" fill="#FEFEFE"/>
<path d="M67.2637 79.0641V76.698C71.3215 76.6363 75.3706 76.7187 79.4174 76.6844C79.4503 76.8063 79.4618 78.4205 79.4377 79.0411C79.435 79.0448 79.432 79.0483 79.4287 79.0515C79.4259 79.055 79.4221 79.0575 79.4179 79.0589C79.4001 79.0617 79.382 79.0633 79.364 79.0638L67.2637 79.0641Z" fill="#FEFEFE"/>
<path d="M79.4233 73.3275H67.2637V70.9683H79.4428C79.4331 71.7528 79.4598 72.5353 79.4233 73.3275Z" fill="#FEFEFE"/>
<path d="M63.7257 70.9605C64.4232 70.9743 64.8927 71.4545 64.904 72.1274C64.9161 72.8581 64.404 73.3362 63.73 73.3469C63.1008 73.3571 62.5831 72.8328 62.563 72.1742C62.5433 71.5295 63.0718 70.9586 63.7257 70.9605Z" fill="#FDFDFE"/>
<path d="M63.7502 76.6963C64.3899 76.6654 64.9141 77.2209 64.9087 77.8695C64.9031 78.5733 64.3694 79.0582 63.7366 79.0668C63.1202 79.0754 62.5605 78.5176 62.5605 77.8747C62.5605 77.2319 63.1266 76.6385 63.7502 76.6963Z" fill="#FDFDFE"/>
<path d="M63.7262 67.6301C63.3029 67.5896 62.9678 67.4117 62.7433 67.0456C62.6244 66.8513 62.5514 66.6376 62.5615 66.4088C62.5784 66.0282 62.733 65.7131 63.0327 65.4764C63.1637 65.3718 63.3078 65.2933 63.4693 65.2672C63.5757 65.2507 63.6843 65.2235 63.797 65.2525C63.8741 65.2724 63.9553 65.2612 64.0364 65.2763C64.183 65.307 64.3205 65.3723 64.4378 65.467C64.634 65.6168 64.7886 65.807 64.8511 66.0531C64.8984 66.2285 64.9118 66.4117 64.8906 66.5923C64.8536 66.8928 64.7185 67.1219 64.5105 67.3186C64.3511 67.4704 64.1489 67.5675 63.9324 67.5961C63.8618 67.6066 63.7911 67.6194 63.7262 67.6301Z" fill="#FDFDFE"/>
<path d="M67.2862 65.2334L67.2598 65.2566L67.2862 65.2334Z" fill="#EBE4F4"/>
</g>
<defs>
<filter id="filter0_d" x="27" y="26" width="88" height="88" filterUnits="userSpaceOnUse" color-interpolation-filters="sRGB">
<feFlood flood-opacity="0" result="BackgroundImageFix"/>
<feColorMatrix in="SourceAlpha" type="matrix" values="0 0 0 0 0 0 0 0 0 0 0 0 0 0 0 0 0 0 127 0"/>
<feOffset/>
<feGaussianBlur stdDeviation="2"/>
<feColorMatrix type="matrix" values="0 0 0 0 0 0 0 0 0 0 0 0 0 0 0 0 0 0 0.4 0"/>
<feBlend mode="normal" in2="BackgroundImageFix" result="effect1_dropShadow"/>
<feBlend mode="normal" in="SourceGraphic" in2="effect1_dropShadow" result="shape"/>
</filter>
<clipPath id="clip0">
<rect width="30" height="42" fill="white" transform="translate(56 49)"/>
</clipPath>
</defs>
</svg>
