<svg width="140" height="140" viewBox="0 0 140 140" fill="none" xmlns="http://www.w3.org/2000/svg">
<rect opacity="0.01" width="140" height="140" fill="#0B0B0C"/>
<g filter="url(#filter0_d)">
<rect x="30" y="30" width="80" height="80" rx="12" fill="#21759B"/>
</g>
<path d="M69.2402 48H71.7598C71.8958 48.0252 72.031 48.0563 72.1671 48.0747C73.08 48.2016 74.0055 48.2687 74.9041 48.4594C79.3704 49.4101 83.1758 51.5559 86.2773 54.9094C89.2744 58.1495 91.1016 61.9568 91.759 66.3313C91.8539 66.9645 91.9202 67.602 92 68.2377V70.7572C91.974 70.9067 91.9437 71.0562 91.9227 71.2066C91.7976 72.1052 91.7296 73.0164 91.5406 73.9016C90.5865 78.3822 88.4332 82.1976 85.0604 85.3033C81.8264 88.2842 78.0286 90.1019 73.6671 90.7564C73.0338 90.8513 72.3955 90.9177 71.7598 90.9975H69.2402C69.1042 90.9723 68.969 90.9412 68.8329 90.9227C67.92 90.7959 66.9945 90.7287 66.0959 90.5381C61.6296 89.5874 57.8242 87.4416 54.7227 84.0881C51.7256 80.848 49.8984 77.0407 49.241 72.6662C49.1461 72.033 49.084 71.3955 49 70.7598V68.2402C49.026 68.0907 49.0563 67.9412 49.0773 67.7909C49.2024 66.8923 49.2704 65.9811 49.4594 65.0959C50.4135 60.6153 52.5668 56.7999 55.9396 53.6941C59.1741 50.7138 62.9719 48.8961 67.3329 48.241C67.9662 48.1461 68.6045 48.084 69.2402 48ZM70.5 50.6875C60.1246 50.6875 51.7051 59.1002 51.6875 69.4798C51.6699 79.8595 60.112 88.3125 70.5 88.3125C80.8746 88.3125 89.294 79.8998 89.3125 69.5202C89.331 59.1405 80.888 50.6875 70.5 50.6875Z" fill="white"/>
<path d="M78.5226 78.9436C76.5809 73.3166 74.6593 67.7535 72.7277 62.1467C73.2392 62.1039 73.6944 62.0703 74.1487 62.0266C74.3437 62.0139 74.5372 61.9833 74.7265 61.9351C74.8636 61.8982 74.9827 61.8131 75.0619 61.6953C75.1411 61.5775 75.175 61.4351 75.1574 61.2943C75.1305 60.9995 74.9743 60.7904 74.6812 60.729C74.516 60.7024 74.3483 60.6951 74.1815 60.7072C72.4338 60.7559 70.6869 60.8315 68.94 60.8483C68.0464 60.8567 67.152 60.7568 66.2584 60.7114C66.0778 60.6948 65.8959 60.7002 65.7167 60.7274C65.5717 60.7596 65.4426 60.8417 65.3518 60.9592C65.261 61.0767 65.2142 61.2223 65.2195 61.3707C65.2136 61.5128 65.2619 61.6518 65.3547 61.7596C65.4475 61.8674 65.5778 61.9358 65.7192 61.951C66.2025 62.0263 66.6895 62.0765 67.178 62.1014C67.43 62.1139 67.5442 62.208 67.629 62.4373C68.3891 64.4941 69.1634 66.5458 69.9226 68.6034C69.9757 68.7573 69.9787 68.924 69.931 69.0796C68.8174 72.3589 67.6976 75.6363 66.5716 78.9117C66.5582 78.9511 66.5397 78.9889 66.4877 79.1191L60.6306 62.1543C61.1211 62.1123 61.5595 62.0778 61.9962 62.0358C62.1912 62.0231 62.385 61.995 62.5757 61.9519C62.9116 61.8679 63.0695 61.6378 63.0552 61.3102C63.0556 61.1617 62.9999 61.0186 62.8991 60.9095C62.7983 60.8004 62.6599 60.7336 62.5118 60.7223C62.316 60.7085 62.1194 60.7107 61.9239 60.729C60.4565 60.7806 58.989 60.8321 57.5215 60.8836C57.3888 60.8878 57.2544 60.8668 57.1016 60.8567C62.2246 53.0151 73.88 51.3035 81.2891 57.8803C81.0144 57.9133 80.7416 57.9606 80.4719 58.0222C78.9518 58.4522 78.1052 60.0639 78.6385 61.6672C78.8812 62.4003 79.2793 63.0907 79.6749 63.7617C80.1721 64.6058 80.6735 65.4414 80.9985 66.3728C81.5461 67.9391 81.4646 69.5113 80.9918 71.0759C80.2225 73.6165 79.4338 76.1503 78.652 78.6857C78.6136 78.774 78.5704 78.8601 78.5226 78.9436V78.9436Z" fill="white"/>
<path d="M75.8221 84.3179C72.5468 85.3962 69.2848 85.4937 65.9473 84.5581C67.5614 80.0028 69.1571 75.4794 70.7848 70.8745L75.8221 84.3179Z" fill="white"/>
<path d="M63.4533 83.6092C55.2044 79.6552 52.4069 70.2666 55.7872 63.1548L63.4533 83.6092Z" fill="white"/>
<path d="M84.7197 62.2065C88.4537 68.5532 86.8193 78.3131 78.6309 83.0347C78.6896 82.8549 78.7258 82.7365 78.7669 82.6198C80.4892 77.7756 82.2114 72.9325 83.9336 68.0905C84.5711 66.2915 84.8801 64.4414 84.7029 62.5265C84.6954 62.4425 84.692 62.3586 84.692 62.2746C84.6971 62.2504 84.7065 62.2274 84.7197 62.2065V62.2065Z" fill="white"/>
<defs>
<filter id="filter0_d" x="26" y="26" width="88" height="88" filterUnits="userSpaceOnUse" color-interpolation-filters="sRGB">
<feFlood flood-opacity="0" result="BackgroundImageFix"/>
<feColorMatrix in="SourceAlpha" type="matrix" values="0 0 0 0 0 0 0 0 0 0 0 0 0 0 0 0 0 0 127 0"/>
<feOffset/>
<feGaussianBlur stdDeviation="2"/>
<feColorMatrix type="matrix" values="0 0 0 0 0 0 0 0 0 0 0 0 0 0 0 0 0 0 0.4 0"/>
<feBlend mode="normal" in2="BackgroundImageFix" result="effect1_dropShadow"/>
<feBlend mode="normal" in="SourceGraphic" in2="effect1_dropShadow" result="shape"/>
</filter>
</defs>
</svg>
