<svg width="140" height="140" viewBox="0 0 140 140" fill="none" xmlns="http://www.w3.org/2000/svg">
<rect x="30" y="30" width="80" height="80" rx="12" fill="#FFE01B"/>
<rect x="46" y="46" width="48" height="48" fill="#590000" fill-opacity="0.01"/>
<g clip-path="url(#clip0)">
<path d="M81.6104 60.4044C82.4998 61.3111 83.0167 62.4126 83.2691 63.6297C83.4313 64.4147 83.5034 65.2302 83.5515 66.0334C83.5996 66.788 83.5635 67.5487 83.5635 68.2668C84.3508 68.5407 85.0659 68.7597 85.7631 69.0336C86.1597 69.1918 86.5443 69.3926 86.9049 69.63C88.4193 70.6158 88.852 72.3928 87.9626 73.9811C87.8484 74.1819 87.8304 74.3462 87.9145 74.5714C88.0888 75.0339 88.215 75.5146 88.3712 75.9832C88.4013 76.0684 88.4554 76.1901 88.5275 76.2084C89.4349 76.4518 89.7895 77.1394 89.9397 77.9853C90.102 78.9347 89.9457 79.8657 89.7234 80.7786C88.6236 85.2271 85.9193 88.3428 81.8929 90.3328C80.1441 91.1969 78.2811 91.6777 76.346 91.8785C72.9385 92.2375 69.6393 91.8481 66.5022 90.4058C62.9866 88.7871 60.3724 86.2312 58.7378 82.6712C58.6957 82.5738 58.5756 82.4521 58.4854 82.446C56.6525 82.3243 55.1381 81.5393 53.9061 80.1944C52.1933 78.32 51.8508 76.1232 52.5419 73.7255C52.608 73.4882 52.578 73.3665 52.3917 73.2204C52.0191 72.9283 51.6705 72.6058 51.3099 72.3015C50.4265 71.5591 50.0419 70.5793 50.0058 69.4413C49.9518 67.7922 50.4686 66.2708 51.1296 64.7981C52.3316 62.1205 54.0022 59.7471 55.9013 57.5381C57.9686 55.1222 60.2522 52.9436 62.9145 51.197C64.2967 50.2903 65.745 49.5175 67.3736 49.1645C68.5756 48.9028 69.7594 48.9089 70.8472 49.6148C71.0575 49.7487 71.2498 49.913 71.4301 50.0895C72.0311 50.6737 72.626 51.2579 73.209 51.8604C73.3652 52.0186 73.4854 52.0551 73.6957 51.9577C75.0299 51.3553 76.3881 50.8319 77.8364 50.5581C79.2066 50.3025 80.5707 50.2112 81.9409 50.5824C84.1104 51.1727 85.1501 52.8888 84.6933 55.11C84.3508 56.7531 83.5034 58.1223 82.4818 59.4003C82.1933 59.7411 81.9049 60.0575 81.6104 60.4044ZM87.4397 77.4863C87.2174 76.7135 86.995 75.9589 86.7667 75.1799C86.6645 75.2408 86.6405 75.259 86.6164 75.2712C83.3352 77.6811 79.6212 78.4722 75.6489 78.3079C74.9818 78.2835 74.3147 78.1922 73.6477 78.174C73.227 78.1618 72.9626 78.4417 72.8724 78.8921C72.9566 78.9225 73.0467 78.9651 73.1429 78.9955C75.126 79.6406 77.1573 79.7866 79.2186 79.5919C79.3147 79.5858 79.4109 79.6345 79.507 79.6588C79.4349 79.7379 79.3748 79.8353 79.2847 79.8901C79.2066 79.9449 79.0984 79.9631 79.0022 79.9935C77.4097 80.4682 75.8051 80.45 74.1945 80.1335C73.7198 80.0422 73.251 79.9144 72.7462 79.7988C72.8063 80.1822 72.9866 80.4621 73.233 80.7055C73.6657 81.1254 74.2006 81.3445 74.7655 81.4906C76.5263 81.947 78.2931 81.88 80.0539 81.5149C82.2594 81.0585 84.2967 80.17 86.1897 78.9408C86.2619 78.8982 86.334 78.8616 86.4061 78.819C86.4241 78.8373 86.4421 78.8556 86.4602 78.8738C86.4061 78.9712 86.364 79.0868 86.2919 79.1598C85.8171 79.6041 85.3784 80.1153 84.8436 80.4743C82.001 82.3912 78.858 83.091 75.4806 82.7137C74.5131 82.6042 73.5876 82.2817 72.7883 81.6914C71.8268 80.9794 71.4782 80.0057 71.7066 78.8373C71.9109 77.7723 72.7282 77.0177 73.6717 77.0299C74.1585 77.036 74.6453 77.1334 75.132 77.1699C76.8388 77.3038 78.5275 77.1699 80.1982 76.8047C82.0311 76.4092 83.7679 75.758 85.3063 74.6505C85.8953 74.2245 86.4301 73.7316 86.7246 73.0378C87.0551 72.265 86.8869 71.5347 86.2138 71.0479C85.8412 70.7801 85.4265 70.561 84.9998 70.3967C84.3087 70.1351 83.5936 69.9342 82.8905 69.7212C82.4518 69.5874 82.2294 69.2831 82.1633 68.851C82.1272 68.6015 82.1092 68.3459 82.0912 68.0964C82.0251 66.9828 82.007 65.8691 81.8929 64.7616C81.8328 64.2017 81.6585 63.6297 81.4241 63.1185C81.1296 62.4613 80.5527 62.1692 79.8256 62.2239C79.3328 62.2605 78.9241 62.4795 78.5635 62.796C77.8484 63.4228 77.0671 63.9583 76.1056 64.0252C75.3003 64.08 74.489 63.9948 73.6837 63.9583C72.9566 63.9279 72.2354 63.7818 71.5022 63.9644C69.6693 64.4208 68.2751 66.2647 68.227 68.279C68.1969 69.7395 68.7078 70.987 69.6092 72.0946C69.9878 72.5571 70.3844 72.9952 70.751 73.4638C71.0395 73.8289 71.0155 74.0602 70.715 74.4071C70.5647 74.5835 70.4085 74.7539 70.2643 74.9365C69.3087 76.1901 68.8099 77.6202 68.6897 79.1903C68.5094 81.6366 69.1825 83.7726 71.0155 85.4279C73.1489 87.3631 75.727 87.8986 78.5034 87.6673C80.2402 87.5213 81.8688 86.9797 83.3832 86.1216C85.5707 84.8802 87.2174 83.1397 88.0707 80.7177C88.3051 80.0483 88.4253 79.3302 88.5034 78.6182C88.5756 78.0036 88.2871 77.6263 87.8304 77.5107C87.6982 77.4924 87.5599 77.4985 87.4397 77.4863ZM71.9049 52.8645C71.3881 52.3168 70.8832 51.8117 70.4025 51.2822C69.8977 50.7163 69.2727 50.5459 68.5575 50.6128C68.3412 50.6311 68.1188 50.6615 67.9025 50.7041C66.364 51.0084 64.9938 51.7143 63.7018 52.5663C59.2546 55.5117 55.7751 59.382 53.209 64.0922C52.4037 65.571 51.7366 67.1167 51.5623 68.8389C51.4241 70.2263 52.0732 71.4495 53.3292 72.0702C53.3472 72.0581 53.3652 72.052 53.3772 72.0337C54.2006 70.9323 55.2883 70.2446 56.6104 69.9221C56.7066 69.8977 56.8087 69.7638 56.8568 69.6604C57.1693 68.9484 57.4397 68.2181 57.7643 67.5122C59.477 63.8001 61.7787 60.5322 64.8736 57.8728C67.0491 56.0046 69.3688 54.3311 71.9049 52.8645ZM61.8568 77.0056C61.8207 75.7337 61.7126 74.827 61.37 73.9567C60.3724 71.4191 57.614 70.6158 55.4445 72.2346C53.9962 73.3117 53.3592 75.6485 54.0683 77.4559C54.7775 79.2572 56.1056 80.3587 57.9686 80.7542C59.5972 81.1011 61.0155 80.2552 61.5203 78.6547C61.7246 78.0158 61.7967 77.3342 61.8568 77.0056ZM73.84 57.4286C74.0263 57.2095 74.1405 57.0574 74.2727 56.9235C74.4049 56.7835 74.5491 56.6557 74.6873 56.5218C72.9385 56.601 71.3941 57.2399 69.9337 58.1406C69.9037 58.1102 69.8736 58.0858 69.8436 58.0554C70.0119 57.6233 70.1741 57.1973 70.3424 56.7713C69.3087 57.0087 65.3784 60.2705 65.0659 61.1711C68.9962 58.5605 73.245 57.6051 77.8844 58.5544C76.6645 57.812 75.3244 57.5259 73.84 57.4286Z" fill="black"/>
<path d="M81.0926 68.4491C81.0926 68.4795 81.0926 68.51 81.0926 68.5404C81.0865 69.3011 80.8822 69.4654 80.1431 69.2828C80.0709 69.2646 79.9928 69.1854 79.9507 69.1185C79.5301 68.3578 79.3498 67.5424 79.4039 66.6782C79.4219 66.3496 79.6383 66.1062 79.8907 66.0575C80.1911 65.9967 80.4495 66.1123 80.6298 66.447C80.9603 67.0616 81.0745 67.7432 81.0926 68.4491Z" fill="black"/>
<path d="M73.5104 68.7295C74.2075 68.7843 74.8145 69.0155 75.3313 69.4658C75.4816 69.5936 75.6138 69.7579 75.7159 69.9283C75.77 70.0196 75.752 70.1535 75.77 70.2691C75.6558 70.2752 75.5417 70.3056 75.4395 70.2874C75.3253 70.2691 75.2111 70.2083 75.109 70.1535C74.1354 69.6484 73.1378 69.6423 72.1162 69.9953C71.9299 70.0622 71.7376 70.1231 71.5393 70.1596C71.4431 70.1778 71.2869 70.1535 71.2508 70.0926C71.2087 70.0257 71.2448 69.8736 71.2989 69.7945C71.5813 69.3928 71.99 69.1433 72.4347 68.9912C72.7893 68.8573 73.1559 68.8086 73.5104 68.7295Z" fill="black"/>
<path d="M75.3851 71.3403C74.5858 71.2186 73.8706 71.2856 73.1735 71.5655C73.0894 71.602 72.9752 71.5472 72.873 71.5351C72.8911 71.4316 72.873 71.3099 72.9271 71.2247C73.3718 70.4762 74.8803 70.2998 75.4933 70.9326C75.5594 70.9996 75.6255 71.1395 75.6014 71.2125C75.5714 71.2856 75.4271 71.316 75.3851 71.3403Z" fill="black"/>
<path d="M78.8876 72.5335C78.4009 72.4848 78.1124 72.3265 77.9501 71.9918C77.7819 71.6571 77.9622 71.3224 78.3287 71.2798C78.6713 71.2372 78.9597 71.3589 79.1821 71.6206C79.3323 71.7971 79.4465 72.0223 79.3023 72.2231C79.1941 72.3813 78.9778 72.4726 78.8876 72.5335Z" fill="black"/>
<path d="M81.2732 71.0241C81.2732 71.0667 81.2792 71.1032 81.2732 71.1458C81.2371 71.5109 80.9847 71.7908 80.7143 71.7908C80.4378 71.7848 80.1854 71.4987 80.1794 71.1336C80.1734 70.9571 80.1794 70.7441 80.2695 70.6102C80.3717 70.452 80.576 70.2695 80.7383 70.2755C80.8946 70.2755 81.0748 70.4764 81.201 70.6224C81.2792 70.7198 81.2732 70.8841 81.3032 71.0241C81.2912 71.018 81.2792 71.018 81.2732 71.0241Z" fill="black"/>
<path d="M57.7084 72.983C58.8382 72.9161 60.1303 74.1697 59.6615 75.7032C59.5774 75.971 59.4632 76.2327 59.373 76.5004C59.3009 76.7073 59.2168 76.9203 59.1807 77.1333C59.1146 77.5411 59.4091 77.8514 59.8178 77.8271C59.8779 77.821 59.938 77.7906 59.992 77.7967C60.1303 77.821 60.2625 77.8575 60.4007 77.8879C60.3286 78.034 60.2985 78.2166 60.1843 78.3139C59.7216 78.7095 58.9944 78.5878 58.6279 78.0644C58.2372 77.5106 58.3033 76.9082 58.4476 76.2875C58.5317 75.9406 58.6339 75.5754 58.5978 75.2286C58.5437 74.7052 58.1591 74.3949 57.6242 74.3036C57.1855 74.2306 56.6988 74.4618 56.4584 74.8817C56.3622 75.046 56.3021 75.2286 56.23 75.4051C56.194 75.4903 56.194 75.5998 56.1339 75.6546C56.0197 75.7641 55.8815 75.8493 55.7553 75.9406C55.6831 75.8067 55.5449 75.6789 55.5449 75.545C55.5449 75.2347 55.575 74.9182 55.6651 74.62C55.9596 73.6038 56.7529 72.9769 57.7084 72.983Z" fill="black"/>
</g>
<defs>
<clipPath id="clip0">
<rect width="40" height="43" fill="white" transform="translate(50 49)"/>
</clipPath>
</defs>
</svg>
