<svg width="140" height="140" viewBox="0 0 140 140" fill="none" xmlns="http://www.w3.org/2000/svg">
<rect opacity="0.01" width="140" height="140" fill="#0B0B0C"/>
<g filter="url(#filter0_d)">
<rect x="30" y="30" width="80" height="80" rx="12" fill="white"/>
</g>
<g clip-path="url(#clip0)">
<path d="M53.0246 89.7331C53.0164 89.7331 53.0081 89.7324 53 89.731V49.0189C53.0081 49.0174 53.0164 49.0167 53.0246 49.0166C53.0261 49.099 53.0287 49.1813 53.029 49.264L53.0334 51.1879C53.0334 51.2465 53.0299 51.3052 53.0299 51.3638C53.0299 61.0313 53.0299 70.6989 53.0299 80.3667C53.0299 80.4203 53.0325 80.4739 53.034 80.5276C53.034 80.5715 53.0302 80.6155 53.0302 80.6592C53.0302 83.6058 53.0302 86.5525 53.0302 89.4992C53.0293 89.5774 53.0261 89.6554 53.0246 89.7331Z" fill="#AEDEC7"/>
<path d="M56.0763 92.75C56.076 92.7421 56.0753 92.7341 56.0742 92.7263C56.1082 92.7242 56.1422 92.7207 56.1762 92.7207H83.7479C83.8161 92.7207 83.8841 92.7239 83.953 92.7257C83.9519 92.7336 83.9512 92.7415 83.951 92.7494L56.0763 92.75Z" fill="#B9E0CE"/>
<path d="M86.9994 89.7311C86.9913 89.7326 86.9831 89.7334 86.9748 89.7334C86.9733 89.6261 86.9707 89.5189 86.9707 89.411C86.9707 81.9115 86.9707 74.4119 86.9707 66.9124C86.9707 66.8587 86.973 66.8051 86.9745 66.7515H86.9994V89.7311Z" fill="#ACDCC5"/>
<path d="M56.0742 46.024C56.0742 46.0158 56.0742 46.0079 56.0763 46H74.2487C74.2487 46.0078 74.2493 46.0155 74.2504 46.0232L74.2466 46.0349L74.1021 46.0334C74.0535 46.0334 74.0048 46.0293 73.9556 46.0293C68.0636 46.0293 62.1714 46.0293 56.2788 46.0293C56.2105 46.0293 56.1425 46.0258 56.0742 46.024Z" fill="#BEE4D2"/>
<path d="M87.0002 66.7517H86.9753C86.9724 66.6538 86.9697 66.5559 86.9668 66.4586C86.9683 66.4243 86.9706 66.3903 86.9706 66.3563C86.9706 63.821 86.9706 61.2855 86.9706 58.75H86.9999L87.0002 66.7517Z" fill="#A6D5BE"/>
<path d="M74.2525 46.0234C74.3014 46.0709 74.351 46.1175 74.3991 46.1659C78.549 50.3153 82.6987 54.4652 86.848 58.6157C86.8833 58.6547 86.9163 58.6956 86.9471 58.7383C86.894 58.7424 86.841 58.7497 86.7879 58.7497C83.6388 58.7497 80.4898 58.7504 77.3409 58.7517C77.1573 58.7529 76.9741 58.7333 76.7949 58.6931C76.4971 58.6245 76.2087 58.5322 75.9417 58.381C75.8285 58.3168 75.7145 58.2543 75.6008 58.191L75.5422 58.1617C75.5367 58.1487 75.5293 58.1367 75.5202 58.126C75.3971 58.0216 75.2699 57.9223 75.1509 57.8138C75.0706 57.7405 75.0017 57.6549 74.9275 57.5746C74.9027 57.5234 74.8752 57.4735 74.8452 57.4252C74.4516 56.8684 74.2435 56.2018 74.2502 55.52C74.2554 52.4998 74.2561 49.4795 74.2522 46.459C74.2522 46.3174 74.2522 46.1761 74.2502 46.0346L74.2525 46.0234Z" fill="#8DD0B0"/>
<path d="M75.5996 58.1909C75.7133 58.2542 75.8274 58.3167 75.9405 58.3808C76.2078 58.5321 76.4959 58.6244 76.7937 58.693C76.9729 58.7331 77.1561 58.7528 77.3398 58.7516C80.4889 58.7497 83.6379 58.749 86.7868 58.7496C86.8398 58.7496 86.8929 58.7422 86.9459 58.7381C86.9547 58.7406 86.9629 58.7447 86.9702 58.7502C86.9702 61.2855 86.9702 63.8209 86.9702 66.3565C86.9702 66.3905 86.9679 66.4245 86.9664 66.4588C85.9992 66.4588 85.032 66.4588 84.0647 66.4608C83.9673 66.4658 83.8716 66.4345 83.7959 66.3729C83.7156 66.3043 83.635 66.2334 83.5937 66.1276C83.5782 66.0877 83.5351 66.0555 83.4982 66.027C83.3358 65.899 83.1549 65.7896 83.0095 65.646C80.5746 63.2175 78.1419 60.7867 75.7113 58.3536C75.6789 58.3239 75.6482 58.2923 75.6195 58.2589C75.6089 58.2376 75.6022 58.2146 75.5996 58.1909V58.1909Z" fill="#1D915A"/>
<path d="M75.6 58.191C75.6031 58.214 75.6103 58.2364 75.6211 58.257C75.6498 58.2903 75.6804 58.3219 75.7128 58.3516C78.1444 60.7832 80.5772 63.214 83.0111 65.644C83.1576 65.7888 83.3373 65.8982 83.4997 66.0251C83.536 66.0544 83.5797 66.0857 83.5952 66.1256C83.6366 66.2314 83.7172 66.3015 83.7975 66.3709C83.8731 66.4325 83.9689 66.4638 84.0663 66.4589C85.0335 66.4554 86.0007 66.4568 86.968 66.4568C86.9709 66.5544 86.9736 66.6523 86.9765 66.7499C86.975 66.8036 86.9727 66.8572 86.9727 66.9108C86.9727 74.4106 86.9727 81.9101 86.9727 89.4095C86.9727 89.5167 86.9753 89.624 86.9768 89.7319C86.9311 90.2366 86.8062 90.7126 86.5406 91.1549C86.2855 91.5826 85.9368 91.947 85.5206 92.2206C85.1459 92.4713 84.7184 92.6323 84.2714 92.6913C84.1662 92.7054 84.0607 92.7136 83.9552 92.7247C83.8869 92.723 83.8189 92.7198 83.75 92.7198H56.1783C56.1443 92.7198 56.1103 92.7233 56.0763 92.7253C55.8688 92.7323 55.6614 92.7084 55.4608 92.6544C55.247 92.5949 55.0387 92.5172 54.8383 92.422C54.5587 92.2968 54.3107 92.1198 54.0797 91.9178C53.5815 91.4823 53.2743 90.9301 53.0975 90.3025C53.0442 90.1172 53.0194 89.9249 53.024 89.7322C53.0254 89.6545 53.0284 89.5765 53.0284 89.4977C53.0284 86.551 53.0284 83.6043 53.0284 80.6577C53.0284 80.6137 53.0307 80.5697 53.0322 80.5261C53.0781 80.5394 53.1249 80.5492 53.1723 80.5554C53.3994 80.5674 53.6266 80.5847 53.8537 80.5847C54.2421 80.5823 54.6302 80.568 55.0182 80.5554C55.1437 80.5558 55.269 80.5481 55.3934 80.5322C55.6305 80.4947 55.8726 80.4894 56.1121 80.4675C56.3035 80.4502 56.4952 80.4346 56.6851 80.4062C56.8926 80.3754 57.0984 80.332 57.3047 80.2922C57.614 80.2336 57.9252 80.1796 58.2315 80.1061C58.5979 80.0181 58.9643 79.9223 59.3231 79.8091C59.9679 79.606 60.6066 79.3853 61.2265 79.1133C61.3123 79.0755 61.3959 79.0166 61.4993 79.0318C61.5008 79.4275 61.5037 79.8232 61.5037 80.2186C61.5037 81.4887 61.5037 82.7588 61.5037 84.029C61.5037 84.0949 61.4914 84.1647 61.5348 84.2204C61.9909 84.2497 78.3589 84.2359 78.4844 84.2036V68.8565H78.3068C76.4358 68.8565 74.5648 68.8565 72.6938 68.8565C72.6352 68.8565 72.5766 68.8512 72.518 68.8482C72.5282 68.8019 72.5282 68.7498 72.5505 68.7102C72.6856 68.4707 72.8284 68.236 72.9632 67.9968C73.1599 67.648 73.3615 67.3015 73.5447 66.946C73.8718 66.3097 74.1995 65.6736 74.4827 65.0162C74.5999 64.7425 74.7324 64.4737 74.8473 64.1982C75.0076 63.8124 75.1615 63.4241 75.3121 63.0342C75.4605 62.6494 75.6052 62.2631 75.7445 61.8747C76.0294 61.0757 76.2817 60.2662 76.5186 59.4519C76.5479 59.3467 76.5385 59.2579 76.4488 59.177C76.3187 59.0598 76.2023 58.9264 76.073 58.8074C75.9936 58.7372 75.9093 58.6727 75.8207 58.6145C75.6155 58.473 75.396 58.3507 75.2327 58.1532C75.1635 58.0697 75.0736 58.0037 74.9929 57.9293C74.8848 57.8293 74.8637 57.7241 74.9211 57.5752C74.9953 57.6555 75.0642 57.7411 75.1445 57.8144C75.2635 57.9228 75.3907 58.0222 75.5138 58.1265C75.5229 58.1372 75.5303 58.1493 75.5358 58.1623L75.5944 58.1916L75.6 58.191Z" fill="#19A05F"/>
<path d="M56.076 46.0249C56.1443 46.0267 56.2123 46.0302 56.2812 46.0302C62.1733 46.0302 68.0654 46.0302 73.9574 46.0302C74.006 46.0302 74.0547 46.0328 74.1039 46.0343V46.206C74.0509 46.2199 73.9969 46.2297 73.9424 46.2354C73.251 46.2532 72.5596 46.2371 71.8672 46.2576C70.8121 46.289 69.7569 46.2576 68.7017 46.2679C67.6466 46.2781 66.5958 46.255 65.5421 46.2878C64.4977 46.3206 63.4517 46.2878 62.4059 46.2972C61.3601 46.3066 60.3096 46.2711 59.2609 46.3195C58.6615 46.347 58.0591 46.3245 57.4586 46.3245C57.4245 46.3223 57.3903 46.3223 57.3563 46.3245C57.2581 46.3374 57.2182 46.3784 57.2218 46.4766C57.2244 46.5581 57.2511 46.639 57.2478 46.7199C57.2373 47.185 57.2892 47.6528 57.1919 48.1147C57.1455 48.3346 57.1236 48.5611 57.0605 48.7757C56.907 49.3139 56.6641 49.8225 56.3419 50.2802C56.1229 50.5868 55.867 50.8517 55.5505 51.0569C55.2533 51.2495 54.9458 51.4063 54.5865 51.4582C54.3696 51.4858 54.1505 51.4911 53.9325 51.474C53.7597 51.4664 53.5901 51.4238 53.4343 51.3485C53.3065 51.2838 53.1678 51.2407 53.0342 51.1879L53.0298 49.2649C53.0298 49.1822 53.0269 49.0999 53.0254 49.0175C53.0626 48.2607 53.3566 47.6129 53.8596 47.054C54.2983 46.566 54.847 46.2606 55.4757 46.1008C55.6698 46.0513 55.8755 46.0486 56.076 46.0249Z" fill="#2DA96D"/>
<path d="M53.0337 51.1887C53.1673 51.2415 53.306 51.2845 53.4338 51.3493C53.5896 51.4245 53.7592 51.4672 53.9321 51.4748C54.15 51.4919 54.3691 51.4866 54.586 51.4589C54.9453 51.4071 55.2528 51.2502 55.55 51.0577C55.8671 50.8525 56.123 50.5887 56.3414 50.281C56.6636 49.8228 56.9065 49.3137 57.0598 48.775C57.1228 48.5604 57.1448 48.3353 57.1911 48.114C57.2884 47.6521 57.2365 47.1843 57.2471 46.7192C57.2491 46.6383 57.2236 46.5574 57.221 46.4759C57.2174 46.3777 57.2573 46.3367 57.3555 46.3238C57.3896 46.3216 57.4237 46.3216 57.4578 46.3238C58.0587 46.3238 58.6595 46.3463 59.2601 46.3188C60.3088 46.2704 61.3569 46.3053 62.4051 46.2965C63.4532 46.2877 64.4967 46.32 65.5413 46.2871C66.595 46.2543 67.6478 46.2757 68.7009 46.2672C69.7541 46.2587 70.8113 46.2883 71.8665 46.2569C72.5588 46.2364 73.2502 46.2525 73.9416 46.2347C73.9963 46.2293 74.0505 46.2197 74.1037 46.2059V46.0342L74.2479 46.0356C74.2479 46.1772 74.25 46.3185 74.25 46.4601C74.25 49.4804 74.2493 52.5007 74.2479 55.5211C74.2412 56.2028 74.4494 56.8694 74.8429 57.4262C74.8729 57.4746 74.9004 57.5245 74.9253 57.5757C74.8667 57.7255 74.8889 57.8298 74.9971 57.9298C75.0777 58.0042 75.1677 58.0702 75.2368 58.1537C75.4001 58.3513 75.6193 58.4735 75.8248 58.6151C75.9134 58.6732 75.9978 58.7377 76.0772 58.8079C76.2064 58.9269 76.3228 59.06 76.4529 59.1775C76.5426 59.2584 76.5532 59.3472 76.5227 59.4525C76.2859 60.2667 76.0335 61.0762 75.7486 61.8752C75.61 62.2636 75.4646 62.6499 75.3163 63.0348C75.1656 63.4246 75.0117 63.813 74.8514 64.1987C74.7365 64.4742 74.6055 64.743 74.4868 65.0167C74.2025 65.6742 73.8748 66.3102 73.5489 66.9465C73.3657 67.3021 73.164 67.6485 72.9673 67.9973C72.8325 68.2365 72.6898 68.4712 72.5547 68.7107C72.5324 68.7503 72.5324 68.8025 72.5221 68.8488C72.4635 68.852 72.4049 68.8576 72.3463 68.8576C69.2003 68.8576 66.0549 68.8576 62.9101 68.8576C62.4851 68.8576 62.0602 68.8576 61.6354 68.8576C61.5941 68.8576 61.5524 68.8637 61.5053 68.8675V69.0554C61.5053 72.3229 61.5053 75.5903 61.5053 78.8577C61.5053 78.9163 61.5023 78.9749 61.5006 79.0335C61.3971 79.0183 61.3136 79.0772 61.2277 79.115C60.6078 79.387 59.9691 79.6077 59.3243 79.8108C58.9649 79.924 58.5991 80.0195 58.2328 80.1077C57.9265 80.1813 57.6152 80.2338 57.306 80.2939C57.1008 80.3337 56.8939 80.3771 56.6863 80.4079C56.4964 80.4372 56.3053 80.4519 56.1133 80.4691C55.8739 80.4911 55.6318 80.4964 55.3946 80.5339C55.2702 80.5498 55.1449 80.5575 55.0195 80.5571C54.6314 80.5682 54.2433 80.5826 53.855 80.5864C53.6278 80.5864 53.4007 80.57 53.1735 80.5571C53.1261 80.5509 53.0793 80.5411 53.0334 80.5278C53.0334 80.4741 53.0293 80.4205 53.0293 80.3669C53.0295 70.6997 53.0296 61.0323 53.0296 51.3646C53.0296 51.3059 53.0322 51.2473 53.0337 51.1887Z" fill="#21A464"/>
<path d="M75.5996 58.1929L75.541 58.1636L75.5996 58.1929Z" fill="#1D915A"/>
<path d="M61.5 79.0324C61.5018 78.9738 61.5047 78.9152 61.5047 78.8565C61.5047 75.589 61.5047 72.3216 61.5047 69.0543V68.8664C61.5519 68.8626 61.5926 68.8567 61.6348 68.8564C62.0598 68.8564 62.4847 68.8564 62.9095 68.8564C66.0555 68.8564 69.2009 68.8564 72.3457 68.8564C72.4043 68.8564 72.4629 68.8509 72.5216 68.8477C72.5802 68.8506 72.6388 68.8559 72.6974 68.8559C74.5682 68.8559 76.4392 68.8559 78.3103 68.8559H78.488V84.2039C78.3637 84.2362 61.9945 84.2508 61.5384 84.2206C61.495 84.1649 61.5073 84.0952 61.5073 84.0292C61.5073 82.7591 61.5073 81.489 61.5073 80.2189C61.505 79.8238 61.5021 79.4281 61.5 79.0324ZM68.9378 70.9782H63.6461C63.6168 71.2493 63.6282 73.5103 63.6578 73.6112C64.2499 73.6425 68.8182 73.6267 68.9378 73.5921V70.9782ZM76.3592 70.985C76.1672 70.9557 71.1645 70.9644 71.0672 70.9917V73.6074H76.3603L76.3592 70.985ZM63.6443 75.2253V77.8553H68.9346V75.2253H63.6443ZM76.3594 75.235C76.1871 75.2056 71.1677 75.2133 71.0669 75.2402V77.8565H76.3603L76.3594 75.235ZM68.9337 82.11V79.4767H63.6479C63.6203 79.6977 63.6288 82.0077 63.6569 82.11H68.9337ZM71.0622 82.1068H76.3533C76.3826 81.862 76.3715 79.5749 76.343 79.4744C75.8336 79.4451 71.1821 79.4595 71.0622 79.492V82.1068Z" fill="#F1F1F1"/>
<path d="M68.9373 70.9785V73.5924C68.8177 73.627 64.2494 73.6428 63.6574 73.6114C63.628 73.5106 63.6169 71.2496 63.6456 70.9785H68.9373Z" fill="#1DA262"/>
<path d="M76.3596 70.9852V73.6075H71.0664V70.9919C71.1637 70.9646 76.1664 70.9567 76.3596 70.9852Z" fill="#1BA161"/>
<path d="M63.6445 75.2256H68.9348V77.8556H63.6445V75.2256Z" fill="#1CA261"/>
<path d="M76.3599 75.2352V77.8567H71.0664V75.2405C71.1672 75.2135 76.1866 75.2067 76.3599 75.2352Z" fill="#1AA160"/>
<path d="M68.933 82.1103H63.6572C63.6279 82.008 63.6205 79.6981 63.6481 79.4771H68.933V82.1103Z" fill="#1BA161"/>
<path d="M71.0625 82.1054V79.4906C71.1824 79.4581 75.8339 79.4435 76.3433 79.4731C76.3727 79.5736 76.3817 81.8607 76.3536 82.1054H71.0625Z" fill="#19A15F"/>
</g>
<defs>
<filter id="filter0_d" x="26" y="26" width="88" height="88" filterUnits="userSpaceOnUse" color-interpolation-filters="sRGB">
<feFlood flood-opacity="0" result="BackgroundImageFix"/>
<feColorMatrix in="SourceAlpha" type="matrix" values="0 0 0 0 0 0 0 0 0 0 0 0 0 0 0 0 0 0 127 0"/>
<feOffset/>
<feGaussianBlur stdDeviation="2"/>
<feColorMatrix type="matrix" values="0 0 0 0 0 0 0 0 0 0 0 0 0 0 0 0 0 0 0.4 0"/>
<feBlend mode="normal" in2="BackgroundImageFix" result="effect1_dropShadow"/>
<feBlend mode="normal" in="SourceGraphic" in2="effect1_dropShadow" result="shape"/>
</filter>
<clipPath id="clip0">
<rect width="34" height="46.75" fill="white" transform="translate(53 46)"/>
</clipPath>
</defs>
</svg>
