<svg width="140" height="140" viewBox="0 0 140 140" fill="none" xmlns="http://www.w3.org/2000/svg">
<rect opacity="0.01" width="140" height="140" fill="#0F0E10"/>
<rect x="30" y="30" width="80" height="80" rx="12" fill="white"/>
<rect x="46" y="46" width="48" height="48" fill="#590000" fill-opacity="0.01"/>
<path d="M90.0006 71.6185V78.907C90.0006 79.5191 89.7919 79.8217 89.2229 80.0427C86.0729 81.2659 82.9227 82.4891 79.7721 83.7125C77.4641 84.6112 75.1561 85.5105 72.8478 86.4104C72.2524 86.642 71.7697 86.5473 71.5046 86.0981C71.3909 85.8955 71.3303 85.6673 71.3285 85.4349C71.317 82.5578 71.321 79.6807 71.321 76.8032C71.321 74.8068 71.321 72.8104 71.321 70.8139C71.321 70.2084 71.5214 69.9111 72.0837 69.6927C77.5825 67.553 83.0812 65.4138 88.5799 63.2753C89.3233 62.9864 89.9997 63.4462 90.0002 64.2442C90.0022 66.701 90.0024 69.1591 90.0006 71.6185Z" fill="#37CCF4"/>
<path d="M69.9772 67.8081C69.1947 67.8178 68.4557 67.6293 67.7335 67.3417C62.8668 65.404 57.9988 63.4698 53.1292 61.5391C52.6932 61.3665 52.3805 61.1071 52.3431 60.6108C52.3096 60.1563 52.5342 59.7969 52.9799 59.6084C53.8708 59.2319 54.7661 58.8664 55.6597 58.496C59.7113 56.8146 63.7639 55.1333 67.8176 53.4522C69.2396 52.863 70.6744 52.8436 72.0982 53.4293C75.5118 54.8344 78.9222 56.2474 82.3293 57.6681L86.8165 59.5283C86.898 59.5622 86.9794 59.5952 87.0583 59.634C87.444 59.8251 87.6435 60.1338 87.6308 60.5676C87.618 61.0014 87.4026 61.3053 87.0054 61.4669C86.2255 61.7848 85.4411 62.0922 84.6581 62.4036C80.4794 64.0656 76.3001 65.7277 72.1202 67.3897C71.4319 67.6649 70.7206 67.8191 69.9772 67.8081Z" fill="#FED200"/>
<path d="M62.4277 73.8353C61.723 74.1788 61.0215 74.5254 60.3138 74.8649C57.4016 76.2668 54.4892 77.6671 51.5764 79.0658C50.9304 79.3741 50.2086 79.0803 50.0351 78.4351C50.0115 78.3355 50.0008 78.2332 50.0034 78.1308C50.0013 73.5235 50.0003 68.9161 50.0003 64.3087C49.9968 64.1657 50.0262 64.0237 50.0864 63.8939C50.1466 63.7641 50.2359 63.6498 50.3473 63.5601C50.6071 63.7943 50.8612 64.0352 51.1277 64.2616C51.8398 64.8671 52.5576 65.4661 53.2728 66.0672C53.8092 66.5188 54.3455 66.9704 54.8816 67.4223C55.4787 67.9267 56.0752 68.4317 56.6709 68.9372C57.1268 69.3251 57.5835 69.7132 58.0409 70.1016C58.6428 70.6116 59.2447 71.1211 59.8465 71.6302C60.3873 72.0882 60.9277 72.5465 61.4676 73.0051C61.7909 73.2795 62.1084 73.5583 62.4277 73.8353Z" fill="#F24A5C"/>
<path d="M62.43 73.8354C62.1107 73.5583 61.7932 73.2796 61.4712 73.0052C60.9322 72.5454 60.3918 72.0866 59.8502 71.6286C59.248 71.1192 58.6461 70.6096 58.0446 70.1C57.5863 69.7142 57.1291 69.3271 56.6732 68.9386C56.0775 68.4331 55.481 67.9281 54.8839 67.4237C54.3481 66.971 53.8118 66.5193 53.2751 66.0686C52.5599 65.4666 51.8421 64.8677 51.13 64.263C50.8635 64.0367 50.6094 63.7958 50.3496 63.5615C50.6988 63.2228 51.0983 63.1651 51.5444 63.3413L66.0689 69.1104C66.4653 69.2676 66.859 69.4244 67.2553 69.5772C67.686 69.7432 67.9494 70.0449 67.971 70.5122C67.9926 70.9794 67.7398 71.2934 67.3249 71.4929C65.7466 72.2527 64.1692 73.014 62.5929 73.7768C62.541 73.7988 62.4846 73.8151 62.43 73.8354Z" fill="#C03847"/>
</svg>
