<svg width="140" height="140" viewBox="0 0 140 140" fill="none" xmlns="http://www.w3.org/2000/svg">
<rect opacity="0.01" width="140" height="140" fill="#0B0B0C"/>
<g filter="url(#filter0_d)">
<rect x="30" y="30" width="80" height="80" rx="12" fill="white"/>
</g>
<path d="M91.9993 71.48V79.4972C91.9993 80.1706 91.7697 80.5034 91.1438 80.7465C87.6789 82.0919 84.2136 83.4375 80.748 84.7833C78.2093 85.7718 75.6704 86.761 73.1314 87.7508C72.4765 88.0057 71.9455 87.9015 71.6539 87.4074C71.5288 87.1845 71.4621 86.9335 71.4601 86.6778C71.4475 83.5131 71.4519 80.3483 71.4519 77.1831C71.4519 74.987 71.4519 72.791 71.4519 70.5949C71.4519 69.9288 71.6723 69.6019 72.2909 69.3616C78.3395 67.0079 84.388 64.6549 90.4366 62.3025C91.2543 61.9847 91.9983 62.4905 91.9988 63.3683C92.0011 66.0707 92.0012 68.7746 91.9993 71.48Z" fill="#37CCF4"/>
<path d="M69.9752 67.2887C69.1143 67.2994 68.3015 67.092 67.507 66.7757C62.1538 64.6442 56.799 62.5166 51.4425 60.3929C50.9629 60.203 50.619 59.9177 50.5778 59.3718C50.541 58.8718 50.7881 58.4765 51.2783 58.2692C52.2583 57.855 53.2431 57.4529 54.226 57.0455C58.6827 55.196 63.1406 53.3466 67.5995 51.4974C69.1638 50.8493 70.742 50.8279 72.3082 51.4722C76.0631 53.0179 79.8145 54.5721 83.5623 56.1348L88.4981 58.181C88.5878 58.2183 88.6774 58.2547 88.7641 58.2973C89.1884 58.5075 89.4079 58.8471 89.3938 59.3243C89.3798 59.8014 89.1429 60.1357 88.706 60.3135C87.848 60.6632 86.9853 61.0014 86.124 61.3438C81.5274 63.1721 76.9302 65.0003 72.3324 66.8285C71.5752 67.1313 70.7929 67.3008 69.9752 67.2887Z" fill="#FED200"/>
<path d="M61.6703 73.9188C60.8952 74.2967 60.1235 74.6779 59.3451 75.0514C56.1417 76.5935 52.9381 78.1338 49.7341 79.6723C49.0234 80.0114 48.2294 79.6883 48.0386 78.9786C48.0126 78.869 48.0009 78.7565 48.0037 78.6439C48.0014 73.5759 48.0003 68.5078 48.0003 63.4397C47.9964 63.2824 48.0289 63.1262 48.0951 62.9834C48.1612 62.8406 48.2594 62.715 48.382 62.6162C48.6678 62.8739 48.9474 63.1389 49.2404 63.3879C50.0238 64.054 50.8134 64.7128 51.6001 65.374C52.1901 65.8707 52.78 66.3676 53.3697 66.8646C54.0266 67.4194 54.6826 67.9749 55.3379 68.531C55.8394 68.9577 56.3418 69.3846 56.8449 69.8119C57.507 70.3728 58.169 70.9333 58.8311 71.4933C59.426 71.9971 60.0204 72.5012 60.6143 73.0057C60.9698 73.3075 61.3191 73.6141 61.6703 73.9188Z" fill="#F24A5C"/>
<path d="M61.673 73.9188C61.3218 73.6141 60.9726 73.3074 60.6184 73.0056C60.0255 72.4999 59.4311 71.9951 58.8353 71.4913C58.1729 70.931 57.5109 70.3705 56.8491 69.8099C56.345 69.3855 55.8422 68.9597 55.3406 68.5324C54.6854 67.9763 54.0293 67.4209 53.3724 66.866C52.783 66.368 52.1932 65.8712 51.6028 65.3755C50.8161 64.7132 50.0265 64.0544 49.2432 63.3893C48.9501 63.1403 48.6706 62.8753 48.3848 62.6176C48.7689 62.2451 49.2083 62.1816 49.699 62.3754L65.6758 68.7214C66.1118 68.8943 66.5449 69.0668 66.9809 69.2349C67.4546 69.4175 67.7443 69.7493 67.7681 70.2633C67.7918 70.7773 67.5137 71.1227 67.0574 71.3421C65.3212 72.1779 63.5862 73.0153 61.8523 73.8543C61.7951 73.8786 61.7331 73.8965 61.673 73.9188Z" fill="#C03847"/>
<defs>
<filter id="filter0_d" x="26" y="26" width="88" height="88" filterUnits="userSpaceOnUse" color-interpolation-filters="sRGB">
<feFlood flood-opacity="0" result="BackgroundImageFix"/>
<feColorMatrix in="SourceAlpha" type="matrix" values="0 0 0 0 0 0 0 0 0 0 0 0 0 0 0 0 0 0 127 0"/>
<feOffset/>
<feGaussianBlur stdDeviation="2"/>
<feColorMatrix type="matrix" values="0 0 0 0 0 0 0 0 0 0 0 0 0 0 0 0 0 0 0.4 0"/>
<feBlend mode="normal" in2="BackgroundImageFix" result="effect1_dropShadow"/>
<feBlend mode="normal" in="SourceGraphic" in2="effect1_dropShadow" result="shape"/>
</filter>
</defs>
</svg>
