<svg width="400" height="400" viewBox="0 0 400 400" fill="none" xmlns="http://www.w3.org/2000/svg">
<rect opacity="0.01" width="400" height="400" fill="#0D0D0E"/>
<path d="M91.3063 248.824C91.3685 242.8 90.6542 236.775 91.0579 230.657C92.6417 229.974 94.1945 229.26 94.8777 227.52C95.5609 225.843 95.5299 224.198 94.3498 222.583C105.747 211.154 117.113 199.726 128.355 188.484C132.268 192.397 136.088 196.217 139.97 200.099C139.846 200.595 139.318 200.937 138.883 201.372C123.542 216.744 108.169 232.117 92.8281 247.458C92.3933 247.893 91.9896 248.359 91.5858 248.824C91.5237 248.824 91.3995 248.824 91.3063 248.824Z" fill="white"/>
<path d="M40.9961 199.446C41.5861 199.166 41.9588 198.67 42.3936 198.235C57.3933 183.235 72.393 168.204 87.3927 153.205C87.7654 152.832 88.0759 152.273 88.7281 152.273C89.1939 152.552 89.1008 152.987 89.1008 153.391C89.1008 158.732 89.1008 164.043 89.1008 169.384C89.1008 170.037 88.9766 170.533 88.3554 170.937C85.3431 172.863 84.7841 174.54 85.9331 177.956C74.7222 189.073 63.5423 200.191 52.3002 211.371C51.8344 211.216 51.4617 210.626 50.9959 210.16C48.1078 207.272 45.2196 204.384 42.3315 201.496C41.9278 201.092 41.5861 200.626 41.0582 200.378C40.9961 200.067 40.9961 199.757 40.9961 199.446Z" fill="white"/>
<path d="M91.6174 151C93.3565 153.05 95.3751 154.851 97.2384 156.776C98.5427 158.112 99.8781 159.416 101.182 160.72C101.493 161.031 101.897 161.31 102.052 161.807C101.493 162.987 95.6235 168.919 92.9838 171C92.4248 170.938 91.8658 170.844 91.3379 170.254C91.3379 163.95 91.3379 157.491 91.3379 151.031C91.4 151 91.5242 151 91.6174 151Z" fill="white"/>
<path d="M291.395 196.465C296.395 196.465 301.177 196.465 306.084 196.465C306.084 202.645 306.084 208.701 306.084 214.912C303.786 214.912 301.612 214.912 299.407 214.912C298.848 214.446 299.252 213.732 298.91 213.079C298.041 213.483 297.264 214.073 296.457 214.539C294.376 215.688 292.202 215.937 289.873 215.968C287.389 216.03 285.06 215.657 282.793 214.663C279.19 213.079 277.141 210.129 275.774 206.62C274.563 203.576 274.501 200.409 274.563 197.179C274.625 194.167 275.277 191.341 276.644 188.701C279.346 183.515 283.786 181.061 289.501 180.689C291.519 180.565 293.507 180.689 295.494 181.123C300.308 182.21 303.848 184.943 306.55 189.198C304.128 190.409 301.767 191.465 299.221 192.334C297.699 189.943 295.556 188.67 292.917 188.111C289.811 187.459 285.401 189.26 284.159 192.893C282.855 196.651 282.855 200.378 284.314 204.073C285.091 206.061 286.457 207.458 288.507 208.142C291.271 209.073 293.91 208.918 296.302 207.117C297.482 206.216 298.227 205.005 298.476 203.328C296.115 202.924 293.786 203.328 291.426 203.049C291.395 200.844 291.395 198.701 291.395 196.465Z" fill="white"/>
<path d="M92.7336 221.03C92.1125 220.906 91.5846 220.688 91.0566 220.347C91.0566 215.222 91.0566 210.129 91.0566 204.974C92.8268 204.539 94.2243 203.608 95.0938 202.055C96.0255 200.378 95.6218 198.763 94.8454 197.21C95.746 196.03 115.435 176.683 116.305 176.093C117.485 176.931 125.963 185.471 126.708 186.558C126.335 187.304 125.808 188.018 125.217 188.639C114.534 199.291 103.851 210.005 93.1684 220.688C93.0752 220.781 92.92 220.875 92.7336 221.03Z" fill="white"/>
<path d="M64.8467 224.042C61.1822 220.378 57.6729 216.899 54.1016 213.297C55.5612 211.558 56.9897 210.067 58.4493 208.639C60.9337 206.216 63.325 203.732 65.7784 201.279C68.387 198.67 70.9957 196.123 73.5732 193.515C77.7036 189.384 81.834 185.223 85.9333 181.093C86.1506 180.875 86.368 180.658 86.5854 180.44C87.0202 180.006 87.455 179.726 88.1071 179.975C88.7593 180.254 89.0698 180.689 89.0698 181.403C89.0698 185.689 89.0698 190.005 89.0698 194.291C89.0698 194.943 88.7282 195.285 88.2003 195.626C86.8649 196.403 85.8711 197.49 85.5295 199.074C85.25 200.378 85.6848 201.527 86.2749 202.8C79.3495 209.912 71.8963 216.62 64.8467 224.042Z" fill="white"/>
<path d="M246.675 214.943C244.221 214.943 241.799 214.943 239.47 214.943C239.004 214.291 239.159 213.639 239.159 213.049C239.159 208.639 239.159 204.26 239.159 199.85C239.159 199.167 239.159 198.515 238.911 197.863C238.352 196.248 237.482 195.627 235.774 195.689C233.973 195.751 232.762 196.558 232.42 198.111C232.203 199.229 231.985 200.316 232.016 201.465C232.047 205.44 232.047 209.415 232.016 213.421C232.016 213.918 232.141 214.446 231.83 214.974C229.532 214.974 227.234 214.974 225.029 214.974C224.501 214.57 224.594 214.073 224.594 213.608C224.594 206.154 224.594 198.701 224.594 191.279C224.594 190.906 224.594 190.565 224.75 190.223C225.836 189.757 230.371 189.695 231.861 190.099C232.141 190.565 231.954 191.124 232.141 191.714C232.731 191.31 233.228 190.937 233.787 190.596C236.768 188.888 239.936 189.074 243.103 189.943C244.625 190.378 245.619 191.558 246.209 192.987C246.612 194.043 246.954 195.13 246.954 196.279C246.954 201.962 246.954 207.645 246.954 213.359C246.892 213.887 246.954 214.353 246.675 214.943Z" fill="white"/>
<path d="M175.961 214.974C172.949 214.974 170.185 214.974 167.452 214.974C166.893 214.384 167.11 213.732 167.079 213.142C167.079 205.534 167.079 197.925 167.079 190.347C167.079 189.726 167.203 189.105 166.831 188.329C164.16 188.329 161.396 188.329 158.508 188.329C158.508 186 158.508 183.857 158.508 181.745C159.843 181.341 182.886 181.341 184.346 181.745C184.594 183.826 184.501 185.969 184.377 188.298C181.52 188.298 178.818 188.298 175.992 188.298C175.961 197.242 175.961 206.03 175.961 214.974Z" fill="white"/>
<path d="M248.662 210.626C250.339 209.167 251.83 207.893 253.258 206.682C253.817 206.62 254.035 207.055 254.345 207.303C256.643 209.26 259.252 210.285 262.326 210.005C263.134 209.943 263.848 209.601 264.407 209.074C265.339 208.204 265.184 207.117 264.034 206.589C263.134 206.185 262.202 205.906 261.239 205.72C259.004 205.316 256.768 205.036 254.625 204.167C251.737 202.956 250.65 201.31 250.525 198.142C250.432 195.471 251.364 193.297 253.383 191.589C255.122 190.161 257.202 189.602 259.407 189.447C263.351 189.198 267.14 189.85 270.587 191.931C271.146 192.273 271.798 192.521 272.078 193.422C270.836 194.664 269.5 195.999 268.196 197.304C267.792 197.707 267.357 197.738 266.954 197.366C265.463 195.999 263.569 195.627 261.705 195.192C260.712 194.974 259.749 195.068 258.848 195.533C258.289 195.813 257.823 196.248 257.854 196.993C257.886 197.676 258.32 198.018 258.879 198.235C259.749 198.546 260.587 198.95 261.519 199.012C263.693 199.198 265.774 199.757 267.823 200.471C272.699 202.148 273.041 206.558 271.86 210.067C270.991 212.614 269.159 214.167 266.643 214.943C262.73 216.123 258.786 216.092 254.904 214.943C252.482 214.167 250.432 212.645 248.662 210.626Z" fill="white"/>
<path d="M91.0879 180.565C95.1872 178.795 96.2741 176.341 94.6903 172.77C97.7648 169.757 100.808 166.745 103.883 163.702C104.597 164.074 113.323 172.646 114.379 174.136C107.299 181.217 100.218 188.297 93.1375 195.347C92.5785 195.595 91.9264 195.068 91.0879 194.974C91.0879 190.099 91.0879 185.316 91.0879 180.565Z" fill="white"/>
<path d="M66.7715 225.471C73.7589 218.546 80.8395 211.465 88.1065 204.229C88.6034 204.26 89.1003 204.633 89.1003 205.533C89.1003 210.533 89.1003 215.564 89.1003 220.378C88.7897 220.937 88.3549 221.061 88.0133 221.247C85.7773 222.49 84.8767 224.539 85.5599 226.961C85.7463 227.552 85.8084 228.048 85.3115 228.514C82.7339 231.061 80.1874 233.607 77.6098 236.154C77.5477 236.216 77.4235 236.216 77.4545 236.216C73.8521 232.614 70.2807 229.011 66.7715 225.471Z" fill="white"/>
<path d="M190.744 214.974C188.353 214.974 185.993 214.974 183.477 214.974C183.105 212.21 183.353 209.508 183.322 206.775C183.26 203.98 183.322 201.185 183.322 198.39C183.322 195.657 183.322 192.924 183.322 190.036C185.931 189.632 188.353 189.881 190.682 189.881C191.272 190.471 190.931 191.092 191.241 191.775C193.26 190.906 195.185 189.57 197.794 190.067C197.918 192.21 197.856 194.353 197.825 196.527C196.49 196.806 195.341 197.024 194.192 197.303C191.831 197.893 191.086 198.825 191.086 201.185C191.086 205.16 191.086 209.166 191.086 213.141C191.024 213.7 191.148 214.29 190.744 214.974Z" fill="white"/>
<path d="M316.023 189.975C316.582 190.689 316.178 191.248 316.488 191.869C318.569 190.906 320.65 189.788 323.196 190.006C323.196 192.211 323.196 194.323 323.196 196.465C321.985 196.962 320.681 196.993 319.439 197.335C316.954 198.018 316.395 198.67 316.395 201.248C316.395 205.223 316.395 209.198 316.395 213.173C316.395 213.732 316.488 214.322 316.116 214.943C313.756 214.943 311.333 214.943 308.973 214.943C308.6 213.794 308.507 192.304 308.88 190.13C311.24 189.633 313.693 190.41 316.023 189.975Z" fill="white"/>
<path d="M325.122 214.912C324.811 213.483 324.811 191.714 325.091 190.13C327.451 189.54 329.904 190.099 332.264 189.881C332.699 191.279 332.761 213.266 332.358 214.881C329.966 214.912 327.575 214.912 325.122 214.912Z" fill="white"/>
<path d="M88.8838 247.799C85.5609 244.445 82.3311 241.215 79.0703 237.924C79.474 237.023 85.1261 231.185 87.1447 229.632C89.0701 230.346 89.0701 230.346 89.1012 232.209C89.1012 236.806 89.1012 241.433 89.1012 246.029C89.1012 246.588 89.1943 247.147 88.8838 247.799Z" fill="white"/>
<path d="M332.512 181.496C332.698 183.577 332.605 185.471 332.574 187.304C331.456 187.739 327.233 187.832 324.934 187.49C324.779 185.596 324.841 183.701 324.934 181.621C327.481 181.279 329.872 181.496 332.512 181.496Z" fill="white"/>
<path fill-rule="evenodd" clip-rule="evenodd" d="M352.138 214.974H359.001V214.966C359.001 203.789 359.001 192.611 359.032 181.465C358.019 181.517 357 181.504 355.972 181.492C354.511 181.474 353.03 181.457 351.517 181.621C351.517 182.178 351.52 182.724 351.524 183.262C351.531 184.314 351.537 185.334 351.517 186.341C351.506 186.87 351.517 187.398 351.527 187.925C351.548 188.978 351.568 190.027 351.424 191.061C351.051 191.186 350.834 191.061 350.616 190.906C348.163 189.291 345.43 189.167 342.697 189.633C338.784 190.285 336.424 192.832 335.088 196.372C333.753 199.912 333.939 203.577 334.654 207.21C335.088 209.508 336.175 211.527 337.79 213.142C340.927 216.278 347.666 216.62 350.709 214.073C350.865 213.949 351.051 213.825 351.361 213.918C351.521 213.998 351.572 214.169 351.628 214.353C351.702 214.598 351.783 214.867 352.138 214.974ZM342.478 198.421C342.043 199.881 341.826 201.341 341.95 202.831C341.795 204.757 342.074 206.589 343.099 208.204C344.435 210.316 347.447 210.657 349.31 209.011C350.428 208.049 350.956 206.806 351.174 205.378C351.546 203.142 351.733 200.937 351.143 198.763C350.428 196.216 349.186 195.223 346.764 195.13C344.373 195.036 343.13 196.341 342.478 198.421Z" fill="white"/>
<path fill-rule="evenodd" clip-rule="evenodd" d="M202.019 191.403C200.124 192.956 199.41 194.975 199.379 197.521C201.957 197.521 204.317 197.521 206.646 197.49C206.834 197.164 206.958 196.803 207.081 196.448C207.345 195.687 207.6 194.951 208.447 194.633C209.565 194.198 210.683 193.981 211.894 194.509C213.54 195.223 213.944 196.279 213.323 198.453C213.057 198.718 212.735 198.721 212.415 198.724C212.324 198.725 212.232 198.725 212.143 198.732C209.41 198.95 206.739 199.415 204.161 200.378C201.025 201.558 198.758 203.515 198.199 207.055C197.764 209.881 199.162 213.639 202.174 214.912C204.534 215.906 206.925 215.782 209.317 215.471C211.087 215.254 212.608 214.322 214.068 213.328C214.129 213.492 214.172 213.659 214.215 213.823C214.326 214.247 214.432 214.652 214.813 214.943H221.521C220.996 212.529 221.022 210.134 221.047 207.757C221.055 207.045 221.063 206.335 221.056 205.627C221.035 203.619 221.042 201.626 221.049 199.628C221.052 198.628 221.056 197.626 221.056 196.62C221.056 192.801 218.726 190.254 214.907 189.726C212.64 189.416 210.372 189.385 208.105 189.447C205.901 189.54 203.789 189.975 202.019 191.403ZM211.862 208.98C213.508 207.459 213.849 205.595 213.508 203.297C212.931 203.468 212.358 203.626 211.792 203.782C210.192 204.223 208.64 204.651 207.172 205.316C207.017 205.378 206.893 205.471 206.769 205.564L206.769 205.564C205.216 206.682 205.402 208.732 207.079 209.602C208.477 210.347 210.713 210.036 211.862 208.98Z" fill="white"/>
</svg>
