<svg width="400" height="400" viewBox="0 0 400 400" fill="none" xmlns="http://www.w3.org/2000/svg">
<rect opacity="0.01" width="400" height="400" fill="#0F0E10"/>
<path d="M187.386 225.686C183.426 225.81 180.889 223.582 180.704 219.622C180.518 215.415 180.642 211.146 180.642 206.938C180.642 204.463 180.704 201.989 180.58 199.514C180.332 194.811 178.229 192.584 173.588 192.027C169.876 191.594 166.473 192.522 163.132 194.749C163.132 205.02 163.132 215.291 163.132 225.5C160.038 225.81 157.81 224.634 156.82 221.974C156.326 220.674 156.14 219.189 156.14 217.766C156.078 211.888 156.14 206.01 156.078 200.132C156.078 194.626 153.417 191.965 147.973 191.903C144.817 191.903 141.847 192.646 138.815 194.688C138.815 204.835 138.815 215.168 138.815 225.5C135.289 225.933 132.628 224.077 132.009 220.922C131.824 219.994 131.824 219.066 131.824 218.137C131.824 210.713 131.886 203.288 131.762 195.863C131.7 192.522 132.999 190.418 135.907 188.995C143.703 185.159 151.438 184.602 159.234 189.305C161.028 188.624 162.822 187.82 164.678 187.201C169.071 185.716 173.588 185.468 178.043 186.706C183.983 188.315 187.571 192.769 187.695 198.833C187.881 207.186 187.757 215.539 187.695 223.892C187.695 224.572 187.51 225.129 187.386 225.686Z" fill="white"/>
<path d="M293.251 163.998C297.087 163.936 300.428 164.926 303.398 166.845C309.709 170.866 313.421 176.497 313.421 184.231C313.421 193.821 313.421 203.35 313.421 212.94C313.421 213.744 313.298 214.549 313.236 215.724C312.308 215.786 311.38 215.91 310.575 215.848C301.294 214.734 293.313 206.443 293.003 197.1C292.694 186.644 292.941 176.125 292.941 165.607C292.941 165.174 293.065 164.803 293.251 163.998Z" fill="white"/>
<path d="M208.545 210.218C208.36 208.238 208.236 206.753 208.112 205.02C214.362 203.288 220.734 203.35 226.736 201.927C226.489 196.915 223.952 193.574 219.435 192.398C214.547 191.099 209.535 192.831 206.937 196.853C203.596 201.989 203.719 211.331 207.432 216.219C210.958 220.922 215.97 221.788 221.291 221.045C224.261 220.612 227.107 219.251 230.201 218.261C232.243 220.55 232.057 223.211 229.211 224.82C227.541 225.748 225.622 226.367 223.704 226.738C218.755 227.604 213.867 227.357 209.102 225.438C203.843 223.273 200.254 219.56 198.708 213.992C196.975 207.557 197.099 201.246 200.254 195.368C203.967 188.5 210.03 185.654 217.765 186.087C224.571 186.458 229.397 189.8 232.367 195.863C233.604 198.338 233.913 200.999 233.79 203.721C233.666 205.887 233.047 206.753 230.882 207.062C223.581 208.176 216.341 209.166 208.545 210.218Z" fill="white"/>
<path d="M263.552 207.742C260.21 208.237 257.055 208.671 253.899 209.289C251.919 209.661 250.249 210.712 249.444 212.692C248.145 215.724 249.568 219.065 252.724 220.241C257.797 222.159 262.623 221.293 267.45 218.632C267.45 214.487 267.45 210.341 267.45 206.258C267.45 203.968 267.511 201.741 267.45 199.451C267.326 195.492 265.593 193.45 261.819 192.398C257.797 191.284 254.085 192.336 250.373 193.697C249.011 194.192 247.774 194.811 246.413 195.368C245.237 191.903 246.041 189.304 249.011 188.067C255.384 185.344 261.819 185.159 268.192 188.129C272.09 189.923 274.194 193.326 274.379 197.472C274.689 204.587 274.503 211.702 274.503 218.818C274.503 220.983 273.266 222.53 271.471 223.582C263.923 227.975 256.065 228.656 248.083 225.129C243.69 223.211 241.896 219.437 242.02 214.61C242.143 209.908 244.309 206.814 248.454 204.958C249.321 204.587 250.187 204.216 251.053 204.03C255.075 203.411 259.159 202.793 263.552 202.174C263.552 204.216 263.552 205.824 263.552 207.742Z" fill="white"/>
<path d="M89.441 187.572C93.5246 187.448 96.1233 189.923 96.1852 194.068C96.3089 199.513 96.1852 205.02 96.2471 210.465C96.2471 211.269 96.2471 212.135 96.2471 212.94C96.3708 218.632 99.2788 221.54 104.971 221.293C107.879 221.169 110.663 220.55 113.572 218.632C113.572 208.485 113.572 198.152 113.572 187.819C116.851 187.262 119.388 188.747 120.254 191.655C120.625 192.893 120.749 194.316 120.749 195.615C120.811 202.731 120.687 209.846 120.811 216.962C120.873 220.488 119.388 222.84 116.294 224.324C110.849 226.985 105.157 227.975 99.1551 226.552C93.0296 225.067 89.2554 220.365 89.1935 214.054C89.1316 206.134 89.1935 198.152 89.1935 190.232C89.1935 189.304 89.3791 188.438 89.441 187.572Z" fill="white"/>
<path d="M345.657 236.823C338.294 236.699 330.931 237.999 324.187 234.101C318.866 231.069 315.587 226.552 314.164 220.674C313.854 219.313 313.978 217.89 313.916 215.972C316.515 215.972 318.742 216.034 320.97 215.972C324.806 215.91 328.58 215.972 332.23 217.271C339.841 219.932 345.533 227.356 345.966 235.4C345.966 235.709 345.843 236.019 345.657 236.823Z" fill="white"/>
<path d="M54.4205 174.702C58.9373 175.259 61.041 177.486 61.041 181.818C61.1028 190.975 61.041 200.132 61.041 209.289C61.041 210.341 60.9791 211.331 61.1028 212.383C61.5978 216.467 64.1965 218.818 68.2801 218.941C70.755 219.003 73.23 218.88 75.7049 219.003C79.541 219.189 81.8303 221.478 82.3872 225.686C81.521 225.809 80.6547 225.995 79.7885 225.995C75.8905 226.057 71.9925 226.057 68.0326 225.995C60.3604 225.871 54.2349 220.426 54.0493 212.816C53.8637 200.441 54.0493 188.129 54.0493 175.754C54.0493 175.445 54.2968 175.197 54.4205 174.702Z" fill="white"/>
</svg>
