<svg width="400" height="400" viewBox="0 0 400 400" fill="none" xmlns="http://www.w3.org/2000/svg">
<rect opacity="0.01" width="400" height="400" fill="#0B0B0C"/>
<path d="M139.194 203.44H120.835C120.801 204.134 120.744 204.754 120.744 205.371C120.744 209.94 120.744 214.523 120.744 219.097C120.772 219.67 120.74 220.245 120.65 220.811C120.49 221.548 120.042 222.044 119.188 222.042C116.77 222.03 114.352 222.03 111.934 222.042C111.078 222.042 110.638 221.576 110.507 220.808C110.389 220.186 110.327 219.556 110.321 218.923C110.31 206.341 110.31 193.758 110.321 181.172C110.303 180.728 110.316 180.284 110.358 179.841C110.55 178.414 110.992 177.988 112.474 177.962C114.445 177.931 116.418 177.937 118.388 177.962C120.264 177.982 120.744 178.442 120.755 180.35C120.781 184.225 120.755 188.103 120.755 191.981V194.165H139.111C139.146 193.428 139.197 192.812 139.2 192.195C139.2 188.197 139.2 184.199 139.2 180.184C139.2 178.228 139.46 177.98 141.39 177.962C143.321 177.945 145.208 177.937 147.116 177.962C148.935 177.988 149.343 178.391 149.354 180.247C149.374 184.376 149.354 188.508 149.354 192.64V219.14C149.376 219.712 149.362 220.284 149.314 220.854C149.229 221.565 148.809 222.033 148.058 222.039C145.515 222.056 142.97 222.056 140.425 222.039C139.674 222.039 139.257 221.588 139.214 220.839C139.186 220.334 139.188 219.823 139.188 219.315L139.194 203.44Z" fill="white"/>
<path d="M165.047 187.286V194.942C165.65 194.982 166.189 195.048 166.761 195.048C170.827 195.048 174.896 195.048 178.965 195.048C180.819 195.048 181.27 195.422 181.353 197.189C181.433 198.775 181.433 200.364 181.353 201.95C181.267 203.589 180.742 204.04 179.068 204.048C175.127 204.071 171.184 204.048 167.243 204.048H164.99C164.99 206.781 164.99 209.303 164.99 211.824C164.99 212.53 165.467 212.841 166.081 212.924C166.587 212.968 167.095 212.979 167.603 212.958C172.817 212.958 178.031 212.958 183.243 212.958C185.419 212.958 185.616 213.164 185.633 215.371C185.633 216.896 185.659 218.421 185.633 219.94C185.596 221.67 185.296 222.002 183.654 222.005C174.627 222.02 165.599 222.02 156.572 222.005C155.055 222.005 154.698 221.625 154.593 220.1C154.564 219.657 154.593 219.212 154.593 218.766V181.272C154.593 180.955 154.593 180.638 154.593 180.318C154.647 178.396 155.053 177.968 156.963 177.962C162.177 177.962 167.389 177.962 172.603 177.962C176.03 177.962 179.457 177.962 182.9 177.962C184.719 177.962 185.159 178.402 185.202 180.19C185.239 181.777 185.233 183.365 185.202 184.953C185.168 186.838 184.714 187.289 182.801 187.295C177.66 187.312 172.5 187.295 167.352 187.295L165.047 187.286Z" fill="white"/>
<path d="M280.103 214.854H262.221C261.513 216.582 260.794 218.332 260.083 220.083C259.292 222.027 259.292 222.033 257.158 222.039C255.251 222.039 253.34 222.039 251.447 222.039C249.117 222.039 248.692 221.428 249.551 219.306C250.693 216.485 251.858 213.672 253.026 210.859C257.205 200.783 261.388 190.706 265.574 180.63C265.72 180.278 265.874 179.93 265.997 179.57C266.393 178.402 267.139 177.857 268.432 177.925C270.144 178.023 271.861 178.023 273.572 177.925C275.086 177.828 275.911 178.448 276.457 179.819C277.91 183.471 279.447 187.092 280.951 190.724C284.883 200.216 288.814 209.708 292.745 219.2C292.868 219.486 293.031 219.772 293.111 220.08C293.493 221.276 293.085 221.993 291.866 222.022C289.321 222.082 286.774 222.022 284.23 222.056C283.176 222.073 282.802 221.402 282.473 220.611C281.697 218.732 280.929 216.856 280.103 214.854ZM277.082 206.424C275.369 202.141 273.704 197.997 272.002 193.86C271.859 193.514 271.431 193.289 271.114 193.003C270.089 194.205 265.931 204.194 265.508 206.424H277.082Z" fill="white"/>
<path d="M205.756 222.793C200.194 222.893 195.476 221.679 191.461 218.395C190.108 217.284 188.983 215.859 187.9 214.463C187.072 213.395 187.186 212.787 188.209 212.027C189.736 210.885 191.313 209.814 192.923 208.8C194.008 208.115 194.534 208.209 195.391 209.209C198.703 213.064 202.992 213.977 207.784 213.346C208.408 213.237 209.007 213.012 209.549 212.684C211.628 211.516 212.753 208.906 210.143 206.776C209.354 206.141 208.473 205.629 207.53 205.259C205.114 204.297 202.655 203.443 200.211 202.555C198.113 201.816 196.142 200.756 194.368 199.414C188.429 194.845 187.963 184.205 196.059 179.602C202.652 175.846 211.927 176.489 217.741 181.812C218.329 182.392 218.883 183.005 219.401 183.648C220.017 184.353 219.952 185.101 219.278 185.664C217.764 186.923 216.199 188.12 214.632 189.314C214.001 189.793 213.33 189.73 212.704 189.236C212.307 188.922 211.922 188.588 211.508 188.294C208.781 186.341 205.771 186.058 202.624 186.926C201.345 187.277 200.319 188.026 200.151 189.496C199.971 191.107 200.751 192.249 202.15 192.84C204.434 193.805 206.799 194.536 209.072 195.502C211.459 196.515 213.886 197.501 216.108 198.828C220.546 201.464 222.316 205.599 221.819 210.628C221.288 215.971 218.458 219.7 213.355 221.568C210.76 222.521 208.075 222.964 205.756 222.793Z" fill="white"/>
<path d="M319.828 242.848H310.162C309.777 241.309 309.674 159.618 310.048 157.202C310.576 157.118 311.108 157.062 311.641 157.034C313.735 157.011 315.835 157.011 317.941 157.034C319.76 157.051 319.908 157.194 319.94 158.981C319.974 162.408 319.993 165.839 319.997 169.276C319.997 188.597 319.997 207.92 319.997 227.245C319.997 231.759 319.968 236.271 319.94 240.783C319.934 241.389 319.871 242.008 319.828 242.848Z" fill="white"/>
<path d="M89.7086 242.853H80.3764C79.9481 241.425 79.8424 159.466 80.2851 157.148C83.4232 156.949 86.5707 156.951 89.7086 157.153C89.7657 157.813 89.8399 158.296 89.8457 158.798C89.9427 171.24 90.0655 183.682 90.1312 196.124C90.1769 207.175 90.1769 218.228 90.1312 229.283C90.0941 233.715 89.8599 238.147 89.7086 242.853Z" fill="white"/>
<path d="M233.5 187.286C230.545 187.286 227.82 187.24 225.096 187.286C221.815 187.357 221.569 186.966 221.669 183.882C221.709 182.486 221.641 181.087 221.692 179.69C221.738 178.397 222.146 178.022 223.426 177.94C223.808 177.914 224.191 177.94 224.568 177.94H252.433C252.941 177.94 253.452 177.923 253.958 177.965C254.832 178.042 255.423 178.536 255.446 179.41C255.5 181.503 255.523 183.605 255.446 185.693C255.408 186.789 254.789 187.243 253.475 187.263C250.994 187.3 248.512 187.263 246.033 187.263H243.7V189.413C243.7 199.265 243.7 209.116 243.7 218.966C243.7 219.409 243.718 219.854 243.7 220.3C243.629 221.685 243.378 221.979 241.987 222.013C239.76 222.053 237.532 222.05 235.308 222.013C233.934 221.99 233.617 221.668 233.512 220.351C233.472 219.846 233.497 219.335 233.497 218.826C233.497 209.102 233.497 199.379 233.497 189.656L233.5 187.286Z" fill="white"/>
</svg>
