<svg width="400" height="400" viewBox="0 0 400 400" fill="none" xmlns="http://www.w3.org/2000/svg">
<rect opacity="0.01" width="400" height="400" fill="#0B0B0C"/>
<g clip-path="url(#clip0)">
<path d="M76.4801 232.878C68.1057 232.878 59.7312 232.878 51.3568 232.878C46.508 232.878 44.0482 230.363 44.0276 225.462C44.0002 216.757 44.0367 208.056 44.0002 199.355C43.9796 194.615 45.599 190.7 49.2167 187.537C57.1009 180.632 64.8983 173.623 72.7413 166.678C75.2902 164.428 78.1908 164.437 80.7717 166.724C88.681 173.728 96.5309 180.812 104.479 187.761C107.93 190.773 109.41 194.516 109.419 198.966C109.434 207.903 109.434 216.838 109.419 225.773C109.408 230.466 107.023 232.862 102.318 232.862C93.7056 232.896 85.0929 232.876 76.4801 232.878ZM76.889 217.713C83.7728 218.15 89.9988 215.723 95.6424 211.587C99.717 208.6 99.685 208.557 96.1403 204.857C96.0307 204.745 95.9416 204.614 95.8366 204.5C93.3471 201.843 93.3471 201.843 90.5698 203.993C82.8044 210.007 72.8738 210.459 64.5169 205.216C62.9843 204.255 61.2371 202.515 59.853 202.744C58.3365 202.991 57.1785 205.163 55.7671 206.387C54.2597 207.692 54.3624 208.733 55.8607 209.993C61.8766 215.053 68.628 218.069 76.889 217.713Z" fill="white"/>
<path d="M234.666 194.007C235.431 193.199 235.911 192.733 236.347 192.228C239.912 188.091 245.609 186.655 250.891 188.569C255.441 190.22 258.479 194.514 258.581 199.865C258.723 207.151 258.659 214.443 258.743 221.731C258.762 223.263 258.188 223.814 256.688 223.764C254.201 223.681 251.707 223.741 248.856 223.741V219.092C248.856 214.701 248.902 210.311 248.829 205.923C248.79 204.363 248.607 202.811 248.283 201.285C247.696 198.418 246.141 197.258 243.144 197.249C240.111 197.249 237.855 198.745 237.464 201.422C237.103 203.888 237.053 206.41 237.007 208.909C236.936 213.142 236.925 217.37 237.007 221.607C237.037 223.251 236.443 223.853 234.821 223.768C232.945 223.664 231.064 223.664 229.187 223.768C227.561 223.862 227.004 223.283 227.029 221.632C227.111 216.144 227.09 210.656 227.029 205.168C227.006 203.841 226.841 202.52 226.535 201.228C226.017 198.96 224.679 197.473 222.214 197.27C219.215 197.023 217.135 197.91 216.232 200.304C215.619 201.986 215.288 203.758 215.255 205.548C215.132 210.807 215.154 216.051 215.239 221.301C215.269 223.066 214.842 223.924 212.893 223.77C211.018 223.659 209.137 223.653 207.261 223.752C205.921 223.793 205.251 223.389 205.256 221.902C205.292 211.556 205.292 201.209 205.256 190.862C205.256 189.49 205.713 188.873 207.163 188.926C209.49 189.008 211.822 188.946 214.172 188.946C214.401 190.119 214.572 191.004 214.858 192.433C217.756 188.898 221.225 187.512 225.332 187.787C229.438 188.061 232.512 190.154 234.666 194.007Z" fill="white"/>
<path d="M124.547 177.257H134.564V191.617C136.665 190.376 138.25 189.011 140.084 188.416C146.786 186.28 155.647 189.315 156.193 198.53C156.682 206.781 156.296 215.086 156.296 223.707C153.487 223.707 150.616 223.8 147.763 223.615C147.306 223.586 146.557 222.342 146.543 221.646C146.438 216.476 146.495 211.301 146.479 206.129C146.494 204.875 146.445 203.621 146.333 202.372C146 199.17 144.061 197.341 140.989 197.247C137.401 197.137 135.11 198.603 134.863 201.958C134.473 207.258 134.523 212.596 134.475 217.917C134.423 223.736 134.475 223.759 128.706 223.727C123.957 223.702 124.565 224.272 124.556 219.636C124.53 206.466 124.53 193.297 124.556 180.129L124.547 177.257Z" fill="white"/>
<path d="M180.539 224.683C169.462 224.878 161.978 216.374 161.957 206.248C161.937 195.693 170.081 187.726 180.674 187.822C191.408 187.925 199.313 195.825 199.242 206.378C199.174 216.451 191.641 224.967 180.539 224.683ZM180.633 197.243C175.679 197.231 171.906 201.178 171.929 206.344C171.954 211.322 175.768 215.406 180.473 215.491C185.178 215.575 189.289 211.375 189.38 206.381C189.472 201.386 185.518 197.259 180.633 197.243Z" fill="white"/>
<path d="M274.534 209.25C274.196 212.031 275.697 213.478 277.275 214.699C280.397 217.105 285.059 216.812 288.133 214.336C288.893 213.716 289.818 213.333 290.794 213.236C293.427 213.092 296.074 213.185 299.244 213.185C298.584 214.496 298.228 215.401 297.709 216.204C291.883 225.239 280.783 227.541 272.141 221.53C263.724 215.676 261.724 203.895 267.721 195.525C272.289 189.143 279.732 186.463 287.379 188.436C294.334 190.236 299.516 196.383 300.466 203.961C301.128 209.248 301.128 209.248 295.841 209.245H274.536L274.534 209.25ZM290.481 202.788C289.766 198.688 286.826 196.282 282.944 196.09C279.303 195.912 275.573 198.182 274.69 201.082C274.278 202.426 274.975 202.769 276.106 202.772C278.985 202.781 281.866 202.786 284.748 202.788H290.481Z" fill="white"/>
<path d="M320.262 188.967C323.651 188.967 326.689 188.864 329.71 189.056C330.309 189.095 331.081 190.172 331.357 190.927C333.401 196.589 335.338 202.29 337.314 207.977C337.412 208.256 337.569 208.514 337.887 209.168C338.344 208.42 338.721 207.972 338.894 207.453C340.694 202.038 342.512 196.628 344.209 191.181C344.732 189.5 345.552 188.798 347.37 188.912C349.923 189.072 352.495 188.954 355.562 188.954C354.153 192.763 352.906 196.173 351.636 199.573C347.525 210.561 343.377 221.525 339.355 232.543C338.583 234.658 337.624 235.797 335.178 235.559C332.801 235.33 330.382 235.509 327.577 235.509C329.027 231.985 330.16 228.836 331.611 225.838C332.785 223.407 332.782 221.265 331.75 218.733C328.096 209.836 324.67 200.851 321.157 191.894C320.849 191.105 320.657 190.273 320.262 188.967Z" fill="white"/>
<path d="M306.667 177.12H310.191C316.475 177.12 316.475 177.12 316.475 183.294V215.715C316.475 217.673 316.401 219.632 316.488 221.587C316.559 223.209 315.942 223.833 314.307 223.771C311.822 223.675 309.33 223.746 306.658 223.746L306.667 177.12Z" fill="white"/>
</g>
<defs>
<clipPath id="clip0">
<rect width="311.562" height="70.5884" fill="white" transform="translate(44 165)"/>
</clipPath>
</defs>
</svg>
