<svg width="400" height="400" viewBox="0 0 400 400" fill="none" xmlns="http://www.w3.org/2000/svg">
<rect opacity="0.01" width="400" height="400" fill="#0B0B0C"/>
<path d="M84.3647 156.143C87.0715 156.57 89.6463 157.3 91.752 159.208C96.4532 163.471 97.0752 170.236 93.2009 175.278C92.9577 175.591 92.7284 175.914 92.4261 176.321C95.588 178.166 97.9335 180.65 98.9168 184.135C100.418 189.438 99.2122 194.156 95.0078 197.746C92.2593 200.095 89.1008 201.978 86.1125 204.031C85.718 204.267 85.2654 204.387 84.806 204.379C79.1446 204.397 73.482 204.397 67.8182 204.379C67.5517 204.332 67.29 204.261 67.0364 204.167C67.6584 203.687 68.1136 203.309 68.6 202.968C75.7683 197.916 82.9332 192.853 90.1432 187.85C91.1474 187.155 91.613 186.432 91.5609 185.178C91.4601 182.613 91.5331 180.042 91.5331 177.061L62.5992 197.377V185.477L57.9883 188.333V177.603C58.9716 176.908 59.9098 176.123 60.9522 175.518C62.1857 174.823 62.627 173.899 62.5992 172.45C62.5054 167.693 62.5506 162.926 62.5749 158.158C62.6231 157.481 62.7159 156.808 62.8529 156.143H84.3647ZM87.0159 167.262L86.9187 166.915C82.9436 166.915 78.9685 166.897 74.9935 166.939C74.4906 166.982 74.0095 167.164 73.6036 167.464C68.9081 170.739 64.2323 174.031 59.5762 177.339C59.2288 177.592 58.718 177.985 58.7075 178.326C58.6381 181.161 58.6832 183.986 58.6832 187.203L87.0159 167.262Z" fill="white"/>
<path d="M62.5547 244.619V207.725H150.923V188.993C151.743 189.597 152.282 189.973 152.8 190.383C159.69 195.82 166.563 201.283 173.495 206.672C174.252 207.247 175.166 207.578 176.115 207.621C181.306 207.707 186.497 207.662 191.859 207.662V189.09C192.529 189.545 192.95 189.785 193.332 190.094C200.363 195.635 207.395 201.175 214.43 206.714C215.021 207.176 215.82 207.614 216.553 207.621C226.213 207.676 235.869 207.659 245.529 207.652C245.755 207.652 245.977 207.603 246.446 207.551V189.027C247.308 189.618 247.815 189.924 248.274 190.289C255.078 195.654 261.871 201.03 268.653 206.418C269.656 207.27 270.938 207.723 272.253 207.69C294.632 207.646 317.014 207.636 339.398 207.659H341.639V244.619H62.5547ZM159.798 216.603C159.735 215.425 159.673 214.243 159.614 213.065H151.49V239.261H159.735C159.735 238.417 159.735 237.729 159.735 237.048C159.808 233.417 159.735 229.775 160.01 226.165C160.357 221.592 164.527 219.299 168.377 221.415C167.682 225.644 167.449 229.89 169.662 233.827C171.973 237.937 175.67 239.8 180.434 240.172V233.782C177.081 232.239 175.997 230.547 176.56 227.652H193.898C194.628 218.934 189.43 212.086 182.352 212.364V218.177C184.329 218.872 185.806 219.97 186.112 222.27H176.521C176.907 219.928 178.391 218.795 180.309 218.194V212.207C175.552 212.343 172.081 214.452 169.228 218.204V212.69C165.204 212.35 162.161 213.541 159.798 216.603ZM312.587 212.37C307.976 211.908 303.206 215.112 301.305 219.789C300.19 222.544 300.075 225.408 300.28 228.295C300.746 234.973 305.839 239.869 312.577 240.109V233.674C309.495 232.371 308.355 230.592 308.817 227.67H326.153C327.136 219.164 321.267 211.519 314.575 212.45V218.135C316.531 218.854 318.105 219.897 318.397 222.239H308.835C309.21 219.869 310.812 218.847 312.598 218.138L312.587 212.37ZM204.138 203.399L195.91 197.144V239.31H204.079C204.079 234.824 204.027 230.456 204.1 226.106C204.149 223.17 204.663 220.407 208.013 219.438V212.68L204.138 215.988V203.399ZM149.374 239.355V213.072H141.076C141.003 213.788 140.944 214.389 140.861 215.22C139.328 213.91 137.952 212.711 135.937 212.582V220.077C139.314 220.602 141.149 222.583 141.271 225.908C141.423 229.567 139.582 231.749 136.006 232.322V240.356L140.913 237.138C140.975 237.871 141.038 238.591 141.104 239.365L149.374 239.355ZM235.8 212.162C230.65 212.631 226.592 214.594 224.257 219.028C221.501 224.275 221.665 229.633 225.021 234.584C227.53 238.281 231.307 239.901 235.793 240.172V232.18C233.083 231.353 231.55 229.622 231.384 226.804C231.189 223.462 232.589 221.148 235.793 220.147L235.8 212.162ZM237.826 240.064C245.185 240.3 251.231 233.914 251.158 226.123C251.085 218.333 244.938 211.922 237.892 212.402V220.258C240.81 221.113 242.148 223.156 242.245 225.932C242.357 229.084 240.922 231.335 237.826 232.187V240.064ZM112.292 239.369C113.369 238.062 113.47 236.909 112.879 235.436C110.54 229.612 108.362 223.726 106.103 217.864C105.471 216.213 104.811 214.573 104.189 212.999H99.3865C97.9156 216.69 96.4516 220.377 94.9945 224.063C94.8414 224.371 94.7938 224.722 94.859 225.06C95.9014 227.882 96.989 230.682 98.2329 233.928C99.4804 230.755 100.53 228.069 101.77 224.942C103.792 230.13 105.592 234.775 107.392 239.376L112.292 239.369ZM133.936 240.185V232.02C129.394 229.782 128.935 223.073 133.936 220.248V212.388C130.308 211.842 126.399 213.778 124.179 217.489C120.794 223.156 120.77 229.011 124.123 234.682C126.236 238.26 129.495 240.231 133.939 240.199L133.936 240.185ZM264.386 240.116V232.836C261.999 231.822 261.287 230.807 261.259 228.024C261.21 223.653 261.259 219.275 261.238 214.9C261.238 214.289 261.183 213.673 261.155 213.062H252.868C252.868 219.077 252.52 225.018 252.961 230.894C253.427 237.03 257.805 240.304 264.386 240.116ZM269.713 213.013V215.032C269.713 219.118 269.713 223.208 269.713 227.294C269.713 229.775 269.317 232.065 266.409 232.836V240.112C274.195 240.161 277.955 235.943 278.018 229.886C278.073 224.647 278.077 219.41 278.087 214.174C278.052 213.782 277.982 213.393 277.879 213.013H269.713ZM209.993 219.574C211.751 221.106 212.019 221.554 212.318 223.861C212.415 224.776 212.454 225.697 212.433 226.617C212.433 230.807 212.433 234.998 212.433 239.286H220.685C220.685 233.031 220.775 226.947 220.622 220.852C220.584 219.309 219.966 217.683 219.257 216.269C218.419 214.638 217.017 213.365 215.313 212.687C213.608 212.009 211.716 211.972 209.986 212.582L209.993 219.574ZM79.2333 213.027C83.1909 221.905 87.0896 230.644 90.9534 239.317H96.0126C97.2114 237.555 97.3121 235.939 96.4643 234.042C95.0362 230.842 93.8896 227.52 92.6143 224.254C91.1526 220.515 89.6875 216.773 88.2188 213.027H79.2333ZM289.283 229.216L289.748 229.306C289.957 230.223 290.624 231.447 290.266 231.982C289.772 232.718 288.528 233.003 287.545 233.34C287.166 233.472 286.621 233.292 286.204 233.125C284.553 232.472 282.92 231.77 281.086 231.002L278.229 237.135C283.077 240.741 290.294 241.221 294.79 238.379C298.084 236.294 299.627 232.36 298.758 228.246C298.146 225.355 295.78 223.382 292.045 222.753L289.283 229.216ZM290.255 222.388C289.873 222.159 289.616 222.086 289.501 221.919C289.088 221.304 288.393 220.633 288.435 220.029C288.469 219.532 289.328 218.91 289.946 218.681C290.657 218.464 291.413 218.434 292.139 218.594C293.254 218.806 294.331 219.202 295.537 219.553C296.43 217.666 297.309 215.814 298.272 213.778C293.8 211.933 289.474 211.415 285.068 213.298C283.889 213.783 282.842 214.539 282.011 215.505C281.18 216.471 280.589 217.62 280.286 218.858C278.772 224.396 282.18 229.014 287.583 228.639C288.452 226.62 289.328 224.57 290.255 222.388ZM114.328 234.324H114.762L124.255 213.041H115.467C113.946 216.884 112.434 220.685 110.95 224.483C110.829 224.801 110.818 225.149 110.919 225.474C112.034 228.434 113.188 231.374 114.328 234.324ZM182.335 240.126C188.686 240.126 193.346 235.352 193.485 231.269C191.126 231.269 188.766 231.252 186.407 231.29C186.025 231.329 185.663 231.477 185.365 231.718C184.374 232.451 183.419 233.233 182.338 234.087L182.335 240.126ZM318.421 231.318L314.599 234.053V240.106C320.159 240.3 325.888 235.731 325.659 231.318H318.421Z" fill="white"/>
<path d="M312.934 176.296L306.892 181.626C305.154 177.964 302.586 175.372 298.698 174.329C296.281 173.67 293.712 173.839 291.401 174.809C286.669 176.737 283.562 181.633 284.038 186.428C284.584 191.96 288.337 196.112 293.747 197.168C298.524 198.103 303.57 195.646 306.085 191.004H296.169V184.326H315.147C317.396 190.462 311.002 200.799 303.021 203.92C298.242 205.733 292.945 205.615 288.253 203.59C283.56 201.565 279.839 197.793 277.88 193.072C275.92 188.352 275.875 183.054 277.755 178.301C279.634 173.548 283.29 169.713 287.947 167.609C297.256 163.624 309.025 167.651 312.934 176.296Z" fill="white"/>
<path d="M208.011 188.02V166.727H216.145V204.494L189.178 183.128V204.226H180.957V166.585L208.011 188.02Z" fill="white"/>
<path d="M167.064 187.998V166.726H175.208V204.475L148.22 183.103V204.225H140.01V166.566C149.054 173.728 157.838 180.688 167.064 187.998Z" fill="white"/>
<path d="M262.691 188.017V166.744H270.739V204.441L243.737 183.037V204.233H235.658V166.605L262.691 188.017Z" fill="white"/>
<path d="M111.567 166.734V168.888C111.567 175.806 111.567 182.724 111.567 189.643C111.567 192.846 113.325 195.369 116.22 196.467C119.114 197.565 122.127 196.814 124.274 194.493C125.432 193.264 126.057 191.626 126.011 189.938C126.011 182.731 126.046 175.528 126.077 168.322C126.077 167.867 126.13 167.408 126.171 166.772H134.163C134.198 167.467 134.26 168.068 134.26 168.687C134.26 175.66 134.281 182.638 134.26 189.611C134.239 197.53 128.235 204.299 120.66 204.976C112.203 205.734 105.076 200.515 103.565 192.443C103.453 191.819 103.396 191.187 103.395 190.553C103.395 182.999 103.395 175.447 103.395 167.898C103.395 167.55 103.45 167.203 103.492 166.734H111.567Z" fill="white"/>
<path d="M321.983 195.098C324.485 196.231 326.604 197.35 328.839 198.153C329.553 198.411 330.325 198.471 331.071 198.327C331.817 198.182 332.511 197.839 333.078 197.333C334.968 195.745 335.079 193.059 333.161 191.467C332.021 190.519 330.67 189.817 329.374 189.07C327.327 187.888 325.159 186.898 323.203 185.595C319.033 182.815 317.643 178.944 318.901 174.372C320.162 169.855 324.235 166.432 328.769 166.161C333.477 165.876 337.647 167.106 341.09 170.768L336.886 176.043C334.766 175.178 332.907 174.094 330.906 173.677C328.154 173.103 325.895 175.067 326.288 177.551C326.547 178.702 327.212 179.721 328.161 180.421C329.686 181.523 331.49 182.235 333.168 183.125C334.339 183.747 335.541 184.32 336.643 185.029C341.052 187.84 342.8 191.895 341.664 196.516C341.07 198.851 339.774 200.948 337.95 202.522C336.126 204.096 333.862 205.072 331.465 205.317C326.451 205.759 320.729 203.622 317.914 200.192L321.983 195.098Z" fill="white"/>
<path d="M221.844 166.706H229.79V204.233H221.844V166.706Z" fill="white"/>
</svg>
