<svg width="400" height="400" viewBox="0 0 400 400" fill="none" xmlns="http://www.w3.org/2000/svg">
<rect opacity="0.01" width="400" height="400" fill="#0B0B0C"/>
<path d="M138.525 203.801C145.429 196.454 152.53 189.281 159.141 181.685C162.146 178.228 165.598 179.194 169.021 179.339C170.67 179.406 169.983 180.781 169.309 181.646C166.213 185.531 163.107 189.408 159.992 193.276C158.487 195.151 157.054 197.089 155.468 198.887C154.506 199.95 154.612 200.685 155.468 201.772C159.891 207.262 164.261 212.794 168.579 218.368C169.117 219.061 169.314 220.022 169.67 220.859C168.781 221.085 167.891 221.508 167.002 221.513C160.353 221.537 153.703 221.575 147.059 221.392C144.718 221.325 143.694 221.984 143.213 224.378C141.886 230.888 140.29 237.359 138.727 243.806C138.525 244.657 137.895 245.407 137.463 246.21C136.737 245.657 135.867 245.22 135.309 244.527C130.982 239.176 126.655 233.806 122.434 228.364C121.371 226.993 120.51 226.671 118.881 227.489C112.698 230.522 106.448 233.436 100.198 236.33C99.409 236.696 98.4234 236.647 97.5244 236.811C97.5244 235.97 97.3321 235.095 97.5244 234.301C99.0292 227.498 100.558 220.7 102.178 213.921C102.558 212.335 102.274 211.517 100.712 210.753C94.3464 207.724 88.0482 204.56 81.75 201.397C81.0866 201.065 80.5769 200.435 80 199.911C80.6106 199.329 81.125 198.584 81.8318 198.238C88.0819 195.171 94.332 192.103 100.683 189.209C102.448 188.401 102.75 187.497 102.337 185.728C100.832 179.257 99.4523 172.747 98.0869 166.247C97.8706 165.223 98.01 164.117 97.9907 163.05C99.1013 163.309 100.298 163.386 101.308 163.862C107.457 166.771 113.563 169.781 119.688 172.757C120.169 172.997 120.703 173.194 121.385 173.488L131.698 160.814C133.265 158.891 134.79 156.93 136.419 155.045C137.742 153.516 138.564 153.655 139.001 155.526C140.742 163.093 142.439 170.675 144.006 178.281C144.174 179.098 143.583 180.281 142.992 181.012C137.703 187.546 132.318 194.017 126.972 200.507C126.408 201.12 125.98 201.846 125.717 202.637C126.103 202.356 126.469 202.049 126.813 201.719C133.121 194.988 139.482 188.334 145.679 181.526C147.343 179.694 149.045 178.805 151.511 179.012C153.473 179.18 155.453 179.045 157.429 179.045L157.766 179.723L138.179 203.527L138.525 203.801Z" fill="white"/>
<path d="M290.489 181.512C294.653 178.147 298.845 176.757 303.504 177.05C311.437 177.531 316.879 182.151 318.961 190.19C320.465 195.88 320.338 201.877 318.596 207.498C315.855 216.417 308.98 221.705 298.403 221.859C292.408 221.941 286.384 220.445 280.374 219.643C278.648 219.412 278.898 218.061 278.898 216.873C278.898 202.133 278.864 187.387 278.936 172.642C278.936 170.464 278.874 168.853 276.052 168.993C275.571 169.017 274.701 167.978 274.609 167.358C274.407 165.714 274.542 164.026 274.542 161.911H290.489V181.512ZM290.586 201.508V207.758C290.586 211.176 290.586 211.176 294.023 211.864C300.273 213.114 304.797 210.989 306.442 205.801C307.911 201.358 307.881 196.556 306.355 192.132C305.759 190.421 304.278 188.517 302.692 187.753C297.85 185.387 290.586 190.387 290.586 195.753V201.508Z" fill="white"/>
<path d="M258.186 218.186C253.224 222.008 247.479 223.032 241.291 221.71C235.522 220.479 231.849 216.489 231.195 210.921C230.421 204.339 232.906 199.551 238.507 196.902C242.969 194.791 247.767 194.498 252.589 194.407C253.854 194.378 255.118 194.407 256.32 194.407C257.474 189.469 255.633 186.503 250.936 186.555C246.753 186.604 242.58 187.594 238.435 188.209C237.693 188.384 236.965 188.614 236.257 188.897C235.527 185.878 234.839 183.017 234.007 179.551C237.555 178.781 240.993 177.7 244.503 177.358C248.393 176.933 252.319 176.933 256.21 177.358C264.263 178.358 268.518 183.353 268.662 191.522C268.777 197.849 268.696 204.181 268.7 210.513V213.21L272.503 213.893V220.623C268.378 220.782 264.243 221.056 260.118 220.965C259.465 220.95 258.854 219.239 258.186 218.186ZM256.743 202.426C252.897 202.94 249.426 203.214 246.046 203.926C244.07 204.344 243.161 206.046 243.161 208.142C243.161 210.066 243.806 211.58 245.623 212.441C248.585 213.844 254.58 212.292 256.388 209.609C256.62 209.201 256.736 208.737 256.724 208.267C256.748 206.594 256.724 204.921 256.724 202.426H256.743Z" fill="white"/>
<path d="M185.843 221.133V186.123L182.314 185.387V178.656C186.348 178.421 190.324 178.147 194.31 178.017C194.723 178.017 195.329 178.82 195.555 179.373C195.837 180.271 196.037 181.193 196.151 182.128C197.19 181.353 198.074 180.685 198.954 180.051C204.392 176.281 210.32 175.887 216.368 177.998C221.714 179.863 224.541 184.296 224.762 189.58C225.195 199.96 224.887 210.364 224.887 220.936H213.291C213.248 220.099 213.176 219.248 213.176 218.397C213.176 211.431 213.2 204.455 213.147 197.503C213.165 195.582 213.004 193.663 212.666 191.772C211.945 188.166 209.7 186.661 206.055 187.075C202.69 187.45 200.382 189.536 198.329 191.935C197.897 192.416 197.94 193.44 197.935 194.214C197.935 202.388 197.868 210.561 197.959 218.734C197.959 220.614 197.478 221.273 195.555 221.176C192.449 221.023 189.339 221.133 185.843 221.133Z" fill="white"/>
</svg>
