<svg width="400" height="400" viewBox="0 0 400 400" fill="none" xmlns="http://www.w3.org/2000/svg">
<rect opacity="0.01" width="400" height="400" fill="#0D0D0E"/>
<g clip-path="url(#clip0)">
<path d="M364.82 204.857C362.007 206.672 360.03 206.147 357.845 202.838C350.781 208.056 343.917 208.139 337.723 201.404C333.353 196.656 332.43 188.656 335.624 182.724C339.871 174.823 346.737 173.384 355.093 175.59C355.179 174.658 355.302 173.911 355.307 173.161C355.332 169.91 355.344 166.659 355.307 163.405C355.292 161.514 356.177 160.497 358.066 160.628C360.324 160.8 362.582 161.133 364.82 161.408V204.857ZM355.317 189.658C355.317 188.361 355.46 187.038 355.262 185.773C355.146 185.049 354.632 184.11 354.025 183.787C350.821 182.08 346.306 183.115 344.274 185.872C342.089 188.835 342.319 193.321 344.798 196.085C346.459 197.933 349.364 198.627 351.712 197.734C354.253 196.769 355.304 195.174 355.324 192.253C355.322 191.39 355.317 190.517 355.317 189.658Z" fill="white"/>
<path d="M192.081 182.78C193.2 183.471 194.154 183.979 195.022 184.607C201.441 189.265 201.409 198.206 194.959 202.864C192.507 204.69 189.548 205.697 186.497 205.744C181.314 205.809 176.129 205.726 170.944 205.792C168.984 205.817 168.272 204.997 168.279 203.063C168.319 189.832 168.319 176.6 168.279 163.367C168.279 161.557 168.997 160.606 170.788 160.633C176.327 160.712 181.886 160.58 187.4 161.002C193.273 161.451 197.58 165.702 198.398 171.253C198.98 175.202 197.224 178.261 194.482 180.866C193.815 181.505 193.032 182.03 192.081 182.78ZM177.514 192.625C177.514 193.998 177.403 195.386 177.571 196.739C177.637 197.267 178.324 198.128 178.745 198.13C181.397 198.148 184.084 198.191 186.693 197.79C188.973 197.439 190.182 195.614 190.636 193.392C191.08 191.216 190.213 189.353 188.379 188.412C186.729 187.592 184.924 187.14 183.085 187.086C177.494 186.92 177.494 187.021 177.514 192.635V192.625ZM182.105 168.391C176.934 168.436 177.521 167.805 177.501 172.786C177.476 179.506 177.501 179.506 184.177 179.238C187.481 179.107 189.51 177.011 189.535 173.71C189.56 170.536 187.566 168.52 184.267 168.408C183.545 168.366 182.825 168.388 182.105 168.388V168.391Z" fill="white"/>
<path d="M192.293 238.684C192.873 239.022 193.49 239.368 194.094 239.737C201.37 244.129 201.894 253.671 194.892 258.518C192.571 260.08 189.897 261.029 187.115 261.277C181.672 261.704 176.17 261.398 170.696 261.446C168.94 261.461 168.27 260.659 168.275 258.937C168.302 245.623 168.302 232.31 168.275 218.996C168.275 217.27 168.95 216.472 170.709 216.5C175.897 216.55 181.09 216.429 186.262 216.568C191.99 216.719 196.982 220.703 198.194 225.888C199.297 230.616 197.338 234.186 193.859 237.152C193.357 237.568 192.855 237.954 192.353 238.366C192.333 238.399 192.341 238.497 192.293 238.684ZM177.492 248.105C177.492 249.481 177.342 250.882 177.56 252.22C177.658 252.836 178.443 253.77 178.975 253.812C181.203 253.982 183.441 253.987 185.67 253.828C188.222 253.646 190.141 251.695 190.63 249.105C190.834 248.023 190.665 246.904 190.152 245.931C189.639 244.959 188.812 244.192 187.808 243.755C186.303 243.076 184.504 242.789 182.826 242.746C177.492 242.617 177.492 242.693 177.505 248.105H177.492ZM177.492 229.425C177.492 230.722 177.53 232.02 177.492 233.317C177.45 234.579 177.934 235.215 179.248 235.155C181.255 235.061 183.297 235.228 185.251 234.872C188.982 234.193 190.791 229.808 188.809 226.592C187.474 224.426 185.382 224 183.024 224.015C177.492 224.053 177.492 224.012 177.492 229.43V229.425Z" fill="white"/>
<path d="M249.971 193.157C252.379 187.707 254.597 182.926 256.591 178.051C257.434 175.989 258.634 175.045 260.834 175.274C261.837 175.381 262.841 175.274 263.859 175.295C266.94 175.333 267.401 176.027 266.137 178.781C263.484 184.567 260.824 190.347 258.154 196.121C254.768 203.477 251.343 210.815 248.014 218.199C247.297 219.797 246.339 220.615 244.56 220.496C243.268 220.41 241.966 220.516 240.669 220.468C238.228 220.38 237.699 219.534 238.712 217.325C240.496 213.45 242.255 209.56 244.141 205.736C244.879 204.239 244.921 202.982 244.184 201.445C240.584 193.95 237.089 186.404 233.562 178.874C232.28 176.133 232.759 175.353 235.745 175.29C241.871 175.163 241.888 175.156 244.44 180.757C246.228 184.695 247.964 188.651 249.971 193.157Z" fill="white"/>
<path d="M239.207 258.554C238.623 258.95 238.096 259.296 237.584 259.657C233.187 262.764 228.443 263.163 223.654 260.982C218.92 258.831 217.154 254.489 216.88 249.665C216.579 244.256 216.782 238.81 216.775 233.391C216.775 233.032 216.72 232.575 216.908 232.328C218.83 229.773 221.536 231.265 223.897 231.083C225.402 230.967 225.964 232.093 225.959 233.545C225.944 238.101 225.816 242.668 226.042 247.214C226.122 248.835 226.795 250.602 227.723 251.96C228.944 253.772 230.946 254.305 233.114 253.608C235.392 252.874 237.088 250.612 237.128 247.974C237.208 243.488 237.158 239.002 237.17 234.517C237.17 231.364 237.522 231.02 240.607 230.982C246.284 230.889 246.284 230.889 246.284 236.66C246.284 243.677 246.307 250.695 246.262 257.713C246.262 259.066 246.763 260.765 244.817 261.356C242.612 262.017 240.963 261.323 239.799 259.336C239.618 259.063 239.421 258.802 239.207 258.554Z" fill="white"/>
<path d="M307.636 177.895C310.305 176.787 312.583 175.37 315.036 174.911C323.493 173.359 329.745 178.342 330.189 186.972C330.472 192.455 330.264 197.964 330.309 203.459C330.309 205.13 329.524 205.781 327.921 205.774C320.422 205.739 321.115 206.501 321.102 199.349C321.102 195.876 321.165 192.402 321.057 188.934C320.957 185.672 318.839 183.322 316.04 183.128C312.56 182.875 309.994 185.304 309.914 189.148C309.821 193.692 309.896 198.261 309.873 202.818C309.873 205.511 309.597 205.774 306.863 205.776C300.363 205.776 300.749 206.349 300.76 199.718C300.76 192.849 300.744 185.978 300.777 179.107C300.777 177.66 300.313 175.8 302.445 175.416C304.397 175.062 306.404 174.992 307.272 177.456C307.355 177.63 307.48 177.781 307.636 177.895Z" fill="white"/>
<path d="M221.778 192.253C219.114 192.253 216.45 192.225 213.786 192.253C211.671 192.281 211.38 192.824 212.366 194.732C213.966 197.827 217.564 199.152 221.55 198.112C221.896 198.017 222.238 197.904 222.573 197.774C226.768 196.189 226.969 196.272 229.723 199.814C230.626 200.972 230.546 201.886 229.427 202.777C221.633 208.982 209.157 207.594 204.353 198.014C199.002 187.348 206.014 175.231 217.885 174.522C226.003 174.037 233.102 180.942 232.851 189.075C232.776 191.529 232.169 192.19 229.771 192.228C227.106 192.268 224.442 192.228 221.778 192.228V192.253ZM211.904 186.298H224.041C223.216 183.494 221.364 182.007 218.815 181.85C215.644 181.661 213.324 183.044 211.904 186.298Z" fill="white"/>
<path d="M259.254 248.039C258.983 251.732 263.23 254.812 266.96 254.206C268.579 253.897 270.149 253.374 271.631 252.651C272.953 252.04 273.859 252.184 274.893 253.227C278.703 257.104 278.545 258.114 273.563 260.527C266.037 264.177 257.164 262.042 252.741 255.524C250.526 252.267 249.56 248.313 250.024 244.394C250.487 240.475 252.347 236.859 255.26 234.216C259.612 230.24 266.579 229.21 272.053 231.732C277.203 234.105 280.256 239.168 280.058 245.002C279.978 247.38 279.486 247.893 277.047 247.905C271.865 247.931 266.679 247.905 261.494 247.92C260.751 247.923 259.986 247.999 259.254 248.039ZM259.101 242.233C263.15 242.233 266.714 242.334 270.267 242.183C271.679 242.125 271.237 241.006 270.731 240.262C269.351 238.242 267.372 237.288 264.961 237.563C262.414 237.848 260.365 239.009 259.101 242.225V242.233Z" fill="white"/>
<path d="M266.477 190.466C266.477 181.828 273.473 174.548 281.779 174.527C290.351 174.507 297.418 181.808 297.381 190.643C297.34 199.355 290.201 206.668 281.827 206.579C273.343 206.488 266.467 199.264 266.477 190.466ZM274.84 190.444C274.818 194.642 277.901 198.11 281.722 198.178C285.645 198.249 288.997 194.753 289.022 190.557C289.047 186.362 285.991 183.115 281.957 183.093C277.816 183.072 274.863 186.122 274.84 190.444Z" fill="white"/>
<path d="M203.314 238.926C203.314 232.421 203.314 225.916 203.314 219.41C203.314 216.835 203.63 216.515 206.179 216.517C212.977 216.517 212.516 215.816 212.513 222.758C212.513 234.395 212.513 246.032 212.513 257.67C212.513 261.189 212.262 261.438 208.896 261.436C202.79 261.436 203.319 261.974 203.311 255.842C203.306 250.203 203.307 244.564 203.314 238.926Z" fill="white"/>
<g opacity="0.88">
<path d="M49.6348 137C52.7731 137.926 55.9666 138.709 59.0448 139.805C77.5661 146.401 88.3684 159.424 92.8162 178.652C96.1226 192.945 93.466 205.933 84.4775 216.563C72.589 230.624 57.098 238.379 37.8166 235.96C34.5403 235.549 34.2192 234.665 36.3114 232.285C36.8332 231.686 37.2295 230.629 37.1116 229.871C35.7193 220.895 42.1666 215.626 46.499 209.293C47.4297 207.932 47.5627 205.708 47.367 203.961C46.8653 199.592 47.9038 197.065 52.886 196.517C60.1987 195.712 61.4154 193.533 58.4653 186.806C53.7891 176.075 50.6057 165.465 52.6703 153.287C53.5282 148.233 50.0763 142.45 48.5837 137H49.6348Z" fill="white"/>
</g>
<g opacity="0.78">
<path opacity="0.8" d="M154.949 172.52C151.909 171.304 148.916 169.943 145.82 168.898C127.191 162.615 110.699 166.179 95.4416 178.561C84.0874 187.773 78.2297 199.65 78.8042 213.594C79.5568 232.042 87.0225 247.752 103.685 257.791C106.52 259.497 107.313 259 107.124 255.832C107.077 255.037 107.413 253.959 107.97 253.434C114.563 247.227 112.706 239.08 113.17 231.404C113.271 229.758 114.527 227.92 115.752 226.666C118.81 223.525 119.55 220.9 115.957 217.378C110.689 212.211 111.07 209.745 117.505 206.271C127.758 200.733 136.762 194.344 142.592 183.471C145.007 178.96 151.269 176.544 155.782 173.174L154.949 172.52Z" fill="white"/>
</g>
</g>
<defs>
<clipPath id="clip0">
<rect width="329.817" height="125.355" fill="white" transform="translate(35 137)"/>
</clipPath>
</defs>
</svg>
