<svg width="400" height="400" viewBox="0 0 400 400" fill="none" xmlns="http://www.w3.org/2000/svg">
<rect opacity="0.01" width="400" height="400" fill="#0B0B0C"/>
<path d="M143.935 173.952C148.224 173.789 152.508 174.396 156.583 175.743C165.626 178.793 171.383 184.938 173.72 194.199C175.353 200.667 175.153 207.116 172.953 213.413C170.3 221.018 165.074 226.265 157.496 228.897C148.113 232.15 138.631 232.15 129.379 228.422C120.363 224.79 115.427 217.771 113.776 208.313C112.871 203.308 113.132 198.161 114.54 193.274C117.328 183.655 123.777 177.754 133.343 175.164C136.791 174.222 140.363 173.814 143.935 173.952ZM148.991 202.401H149.029C149.029 199.219 149.074 196.038 149.014 192.85C148.97 190.221 148.892 187.585 148.653 184.968C148.505 183.489 148.17 182.035 147.656 180.64C147.352 179.86 146.791 179.206 146.066 178.787C143.609 177.477 140.756 178.647 140.007 181.315C139.506 183.079 139.199 184.892 139.091 186.723C138.876 190.692 138.772 194.666 138.778 198.643C138.798 205.101 138.927 211.563 139.076 218.018C139.144 219.358 139.317 220.69 139.592 222.003C139.747 222.88 139.995 223.739 140.332 224.563C140.849 225.808 141.825 226.536 143.213 226.551C143.809 226.551 144.406 226.551 145.003 226.53C145.479 226.521 145.944 226.383 146.35 226.133C146.755 225.883 147.085 225.528 147.307 225.107C147.681 224.521 147.944 223.873 148.086 223.194C148.444 220.806 148.883 218.386 148.955 215.971C149.089 211.447 148.991 206.922 148.991 202.398V202.401Z" fill="white"/>
<path d="M264.578 223.456C263.942 224.247 263.423 224.978 262.817 225.626C259.743 228.909 255.86 230.452 251.449 230.858C248.268 231.184 245.056 230.752 242.075 229.598C238.102 228.043 235.168 225.42 234.24 221.098C233.1 215.765 234.539 209.879 239.845 206.501C243.2 204.364 246.9 203.081 250.688 202.024C254.475 200.968 258.376 200.051 262.223 199.067C262.644 198.959 263.056 198.822 263.509 198.688C263.536 198.15 263.587 197.709 263.578 197.27C263.485 193.39 263.408 189.51 263.279 185.645C263.225 184.703 263.084 183.768 262.859 182.852C262.208 179.954 259.916 177.817 256.654 177.808C253.669 177.808 251.264 179.39 250.437 182.637C249.891 184.783 249.781 187.042 249.446 189.248C249.274 190.44 248.703 191.539 247.826 192.365C246.949 193.191 245.818 193.696 244.617 193.796C242.328 193.981 239.944 192.492 239.371 190.214C239.09 189.013 239.09 187.763 239.371 186.561C240.155 183.201 242.421 180.81 245.065 178.775C250.491 174.597 256.633 173.104 263.423 173.841C266.822 174.215 270.087 174.943 273.122 176.528C279.435 179.81 283.037 185.111 284.332 191.999C284.721 194.2 284.921 196.429 284.929 198.664C285.01 204.23 284.965 209.802 284.962 215.377C284.962 219.039 285.386 222.593 287.099 225.927C287.994 227.667 287.224 229.258 285.308 229.956C281.234 231.449 277.131 231.317 273.027 230.067C269.138 228.885 267.097 227.297 264.578 223.456ZM263.721 210.106H263.59C263.59 208.22 263.62 206.334 263.59 204.436C263.557 202.866 262.742 202.412 261.343 203.158C260.325 203.688 259.433 204.428 258.726 205.331C258.019 206.233 257.513 207.276 257.242 208.39C256.529 211.076 256.52 213.798 256.72 216.52C256.825 217.705 257.136 218.862 257.639 219.94C258.573 221.997 260.623 222.253 262.017 220.457C262.678 219.603 263.107 218.594 263.265 217.526C263.563 215.064 263.587 212.58 263.721 210.106Z" fill="white"/>
<path d="M108.902 187.463V225.507C108.902 225.955 108.902 226.402 108.902 226.85C108.846 228.593 108.076 229.461 106.315 229.721C105.774 229.794 105.228 229.829 104.682 229.825C99.8554 229.825 95.0314 229.825 90.2105 229.825C89.4656 229.833 88.7218 229.767 87.99 229.628C87.447 229.525 86.9558 229.239 86.5984 228.818C86.241 228.396 86.039 227.865 86.0262 227.312C85.9993 226.966 86.0262 226.614 86.0262 226.268V151.673C86.0262 151.574 86.0262 151.473 86.0262 151.375C85.8411 149.632 86.6231 148.444 88.8316 148.035C91.0401 147.626 93.3084 147.22 95.5647 146.808C98.576 146.256 101.599 145.692 104.626 145.155C105.21 145.039 105.806 144.987 106.401 145.003C107.029 145.015 107.631 145.259 108.088 145.69C108.546 146.12 108.828 146.704 108.879 147.331C108.912 147.827 108.92 148.325 108.902 148.823V187.463Z" fill="white"/>
<path d="M291.059 187.32V148.819C291.059 148.372 291.038 147.924 291.059 147.476C291.175 145.984 292.199 144.934 293.691 145.008C295.124 145.122 296.547 145.326 297.953 145.62C302.361 146.417 306.749 147.229 311.139 148.034C313.362 148.44 313.977 149.631 313.974 151.368C313.938 176.438 313.929 201.501 313.947 226.557C313.947 228.742 313.162 229.634 310.963 229.777C309.327 229.882 307.68 229.828 306.041 229.828C302.659 229.828 299.276 229.828 295.894 229.828C295.497 229.828 295.1 229.828 294.7 229.828C292.181 229.795 291.026 228.843 291.041 226.109C291.092 213.177 291.059 200.248 291.059 187.32Z" fill="white"/>
<path d="M227.011 203.128C226.849 202.681 226.722 202.222 226.629 201.755C226.39 199.556 225.137 198.234 223.072 197.658C221.543 197.231 219.977 196.95 218.452 196.512C217.158 196.162 215.893 195.718 214.664 195.183C211.524 193.76 209.692 190.181 210.36 186.964C211.139 183.222 214.097 180.604 217.756 180.577C218.931 180.541 220.098 180.784 221.16 181.286C222.223 181.788 223.151 182.535 223.868 183.466C224.603 184.391 225.214 185.418 225.99 186.561C225.886 184.633 225.127 182.798 223.839 181.359C219.553 176.399 211.005 176.453 206.764 181.446C205.741 182.674 205.039 184.138 204.723 185.705C203.442 191.629 203.284 197.643 203.562 203.651C203.666 206.14 204.239 208.587 205.251 210.864C207.322 215.484 210.859 217.94 215.924 218.161C218.013 218.251 220.102 218.215 222.116 217.54C224.313 216.809 226.128 215.615 227.304 213.547C227.9 212.476 228.575 212.204 229.485 212.485C230.315 212.738 230.751 213.467 230.634 214.648C230.365 217.338 229.323 219.893 227.632 222.002C224.203 226.393 219.607 228.885 214.246 230.061C206.275 231.798 198.706 230.741 191.773 226.351C184.771 221.898 180.626 215.469 179.101 207.313C178.139 202.156 178.499 196.839 180.145 191.859C182.67 184.051 188.001 178.891 195.623 176.02C201.108 173.955 206.815 173.456 212.62 173.632C216.557 173.71 220.417 174.741 223.868 176.638C228.363 179.121 231.21 182.869 231.804 188.042C232.401 193.133 230.989 197.783 228.184 202.036C228.02 202.284 227.836 202.518 227.635 202.737C227.441 202.888 227.232 203.019 227.011 203.128Z" fill="white"/>
<path d="M156.03 242.106C157.537 241.649 157.752 241.718 158.316 242.936C159.424 245.323 160.51 247.711 161.599 250.116C161.71 250.409 161.909 250.66 162.169 250.833V241.969H163.775C164.157 243.21 164.193 254.092 163.844 255.495C162.393 255.936 162.19 255.877 161.632 254.656C160.555 252.307 159.501 249.949 158.436 247.598C158.31 247.261 158.085 246.971 157.791 246.765V255.626H156.174C155.821 254.459 155.726 244.3 156.03 242.106Z" fill="white"/>
<path d="M291.649 255.525C289.944 255.91 289.777 255.85 289.046 254.615C288.416 253.546 287.811 252.463 287.184 251.391C286.885 250.857 286.536 250.347 285.635 250.795V255.588H283.77V241.999C285.733 241.647 287.59 241.593 289.363 242.372C289.934 242.669 290.407 243.124 290.726 243.682C291.953 245.697 291.323 248.667 289.419 250.078L288.891 250.484C289.655 252.248 290.926 253.728 291.649 255.525ZM285.68 243.808V248.771C286.945 248.884 288.175 249.07 288.921 247.861C289.23 247.378 289.396 246.818 289.401 246.245C289.405 245.672 289.247 245.11 288.945 244.623C288.207 243.396 286.963 243.629 285.689 243.808H285.68Z" fill="white"/>
<path d="M117.665 250.565C118.635 252.218 119.56 253.791 120.495 255.379C119.029 256.003 118.632 255.901 117.952 254.761C117.271 253.621 116.665 252.52 116.003 251.409C115.621 250.768 115.603 250.78 114.564 250.699V255.588L112.66 255.686V241.957C114.567 241.707 116.418 241.608 118.199 242.381C119.095 242.778 119.638 243.575 119.924 244.521C120.638 246.9 119.954 248.804 117.665 250.565ZM114.609 248.741C115.964 248.929 117.098 248.953 117.82 247.792C118.417 246.81 118.364 245.187 117.665 244.42C116.824 243.491 115.767 243.566 114.609 243.868V248.741Z" fill="white"/>
<path d="M204.891 241.966C206.729 241.667 208.407 241.667 210.027 242.208C211.648 242.748 212.361 244.049 212.415 245.649C212.501 247.738 212.498 249.827 212.415 251.916C212.331 254.083 211.081 255.351 208.908 255.662C207.572 255.902 206.202 255.883 204.873 255.605L204.891 241.966ZM206.9 243.757V253.826C207.61 253.826 208.213 253.919 208.777 253.808C209.839 253.6 210.433 252.913 210.463 251.839C210.515 249.805 210.515 247.772 210.463 245.738C210.481 245.258 210.317 244.788 210.003 244.424C209.689 244.06 209.249 243.828 208.771 243.774C208.207 243.676 207.604 243.766 206.9 243.766V243.757Z" fill="white"/>
<path d="M134.574 245.93L133.141 246.025C132.974 245.634 132.843 245.324 132.711 245.013C132.219 243.82 131.661 243.479 130.425 243.614C129.398 243.727 128.876 244.094 128.81 245.404C128.689 247.726 128.708 250.053 128.867 252.373C128.954 253.662 129.763 254.101 131.067 254.012C132.213 253.937 132.813 253.331 132.899 252.093C132.944 251.46 132.899 250.818 132.899 250.093L130.738 249.795C130.691 249.353 130.643 248.899 130.58 248.332C132.013 247.911 133.305 248.034 134.759 248.222C134.848 249.968 135.09 251.633 134.597 253.275C134.051 255.101 132.672 255.993 130.625 255.94C128.733 255.889 127.273 254.865 126.96 253.066C126.459 250.224 126.459 247.317 126.96 244.476C127.324 242.429 129.222 241.399 131.568 241.739C133.532 241.999 134.723 243.614 134.574 245.93Z" fill="white"/>
<path d="M105.322 248.839C105.322 249.881 105.361 250.928 105.322 251.964C105.215 254.402 103.633 255.922 101.242 255.93C98.8515 255.939 97.1802 254.438 97.0907 252.036C97.0131 249.857 97.0369 247.672 97.0907 245.494C97.0981 244.958 97.2158 244.431 97.4362 243.943C97.6566 243.455 97.9752 243.018 98.3719 242.659C98.7687 242.3 99.2352 242.026 99.7423 241.855C100.249 241.684 100.786 241.619 101.32 241.665C103.627 241.775 105.2 243.208 105.319 245.568C105.367 246.658 105.322 247.75 105.322 248.839ZM99.0545 248.738C99.0545 249.729 99.0187 250.72 99.0545 251.722C99.1201 253.295 99.8006 254.005 101.173 254.017C102.546 254.029 103.295 253.34 103.34 251.779C103.396 249.801 103.396 247.82 103.34 245.834C103.295 244.291 102.546 243.587 101.159 243.607C99.7708 243.628 99.1171 244.351 99.0694 245.926C99.0097 246.852 99.0395 247.795 99.0425 248.738H99.0545Z" fill="white"/>
<path d="M226.571 253.883V255.584C224.303 255.955 222.07 255.814 219.599 255.683C219.528 251.051 219.537 246.571 219.599 242.166C221.056 241.689 224.915 241.671 226.356 242.091V243.643H221.736V247.625L225.983 247.858V249.577H221.733V253.883H226.571Z" fill="white"/>
<path d="M149.683 255.656H147.746C147.466 254.761 147.206 253.934 146.908 252.988H143.392L142.515 255.638H140.602C141.795 251.027 142.924 246.592 144.099 241.999L146.114 241.811C147.299 246.425 148.457 250.905 149.683 255.656ZM145.248 245.58L145.043 245.56C144.64 247.273 144.234 248.986 143.798 250.842H146.463C146.039 249.016 145.645 247.3 145.248 245.58Z" fill="white"/>
<path d="M269.941 241.93H276.507V243.667H271.92V247.64L276.191 247.854V249.6H271.92V253.859H276.743C276.794 254.522 276.83 254.978 276.874 255.575C274.575 255.892 272.245 255.909 269.941 255.626V241.93Z" fill="white"/>
<path d="M259.087 252.552C259.925 248.905 260.716 245.482 261.528 241.954H263.563C262.402 246.607 261.28 251.102 260.146 255.638H258.057C256.917 251.081 255.804 246.625 254.637 241.963L256.529 241.829C257.573 245.332 258.158 248.863 259.087 252.552Z" fill="white"/>
<path d="M187.062 251.678H188.5C188.778 253.695 187.739 255.31 185.91 255.811C183.874 256.372 181.86 255.572 181.117 253.823C180.846 253.185 180.695 252.502 180.669 251.809C180.612 249.821 180.63 247.834 180.669 245.84C180.685 245.295 180.779 244.756 180.946 244.237C181.588 242.202 183.415 241.253 185.722 241.733C187.512 242.106 188.635 243.694 188.488 245.911L186.957 245.998C186.796 245.503 186.701 245.124 186.554 244.765C186.402 244.369 186.133 244.028 185.784 243.787C185.435 243.546 185.021 243.416 184.597 243.413C184.146 243.444 183.718 243.621 183.378 243.918C183.038 244.215 182.804 244.616 182.713 245.058C182.666 245.253 182.643 245.454 182.645 245.655C182.645 247.744 182.597 249.833 182.66 251.922C182.707 253.51 183.603 254.22 185.068 254.032C185.392 254.008 185.702 253.895 185.965 253.705C186.229 253.515 186.434 253.257 186.56 252.958C186.722 252.549 186.877 252.146 187.062 251.678Z" fill="white"/>
<path d="M302.276 255.629H300.312C300.312 254.436 300.366 253.346 300.294 252.269C300.254 251.434 300.106 250.609 299.853 249.813C299.127 247.703 298.304 245.634 297.528 243.545C297.36 243.095 297.229 242.626 297.035 241.984H298.942L301.267 248.359C302.13 246.013 302.876 243.981 303.625 241.937H305.496C305.344 242.492 305.263 242.912 305.114 243.309C304.41 245.217 303.717 247.13 302.959 249.013C302.43 250.245 302.192 251.583 302.264 252.923C302.321 253.746 302.276 254.585 302.276 255.629Z" fill="white"/>
<path d="M235.444 253.967H240.064C240.099 254.546 240.126 254.967 240.162 255.54C237.927 255.969 235.799 255.862 233.572 255.605V241.975H235.444V253.967Z" fill="white"/>
<path d="M173.309 255.609C173.053 255.68 172.791 255.728 172.527 255.752C172.292 255.733 172.06 255.69 171.834 255.624C171.423 254.43 171.357 243.686 171.778 241.946L173.195 241.877C173.652 243.142 173.73 253.899 173.309 255.609Z" fill="white"/>
<path d="M248.174 255.648H246.404C246.308 251.081 246.335 246.613 246.404 241.984L248.194 241.874L248.174 255.648Z" fill="white"/>
</svg>
