<svg width="400" height="400" viewBox="0 0 400 400" fill="none" xmlns="http://www.w3.org/2000/svg">
<rect opacity="0.01" width="400" height="400" fill="#0B0B0C"/>
<g clip-path="url(#clip0)">
<path d="M88.0273 209.296C88.4255 197.946 88.8953 184.5 89.3889 171.057C89.4133 170.097 89.5272 169.142 89.7293 168.203C90.3454 165.512 91.7717 164.565 94.2055 166.32C96.3636 167.879 98.532 169.43 100.598 171.119C106.95 176.302 113.346 181.411 119.545 186.77C124.379 190.943 124.882 191.064 130.053 186.804C137.256 180.867 144.479 174.951 151.723 169.057C152.904 168.096 154.126 167.184 155.372 166.293C157.823 164.565 159.232 165.401 159.705 168.228C159.995 169.737 160.19 171.264 160.287 172.798C160.818 186.618 161.278 200.455 161.819 214.281C161.976 218.31 162.405 222.328 162.551 226.373C162.769 232.295 161.928 233.204 156.322 233.335C153.101 233.411 149.878 233.425 146.658 233.335C141.269 233.176 140.639 232.478 140.381 226.819C140.18 222.404 140.173 217.968 139.751 213.573C139.288 208.767 138.512 208.505 134.696 211.417C132.276 213.269 129.845 215.124 127.588 217.169C124.773 219.723 122.288 219.505 119.637 216.935C117.702 215.094 115.667 213.364 113.544 211.752C110.936 209.735 109.843 210.132 109.605 213.393C109.265 218.182 109.326 223.005 109.027 227.797C108.686 232.955 108.267 233.342 103.308 233.521C100.282 233.632 97.2419 233.625 94.2157 233.521C88.8102 233.376 88.1396 232.689 88.0443 226.985C87.9558 221.792 88.0273 216.599 88.0273 209.296Z" fill="white"/>
<path d="M311.91 200.026C311.91 209.064 311.978 218.102 311.886 227.14C311.829 232.713 311.1 233.38 305.548 233.514C301.95 233.601 298.345 233.625 294.751 233.487C290.04 233.307 289.277 232.502 289.093 227.572C288.954 223.73 289.127 219.878 288.964 216.036C288.763 211.237 287.943 210.46 283.15 210.26C280.502 210.149 277.843 210.26 275.195 210.163C272.305 210.059 271.025 211.483 271.015 214.309C271.015 218.731 271.032 223.157 270.902 227.575C270.756 232.537 270.028 233.331 265.296 233.483C261.133 233.618 256.956 233.618 252.793 233.483C248.273 233.331 247.302 232.512 247.279 228.076C247.186 209.229 247.191 190.384 247.296 171.541C247.323 166.745 248.354 165.816 253.035 165.64C257.198 165.484 261.375 165.477 265.538 165.64C269.942 165.809 270.708 166.655 270.885 171.233C271.032 175.075 270.844 178.931 271.018 182.769C271.219 187.226 272.073 188.169 276.488 188.349C290.673 188.929 288.991 187.253 289.025 176.989C289.059 165.588 289.025 165.588 300.19 165.588C302.277 165.588 304.364 165.519 306.443 165.633C310.869 165.885 311.771 166.669 311.835 171.199C311.972 180.81 311.88 190.429 311.88 200.043L311.91 200.026Z" fill="white"/>
<path d="M170.895 201.083C171.235 185.765 176.657 174.073 189.616 167.626C203.362 160.803 217.24 161.193 229.739 171.033C233.068 173.652 235.638 177.504 237.909 181.204C240.05 184.7 239.059 186.822 235.247 188.359C231.019 190.062 226.666 191.417 222.424 193.058C219.521 194.184 217.999 192.512 216.117 190.677C209.649 184.4 199.287 186.186 195.431 194.022C192.772 199.432 194.113 206.363 198.47 209.703C203.672 213.69 211.045 214.057 215.177 209.569C218.54 205.917 221.784 205.82 225.835 207.268C228.868 208.353 231.983 209.199 235.026 210.229C239.863 211.863 240.496 213.169 237.807 217.757C232.102 227.5 223.919 233.953 212.634 235.549C204.42 236.71 196.469 235.829 188.922 231.804C176.286 225.06 171.415 213.946 170.895 201.083Z" fill="white"/>
</g>
<defs>
<clipPath id="clip0">
<rect width="223.935" height="73.0225" fill="white" transform="translate(88 163)"/>
</clipPath>
</defs>
</svg>
